<svg width="173" height="92" viewBox="0 0 173 92" fill="none" xmlns="http://www.w3.org/2000/svg">
<path d="M24.4476 14.8H15.5196L13.6716 19H11.1996L18.8076 2.2H21.1836L28.8156 19H26.2956L24.4476 14.8ZM23.6076 12.88L19.9836 4.648L16.3596 12.88H23.6076ZM37.1325 19.144C35.8365 19.144 34.6765 18.864 33.6525 18.304C32.6445 17.744 31.8525 16.976 31.2765 16C30.7005 15.008 30.4125 13.888 30.4125 12.64C30.4125 11.392 30.7005 10.28 31.2765 9.304C31.8525 8.312 32.6445 7.544 33.6525 7C34.6765 6.44 35.8365 6.16 37.1325 6.16C38.2845 6.16 39.3085 6.392 40.2045 6.856C41.1165 7.32 41.8205 7.992 42.3165 8.872L40.5645 10C40.1645 9.392 39.6685 8.936 39.0765 8.632C38.4845 8.328 37.8285 8.176 37.1085 8.176C36.2765 8.176 35.5245 8.36 34.8525 8.728C34.1965 9.096 33.6765 9.624 33.2925 10.312C32.9245 10.984 32.7405 11.76 32.7405 12.64C32.7405 13.536 32.9245 14.328 33.2925 15.016C33.6765 15.688 34.1965 16.208 34.8525 16.576C35.5245 16.944 36.2765 17.128 37.1085 17.128C37.8285 17.128 38.4845 16.976 39.0765 16.672C39.6685 16.368 40.1645 15.912 40.5645 15.304L42.3165 16.408C41.8205 17.288 41.1165 17.968 40.2045 18.448C39.3085 18.912 38.2845 19.144 37.1325 19.144ZM57.832 6.28V23.656H55.528V17.08C55 17.752 54.352 18.264 53.584 18.616C52.832 18.968 52 19.144 51.088 19.144C49.856 19.144 48.752 18.872 47.776 18.328C46.8 17.784 46.032 17.024 45.472 16.048C44.928 15.056 44.656 13.92 44.656 12.64C44.656 11.36 44.928 10.232 45.472 9.256C46.032 8.28 46.8 7.52 47.776 6.976C48.752 6.432 49.856 6.16 51.088 6.16C52.032 6.16 52.896 6.344 53.68 6.712C54.464 7.064 55.112 7.592 55.624 8.296V6.28H57.832ZM51.28 17.128C52.08 17.128 52.808 16.944 53.464 16.576C54.12 16.192 54.632 15.664 55 14.992C55.368 14.304 55.552 13.52 55.552 12.64C55.552 11.76 55.36 10.984 54.976 10.312C54.608 9.64 54.096 9.12 53.44 8.752C52.8 8.368 52.08 8.176 51.28 8.176C50.464 8.176 49.728 8.36 49.072 8.728C48.432 9.096 47.92 9.624 47.536 10.312C47.168 10.984 46.984 11.76 46.984 12.64C46.984 13.52 47.168 14.304 47.536 14.992C47.92 15.664 48.432 16.192 49.072 16.576C49.728 16.944 50.464 17.128 51.28 17.128ZM74.7673 6.28V19H72.5833V17.08C72.1193 17.736 71.5033 18.248 70.7353 18.616C69.9833 18.968 69.1593 19.144 68.2633 19.144C66.5673 19.144 65.2313 18.68 64.2553 17.752C63.2793 16.808 62.7913 15.424 62.7913 13.6V6.28H65.0953V13.336C65.0953 14.568 65.3913 15.504 65.9833 16.144C66.5753 16.768 67.4233 17.08 68.5273 17.08C69.7433 17.08 70.7033 16.712 71.4073 15.976C72.1113 15.24 72.4633 14.2 72.4633 12.856V6.28H74.7673ZM79.8735 6.28H82.1775V19H79.8735V6.28ZM81.0255 3.832C80.5775 3.832 80.2015 3.688 79.8975 3.4C79.6095 3.112 79.4655 2.76 79.4655 2.344C79.4655 1.928 79.6095 1.576 79.8975 1.288C80.2015 0.983999 80.5775 0.831999 81.0255 0.831999C81.4735 0.831999 81.8415 0.975999 82.1295 1.264C82.4335 1.536 82.5855 1.88 82.5855 2.296C82.5855 2.728 82.4335 3.096 82.1295 3.4C81.8415 3.688 81.4735 3.832 81.0255 3.832ZM89.5047 8.416C89.9047 7.68 90.4967 7.12 91.2807 6.736C92.0647 6.352 93.0167 6.16 94.1367 6.16V8.392C94.0087 8.376 93.8327 8.368 93.6087 8.368C92.3607 8.368 91.3767 8.744 90.6567 9.496C89.9527 10.232 89.6007 11.288 89.6007 12.664V19H87.2967V6.28H89.5047V8.416ZM109.075 12.712C109.075 12.888 109.059 13.12 109.027 13.408H98.7072C98.8512 14.528 99.3392 15.432 100.171 16.12C101.019 16.792 102.067 17.128 103.315 17.128C104.835 17.128 106.059 16.616 106.987 15.592L108.259 17.08C107.683 17.752 106.963 18.264 106.099 18.616C105.251 18.968 104.299 19.144 103.243 19.144C101.899 19.144 100.707 18.872 99.6672 18.328C98.6272 17.768 97.8192 16.992 97.2432 16C96.6832 15.008 96.4032 13.888 96.4032 12.64C96.4032 11.408 96.6752 10.296 97.2192 9.304C97.7792 8.312 98.5392 7.544 99.4992 7C100.475 6.44 101.571 6.16 102.787 6.16C104.003 6.16 105.083 6.44 106.027 7C106.987 7.544 107.731 8.312 108.259 9.304C108.803 10.296 109.075 11.432 109.075 12.712ZM102.787 8.104C101.683 8.104 100.755 8.44 100.003 9.112C99.2672 9.784 98.8352 10.664 98.7072 11.752H106.867C106.739 10.68 106.299 9.808 105.547 9.136C104.811 8.448 103.891 8.104 102.787 8.104ZM124.994 1.192V19H122.786V16.984C122.274 17.688 121.626 18.224 120.842 18.592C120.058 18.96 119.194 19.144 118.25 19.144C117.018 19.144 115.914 18.872 114.938 18.328C113.962 17.784 113.194 17.024 112.634 16.048C112.09 15.056 111.818 13.92 111.818 12.64C111.818 11.36 112.09 10.232 112.634 9.256C113.194 8.28 113.962 7.52 114.938 6.976C115.914 6.432 117.018 6.16 118.25 6.16C119.162 6.16 120.002 6.336 120.77 6.688C121.538 7.024 122.178 7.528 122.69 8.2V1.192H124.994ZM118.442 17.128C119.242 17.128 119.97 16.944 120.626 16.576C121.282 16.192 121.794 15.664 122.162 14.992C122.53 14.304 122.714 13.52 122.714 12.64C122.714 11.76 122.53 10.984 122.162 10.312C121.794 9.624 121.282 9.096 120.626 8.728C119.97 8.36 119.242 8.176 118.442 8.176C117.626 8.176 116.89 8.36 116.234 8.728C115.594 9.096 115.082 9.624 114.698 10.312C114.33 10.984 114.146 11.76 114.146 12.64C114.146 13.52 114.33 14.304 114.698 14.992C115.082 15.664 115.594 16.192 116.234 16.576C116.89 16.944 117.626 17.128 118.442 17.128ZM141.871 6.16C143.631 6.16 144.975 6.592 145.903 7.456C146.847 8.32 147.319 9.608 147.319 11.32V19H145.135V17.32C144.751 17.912 144.199 18.368 143.479 18.688C142.775 18.992 141.935 19.144 140.959 19.144C139.535 19.144 138.391 18.8 137.527 18.112C136.679 17.424 136.255 16.52 136.255 15.4C136.255 14.28 136.663 13.384 137.479 12.712C138.295 12.024 139.591 11.68 141.367 11.68H145.015V11.224C145.015 10.232 144.727 9.472 144.151 8.944C143.575 8.416 142.727 8.152 141.607 8.152C140.855 8.152 140.119 8.28 139.399 8.536C138.679 8.776 138.071 9.104 137.575 9.52L136.615 7.792C137.271 7.264 138.055 6.864 138.967 6.592C139.879 6.304 140.847 6.16 141.871 6.16ZM141.343 17.368C142.223 17.368 142.983 17.176 143.623 16.792C144.263 16.392 144.727 15.832 145.015 15.112V13.336H141.463C139.511 13.336 138.535 13.992 138.535 15.304C138.535 15.944 138.783 16.448 139.279 16.816C139.775 17.184 140.463 17.368 141.343 17.368ZM159.455 18.256C159.119 18.544 158.703 18.768 158.207 18.928C157.711 19.072 157.199 19.144 156.671 19.144C155.391 19.144 154.399 18.8 153.695 18.112C152.991 17.424 152.639 16.44 152.639 15.16V8.176H150.479V6.28H152.639V3.496H154.943V6.28H158.591V8.176H154.943V15.064C154.943 15.752 155.111 16.28 155.447 16.648C155.799 17.016 156.295 17.2 156.935 17.2C157.639 17.2 158.239 17 158.735 16.6L159.455 18.256ZM15.3746 38.2V55H13.4066L3.32656 42.472V55H0.926563V38.2H2.89456L12.9746 50.728V38.2H15.3746ZM27.0031 44.8C28.1071 44.8 29.0911 45.008 29.9551 45.424C30.8351 45.84 31.5231 46.44 32.0191 47.224C32.5151 47.992 32.7631 48.88 32.7631 49.888C32.7631 50.944 32.4991 51.872 31.9711 52.672C31.4591 53.472 30.7471 54.096 29.8351 54.544C28.9391 54.976 27.9311 55.192 26.8111 55.192C24.5551 55.192 22.8111 54.464 21.5791 53.008C20.3631 51.552 19.7551 49.488 19.7551 46.816C19.7551 44.944 20.0831 43.352 20.7391 42.04C21.4111 40.712 22.3391 39.712 23.5231 39.04C24.7231 38.352 26.1151 38.008 27.6991 38.008C28.5151 38.008 29.2831 38.096 30.0031 38.272C30.7231 38.432 31.3471 38.672 31.8751 38.992L30.9631 40.864C30.1631 40.336 29.0911 40.072 27.7471 40.072C26.0031 40.072 24.6351 40.616 23.6431 41.704C22.6511 42.776 22.1551 44.344 22.1551 46.408C22.1551 46.664 22.1631 46.864 22.1791 47.008C22.6591 46.288 23.3151 45.744 24.1471 45.376C24.9951 44.992 25.9471 44.8 27.0031 44.8ZM26.7151 53.248C27.8191 53.248 28.7151 52.952 29.4031 52.36C30.0911 51.768 30.4351 50.976 30.4351 49.984C30.4351 48.992 30.0831 48.208 29.3791 47.632C28.6911 47.04 27.7631 46.744 26.5951 46.744C25.8431 46.744 25.1711 46.888 24.5791 47.176C24.0031 47.464 23.5471 47.856 23.2111 48.352C22.8911 48.848 22.7311 49.4 22.7311 50.008C22.7311 50.6 22.8831 51.144 23.1871 51.64C23.5071 52.12 23.9631 52.512 24.5551 52.816C25.1631 53.104 25.8831 53.248 26.7151 53.248ZM42.1516 55.192C40.8236 55.192 39.6396 54.856 38.5996 54.184C37.5756 53.496 36.7676 52.504 36.1756 51.208C35.5836 49.912 35.2876 48.376 35.2876 46.6C35.2876 44.824 35.5836 43.288 36.1756 41.992C36.7676 40.696 37.5756 39.712 38.5996 39.04C39.6396 38.352 40.8236 38.008 42.1516 38.008C43.4636 38.008 44.6316 38.352 45.6556 39.04C46.6956 39.712 47.5116 40.696 48.1036 41.992C48.6956 43.288 48.9916 44.824 48.9916 46.6C48.9916 48.376 48.6956 49.912 48.1036 51.208C47.5116 52.504 46.6956 53.496 45.6556 54.184C44.6316 54.856 43.4636 55.192 42.1516 55.192ZM42.1516 53.056C43.4956 53.056 44.5676 52.504 45.3676 51.4C46.1836 50.296 46.5916 48.696 46.5916 46.6C46.5916 44.504 46.1836 42.904 45.3676 41.8C44.5676 40.696 43.4956 40.144 42.1516 40.144C40.7916 40.144 39.7036 40.696 38.8876 41.8C38.0876 42.904 37.6876 44.504 37.6876 46.6C37.6876 48.696 38.0876 50.296 38.8876 51.4C39.7036 52.504 40.7916 53.056 42.1516 53.056ZM58.8794 55.192C57.5514 55.192 56.3674 54.856 55.3274 54.184C54.3034 53.496 53.4954 52.504 52.9034 51.208C52.3114 49.912 52.0154 48.376 52.0154 46.6C52.0154 44.824 52.3114 43.288 52.9034 41.992C53.4954 40.696 54.3034 39.712 55.3274 39.04C56.3674 38.352 57.5514 38.008 58.8794 38.008C60.1914 38.008 61.3594 38.352 62.3834 39.04C63.4234 39.712 64.2394 40.696 64.8314 41.992C65.4234 43.288 65.7194 44.824 65.7194 46.6C65.7194 48.376 65.4234 49.912 64.8314 51.208C64.2394 52.504 63.4234 53.496 62.3834 54.184C61.3594 54.856 60.1914 55.192 58.8794 55.192ZM58.8794 53.056C60.2234 53.056 61.2954 52.504 62.0954 51.4C62.9114 50.296 63.3194 48.696 63.3194 46.6C63.3194 44.504 62.9114 42.904 62.0954 41.8C61.2954 40.696 60.2234 40.144 58.8794 40.144C57.5194 40.144 56.4314 40.696 55.6154 41.8C54.8154 42.904 54.4154 44.504 54.4154 46.6C54.4154 48.696 54.8154 50.296 55.6154 51.4C56.4314 52.504 57.5194 53.056 58.8794 53.056ZM70.07 51.856C70.518 51.856 70.886 52.016 71.174 52.336C71.478 52.64 71.63 53.024 71.63 53.488C71.63 53.728 71.598 53.96 71.534 54.184C71.486 54.408 71.382 54.752 71.222 55.216L70.094 58.552H68.582L69.47 54.976C69.166 54.864 68.918 54.68 68.726 54.424C68.55 54.152 68.462 53.84 68.462 53.488C68.462 53.008 68.614 52.616 68.918 52.312C69.222 52.008 69.606 51.856 70.07 51.856ZM81.2022 55.192C79.8742 55.192 78.6902 54.856 77.6502 54.184C76.6262 53.496 75.8182 52.504 75.2262 51.208C74.6342 49.912 74.3382 48.376 74.3382 46.6C74.3382 44.824 74.6342 43.288 75.2262 41.992C75.8182 40.696 76.6262 39.712 77.6502 39.04C78.6902 38.352 79.8742 38.008 81.2022 38.008C82.5142 38.008 83.6822 38.352 84.7062 39.04C85.7462 39.712 86.5622 40.696 87.1542 41.992C87.7462 43.288 88.0422 44.824 88.0422 46.6C88.0422 48.376 87.7462 49.912 87.1542 51.208C86.5622 52.504 85.7462 53.496 84.7062 54.184C83.6822 54.856 82.5142 55.192 81.2022 55.192ZM81.2022 53.056C82.5462 53.056 83.6182 52.504 84.4182 51.4C85.2342 50.296 85.6423 48.696 85.6423 46.6C85.6423 44.504 85.2342 42.904 84.4182 41.8C83.6182 40.696 82.5462 40.144 81.2022 40.144C79.8422 40.144 78.7542 40.696 77.9382 41.8C77.1382 42.904 76.7382 44.504 76.7382 46.6C76.7382 48.696 77.1382 50.296 77.9382 51.4C78.7542 52.504 79.8422 53.056 81.2022 53.056ZM97.9301 55.192C96.6021 55.192 95.4181 54.856 94.3781 54.184C93.3541 53.496 92.5461 52.504 91.9541 51.208C91.3621 49.912 91.0661 48.376 91.0661 46.6C91.0661 44.824 91.3621 43.288 91.9541 41.992C92.5461 40.696 93.3541 39.712 94.3781 39.04C95.4181 38.352 96.6021 38.008 97.9301 38.008C99.2421 38.008 100.41 38.352 101.434 39.04C102.474 39.712 103.29 40.696 103.882 41.992C104.474 43.288 104.77 44.824 104.77 46.6C104.77 48.376 104.474 49.912 103.882 51.208C103.29 52.504 102.474 53.496 101.434 54.184C100.41 54.856 99.2421 55.192 97.9301 55.192ZM97.9301 53.056C99.2741 53.056 100.346 52.504 101.146 51.4C101.962 50.296 102.37 48.696 102.37 46.6C102.37 44.504 101.962 42.904 101.146 41.8C100.346 40.696 99.2741 40.144 97.9301 40.144C96.5701 40.144 95.4821 40.696 94.6661 41.8C93.8661 42.904 93.4661 44.504 93.4661 46.6C93.4661 48.696 93.8661 50.296 94.6661 51.4C95.4821 52.504 96.5701 53.056 97.9301 53.056ZM114.658 55.192C113.33 55.192 112.146 54.856 111.106 54.184C110.082 53.496 109.274 52.504 108.682 51.208C108.09 49.912 107.794 48.376 107.794 46.6C107.794 44.824 108.09 43.288 108.682 41.992C109.274 40.696 110.082 39.712 111.106 39.04C112.146 38.352 113.33 38.008 114.658 38.008C115.97 38.008 117.138 38.352 118.162 39.04C119.202 39.712 120.018 40.696 120.61 41.992C121.202 43.288 121.498 44.824 121.498 46.6C121.498 48.376 121.202 49.912 120.61 51.208C120.018 52.504 119.202 53.496 118.162 54.184C117.138 54.856 115.97 55.192 114.658 55.192ZM114.658 53.056C116.002 53.056 117.074 52.504 117.874 51.4C118.69 50.296 119.098 48.696 119.098 46.6C119.098 44.504 118.69 42.904 117.874 41.8C117.074 40.696 116.002 40.144 114.658 40.144C113.298 40.144 112.21 40.696 111.394 41.8C110.594 42.904 110.194 44.504 110.194 46.6C110.194 48.696 110.594 50.296 111.394 51.4C112.21 52.504 113.298 53.056 114.658 53.056ZM139.463 42.16C140.695 42.16 141.799 42.432 142.775 42.976C143.751 43.52 144.511 44.28 145.055 45.256C145.615 46.232 145.895 47.36 145.895 48.64C145.895 49.92 145.615 51.056 145.055 52.048C144.511 53.024 143.751 53.784 142.775 54.328C141.799 54.872 140.695 55.144 139.463 55.144C138.551 55.144 137.711 54.968 136.943 54.616C136.191 54.264 135.551 53.752 135.023 53.08V59.656H132.719V42.28H134.927V44.296C135.439 43.592 136.087 43.064 136.871 42.712C137.655 42.344 138.519 42.16 139.463 42.16ZM139.271 53.128C140.087 53.128 140.815 52.944 141.455 52.576C142.111 52.192 142.623 51.664 142.991 50.992C143.375 50.304 143.567 49.52 143.567 48.64C143.567 47.76 143.375 46.984 142.991 46.312C142.623 45.624 142.111 45.096 141.455 44.728C140.815 44.36 140.087 44.176 139.271 44.176C138.471 44.176 137.743 44.368 137.087 44.752C136.447 45.12 135.935 45.64 135.551 46.312C135.183 46.984 134.999 47.76 134.999 48.64C134.999 49.52 135.183 50.304 135.551 50.992C135.919 51.664 136.431 52.192 137.087 52.576C137.743 52.944 138.471 53.128 139.271 53.128ZM161.294 48.712C161.294 48.888 161.278 49.12 161.246 49.408H150.926C151.07 50.528 151.558 51.432 152.39 52.12C153.238 52.792 154.286 53.128 155.534 53.128C157.054 53.128 158.278 52.616 159.206 51.592L160.478 53.08C159.902 53.752 159.182 54.264 158.318 54.616C157.47 54.968 156.518 55.144 155.462 55.144C154.118 55.144 152.926 54.872 151.886 54.328C150.846 53.768 150.038 52.992 149.462 52C148.902 51.008 148.622 49.888 148.622 48.64C148.622 47.408 148.894 46.296 149.438 45.304C149.998 44.312 150.758 43.544 151.718 43C152.694 42.44 153.79 42.16 155.006 42.16C156.222 42.16 157.302 42.44 158.246 43C159.206 43.544 159.95 44.312 160.478 45.304C161.022 46.296 161.294 47.432 161.294 48.712ZM155.006 44.104C153.902 44.104 152.974 44.44 152.222 45.112C151.486 45.784 151.054 46.664 150.926 47.752H159.086C158.958 46.68 158.518 45.808 157.766 45.136C157.03 44.448 156.11 44.104 155.006 44.104ZM167.422 44.416C167.822 43.68 168.414 43.12 169.198 42.736C169.982 42.352 170.934 42.16 172.054 42.16V44.392C171.926 44.376 171.75 44.368 171.526 44.368C170.278 44.368 169.294 44.744 168.574 45.496C167.87 46.232 167.518 47.288 167.518 48.664V55H165.214V42.28H167.422V44.416ZM74.3506 78.28V91H72.1666V89.08C71.7026 89.736 71.0866 90.248 70.3186 90.616C69.5666 90.968 68.7426 91.144 67.8466 91.144C66.1506 91.144 64.8146 90.68 63.8386 89.752C62.8626 88.808 62.3746 87.424 62.3746 85.6V78.28H64.6786V85.336C64.6786 86.568 64.9746 87.504 65.5666 88.144C66.1586 88.768 67.0066 89.08 68.1106 89.08C69.3266 89.08 70.2866 88.712 70.9906 87.976C71.6946 87.24 72.0466 86.2 72.0466 84.856V78.28H74.3506ZM86.2488 78.16C87.8648 78.16 89.1448 78.632 90.0888 79.576C91.0488 80.504 91.5288 81.872 91.5288 83.68V91H89.2248V83.944C89.2248 82.712 88.9288 81.784 88.3368 81.16C87.7448 80.536 86.8968 80.224 85.7928 80.224C84.5448 80.224 83.5608 80.592 82.8408 81.328C82.1208 82.048 81.7608 83.088 81.7608 84.448V91H79.4568V78.28H81.6648V80.2C82.1288 79.544 82.7528 79.04 83.5368 78.688C84.3368 78.336 85.2408 78.16 86.2488 78.16ZM96.5128 78.28H98.8168V91H96.5128V78.28ZM97.6648 75.832C97.2168 75.832 96.8408 75.688 96.5368 75.4C96.2488 75.112 96.1048 74.76 96.1048 74.344C96.1048 73.928 96.2488 73.576 96.5368 73.288C96.8408 72.984 97.2168 72.832 97.6648 72.832C98.1128 72.832 98.4808 72.976 98.7688 73.264C99.0728 73.536 99.2248 73.88 99.2248 74.296C99.2248 74.728 99.0728 75.096 98.7688 75.4C98.4808 75.688 98.1128 75.832 97.6648 75.832ZM111.088 90.256C110.752 90.544 110.336 90.768 109.84 90.928C109.344 91.072 108.832 91.144 108.304 91.144C107.024 91.144 106.032 90.8 105.328 90.112C104.624 89.424 104.272 88.44 104.272 87.16V80.176H102.112V78.28H104.272V75.496H106.576V78.28H110.224V80.176H106.576V87.064C106.576 87.752 106.744 88.28 107.08 88.648C107.432 89.016 107.928 89.2 108.568 89.2C109.272 89.2 109.872 89 110.368 88.6L111.088 90.256Z" fill="black"/>
</svg>
