<svg width="97" height="51" viewBox="0 0 97 51" fill="none" xmlns="http://www.w3.org/2000/svg">
<path d="M13.4402 7.84559H8.44334L7.40904 10.1963H6.02549L10.2836 0.793512H11.6134L15.885 10.1963H14.4746L13.4402 7.84559ZM12.9701 6.77099L10.9418 2.16363L8.91348 6.77099H12.9701ZM20.5399 10.2769C19.8145 10.2769 19.1653 10.1202 18.5921 9.80675C18.028 9.49332 17.5847 9.06348 17.2623 8.51722C16.9399 7.96201 16.7788 7.33516 16.7788 6.63667C16.7788 5.93817 16.9399 5.3158 17.2623 4.76954C17.5847 4.21433 18.028 3.78449 18.5921 3.48002C19.1653 3.16659 19.8145 3.00988 20.5399 3.00988C21.1846 3.00988 21.7577 3.13973 22.2592 3.39942C22.7697 3.65912 23.1637 4.03523 23.4413 4.52776L22.4607 5.15909C22.2368 4.8188 21.9592 4.56358 21.6279 4.39343C21.2966 4.22329 20.9294 4.13821 20.5264 4.13821C20.0608 4.13821 19.6399 4.2412 19.2638 4.44716C18.8966 4.65313 18.6056 4.94864 18.3907 5.33371C18.1847 5.70982 18.0817 6.14414 18.0817 6.63667C18.0817 7.13815 18.1847 7.58142 18.3907 7.96649C18.6056 8.3426 18.8966 8.63364 19.2638 8.8396C19.6399 9.04557 20.0608 9.14855 20.5264 9.14855C20.9294 9.14855 21.2966 9.06348 21.6279 8.89333C21.9592 8.72319 22.2368 8.46797 22.4607 8.12768L23.4413 8.74558C23.1637 9.2381 22.7697 9.61869 22.2592 9.88734C21.7577 10.147 21.1846 10.2769 20.5399 10.2769ZM32.1251 3.07704V12.8022H30.8356V9.12169C30.5401 9.4978 30.1774 9.78436 29.7476 9.98137C29.3267 10.1784 28.861 10.2769 28.3506 10.2769C27.661 10.2769 27.0431 10.1246 26.4969 9.82018C25.9506 9.51571 25.5208 9.09034 25.2074 8.54409C24.9029 7.98888 24.7507 7.35307 24.7507 6.63667C24.7507 5.92026 24.9029 5.28894 25.2074 4.74268C25.5208 4.19642 25.9506 3.77106 26.4969 3.46659C27.0431 3.16212 27.661 3.00988 28.3506 3.00988C28.8789 3.00988 29.3625 3.11286 29.8013 3.31883C30.2401 3.51584 30.6028 3.81136 30.8893 4.20538V3.07704H32.1251ZM28.458 9.14855C28.9058 9.14855 29.3132 9.04557 29.6804 8.8396C30.0475 8.62468 30.3341 8.32917 30.5401 7.95306C30.746 7.56799 30.849 7.12919 30.849 6.63667C30.849 6.14414 30.7416 5.70982 30.5266 5.33371C30.3207 4.9576 30.0341 4.66656 29.667 4.4606C29.3088 4.24567 28.9058 4.13821 28.458 4.13821C28.0013 4.13821 27.5894 4.2412 27.2222 4.44716C26.864 4.65313 26.5775 4.94864 26.3626 5.33371C26.1566 5.70982 26.0536 6.14414 26.0536 6.63667C26.0536 7.12919 26.1566 7.56799 26.3626 7.95306C26.5775 8.32917 26.864 8.62468 27.2222 8.8396C27.5894 9.04557 28.0013 9.14855 28.458 9.14855ZM41.6037 3.07704V10.1963H40.3813V9.12169C40.1216 9.48884 39.7768 9.7754 39.347 9.98137C38.9261 10.1784 38.4649 10.2769 37.9634 10.2769C37.0142 10.2769 36.2665 10.0172 35.7202 9.4978C35.174 8.96945 34.9008 8.19484 34.9008 7.17397V3.07704H36.1903V7.02621C36.1903 7.71575 36.356 8.23962 36.6874 8.59782C37.0187 8.94706 37.4933 9.12169 38.1112 9.12169C38.7918 9.12169 39.3291 8.91572 39.7231 8.50379C40.1171 8.09186 40.3141 7.50978 40.3141 6.75756V3.07704H41.6037ZM44.4615 3.07704H45.7511V10.1963H44.4615V3.07704ZM45.1063 1.70693C44.8556 1.70693 44.6451 1.62633 44.475 1.46514C44.3138 1.30395 44.2332 1.10694 44.2332 0.874108C44.2332 0.641277 44.3138 0.444267 44.475 0.283076C44.6451 0.112931 44.8556 0.0278581 45.1063 0.0278581C45.357 0.0278581 45.563 0.108453 45.7242 0.269644C45.8943 0.421879 45.9794 0.614412 45.9794 0.847243C45.9794 1.08903 45.8943 1.29499 45.7242 1.46514C45.563 1.62633 45.357 1.70693 45.1063 1.70693ZM49.852 4.27254C50.0758 3.86061 50.4072 3.54718 50.846 3.33226C51.2848 3.11734 51.8176 3.00988 52.4445 3.00988V4.25911C52.3728 4.25015 52.2743 4.24567 52.1489 4.24567C51.4504 4.24567 50.8997 4.45612 50.4967 4.877C50.1027 5.28894 49.9057 5.87997 49.9057 6.6501V10.1963H48.6162V3.07704H49.852V4.27254ZM60.8054 6.67696C60.8054 6.77547 60.7964 6.90532 60.7785 7.06651H55.0025C55.0831 7.69336 55.3562 8.19932 55.8219 8.58438C56.2965 8.9605 56.8831 9.14855 57.5816 9.14855C58.4323 9.14855 59.1173 8.86199 59.6367 8.28887L60.3487 9.12169C60.0263 9.4978 59.6233 9.78436 59.1397 9.98137C58.6651 10.1784 58.1323 10.2769 57.5413 10.2769C56.789 10.2769 56.1219 10.1246 55.5398 9.82018C54.9577 9.50675 54.5055 9.07243 54.1831 8.51722C53.8697 7.96201 53.713 7.33516 53.713 6.63667C53.713 5.94713 53.8652 5.32476 54.1697 4.76954C54.4831 4.21433 54.9085 3.78449 55.4458 3.48002C55.992 3.16659 56.6055 3.00988 57.286 3.00988C57.9666 3.00988 58.5711 3.16659 59.0994 3.48002C59.6367 3.78449 60.0531 4.21433 60.3487 4.76954C60.6531 5.32476 60.8054 5.96056 60.8054 6.67696ZM57.286 4.09792C56.6681 4.09792 56.1488 4.28597 55.7279 4.66208C55.3159 5.03819 55.0741 5.53072 55.0025 6.13966H59.5696C59.4979 5.53968 59.2517 5.05163 58.8308 4.67552C58.4189 4.29045 57.9039 4.09792 57.286 4.09792ZM69.7152 0.229346V10.1963H68.4794V9.06796C68.1929 9.46198 67.8302 9.76197 67.3914 9.96794C66.9526 10.1739 66.469 10.2769 65.9407 10.2769C65.2511 10.2769 64.6333 10.1246 64.087 9.82018C63.5407 9.51571 63.1109 9.09034 62.7975 8.54409C62.493 7.98888 62.3408 7.35307 62.3408 6.63667C62.3408 5.92026 62.493 5.28894 62.7975 4.74268C63.1109 4.19642 63.5407 3.77106 64.087 3.46659C64.6333 3.16212 65.2511 3.00988 65.9407 3.00988C66.4511 3.00988 66.9213 3.10839 67.3511 3.3054C67.7809 3.49345 68.1391 3.77554 68.4257 4.15165V0.229346H69.7152ZM66.0481 9.14855C66.4959 9.14855 66.9034 9.04557 67.2705 8.8396C67.6377 8.62468 67.9242 8.32917 68.1302 7.95306C68.3362 7.56799 68.4391 7.12919 68.4391 6.63667C68.4391 6.14414 68.3362 5.70982 68.1302 5.33371C67.9242 4.94864 67.6377 4.65313 67.2705 4.44716C66.9034 4.2412 66.4959 4.13821 66.0481 4.13821C65.5914 4.13821 65.1795 4.2412 64.8124 4.44716C64.4542 4.65313 64.1676 4.94864 63.9527 5.33371C63.7467 5.70982 63.6437 6.14414 63.6437 6.63667C63.6437 7.12919 63.7467 7.56799 63.9527 7.95306C64.1676 8.32917 64.4542 8.62468 64.8124 8.8396C65.1795 9.04557 65.5914 9.14855 66.0481 9.14855ZM79.1609 3.00988C80.146 3.00988 80.8982 3.25167 81.4176 3.73524C81.9459 4.21881 82.2101 4.93969 82.2101 5.89788V10.1963H80.9878V9.25601C80.7728 9.58735 80.4639 9.84257 80.0609 10.0217C79.6669 10.1918 79.1967 10.2769 78.6505 10.2769C77.8535 10.2769 77.2132 10.0844 76.7296 9.69929C76.255 9.31422 76.0177 8.80826 76.0177 8.18141C76.0177 7.55456 76.2461 7.05308 76.7028 6.67696C77.1595 6.2919 77.8848 6.09937 78.8788 6.09937H80.9206V5.84415C80.9206 5.28894 80.7594 4.86357 80.437 4.56806C80.1146 4.27254 79.64 4.12478 79.0132 4.12478C78.5923 4.12478 78.1804 4.19642 77.7774 4.3397C77.3744 4.47403 77.0341 4.65761 76.7565 4.89044L76.2192 3.92329C76.5864 3.62778 77.0252 3.4039 77.5356 3.25167C78.046 3.09048 78.5878 3.00988 79.1609 3.00988ZM78.8654 9.28288C79.3579 9.28288 79.7833 9.17542 80.1415 8.9605C80.4997 8.73662 80.7594 8.42319 80.9206 8.02022V7.02621H78.9326C77.8401 7.02621 77.2938 7.39337 77.2938 8.12768C77.2938 8.48588 77.4326 8.76796 77.7102 8.97393C77.9878 9.17989 78.3729 9.28288 78.8654 9.28288ZM89.0024 9.77988C88.8143 9.94107 88.5815 10.0664 88.3039 10.156C88.0263 10.2366 87.7397 10.2769 87.4442 10.2769C86.7278 10.2769 86.1726 10.0844 85.7785 9.69929C85.3845 9.31422 85.1875 8.76349 85.1875 8.04708V4.13821H83.9786V3.07704H85.1875V1.51887H86.477V3.07704H88.5188V4.13821H86.477V7.99335C86.477 8.37842 86.5711 8.67393 86.7591 8.8799C86.9561 9.08587 87.2337 9.18885 87.5919 9.18885C87.986 9.18885 88.3218 9.07691 88.5994 8.85304L89.0024 9.77988ZM8.36217 20.7935V30.1963H7.2607L1.61903 23.1845V30.1963H0.275781V20.7935H1.37725L7.01891 27.8053V20.7935H8.36217ZM14.8705 24.4875C15.4884 24.4875 16.0392 24.6039 16.5227 24.8367C17.0153 25.0695 17.4003 25.4054 17.6779 25.8441C17.9556 26.274 18.0944 26.771 18.0944 27.3352C18.0944 27.9262 17.9466 28.4456 17.6511 28.8933C17.3645 29.3411 16.966 29.6903 16.4556 29.9411C15.9541 30.1829 15.3899 30.3037 14.7631 30.3037C13.5004 30.3037 12.5243 29.8963 11.8348 29.0814C11.1542 28.2665 10.8139 27.1113 10.8139 25.6158C10.8139 24.5681 10.9975 23.677 11.3647 22.9427C11.7408 22.1995 12.2602 21.6398 12.9228 21.2637C13.5945 20.8786 14.3735 20.6861 15.2601 20.6861C15.7168 20.6861 16.1466 20.7353 16.5496 20.8338C16.9526 20.9234 17.3018 21.0577 17.5974 21.2368L17.0869 22.2845C16.6392 21.989 16.0392 21.8413 15.287 21.8413C14.3109 21.8413 13.5452 22.1457 12.99 22.7547C12.4348 23.3546 12.1572 24.2322 12.1572 25.3874C12.1572 25.5307 12.1617 25.6427 12.1706 25.7233C12.4393 25.3203 12.8064 25.0158 13.2721 24.8098C13.7467 24.5949 14.2795 24.4875 14.8705 24.4875ZM14.7094 29.2157C15.3273 29.2157 15.8287 29.05 16.2138 28.7187C16.5989 28.3874 16.7914 27.9441 16.7914 27.3889C16.7914 26.8337 16.5944 26.3949 16.2004 26.0725C15.8153 25.7412 15.2959 25.5755 14.6422 25.5755C14.2213 25.5755 13.8452 25.6561 13.5139 25.8173C13.1915 25.9785 12.9363 26.1979 12.7482 26.4755C12.5691 26.7531 12.4796 27.062 12.4796 27.4023C12.4796 27.7337 12.5646 28.0381 12.7348 28.3157C12.9139 28.5844 13.1691 28.8038 13.5004 28.9739C13.8407 29.1351 14.2437 29.2157 14.7094 29.2157ZM23.349 30.3037C22.6057 30.3037 21.9431 30.1157 21.361 29.7396C20.7879 29.3545 20.3356 28.7993 20.0043 28.0739C19.673 27.3486 19.5073 26.4889 19.5073 25.4949C19.5073 24.5009 19.673 23.6412 20.0043 22.9159C20.3356 22.1905 20.7879 21.6398 21.361 21.2637C21.9431 20.8786 22.6057 20.6861 23.349 20.6861C24.0833 20.6861 24.737 20.8786 25.3101 21.2637C25.8922 21.6398 26.3489 22.1905 26.6803 22.9159C27.0116 23.6412 27.1773 24.5009 27.1773 25.4949C27.1773 26.4889 27.0116 27.3486 26.6803 28.0739C26.3489 28.7993 25.8922 29.3545 25.3101 29.7396C24.737 30.1157 24.0833 30.3037 23.349 30.3037ZM23.349 29.1083C24.1012 29.1083 24.7012 28.7993 25.149 28.1814C25.6057 27.5635 25.834 26.668 25.834 25.4949C25.834 24.3218 25.6057 23.4263 25.149 22.8084C24.7012 22.1905 24.1012 21.8815 23.349 21.8815C22.5878 21.8815 21.9789 22.1905 21.5222 22.8084C21.0744 23.4263 20.8505 24.3218 20.8505 25.4949C20.8505 26.668 21.0744 27.5635 21.5222 28.1814C21.9789 28.7993 22.5878 29.1083 23.349 29.1083ZM32.7114 30.3037C31.9681 30.3037 31.3054 30.1157 30.7234 29.7396C30.1502 29.3545 29.698 28.7993 29.3667 28.0739C29.0353 27.3486 28.8697 26.4889 28.8697 25.4949C28.8697 24.5009 29.0353 23.6412 29.3667 22.9159C29.698 22.1905 30.1502 21.6398 30.7234 21.2637C31.3054 20.8786 31.9681 20.6861 32.7114 20.6861C33.4457 20.6861 34.0994 20.8786 34.6725 21.2637C35.2546 21.6398 35.7113 22.1905 36.0426 22.9159C36.374 23.6412 36.5396 24.5009 36.5396 25.4949C36.5396 26.4889 36.374 27.3486 36.0426 28.0739C35.7113 28.7993 35.2546 29.3545 34.6725 29.7396C34.0994 30.1157 33.4457 30.3037 32.7114 30.3037ZM32.7114 29.1083C33.4636 29.1083 34.0636 28.7993 34.5113 28.1814C34.968 27.5635 35.1964 26.668 35.1964 25.4949C35.1964 24.3218 34.968 23.4263 34.5113 22.8084C34.0636 22.1905 33.4636 21.8815 32.7114 21.8815C31.9502 21.8815 31.3413 22.1905 30.8845 22.8084C30.4368 23.4263 30.2129 24.3218 30.2129 25.4949C30.2129 26.668 30.4368 27.5635 30.8845 28.1814C31.3413 28.7993 31.9502 29.1083 32.7114 29.1083ZM38.9746 28.4366C39.2253 28.4366 39.4313 28.5262 39.5925 28.7053C39.7626 28.8754 39.8477 29.0903 39.8477 29.35C39.8477 29.4844 39.8298 29.6142 39.794 29.7396C39.7671 29.865 39.7089 30.0575 39.6194 30.3172L38.988 32.1843H38.1418L38.6388 30.1829C38.4686 30.1202 38.3298 30.0172 38.2224 29.8739C38.1239 29.7217 38.0746 29.547 38.0746 29.35C38.0746 29.0814 38.1597 28.862 38.3298 28.6918C38.5 28.5217 38.7149 28.4366 38.9746 28.4366ZM45.2052 30.3037C44.4619 30.3037 43.7993 30.1157 43.2172 29.7396C42.6441 29.3545 42.1918 28.7993 41.8605 28.0739C41.5292 27.3486 41.3635 26.4889 41.3635 25.4949C41.3635 24.5009 41.5292 23.6412 41.8605 22.9159C42.1918 22.1905 42.6441 21.6398 43.2172 21.2637C43.7993 20.8786 44.4619 20.6861 45.2052 20.6861C45.9395 20.6861 46.5932 20.8786 47.1664 21.2637C47.7484 21.6398 48.2051 22.1905 48.5365 22.9159C48.8678 23.6412 49.0335 24.5009 49.0335 25.4949C49.0335 26.4889 48.8678 27.3486 48.5365 28.0739C48.2051 28.7993 47.7484 29.3545 47.1664 29.7396C46.5932 30.1157 45.9395 30.3037 45.2052 30.3037ZM45.2052 29.1083C45.9574 29.1083 46.5574 28.7993 47.0052 28.1814C47.4619 27.5635 47.6902 26.668 47.6902 25.4949C47.6902 24.3218 47.4619 23.4263 47.0052 22.8084C46.5574 22.1905 45.9574 21.8815 45.2052 21.8815C44.444 21.8815 43.8351 22.1905 43.3784 22.8084C42.9306 23.4263 42.7068 24.3218 42.7068 25.4949C42.7068 26.668 42.9306 27.5635 43.3784 28.1814C43.8351 28.7993 44.444 29.1083 45.2052 29.1083ZM54.5676 30.3037C53.8243 30.3037 53.1616 30.1157 52.5796 29.7396C52.0064 29.3545 51.5542 28.7993 51.2229 28.0739C50.8915 27.3486 50.7259 26.4889 50.7259 25.4949C50.7259 24.5009 50.8915 23.6412 51.2229 22.9159C51.5542 22.1905 52.0064 21.6398 52.5796 21.2637C53.1616 20.8786 53.8243 20.6861 54.5676 20.6861C55.3019 20.6861 55.9556 20.8786 56.5287 21.2637C57.1108 21.6398 57.5675 22.1905 57.8988 22.9159C58.2302 23.6412 58.3958 24.5009 58.3958 25.4949C58.3958 26.4889 58.2302 27.3486 57.8988 28.0739C57.5675 28.7993 57.1108 29.3545 56.5287 29.7396C55.9556 30.1157 55.3019 30.3037 54.5676 30.3037ZM54.5676 29.1083C55.3198 29.1083 55.9198 28.7993 56.3675 28.1814C56.8242 27.5635 57.0526 26.668 57.0526 25.4949C57.0526 24.3218 56.8242 23.4263 56.3675 22.8084C55.9198 22.1905 55.3198 21.8815 54.5676 21.8815C53.8064 21.8815 53.1975 22.1905 52.7408 22.8084C52.293 23.4263 52.0691 24.3218 52.0691 25.4949C52.0691 26.668 52.293 27.5635 52.7408 28.1814C53.1975 28.7993 53.8064 29.1083 54.5676 29.1083ZM63.9299 30.3037C63.1867 30.3037 62.524 30.1157 61.9419 29.7396C61.3688 29.3545 60.9166 28.7993 60.5852 28.0739C60.2539 27.3486 60.0882 26.4889 60.0882 25.4949C60.0882 24.5009 60.2539 23.6412 60.5852 22.9159C60.9166 22.1905 61.3688 21.6398 61.9419 21.2637C62.524 20.8786 63.1867 20.6861 63.9299 20.6861C64.6643 20.6861 65.318 20.8786 65.8911 21.2637C66.4732 21.6398 66.9299 22.1905 67.2612 22.9159C67.5926 23.6412 67.7582 24.5009 67.7582 25.4949C67.7582 26.4889 67.5926 27.3486 67.2612 28.0739C66.9299 28.7993 66.4732 29.3545 65.8911 29.7396C65.318 30.1157 64.6643 30.3037 63.9299 30.3037ZM63.9299 29.1083C64.6822 29.1083 65.2822 28.7993 65.7299 28.1814C66.1866 27.5635 66.415 26.668 66.415 25.4949C66.415 24.3218 66.1866 23.4263 65.7299 22.8084C65.2822 22.1905 64.6822 21.8815 63.9299 21.8815C63.1688 21.8815 62.5598 22.1905 62.1031 22.8084C61.6554 23.4263 61.4315 24.3218 61.4315 25.4949C61.4315 26.668 61.6554 27.5635 62.1031 28.1814C62.5598 28.7993 63.1688 29.1083 63.9299 29.1083ZM77.8131 23.0099C78.5026 23.0099 79.1205 23.1621 79.6668 23.4666C80.2131 23.7711 80.6384 24.1964 80.9429 24.7427C81.2563 25.2889 81.413 25.9203 81.413 26.6367C81.413 27.3531 81.2563 27.9889 80.9429 28.5441C80.6384 29.0903 80.2131 29.5157 79.6668 29.8202C79.1205 30.1246 78.5026 30.2769 77.8131 30.2769C77.3027 30.2769 76.8325 30.1784 76.4027 29.9814C75.9818 29.7844 75.6236 29.4978 75.3281 29.1217V32.8022H74.0386V23.077H75.2744V24.2054C75.5609 23.8114 75.9236 23.5158 76.3624 23.3188C76.8012 23.1129 77.2848 23.0099 77.8131 23.0099ZM77.7056 29.1486C78.1624 29.1486 78.5698 29.0456 78.928 28.8396C79.2952 28.6247 79.5817 28.3292 79.7877 27.9531C80.0026 27.568 80.1101 27.1292 80.1101 26.6367C80.1101 26.1441 80.0026 25.7098 79.7877 25.3337C79.5817 24.9486 79.2952 24.6531 78.928 24.4472C78.5698 24.2412 78.1624 24.1382 77.7056 24.1382C77.2579 24.1382 76.8504 24.2457 76.4833 24.4606C76.1251 24.6666 75.8385 24.9576 75.6236 25.3337C75.4176 25.7098 75.3147 26.1441 75.3147 26.6367C75.3147 27.1292 75.4176 27.568 75.6236 27.9531C75.8296 28.3292 76.1161 28.6247 76.4833 28.8396C76.8504 29.0456 77.2579 29.1486 77.7056 29.1486ZM90.0319 26.677C90.0319 26.7755 90.0229 26.9053 90.005 27.0665H84.229C84.3096 27.6934 84.5828 28.1993 85.0484 28.5844C85.523 28.9605 86.1096 29.1486 86.8081 29.1486C87.6588 29.1486 88.3439 28.862 88.8633 28.2889L89.5752 29.1217C89.2528 29.4978 88.8498 29.7844 88.3663 29.9814C87.8916 30.1784 87.3588 30.2769 86.7678 30.2769C86.0156 30.2769 85.3484 30.1246 84.7663 29.8202C84.1843 29.5068 83.732 29.0724 83.4096 28.5172C83.0962 27.962 82.9395 27.3352 82.9395 26.6367C82.9395 25.9471 83.0917 25.3248 83.3962 24.7695C83.7096 24.2143 84.135 23.7845 84.6723 23.48C85.2186 23.1666 85.832 23.0099 86.5126 23.0099C87.1931 23.0099 87.7976 23.1666 88.326 23.48C88.8633 23.7845 89.2797 24.2143 89.5752 24.7695C89.8797 25.3248 90.0319 25.9606 90.0319 26.677ZM86.5126 24.0979C85.8947 24.0979 85.3753 24.286 84.9544 24.6621C84.5425 25.0382 84.3007 25.5307 84.229 26.1397H88.7961C88.7245 25.5397 88.4782 25.0516 88.0573 24.6755C87.6454 24.2904 87.1305 24.0979 86.5126 24.0979ZM93.4613 24.2725C93.6852 23.8606 94.0165 23.5472 94.4553 23.3323C94.8941 23.1173 95.4269 23.0099 96.0538 23.0099V24.2591C95.9821 24.2502 95.8836 24.2457 95.7582 24.2457C95.0598 24.2457 94.509 24.4561 94.106 24.877C93.712 25.2889 93.515 25.88 93.515 26.6501V30.1963H92.2255V23.077H93.4613V24.2725ZM41.3704 43.077V50.1963H40.1481V49.1217C39.8884 49.4888 39.5436 49.7754 39.1138 49.9814C38.6929 50.1784 38.2317 50.2769 37.7302 50.2769C36.781 50.2769 36.0332 50.0172 35.487 49.4978C34.9407 48.9695 34.6676 48.1948 34.6676 47.174V43.077H35.9571V47.0262C35.9571 47.7157 36.1228 48.2396 36.4541 48.5978C36.7855 48.9471 37.2601 49.1217 37.878 49.1217C38.5585 49.1217 39.0958 48.9157 39.4899 48.5038C39.8839 48.0919 40.0809 47.5098 40.0809 46.7576V43.077H41.3704ZM48.0297 43.0099C48.9342 43.0099 49.6506 43.2741 50.1789 43.8024C50.7162 44.3218 50.9849 45.0874 50.9849 46.0994V50.1963H49.6953V46.2471C49.6953 45.5576 49.5297 45.0382 49.1983 44.6889C48.867 44.3397 48.3924 44.1651 47.7745 44.1651C47.076 44.1651 46.5253 44.371 46.1223 44.783C45.7193 45.186 45.5178 45.768 45.5178 46.5292V50.1963H44.2283V43.077H45.4641V44.1516C45.7238 43.7845 46.073 43.5024 46.5118 43.3054C46.9596 43.1084 47.4655 43.0099 48.0297 43.0099ZM53.7743 43.077H55.0638V50.1963H53.7743V43.077ZM54.4191 41.7069C54.1683 41.7069 53.9579 41.6263 53.7878 41.4651C53.6266 41.3039 53.546 41.1069 53.546 40.8741C53.546 40.6413 53.6266 40.4443 53.7878 40.2831C53.9579 40.1129 54.1683 40.0279 54.4191 40.0279C54.6698 40.0279 54.8758 40.1085 55.037 40.2696C55.2071 40.4219 55.2922 40.6144 55.2922 40.8472C55.2922 41.089 55.2071 41.295 55.037 41.4651C54.8758 41.6263 54.6698 41.7069 54.4191 41.7069ZM61.9319 49.7799C61.7438 49.9411 61.511 50.0664 61.2334 50.156C60.9558 50.2366 60.6692 50.2769 60.3737 50.2769C59.6573 50.2769 59.1021 50.0844 58.7081 49.6993C58.314 49.3142 58.117 48.7635 58.117 48.0471V44.1382H56.9081V43.077H58.117V41.5189H59.4065V43.077H61.4483V44.1382H59.4065V47.9934C59.4065 48.3784 59.5006 48.6739 59.6886 48.8799C59.8856 49.0859 60.1632 49.1888 60.5214 49.1888C60.9155 49.1888 61.2513 49.0769 61.5289 48.853L61.9319 49.7799Z" fill="black"/>
</svg>
