<svg width="135" height="59" viewBox="0 0 135 59" fill="none" xmlns="http://www.w3.org/2000/svg">
<path d="M10.7116 9.336C11.8156 9.576 12.6636 10.056 13.2556 10.776C13.8636 11.48 14.1676 12.392 14.1676 13.512C14.1676 14.952 13.6316 16.064 12.5596 16.848C11.5036 17.616 9.93556 18 7.85556 18H0.127564V1.2H7.37556C9.24756 1.2 10.6956 1.576 11.7196 2.328C12.7596 3.08 13.2796 4.144 13.2796 5.52C13.2796 6.448 13.0476 7.24 12.5836 7.896C12.1356 8.536 11.5116 9.016 10.7116 9.336ZM1.90356 2.664V8.76H7.25556C8.61556 8.76 9.66356 8.504 10.3996 7.992C11.1356 7.464 11.5036 6.704 11.5036 5.712C11.5036 4.72 11.1356 3.968 10.3996 3.456C9.66356 2.928 8.61556 2.664 7.25556 2.664H1.90356ZM7.83156 16.536C9.33556 16.536 10.4716 16.28 11.2396 15.768C12.0076 15.256 12.3916 14.456 12.3916 13.368C12.3916 11.272 10.8716 10.224 7.83156 10.224H1.90356V16.536H7.83156ZM23.7413 18.12C22.5253 18.12 21.4293 17.848 20.4533 17.304C19.4773 16.744 18.7093 15.976 18.1493 15C17.5893 14.024 17.3093 12.92 17.3093 11.688C17.3093 10.456 17.5893 9.352 18.1493 8.376C18.7093 7.4 19.4773 6.64 20.4533 6.096C21.4293 5.552 22.5253 5.28 23.7413 5.28C24.9573 5.28 26.0533 5.552 27.0293 6.096C28.0053 6.64 28.7653 7.4 29.3093 8.376C29.8693 9.352 30.1493 10.456 30.1493 11.688C30.1493 12.92 29.8693 14.024 29.3093 15C28.7653 15.976 28.0053 16.744 27.0293 17.304C26.0533 17.848 24.9573 18.12 23.7413 18.12ZM23.7413 16.608C24.6373 16.608 25.4373 16.408 26.1413 16.008C26.8613 15.592 27.4213 15.008 27.8213 14.256C28.2213 13.504 28.4213 12.648 28.4213 11.688C28.4213 10.728 28.2213 9.872 27.8213 9.12C27.4213 8.368 26.8613 7.792 26.1413 7.392C25.4373 6.976 24.6373 6.768 23.7413 6.768C22.8453 6.768 22.0373 6.976 21.3173 7.392C20.6133 7.792 20.0533 8.368 19.6373 9.12C19.2373 9.872 19.0373 10.728 19.0373 11.688C19.0373 12.648 19.2373 13.504 19.6373 14.256C20.0533 15.008 20.6133 15.592 21.3173 16.008C22.0373 16.408 22.8453 16.608 23.7413 16.608ZM39.5082 18.12C38.2922 18.12 37.1962 17.848 36.2202 17.304C35.2442 16.744 34.4762 15.976 33.9162 15C33.3562 14.024 33.0762 12.92 33.0762 11.688C33.0762 10.456 33.3562 9.352 33.9162 8.376C34.4762 7.4 35.2442 6.64 36.2202 6.096C37.1962 5.552 38.2922 5.28 39.5082 5.28C40.7242 5.28 41.8202 5.552 42.7962 6.096C43.7722 6.64 44.5322 7.4 45.0762 8.376C45.6362 9.352 45.9162 10.456 45.9162 11.688C45.9162 12.92 45.6362 14.024 45.0762 15C44.5322 15.976 43.7722 16.744 42.7962 17.304C41.8202 17.848 40.7242 18.12 39.5082 18.12ZM39.5082 16.608C40.4042 16.608 41.2042 16.408 41.9082 16.008C42.6282 15.592 43.1882 15.008 43.5882 14.256C43.9882 13.504 44.1882 12.648 44.1882 11.688C44.1882 10.728 43.9882 9.872 43.5882 9.12C43.1882 8.368 42.6282 7.792 41.9082 7.392C41.2042 6.976 40.4042 6.768 39.5082 6.768C38.6122 6.768 37.8042 6.976 37.0842 7.392C36.3802 7.792 35.8202 8.368 35.4042 9.12C35.0042 9.872 34.8042 10.728 34.8042 11.688C34.8042 12.648 35.0042 13.504 35.4042 14.256C35.8202 15.008 36.3802 15.592 37.0842 16.008C37.8042 16.408 38.6122 16.608 39.5082 16.608ZM54.7951 11.664L51.8191 14.4V18H50.1151V0.191999H51.8191V12.264L59.3551 5.376H61.4671L56.0671 10.536L61.9711 18H59.8831L54.7951 11.664ZM76.6664 5.28C78.3144 5.28 79.5784 5.696 80.4584 6.528C81.3384 7.344 81.7784 8.56 81.7784 10.176V18H80.1464V16.032C79.7624 16.688 79.1944 17.2 78.4424 17.568C77.7064 17.936 76.8264 18.12 75.8024 18.12C74.3944 18.12 73.2744 17.784 72.4424 17.112C71.6104 16.44 71.1944 15.552 71.1944 14.448C71.1944 13.376 71.5784 12.512 72.3464 11.856C73.1304 11.2 74.3704 10.872 76.0664 10.872H80.0744V10.104C80.0744 9.016 79.7704 8.192 79.1624 7.632C78.5544 7.056 77.6664 6.768 76.4984 6.768C75.6984 6.768 74.9304 6.904 74.1944 7.176C73.4584 7.432 72.8264 7.792 72.2984 8.256L71.5304 6.984C72.1704 6.44 72.9384 6.024 73.8344 5.736C74.7304 5.432 75.6744 5.28 76.6664 5.28ZM76.0664 16.776C77.0264 16.776 77.8504 16.56 78.5384 16.128C79.2264 15.68 79.7384 15.04 80.0744 14.208V12.144H76.1144C73.9544 12.144 72.8744 12.896 72.8744 14.4C72.8744 15.136 73.1544 15.72 73.7144 16.152C74.2744 16.568 75.0584 16.776 76.0664 16.776ZM97.5119 18.12C96.4879 18.12 95.5039 17.976 94.5599 17.688C93.6319 17.384 92.9039 17.008 92.3759 16.56L93.1439 15.216C93.6719 15.632 94.3359 15.976 95.1359 16.248C95.9359 16.504 96.7679 16.632 97.6319 16.632C98.7839 16.632 99.6319 16.456 100.176 16.104C100.736 15.736 101.016 15.224 101.016 14.568C101.016 14.104 100.864 13.744 100.56 13.488C100.256 13.216 99.8719 13.016 99.4079 12.888C98.9439 12.744 98.3279 12.608 97.5599 12.48C96.5359 12.288 95.7119 12.096 95.0879 11.904C94.4639 11.696 93.9279 11.352 93.4799 10.872C93.0479 10.392 92.8319 9.728 92.8319 8.88C92.8319 7.824 93.2719 6.96 94.1519 6.288C95.0319 5.616 96.2559 5.28 97.8239 5.28C98.6399 5.28 99.4559 5.392 100.272 5.616C101.088 5.824 101.76 6.104 102.288 6.456L101.544 7.824C100.504 7.104 99.2639 6.744 97.8239 6.744C96.7359 6.744 95.9119 6.936 95.3519 7.32C94.8079 7.704 94.5359 8.208 94.5359 8.832C94.5359 9.312 94.6879 9.696 94.9919 9.984C95.3119 10.272 95.7039 10.488 96.1679 10.632C96.6319 10.76 97.2719 10.896 98.0879 11.04C99.0959 11.232 99.9039 11.424 100.512 11.616C101.12 11.808 101.64 12.136 102.072 12.6C102.504 13.064 102.72 13.704 102.72 14.52C102.72 15.624 102.256 16.504 101.328 17.16C100.416 17.8 99.1439 18.12 97.5119 18.12ZM106.59 5.376H108.294V18H106.59V5.376ZM107.454 2.616C107.102 2.616 106.806 2.496 106.566 2.256C106.326 2.016 106.206 1.728 106.206 1.392C106.206 1.072 106.326 0.791999 106.566 0.551999C106.806 0.311999 107.102 0.191999 107.454 0.191999C107.806 0.191999 108.102 0.311999 108.342 0.551999C108.582 0.775999 108.702 1.048 108.702 1.368C108.702 1.72 108.582 2.016 108.342 2.256C108.102 2.496 107.806 2.616 107.454 2.616ZM120.403 17.232C120.083 17.52 119.683 17.744 119.203 17.904C118.739 18.048 118.251 18.12 117.739 18.12C116.555 18.12 115.643 17.8 115.003 17.16C114.363 16.52 114.043 15.616 114.043 14.448V6.816H111.787V5.376H114.043V2.616H115.747V5.376H119.587V6.816H115.747V14.352C115.747 15.104 115.931 15.68 116.299 16.08C116.683 16.464 117.227 16.656 117.931 16.656C118.283 16.656 118.619 16.6 118.939 16.488C119.275 16.376 119.563 16.216 119.803 16.008L120.403 17.232ZM134.772 12.216H124.212C124.308 13.528 124.812 14.592 125.724 15.408C126.636 16.208 127.788 16.608 129.18 16.608C129.964 16.608 130.684 16.472 131.34 16.2C131.996 15.912 132.564 15.496 133.044 14.952L134.004 16.056C133.444 16.728 132.74 17.24 131.892 17.592C131.06 17.944 130.14 18.12 129.132 18.12C127.836 18.12 126.684 17.848 125.676 17.304C124.684 16.744 123.908 15.976 123.348 15C122.788 14.024 122.508 12.92 122.508 11.688C122.508 10.456 122.772 9.352 123.3 8.376C123.844 7.4 124.58 6.64 125.508 6.096C126.452 5.552 127.508 5.28 128.676 5.28C129.844 5.28 130.892 5.552 131.82 6.096C132.748 6.64 133.476 7.4 134.004 8.376C134.532 9.336 134.796 10.44 134.796 11.688L134.772 12.216ZM128.676 6.744C127.46 6.744 126.436 7.136 125.604 7.92C124.788 8.688 124.324 9.696 124.212 10.944H133.164C133.052 9.696 132.58 8.688 131.748 7.92C130.932 7.136 129.908 6.744 128.676 6.744ZM2.97194 41.376H4.67594V54H2.97194V41.376ZM3.83594 38.616C3.48394 38.616 3.18794 38.496 2.94794 38.256C2.70794 38.016 2.58794 37.728 2.58794 37.392C2.58794 37.072 2.70794 36.792 2.94794 36.552C3.18794 36.312 3.48394 36.192 3.83594 36.192C4.18794 36.192 4.48394 36.312 4.72394 36.552C4.96394 36.776 5.08394 37.048 5.08394 37.368C5.08394 37.72 4.96394 38.016 4.72394 38.256C4.48394 38.496 4.18794 38.616 3.83594 38.616ZM16.5693 41.28C18.1533 41.28 19.4093 41.744 20.3373 42.672C21.2813 43.584 21.7533 44.92 21.7533 46.68V54H20.0493V46.848C20.0493 45.536 19.7213 44.536 19.0653 43.848C18.4093 43.16 17.4733 42.816 16.2573 42.816C14.8973 42.816 13.8173 43.224 13.0173 44.04C12.2333 44.84 11.8413 45.952 11.8413 47.376V54H10.1373V41.376H11.7693V43.704C12.2333 42.936 12.8733 42.344 13.6893 41.928C14.5213 41.496 15.4813 41.28 16.5693 41.28ZM30.4834 54.12C29.4594 54.12 28.4754 53.976 27.5314 53.688C26.6034 53.384 25.8754 53.008 25.3474 52.56L26.1154 51.216C26.6434 51.632 27.3074 51.976 28.1074 52.248C28.9074 52.504 29.7394 52.632 30.6034 52.632C31.7554 52.632 32.6034 52.456 33.1474 52.104C33.7074 51.736 33.9874 51.224 33.9874 50.568C33.9874 50.104 33.8354 49.744 33.5314 49.488C33.2274 49.216 32.8434 49.016 32.3794 48.888C31.9154 48.744 31.2994 48.608 30.5314 48.48C29.5074 48.288 28.6834 48.096 28.0594 47.904C27.4354 47.696 26.8994 47.352 26.4514 46.872C26.0194 46.392 25.8034 45.728 25.8034 44.88C25.8034 43.824 26.2434 42.96 27.1234 42.288C28.0034 41.616 29.2274 41.28 30.7954 41.28C31.6114 41.28 32.4274 41.392 33.2434 41.616C34.0594 41.824 34.7314 42.104 35.2594 42.456L34.5154 43.824C33.4754 43.104 32.2354 42.744 30.7954 42.744C29.7074 42.744 28.8834 42.936 28.3234 43.32C27.7794 43.704 27.5074 44.208 27.5074 44.832C27.5074 45.312 27.6594 45.696 27.9634 45.984C28.2834 46.272 28.6754 46.488 29.1394 46.632C29.6034 46.76 30.2434 46.896 31.0594 47.04C32.0674 47.232 32.8754 47.424 33.4834 47.616C34.0914 47.808 34.6114 48.136 35.0434 48.6C35.4754 49.064 35.6914 49.704 35.6914 50.52C35.6914 51.624 35.2274 52.504 34.2994 53.16C33.3874 53.8 32.1154 54.12 30.4834 54.12ZM46.0656 41.28C47.2496 41.28 48.3216 41.552 49.2816 42.096C50.2416 42.624 50.9936 43.376 51.5376 44.352C52.0816 45.328 52.3536 46.44 52.3536 47.688C52.3536 48.952 52.0816 50.072 51.5376 51.048C50.9936 52.024 50.2416 52.784 49.2816 53.328C48.3376 53.856 47.2656 54.12 46.0656 54.12C45.0416 54.12 44.1136 53.912 43.2816 53.496C42.4656 53.064 41.7936 52.44 41.2656 51.624V58.656H39.5616V41.376H41.1936V43.872C41.7056 43.04 42.3776 42.4 43.2096 41.952C44.0576 41.504 45.0096 41.28 46.0656 41.28ZM45.9456 52.608C46.8256 52.608 47.6256 52.408 48.3456 52.008C49.0656 51.592 49.6256 51.008 50.0256 50.256C50.4416 49.504 50.6496 48.648 50.6496 47.688C50.6496 46.728 50.4416 45.88 50.0256 45.144C49.6256 44.392 49.0656 43.808 48.3456 43.392C47.6256 42.976 46.8256 42.768 45.9456 42.768C45.0496 42.768 44.2416 42.976 43.5216 43.392C42.8176 43.808 42.2576 44.392 41.8416 45.144C41.4416 45.88 41.2416 46.728 41.2416 47.688C41.2416 48.648 41.4416 49.504 41.8416 50.256C42.2576 51.008 42.8176 51.592 43.5216 52.008C44.2416 52.408 45.0496 52.608 45.9456 52.608ZM67.5393 48.216H56.9792C57.0752 49.528 57.5792 50.592 58.4912 51.408C59.4032 52.208 60.5552 52.608 61.9472 52.608C62.7312 52.608 63.4513 52.472 64.1073 52.2C64.7632 51.912 65.3312 51.496 65.8112 50.952L66.7713 52.056C66.2112 52.728 65.5072 53.24 64.6592 53.592C63.8272 53.944 62.9072 54.12 61.8993 54.12C60.6032 54.12 59.4512 53.848 58.4432 53.304C57.4512 52.744 56.6752 51.976 56.1152 51C55.5552 50.024 55.2752 48.92 55.2752 47.688C55.2752 46.456 55.5392 45.352 56.0672 44.376C56.6112 43.4 57.3472 42.64 58.2752 42.096C59.2192 41.552 60.2752 41.28 61.4432 41.28C62.6112 41.28 63.6592 41.552 64.5872 42.096C65.5152 42.64 66.2432 43.4 66.7713 44.376C67.2993 45.336 67.5633 46.44 67.5633 47.688L67.5393 48.216ZM61.4432 42.744C60.2272 42.744 59.2032 43.136 58.3712 43.92C57.5552 44.688 57.0912 45.696 56.9792 46.944H65.9312C65.8192 45.696 65.3472 44.688 64.5152 43.92C63.6992 43.136 62.6752 42.744 61.4432 42.744ZM76.9836 54.12C75.7356 54.12 74.6156 53.848 73.6236 53.304C72.6476 52.76 71.8796 52 71.3196 51.024C70.7596 50.032 70.4796 48.92 70.4796 47.688C70.4796 46.456 70.7596 45.352 71.3196 44.376C71.8796 43.4 72.6476 42.64 73.6236 42.096C74.6156 41.552 75.7356 41.28 76.9836 41.28C78.0716 41.28 79.0396 41.496 79.8876 41.928C80.7516 42.344 81.4316 42.96 81.9276 43.776L80.6556 44.64C80.2396 44.016 79.7116 43.552 79.0716 43.248C78.4316 42.928 77.7356 42.768 76.9836 42.768C76.0716 42.768 75.2476 42.976 74.5116 43.392C73.7916 43.792 73.2236 44.368 72.8076 45.12C72.4076 45.872 72.2076 46.728 72.2076 47.688C72.2076 48.664 72.4076 49.528 72.8076 50.28C73.2236 51.016 73.7916 51.592 74.5116 52.008C75.2476 52.408 76.0716 52.608 76.9836 52.608C77.7356 52.608 78.4316 52.456 79.0716 52.152C79.7116 51.848 80.2396 51.384 80.6556 50.76L81.9276 51.624C81.4316 52.44 80.7516 53.064 79.8876 53.496C79.0236 53.912 78.0556 54.12 76.9836 54.12ZM92.7837 53.232C92.4637 53.52 92.0637 53.744 91.5837 53.904C91.1197 54.048 90.6317 54.12 90.1197 54.12C88.9357 54.12 88.0237 53.8 87.3837 53.16C86.7437 52.52 86.4237 51.616 86.4237 50.448V42.816H84.1677V41.376H86.4237V38.616H88.1277V41.376H91.9677V42.816H88.1277V50.352C88.1277 51.104 88.3117 51.68 88.6797 52.08C89.0637 52.464 89.6077 52.656 90.3117 52.656C90.6637 52.656 90.9997 52.6 91.3197 52.488C91.6557 52.376 91.9437 52.216 92.1837 52.008L92.7837 53.232ZM96.6057 41.376H98.3097V54H96.6057V41.376ZM97.4697 38.616C97.1177 38.616 96.8217 38.496 96.5817 38.256C96.3417 38.016 96.2217 37.728 96.2217 37.392C96.2217 37.072 96.3417 36.792 96.5817 36.552C96.8217 36.312 97.1177 36.192 97.4697 36.192C97.8217 36.192 98.1177 36.312 98.3577 36.552C98.5977 36.776 98.7177 37.048 98.7177 37.368C98.7177 37.72 98.5977 38.016 98.3577 38.256C98.1177 38.496 97.8217 38.616 97.4697 38.616ZM108.931 54.12C107.715 54.12 106.619 53.848 105.643 53.304C104.667 52.744 103.899 51.976 103.339 51C102.779 50.024 102.499 48.92 102.499 47.688C102.499 46.456 102.779 45.352 103.339 44.376C103.899 43.4 104.667 42.64 105.643 42.096C106.619 41.552 107.715 41.28 108.931 41.28C110.147 41.28 111.243 41.552 112.219 42.096C113.195 42.64 113.955 43.4 114.499 44.376C115.059 45.352 115.339 46.456 115.339 47.688C115.339 48.92 115.059 50.024 114.499 51C113.955 51.976 113.195 52.744 112.219 53.304C111.243 53.848 110.147 54.12 108.931 54.12ZM108.931 52.608C109.827 52.608 110.627 52.408 111.331 52.008C112.051 51.592 112.611 51.008 113.011 50.256C113.411 49.504 113.611 48.648 113.611 47.688C113.611 46.728 113.411 45.872 113.011 45.12C112.611 44.368 112.051 43.792 111.331 43.392C110.627 42.976 109.827 42.768 108.931 42.768C108.035 42.768 107.227 42.976 106.507 43.392C105.803 43.792 105.243 44.368 104.827 45.12C104.427 45.872 104.227 46.728 104.227 47.688C104.227 48.648 104.427 49.504 104.827 50.256C105.243 51.008 105.803 51.592 106.507 52.008C107.227 52.408 108.035 52.608 108.931 52.608ZM125.97 41.28C127.554 41.28 128.81 41.744 129.738 42.672C130.682 43.584 131.154 44.92 131.154 46.68V54H129.45V46.848C129.45 45.536 129.122 44.536 128.466 43.848C127.81 43.16 126.874 42.816 125.658 42.816C124.298 42.816 123.218 43.224 122.418 44.04C121.634 44.84 121.242 45.952 121.242 47.376V54H119.538V41.376H121.17V43.704C121.634 42.936 122.274 42.344 123.09 41.928C123.922 41.496 124.882 41.28 125.97 41.28Z" fill="black"/>
</svg>
