<svg width="91" height="40" viewBox="0 0 91 40" fill="none" xmlns="http://www.w3.org/2000/svg">
<path d="M7.2398 6.82782C7.97984 6.9887 8.54827 7.31046 8.9451 7.79309C9.35266 8.26499 9.55644 8.87633 9.55644 9.62709C9.55644 10.5924 9.19714 11.3378 8.47856 11.8633C7.7707 12.3781 6.71963 12.6355 5.32536 12.6355H0.145107V1.37408H5.0036C6.25845 1.37408 7.22908 1.62612 7.91549 2.1302C8.61262 2.63428 8.96119 3.34751 8.96119 4.26987C8.96119 4.89193 8.80567 5.42283 8.49464 5.86256C8.19434 6.29156 7.77606 6.61332 7.2398 6.82782ZM1.3356 2.35543V6.44172H4.92317C5.8348 6.44172 6.5373 6.27011 7.03066 5.92691C7.52402 5.57298 7.7707 5.06353 7.7707 4.39857C7.7707 3.73361 7.52402 3.22953 7.03066 2.88633C6.5373 2.5324 5.8348 2.35543 4.92317 2.35543H1.3356ZM5.30927 11.6541C6.31744 11.6541 7.07892 11.4825 7.59373 11.1393C8.10854 10.7961 8.36594 10.2599 8.36594 9.53056C8.36594 8.12557 7.34705 7.42307 5.30927 7.42307H1.3356V11.6541H5.30927ZM15.9739 12.7159C15.1588 12.7159 14.4242 12.5336 13.7699 12.169C13.1157 11.7936 12.6009 11.2788 12.2255 10.6245C11.8501 9.9703 11.6624 9.23026 11.6624 8.40442C11.6624 7.57858 11.8501 6.83855 12.2255 6.18431C12.6009 5.53008 13.1157 5.02063 13.7699 4.65598C14.4242 4.29132 15.1588 4.10899 15.9739 4.10899C16.789 4.10899 17.5237 4.29132 18.178 4.65598C18.8322 5.02063 19.3416 5.53008 19.7063 6.18431C20.0817 6.83855 20.2694 7.57858 20.2694 8.40442C20.2694 9.23026 20.0817 9.9703 19.7063 10.6245C19.3416 11.2788 18.8322 11.7936 18.178 12.169C17.5237 12.5336 16.789 12.7159 15.9739 12.7159ZM15.9739 11.7024C16.5745 11.7024 17.1108 11.5683 17.5827 11.3002C18.0653 11.0214 18.4407 10.6299 18.7089 10.1258C18.977 9.62173 19.111 9.04793 19.111 8.40442C19.111 7.76091 18.977 7.18712 18.7089 6.68303C18.4407 6.17895 18.0653 5.79284 17.5827 5.52472C17.1108 5.24586 16.5745 5.10643 15.9739 5.10643C15.3733 5.10643 14.8317 5.24586 14.3491 5.52472C13.8772 5.79284 13.5018 6.17895 13.2229 6.68303C12.9548 7.18712 12.8207 7.76091 12.8207 8.40442C12.8207 9.04793 12.9548 9.62173 13.2229 10.1258C13.5018 10.6299 13.8772 11.0214 14.3491 11.3002C14.8317 11.5683 15.3733 11.7024 15.9739 11.7024ZM26.5428 12.7159C25.7277 12.7159 24.993 12.5336 24.3388 12.169C23.6846 11.7936 23.1698 11.2788 22.7944 10.6245C22.419 9.9703 22.2313 9.23026 22.2313 8.40442C22.2313 7.57858 22.419 6.83855 22.7944 6.18431C23.1698 5.53008 23.6846 5.02063 24.3388 4.65598C24.993 4.29132 25.7277 4.10899 26.5428 4.10899C27.3579 4.10899 28.0926 4.29132 28.7469 4.65598C29.4011 5.02063 29.9105 5.53008 30.2752 6.18431C30.6506 6.83855 30.8383 7.57858 30.8383 8.40442C30.8383 9.23026 30.6506 9.9703 30.2752 10.6245C29.9105 11.2788 29.4011 11.7936 28.7469 12.169C28.0926 12.5336 27.3579 12.7159 26.5428 12.7159ZM26.5428 11.7024C27.1434 11.7024 27.6797 11.5683 28.1516 11.3002C28.6342 11.0214 29.0096 10.6299 29.2777 10.1258C29.5459 9.62173 29.6799 9.04793 29.6799 8.40442C29.6799 7.76091 29.5459 7.18712 29.2777 6.68303C29.0096 6.17895 28.6342 5.79284 28.1516 5.52472C27.6797 5.24586 27.1434 5.10643 26.5428 5.10643C25.9422 5.10643 25.4006 5.24586 24.918 5.52472C24.4461 5.79284 24.0707 6.17895 23.7918 6.68303C23.5237 7.18712 23.3896 7.76091 23.3896 8.40442C23.3896 9.04793 23.5237 9.62173 23.7918 10.1258C24.0707 10.6299 24.4461 11.0214 24.918 11.3002C25.4006 11.5683 25.9422 11.7024 26.5428 11.7024ZM36.79 8.38833L34.7951 10.2223V12.6355H33.6529V0.698393H34.7951V8.79053L39.8466 4.17335H41.2624L37.6426 7.63221L41.6002 12.6355H40.2006L36.79 8.38833ZM51.4508 4.10899C52.5555 4.10899 53.4028 4.38785 53.9927 4.94556C54.5825 5.49254 54.8775 6.30765 54.8775 7.39089V12.6355H53.7835V11.3163C53.5261 11.756 53.1454 12.0992 52.6413 12.3459C52.1479 12.5926 51.5581 12.7159 50.8716 12.7159C49.9278 12.7159 49.1771 12.4907 48.6194 12.0403C48.0616 11.5898 47.7828 10.9945 47.7828 10.2545C47.7828 9.53593 48.0402 8.95677 48.555 8.51704C49.0805 8.0773 49.9117 7.85744 51.0486 7.85744H53.7353V7.34263C53.7353 6.61332 53.5315 6.06097 53.1239 5.68559C52.7164 5.29949 52.1211 5.10643 51.3382 5.10643C50.8019 5.10643 50.2871 5.1976 49.7938 5.37993C49.3004 5.55153 48.8768 5.79284 48.5228 6.10387L48.008 5.25122C48.437 4.88657 48.9518 4.60771 49.5524 4.41466C50.1531 4.21088 50.7858 4.10899 51.4508 4.10899ZM51.0486 11.815C51.6921 11.815 52.2445 11.6702 52.7056 11.3807C53.1668 11.0803 53.51 10.6513 53.7353 10.0936V8.71009H51.0808C49.6329 8.71009 48.9089 9.21417 48.9089 10.2223C48.9089 10.7157 49.0966 11.1072 49.472 11.3967C49.8474 11.6756 50.3729 11.815 51.0486 11.815ZM65.424 12.7159C64.7376 12.7159 64.078 12.6194 63.4452 12.4264C62.8232 12.2226 62.3352 11.9705 61.9812 11.6702L62.496 10.7693C62.85 11.0482 63.2951 11.2788 63.8313 11.4611C64.3676 11.6327 64.9253 11.7185 65.5044 11.7185C66.2767 11.7185 66.8451 11.6005 67.2097 11.3646C67.5851 11.1179 67.7728 10.7747 67.7728 10.335C67.7728 10.0239 67.6709 9.78261 67.4672 9.611C67.2634 9.42867 67.006 9.29461 66.6949 9.20881C66.3839 9.11228 65.971 9.02112 65.4562 8.93532C64.7698 8.80662 64.2174 8.67791 63.7991 8.54921C63.3809 8.40978 63.0216 8.17919 62.7213 7.85744C62.4317 7.53568 62.2869 7.09059 62.2869 6.52216C62.2869 5.8143 62.5818 5.23514 63.1717 4.78468C63.7616 4.33422 64.5821 4.10899 65.6331 4.10899C66.1801 4.10899 66.7271 4.18407 67.2741 4.33422C67.8211 4.47365 68.2715 4.66134 68.6255 4.89729L68.1267 5.8143C67.4296 5.33166 66.5984 5.09035 65.6331 5.09035C64.9038 5.09035 64.3515 5.21905 63.9761 5.47645C63.6115 5.73386 63.4291 6.0717 63.4291 6.48998C63.4291 6.81174 63.531 7.06914 63.7348 7.26219C63.9493 7.45524 64.2121 7.60003 64.5231 7.69656C64.8341 7.78236 65.2631 7.87353 65.8101 7.97005C66.4858 8.09875 67.0274 8.22746 67.435 8.35616C67.8425 8.48486 68.1911 8.70473 68.4807 9.01576C68.7703 9.32679 68.915 9.75579 68.915 10.3028C68.915 11.0428 68.604 11.6327 67.982 12.0724C67.3706 12.5014 66.518 12.7159 65.424 12.7159ZM71.5093 4.17335H72.6515V12.6355H71.5093V4.17335ZM72.0885 2.32325C71.8525 2.32325 71.6541 2.24282 71.4932 2.08194C71.3324 1.92106 71.2519 1.72801 71.2519 1.50278C71.2519 1.28828 71.3324 1.10059 71.4932 0.939709C71.6541 0.778832 71.8525 0.698393 72.0885 0.698393C72.3244 0.698393 72.5228 0.778832 72.6837 0.939709C72.8446 1.08986 72.925 1.27219 72.925 1.48669C72.925 1.72265 72.8446 1.92106 72.6837 2.08194C72.5228 2.24282 72.3244 2.32325 72.0885 2.32325ZM80.7687 12.1207C80.5542 12.3137 80.2861 12.4639 79.9643 12.5711C79.6533 12.6677 79.3262 12.7159 78.983 12.7159C78.1893 12.7159 77.578 12.5014 77.149 12.0724C76.7199 11.6434 76.5054 11.0374 76.5054 10.2545V5.13861H74.9932V4.17335H76.5054V2.32325H77.6477V4.17335H80.2217V5.13861H77.6477V10.1902C77.6477 10.6942 77.771 11.0803 78.0177 11.3485C78.2751 11.6059 78.6398 11.7346 79.1117 11.7346C79.3476 11.7346 79.5728 11.697 79.7873 11.622C80.0126 11.5469 80.2056 11.4396 80.3665 11.3002L80.7687 12.1207ZM90.4004 8.75835H83.3217C83.3861 9.63782 83.7239 10.351 84.3353 10.898C84.9466 11.4343 85.7188 11.7024 86.6519 11.7024C87.1774 11.7024 87.6601 11.6112 88.0998 11.4289C88.5395 11.2359 88.9203 10.957 89.242 10.5924L89.8855 11.3324C89.5102 11.7828 89.0383 12.1261 88.4698 12.362C87.9121 12.598 87.2954 12.7159 86.6197 12.7159C85.751 12.7159 84.9788 12.5336 84.3031 12.169C83.6381 11.7936 83.118 11.2788 82.7426 10.6245C82.3672 9.9703 82.1795 9.23026 82.1795 8.40442C82.1795 7.57858 82.3565 6.83855 82.7104 6.18431C83.0751 5.53008 83.5684 5.02063 84.1905 4.65598C84.8233 4.29132 85.5311 4.10899 86.3141 4.10899C87.097 4.10899 87.7995 4.29132 88.4216 4.65598C89.0436 5.02063 89.5316 5.53008 89.8855 6.18431C90.2395 6.82782 90.4164 7.56786 90.4164 8.40442L90.4004 8.75835ZM86.3141 5.09035C85.499 5.09035 84.8125 5.35311 84.2548 5.87865C83.7079 6.39345 83.3968 7.06914 83.3217 7.9057H89.3225C89.2474 7.06914 88.931 6.39345 88.3733 5.87865C87.8263 5.35311 87.1399 5.09035 86.3141 5.09035ZM2.05175 28.1733H3.19398V36.6355H2.05175V28.1733ZM2.63091 26.3233C2.39496 26.3233 2.19654 26.2428 2.03567 26.0819C1.87479 25.9211 1.79435 25.728 1.79435 25.5028C1.79435 25.2883 1.87479 25.1006 2.03567 24.9397C2.19654 24.7788 2.39496 24.6984 2.63091 24.6984C2.86687 24.6984 3.06528 24.7788 3.22616 24.9397C3.38704 25.0899 3.46748 25.2722 3.46748 25.4867C3.46748 25.7226 3.38704 25.9211 3.22616 26.0819C3.06528 26.2428 2.86687 26.3233 2.63091 26.3233ZM11.1663 28.109C12.2281 28.109 13.0701 28.42 13.6921 29.0421C14.3249 29.6534 14.6413 30.549 14.6413 31.7287V36.6355H13.4991V31.8414C13.4991 30.9619 13.2792 30.2916 12.8395 29.8304C12.3997 29.3692 11.7723 29.1386 10.9572 29.1386C10.0456 29.1386 9.32161 29.4121 8.78535 29.9591C8.25982 30.4953 7.99705 31.2407 7.99705 32.1953V36.6355H6.85482V28.1733H7.94879V29.7339C8.25982 29.219 8.68883 28.8222 9.23581 28.5434C9.79352 28.2538 10.437 28.109 11.1663 28.109ZM20.4933 36.7159C19.8069 36.7159 19.1473 36.6194 18.5145 36.4264C17.8925 36.2226 17.4045 35.9705 17.0506 35.6702L17.5654 34.7693C17.9193 35.0482 18.3644 35.2788 18.9006 35.4611C19.4369 35.6327 19.9946 35.7185 20.5738 35.7185C21.346 35.7185 21.9144 35.6005 22.2791 35.3646C22.6545 35.1179 22.8421 34.7747 22.8421 34.335C22.8421 34.0239 22.7403 33.7826 22.5365 33.611C22.3327 33.4287 22.0753 33.2946 21.7643 33.2088C21.4532 33.1123 21.0403 33.0211 20.5255 32.9353C19.8391 32.8066 19.2868 32.6779 18.8685 32.5492C18.4502 32.4098 18.0909 32.1792 17.7906 31.8574C17.501 31.5357 17.3562 31.0906 17.3562 30.5222C17.3562 29.8143 17.6512 29.2351 18.2411 28.7847C18.8309 28.3342 19.6514 28.109 20.7025 28.109C21.2495 28.109 21.7964 28.1841 22.3434 28.3342C22.8904 28.4736 23.3409 28.6613 23.6948 28.8973L23.1961 29.8143C22.4989 29.3317 21.6677 29.0903 20.7025 29.0903C19.9732 29.0903 19.4208 29.219 19.0454 29.4765C18.6808 29.7339 18.4985 30.0717 18.4985 30.49C18.4985 30.8117 18.6003 31.0691 18.8041 31.2622C19.0186 31.4552 19.2814 31.6 19.5924 31.6966C19.9035 31.7824 20.3325 31.8735 20.8794 31.9701C21.5551 32.0988 22.0967 32.2275 22.5043 32.3562C22.9119 32.4849 23.2604 32.7047 23.55 33.0158C23.8396 33.3268 23.9844 33.7558 23.9844 34.3028C23.9844 35.0428 23.6733 35.6327 23.0513 36.0724C22.44 36.5014 21.5873 36.7159 20.4933 36.7159ZM30.9384 28.109C31.7321 28.109 32.4507 28.2913 33.0942 28.656C33.7377 29.0099 34.2418 29.514 34.6064 30.1682C34.9711 30.8225 35.1534 31.5679 35.1534 32.4044C35.1534 33.2517 34.9711 34.0025 34.6064 34.6567C34.2418 35.3109 33.7377 35.8204 33.0942 36.185C32.4614 36.539 31.7428 36.7159 30.9384 36.7159C30.252 36.7159 29.63 36.5765 29.0722 36.2977C28.5253 36.0081 28.0748 35.5898 27.7209 35.0428V39.7565H26.5786V28.1733H27.6726V29.8465C28.0158 29.2888 28.4663 28.8598 29.024 28.5595C29.5924 28.2591 30.2306 28.109 30.9384 28.109ZM30.858 35.7024C31.4479 35.7024 31.9841 35.5683 32.4668 35.3002C32.9494 35.0214 33.3248 34.6299 33.5929 34.1258C33.8718 33.6217 34.0112 33.0479 34.0112 32.4044C34.0112 31.7609 33.8718 31.1925 33.5929 30.6991C33.3248 30.195 32.9494 29.8036 32.4668 29.5247C31.9841 29.2459 31.4479 29.1064 30.858 29.1064C30.2574 29.1064 29.7158 29.2459 29.2331 29.5247C28.7612 29.8036 28.3858 30.195 28.107 30.6991C27.8389 31.1925 27.7048 31.7609 27.7048 32.4044C27.7048 33.0479 27.8389 33.6217 28.107 34.1258C28.3858 34.6299 28.7612 35.0214 29.2331 35.3002C29.7158 35.5683 30.2574 35.7024 30.858 35.7024ZM45.3327 32.7584H38.2541C38.3184 33.6378 38.6563 34.351 39.2676 34.898C39.8789 35.4343 40.6511 35.7024 41.5842 35.7024C42.1098 35.7024 42.5924 35.6112 43.0321 35.4289C43.4719 35.2359 43.8526 34.957 44.1744 34.5924L44.8179 35.3324C44.4425 35.7828 43.9706 36.1261 43.4022 36.362C42.8444 36.598 42.2277 36.7159 41.5521 36.7159C40.6833 36.7159 39.9111 36.5336 39.2354 36.169C38.5705 35.7936 38.0503 35.2788 37.6749 34.6245C37.2995 33.9703 37.1118 33.2303 37.1118 32.4044C37.1118 31.5786 37.2888 30.8385 37.6427 30.1843C38.0074 29.5301 38.5008 29.0206 39.1228 28.656C39.7556 28.2913 40.4635 28.109 41.2464 28.109C42.0293 28.109 42.7318 28.2913 43.3539 28.656C43.9759 29.0206 44.4639 29.5301 44.8179 30.1843C45.1718 30.8278 45.3488 31.5679 45.3488 32.4044L45.3327 32.7584ZM41.2464 29.0903C40.4313 29.0903 39.7449 29.3531 39.1872 29.8786C38.6402 30.3935 38.3291 31.0691 38.2541 31.9057H44.2548C44.1797 31.0691 43.8633 30.3935 43.3056 29.8786C42.7586 29.3531 42.0722 29.0903 41.2464 29.0903ZM51.6635 36.7159C50.8269 36.7159 50.0761 36.5336 49.4112 36.169C48.7569 35.8043 48.2421 35.2949 47.8668 34.6406C47.4914 33.9757 47.3037 33.2303 47.3037 32.4044C47.3037 31.5786 47.4914 30.8385 47.8668 30.1843C48.2421 29.5301 48.7569 29.0206 49.4112 28.656C50.0761 28.2913 50.8269 28.109 51.6635 28.109C52.3928 28.109 53.0416 28.2538 53.6101 28.5434C54.1892 28.8222 54.6451 29.2351 54.9775 29.7821L54.1249 30.3613C53.846 29.943 53.4921 29.632 53.0631 29.4282C52.6341 29.2137 52.1675 29.1064 51.6635 29.1064C51.0521 29.1064 50.4998 29.2459 50.0064 29.5247C49.5238 29.7928 49.143 30.179 48.8642 30.683C48.5961 31.1871 48.462 31.7609 48.462 32.4044C48.462 33.0587 48.5961 33.6378 48.8642 34.1419C49.143 34.6353 49.5238 35.0214 50.0064 35.3002C50.4998 35.5683 51.0521 35.7024 51.6635 35.7024C52.1675 35.7024 52.6341 35.6005 53.0631 35.3967C53.4921 35.193 53.846 34.8819 54.1249 34.4637L54.9775 35.0428C54.6451 35.5898 54.1892 36.0081 53.6101 36.2977C53.0309 36.5765 52.382 36.7159 51.6635 36.7159ZM62.2546 36.1207C62.0401 36.3137 61.772 36.4639 61.4502 36.5711C61.1392 36.6677 60.8121 36.7159 60.4689 36.7159C59.6752 36.7159 59.0639 36.5014 58.6349 36.0724C58.2059 35.6434 57.9914 35.0374 57.9914 34.2545V29.1386H56.4791V28.1733H57.9914V26.3233H59.1336V28.1733H61.7076V29.1386H59.1336V34.1902C59.1336 34.6942 59.2569 35.0803 59.5036 35.3485C59.761 35.6059 60.1257 35.7346 60.5976 35.7346C60.8335 35.7346 61.0587 35.697 61.2733 35.622C61.4985 35.5469 61.6915 35.4396 61.8524 35.3002L62.2546 36.1207ZM64.8166 28.1733H65.9588V36.6355H64.8166V28.1733ZM65.3957 26.3233C65.1598 26.3233 64.9614 26.2428 64.8005 26.0819C64.6396 25.9211 64.5592 25.728 64.5592 25.5028C64.5592 25.2883 64.6396 25.1006 64.8005 24.9397C64.9614 24.7788 65.1598 24.6984 65.3957 24.6984C65.6317 24.6984 65.8301 24.7788 65.991 24.9397C66.1519 25.0899 66.2323 25.2722 66.2323 25.4867C66.2323 25.7226 66.1519 25.9211 65.991 26.0819C65.8301 26.2428 65.6317 26.3233 65.3957 26.3233ZM73.0785 36.7159C72.2634 36.7159 71.5287 36.5336 70.8745 36.169C70.2203 35.7936 69.7054 35.2788 69.3301 34.6245C68.9547 33.9703 68.767 33.2303 68.767 32.4044C68.767 31.5786 68.9547 30.8385 69.3301 30.1843C69.7054 29.5301 70.2203 29.0206 70.8745 28.656C71.5287 28.2913 72.2634 28.109 73.0785 28.109C73.8936 28.109 74.6283 28.2913 75.2825 28.656C75.9368 29.0206 76.4462 29.5301 76.8109 30.1843C77.1862 30.8385 77.3739 31.5786 77.3739 32.4044C77.3739 33.2303 77.1862 33.9703 76.8109 34.6245C76.4462 35.2788 75.9368 35.7936 75.2825 36.169C74.6283 36.5336 73.8936 36.7159 73.0785 36.7159ZM73.0785 35.7024C73.6791 35.7024 74.2154 35.5683 74.6873 35.3002C75.1699 35.0214 75.5453 34.6299 75.8134 34.1258C76.0816 33.6217 76.2156 33.0479 76.2156 32.4044C76.2156 31.7609 76.0816 31.1871 75.8134 30.683C75.5453 30.179 75.1699 29.7928 74.6873 29.5247C74.2154 29.2459 73.6791 29.1064 73.0785 29.1064C72.4779 29.1064 71.9363 29.2459 71.4536 29.5247C70.9817 29.7928 70.6064 30.179 70.3275 30.683C70.0594 31.1871 69.9253 31.7609 69.9253 32.4044C69.9253 33.0479 70.0594 33.6217 70.3275 34.1258C70.6064 34.6299 70.9817 35.0214 71.4536 35.3002C71.9363 35.5683 72.4779 35.7024 73.0785 35.7024ZM84.5 28.109C85.5618 28.109 86.4038 28.42 87.0258 29.0421C87.6586 29.6534 87.975 30.549 87.975 31.7287V36.6355H86.8328V31.8414C86.8328 30.9619 86.6129 30.2916 86.1732 29.8304C85.7334 29.3692 85.106 29.1386 84.2909 29.1386C83.3793 29.1386 82.6553 29.4121 82.1191 29.9591C81.5935 30.4953 81.3308 31.2407 81.3308 32.1953V36.6355H80.1885V28.1733H81.2825V29.7339C81.5935 29.219 82.0225 28.8222 82.5695 28.5434C83.1272 28.2538 83.7707 28.109 84.5 28.109Z" fill="black"/>
</svg>
