<svg width="215" height="23" viewBox="0 0 215 23" fill="none" xmlns="http://www.w3.org/2000/svg">
<path d="M14.119 12.4127C15.199 12.7547 16.045 13.3307 16.657 14.1407C17.269 14.9327 17.575 15.9137 17.575 17.0837C17.575 18.7397 16.927 20.0177 15.631 20.9177C14.353 21.7997 12.481 22.2407 10.015 22.2407H0.241V3.34072H9.475C11.779 3.34072 13.543 3.78172 14.767 4.66372C16.009 5.54572 16.63 6.74272 16.63 8.25472C16.63 9.17272 16.405 9.99172 15.955 10.7117C15.523 11.4317 14.911 11.9987 14.119 12.4127ZM4.588 6.63472V11.0897H8.935C10.015 11.0897 10.834 10.9007 11.392 10.5227C11.95 10.1447 12.229 9.58672 12.229 8.84872C12.229 8.11072 11.95 7.56172 11.392 7.20172C10.834 6.82372 10.015 6.63472 8.935 6.63472H4.588ZM9.691 18.9467C10.843 18.9467 11.707 18.7577 12.283 18.3797C12.877 18.0017 13.174 17.4167 13.174 16.6247C13.174 15.0587 12.013 14.2757 9.691 14.2757H4.588V18.9467H9.691ZM27.6365 22.4567C26.1065 22.4567 24.7295 22.1417 23.5055 21.5117C22.2995 20.8637 21.3545 19.9727 20.6705 18.8387C19.9865 17.7047 19.6445 16.4177 19.6445 14.9777C19.6445 13.5377 19.9865 12.2507 20.6705 11.1167C21.3545 9.98272 22.2995 9.10072 23.5055 8.47072C24.7295 7.82272 26.1065 7.49872 27.6365 7.49872C29.1665 7.49872 30.5345 7.82272 31.7405 8.47072C32.9465 9.10072 33.8915 9.98272 34.5755 11.1167C35.2595 12.2507 35.6015 13.5377 35.6015 14.9777C35.6015 16.4177 35.2595 17.7047 34.5755 18.8387C33.8915 19.9727 32.9465 20.8637 31.7405 21.5117C30.5345 22.1417 29.1665 22.4567 27.6365 22.4567ZM27.6365 19.0007C28.7165 19.0007 29.5985 18.6407 30.2825 17.9207C30.9845 17.1827 31.3355 16.2017 31.3355 14.9777C31.3355 13.7537 30.9845 12.7817 30.2825 12.0617C29.5985 11.3237 28.7165 10.9547 27.6365 10.9547C26.5565 10.9547 25.6655 11.3237 24.9635 12.0617C24.2615 12.7817 23.9105 13.7537 23.9105 14.9777C23.9105 16.2017 24.2615 17.1827 24.9635 17.9207C25.6655 18.6407 26.5565 19.0007 27.6365 19.0007ZM45.4639 22.4567C43.9339 22.4567 42.5569 22.1417 41.3329 21.5117C40.1269 20.8637 39.1819 19.9727 38.4979 18.8387C37.8139 17.7047 37.4719 16.4177 37.4719 14.9777C37.4719 13.5377 37.8139 12.2507 38.4979 11.1167C39.1819 9.98272 40.1269 9.10072 41.3329 8.47072C42.5569 7.82272 43.9339 7.49872 45.4639 7.49872C46.9939 7.49872 48.3619 7.82272 49.5679 8.47072C50.7739 9.10072 51.7189 9.98272 52.4029 11.1167C53.0869 12.2507 53.4289 13.5377 53.4289 14.9777C53.4289 16.4177 53.0869 17.7047 52.4029 18.8387C51.7189 19.9727 50.7739 20.8637 49.5679 21.5117C48.3619 22.1417 46.9939 22.4567 45.4639 22.4567ZM45.4639 19.0007C46.5439 19.0007 47.4259 18.6407 48.1099 17.9207C48.8119 17.1827 49.1629 16.2017 49.1629 14.9777C49.1629 13.7537 48.8119 12.7817 48.1099 12.0617C47.4259 11.3237 46.5439 10.9547 45.4639 10.9547C44.3839 10.9547 43.4929 11.3237 42.7909 12.0617C42.0889 12.7817 41.7379 13.7537 41.7379 14.9777C41.7379 16.2017 42.0889 17.1827 42.7909 17.9207C43.4929 18.6407 44.3839 19.0007 45.4639 19.0007ZM62.6163 16.5437L60.5913 18.5417V22.2407H56.3793V2.20672H60.5913V13.5467L66.7473 7.71472H71.7693L65.7213 13.8707L72.3093 22.2407H67.2063L62.6163 16.5437ZM100.588 3.34072L92.407 22.2407H88.087L79.933 3.34072H84.658L90.409 16.8407L96.241 3.34072H100.588ZM102.268 7.71472H106.48V22.2407H102.268V7.71472ZM104.374 5.68972C103.6 5.68972 102.97 5.46472 102.484 5.01472C101.998 4.56472 101.755 4.00672 101.755 3.34072C101.755 2.67472 101.998 2.11672 102.484 1.66672C102.97 1.21672 103.6 0.991721 104.374 0.991721C105.148 0.991721 105.778 1.20772 106.264 1.63972C106.75 2.07172 106.993 2.61172 106.993 3.25972C106.993 3.96172 106.75 4.54672 106.264 5.01472C105.778 5.46472 105.148 5.68972 104.374 5.68972ZM115.411 22.4567C114.205 22.4567 113.026 22.3127 111.874 22.0247C110.722 21.7187 109.804 21.3407 109.12 20.8907L110.524 17.8667C111.172 18.2807 111.955 18.6227 112.873 18.8927C113.791 19.1447 114.691 19.2707 115.573 19.2707C117.355 19.2707 118.246 18.8297 118.246 17.9477C118.246 17.5337 118.003 17.2367 117.517 17.0567C117.031 16.8767 116.284 16.7237 115.276 16.5977C114.088 16.4177 113.107 16.2107 112.333 15.9767C111.559 15.7427 110.884 15.3287 110.308 14.7347C109.75 14.1407 109.471 13.2947 109.471 12.1967C109.471 11.2787 109.732 10.4687 110.254 9.76672C110.794 9.04672 111.568 8.48872 112.576 8.09272C113.602 7.69672 114.808 7.49872 116.194 7.49872C117.22 7.49872 118.237 7.61572 119.245 7.84972C120.271 8.06572 121.117 8.37172 121.783 8.76772L120.379 11.7647C119.101 11.0447 117.706 10.6847 116.194 10.6847C115.294 10.6847 114.619 10.8107 114.169 11.0627C113.719 11.3147 113.494 11.6387 113.494 12.0347C113.494 12.4847 113.737 12.7997 114.223 12.9797C114.709 13.1597 115.483 13.3307 116.545 13.4927C117.733 13.6907 118.705 13.9067 119.461 14.1407C120.217 14.3567 120.874 14.7617 121.432 15.3557C121.99 15.9497 122.269 16.7777 122.269 17.8397C122.269 18.7397 121.999 19.5407 121.459 20.2427C120.919 20.9447 120.127 21.4937 119.083 21.8897C118.057 22.2677 116.833 22.4567 115.411 22.4567ZM125.003 7.71472H129.215V22.2407H125.003V7.71472ZM127.109 5.68972C126.335 5.68972 125.705 5.46472 125.219 5.01472C124.733 4.56472 124.49 4.00672 124.49 3.34072C124.49 2.67472 124.733 2.11672 125.219 1.66672C125.705 1.21672 126.335 0.991721 127.109 0.991721C127.883 0.991721 128.513 1.20772 128.999 1.63972C129.485 2.07172 129.728 2.61172 129.728 3.25972C129.728 3.96172 129.485 4.54672 128.999 5.01472C128.513 5.46472 127.883 5.68972 127.109 5.68972ZM142.628 21.5387C142.214 21.8447 141.701 22.0787 141.089 22.2407C140.495 22.3847 139.865 22.4567 139.199 22.4567C137.471 22.4567 136.13 22.0157 135.176 21.1337C134.24 20.2517 133.772 18.9557 133.772 17.2457V11.2787H131.531V8.03872H133.772V4.50172H137.984V8.03872H141.602V11.2787H137.984V17.1917C137.984 17.8037 138.137 18.2807 138.443 18.6227C138.767 18.9467 139.217 19.1087 139.793 19.1087C140.459 19.1087 141.026 18.9287 141.494 18.5687L142.628 21.5387ZM150.986 7.49872C153.236 7.49872 154.964 8.03872 156.17 9.11872C157.376 10.1807 157.979 11.7917 157.979 13.9517V22.2407H154.037V20.4317C153.245 21.7817 151.769 22.4567 149.609 22.4567C148.493 22.4567 147.521 22.2677 146.693 21.8897C145.883 21.5117 145.262 20.9897 144.83 20.3237C144.398 19.6577 144.182 18.9017 144.182 18.0557C144.182 16.7057 144.686 15.6437 145.694 14.8697C146.72 14.0957 148.295 13.7087 150.419 13.7087H153.767C153.767 12.7907 153.488 12.0887 152.93 11.6027C152.372 11.0987 151.535 10.8467 150.419 10.8467C149.645 10.8467 148.88 10.9727 148.124 11.2247C147.386 11.4587 146.756 11.7827 146.234 12.1967L144.722 9.25372C145.514 8.69572 146.459 8.26372 147.557 7.95772C148.673 7.65172 149.816 7.49872 150.986 7.49872ZM150.662 19.6217C151.382 19.6217 152.021 19.4597 152.579 19.1357C153.137 18.7937 153.533 18.2987 153.767 17.6507V16.1657H150.878C149.15 16.1657 148.286 16.7327 148.286 17.8667C148.286 18.4067 148.493 18.8387 148.907 19.1627C149.339 19.4687 149.924 19.6217 150.662 19.6217ZM171.295 21.5387C170.881 21.8447 170.368 22.0787 169.756 22.2407C169.162 22.3847 168.532 22.4567 167.866 22.4567C166.138 22.4567 164.797 22.0157 163.843 21.1337C162.907 20.2517 162.439 18.9557 162.439 17.2457V11.2787H160.198V8.03872H162.439V4.50172H166.651V8.03872H170.269V11.2787H166.651V17.1917C166.651 17.8037 166.804 18.2807 167.11 18.6227C167.434 18.9467 167.884 19.1087 168.46 19.1087C169.126 19.1087 169.693 18.9287 170.161 18.5687L171.295 21.5387ZM173.794 7.71472H178.006V22.2407H173.794V7.71472ZM175.9 5.68972C175.126 5.68972 174.496 5.46472 174.01 5.01472C173.524 4.56472 173.281 4.00672 173.281 3.34072C173.281 2.67472 173.524 2.11672 174.01 1.66672C174.496 1.21672 175.126 0.991721 175.9 0.991721C176.674 0.991721 177.304 1.20772 177.79 1.63972C178.276 2.07172 178.519 2.61172 178.519 3.25972C178.519 3.96172 178.276 4.54672 177.79 5.01472C177.304 5.46472 176.674 5.68972 175.9 5.68972ZM188.963 22.4567C187.433 22.4567 186.056 22.1417 184.832 21.5117C183.626 20.8637 182.681 19.9727 181.997 18.8387C181.313 17.7047 180.971 16.4177 180.971 14.9777C180.971 13.5377 181.313 12.2507 181.997 11.1167C182.681 9.98272 183.626 9.10072 184.832 8.47072C186.056 7.82272 187.433 7.49872 188.963 7.49872C190.493 7.49872 191.861 7.82272 193.067 8.47072C194.273 9.10072 195.218 9.98272 195.902 11.1167C196.586 12.2507 196.928 13.5377 196.928 14.9777C196.928 16.4177 196.586 17.7047 195.902 18.8387C195.218 19.9727 194.273 20.8637 193.067 21.5117C191.861 22.1417 190.493 22.4567 188.963 22.4567ZM188.963 19.0007C190.043 19.0007 190.925 18.6407 191.609 17.9207C192.311 17.1827 192.662 16.2017 192.662 14.9777C192.662 13.7537 192.311 12.7817 191.609 12.0617C190.925 11.3237 190.043 10.9547 188.963 10.9547C187.883 10.9547 186.992 11.3237 186.29 12.0617C185.588 12.7817 185.237 13.7537 185.237 14.9777C185.237 16.2017 185.588 17.1827 186.29 17.9207C186.992 18.6407 187.883 19.0007 188.963 19.0007ZM208.707 7.49872C210.507 7.49872 211.956 8.03872 213.054 9.11872C214.17 10.1987 214.728 11.8007 214.728 13.9247V22.2407H210.516V14.5727C210.516 13.4207 210.264 12.5657 209.76 12.0077C209.256 11.4317 208.527 11.1437 207.573 11.1437C206.511 11.1437 205.665 11.4767 205.035 12.1427C204.405 12.7907 204.09 13.7627 204.09 15.0587V22.2407H199.878V7.71472H203.901V9.41572C204.459 8.80372 205.152 8.33572 205.98 8.01172C206.808 7.66972 207.717 7.49872 208.707 7.49872Z" fill="#1F1F1F"/>
</svg>
