<svg width="145" height="15" viewBox="0 0 145 15" fill="none" xmlns="http://www.w3.org/2000/svg">
<path d="M9.98559 7.68184C10.7095 7.91109 11.2766 8.2972 11.6869 8.84016C12.0971 9.37106 12.3022 10.0286 12.3022 10.8129C12.3022 11.923 11.8679 12.7796 10.9991 13.3829C10.1425 13.9742 8.88761 14.2698 7.23459 14.2698H0.682857V1.60068H6.87262C8.41704 1.60068 9.59949 1.89629 10.42 2.48751C11.2525 3.07874 11.6688 3.88111 11.6688 4.89464C11.6688 5.51 11.518 6.05899 11.2163 6.54163C10.9267 7.02426 10.5165 7.40433 9.98559 7.68184ZM3.59675 3.80872V6.79501H6.51064C7.23459 6.79501 7.78359 6.66832 8.15763 6.41493C8.53167 6.16155 8.71868 5.78751 8.71868 5.29281C8.71868 4.79812 8.53167 4.43011 8.15763 4.18879C7.78359 3.93541 7.23459 3.80872 6.51064 3.80872H3.59675ZM7.01741 12.0617C7.78962 12.0617 8.36878 11.935 8.75488 11.6817C9.15305 11.4283 9.35214 11.0361 9.35214 10.5052C9.35214 9.45552 8.5739 8.93066 7.01741 8.93066H3.59675V12.0617H7.01741ZM19.0467 14.4146C18.0211 14.4146 17.0981 14.2034 16.2776 13.7811C15.4692 13.3467 14.8357 12.7495 14.3772 11.9893C13.9187 11.2292 13.6895 10.3665 13.6895 9.40122C13.6895 8.43596 13.9187 7.57325 14.3772 6.81311C14.8357 6.05296 15.4692 5.46174 16.2776 5.03943C17.0981 4.60506 18.0211 4.38788 19.0467 4.38788C20.0723 4.38788 20.9893 4.60506 21.7977 5.03943C22.6061 5.46174 23.2396 6.05296 23.6981 6.81311C24.1566 7.57325 24.3858 8.43596 24.3858 9.40122C24.3858 10.3665 24.1566 11.2292 23.6981 11.9893C23.2396 12.7495 22.6061 13.3467 21.7977 13.7811C20.9893 14.2034 20.0723 14.4146 19.0467 14.4146ZM19.0467 12.0979C19.7706 12.0979 20.3619 11.8566 20.8204 11.374C21.2909 10.8793 21.5262 10.2217 21.5262 9.40122C21.5262 8.58075 21.2909 7.92919 20.8204 7.44656C20.3619 6.95186 19.7706 6.70451 19.0467 6.70451C18.3227 6.70451 17.7255 6.95186 17.2549 7.44656C16.7843 7.92919 16.5491 8.58075 16.5491 9.40122C16.5491 10.2217 16.7843 10.8793 17.2549 11.374C17.7255 11.8566 18.3227 12.0979 19.0467 12.0979ZM30.9968 14.4146C29.9712 14.4146 29.0482 14.2034 28.2277 13.7811C27.4193 13.3467 26.7858 12.7495 26.3273 11.9893C25.8688 11.2292 25.6396 10.3665 25.6396 9.40122C25.6396 8.43596 25.8688 7.57325 26.3273 6.81311C26.7858 6.05296 27.4193 5.46174 28.2277 5.03943C29.0482 4.60506 29.9712 4.38788 30.9968 4.38788C32.0224 4.38788 32.9394 4.60506 33.7478 5.03943C34.5562 5.46174 35.1897 6.05296 35.6482 6.81311C36.1067 7.57325 36.3359 8.43596 36.3359 9.40122C36.3359 10.3665 36.1067 11.2292 35.6482 11.9893C35.1897 12.7495 34.5562 13.3467 33.7478 13.7811C32.9394 14.2034 32.0224 14.4146 30.9968 14.4146ZM30.9968 12.0979C31.7207 12.0979 32.312 11.8566 32.7705 11.374C33.241 10.8793 33.4763 10.2217 33.4763 9.40122C33.4763 8.58075 33.241 7.92919 32.7705 7.44656C32.312 6.95186 31.7207 6.70451 30.9968 6.70451C30.2728 6.70451 29.6756 6.95186 29.205 7.44656C28.7344 7.92919 28.4992 8.58075 28.4992 9.40122C28.4992 10.2217 28.7344 10.8793 29.205 11.374C29.6756 11.8566 30.2728 12.0979 30.9968 12.0979ZM42.4944 10.4509L41.137 11.7903V14.2698H38.3136V0.840531H41.137V8.44199L45.2635 4.53267H48.6299L44.5758 8.65917L48.9919 14.2698H45.5712L42.4944 10.4509ZM67.9477 1.60068L62.4638 14.2698H59.568L54.1022 1.60068H57.2695L61.1245 10.65L65.0338 1.60068H67.9477ZM69.0736 4.53267H71.897V14.2698H69.0736V4.53267ZM70.4853 3.17526C69.9665 3.17526 69.5442 3.02444 69.2184 2.7228C68.8927 2.42115 68.7298 2.04711 68.7298 1.60068C68.7298 1.15424 68.8927 0.780202 69.2184 0.478557C69.5442 0.176912 69.9665 0.0260887 70.4853 0.0260887C71.0042 0.0260887 71.4265 0.170879 71.7523 0.460459C72.078 0.750038 72.2409 1.11201 72.2409 1.54638C72.2409 2.01695 72.078 2.40909 71.7523 2.7228C71.4265 3.02444 71.0042 3.17526 70.4853 3.17526ZM77.8838 14.4146C77.0754 14.4146 76.285 14.318 75.5128 14.125C74.7406 13.9199 74.1253 13.6665 73.6668 13.3648L74.6079 11.3378C75.0423 11.6153 75.5671 11.8445 76.1825 12.0255C76.7978 12.1945 77.4011 12.2789 77.9924 12.2789C79.1869 12.2789 79.7841 11.9833 79.7841 11.3921C79.7841 11.1146 79.6212 10.9155 79.2955 10.7948C78.9697 10.6742 78.469 10.5716 77.7933 10.4871C76.9969 10.3665 76.3393 10.2277 75.8205 10.0709C75.3017 9.91402 74.8492 9.63651 74.4631 9.23833C74.0891 8.84016 73.902 8.27307 73.902 7.53705C73.902 6.9217 74.077 6.37874 74.4269 5.90817C74.7889 5.42554 75.3077 5.0515 75.9834 4.78605C76.6711 4.5206 77.4796 4.38788 78.4086 4.38788C79.0964 4.38788 79.7781 4.46631 80.4538 4.62316C81.1415 4.76795 81.7086 4.97307 82.1551 5.23852L81.2139 7.24748C80.3573 6.76484 79.4222 6.52353 78.4086 6.52353C77.8053 6.52353 77.3529 6.60799 77.0512 6.77691C76.7496 6.94583 76.5988 7.16301 76.5988 7.42846C76.5988 7.73011 76.7616 7.94126 77.0874 8.06192C77.4132 8.18258 77.932 8.2972 78.6439 8.40579C79.4403 8.53852 80.0918 8.68331 80.5986 8.84016C81.1053 8.98495 81.5457 9.25643 81.9198 9.6546C82.2938 10.0528 82.4808 10.6078 82.4808 11.3197C82.4808 11.923 82.2998 12.4599 81.9379 12.9305C81.5759 13.401 81.045 13.769 80.3452 14.0345C79.6574 14.2879 78.837 14.4146 77.8838 14.4146ZM84.3133 4.53267H87.1367V14.2698H84.3133V4.53267ZM85.725 3.17526C85.2062 3.17526 84.7839 3.02444 84.4581 2.7228C84.1323 2.42115 83.9694 2.04711 83.9694 1.60068C83.9694 1.15424 84.1323 0.780202 84.4581 0.478557C84.7839 0.176912 85.2062 0.0260887 85.725 0.0260887C86.2439 0.0260887 86.6662 0.170879 86.9919 0.460459C87.3177 0.750038 87.4806 1.11201 87.4806 1.54638C87.4806 2.01695 87.3177 2.40909 86.9919 2.7228C86.6662 3.02444 86.2439 3.17526 85.725 3.17526ZM96.1278 13.7992C95.8503 14.0043 95.5064 14.1612 95.0962 14.2698C94.698 14.3663 94.2757 14.4146 93.8293 14.4146C92.671 14.4146 91.7721 14.119 91.1326 13.5277C90.5052 12.9365 90.1914 12.0678 90.1914 10.9215V6.9217H88.6893V4.74985H90.1914V2.37892H93.0148V4.74985H95.4401V6.9217H93.0148V10.8853C93.0148 11.2956 93.1174 11.6153 93.3225 11.8445C93.5397 12.0617 93.8414 12.1703 94.2275 12.1703C94.6739 12.1703 95.054 12.0497 95.3677 11.8084L96.1278 13.7992ZM101.731 4.38788C103.239 4.38788 104.397 4.74985 105.206 5.4738C106.014 6.18568 106.418 7.26557 106.418 8.71347V14.2698H103.776V13.0572C103.245 13.9621 102.256 14.4146 100.808 14.4146C100.06 14.4146 99.408 14.2879 98.853 14.0345C98.31 13.7811 97.8937 13.4312 97.6041 12.9848C97.3146 12.5383 97.1698 12.0316 97.1698 11.4645C97.1698 10.5595 97.5076 9.84766 98.1833 9.32883C98.8711 8.81 99.9268 8.55058 101.351 8.55058H103.595C103.595 7.93523 103.408 7.46466 103.034 7.13888C102.66 6.80104 102.099 6.63212 101.351 6.63212C100.832 6.63212 100.319 6.71658 99.8122 6.8855C99.3175 7.04236 98.8952 7.25954 98.5453 7.53705L97.5317 5.56429C98.0626 5.19025 98.6961 4.90068 99.4321 4.69556C100.18 4.49044 100.946 4.38788 101.731 4.38788ZM101.513 12.5142C101.996 12.5142 102.424 12.4056 102.798 12.1884C103.173 11.9592 103.438 11.6274 103.595 11.193V10.1976H101.658C100.5 10.1976 99.9208 10.5776 99.9208 11.3378C99.9208 11.6998 100.06 11.9893 100.337 12.2065C100.627 12.4116 101.019 12.5142 101.513 12.5142ZM115.344 13.7992C115.067 14.0043 114.723 14.1612 114.313 14.2698C113.914 14.3663 113.492 14.4146 113.046 14.4146C111.887 14.4146 110.989 14.119 110.349 13.5277C109.722 12.9365 109.408 12.0678 109.408 10.9215V6.9217H107.906V4.74985H109.408V2.37892H112.231V4.74985H114.657V6.9217H112.231V10.8853C112.231 11.2956 112.334 11.6153 112.539 11.8445C112.756 12.0617 113.058 12.1703 113.444 12.1703C113.89 12.1703 114.27 12.0497 114.584 11.8084L115.344 13.7992ZM117.02 4.53267H119.843V14.2698H117.02V4.53267ZM118.431 3.17526C117.913 3.17526 117.49 3.02444 117.164 2.7228C116.839 2.42115 116.676 2.04711 116.676 1.60068C116.676 1.15424 116.839 0.780202 117.164 0.478557C117.49 0.176912 117.913 0.0260887 118.431 0.0260887C118.95 0.0260887 119.373 0.170879 119.698 0.460459C120.024 0.750038 120.187 1.11201 120.187 1.54638C120.187 2.01695 120.024 2.40909 119.698 2.7228C119.373 3.02444 118.95 3.17526 118.431 3.17526ZM127.187 14.4146C126.162 14.4146 125.239 14.2034 124.418 13.7811C123.61 13.3467 122.976 12.7495 122.518 11.9893C122.059 11.2292 121.83 10.3665 121.83 9.40122C121.83 8.43596 122.059 7.57325 122.518 6.81311C122.976 6.05296 123.61 5.46174 124.418 5.03943C125.239 4.60506 126.162 4.38788 127.187 4.38788C128.213 4.38788 129.13 4.60506 129.938 5.03943C130.747 5.46174 131.38 6.05296 131.839 6.81311C132.297 7.57325 132.526 8.43596 132.526 9.40122C132.526 10.3665 132.297 11.2292 131.839 11.9893C131.38 12.7495 130.747 13.3467 129.938 13.7811C129.13 14.2034 128.213 14.4146 127.187 14.4146ZM127.187 12.0979C127.911 12.0979 128.502 11.8566 128.961 11.374C129.431 10.8793 129.667 10.2217 129.667 9.40122C129.667 8.58075 129.431 7.92919 128.961 7.44656C128.502 6.95186 127.911 6.70451 127.187 6.70451C126.463 6.70451 125.866 6.95186 125.395 7.44656C124.925 7.92919 124.69 8.58075 124.69 9.40122C124.69 10.2217 124.925 10.8793 125.395 11.374C125.866 11.8566 126.463 12.0979 127.187 12.0979ZM140.422 4.38788C141.629 4.38788 142.6 4.74985 143.336 5.4738C144.084 6.19775 144.458 7.27161 144.458 8.69537V14.2698H141.635V9.12974C141.635 8.35753 141.466 7.7844 141.128 7.41036C140.79 7.02426 140.302 6.8312 139.662 6.8312C138.95 6.8312 138.383 7.05442 137.961 7.50086C137.539 7.93523 137.327 8.58678 137.327 9.45552V14.2698H134.504V4.53267H137.201V5.67289C137.575 5.26265 138.039 4.94894 138.594 4.73175C139.149 4.5025 139.759 4.38788 140.422 4.38788Z" fill="#1F1F1F"/>
</svg>
