<svg width="221" height="95" viewBox="0 0 221 95" fill="none" xmlns="http://www.w3.org/2000/svg">
<path d="M33.5011 18.192C31.8211 18.192 30.3011 17.824 28.9411 17.088C27.5971 16.336 26.5411 15.312 25.7731 14.016C25.0051 12.704 24.6211 11.232 24.6211 9.6C24.6211 7.968 25.0051 6.504 25.7731 5.208C26.5411 3.896 27.6051 2.872 28.9651 2.136C30.3251 1.384 31.8451 1.008 33.5251 1.008C34.8371 1.008 36.0371 1.232 37.1251 1.68C38.2131 2.112 39.1411 2.76 39.9091 3.624L38.3491 5.136C37.0851 3.808 35.5091 3.144 33.6211 3.144C32.3731 3.144 31.2451 3.424 30.2371 3.984C29.2291 4.544 28.4371 5.32 27.8611 6.312C27.3011 7.288 27.0211 8.384 27.0211 9.6C27.0211 10.816 27.3011 11.92 27.8611 12.912C28.4371 13.888 29.2291 14.656 30.2371 15.216C31.2451 15.776 32.3731 16.056 33.6211 16.056C35.4931 16.056 37.0691 15.384 38.3491 14.04L39.9091 15.552C39.1411 16.416 38.2051 17.072 37.1011 17.52C36.0131 17.968 34.8131 18.192 33.5011 18.192ZM50.5088 5.16C52.1248 5.16 53.4048 5.632 54.3488 6.576C55.3088 7.504 55.7888 8.872 55.7888 10.68V18H53.4848V10.944C53.4848 9.712 53.1888 8.784 52.5968 8.16C52.0048 7.536 51.1568 7.224 50.0528 7.224C48.8048 7.224 47.8208 7.592 47.1008 8.328C46.3808 9.048 46.0208 10.088 46.0208 11.448V18H43.7168V0.191999H46.0208V7.08C46.5008 6.472 47.1248 6 47.8928 5.664C48.6768 5.328 49.5488 5.16 50.5088 5.16ZM72.3391 11.712C72.3391 11.888 72.3231 12.12 72.2911 12.408H61.9711C62.1151 13.528 62.6031 14.432 63.4351 15.12C64.2831 15.792 65.3311 16.128 66.5791 16.128C68.0991 16.128 69.3231 15.616 70.2511 14.592L71.5231 16.08C70.9471 16.752 70.2271 17.264 69.3631 17.616C68.5151 17.968 67.5631 18.144 66.5071 18.144C65.1631 18.144 63.9711 17.872 62.9311 17.328C61.8911 16.768 61.0831 15.992 60.5071 15C59.9471 14.008 59.6671 12.888 59.6671 11.64C59.6671 10.408 59.9391 9.296 60.4831 8.304C61.0431 7.312 61.8031 6.544 62.7631 6C63.7391 5.44 64.8351 5.16 66.0511 5.16C67.2671 5.16 68.3471 5.44 69.2911 6C70.2511 6.544 70.9951 7.312 71.5231 8.304C72.0671 9.296 72.3391 10.432 72.3391 11.712ZM66.0511 7.104C64.9471 7.104 64.0191 7.44 63.2671 8.112C62.5311 8.784 62.0991 9.664 61.9711 10.752H70.1311C70.0031 9.68 69.5631 8.808 68.8111 8.136C68.0751 7.448 67.1551 7.104 66.0511 7.104ZM81.8024 18.144C80.5064 18.144 79.3464 17.864 78.3224 17.304C77.3144 16.744 76.5224 15.976 75.9464 15C75.3704 14.008 75.0824 12.888 75.0824 11.64C75.0824 10.392 75.3704 9.28 75.9464 8.304C76.5224 7.312 77.3144 6.544 78.3224 6C79.3464 5.44 80.5064 5.16 81.8024 5.16C82.9544 5.16 83.9784 5.392 84.8744 5.856C85.7864 6.32 86.4904 6.992 86.9864 7.872L85.2344 9C84.8344 8.392 84.3384 7.936 83.7464 7.632C83.1544 7.328 82.4984 7.176 81.7784 7.176C80.9464 7.176 80.1944 7.36 79.5224 7.728C78.8664 8.096 78.3464 8.624 77.9624 9.312C77.5944 9.984 77.4104 10.76 77.4104 11.64C77.4104 12.536 77.5944 13.328 77.9624 14.016C78.3464 14.688 78.8664 15.208 79.5224 15.576C80.1944 15.944 80.9464 16.128 81.7784 16.128C82.4984 16.128 83.1544 15.976 83.7464 15.672C84.3384 15.368 84.8344 14.912 85.2344 14.304L86.9864 15.408C86.4904 16.288 85.7864 16.968 84.8744 17.448C83.9784 17.912 82.9544 18.144 81.8024 18.144ZM95.4692 12.072L92.8292 14.52V18H90.5252V0.191999H92.8292V11.616L99.7652 5.28H102.549L97.1972 10.536L103.077 18H100.245L95.4692 12.072ZM110.943 18.144C109.679 18.144 108.543 17.864 107.535 17.304C106.527 16.744 105.735 15.976 105.159 15C104.599 14.008 104.319 12.888 104.319 11.64C104.319 10.392 104.599 9.28 105.159 8.304C105.735 7.312 106.527 6.544 107.535 6C108.543 5.44 109.679 5.16 110.943 5.16C112.207 5.16 113.335 5.44 114.327 6C115.335 6.544 116.119 7.312 116.679 8.304C117.255 9.28 117.543 10.392 117.543 11.64C117.543 12.888 117.255 14.008 116.679 15C116.119 15.976 115.335 16.744 114.327 17.304C113.335 17.864 112.207 18.144 110.943 18.144ZM110.943 16.128C111.759 16.128 112.487 15.944 113.127 15.576C113.783 15.192 114.295 14.664 114.663 13.992C115.031 13.304 115.215 12.52 115.215 11.64C115.215 10.76 115.031 9.984 114.663 9.312C114.295 8.624 113.783 8.096 113.127 7.728C112.487 7.36 111.759 7.176 110.943 7.176C110.127 7.176 109.391 7.36 108.735 7.728C108.095 8.096 107.583 8.624 107.199 9.312C106.831 9.984 106.647 10.76 106.647 11.64C106.647 12.52 106.831 13.304 107.199 13.992C107.583 14.664 108.095 15.192 108.735 15.576C109.391 15.944 110.127 16.128 110.943 16.128ZM133.306 5.28V18H131.122V16.08C130.658 16.736 130.042 17.248 129.274 17.616C128.522 17.968 127.698 18.144 126.802 18.144C125.106 18.144 123.77 17.68 122.794 16.752C121.818 15.808 121.33 14.424 121.33 12.6V5.28H123.634V12.336C123.634 13.568 123.93 14.504 124.522 15.144C125.114 15.768 125.962 16.08 127.066 16.08C128.282 16.08 129.242 15.712 129.946 14.976C130.65 14.24 131.002 13.2 131.002 11.856V5.28H133.306ZM145.564 17.256C145.228 17.544 144.812 17.768 144.316 17.928C143.82 18.072 143.308 18.144 142.78 18.144C141.5 18.144 140.508 17.8 139.804 17.112C139.1 16.424 138.748 15.44 138.748 14.16V7.176H136.588V5.28H138.748V2.496H141.052V5.28H144.7V7.176H141.052V14.064C141.052 14.752 141.22 15.28 141.556 15.648C141.908 16.016 142.404 16.2 143.044 16.2C143.748 16.2 144.348 16 144.844 15.6L145.564 17.256ZM161.683 18.144C160.419 18.144 159.283 17.864 158.275 17.304C157.267 16.744 156.475 15.976 155.899 15C155.339 14.008 155.059 12.888 155.059 11.64C155.059 10.392 155.339 9.28 155.899 8.304C156.475 7.312 157.267 6.544 158.275 6C159.283 5.44 160.419 5.16 161.683 5.16C162.947 5.16 164.075 5.44 165.067 6C166.075 6.544 166.859 7.312 167.419 8.304C167.995 9.28 168.283 10.392 168.283 11.64C168.283 12.888 167.995 14.008 167.419 15C166.859 15.976 166.075 16.744 165.067 17.304C164.075 17.864 162.947 18.144 161.683 18.144ZM161.683 16.128C162.499 16.128 163.227 15.944 163.867 15.576C164.523 15.192 165.035 14.664 165.403 13.992C165.771 13.304 165.955 12.52 165.955 11.64C165.955 10.76 165.771 9.984 165.403 9.312C165.035 8.624 164.523 8.096 163.867 7.728C163.227 7.36 162.499 7.176 161.683 7.176C160.867 7.176 160.131 7.36 159.475 7.728C158.835 8.096 158.323 8.624 157.939 9.312C157.571 9.984 157.387 10.76 157.387 11.64C157.387 12.52 157.571 13.304 157.939 13.992C158.323 14.664 158.835 15.192 159.475 15.576C160.131 15.944 160.867 16.128 161.683 16.128ZM184.045 5.28V18H181.861V16.08C181.397 16.736 180.781 17.248 180.013 17.616C179.261 17.968 178.437 18.144 177.541 18.144C175.845 18.144 174.509 17.68 173.533 16.752C172.557 15.808 172.069 14.424 172.069 12.6V5.28H174.373V12.336C174.373 13.568 174.669 14.504 175.261 15.144C175.853 15.768 176.701 16.08 177.805 16.08C179.021 16.08 179.981 15.712 180.685 14.976C181.389 14.24 181.741 13.2 181.741 11.856V5.28H184.045ZM191.359 7.416C191.759 6.68 192.351 6.12 193.135 5.736C193.919 5.352 194.871 5.16 195.991 5.16V7.392C195.863 7.376 195.687 7.368 195.463 7.368C194.215 7.368 193.231 7.744 192.511 8.496C191.807 9.232 191.455 10.288 191.455 11.664V18H189.151V5.28H191.359V7.416ZM1.3615 41.28H3.6655V54H1.3615V41.28ZM2.5135 38.832C2.0655 38.832 1.6895 38.688 1.3855 38.4C1.0975 38.112 0.953498 37.76 0.953498 37.344C0.953498 36.928 1.0975 36.576 1.3855 36.288C1.6895 35.984 2.0655 35.832 2.5135 35.832C2.9615 35.832 3.3295 35.976 3.6175 36.264C3.9215 36.536 4.0735 36.88 4.0735 37.296C4.0735 37.728 3.9215 38.096 3.6175 38.4C3.3295 38.688 2.9615 38.832 2.5135 38.832ZM15.5766 41.16C17.1926 41.16 18.4726 41.632 19.4166 42.576C20.3766 43.504 20.8566 44.872 20.8566 46.68V54H18.5526V46.944C18.5526 45.712 18.2566 44.784 17.6646 44.16C17.0726 43.536 16.2246 43.224 15.1206 43.224C13.8726 43.224 12.8886 43.592 12.1686 44.328C11.4486 45.048 11.0886 46.088 11.0886 47.448V54H8.78462V41.28H10.9926V43.2C11.4566 42.544 12.0806 42.04 12.8646 41.688C13.6646 41.336 14.5686 41.16 15.5766 41.16ZM36.8622 41.28L31.2942 54H28.9422L23.3742 41.28H25.7742L30.1422 51.48L34.6062 41.28H36.8622ZM50.8769 47.712C50.8769 47.888 50.8609 48.12 50.8289 48.408H40.5089C40.6529 49.528 41.1409 50.432 41.9729 51.12C42.8209 51.792 43.8689 52.128 45.1169 52.128C46.6369 52.128 47.8609 51.616 48.7889 50.592L50.0609 52.08C49.4849 52.752 48.7649 53.264 47.9009 53.616C47.0529 53.968 46.1009 54.144 45.0449 54.144C43.7009 54.144 42.5089 53.872 41.4689 53.328C40.4289 52.768 39.6209 51.992 39.0449 51C38.4849 50.008 38.2049 48.888 38.2049 47.64C38.2049 46.408 38.4769 45.296 39.0209 44.304C39.5809 43.312 40.3409 42.544 41.3009 42C42.2769 41.44 43.3729 41.16 44.5889 41.16C45.8049 41.16 46.8849 41.44 47.8289 42C48.7889 42.544 49.5329 43.312 50.0609 44.304C50.6049 45.296 50.8769 46.432 50.8769 47.712ZM44.5889 43.104C43.4849 43.104 42.5569 43.44 41.8049 44.112C41.0689 44.784 40.6369 45.664 40.5089 46.752H48.6689C48.5409 45.68 48.1009 44.808 47.3489 44.136C46.6129 43.448 45.6929 43.104 44.5889 43.104ZM58.4442 54.144C57.4042 54.144 56.4042 54.008 55.4442 53.736C54.4842 53.448 53.7322 53.088 53.1882 52.656L54.1482 50.832C54.7082 51.232 55.3882 51.552 56.1882 51.792C56.9882 52.032 57.7962 52.152 58.6122 52.152C60.6282 52.152 61.6362 51.576 61.6362 50.424C61.6362 50.04 61.5002 49.736 61.2282 49.512C60.9562 49.288 60.6122 49.128 60.1962 49.032C59.7962 48.92 59.2202 48.8 58.4682 48.672C57.4442 48.512 56.6042 48.328 55.9482 48.12C55.3082 47.912 54.7562 47.56 54.2922 47.064C53.8282 46.568 53.5962 45.872 53.5962 44.976C53.5962 43.824 54.0762 42.904 55.0362 42.216C55.9962 41.512 57.2842 41.16 58.9002 41.16C59.7482 41.16 60.5962 41.264 61.4442 41.472C62.2922 41.68 62.9882 41.96 63.5322 42.312L62.5482 44.136C61.5082 43.464 60.2842 43.128 58.8762 43.128C57.9002 43.128 57.1562 43.288 56.6442 43.608C56.1322 43.928 55.8762 44.352 55.8762 44.88C55.8762 45.296 56.0202 45.624 56.3082 45.864C56.5962 46.104 56.9482 46.28 57.3642 46.392C57.7962 46.504 58.3962 46.632 59.1642 46.776C60.1882 46.952 61.0122 47.144 61.6362 47.352C62.2762 47.544 62.8202 47.88 63.2682 48.36C63.7162 48.84 63.9402 49.512 63.9402 50.376C63.9402 51.528 63.4442 52.448 62.4522 53.136C61.4762 53.808 60.1402 54.144 58.4442 54.144ZM74.6916 53.256C74.3556 53.544 73.9396 53.768 73.4436 53.928C72.9476 54.072 72.4356 54.144 71.9076 54.144C70.6276 54.144 69.6356 53.8 68.9316 53.112C68.2276 52.424 67.8756 51.44 67.8756 50.16V43.176H65.7156V41.28H67.8756V38.496H70.1796V41.28H73.8276V43.176H70.1796V50.064C70.1796 50.752 70.3476 51.28 70.6836 51.648C71.0356 52.016 71.5316 52.2 72.1716 52.2C72.8756 52.2 73.4756 52 73.9716 51.6L74.6916 53.256ZM94.1091 41.16C95.7091 41.16 96.9731 41.624 97.9011 42.552C98.8451 43.48 99.3171 44.856 99.3171 46.68V54H97.0131V46.944C97.0131 45.712 96.7251 44.784 96.1491 44.16C95.5891 43.536 94.7811 43.224 93.7251 43.224C92.5571 43.224 91.6291 43.592 90.9411 44.328C90.2531 45.048 89.9091 46.088 89.9091 47.448V54H87.6051V46.944C87.6051 45.712 87.3171 44.784 86.7411 44.16C86.1811 43.536 85.3731 43.224 84.3171 43.224C83.1491 43.224 82.2211 43.592 81.5331 44.328C80.8451 45.048 80.5011 46.088 80.5011 47.448V54H78.1971V41.28H80.4051V43.176C80.8691 42.52 81.4771 42.024 82.2291 41.688C82.9811 41.336 83.8371 41.16 84.7971 41.16C85.7891 41.16 86.6691 41.36 87.4371 41.76C88.2051 42.16 88.7971 42.744 89.2131 43.512C89.6931 42.776 90.3571 42.2 91.2051 41.784C92.0691 41.368 93.0371 41.16 94.1091 41.16ZM115.843 47.712C115.843 47.888 115.827 48.12 115.795 48.408H105.475C105.619 49.528 106.107 50.432 106.939 51.12C107.787 51.792 108.835 52.128 110.083 52.128C111.603 52.128 112.827 51.616 113.755 50.592L115.027 52.08C114.451 52.752 113.731 53.264 112.867 53.616C112.019 53.968 111.067 54.144 110.011 54.144C108.667 54.144 107.475 53.872 106.435 53.328C105.395 52.768 104.587 51.992 104.011 51C103.451 50.008 103.171 48.888 103.171 47.64C103.171 46.408 103.443 45.296 103.987 44.304C104.547 43.312 105.307 42.544 106.267 42C107.243 41.44 108.339 41.16 109.555 41.16C110.771 41.16 111.851 41.44 112.795 42C113.755 42.544 114.499 43.312 115.027 44.304C115.571 45.296 115.843 46.432 115.843 47.712ZM109.555 43.104C108.451 43.104 107.523 43.44 106.771 44.112C106.035 44.784 105.603 45.664 105.475 46.752H113.635C113.507 45.68 113.067 44.808 112.315 44.136C111.579 43.448 110.659 43.104 109.555 43.104ZM126.554 41.16C128.17 41.16 129.45 41.632 130.394 42.576C131.354 43.504 131.834 44.872 131.834 46.68V54H129.53V46.944C129.53 45.712 129.234 44.784 128.642 44.16C128.05 43.536 127.202 43.224 126.098 43.224C124.85 43.224 123.866 43.592 123.146 44.328C122.426 45.048 122.066 46.088 122.066 47.448V54H119.762V41.28H121.97V43.2C122.434 42.544 123.058 42.04 123.842 41.688C124.642 41.336 125.546 41.16 126.554 41.16ZM143.97 53.256C143.634 53.544 143.218 53.768 142.722 53.928C142.226 54.072 141.714 54.144 141.186 54.144C139.906 54.144 138.914 53.8 138.21 53.112C137.506 52.424 137.154 51.44 137.154 50.16V43.176H134.994V41.28H137.154V38.496H139.458V41.28H143.106V43.176H139.458V50.064C139.458 50.752 139.626 51.28 139.962 51.648C140.314 52.016 140.81 52.2 141.45 52.2C142.154 52.2 142.754 52 143.25 51.6L143.97 53.256ZM161.385 41.16C162.617 41.16 163.721 41.432 164.697 41.976C165.673 42.52 166.433 43.28 166.977 44.256C167.537 45.232 167.817 46.36 167.817 47.64C167.817 48.92 167.537 50.056 166.977 51.048C166.433 52.024 165.673 52.784 164.697 53.328C163.721 53.872 162.617 54.144 161.385 54.144C160.473 54.144 159.633 53.968 158.865 53.616C158.113 53.264 157.473 52.752 156.945 52.08V58.656H154.641V41.28H156.849V43.296C157.361 42.592 158.009 42.064 158.793 41.712C159.577 41.344 160.441 41.16 161.385 41.16ZM161.193 52.128C162.009 52.128 162.737 51.944 163.377 51.576C164.033 51.192 164.545 50.664 164.913 49.992C165.297 49.304 165.489 48.52 165.489 47.64C165.489 46.76 165.297 45.984 164.913 45.312C164.545 44.624 164.033 44.096 163.377 43.728C162.737 43.36 162.009 43.176 161.193 43.176C160.393 43.176 159.665 43.368 159.009 43.752C158.369 44.12 157.857 44.64 157.473 45.312C157.105 45.984 156.921 46.76 156.921 47.64C156.921 48.52 157.105 49.304 157.473 49.992C157.841 50.664 158.353 51.192 159.009 51.576C159.665 51.944 160.393 52.128 161.193 52.128ZM171.72 36.192H174.024V54H171.72V36.192ZM183.775 41.16C185.535 41.16 186.879 41.592 187.807 42.456C188.751 43.32 189.223 44.608 189.223 46.32V54H187.039V52.32C186.655 52.912 186.103 53.368 185.383 53.688C184.679 53.992 183.839 54.144 182.863 54.144C181.439 54.144 180.295 53.8 179.431 53.112C178.583 52.424 178.159 51.52 178.159 50.4C178.159 49.28 178.567 48.384 179.383 47.712C180.199 47.024 181.495 46.68 183.271 46.68H186.919V46.224C186.919 45.232 186.631 44.472 186.055 43.944C185.479 43.416 184.631 43.152 183.511 43.152C182.759 43.152 182.023 43.28 181.303 43.536C180.583 43.776 179.975 44.104 179.479 44.52L178.519 42.792C179.175 42.264 179.959 41.864 180.871 41.592C181.783 41.304 182.751 41.16 183.775 41.16ZM183.247 52.368C184.127 52.368 184.887 52.176 185.527 51.792C186.167 51.392 186.631 50.832 186.919 50.112V48.336H183.367C181.415 48.336 180.439 48.992 180.439 50.304C180.439 50.944 180.687 51.448 181.183 51.816C181.679 52.184 182.367 52.368 183.247 52.368ZM200.999 41.16C202.615 41.16 203.895 41.632 204.839 42.576C205.799 43.504 206.279 44.872 206.279 46.68V54H203.975V46.944C203.975 45.712 203.679 44.784 203.087 44.16C202.495 43.536 201.647 43.224 200.543 43.224C199.295 43.224 198.311 43.592 197.591 44.328C196.871 45.048 196.511 46.088 196.511 47.448V54H194.207V41.28H196.415V43.2C196.879 42.544 197.503 42.04 198.287 41.688C199.087 41.336 199.991 41.16 200.999 41.16ZM214.911 54.144C213.871 54.144 212.871 54.008 211.911 53.736C210.951 53.448 210.199 53.088 209.655 52.656L210.615 50.832C211.175 51.232 211.855 51.552 212.655 51.792C213.455 52.032 214.263 52.152 215.079 52.152C217.095 52.152 218.103 51.576 218.103 50.424C218.103 50.04 217.967 49.736 217.695 49.512C217.423 49.288 217.079 49.128 216.663 49.032C216.263 48.92 215.687 48.8 214.935 48.672C213.911 48.512 213.071 48.328 212.415 48.12C211.775 47.912 211.223 47.56 210.759 47.064C210.295 46.568 210.063 45.872 210.063 44.976C210.063 43.824 210.543 42.904 211.503 42.216C212.463 41.512 213.751 41.16 215.367 41.16C216.215 41.16 217.063 41.264 217.911 41.472C218.759 41.68 219.455 41.96 219.999 42.312L219.015 44.136C217.975 43.464 216.751 43.128 215.343 43.128C214.367 43.128 213.623 43.288 213.111 43.608C212.599 43.928 212.343 44.352 212.343 44.88C212.343 45.296 212.487 45.624 212.775 45.864C213.063 46.104 213.415 46.28 213.831 46.392C214.263 46.504 214.863 46.632 215.631 46.776C216.655 46.952 217.479 47.144 218.103 47.352C218.743 47.544 219.287 47.88 219.735 48.36C220.183 48.84 220.407 49.512 220.407 50.376C220.407 51.528 219.911 52.448 218.919 53.136C217.943 53.808 216.607 54.144 214.911 54.144ZM70.6813 90.144C69.3853 90.144 68.2253 89.864 67.2013 89.304C66.1933 88.744 65.4013 87.976 64.8253 87C64.2493 86.008 63.9613 84.888 63.9613 83.64C63.9613 82.392 64.2493 81.28 64.8253 80.304C65.4013 79.312 66.1933 78.544 67.2013 78C68.2253 77.44 69.3853 77.16 70.6813 77.16C71.8333 77.16 72.8573 77.392 73.7533 77.856C74.6653 78.32 75.3693 78.992 75.8653 79.872L74.1133 81C73.7133 80.392 73.2173 79.936 72.6253 79.632C72.0333 79.328 71.3773 79.176 70.6573 79.176C69.8253 79.176 69.0733 79.36 68.4013 79.728C67.7453 80.096 67.2253 80.624 66.8413 81.312C66.4733 81.984 66.2893 82.76 66.2893 83.64C66.2893 84.536 66.4733 85.328 66.8413 86.016C67.2253 86.688 67.7453 87.208 68.4013 87.576C69.0733 87.944 69.8253 88.128 70.6573 88.128C71.3773 88.128 72.0333 87.976 72.6253 87.672C73.2173 87.368 73.7133 86.912 74.1133 86.304L75.8653 87.408C75.3693 88.288 74.6653 88.968 73.7533 89.448C72.8573 89.912 71.8333 90.144 70.6813 90.144ZM84.2002 77.16C85.9602 77.16 87.3042 77.592 88.2322 78.456C89.1762 79.32 89.6482 80.608 89.6482 82.32V90H87.4642V88.32C87.0802 88.912 86.5282 89.368 85.8082 89.688C85.1042 89.992 84.2642 90.144 83.2882 90.144C81.8642 90.144 80.7202 89.8 79.8562 89.112C79.0082 88.424 78.5842 87.52 78.5842 86.4C78.5842 85.28 78.9922 84.384 79.8082 83.712C80.6242 83.024 81.9202 82.68 83.6962 82.68H87.3442V82.224C87.3442 81.232 87.0562 80.472 86.4802 79.944C85.9042 79.416 85.0562 79.152 83.9362 79.152C83.1842 79.152 82.4482 79.28 81.7282 79.536C81.0082 79.776 80.4002 80.104 79.9042 80.52L78.9442 78.792C79.6002 78.264 80.3842 77.864 81.2962 77.592C82.2082 77.304 83.1762 77.16 84.2002 77.16ZM83.6722 88.368C84.5522 88.368 85.3122 88.176 85.9522 87.792C86.5922 87.392 87.0562 86.832 87.3442 86.112V84.336H83.7922C81.8402 84.336 80.8642 84.992 80.8642 86.304C80.8642 86.944 81.1122 87.448 81.6082 87.816C82.1042 88.184 82.7922 88.368 83.6722 88.368ZM101.784 89.256C101.448 89.544 101.032 89.768 100.536 89.928C100.04 90.072 99.528 90.144 99 90.144C97.72 90.144 96.728 89.8 96.024 89.112C95.32 88.424 94.968 87.44 94.968 86.16V79.176H92.808V77.28H94.968V74.496H97.272V77.28H100.92V79.176H97.272V86.064C97.272 86.752 97.44 87.28 97.776 87.648C98.128 88.016 98.624 88.2 99.264 88.2C99.968 88.2 100.568 88 101.064 87.6L101.784 89.256ZM116.364 83.712C116.364 83.888 116.348 84.12 116.316 84.408H105.996C106.14 85.528 106.628 86.432 107.46 87.12C108.308 87.792 109.356 88.128 110.604 88.128C112.124 88.128 113.348 87.616 114.276 86.592L115.548 88.08C114.972 88.752 114.252 89.264 113.388 89.616C112.54 89.968 111.588 90.144 110.532 90.144C109.188 90.144 107.996 89.872 106.956 89.328C105.916 88.768 105.108 87.992 104.532 87C103.972 86.008 103.692 84.888 103.692 83.64C103.692 82.408 103.964 81.296 104.508 80.304C105.068 79.312 105.828 78.544 106.788 78C107.764 77.44 108.86 77.16 110.076 77.16C111.292 77.16 112.372 77.44 113.316 78C114.276 78.544 115.02 79.312 115.548 80.304C116.092 81.296 116.364 82.432 116.364 83.712ZM110.076 79.104C108.972 79.104 108.044 79.44 107.292 80.112C106.556 80.784 106.124 81.664 105.996 82.752H114.156C114.028 81.68 113.588 80.808 112.836 80.136C112.1 79.448 111.18 79.104 110.076 79.104ZM120.283 72.192H122.587V90H120.283V72.192ZM133.154 90.144C131.89 90.144 130.754 89.864 129.746 89.304C128.738 88.744 127.946 87.976 127.37 87C126.81 86.008 126.53 84.888 126.53 83.64C126.53 82.392 126.81 81.28 127.37 80.304C127.946 79.312 128.738 78.544 129.746 78C130.754 77.44 131.89 77.16 133.154 77.16C134.418 77.16 135.546 77.44 136.538 78C137.546 78.544 138.33 79.312 138.89 80.304C139.466 81.28 139.754 82.392 139.754 83.64C139.754 84.888 139.466 86.008 138.89 87C138.33 87.976 137.546 88.744 136.538 89.304C135.546 89.864 134.418 90.144 133.154 90.144ZM133.154 88.128C133.97 88.128 134.698 87.944 135.338 87.576C135.994 87.192 136.506 86.664 136.874 85.992C137.242 85.304 137.426 84.52 137.426 83.64C137.426 82.76 137.242 81.984 136.874 81.312C136.506 80.624 135.994 80.096 135.338 79.728C134.698 79.36 133.97 79.176 133.154 79.176C132.338 79.176 131.602 79.36 130.946 79.728C130.306 80.096 129.794 80.624 129.41 81.312C129.042 81.984 128.858 82.76 128.858 83.64C128.858 84.52 129.042 85.304 129.41 85.992C129.794 86.664 130.306 87.192 130.946 87.576C131.602 87.944 132.338 88.128 133.154 88.128ZM155.828 77.28V88.272C155.828 90.496 155.276 92.136 154.172 93.192C153.068 94.264 151.42 94.8 149.228 94.8C148.028 94.8 146.884 94.632 145.796 94.296C144.708 93.976 143.828 93.512 143.156 92.904L144.26 91.128C144.852 91.64 145.58 92.04 146.444 92.328C147.324 92.632 148.228 92.784 149.156 92.784C150.644 92.784 151.74 92.432 152.444 91.728C153.164 91.024 153.524 89.952 153.524 88.512V87.504C152.98 88.16 152.308 88.656 151.508 88.992C150.724 89.312 149.868 89.472 148.94 89.472C147.724 89.472 146.62 89.216 145.628 88.704C144.652 88.176 143.884 87.448 143.324 86.52C142.764 85.576 142.484 84.504 142.484 83.304C142.484 82.104 142.764 81.04 143.324 80.112C143.884 79.168 144.652 78.44 145.628 77.928C146.62 77.416 147.724 77.16 148.94 77.16C149.9 77.16 150.788 77.336 151.604 77.688C152.436 78.04 153.116 78.56 153.644 79.248V77.28H155.828ZM149.204 87.456C150.036 87.456 150.78 87.28 151.436 86.928C152.108 86.576 152.628 86.088 152.996 85.464C153.38 84.824 153.572 84.104 153.572 83.304C153.572 82.072 153.164 81.08 152.348 80.328C151.532 79.56 150.484 79.176 149.204 79.176C147.908 79.176 146.852 79.56 146.036 80.328C145.22 81.08 144.812 82.072 144.812 83.304C144.812 84.104 144.996 84.824 145.364 85.464C145.748 86.088 146.268 86.576 146.924 86.928C147.596 87.28 148.356 87.456 149.204 87.456Z" fill="black"/>
</svg>
