<svg width="124" height="53" viewBox="0 0 124 53" fill="none" xmlns="http://www.w3.org/2000/svg">
<path d="M19.1885 10.3037C18.2482 10.3037 17.3975 10.0978 16.6363 9.68585C15.8841 9.26497 15.2931 8.69184 14.8632 7.96649C14.4334 7.23218 14.2185 6.40831 14.2185 5.4949C14.2185 4.58149 14.4334 3.7621 14.8632 3.03675C15.2931 2.30243 15.8886 1.72931 16.6498 1.31738C17.4109 0.896496 18.2617 0.686053 19.202 0.686053C19.9363 0.686053 20.6079 0.811423 21.2168 1.06216C21.8258 1.30395 22.3452 1.66663 22.775 2.1502L21.9019 2.99645C21.1944 2.25318 20.3124 1.88155 19.2557 1.88155C18.5572 1.88155 17.9259 2.03826 17.3617 2.35169C16.7975 2.66511 16.3543 3.09943 16.0319 3.65464C15.7184 4.2009 15.5617 4.81432 15.5617 5.4949C15.5617 6.17548 15.7184 6.79338 16.0319 7.34859C16.3543 7.89485 16.7975 8.32469 17.3617 8.63811C17.9259 8.95154 18.5572 9.10825 19.2557 9.10825C20.3034 9.10825 21.1855 8.73214 21.9019 7.97992L22.775 8.82617C22.3452 9.30974 21.8213 9.6769 21.2034 9.92764C20.5945 10.1784 19.9228 10.3037 19.1885 10.3037ZM28.7076 3.00988C29.612 3.00988 30.3284 3.27405 30.8568 3.8024C31.3941 4.32179 31.6627 5.08745 31.6627 6.09937V10.1963H30.3732V6.24712C30.3732 5.55759 30.2075 5.03819 29.8762 4.68895C29.5449 4.3397 29.0702 4.16508 28.4524 4.16508C27.7539 4.16508 27.2031 4.37105 26.8001 4.78298C26.3972 5.18595 26.1957 5.76803 26.1957 6.52921V10.1963H24.9062V0.229346H26.1957V4.08448C26.4643 3.74419 26.8136 3.48002 27.2434 3.29197C27.6822 3.10391 28.1703 3.00988 28.7076 3.00988ZM40.9257 6.67696C40.9257 6.77547 40.9168 6.90532 40.8989 7.06651H35.1229C35.2035 7.69336 35.4766 8.19932 35.9423 8.58438C36.4169 8.9605 37.0034 9.14855 37.7019 9.14855C38.5526 9.14855 39.2377 8.86199 39.7571 8.28887L40.469 9.12169C40.1466 9.4978 39.7437 9.78436 39.2601 9.98137C38.7855 10.1784 38.2526 10.2769 37.6616 10.2769C36.9094 10.2769 36.2422 10.1246 35.6602 9.82018C35.0781 9.50675 34.6259 9.07243 34.3035 8.51722C33.9901 7.96201 33.8333 7.33516 33.8333 6.63667C33.8333 5.94713 33.9856 5.32476 34.29 4.76954C34.6035 4.21433 35.0288 3.78449 35.5661 3.48002C36.1124 3.16659 36.7258 3.00988 37.4064 3.00988C38.087 3.00988 38.6914 3.16659 39.2198 3.48002C39.7571 3.78449 40.1735 4.21433 40.469 4.76954C40.7735 5.32476 40.9257 5.96056 40.9257 6.67696ZM37.4064 4.09792C36.7885 4.09792 36.2691 4.28597 35.8482 4.66208C35.4363 5.03819 35.1945 5.53072 35.1229 6.13966H39.6899C39.6183 5.53968 39.372 5.05163 38.9511 4.67552C38.5392 4.29045 38.0243 4.09792 37.4064 4.09792ZM46.2222 10.2769C45.4969 10.2769 44.8476 10.1202 44.2745 9.80675C43.7103 9.49332 43.2671 9.06348 42.9447 8.51722C42.6223 7.96201 42.4611 7.33516 42.4611 6.63667C42.4611 5.93817 42.6223 5.3158 42.9447 4.76954C43.2671 4.21433 43.7103 3.78449 44.2745 3.48002C44.8476 3.16659 45.4969 3.00988 46.2222 3.00988C46.867 3.00988 47.4401 3.13973 47.9416 3.39942C48.452 3.65912 48.8461 4.03523 49.1237 4.52776L48.1431 5.15909C47.9192 4.8188 47.6416 4.56358 47.3103 4.39343C46.9789 4.22329 46.6118 4.13821 46.2088 4.13821C45.7431 4.13821 45.3223 4.2412 44.9461 4.44716C44.579 4.65313 44.2879 4.94864 44.073 5.33371C43.8671 5.70982 43.7641 6.14414 43.7641 6.63667C43.7641 7.13815 43.8671 7.58142 44.073 7.96649C44.2879 8.3426 44.579 8.63364 44.9461 8.8396C45.3223 9.04557 45.7431 9.14855 46.2088 9.14855C46.6118 9.14855 46.9789 9.06348 47.3103 8.89333C47.6416 8.72319 47.9192 8.46797 48.1431 8.12768L49.1237 8.74558C48.8461 9.2381 48.452 9.61869 47.9416 9.88734C47.4401 10.147 46.867 10.2769 46.2222 10.2769ZM53.8714 6.87845L52.3939 8.24857V10.1963H51.1043V0.229346H52.3939V6.62323L56.2759 3.07704H57.834L54.8386 6.01877L58.1296 10.1963H56.5445L53.8714 6.87845ZM62.5321 10.2769C61.8246 10.2769 61.1888 10.1202 60.6246 9.80675C60.0605 9.49332 59.6172 9.06348 59.2948 8.51722C58.9814 7.96201 58.8247 7.33516 58.8247 6.63667C58.8247 5.93817 58.9814 5.3158 59.2948 4.76954C59.6172 4.21433 60.0605 3.78449 60.6246 3.48002C61.1888 3.16659 61.8246 3.00988 62.5321 3.00988C63.2395 3.00988 63.8708 3.16659 64.426 3.48002C64.9902 3.78449 65.429 4.21433 65.7424 4.76954C66.0648 5.3158 66.226 5.93817 66.226 6.63667C66.226 7.33516 66.0648 7.96201 65.7424 8.51722C65.429 9.06348 64.9902 9.49332 64.426 9.80675C63.8708 10.1202 63.2395 10.2769 62.5321 10.2769ZM62.5321 9.14855C62.9888 9.14855 63.3962 9.04557 63.7544 8.8396C64.1216 8.62468 64.4081 8.32917 64.6141 7.95306C64.8201 7.56799 64.9231 7.12919 64.9231 6.63667C64.9231 6.14414 64.8201 5.70982 64.6141 5.33371C64.4081 4.94864 64.1216 4.65313 63.7544 4.44716C63.3962 4.2412 62.9888 4.13821 62.5321 4.13821C62.0754 4.13821 61.6634 4.2412 61.2963 4.44716C60.9381 4.65313 60.6515 4.94864 60.4366 5.33371C60.2306 5.70982 60.1276 6.14414 60.1276 6.63667C60.1276 7.12919 60.2306 7.56799 60.4366 7.95306C60.6515 8.32917 60.9381 8.62468 61.2963 8.8396C61.6634 9.04557 62.0754 9.14855 62.5321 9.14855ZM75.048 3.07704V10.1963H73.8257V9.12169C73.566 9.48884 73.2212 9.7754 72.7914 9.98137C72.3705 10.1784 71.9093 10.2769 71.4078 10.2769C70.4586 10.2769 69.7108 10.0172 69.1646 9.4978C68.6183 8.96945 68.3452 8.19484 68.3452 7.17397V3.07704H69.6347V7.02621C69.6347 7.71575 69.8004 8.23962 70.1317 8.59782C70.4631 8.94706 70.9377 9.12169 71.5556 9.12169C72.2362 9.12169 72.7735 8.91572 73.1675 8.50379C73.5615 8.09186 73.7585 7.50978 73.7585 6.75756V3.07704H75.048ZM81.9088 9.77988C81.7208 9.94107 81.4879 10.0664 81.2103 10.156C80.9327 10.2366 80.6462 10.2769 80.3506 10.2769C79.6342 10.2769 79.079 10.0844 78.685 9.69929C78.291 9.31422 78.094 8.76349 78.094 8.04708V4.13821H76.885V3.07704H78.094V1.51887H79.3835V3.07704H81.4252V4.13821H79.3835V7.99335C79.3835 8.37842 79.4775 8.67393 79.6656 8.8799C79.8626 9.08587 80.1402 9.18885 80.4984 9.18885C80.8924 9.18885 81.2282 9.07691 81.5058 8.85304L81.9088 9.77988ZM90.9303 10.2769C90.2229 10.2769 89.5871 10.1202 89.0229 9.80675C88.4587 9.49332 88.0155 9.06348 87.6931 8.51722C87.3797 7.96201 87.2229 7.33516 87.2229 6.63667C87.2229 5.93817 87.3797 5.3158 87.6931 4.76954C88.0155 4.21433 88.4587 3.78449 89.0229 3.48002C89.5871 3.16659 90.2229 3.00988 90.9303 3.00988C91.6378 3.00988 92.2691 3.16659 92.8243 3.48002C93.3885 3.78449 93.8273 4.21433 94.1407 4.76954C94.4631 5.3158 94.6243 5.93817 94.6243 6.63667C94.6243 7.33516 94.4631 7.96201 94.1407 8.51722C93.8273 9.06348 93.3885 9.49332 92.8243 9.80675C92.2691 10.1202 91.6378 10.2769 90.9303 10.2769ZM90.9303 9.14855C91.387 9.14855 91.7945 9.04557 92.1527 8.8396C92.5198 8.62468 92.8064 8.32917 93.0124 7.95306C93.2183 7.56799 93.3213 7.12919 93.3213 6.63667C93.3213 6.14414 93.2183 5.70982 93.0124 5.33371C92.8064 4.94864 92.5198 4.65313 92.1527 4.44716C91.7945 4.2412 91.387 4.13821 90.9303 4.13821C90.4736 4.13821 90.0617 4.2412 89.6945 4.44716C89.3363 4.65313 89.0498 4.94864 88.8349 5.33371C88.6289 5.70982 88.5259 6.14414 88.5259 6.63667C88.5259 7.12919 88.6289 7.56799 88.8349 7.95306C89.0498 8.32917 89.3363 8.62468 89.6945 8.8396C90.0617 9.04557 90.4736 9.14855 90.9303 9.14855ZM103.446 3.07704V10.1963H102.224V9.12169C101.964 9.48884 101.619 9.7754 101.19 9.98137C100.769 10.1784 100.308 10.2769 99.8061 10.2769C98.8569 10.2769 98.1091 10.0172 97.5629 9.4978C97.0166 8.96945 96.7435 8.19484 96.7435 7.17397V3.07704H98.033V7.02621C98.033 7.71575 98.1987 8.23962 98.53 8.59782C98.8613 8.94706 99.336 9.12169 99.9538 9.12169C100.634 9.12169 101.172 8.91572 101.566 8.50379C101.96 8.09186 102.157 7.50978 102.157 6.75756V3.07704H103.446ZM107.54 4.27254C107.764 3.86061 108.095 3.54718 108.534 3.33226C108.973 3.11734 109.506 3.00988 110.132 3.00988V4.25911C110.061 4.25015 109.962 4.24567 109.837 4.24567C109.138 4.24567 108.588 4.45612 108.185 4.877C107.791 5.28894 107.594 5.87997 107.594 6.6501V10.1963H106.304V3.07704H107.54V4.27254ZM1.20036 23.077H2.48988V30.1963H1.20036V23.077ZM1.84512 21.7069C1.59438 21.7069 1.38394 21.6263 1.21379 21.4651C1.0526 21.3039 0.972005 21.1069 0.972005 20.8741C0.972005 20.6413 1.0526 20.4443 1.21379 20.2831C1.38394 20.1129 1.59438 20.0279 1.84512 20.0279C2.09586 20.0279 2.30183 20.1085 2.46302 20.2696C2.63316 20.4219 2.71823 20.6144 2.71823 20.8472C2.71823 21.089 2.63316 21.295 2.46302 21.4651C2.30183 21.6263 2.09586 21.7069 1.84512 21.7069ZM9.15641 23.0099C10.0609 23.0099 10.7773 23.2741 11.3056 23.8024C11.8429 24.3218 12.1116 25.0874 12.1116 26.0994V30.1963H10.822V26.2471C10.822 25.5576 10.6564 25.0382 10.325 24.6889C9.9937 24.3397 9.51909 24.1651 8.90119 24.1651C8.2027 24.1651 7.65196 24.371 7.24899 24.783C6.84601 25.186 6.64452 25.768 6.64452 26.5292V30.1963H5.355V23.077H6.59079V24.1516C6.85049 23.7845 7.19974 23.5024 7.63853 23.3054C8.08628 23.1084 8.59224 23.0099 9.15641 23.0099ZM21.0697 23.077L17.9534 30.1963H16.637L13.5206 23.077H14.8639L17.3086 28.7859L19.807 23.077H21.0697ZM28.9136 26.677C28.9136 26.7755 28.9046 26.9053 28.8867 27.0665H23.1107C23.1913 27.6934 23.4644 28.1993 23.9301 28.5844C24.4047 28.9605 24.9913 29.1486 25.6898 29.1486C26.5405 29.1486 27.2256 28.862 27.7449 28.2889L28.4569 29.1217C28.1345 29.4978 27.7315 29.7844 27.2479 29.9814C26.7733 30.1784 26.2405 30.2769 25.6495 30.2769C24.8972 30.2769 24.2301 30.1246 23.648 29.8202C23.0659 29.5068 22.6137 29.0724 22.2913 28.5172C21.9779 27.962 21.8212 27.3352 21.8212 26.6367C21.8212 25.9471 21.9734 25.3248 22.2779 24.7695C22.5913 24.2143 23.0167 23.7845 23.554 23.48C24.1002 23.1666 24.7137 23.0099 25.3942 23.0099C26.0748 23.0099 26.6793 23.1666 27.2076 23.48C27.7449 23.7845 28.1614 24.2143 28.4569 24.7695C28.7613 25.3248 28.9136 25.9606 28.9136 26.677ZM25.3942 24.0979C24.7764 24.0979 24.257 24.286 23.8361 24.6621C23.4241 25.0382 23.1824 25.5307 23.1107 26.1397H27.6778C27.6061 25.5397 27.3599 25.0516 26.939 24.6755C26.5271 24.2904 26.0121 24.0979 25.3942 24.0979ZM33.1489 30.2769C32.5668 30.2769 32.0071 30.2008 31.4698 30.0485C30.9325 29.8873 30.5117 29.6859 30.2072 29.4441L30.7445 28.4232C31.0579 28.6471 31.4385 28.8262 31.8863 28.9605C32.334 29.0948 32.7862 29.162 33.2429 29.162C34.3713 29.162 34.9354 28.8396 34.9354 28.1948C34.9354 27.9799 34.8593 27.8098 34.7071 27.6844C34.5549 27.559 34.3623 27.4695 34.1295 27.4158C33.9056 27.3531 33.5832 27.2859 33.1623 27.2143C32.5892 27.1247 32.1191 27.0217 31.7519 26.9053C31.3937 26.7889 31.0848 26.5919 30.8251 26.3143C30.5654 26.0367 30.4355 25.6471 30.4355 25.1457C30.4355 24.5009 30.7042 23.986 31.2415 23.6009C31.7788 23.2069 32.4997 23.0099 33.4041 23.0099C33.8787 23.0099 34.3534 23.0681 34.828 23.1845C35.3026 23.3009 35.6921 23.4576 35.9966 23.6546L35.4459 24.6755C34.8638 24.2994 34.1787 24.1113 33.3907 24.1113C32.8444 24.1113 32.428 24.2009 32.1415 24.38C31.8549 24.5591 31.7116 24.7964 31.7116 25.0919C31.7116 25.3248 31.7922 25.5083 31.9534 25.6427C32.1146 25.777 32.3116 25.8755 32.5445 25.9382C32.7862 26.0009 33.122 26.0725 33.5519 26.1531C34.125 26.2516 34.5862 26.3591 34.9354 26.4755C35.2936 26.5829 35.5981 26.771 35.8489 27.0396C36.0996 27.3083 36.225 27.6844 36.225 28.168C36.225 28.8127 35.9474 29.3277 35.3921 29.7127C34.8459 30.0888 34.0981 30.2769 33.1489 30.2769ZM42.2424 29.7799C42.0544 29.9411 41.8215 30.0664 41.5439 30.156C41.2663 30.2366 40.9798 30.2769 40.6843 30.2769C39.9679 30.2769 39.4126 30.0844 39.0186 29.6993C38.6246 29.3142 38.4276 28.7635 38.4276 28.0471V24.1382H37.2187V23.077H38.4276V21.5189H39.7171V23.077H41.7589V24.1382H39.7171V27.9934C39.7171 28.3784 39.8111 28.6739 39.9992 28.8799C40.1962 29.0859 40.4738 29.1888 40.832 29.1888C41.226 29.1888 41.5618 29.0769 41.8395 28.853L42.2424 29.7799ZM53.1102 23.0099C54.0057 23.0099 54.7131 23.2696 55.2325 23.789C55.7609 24.3084 56.0251 25.0785 56.0251 26.0994V30.1963H54.7355V26.2471C54.7355 25.5576 54.5743 25.0382 54.252 24.6889C53.9385 24.3397 53.4863 24.1651 52.8953 24.1651C52.2416 24.1651 51.7222 24.371 51.3371 24.783C50.952 25.186 50.7595 25.768 50.7595 26.5292V30.1963H49.47V26.2471C49.47 25.5576 49.3088 25.0382 48.9864 24.6889C48.673 24.3397 48.2207 24.1651 47.6297 24.1651C46.976 24.1651 46.4566 24.371 46.0715 24.783C45.6865 25.186 45.4939 25.768 45.4939 26.5292V30.1963H44.2044V23.077H45.4402V24.1382C45.6999 23.7711 46.0402 23.4935 46.4611 23.3054C46.882 23.1084 47.3611 23.0099 47.8984 23.0099C48.4536 23.0099 48.9461 23.1218 49.3759 23.3457C49.8058 23.5696 50.1371 23.8964 50.37 24.3263C50.6386 23.9143 51.0102 23.592 51.4849 23.3591C51.9684 23.1263 52.5102 23.0099 53.1102 23.0099ZM65.2743 26.677C65.2743 26.7755 65.2653 26.9053 65.2474 27.0665H59.4714C59.552 27.6934 59.8252 28.1993 60.2908 28.5844C60.7654 28.9605 61.352 29.1486 62.0505 29.1486C62.9012 29.1486 63.5863 28.862 64.1057 28.2889L64.8176 29.1217C64.4952 29.4978 64.0922 29.7844 63.6087 29.9814C63.134 30.1784 62.6012 30.2769 62.0102 30.2769C61.258 30.2769 60.5908 30.1246 60.0087 29.8202C59.4267 29.5068 58.9744 29.0724 58.6521 28.5172C58.3386 27.962 58.1819 27.3352 58.1819 26.6367C58.1819 25.9471 58.3342 25.3248 58.6386 24.7695C58.9521 24.2143 59.3774 23.7845 59.9147 23.48C60.461 23.1666 61.0744 23.0099 61.755 23.0099C62.4356 23.0099 63.04 23.1666 63.5684 23.48C64.1057 23.7845 64.5221 24.2143 64.8176 24.7695C65.1221 25.3248 65.2743 25.9606 65.2743 26.677ZM61.755 24.0979C61.1371 24.0979 60.6177 24.286 60.1968 24.6621C59.7849 25.0382 59.5431 25.5307 59.4714 26.1397H64.0385C63.9669 25.5397 63.7206 25.0516 63.2997 24.6755C62.8878 24.2904 62.3729 24.0979 61.755 24.0979ZM71.2693 23.0099C72.1738 23.0099 72.8902 23.2741 73.4185 23.8024C73.9558 24.3218 74.2245 25.0874 74.2245 26.0994V30.1963H72.9349V26.2471C72.9349 25.5576 72.7693 25.0382 72.4379 24.6889C72.1066 24.3397 71.632 24.1651 71.0141 24.1651C70.3156 24.1651 69.7649 24.371 69.3619 24.783C68.9589 25.186 68.7574 25.768 68.7574 26.5292V30.1963H67.4679V23.077H68.7037V24.1516C68.9634 23.7845 69.3126 23.5024 69.7514 23.3054C70.1992 23.1084 70.7051 23.0099 71.2693 23.0099ZM81.0168 29.7799C80.8288 29.9411 80.5959 30.0664 80.3183 30.156C80.0407 30.2366 79.7541 30.2769 79.4586 30.2769C78.7422 30.2769 78.187 30.0844 77.793 29.6993C77.399 29.3142 77.202 28.7635 77.202 28.0471V24.1382H75.993V23.077H77.202V21.5189H78.4915V23.077H80.5332V24.1382H78.4915V27.9934C78.4915 28.3784 78.5855 28.6739 78.7736 28.8799C78.9706 29.0859 79.2482 29.1888 79.6064 29.1888C80.0004 29.1888 80.3362 29.0769 80.6138 28.853L81.0168 29.7799ZM90.7637 23.0099C91.4532 23.0099 92.0711 23.1621 92.6174 23.4666C93.1636 23.7711 93.589 24.1964 93.8935 24.7427C94.2069 25.2889 94.3636 25.9203 94.3636 26.6367C94.3636 27.3531 94.2069 27.9889 93.8935 28.5441C93.589 29.0903 93.1636 29.5157 92.6174 29.8202C92.0711 30.1246 91.4532 30.2769 90.7637 30.2769C90.2533 30.2769 89.7831 30.1784 89.3533 29.9814C88.9324 29.7844 88.5742 29.4978 88.2787 29.1217V32.8022H86.9891V23.077H88.2249V24.2054C88.5115 23.8114 88.8742 23.5158 89.313 23.3188C89.7518 23.1129 90.2353 23.0099 90.7637 23.0099ZM90.6562 29.1486C91.1129 29.1486 91.5204 29.0456 91.8786 28.8396C92.2457 28.6247 92.5323 28.3292 92.7383 27.9531C92.9532 27.568 93.0607 27.1292 93.0607 26.6367C93.0607 26.1441 92.9532 25.7098 92.7383 25.3337C92.5323 24.9486 92.2457 24.6531 91.8786 24.4472C91.5204 24.2412 91.1129 24.1382 90.6562 24.1382C90.2085 24.1382 89.801 24.2457 89.4339 24.4606C89.0757 24.6666 88.7891 24.9576 88.5742 25.3337C88.3682 25.7098 88.2652 26.1441 88.2652 26.6367C88.2652 27.1292 88.3682 27.568 88.5742 27.9531C88.7802 28.3292 89.0667 28.6247 89.4339 28.8396C89.801 29.0456 90.2085 29.1486 90.6562 29.1486ZM96.5483 20.2293H97.8378V30.1963H96.5483V20.2293ZM103.295 23.0099C104.28 23.0099 105.033 23.2517 105.552 23.7352C106.08 24.2188 106.345 24.9397 106.345 25.8979V30.1963H105.122V29.256C104.907 29.5873 104.598 29.8426 104.195 30.0217C103.801 30.1918 103.331 30.2769 102.785 30.2769C101.988 30.2769 101.348 30.0844 100.864 29.6993C100.39 29.3142 100.152 28.8083 100.152 28.1814C100.152 27.5546 100.381 27.0531 100.837 26.677C101.294 26.2919 102.019 26.0994 103.013 26.0994H105.055V25.8441C105.055 25.2889 104.894 24.8636 104.571 24.5681C104.249 24.2725 103.775 24.1248 103.148 24.1248C102.727 24.1248 102.315 24.1964 101.912 24.3397C101.509 24.474 101.169 24.6576 100.891 24.8904L100.354 23.9233C100.721 23.6278 101.16 23.4039 101.67 23.2517C102.181 23.0905 102.722 23.0099 103.295 23.0099ZM103 29.2829C103.492 29.2829 103.918 29.1754 104.276 28.9605C104.634 28.7366 104.894 28.4232 105.055 28.0202V27.0262H103.067C101.975 27.0262 101.428 27.3934 101.428 28.1277C101.428 28.4859 101.567 28.768 101.845 28.9739C102.122 29.1799 102.507 29.2829 103 29.2829ZM112.935 23.0099C113.84 23.0099 114.556 23.2741 115.085 23.8024C115.622 24.3218 115.891 25.0874 115.891 26.0994V30.1963H114.601V26.2471C114.601 25.5576 114.435 25.0382 114.104 24.6889C113.773 24.3397 113.298 24.1651 112.68 24.1651C111.982 24.1651 111.431 24.371 111.028 24.783C110.625 25.186 110.423 25.768 110.423 26.5292V30.1963H109.134V23.077H110.37V24.1516C110.629 23.7845 110.979 23.5024 111.417 23.3054C111.865 23.1084 112.371 23.0099 112.935 23.0099ZM120.722 30.2769C120.14 30.2769 119.58 30.2008 119.043 30.0485C118.505 29.8873 118.084 29.6859 117.78 29.4441L118.317 28.4232C118.631 28.6471 119.011 28.8262 119.459 28.9605C119.907 29.0948 120.359 29.162 120.816 29.162C121.944 29.162 122.508 28.8396 122.508 28.1948C122.508 27.9799 122.432 27.8098 122.28 27.6844C122.128 27.559 121.935 27.4695 121.702 27.4158C121.478 27.3531 121.156 27.2859 120.735 27.2143C120.162 27.1247 119.692 27.0217 119.325 26.9053C118.967 26.7889 118.658 26.5919 118.398 26.3143C118.138 26.0367 118.008 25.6471 118.008 25.1457C118.008 24.5009 118.277 23.986 118.814 23.6009C119.352 23.2069 120.072 23.0099 120.977 23.0099C121.452 23.0099 121.926 23.0681 122.401 23.1845C122.875 23.3009 123.265 23.4576 123.569 23.6546L123.019 24.6755C122.437 24.2994 121.752 24.1113 120.964 24.1113C120.417 24.1113 120.001 24.2009 119.714 24.38C119.428 24.5591 119.284 24.7964 119.284 25.0919C119.284 25.3248 119.365 25.5083 119.526 25.6427C119.687 25.777 119.884 25.8755 120.117 25.9382C120.359 26.0009 120.695 26.0725 121.125 26.1531C121.698 26.2516 122.159 26.3591 122.508 26.4755C122.866 26.5829 123.171 26.771 123.422 27.0396C123.672 27.3083 123.798 27.6844 123.798 28.168C123.798 28.8127 123.52 29.3277 122.965 29.7127C122.419 30.0888 121.671 30.2769 120.722 30.2769ZM39.9979 50.2769C39.2725 50.2769 38.6233 50.1202 38.0502 49.8067C37.486 49.4933 37.0427 49.0635 36.7203 48.5172C36.398 47.962 36.2368 47.3352 36.2368 46.6367C36.2368 45.9382 36.398 45.3158 36.7203 44.7695C37.0427 44.2143 37.486 43.7845 38.0502 43.48C38.6233 43.1666 39.2725 43.0099 39.9979 43.0099C40.6426 43.0099 41.2158 43.1397 41.7172 43.3994C42.2277 43.6591 42.6217 44.0352 42.8993 44.5278L41.9187 45.1591C41.6949 44.8188 41.4173 44.5636 41.0859 44.3934C40.7546 44.2233 40.3874 44.1382 39.9844 44.1382C39.5188 44.1382 39.0979 44.2412 38.7218 44.4472C38.3546 44.6531 38.0636 44.9486 37.8487 45.3337C37.6427 45.7098 37.5397 46.1441 37.5397 46.6367C37.5397 47.1381 37.6427 47.5814 37.8487 47.9665C38.0636 48.3426 38.3546 48.6336 38.7218 48.8396C39.0979 49.0456 39.5188 49.1486 39.9844 49.1486C40.3874 49.1486 40.7546 49.0635 41.0859 48.8933C41.4173 48.7232 41.6949 48.468 41.9187 48.1277L42.8993 48.7456C42.6217 49.2381 42.2277 49.6187 41.7172 49.8873C41.2158 50.147 40.6426 50.2769 39.9979 50.2769ZM47.5643 43.0099C48.5493 43.0099 49.3016 43.2517 49.821 43.7352C50.3493 44.2188 50.6135 44.9397 50.6135 45.8979V50.1963H49.3911V49.256C49.1762 49.5873 48.8672 49.8426 48.4643 50.0217C48.0702 50.1918 47.6001 50.2769 47.0538 50.2769C46.2569 50.2769 45.6166 50.0844 45.133 49.6993C44.6584 49.3142 44.4211 48.8083 44.4211 48.1814C44.4211 47.5546 44.6494 47.0531 45.1061 46.677C45.5628 46.2919 46.2882 46.0994 47.2822 46.0994H49.3239V45.8441C49.3239 45.2889 49.1628 44.8636 48.8404 44.5681C48.518 44.2725 48.0434 44.1248 47.4165 44.1248C46.9956 44.1248 46.5837 44.1964 46.1807 44.3397C45.7778 44.474 45.4375 44.6576 45.1599 44.8904L44.6226 43.9233C44.9897 43.6278 45.4285 43.4039 45.9389 43.2517C46.4494 43.0905 46.9912 43.0099 47.5643 43.0099ZM47.2688 49.2829C47.7613 49.2829 48.1867 49.1754 48.5449 48.9605C48.9031 48.7366 49.1628 48.4232 49.3239 48.0202V47.0262H47.3359C46.2434 47.0262 45.6972 47.3934 45.6972 48.1277C45.6972 48.4859 45.836 48.768 46.1136 48.9739C46.3912 49.1799 46.7762 49.2829 47.2688 49.2829ZM57.4057 49.7799C57.2177 49.9411 56.9848 50.0664 56.7072 50.156C56.4296 50.2366 56.1431 50.2769 55.8475 50.2769C55.1311 50.2769 54.5759 50.0844 54.1819 49.6993C53.7879 49.3142 53.5909 48.7635 53.5909 48.0471V44.1382H52.3819V43.077H53.5909V41.5189H54.8804V43.077H56.9221V44.1382H54.8804V47.9934C54.8804 48.3784 54.9744 48.6739 55.1625 48.8799C55.3595 49.0859 55.6371 49.1888 55.9953 49.1888C56.3893 49.1888 56.7251 49.0769 57.0027 48.853L57.4057 49.7799ZM65.5658 46.677C65.5658 46.7755 65.5568 46.9053 65.5389 47.0665H59.7629C59.8435 47.6934 60.1166 48.1993 60.5823 48.5844C61.0569 48.9605 61.6435 49.1486 62.342 49.1486C63.1927 49.1486 63.8777 48.862 64.3971 48.2889L65.1091 49.1217C64.7867 49.4978 64.3837 49.7844 63.9001 49.9814C63.4255 50.1784 62.8927 50.2769 62.3017 50.2769C61.5494 50.2769 60.8823 50.1246 60.3002 49.8202C59.7181 49.5068 59.2659 49.0724 58.9435 48.5172C58.6301 47.962 58.4734 47.3352 58.4734 46.6367C58.4734 45.9471 58.6256 45.3248 58.9301 44.7695C59.2435 44.2143 59.6689 43.7845 60.2062 43.48C60.7524 43.1666 61.3659 43.0099 62.0464 43.0099C62.727 43.0099 63.3315 43.1666 63.8598 43.48C64.3971 43.7845 64.8135 44.2143 65.1091 44.7695C65.4135 45.3248 65.5658 45.9606 65.5658 46.677ZM62.0464 44.0979C61.4286 44.0979 60.9092 44.286 60.4883 44.6621C60.0763 45.0382 59.8346 45.5307 59.7629 46.1397H64.33C64.2583 45.5397 64.0121 45.0516 63.5912 44.6755C63.1793 44.2904 62.6643 44.0979 62.0464 44.0979ZM67.7594 40.2293H69.0489V50.1963H67.7594V40.2293ZM74.9632 50.2769C74.2558 50.2769 73.6199 50.1202 73.0558 49.8067C72.4916 49.4933 72.0483 49.0635 71.726 48.5172C71.4125 47.962 71.2558 47.3352 71.2558 46.6367C71.2558 45.9382 71.4125 45.3158 71.726 44.7695C72.0483 44.2143 72.4916 43.7845 73.0558 43.48C73.6199 43.1666 74.2558 43.0099 74.9632 43.0099C75.6706 43.0099 76.302 43.1666 76.8572 43.48C77.4214 43.7845 77.8601 44.2143 78.1736 44.7695C78.496 45.3158 78.6571 45.9382 78.6571 46.6367C78.6571 47.3352 78.496 47.962 78.1736 48.5172C77.8601 49.0635 77.4214 49.4933 76.8572 49.8067C76.302 50.1202 75.6706 50.2769 74.9632 50.2769ZM74.9632 49.1486C75.4199 49.1486 75.8274 49.0456 76.1856 48.8396C76.5527 48.6247 76.8393 48.3292 77.0452 47.9531C77.2512 47.568 77.3542 47.1292 77.3542 46.6367C77.3542 46.1441 77.2512 45.7098 77.0452 45.3337C76.8393 44.9486 76.5527 44.6531 76.1856 44.4472C75.8274 44.2412 75.4199 44.1382 74.9632 44.1382C74.5065 44.1382 74.0946 44.2412 73.7274 44.4472C73.3692 44.6531 73.0826 44.9486 72.8677 45.3337C72.6618 45.7098 72.5588 46.1441 72.5588 46.6367C72.5588 47.1292 72.6618 47.568 72.8677 47.9531C73.0826 48.3292 73.3692 48.6247 73.7274 48.8396C74.0946 49.0456 74.5065 49.1486 74.9632 49.1486ZM87.6538 43.077V49.2291C87.6538 50.4739 87.3448 51.3918 86.727 51.9828C86.1091 52.5828 85.1867 52.8828 83.9598 52.8828C83.2882 52.8828 82.6479 52.7888 82.039 52.6007C81.4301 52.4216 80.9375 52.1619 80.5614 51.8216L81.1793 50.8276C81.5106 51.1142 81.9181 51.3381 82.4017 51.4992C82.8942 51.6694 83.4002 51.7545 83.9196 51.7545C84.7524 51.7545 85.3658 51.5575 85.7598 51.1634C86.1628 50.7694 86.3643 50.1694 86.3643 49.3635V48.7993C86.0598 49.1665 85.6837 49.4441 85.2359 49.6321C84.7971 49.8112 84.3181 49.9008 83.7987 49.9008C83.1181 49.9008 82.5002 49.7575 81.945 49.4709C81.3987 49.1754 80.9689 48.768 80.6554 48.2486C80.342 47.7202 80.1853 47.1202 80.1853 46.4486C80.1853 45.777 80.342 45.1815 80.6554 44.6621C80.9689 44.1337 81.3987 43.7263 81.945 43.4397C82.5002 43.1532 83.1181 43.0099 83.7987 43.0099C84.336 43.0099 84.833 43.1084 85.2897 43.3054C85.7553 43.5024 86.1359 43.7934 86.4314 44.1785V43.077H87.6538ZM83.9464 48.7724C84.4121 48.7724 84.8285 48.6739 85.1956 48.4769C85.5718 48.2799 85.8628 48.0068 86.0688 47.6575C86.2837 47.2993 86.3911 46.8964 86.3911 46.4486C86.3911 45.7591 86.1628 45.2039 85.7061 44.783C85.2494 44.3531 84.6628 44.1382 83.9464 44.1382C83.2211 44.1382 82.63 44.3531 82.1733 44.783C81.7166 45.2039 81.4883 45.7591 81.4883 46.4486C81.4883 46.8964 81.5912 47.2993 81.7972 47.6575C82.0121 48.0068 82.3032 48.2799 82.6703 48.4769C83.0464 48.6739 83.4718 48.7724 83.9464 48.7724Z" fill="black"/>
</svg>
