<svg width="105" height="26" viewBox="0 0 105 26" fill="none" xmlns="http://www.w3.org/2000/svg">
<path d="M14.875 16.7376V20.2476H0.241V1.34756H14.524V4.85756H4.588V8.96156H13.363V12.3636H4.588V16.7376H14.875ZM27.2427 20.2476L24.0567 15.7926L20.7627 20.2476H16.1727L21.7617 12.9306L16.3617 5.72156H21.0867L24.1647 9.96056L27.3237 5.72156H31.8057L26.4057 12.8226L32.0217 20.2476H27.2427ZM42.7873 5.50556C44.1373 5.50556 45.3613 5.82056 46.4593 6.45056C47.5753 7.06256 48.4483 7.93556 49.0783 9.06956C49.7083 10.1856 50.0233 11.4906 50.0233 12.9846C50.0233 14.4786 49.7083 15.7926 49.0783 16.9266C48.4483 18.0426 47.5753 18.9156 46.4593 19.5456C45.3613 20.1576 44.1373 20.4636 42.7873 20.4636C40.9333 20.4636 39.4753 19.8786 38.4133 18.7086V25.4856H34.2013V5.72156H38.2243V7.39556C39.2683 6.13556 40.7893 5.50556 42.7873 5.50556ZM42.0583 17.0076C43.1383 17.0076 44.0203 16.6476 44.7043 15.9276C45.4063 15.1896 45.7573 14.2086 45.7573 12.9846C45.7573 11.7606 45.4063 10.7886 44.7043 10.0686C44.0203 9.33056 43.1383 8.96156 42.0583 8.96156C40.9783 8.96156 40.0873 9.33056 39.3853 10.0686C38.7013 10.7886 38.3593 11.7606 38.3593 12.9846C38.3593 14.2086 38.7013 15.1896 39.3853 15.9276C40.0873 16.6476 40.9783 17.0076 42.0583 17.0076ZM52.9779 0.213557H57.1899V20.2476H52.9779V0.213557ZM68.146 20.4636C66.616 20.4636 65.239 20.1486 64.015 19.5186C62.809 18.8706 61.864 17.9796 61.18 16.8456C60.496 15.7116 60.154 14.4246 60.154 12.9846C60.154 11.5446 60.496 10.2576 61.18 9.12356C61.864 7.98956 62.809 7.10756 64.015 6.47756C65.239 5.82956 66.616 5.50556 68.146 5.50556C69.676 5.50556 71.044 5.82956 72.25 6.47756C73.456 7.10756 74.401 7.98956 75.085 9.12356C75.769 10.2576 76.111 11.5446 76.111 12.9846C76.111 14.4246 75.769 15.7116 75.085 16.8456C74.401 17.9796 73.456 18.8706 72.25 19.5186C71.044 20.1486 69.676 20.4636 68.146 20.4636ZM68.146 17.0076C69.226 17.0076 70.108 16.6476 70.792 15.9276C71.494 15.1896 71.845 14.2086 71.845 12.9846C71.845 11.7606 71.494 10.7886 70.792 10.0686C70.108 9.33056 69.226 8.96156 68.146 8.96156C67.066 8.96156 66.175 9.33056 65.473 10.0686C64.771 10.7886 64.42 11.7606 64.42 12.9846C64.42 14.2086 64.771 15.1896 65.473 15.9276C66.175 16.6476 67.066 17.0076 68.146 17.0076ZM83.0844 7.63856C83.5884 6.93656 84.2634 6.40556 85.1094 6.04556C85.9734 5.68556 86.9634 5.50556 88.0794 5.50556V9.39356C87.6114 9.35756 87.2964 9.33956 87.1344 9.33956C85.9284 9.33956 84.9834 9.68156 84.2994 10.3656C83.6154 11.0316 83.2734 12.0396 83.2734 13.3896V20.2476H79.0614V5.72156H83.0844V7.63856ZM104.816 13.0386C104.816 13.0926 104.789 13.4706 104.735 14.1726H93.746C93.944 15.0726 94.412 15.7836 95.15 16.3056C95.888 16.8276 96.806 17.0886 97.904 17.0886C98.66 17.0886 99.326 16.9806 99.902 16.7646C100.496 16.5306 101.045 16.1706 101.549 15.6846L103.79 18.1146C102.422 19.6806 100.424 20.4636 97.796 20.4636C96.158 20.4636 94.709 20.1486 93.449 19.5186C92.189 18.8706 91.217 17.9796 90.533 16.8456C89.849 15.7116 89.507 14.4246 89.507 12.9846C89.507 11.5626 89.84 10.2846 90.506 9.15056C91.19 7.99856 92.117 7.10756 93.287 6.47756C94.475 5.82956 95.798 5.50556 97.256 5.50556C98.678 5.50556 99.965 5.81156 101.117 6.42356C102.269 7.03556 103.169 7.91756 103.817 9.06956C104.483 10.2036 104.816 11.5266 104.816 13.0386ZM97.283 8.69156C96.329 8.69156 95.528 8.96156 94.88 9.50156C94.232 10.0416 93.836 10.7796 93.692 11.7156H100.847C100.703 10.7976 100.307 10.0686 99.659 9.52856C99.011 8.97056 98.219 8.69156 97.283 8.69156Z" fill="#1F1F1F"/>
</svg>
