<svg width="71" height="18" viewBox="0 0 71 18" fill="none" xmlns="http://www.w3.org/2000/svg">
<path d="M9.99187 11.2622V13.615H0.182369V0.945892H9.75659V3.29872H3.09626V6.04973H8.97834V8.33017H3.09626V11.2622H9.99187ZM18.2822 13.615L16.1466 10.6287L13.9385 13.615H10.8617L14.6082 8.71024L10.9884 3.87788H14.1557L16.219 6.71938L18.3365 3.87788H21.3409L17.7212 8.63784L21.4857 13.615H18.2822ZM28.7021 3.73309C29.6071 3.73309 30.4275 3.94425 31.1635 4.36655C31.9116 4.77679 32.4968 5.36198 32.9191 6.12212C33.3414 6.8702 33.5526 7.74497 33.5526 8.74644C33.5526 9.7479 33.3414 10.6287 32.9191 11.3888C32.4968 12.1369 31.9116 12.7221 31.1635 13.1444C30.4275 13.5547 29.6071 13.7598 28.7021 13.7598C27.4593 13.7598 26.482 13.3676 25.7701 12.5834V17.1261H22.9467V3.87788H25.6434V5C26.3433 4.1554 27.3628 3.73309 28.7021 3.73309ZM28.2135 11.4431C28.9374 11.4431 29.5286 11.2018 29.9871 10.7192C30.4577 10.2245 30.693 9.56691 30.693 8.74644C30.693 7.92596 30.4577 7.27441 29.9871 6.79178C29.5286 6.29708 28.9374 6.04973 28.2135 6.04973C27.4895 6.04973 26.8922 6.29708 26.4217 6.79178C25.9632 7.27441 25.7339 7.92596 25.7339 8.74644C25.7339 9.56691 25.9632 10.2245 26.4217 10.7192C26.8922 11.2018 27.4895 11.4431 28.2135 11.4431ZM35.5331 0.185746H38.3565V13.615H35.5331V0.185746ZM45.7006 13.7598C44.675 13.7598 43.752 13.5486 42.9315 13.1263C42.1231 12.692 41.4897 12.0947 41.0312 11.3346C40.5727 10.5744 40.3434 9.7117 40.3434 8.74644C40.3434 7.78117 40.5727 6.91847 41.0312 6.15832C41.4897 5.39817 42.1231 4.80695 42.9315 4.38465C43.752 3.95028 44.675 3.73309 45.7006 3.73309C46.7262 3.73309 47.6432 3.95028 48.4516 4.38465C49.26 4.80695 49.8935 5.39817 50.352 6.15832C50.8105 6.91847 51.0397 7.78117 51.0397 8.74644C51.0397 9.7117 50.8105 10.5744 50.352 11.3346C49.8935 12.0947 49.26 12.692 48.4516 13.1263C47.6432 13.5486 46.7262 13.7598 45.7006 13.7598ZM45.7006 11.4431C46.4246 11.4431 47.0158 11.2018 47.4743 10.7192C47.9449 10.2245 48.1801 9.56691 48.1801 8.74644C48.1801 7.92596 47.9449 7.27441 47.4743 6.79178C47.0158 6.29708 46.4246 6.04973 45.7006 6.04973C44.9767 6.04973 44.3794 6.29708 43.9089 6.79178C43.4383 7.27441 43.203 7.92596 43.203 8.74644C43.203 9.56691 43.4383 10.2245 43.9089 10.7192C44.3794 11.2018 44.9767 11.4431 45.7006 11.4431ZM55.7142 5.16289C56.052 4.69233 56.5045 4.33638 57.0716 4.09507C57.6507 3.85375 58.3143 3.73309 59.0624 3.73309V6.33931C58.7487 6.31518 58.5376 6.30311 58.429 6.30311C57.6206 6.30311 56.9871 6.53236 56.5286 6.99086C56.0701 7.4373 55.8409 8.11298 55.8409 9.01792V13.615H53.0175V3.87788H55.7142V5.16289ZM70.2814 8.78263C70.2814 8.81883 70.2633 9.07221 70.2271 9.54278H62.8609C62.9936 10.1461 63.3073 10.6227 63.802 10.9726C64.2967 11.3225 64.9121 11.4974 65.6481 11.4974C66.1549 11.4974 66.6013 11.425 66.9874 11.2803C67.3856 11.1234 67.7536 10.8821 68.0914 10.5563L69.5936 12.1852C68.6766 13.2349 67.3373 13.7598 65.5757 13.7598C64.4777 13.7598 63.5064 13.5486 62.6618 13.1263C61.8172 12.692 61.1656 12.0947 60.7071 11.3346C60.2486 10.5744 60.0194 9.7117 60.0194 8.74644C60.0194 7.79324 60.2426 6.93657 60.689 6.17642C61.1475 5.40421 61.7689 4.80695 62.5532 4.38465C63.3496 3.95028 64.2364 3.73309 65.2137 3.73309C66.1669 3.73309 67.0296 3.93821 67.8018 4.34845C68.5741 4.75869 69.1773 5.34991 69.6117 6.12212C70.0581 6.88227 70.2814 7.76911 70.2814 8.78263ZM65.2318 5.86874C64.5923 5.86874 64.0554 6.04973 63.621 6.4117C63.1867 6.77368 62.9212 7.26838 62.8247 7.8958H67.6209C67.5243 7.28044 67.2589 6.79178 66.8245 6.4298C66.3901 6.05576 65.8592 5.86874 65.2318 5.86874Z" fill="#1F1F1F"/>
</svg>
