<svg width="105" height="27" viewBox="0 0 105 27" fill="none" xmlns="http://www.w3.org/2000/svg">
<path d="M14.875 17.49V21H0.241V2.1H14.524V5.61H4.588V9.714H13.363V13.116H4.588V17.49H14.875ZM27.2427 21L24.0567 16.545L20.7627 21H16.1727L21.7617 13.683L16.3617 6.474H21.0867L24.1647 10.713L27.3237 6.474H31.8057L26.4057 13.575L32.0217 21H27.2427ZM42.7873 6.258C44.1373 6.258 45.3613 6.573 46.4593 7.203C47.5753 7.815 48.4483 8.688 49.0783 9.822C49.7083 10.938 50.0233 12.243 50.0233 13.737C50.0233 15.231 49.7083 16.545 49.0783 17.679C48.4483 18.795 47.5753 19.668 46.4593 20.298C45.3613 20.91 44.1373 21.216 42.7873 21.216C40.9333 21.216 39.4753 20.631 38.4133 19.461V26.238H34.2013V6.474H38.2243V8.148C39.2683 6.888 40.7893 6.258 42.7873 6.258ZM42.0583 17.76C43.1383 17.76 44.0203 17.4 44.7043 16.68C45.4063 15.942 45.7573 14.961 45.7573 13.737C45.7573 12.513 45.4063 11.541 44.7043 10.821C44.0203 10.083 43.1383 9.714 42.0583 9.714C40.9783 9.714 40.0873 10.083 39.3853 10.821C38.7013 11.541 38.3593 12.513 38.3593 13.737C38.3593 14.961 38.7013 15.942 39.3853 16.68C40.0873 17.4 40.9783 17.76 42.0583 17.76ZM52.9779 0.965999H57.1899V21H52.9779V0.965999ZM68.146 21.216C66.616 21.216 65.239 20.901 64.015 20.271C62.809 19.623 61.864 18.732 61.18 17.598C60.496 16.464 60.154 15.177 60.154 13.737C60.154 12.297 60.496 11.01 61.18 9.876C61.864 8.742 62.809 7.86 64.015 7.23C65.239 6.582 66.616 6.258 68.146 6.258C69.676 6.258 71.044 6.582 72.25 7.23C73.456 7.86 74.401 8.742 75.085 9.876C75.769 11.01 76.111 12.297 76.111 13.737C76.111 15.177 75.769 16.464 75.085 17.598C74.401 18.732 73.456 19.623 72.25 20.271C71.044 20.901 69.676 21.216 68.146 21.216ZM68.146 17.76C69.226 17.76 70.108 17.4 70.792 16.68C71.494 15.942 71.845 14.961 71.845 13.737C71.845 12.513 71.494 11.541 70.792 10.821C70.108 10.083 69.226 9.714 68.146 9.714C67.066 9.714 66.175 10.083 65.473 10.821C64.771 11.541 64.42 12.513 64.42 13.737C64.42 14.961 64.771 15.942 65.473 16.68C66.175 17.4 67.066 17.76 68.146 17.76ZM83.0844 8.391C83.5884 7.689 84.2634 7.158 85.1094 6.798C85.9734 6.438 86.9634 6.258 88.0794 6.258V10.146C87.6114 10.11 87.2964 10.092 87.1344 10.092C85.9284 10.092 84.9834 10.434 84.2994 11.118C83.6154 11.784 83.2734 12.792 83.2734 14.142V21H79.0614V6.474H83.0844V8.391ZM104.816 13.791C104.816 13.845 104.789 14.223 104.735 14.925H93.746C93.944 15.825 94.412 16.536 95.15 17.058C95.888 17.58 96.806 17.841 97.904 17.841C98.66 17.841 99.326 17.733 99.902 17.517C100.496 17.283 101.045 16.923 101.549 16.437L103.79 18.867C102.422 20.433 100.424 21.216 97.796 21.216C96.158 21.216 94.709 20.901 93.449 20.271C92.189 19.623 91.217 18.732 90.533 17.598C89.849 16.464 89.507 15.177 89.507 13.737C89.507 12.315 89.84 11.037 90.506 9.903C91.19 8.751 92.117 7.86 93.287 7.23C94.475 6.582 95.798 6.258 97.256 6.258C98.678 6.258 99.965 6.564 101.117 7.176C102.269 7.788 103.169 8.67 103.817 9.822C104.483 10.956 104.816 12.279 104.816 13.791ZM97.283 9.444C96.329 9.444 95.528 9.714 94.88 10.254C94.232 10.794 93.836 11.532 93.692 12.468H100.847C100.703 11.55 100.307 10.821 99.659 10.281C99.011 9.723 98.219 9.444 97.283 9.444Z" fill="#1F1F1F"/>
</svg>
