<svg width="60" height="16" viewBox="0 0 60 16" fill="none" xmlns="http://www.w3.org/2000/svg">
<path d="M8.78655 10.1283V12.0928H0.59606V1.51465H8.5901V3.47916H3.02903V5.77612H7.9403V7.68018H3.02903V10.1283H8.78655ZM15.7086 12.0928L13.9254 9.59936L12.0818 12.0928H9.51285L12.641 7.99753L9.61863 3.96273H12.2632L13.9859 6.33525L15.7539 3.96273H18.2625L15.2401 7.93708L18.3834 12.0928H15.7086ZM24.4088 3.84184C25.1643 3.84184 25.8494 4.01814 26.4639 4.37074C27.0886 4.71327 27.5772 5.20188 27.9298 5.83657C28.2824 6.46118 28.4587 7.19158 28.4587 8.02775C28.4587 8.86393 28.2824 9.59936 27.9298 10.234C27.5772 10.8587 27.0886 11.3473 26.4639 11.6999C25.8494 12.0424 25.1643 12.2137 24.4088 12.2137C23.3711 12.2137 22.5551 11.8862 21.9607 11.2314V15.0244H19.6033V3.96273H21.8549V4.89965C22.4392 4.19444 23.2905 3.84184 24.4088 3.84184ZM24.0007 10.2794C24.6052 10.2794 25.0989 10.0779 25.4817 9.67492C25.8746 9.26187 26.071 8.71281 26.071 8.02775C26.071 7.34269 25.8746 6.79867 25.4817 6.3957C25.0989 5.98265 24.6052 5.77612 24.0007 5.77612C23.3963 5.77612 22.8976 5.98265 22.5047 6.3957C22.1219 6.79867 21.9305 7.34269 21.9305 8.02775C21.9305 8.71281 22.1219 9.26187 22.5047 9.67492C22.8976 10.0779 23.3963 10.2794 24.0007 10.2794ZM30.1123 0.879962H32.4697V12.0928H30.1123V0.879962ZM38.6017 12.2137C37.7454 12.2137 36.9747 12.0374 36.2897 11.6848C35.6147 11.3221 35.0858 10.8234 34.703 10.1887C34.3201 9.55402 34.1287 8.8337 34.1287 8.02775C34.1287 7.2218 34.3201 6.50148 34.703 5.86679C35.0858 5.2321 35.6147 4.73846 36.2897 4.38585C36.9747 4.02318 37.7454 3.84184 38.6017 3.84184C39.4581 3.84184 40.2237 4.02318 40.8987 4.38585C41.5737 4.73846 42.1026 5.2321 42.4854 5.86679C42.8683 6.50148 43.0597 7.2218 43.0597 8.02775C43.0597 8.8337 42.8683 9.55402 42.4854 10.1887C42.1026 10.8234 41.5737 11.3221 40.8987 11.6848C40.2237 12.0374 39.4581 12.2137 38.6017 12.2137ZM38.6017 10.2794C39.2062 10.2794 39.6999 10.0779 40.0827 9.67492C40.4756 9.26187 40.672 8.71281 40.672 8.02775C40.672 7.34269 40.4756 6.79867 40.0827 6.3957C39.6999 5.98265 39.2062 5.77612 38.6017 5.77612C37.9973 5.77612 37.4986 5.98265 37.1057 6.3957C36.7128 6.79867 36.5163 7.34269 36.5163 8.02775C36.5163 8.71281 36.7128 9.26187 37.1057 9.67492C37.4986 10.0779 37.9973 10.2794 38.6017 10.2794ZM46.9626 5.03565C47.2447 4.64275 47.6225 4.34556 48.096 4.14407C48.5795 3.94258 49.1336 3.84184 49.7582 3.84184V6.01791C49.4963 5.99776 49.32 5.98768 49.2293 5.98768C48.5543 5.98768 48.0254 6.1791 47.6426 6.56193C47.2598 6.93468 47.0684 7.49885 47.0684 8.25443V12.0928H44.711V3.96273H46.9626V5.03565ZM59.1255 8.05797C59.1255 8.0882 59.1104 8.29976 59.0802 8.69266H52.9298C53.0406 9.19638 53.3025 9.59432 53.7156 9.88648C54.1286 10.1786 54.6424 10.3247 55.257 10.3247C55.6801 10.3247 56.0529 10.2643 56.3752 10.1434C56.7077 10.0124 57.015 9.81092 57.297 9.53891L58.5513 10.899C57.7857 11.7754 56.6674 12.2137 55.1965 12.2137C54.2798 12.2137 53.4688 12.0374 52.7636 11.6848C52.0584 11.3221 51.5143 10.8234 51.1315 10.1887C50.7487 9.55402 50.5573 8.8337 50.5573 8.02775C50.5573 7.23187 50.7436 6.51659 51.1164 5.8819C51.4992 5.23714 52.0181 4.73846 52.6729 4.38585C53.3378 4.02318 54.0783 3.84184 54.8943 3.84184C55.6902 3.84184 56.4105 4.0131 57.0553 4.35563C57.7 4.69816 58.2037 5.19181 58.5664 5.83657C58.9392 6.47126 59.1255 7.21172 59.1255 8.05797ZM54.9094 5.62501C54.3755 5.62501 53.9272 5.77612 53.5645 6.07835C53.2018 6.38059 52.9802 6.79364 52.8996 7.31751H56.9041C56.8235 6.80371 56.6019 6.3957 56.2392 6.09347C55.8766 5.78116 55.4333 5.62501 54.9094 5.62501Z" fill="#1F1F1F"/>
</svg>
