<svg width="294" height="94" viewBox="0 0 294 94" fill="none" xmlns="http://www.w3.org/2000/svg">
<path d="M43.6411 10.504H45.9451V17.056C45.1131 17.744 44.1451 18.272 43.0411 18.64C41.9371 19.008 40.7851 19.192 39.5851 19.192C37.8891 19.192 36.3611 18.824 35.0011 18.088C33.6411 17.336 32.5691 16.312 31.7851 15.016C31.0171 13.704 30.6331 12.232 30.6331 10.6C30.6331 8.968 31.0171 7.496 31.7851 6.184C32.5691 4.872 33.6411 3.848 35.0011 3.112C36.3771 2.376 37.9211 2.008 39.6331 2.008C40.9771 2.008 42.1931 2.232 43.2811 2.68C44.3851 3.112 45.3211 3.752 46.0891 4.6L44.6011 6.088C43.2571 4.792 41.6331 4.144 39.7291 4.144C38.4491 4.144 37.2971 4.424 36.2731 4.984C35.2651 5.528 34.4731 6.296 33.8971 7.288C33.3211 8.264 33.0331 9.368 33.0331 10.6C33.0331 11.816 33.3211 12.92 33.8971 13.912C34.4731 14.888 35.2651 15.656 36.2731 16.216C37.2971 16.776 38.4411 17.056 39.7051 17.056C41.2091 17.056 42.5211 16.696 43.6411 15.976V10.504ZM61.8202 12.712C61.8202 12.888 61.8042 13.12 61.7722 13.408H51.4522C51.5962 14.528 52.0842 15.432 52.9162 16.12C53.7642 16.792 54.8122 17.128 56.0602 17.128C57.5802 17.128 58.8042 16.616 59.7322 15.592L61.0042 17.08C60.4282 17.752 59.7082 18.264 58.8442 18.616C57.9962 18.968 57.0442 19.144 55.9882 19.144C54.6442 19.144 53.4522 18.872 52.4122 18.328C51.3722 17.768 50.5642 16.992 49.9882 16C49.4282 15.008 49.1482 13.888 49.1482 12.64C49.1482 11.408 49.4202 10.296 49.9642 9.304C50.5242 8.312 51.2842 7.544 52.2442 7C53.2202 6.44 54.3162 6.16 55.5322 6.16C56.7482 6.16 57.8282 6.44 58.7722 7C59.7322 7.544 60.4762 8.312 61.0042 9.304C61.5482 10.296 61.8202 11.432 61.8202 12.712ZM55.5322 8.104C54.4282 8.104 53.5002 8.44 52.7482 9.112C52.0122 9.784 51.5802 10.664 51.4522 11.752H59.6122C59.4842 10.68 59.0442 9.808 58.2922 9.136C57.5562 8.448 56.6362 8.104 55.5322 8.104ZM72.2915 18.256C71.9555 18.544 71.5395 18.768 71.0435 18.928C70.5475 19.072 70.0355 19.144 69.5075 19.144C68.2275 19.144 67.2355 18.8 66.5315 18.112C65.8275 17.424 65.4755 16.44 65.4755 15.16V8.176H63.3155V6.28H65.4755V3.496H67.7795V6.28H71.4275V8.176H67.7795V15.064C67.7795 15.752 67.9475 16.28 68.2835 16.648C68.6355 17.016 69.1315 17.2 69.7715 17.2C70.4755 17.2 71.0755 17 71.5715 16.6L72.2915 18.256ZM86.3943 6.16C88.1543 6.16 89.4983 6.592 90.4263 7.456C91.3703 8.32 91.8423 9.608 91.8423 11.32V19H89.6583V17.32C89.2743 17.912 88.7223 18.368 88.0023 18.688C87.2983 18.992 86.4583 19.144 85.4823 19.144C84.0583 19.144 82.9143 18.8 82.0503 18.112C81.2023 17.424 80.7783 16.52 80.7783 15.4C80.7783 14.28 81.1863 13.384 82.0023 12.712C82.8183 12.024 84.1143 11.68 85.8903 11.68H89.5383V11.224C89.5383 10.232 89.2503 9.472 88.6743 8.944C88.0983 8.416 87.2503 8.152 86.1303 8.152C85.3783 8.152 84.6423 8.28 83.9223 8.536C83.2023 8.776 82.5943 9.104 82.0983 9.52L81.1383 7.792C81.7943 7.264 82.5783 6.864 83.4903 6.592C84.4023 6.304 85.3703 6.16 86.3943 6.16ZM85.8663 17.368C86.7463 17.368 87.5063 17.176 88.1463 16.792C88.7863 16.392 89.2503 15.832 89.5383 15.112V13.336H85.9863C84.0343 13.336 83.0583 13.992 83.0583 15.304C83.0583 15.944 83.3063 16.448 83.8023 16.816C84.2983 17.184 84.9863 17.368 85.8663 17.368ZM116.375 14.872H113.183V19H110.855V14.872H101.519V13.192L110.111 2.2H112.703L104.471 12.808H110.927V9.16H113.183V12.808H116.375V14.872ZM124.798 19.192C123.47 19.192 122.286 18.856 121.246 18.184C120.222 17.496 119.414 16.504 118.822 15.208C118.23 13.912 117.934 12.376 117.934 10.6C117.934 8.824 118.23 7.288 118.822 5.992C119.414 4.696 120.222 3.712 121.246 3.04C122.286 2.352 123.47 2.008 124.798 2.008C126.11 2.008 127.278 2.352 128.302 3.04C129.342 3.712 130.158 4.696 130.75 5.992C131.342 7.288 131.638 8.824 131.638 10.6C131.638 12.376 131.342 13.912 130.75 15.208C130.158 16.504 129.342 17.496 128.302 18.184C127.278 18.856 126.11 19.192 124.798 19.192ZM124.798 17.056C126.142 17.056 127.214 16.504 128.014 15.4C128.83 14.296 129.238 12.696 129.238 10.6C129.238 8.504 128.83 6.904 128.014 5.8C127.214 4.696 126.142 4.144 124.798 4.144C123.438 4.144 122.35 4.696 121.534 5.8C120.734 6.904 120.334 8.504 120.334 10.6C120.334 12.696 120.734 14.296 121.534 15.4C122.35 16.504 123.438 17.056 124.798 17.056ZM137.71 11.224C136.542 11.224 135.598 10.8 134.878 9.952C134.158 9.104 133.798 8 133.798 6.64C133.798 5.28 134.158 4.176 134.878 3.328C135.598 2.48 136.542 2.056 137.71 2.056C138.878 2.056 139.814 2.48 140.518 3.328C141.238 4.16 141.598 5.264 141.598 6.64C141.598 8.016 141.238 9.128 140.518 9.976C139.814 10.808 138.878 11.224 137.71 11.224ZM147.838 2.2H149.686L138.214 19H136.366L147.838 2.2ZM137.71 9.856C138.446 9.856 139.022 9.576 139.438 9.016C139.854 8.44 140.062 7.648 140.062 6.64C140.062 5.632 139.854 4.848 139.438 4.288C139.022 3.712 138.446 3.424 137.71 3.424C136.99 3.424 136.414 3.712 135.982 4.288C135.566 4.864 135.358 5.648 135.358 6.64C135.358 7.632 135.566 8.416 135.982 8.992C136.414 9.568 136.99 9.856 137.71 9.856ZM148.342 19.144C147.174 19.144 146.23 18.728 145.51 17.896C144.806 17.048 144.454 15.936 144.454 14.56C144.454 13.184 144.806 12.08 145.51 11.248C146.23 10.4 147.174 9.976 148.342 9.976C149.51 9.976 150.454 10.4 151.174 11.248C151.894 12.096 152.254 13.2 152.254 14.56C152.254 15.92 151.894 17.024 151.174 17.872C150.454 18.72 149.51 19.144 148.342 19.144ZM148.342 17.776C149.062 17.776 149.63 17.488 150.046 16.912C150.478 16.336 150.694 15.552 150.694 14.56C150.694 13.568 150.478 12.784 150.046 12.208C149.63 11.632 149.062 11.344 148.342 11.344C147.606 11.344 147.03 11.632 146.614 12.208C146.198 12.768 145.99 13.552 145.99 14.56C145.99 15.568 146.198 16.36 146.614 16.936C147.03 17.496 147.606 17.776 148.342 17.776ZM173.574 19L169.95 13.84C169.502 13.872 169.15 13.888 168.894 13.888H164.742V19H162.342V2.2H168.894C171.07 2.2 172.782 2.72 174.03 3.76C175.278 4.8 175.902 6.232 175.902 8.056C175.902 9.352 175.582 10.456 174.942 11.368C174.302 12.28 173.39 12.944 172.206 13.36L176.19 19H173.574ZM168.822 11.848C170.342 11.848 171.502 11.52 172.302 10.864C173.102 10.208 173.502 9.272 173.502 8.056C173.502 6.84 173.102 5.912 172.302 5.272C171.502 4.616 170.342 4.288 168.822 4.288H164.742V11.848H168.822ZM187.483 19.192C185.787 19.192 184.259 18.824 182.899 18.088C181.539 17.336 180.467 16.304 179.683 14.992C178.915 13.68 178.531 12.216 178.531 10.6C178.531 8.984 178.915 7.52 179.683 6.208C180.467 4.896 181.539 3.872 182.899 3.136C184.259 2.384 185.787 2.008 187.483 2.008C189.163 2.008 190.683 2.384 192.043 3.136C193.403 3.872 194.467 4.896 195.235 6.208C196.003 7.504 196.387 8.968 196.387 10.6C196.387 12.232 196.003 13.704 195.235 15.016C194.467 16.312 193.403 17.336 192.043 18.088C190.683 18.824 189.163 19.192 187.483 19.192ZM187.483 17.056C188.715 17.056 189.819 16.776 190.795 16.216C191.787 15.656 192.563 14.888 193.123 13.912C193.699 12.92 193.987 11.816 193.987 10.6C193.987 9.384 193.699 8.288 193.123 7.312C192.563 6.32 191.787 5.544 190.795 4.984C189.819 4.424 188.715 4.144 187.483 4.144C186.251 4.144 185.131 4.424 184.123 4.984C183.131 5.544 182.347 6.32 181.771 7.312C181.211 8.288 180.931 9.384 180.931 10.6C180.931 11.816 181.211 12.92 181.771 13.912C182.347 14.888 183.131 15.656 184.123 16.216C185.131 16.776 186.251 17.056 187.483 17.056ZM200.175 2.2H202.575V19H200.175V2.2ZM213.954 6.28H216.258V19H213.954V6.28ZM215.106 3.832C214.658 3.832 214.282 3.688 213.978 3.4C213.69 3.112 213.546 2.76 213.546 2.344C213.546 1.928 213.69 1.576 213.978 1.288C214.282 0.983999 214.658 0.831999 215.106 0.831999C215.554 0.831999 215.922 0.975999 216.21 1.264C216.514 1.536 216.666 1.88 216.666 2.296C216.666 2.728 216.514 3.096 216.21 3.4C215.922 3.688 215.554 3.832 215.106 3.832ZM227.57 6.16C229.186 6.16 230.466 6.632 231.41 7.576C232.37 8.504 232.85 9.872 232.85 11.68V19H230.546V11.944C230.546 10.712 230.25 9.784 229.658 9.16C229.066 8.536 228.218 8.224 227.114 8.224C225.866 8.224 224.882 8.592 224.162 9.328C223.442 10.048 223.082 11.088 223.082 12.448V19H220.778V6.28H222.986V8.2C223.45 7.544 224.074 7.04 224.858 6.688C225.658 6.336 226.562 6.16 227.57 6.16ZM247.975 2.2V19H245.599V4.288H241.807V2.2H247.975ZM263.578 16.912V19H251.506V17.368L258.346 10.768C259.178 9.968 259.738 9.28 260.026 8.704C260.314 8.112 260.458 7.52 260.458 6.928C260.458 6.048 260.146 5.368 259.522 4.888C258.914 4.392 258.034 4.144 256.882 4.144C255.026 4.144 253.594 4.752 252.586 5.968L250.954 4.552C251.61 3.752 252.466 3.128 253.522 2.68C254.594 2.232 255.786 2.008 257.098 2.008C258.858 2.008 260.258 2.432 261.298 3.28C262.338 4.112 262.858 5.248 262.858 6.688C262.858 7.584 262.666 8.432 262.282 9.232C261.898 10.032 261.17 10.944 260.098 11.968L254.962 16.912H263.578ZM16.7408 41.16C18.3408 41.16 19.6048 41.624 20.5328 42.552C21.4768 43.48 21.9488 44.856 21.9488 46.68V54H19.6448V46.944C19.6448 45.712 19.3568 44.784 18.7808 44.16C18.2208 43.536 17.4128 43.224 16.3568 43.224C15.1888 43.224 14.2608 43.592 13.5728 44.328C12.8848 45.048 12.5408 46.088 12.5408 47.448V54H10.2368V46.944C10.2368 45.712 9.94884 44.784 9.37284 44.16C8.81284 43.536 8.00484 43.224 6.94884 43.224C5.78084 43.224 4.85284 43.592 4.16484 44.328C3.47684 45.048 3.13284 46.088 3.13284 47.448V54H0.828837V41.28H3.03684V43.176C3.50084 42.52 4.10884 42.024 4.86084 41.688C5.61284 41.336 6.46884 41.16 7.42884 41.16C8.42084 41.16 9.30084 41.36 10.0688 41.76C10.8368 42.16 11.4288 42.744 11.8448 43.512C12.3248 42.776 12.9888 42.2 13.8368 41.784C14.7008 41.368 15.6688 41.16 16.7408 41.16ZM31.8265 54.144C30.5625 54.144 29.4265 53.864 28.4185 53.304C27.4105 52.744 26.6185 51.976 26.0425 51C25.4825 50.008 25.2025 48.888 25.2025 47.64C25.2025 46.392 25.4825 45.28 26.0425 44.304C26.6185 43.312 27.4105 42.544 28.4185 42C29.4265 41.44 30.5625 41.16 31.8265 41.16C33.0905 41.16 34.2185 41.44 35.2105 42C36.2185 42.544 37.0025 43.312 37.5625 44.304C38.1385 45.28 38.4265 46.392 38.4265 47.64C38.4265 48.888 38.1385 50.008 37.5625 51C37.0025 51.976 36.2185 52.744 35.2105 53.304C34.2185 53.864 33.0905 54.144 31.8265 54.144ZM31.8265 52.128C32.6425 52.128 33.3705 51.944 34.0105 51.576C34.6665 51.192 35.1785 50.664 35.5465 49.992C35.9145 49.304 36.0985 48.52 36.0985 47.64C36.0985 46.76 35.9145 45.984 35.5465 45.312C35.1785 44.624 34.6665 44.096 34.0105 43.728C33.3705 43.36 32.6425 43.176 31.8265 43.176C31.0105 43.176 30.2745 43.36 29.6185 43.728C28.9785 44.096 28.4665 44.624 28.0825 45.312C27.7145 45.984 27.5305 46.76 27.5305 47.64C27.5305 48.52 27.7145 49.304 28.0825 49.992C28.4665 50.664 28.9785 51.192 29.6185 51.576C30.2745 51.944 31.0105 52.128 31.8265 52.128ZM48.5249 41.16C50.1409 41.16 51.4209 41.632 52.3649 42.576C53.3249 43.504 53.8049 44.872 53.8049 46.68V54H51.5009V46.944C51.5009 45.712 51.2049 44.784 50.6129 44.16C50.0209 43.536 49.1729 43.224 48.0689 43.224C46.8209 43.224 45.8369 43.592 45.1169 44.328C44.3969 45.048 44.0369 46.088 44.0369 47.448V54H41.7329V41.28H43.9409V43.2C44.4049 42.544 45.0289 42.04 45.8129 41.688C46.6129 41.336 47.5169 41.16 48.5249 41.16ZM65.3408 53.256C65.0048 53.544 64.5888 53.768 64.0928 53.928C63.5968 54.072 63.0848 54.144 62.5568 54.144C61.2768 54.144 60.2848 53.8 59.5808 53.112C58.8768 52.424 58.5248 51.44 58.5248 50.16V43.176H56.3648V41.28H58.5248V38.496H60.8288V41.28H64.4768V43.176H60.8288V50.064C60.8288 50.752 60.9968 51.28 61.3328 51.648C61.6848 52.016 62.1808 52.2 62.8208 52.2C63.5248 52.2 64.1248 52 64.6208 51.6L65.3408 53.256ZM75.0383 41.16C76.6543 41.16 77.9343 41.632 78.8783 42.576C79.8383 43.504 80.3183 44.872 80.3183 46.68V54H78.0143V46.944C78.0143 45.712 77.7183 44.784 77.1263 44.16C76.5343 43.536 75.6863 43.224 74.5823 43.224C73.3343 43.224 72.3503 43.592 71.6303 44.328C70.9103 45.048 70.5503 46.088 70.5503 47.448V54H68.2463V36.192H70.5503V43.08C71.0303 42.472 71.6543 42 72.4223 41.664C73.2063 41.328 74.0783 41.16 75.0383 41.16ZM88.3503 54.144C87.3103 54.144 86.3103 54.008 85.3503 53.736C84.3903 53.448 83.6383 53.088 83.0943 52.656L84.0543 50.832C84.6143 51.232 85.2943 51.552 86.0943 51.792C86.8943 52.032 87.7023 52.152 88.5183 52.152C90.5343 52.152 91.5423 51.576 91.5423 50.424C91.5423 50.04 91.4063 49.736 91.1343 49.512C90.8623 49.288 90.5183 49.128 90.1023 49.032C89.7023 48.92 89.1263 48.8 88.3743 48.672C87.3503 48.512 86.5103 48.328 85.8543 48.12C85.2143 47.912 84.6623 47.56 84.1983 47.064C83.7343 46.568 83.5023 45.872 83.5023 44.976C83.5023 43.824 83.9823 42.904 84.9423 42.216C85.9023 41.512 87.1903 41.16 88.8063 41.16C89.6543 41.16 90.5023 41.264 91.3503 41.472C92.1983 41.68 92.8943 41.96 93.4383 42.312L92.4543 44.136C91.4143 43.464 90.1903 43.128 88.7823 43.128C87.8063 43.128 87.0623 43.288 86.5503 43.608C86.0383 43.928 85.7823 44.352 85.7823 44.88C85.7823 45.296 85.9263 45.624 86.2143 45.864C86.5023 46.104 86.8543 46.28 87.2703 46.392C87.7023 46.504 88.3023 46.632 89.0703 46.776C90.0943 46.952 90.9183 47.144 91.5423 47.352C92.1823 47.544 92.7263 47.88 93.1743 48.36C93.6223 48.84 93.8463 49.512 93.8463 50.376C93.8463 51.528 93.3503 52.448 92.3583 53.136C91.3823 53.808 90.0463 54.144 88.3503 54.144ZM129.224 41.28L124.472 54H122.264L118.592 44.352L114.872 54H112.664L107.936 41.28H110.12L113.816 51.408L117.656 41.28H119.6L123.368 51.456L127.16 41.28H129.224ZM131.682 41.28H133.986V54H131.682V41.28ZM132.834 38.832C132.386 38.832 132.01 38.688 131.706 38.4C131.418 38.112 131.274 37.76 131.274 37.344C131.274 36.928 131.418 36.576 131.706 36.288C132.01 35.984 132.386 35.832 132.834 35.832C133.282 35.832 133.65 35.976 133.938 36.264C134.242 36.536 134.394 36.88 134.394 37.296C134.394 37.728 134.242 38.096 133.938 38.4C133.65 38.688 133.282 38.832 132.834 38.832ZM145.657 53.256C145.321 53.544 144.905 53.768 144.409 53.928C143.913 54.072 143.401 54.144 142.873 54.144C141.593 54.144 140.601 53.8 139.897 53.112C139.193 52.424 138.841 51.44 138.841 50.16V43.176H136.681V41.28H138.841V38.496H141.145V41.28H144.793V43.176H141.145V50.064C141.145 50.752 141.313 51.28 141.649 51.648C142.001 52.016 142.497 52.2 143.137 52.2C143.841 52.2 144.441 52 144.937 51.6L145.657 53.256ZM155.355 41.16C156.971 41.16 158.251 41.632 159.195 42.576C160.155 43.504 160.635 44.872 160.635 46.68V54H158.331V46.944C158.331 45.712 158.035 44.784 157.443 44.16C156.851 43.536 156.003 43.224 154.899 43.224C153.651 43.224 152.667 43.592 151.947 44.328C151.227 45.048 150.867 46.088 150.867 47.448V54H148.563V36.192H150.867V43.08C151.347 42.472 151.971 42 152.739 41.664C153.523 41.328 154.395 41.16 155.355 41.16ZM178.376 41.16C179.992 41.16 181.272 41.632 182.216 42.576C183.176 43.504 183.656 44.872 183.656 46.68V54H181.352V46.944C181.352 45.712 181.056 44.784 180.464 44.16C179.872 43.536 179.024 43.224 177.92 43.224C176.672 43.224 175.688 43.592 174.968 44.328C174.248 45.048 173.888 46.088 173.888 47.448V54H171.584V41.28H173.792V43.2C174.256 42.544 174.88 42.04 175.664 41.688C176.464 41.336 177.368 41.16 178.376 41.16ZM193.558 54.144C192.294 54.144 191.158 53.864 190.15 53.304C189.142 52.744 188.35 51.976 187.774 51C187.214 50.008 186.934 48.888 186.934 47.64C186.934 46.392 187.214 45.28 187.774 44.304C188.35 43.312 189.142 42.544 190.15 42C191.158 41.44 192.294 41.16 193.558 41.16C194.822 41.16 195.95 41.44 196.942 42C197.95 42.544 198.734 43.312 199.294 44.304C199.87 45.28 200.158 46.392 200.158 47.64C200.158 48.888 199.87 50.008 199.294 51C198.734 51.976 197.95 52.744 196.942 53.304C195.95 53.864 194.822 54.144 193.558 54.144ZM193.558 52.128C194.374 52.128 195.102 51.944 195.742 51.576C196.398 51.192 196.91 50.664 197.278 49.992C197.646 49.304 197.83 48.52 197.83 47.64C197.83 46.76 197.646 45.984 197.278 45.312C196.91 44.624 196.398 44.096 195.742 43.728C195.102 43.36 194.374 43.176 193.558 43.176C192.742 43.176 192.006 43.36 191.35 43.728C190.71 44.096 190.198 44.624 189.814 45.312C189.446 45.984 189.262 46.76 189.262 47.64C189.262 48.52 189.446 49.304 189.814 49.992C190.198 50.664 190.71 51.192 191.35 51.576C192.006 51.944 192.742 52.128 193.558 52.128ZM216.822 41.16C218.438 41.16 219.718 41.632 220.662 42.576C221.622 43.504 222.102 44.872 222.102 46.68V54H219.798V46.944C219.798 45.712 219.502 44.784 218.91 44.16C218.318 43.536 217.47 43.224 216.366 43.224C215.118 43.224 214.134 43.592 213.414 44.328C212.694 45.048 212.334 46.088 212.334 47.448V54H210.03V36.192H212.334V43.08C212.814 42.472 213.438 42 214.206 41.664C214.99 41.328 215.862 41.16 216.822 41.16ZM226.486 41.28H228.79V54H226.486V41.28ZM227.638 38.832C227.19 38.832 226.814 38.688 226.51 38.4C226.222 38.112 226.078 37.76 226.078 37.344C226.078 36.928 226.222 36.576 226.51 36.288C226.814 35.984 227.19 35.832 227.638 35.832C228.086 35.832 228.454 35.976 228.742 36.264C229.046 36.536 229.198 36.88 229.198 37.296C229.198 37.728 229.046 38.096 228.742 38.4C228.454 38.688 228.086 38.832 227.638 38.832ZM245.309 36.192V54H243.101V51.984C242.589 52.688 241.941 53.224 241.157 53.592C240.373 53.96 239.509 54.144 238.565 54.144C237.333 54.144 236.229 53.872 235.253 53.328C234.277 52.784 233.509 52.024 232.949 51.048C232.405 50.056 232.133 48.92 232.133 47.64C232.133 46.36 232.405 45.232 232.949 44.256C233.509 43.28 234.277 42.52 235.253 41.976C236.229 41.432 237.333 41.16 238.565 41.16C239.477 41.16 240.317 41.336 241.085 41.688C241.853 42.024 242.493 42.528 243.005 43.2V36.192H245.309ZM238.757 52.128C239.557 52.128 240.285 51.944 240.941 51.576C241.597 51.192 242.109 50.664 242.477 49.992C242.845 49.304 243.029 48.52 243.029 47.64C243.029 46.76 242.845 45.984 242.477 45.312C242.109 44.624 241.597 44.096 240.941 43.728C240.285 43.36 239.557 43.176 238.757 43.176C237.941 43.176 237.205 43.36 236.549 43.728C235.909 44.096 235.397 44.624 235.013 45.312C234.645 45.984 234.461 46.76 234.461 47.64C234.461 48.52 234.645 49.304 235.013 49.992C235.397 50.664 235.909 51.192 236.549 51.576C237.205 51.944 237.941 52.128 238.757 52.128ZM261.789 36.192V54H259.581V51.984C259.069 52.688 258.421 53.224 257.637 53.592C256.853 53.96 255.989 54.144 255.045 54.144C253.813 54.144 252.709 53.872 251.733 53.328C250.757 52.784 249.989 52.024 249.429 51.048C248.885 50.056 248.613 48.92 248.613 47.64C248.613 46.36 248.885 45.232 249.429 44.256C249.989 43.28 250.757 42.52 251.733 41.976C252.709 41.432 253.813 41.16 255.045 41.16C255.957 41.16 256.797 41.336 257.565 41.688C258.333 42.024 258.973 42.528 259.485 43.2V36.192H261.789ZM255.237 52.128C256.037 52.128 256.765 51.944 257.421 51.576C258.077 51.192 258.589 50.664 258.957 49.992C259.325 49.304 259.509 48.52 259.509 47.64C259.509 46.76 259.325 45.984 258.957 45.312C258.589 44.624 258.077 44.096 257.421 43.728C256.765 43.36 256.037 43.176 255.237 43.176C254.421 43.176 253.685 43.36 253.029 43.728C252.389 44.096 251.877 44.624 251.493 45.312C251.125 45.984 250.941 46.76 250.941 47.64C250.941 48.52 251.125 49.304 251.493 49.992C251.877 50.664 252.389 51.192 253.029 51.576C253.685 51.944 254.421 52.128 255.237 52.128ZM277.764 47.712C277.764 47.888 277.748 48.12 277.716 48.408H267.396C267.54 49.528 268.028 50.432 268.86 51.12C269.708 51.792 270.756 52.128 272.004 52.128C273.524 52.128 274.748 51.616 275.676 50.592L276.948 52.08C276.372 52.752 275.652 53.264 274.788 53.616C273.94 53.968 272.988 54.144 271.932 54.144C270.588 54.144 269.396 53.872 268.356 53.328C267.316 52.768 266.508 51.992 265.932 51C265.372 50.008 265.092 48.888 265.092 47.64C265.092 46.408 265.364 45.296 265.908 44.304C266.468 43.312 267.228 42.544 268.188 42C269.164 41.44 270.26 41.16 271.476 41.16C272.692 41.16 273.772 41.44 274.716 42C275.676 42.544 276.42 43.312 276.948 44.304C277.492 45.296 277.764 46.432 277.764 47.712ZM271.476 43.104C270.372 43.104 269.444 43.44 268.692 44.112C267.956 44.784 267.524 45.664 267.396 46.752H275.556C275.428 45.68 274.988 44.808 274.236 44.136C273.5 43.448 272.58 43.104 271.476 43.104ZM287.875 41.16C289.491 41.16 290.771 41.632 291.715 42.576C292.675 43.504 293.155 44.872 293.155 46.68V54H290.851V46.944C290.851 45.712 290.555 44.784 289.963 44.16C289.371 43.536 288.523 43.224 287.419 43.224C286.171 43.224 285.187 43.592 284.467 44.328C283.747 45.048 283.387 46.088 283.387 47.448V54H281.083V41.28H283.291V43.2C283.755 42.544 284.379 42.04 285.163 41.688C285.963 41.336 286.867 41.16 287.875 41.16ZM105.829 89.144C104.533 89.144 103.373 88.864 102.349 88.304C101.341 87.744 100.549 86.976 99.9729 86C99.3969 85.008 99.1089 83.888 99.1089 82.64C99.1089 81.392 99.3969 80.28 99.9729 79.304C100.549 78.312 101.341 77.544 102.349 77C103.373 76.44 104.533 76.16 105.829 76.16C106.981 76.16 108.005 76.392 108.901 76.856C109.813 77.32 110.517 77.992 111.013 78.872L109.261 80C108.861 79.392 108.365 78.936 107.773 78.632C107.181 78.328 106.525 78.176 105.805 78.176C104.973 78.176 104.221 78.36 103.549 78.728C102.893 79.096 102.373 79.624 101.989 80.312C101.621 80.984 101.437 81.76 101.437 82.64C101.437 83.536 101.621 84.328 101.989 85.016C102.373 85.688 102.893 86.208 103.549 86.576C104.221 86.944 104.973 87.128 105.805 87.128C106.525 87.128 107.181 86.976 107.773 86.672C108.365 86.368 108.861 85.912 109.261 85.304L111.013 86.408C110.517 87.288 109.813 87.968 108.901 88.448C108.005 88.912 106.981 89.144 105.829 89.144ZM120.744 76.16C122.36 76.16 123.64 76.632 124.584 77.576C125.544 78.504 126.024 79.872 126.024 81.68V89H123.72V81.944C123.72 80.712 123.424 79.784 122.832 79.16C122.24 78.536 121.392 78.224 120.288 78.224C119.04 78.224 118.056 78.592 117.336 79.328C116.616 80.048 116.256 81.088 116.256 82.448V89H113.952V71.192H116.256V78.08C116.736 77.472 117.36 77 118.128 76.664C118.912 76.328 119.784 76.16 120.744 76.16ZM135.04 76.16C136.8 76.16 138.144 76.592 139.072 77.456C140.016 78.32 140.488 79.608 140.488 81.32V89H138.304V87.32C137.92 87.912 137.368 88.368 136.648 88.688C135.944 88.992 135.104 89.144 134.128 89.144C132.704 89.144 131.56 88.8 130.696 88.112C129.848 87.424 129.424 86.52 129.424 85.4C129.424 84.28 129.832 83.384 130.648 82.712C131.464 82.024 132.76 81.68 134.536 81.68H138.184V81.224C138.184 80.232 137.896 79.472 137.32 78.944C136.744 78.416 135.896 78.152 134.776 78.152C134.024 78.152 133.288 78.28 132.568 78.536C131.848 78.776 131.24 79.104 130.744 79.52L129.784 77.792C130.44 77.264 131.224 76.864 132.136 76.592C133.048 76.304 134.016 76.16 135.04 76.16ZM134.512 87.368C135.392 87.368 136.152 87.176 136.792 86.792C137.432 86.392 137.896 85.832 138.184 85.112V83.336H134.632C132.68 83.336 131.704 83.992 131.704 85.304C131.704 85.944 131.952 86.448 132.448 86.816C132.944 87.184 133.632 87.368 134.512 87.368ZM147.08 78.416C147.48 77.68 148.072 77.12 148.855 76.736C149.64 76.352 150.592 76.16 151.712 76.16V78.392C151.584 78.376 151.408 78.368 151.184 78.368C149.936 78.368 148.952 78.744 148.232 79.496C147.528 80.232 147.176 81.288 147.176 82.664V89H144.872V76.28H147.08V78.416ZM166.722 76.28V87.272C166.722 89.496 166.17 91.136 165.066 92.192C163.962 93.264 162.314 93.8 160.122 93.8C158.922 93.8 157.778 93.632 156.69 93.296C155.602 92.976 154.722 92.512 154.05 91.904L155.154 90.128C155.746 90.64 156.474 91.04 157.338 91.328C158.218 91.632 159.122 91.784 160.05 91.784C161.538 91.784 162.634 91.432 163.338 90.728C164.058 90.024 164.418 88.952 164.418 87.512V86.504C163.874 87.16 163.202 87.656 162.402 87.992C161.618 88.312 160.762 88.472 159.834 88.472C158.618 88.472 157.514 88.216 156.522 87.704C155.546 87.176 154.778 86.448 154.218 85.52C153.658 84.576 153.378 83.504 153.378 82.304C153.378 81.104 153.658 80.04 154.218 79.112C154.778 78.168 155.546 77.44 156.522 76.928C157.514 76.416 158.618 76.16 159.834 76.16C160.794 76.16 161.682 76.336 162.498 76.688C163.33 77.04 164.01 77.56 164.538 78.248V76.28H166.722ZM160.098 86.456C160.93 86.456 161.674 86.28 162.33 85.928C163.002 85.576 163.522 85.088 163.89 84.464C164.274 83.824 164.466 83.104 164.466 82.304C164.466 81.072 164.058 80.08 163.242 79.328C162.426 78.56 161.378 78.176 160.098 78.176C158.802 78.176 157.746 78.56 156.93 79.328C156.114 80.08 155.706 81.072 155.706 82.304C155.706 83.104 155.89 83.824 156.258 84.464C156.642 85.088 157.162 85.576 157.818 85.928C158.49 86.28 159.25 86.456 160.098 86.456ZM182.74 82.712C182.74 82.888 182.724 83.12 182.692 83.408H172.372C172.516 84.528 173.004 85.432 173.836 86.12C174.684 86.792 175.732 87.128 176.98 87.128C178.5 87.128 179.724 86.616 180.652 85.592L181.924 87.08C181.348 87.752 180.628 88.264 179.764 88.616C178.916 88.968 177.964 89.144 176.908 89.144C175.564 89.144 174.372 88.872 173.332 88.328C172.292 87.768 171.484 86.992 170.908 86C170.348 85.008 170.068 83.888 170.068 82.64C170.068 81.408 170.34 80.296 170.884 79.304C171.444 78.312 172.204 77.544 173.164 77C174.14 76.44 175.236 76.16 176.452 76.16C177.668 76.16 178.748 76.44 179.692 77C180.652 77.544 181.396 78.312 181.924 79.304C182.468 80.296 182.74 81.432 182.74 82.712ZM176.452 78.104C175.348 78.104 174.42 78.44 173.668 79.112C172.932 79.784 172.5 80.664 172.372 81.752H180.532C180.404 80.68 179.964 79.808 179.212 79.136C178.476 78.448 177.556 78.104 176.452 78.104ZM189.708 89.144C188.668 89.144 187.668 89.008 186.708 88.736C185.748 88.448 184.996 88.088 184.452 87.656L185.412 85.832C185.972 86.232 186.652 86.552 187.452 86.792C188.252 87.032 189.06 87.152 189.876 87.152C191.892 87.152 192.9 86.576 192.9 85.424C192.9 85.04 192.764 84.736 192.492 84.512C192.22 84.288 191.876 84.128 191.46 84.032C191.06 83.92 190.484 83.8 189.732 83.672C188.708 83.512 187.868 83.328 187.212 83.12C186.572 82.912 186.02 82.56 185.556 82.064C185.092 81.568 184.86 80.872 184.86 79.976C184.86 78.824 185.34 77.904 186.3 77.216C187.26 76.512 188.548 76.16 190.164 76.16C191.012 76.16 191.86 76.264 192.708 76.472C193.556 76.68 194.252 76.96 194.796 77.312L193.812 79.136C192.772 78.464 191.548 78.128 190.14 78.128C189.164 78.128 188.42 78.288 187.908 78.608C187.396 78.928 187.14 79.352 187.14 79.88C187.14 80.296 187.284 80.624 187.572 80.864C187.86 81.104 188.212 81.28 188.628 81.392C189.06 81.504 189.66 81.632 190.428 81.776C191.452 81.952 192.276 82.144 192.9 82.352C193.54 82.544 194.084 82.88 194.532 83.36C194.98 83.84 195.204 84.512 195.204 85.376C195.204 86.528 194.708 87.448 193.716 88.136C192.74 88.808 191.404 89.144 189.708 89.144Z" fill="black"/>
</svg>
