<svg width="165" height="53" viewBox="0 0 165 53" fill="none" xmlns="http://www.w3.org/2000/svg">
<path d="M24.5669 5.51637H25.8564V9.18345C25.3907 9.56851 24.849 9.86403 24.2311 10.07C23.6132 10.276 22.9684 10.3789 22.2968 10.3789C21.3475 10.3789 20.4923 10.173 19.7312 9.76105C18.97 9.34016 18.37 8.76704 17.9312 8.04168C17.5014 7.30737 17.2864 6.48351 17.2864 5.5701C17.2864 4.65668 17.5014 3.83282 17.9312 3.09851C18.37 2.3642 18.97 1.79108 19.7312 1.37914C20.5013 0.967213 21.3654 0.761248 22.3236 0.761248C23.0759 0.761248 23.7564 0.886618 24.3654 1.13736C24.9833 1.37914 25.5071 1.73735 25.937 2.21196L25.1042 3.04478C24.3519 2.31942 23.443 1.95674 22.3774 1.95674C21.661 1.95674 21.0162 2.11346 20.4431 2.42688C19.8789 2.73135 19.4356 3.16119 19.1133 3.71641C18.7909 4.26266 18.6297 4.88056 18.6297 5.5701C18.6297 6.25068 18.7909 6.86857 19.1133 7.42379C19.4356 7.97004 19.8789 8.39988 20.4431 8.71331C21.0162 9.02674 21.6565 9.18345 22.3639 9.18345C23.2057 9.18345 23.94 8.98196 24.5669 8.57898V5.51637ZM34.7415 6.75216C34.7415 6.85066 34.7325 6.98051 34.7146 7.1417H28.9386C29.0192 7.76855 29.2924 8.27451 29.758 8.65958C30.2326 9.03569 30.8192 9.22375 31.5177 9.22375C32.3684 9.22375 33.0535 8.93719 33.5729 8.36406L34.2848 9.19688C33.9624 9.57299 33.5594 9.85955 33.0759 10.0566C32.6012 10.2536 32.0684 10.3521 31.4774 10.3521C30.7252 10.3521 30.058 10.1998 29.4759 9.89537C28.8939 9.58195 28.4416 9.14763 28.1192 8.59242C27.8058 8.03721 27.6491 7.41035 27.6491 6.71186C27.6491 6.02233 27.8013 5.39995 28.1058 4.84474C28.4192 4.28953 28.8446 3.85969 29.3819 3.55522C29.9282 3.24179 30.5416 3.08508 31.2222 3.08508C31.9027 3.08508 32.5072 3.24179 33.0356 3.55522C33.5729 3.85969 33.9893 4.28953 34.2848 4.84474C34.5893 5.39995 34.7415 6.03576 34.7415 6.75216ZM31.2222 4.17311C30.6043 4.17311 30.0849 4.36117 29.664 4.73728C29.2521 5.11339 29.0103 5.60592 28.9386 6.21486H33.5057C33.4341 5.61487 33.1878 5.12682 32.7669 4.75071C32.355 4.36565 31.8401 4.17311 31.2222 4.17311ZM40.6022 9.85508C40.4141 10.0163 40.1813 10.1416 39.9037 10.2312C39.6261 10.3118 39.3395 10.3521 39.044 10.3521C38.3276 10.3521 37.7724 10.1595 37.3784 9.77448C36.9843 9.38941 36.7873 8.83868 36.7873 8.12228V4.21341H35.5784V3.15224H36.7873V1.59407H38.0769V3.15224H40.1186V4.21341H38.0769V8.06855C38.0769 8.45361 38.1709 8.74913 38.3589 8.9551C38.5559 9.16106 38.8336 9.26404 39.1918 9.26404C39.5858 9.26404 39.9216 9.15211 40.1992 8.92823L40.6022 9.85508ZM48.4954 3.08508C49.4804 3.08508 50.2326 3.32686 50.752 3.81043C51.2804 4.29401 51.5445 5.01488 51.5445 5.97307V10.2715H50.3222V9.33121C50.1073 9.66254 49.7983 9.91776 49.3953 10.0969C49.0013 10.267 48.5312 10.3521 47.9849 10.3521C47.1879 10.3521 46.5476 10.1595 46.0641 9.77448C45.5895 9.38941 45.3521 8.88346 45.3521 8.2566C45.3521 7.62975 45.5805 7.12827 46.0372 6.75216C46.4939 6.36709 47.2193 6.17456 48.2133 6.17456H50.255V5.91934C50.255 5.36413 50.0938 4.93877 49.7715 4.64325C49.4491 4.34774 48.9745 4.19998 48.3476 4.19998C47.9267 4.19998 47.5148 4.27162 47.1118 4.4149C46.7088 4.54922 46.3685 4.7328 46.0909 4.96563L45.5536 3.99849C45.9208 3.70297 46.3596 3.4791 46.87 3.32686C47.3805 3.16567 47.9222 3.08508 48.4954 3.08508ZM48.1998 9.35807C48.6924 9.35807 49.1177 9.25061 49.4759 9.03569C49.8341 8.81182 50.0938 8.49839 50.255 8.09541V7.10141H48.267C47.1745 7.10141 46.6282 7.46856 46.6282 8.20287C46.6282 8.56107 46.767 8.84316 47.0446 9.04912C47.3223 9.25509 47.7073 9.35807 48.1998 9.35807ZM65.2754 7.96109H63.4889V10.2715H62.1859V7.96109H56.9607V7.02081L61.7695 0.868708H63.2203L58.6129 6.80589H62.2262V4.76414H63.4889V6.80589H65.2754V7.96109ZM69.9895 10.3789C69.2463 10.3789 68.5836 10.1909 68.0015 9.81478C67.4284 9.42971 66.9762 8.8745 66.6448 8.14914C66.3135 7.42379 66.1478 6.5641 66.1478 5.5701C66.1478 4.57609 66.3135 3.71641 66.6448 2.99105C66.9762 2.26569 67.4284 1.71496 68.0015 1.33885C68.5836 0.953781 69.2463 0.761248 69.9895 0.761248C70.7238 0.761248 71.3775 0.953781 71.9507 1.33885C72.5327 1.71496 72.9895 2.26569 73.3208 2.99105C73.6521 3.71641 73.8178 4.57609 73.8178 5.5701C73.8178 6.5641 73.6521 7.42379 73.3208 8.14914C72.9895 8.8745 72.5327 9.42971 71.9507 9.81478C71.3775 10.1909 70.7238 10.3789 69.9895 10.3789ZM69.9895 9.18345C70.7417 9.18345 71.3417 8.8745 71.7895 8.2566C72.2462 7.63871 72.4745 6.7432 72.4745 5.5701C72.4745 4.39699 72.2462 3.50149 71.7895 2.88359C71.3417 2.26569 70.7417 1.95674 69.9895 1.95674C69.2283 1.95674 68.6194 2.26569 68.1627 2.88359C67.7149 3.50149 67.4911 4.39699 67.4911 5.5701C67.4911 6.7432 67.7149 7.63871 68.1627 8.2566C68.6194 8.8745 69.2283 9.18345 69.9895 9.18345ZM77.2161 5.91934C76.5624 5.91934 76.0341 5.68203 75.6311 5.20742C75.2281 4.7328 75.0266 4.1149 75.0266 3.35373C75.0266 2.59255 75.2281 1.97465 75.6311 1.50004C76.0341 1.02542 76.5624 0.788113 77.2161 0.788113C77.8698 0.788113 78.3937 1.02542 78.7877 1.50004C79.1907 1.9657 79.3922 2.5836 79.3922 3.35373C79.3922 4.12386 79.1907 4.74623 78.7877 5.22085C78.3937 5.68651 77.8698 5.91934 77.2161 5.91934ZM82.8846 0.868708H83.919L77.4982 10.2715H76.4639L82.8846 0.868708ZM77.2161 5.15369C77.628 5.15369 77.9504 4.99697 78.1833 4.68355C78.4161 4.36117 78.5325 3.91789 78.5325 3.35373C78.5325 2.78956 78.4161 2.35076 78.1833 2.03734C77.9504 1.71496 77.628 1.55377 77.2161 1.55377C76.8131 1.55377 76.4908 1.71496 76.249 2.03734C76.0161 2.35972 75.8997 2.79852 75.8997 3.35373C75.8997 3.90894 76.0161 4.34774 76.249 4.67012C76.4908 4.9925 76.8131 5.15369 77.2161 5.15369ZM83.1667 10.3521C82.513 10.3521 81.9847 10.1192 81.5817 9.65359C81.1877 9.17897 80.9907 8.5566 80.9907 7.78646C80.9907 7.01633 81.1877 6.39844 81.5817 5.93277C81.9847 5.45816 82.513 5.22085 83.1667 5.22085C83.8204 5.22085 84.3488 5.45816 84.7518 5.93277C85.1547 6.40739 85.3562 7.02529 85.3562 7.78646C85.3562 8.54764 85.1547 9.16554 84.7518 9.64016C84.3488 10.1148 83.8204 10.3521 83.1667 10.3521ZM83.1667 9.58642C83.5697 9.58642 83.8876 9.42523 84.1204 9.10285C84.3622 8.78047 84.4831 8.34168 84.4831 7.78646C84.4831 7.23125 84.3622 6.79246 84.1204 6.47008C83.8876 6.1477 83.5697 5.9865 83.1667 5.9865C82.7548 5.9865 82.4324 6.1477 82.1996 6.47008C81.9668 6.7835 81.8503 7.2223 81.8503 7.78646C81.8503 8.35063 81.9668 8.79391 82.1996 9.11629C82.4324 9.42971 82.7548 9.58642 83.1667 9.58642ZM97.2887 10.2715L95.2604 7.38349C95.0097 7.4014 94.8127 7.41035 94.6694 7.41035H92.3456V10.2715H91.0023V0.868708H94.6694C95.8873 0.868708 96.8455 1.15975 97.544 1.74182C98.2424 2.3239 98.5917 3.12537 98.5917 4.14625C98.5917 4.8716 98.4126 5.4895 98.0544 5.99994C97.6962 6.51037 97.1857 6.88201 96.5231 7.11484L98.7529 10.2715H97.2887ZM94.6291 6.26859C95.4798 6.26859 96.1291 6.08501 96.5768 5.71785C97.0246 5.3507 97.2484 4.82683 97.2484 4.14625C97.2484 3.46567 97.0246 2.94627 96.5768 2.58807C96.1291 2.22092 95.4798 2.03734 94.6291 2.03734H92.3456V6.26859H94.6291ZM105.074 10.3789C104.124 10.3789 103.269 10.173 102.508 9.76105C101.747 9.34016 101.147 8.76256 100.708 8.02825C100.278 7.29394 100.063 6.47455 100.063 5.5701C100.063 4.66564 100.278 3.84625 100.708 3.11194C101.147 2.37763 101.747 1.80451 102.508 1.39258C103.269 0.971691 104.124 0.761248 105.074 0.761248C106.014 0.761248 106.865 0.971691 107.626 1.39258C108.387 1.80451 108.983 2.37763 109.412 3.11194C109.842 3.8373 110.057 4.65668 110.057 5.5701C110.057 6.48351 109.842 7.30737 109.412 8.04168C108.983 8.76704 108.387 9.34016 107.626 9.76105C106.865 10.173 106.014 10.3789 105.074 10.3789ZM105.074 9.18345C105.763 9.18345 106.381 9.02674 106.927 8.71331C107.483 8.39988 107.917 7.97004 108.23 7.42379C108.553 6.86857 108.714 6.25068 108.714 5.5701C108.714 4.88951 108.553 4.27609 108.23 3.72984C107.917 3.17463 107.483 2.74031 106.927 2.42688C106.381 2.11346 105.763 1.95674 105.074 1.95674C104.384 1.95674 103.757 2.11346 103.193 2.42688C102.638 2.74031 102.199 3.17463 101.877 3.72984C101.563 4.27609 101.407 4.88951 101.407 5.5701C101.407 6.25068 101.563 6.86857 101.877 7.42379C102.199 7.97004 102.638 8.39988 103.193 8.71331C103.757 9.02674 104.384 9.18345 105.074 9.18345ZM112.177 0.868708H113.521V10.2715H112.177V0.868708ZM119.889 3.15224H121.179V10.2715H119.889V3.15224ZM120.534 1.78212C120.283 1.78212 120.073 1.70153 119.903 1.54033C119.742 1.37914 119.661 1.18213 119.661 0.949304C119.661 0.716473 119.742 0.519462 119.903 0.358272C120.073 0.188126 120.283 0.103053 120.534 0.103053C120.785 0.103053 120.991 0.183649 121.152 0.344839C121.322 0.497074 121.407 0.689607 121.407 0.922438C121.407 1.16422 121.322 1.37019 121.152 1.54033C120.991 1.70153 120.785 1.78212 120.534 1.78212ZM127.51 3.08508C128.414 3.08508 129.13 3.34925 129.659 3.8776C130.196 4.39699 130.465 5.16264 130.465 6.17456V10.2715H129.175V6.32232C129.175 5.63278 129.01 5.11339 128.678 4.76414C128.347 4.4149 127.872 4.24027 127.254 4.24027C126.556 4.24027 126.005 4.44624 125.602 4.85817C125.199 5.26115 124.998 5.84322 124.998 6.6044V10.2715H123.708V3.15224H124.944V4.22684C125.204 3.85969 125.553 3.5776 125.992 3.38059C126.44 3.18358 126.945 3.08508 127.51 3.08508ZM138.93 0.868708V10.2715H137.6V2.03734H135.478V0.868708H138.93ZM147.663 9.10285V10.2715H140.906V9.35807L144.735 5.66412C145.2 5.21637 145.514 4.83131 145.675 4.50893C145.836 4.17759 145.917 3.84625 145.917 3.51492C145.917 3.02239 145.742 2.6418 145.393 2.37315C145.053 2.09555 144.56 1.95674 143.915 1.95674C142.877 1.95674 142.075 2.29703 141.511 2.97762L140.597 2.1851C140.965 1.73735 141.444 1.3881 142.035 1.13736C142.635 0.886618 143.302 0.761248 144.036 0.761248C145.021 0.761248 145.805 0.998556 146.387 1.47317C146.969 1.93883 147.26 2.57464 147.26 3.38059C147.26 3.88207 147.153 4.35669 146.938 4.80444C146.723 5.25219 146.315 5.76263 145.715 6.33575L142.841 9.10285H147.663ZM9.5111 23.0851C10.4066 23.0851 11.114 23.3448 11.6334 23.8642C12.1618 24.3836 12.426 25.1537 12.426 26.1746V30.2715H11.1364V26.3223C11.1364 25.6328 10.9752 25.1134 10.6529 24.7641C10.3394 24.4149 9.88721 24.2403 9.29618 24.2403C8.64246 24.2403 8.12307 24.4462 7.738 24.8582C7.35294 25.2611 7.1604 25.8432 7.1604 26.6044V30.2715H5.87088V26.3223C5.87088 25.6328 5.70969 25.1134 5.38731 24.7641C5.07388 24.4149 4.62165 24.2403 4.03062 24.2403C3.37691 24.2403 2.85751 24.4462 2.47245 24.8582C2.08738 25.2611 1.89485 25.8432 1.89485 26.6044V30.2715H0.605326V23.1522H1.84112V24.2134C2.10082 23.8463 2.44111 23.5686 2.86199 23.3806C3.28288 23.1836 3.76197 23.0851 4.29927 23.0851C4.85449 23.0851 5.34701 23.197 5.77685 23.4209C6.20669 23.6448 6.53803 23.9716 6.77086 24.4015C7.03951 23.9895 7.41115 23.6672 7.88576 23.4343C8.36933 23.2015 8.91111 23.0851 9.5111 23.0851ZM17.9544 30.3521C17.2469 30.3521 16.6111 30.1954 16.047 29.8819C15.4828 29.5685 15.0395 29.1387 14.7172 28.5924C14.4037 28.0372 14.247 27.4104 14.247 26.7119C14.247 26.0134 14.4037 25.391 14.7172 24.8447C15.0395 24.2895 15.4828 23.8597 16.047 23.5552C16.6111 23.2418 17.2469 23.0851 17.9544 23.0851C18.6618 23.0851 19.2932 23.2418 19.8484 23.5552C20.4125 23.8597 20.8513 24.2895 21.1648 24.8447C21.4872 25.391 21.6483 26.0134 21.6483 26.7119C21.6483 27.4104 21.4872 28.0372 21.1648 28.5924C20.8513 29.1387 20.4125 29.5685 19.8484 29.8819C19.2932 30.1954 18.6618 30.3521 17.9544 30.3521ZM17.9544 29.2237C18.4111 29.2237 18.8186 29.1208 19.1768 28.9148C19.5439 28.6999 19.8305 28.4044 20.0364 28.0283C20.2424 27.6432 20.3454 27.2044 20.3454 26.7119C20.3454 26.2193 20.2424 25.785 20.0364 25.4089C19.8305 25.0238 19.5439 24.7283 19.1768 24.5224C18.8186 24.3164 18.4111 24.2134 17.9544 24.2134C17.4977 24.2134 17.0858 24.3164 16.7186 24.5224C16.3604 24.7283 16.0738 25.0238 15.8589 25.4089C15.653 25.785 15.55 26.2193 15.55 26.7119C15.55 27.2044 15.653 27.6432 15.8589 28.0283C16.0738 28.4044 16.3604 28.6999 16.7186 28.9148C17.0858 29.1208 17.4977 29.2237 17.9544 29.2237ZM27.3003 23.0851C28.2047 23.0851 28.9212 23.3492 29.4495 23.8776C29.9868 24.397 30.2554 25.1626 30.2554 26.1746V30.2715H28.9659V26.3223C28.9659 25.6328 28.8003 25.1134 28.4689 24.7641C28.1376 24.4149 27.663 24.2403 27.0451 24.2403C26.3466 24.2403 25.7958 24.4462 25.3929 24.8582C24.9899 25.2611 24.7884 25.8432 24.7884 26.6044V30.2715H23.4989V23.1522H24.7347V24.2268C24.9944 23.8597 25.3436 23.5776 25.7824 23.3806C26.2302 23.1836 26.7361 23.0851 27.3003 23.0851ZM36.712 29.8551C36.5239 30.0163 36.2911 30.1416 36.0135 30.2312C35.7359 30.3118 35.4493 30.3521 35.1538 30.3521C34.4374 30.3521 33.8822 30.1595 33.4882 29.7745C33.0942 29.3894 32.8971 28.8387 32.8971 28.1223V24.2134H31.6882V23.1522H32.8971V21.5941H34.1867V23.1522H36.2284V24.2134H34.1867V28.0685C34.1867 28.4536 34.2807 28.7491 34.4688 28.9551C34.6658 29.1611 34.9434 29.264 35.3016 29.264C35.6956 29.264 36.0314 29.1521 36.309 28.9282L36.712 29.8551ZM42.1396 23.0851C43.044 23.0851 43.7604 23.3492 44.2888 23.8776C44.8261 24.397 45.0947 25.1626 45.0947 26.1746V30.2715H43.8052V26.3223C43.8052 25.6328 43.6395 25.1134 43.3082 24.7641C42.9769 24.4149 42.5023 24.2403 41.8844 24.2403C41.1859 24.2403 40.6351 24.4462 40.2322 24.8582C39.8292 25.2611 39.6277 25.8432 39.6277 26.6044V30.2715H38.3382V20.3045H39.6277V24.1597C39.8963 23.8194 40.2456 23.5552 40.6754 23.3672C41.1142 23.1791 41.6023 23.0851 42.1396 23.0851ZM49.5901 30.3521C49.008 30.3521 48.4483 30.276 47.911 30.1237C47.3737 29.9625 46.9529 29.761 46.6484 29.5193L47.1857 28.4984C47.4991 28.7223 47.8797 28.9014 48.3275 29.0357C48.7752 29.17 49.2274 29.2372 49.6841 29.2372C50.8125 29.2372 51.3766 28.9148 51.3766 28.27C51.3766 28.0551 51.3005 27.885 51.1483 27.7596C50.9961 27.6342 50.8035 27.5447 50.5707 27.4909C50.3468 27.4283 50.0244 27.3611 49.6035 27.2895C49.0304 27.1999 48.5603 27.0969 48.1931 26.9805C47.8349 26.8641 47.526 26.6671 47.2663 26.3895C47.0066 26.1119 46.8767 25.7223 46.8767 25.2209C46.8767 24.5761 47.1454 24.0612 47.6827 23.6761C48.22 23.2821 48.9409 23.0851 49.8453 23.0851C50.3199 23.0851 50.7946 23.1433 51.2692 23.2597C51.7438 23.3761 52.1333 23.5328 52.4378 23.7298L51.8871 24.7507C51.305 24.3746 50.6199 24.1865 49.8319 24.1865C49.2856 24.1865 48.8692 24.2761 48.5827 24.4552C48.2961 24.6343 48.1528 24.8716 48.1528 25.1671C48.1528 25.4 48.2334 25.5835 48.3946 25.7179C48.5558 25.8522 48.7528 25.9507 48.9857 26.0134C49.2274 26.0761 49.5632 26.1477 49.9931 26.2283C50.5662 26.3268 51.0274 26.4343 51.3766 26.5507C51.7348 26.6581 52.0393 26.8462 52.2901 27.1148C52.5408 27.3835 52.6662 27.7596 52.6662 28.2432C52.6662 28.8879 52.3886 29.4028 51.8333 29.7879C51.2871 30.164 50.5393 30.3521 49.5901 30.3521ZM72.4669 23.1522L69.8072 30.2715H68.5714L66.5163 24.8716L64.4342 30.2715H63.1984L60.5522 23.1522H61.7746L63.8432 28.8208L65.9924 23.1522H67.0804L69.1893 28.8476L71.3117 23.1522H72.4669ZM73.8426 23.1522H75.1321V30.2715H73.8426V23.1522ZM74.4873 21.7821C74.2366 21.7821 74.0261 21.7015 73.856 21.5403C73.6948 21.3791 73.6142 21.1821 73.6142 20.9493C73.6142 20.7165 73.6948 20.5195 73.856 20.3583C74.0261 20.1881 74.2366 20.1031 74.4873 20.1031C74.7381 20.1031 74.944 20.1836 75.1052 20.3448C75.2754 20.4971 75.3604 20.6896 75.3604 20.9224C75.3604 21.1642 75.2754 21.3702 75.1052 21.5403C74.944 21.7015 74.7381 21.7821 74.4873 21.7821ZM81.6643 29.8551C81.4762 30.0163 81.2434 30.1416 80.9658 30.2312C80.6882 30.3118 80.4016 30.3521 80.1061 30.3521C79.3897 30.3521 78.8345 30.1595 78.4405 29.7745C78.0465 29.3894 77.8494 28.8387 77.8494 28.1223V24.2134H76.6405V23.1522H77.8494V21.5941H79.139V23.1522H81.1807V24.2134H79.139V28.0685C79.139 28.4536 79.233 28.7491 79.421 28.9551C79.6181 29.1611 79.8957 29.264 80.2539 29.264C80.6479 29.264 80.9837 29.1521 81.2613 28.9282L81.6643 29.8551ZM87.0919 23.0851C87.9963 23.0851 88.7127 23.3492 89.2411 23.8776C89.7784 24.397 90.047 25.1626 90.047 26.1746V30.2715H88.7575V26.3223C88.7575 25.6328 88.5918 25.1134 88.2605 24.7641C87.9292 24.4149 87.4545 24.2403 86.8367 24.2403C86.1382 24.2403 85.5874 24.4462 85.1844 24.8582C84.7815 25.2611 84.58 25.8432 84.58 26.6044V30.2715H83.2905V20.3045H84.58V24.1597C84.8486 23.8194 85.1979 23.5552 85.6277 23.3672C86.0665 23.1791 86.5546 23.0851 87.0919 23.0851ZM99.9766 23.0851C100.881 23.0851 101.597 23.3492 102.126 23.8776C102.663 24.397 102.932 25.1626 102.932 26.1746V30.2715H101.642V26.3223C101.642 25.6328 101.477 25.1134 101.145 24.7641C100.814 24.4149 100.339 24.2403 99.7214 24.2403C99.0229 24.2403 98.4722 24.4462 98.0692 24.8582C97.6662 25.2611 97.4647 25.8432 97.4647 26.6044V30.2715H96.1752V23.1522H97.411V24.2268C97.6707 23.8597 98.0199 23.5776 98.4587 23.3806C98.9065 23.1836 99.4124 23.0851 99.9766 23.0851ZM108.474 30.3521C107.767 30.3521 107.131 30.1954 106.567 29.8819C106.002 29.5685 105.559 29.1387 105.237 28.5924C104.923 28.0372 104.767 27.4104 104.767 26.7119C104.767 26.0134 104.923 25.391 105.237 24.8447C105.559 24.2895 106.002 23.8597 106.567 23.5552C107.131 23.2418 107.767 23.0851 108.474 23.0851C109.181 23.0851 109.813 23.2418 110.368 23.5552C110.932 23.8597 111.371 24.2895 111.684 24.8447C112.007 25.391 112.168 26.0134 112.168 26.7119C112.168 27.4104 112.007 28.0372 111.684 28.5924C111.371 29.1387 110.932 29.5685 110.368 29.8819C109.813 30.1954 109.181 30.3521 108.474 30.3521ZM108.474 29.2237C108.931 29.2237 109.338 29.1208 109.696 28.9148C110.063 28.6999 110.35 28.4044 110.556 28.0283C110.762 27.6432 110.865 27.2044 110.865 26.7119C110.865 26.2193 110.762 25.785 110.556 25.4089C110.35 25.0238 110.063 24.7283 109.696 24.5224C109.338 24.3164 108.931 24.2134 108.474 24.2134C108.017 24.2134 107.605 24.3164 107.238 24.5224C106.88 24.7283 106.593 25.0238 106.378 25.4089C106.173 25.785 106.07 26.2193 106.07 26.7119C106.07 27.2044 106.173 27.6432 106.378 28.0283C106.593 28.4044 106.88 28.6999 107.238 28.9148C107.605 29.1208 108.017 29.2237 108.474 29.2237ZM121.494 23.0851C122.399 23.0851 123.115 23.3492 123.644 23.8776C124.181 24.397 124.45 25.1626 124.45 26.1746V30.2715H123.16V26.3223C123.16 25.6328 122.994 25.1134 122.663 24.7641C122.332 24.4149 121.857 24.2403 121.239 24.2403C120.541 24.2403 119.99 24.4462 119.587 24.8582C119.184 25.2611 118.982 25.8432 118.982 26.6044V30.2715H117.693V20.3045H118.982V24.1597C119.251 23.8194 119.6 23.5552 120.03 23.3672C120.469 23.1791 120.957 23.0851 121.494 23.0851ZM126.903 23.1522H128.193V30.2715H126.903V23.1522ZM127.548 21.7821C127.297 21.7821 127.087 21.7015 126.917 21.5403C126.755 21.3791 126.675 21.1821 126.675 20.9493C126.675 20.7165 126.755 20.5195 126.917 20.3583C127.087 20.1881 127.297 20.1031 127.548 20.1031C127.799 20.1031 128.005 20.1836 128.166 20.3448C128.336 20.4971 128.421 20.6896 128.421 20.9224C128.421 21.1642 128.336 21.3702 128.166 21.5403C128.005 21.7015 127.799 21.7821 127.548 21.7821ZM137.438 20.3045V30.2715H136.202V29.1432C135.916 29.5372 135.553 29.8372 135.114 30.0431C134.676 30.2491 134.192 30.3521 133.664 30.3521C132.974 30.3521 132.356 30.1998 131.81 29.8954C131.264 29.5909 130.834 29.1655 130.521 28.6193C130.216 28.0641 130.064 27.4283 130.064 26.7119C130.064 25.9955 130.216 25.3641 130.521 24.8179C130.834 24.2716 131.264 23.8463 131.81 23.5418C132.356 23.2373 132.974 23.0851 133.664 23.0851C134.174 23.0851 134.644 23.1836 135.074 23.3806C135.504 23.5686 135.862 23.8507 136.149 24.2268V20.3045H137.438ZM133.771 29.2237C134.219 29.2237 134.626 29.1208 134.994 28.9148C135.361 28.6999 135.647 28.4044 135.853 28.0283C136.059 27.6432 136.162 27.2044 136.162 26.7119C136.162 26.2193 136.059 25.785 135.853 25.4089C135.647 25.0238 135.361 24.7283 134.994 24.5224C134.626 24.3164 134.219 24.2134 133.771 24.2134C133.314 24.2134 132.903 24.3164 132.535 24.5224C132.177 24.7283 131.891 25.0238 131.676 25.4089C131.47 25.785 131.367 26.2193 131.367 26.7119C131.367 27.2044 131.47 27.6432 131.676 28.0283C131.891 28.4044 132.177 28.6999 132.535 28.9148C132.903 29.1208 133.314 29.2237 133.771 29.2237ZM146.662 20.3045V30.2715H145.426V29.1432C145.139 29.5372 144.777 29.8372 144.338 30.0431C143.899 30.2491 143.415 30.3521 142.887 30.3521C142.198 30.3521 141.58 30.1998 141.033 29.8954C140.487 29.5909 140.057 29.1655 139.744 28.6193C139.439 28.0641 139.287 27.4283 139.287 26.7119C139.287 25.9955 139.439 25.3641 139.744 24.8179C140.057 24.2716 140.487 23.8463 141.033 23.5418C141.58 23.2373 142.198 23.0851 142.887 23.0851C143.397 23.0851 143.868 23.1836 144.297 23.3806C144.727 23.5686 145.086 23.8507 145.372 24.2268V20.3045H146.662ZM142.995 29.2237C143.442 29.2237 143.85 29.1208 144.217 28.9148C144.584 28.6999 144.871 28.4044 145.077 28.0283C145.283 27.6432 145.386 27.2044 145.386 26.7119C145.386 26.2193 145.283 25.785 145.077 25.4089C144.871 25.0238 144.584 24.7283 144.217 24.5224C143.85 24.3164 143.442 24.2134 142.995 24.2134C142.538 24.2134 142.126 24.3164 141.759 24.5224C141.401 24.7283 141.114 25.0238 140.899 25.4089C140.693 25.785 140.59 26.2193 140.59 26.7119C140.59 27.2044 140.693 27.6432 140.899 28.0283C141.114 28.4044 141.401 28.6999 141.759 28.9148C142.126 29.1208 142.538 29.2237 142.995 29.2237ZM155.603 26.7522C155.603 26.8507 155.594 26.9805 155.576 27.1417H149.8C149.881 27.7686 150.154 28.2745 150.619 28.6596C151.094 29.0357 151.681 29.2237 152.379 29.2237C153.23 29.2237 153.915 28.9372 154.434 28.3641L155.146 29.1969C154.824 29.573 154.421 29.8596 153.937 30.0566C153.463 30.2536 152.93 30.3521 152.339 30.3521C151.587 30.3521 150.919 30.1998 150.337 29.8954C149.755 29.5819 149.303 29.1476 148.981 28.5924C148.667 28.0372 148.51 27.4104 148.51 26.7119C148.51 26.0223 148.663 25.4 148.967 24.8447C149.281 24.2895 149.706 23.8597 150.243 23.5552C150.79 23.2418 151.403 23.0851 152.084 23.0851C152.764 23.0851 153.369 23.2418 153.897 23.5552C154.434 23.8597 154.851 24.2895 155.146 24.8447C155.451 25.4 155.603 26.0358 155.603 26.7522ZM152.084 24.1731C151.466 24.1731 150.946 24.3612 150.525 24.7373C150.113 25.1134 149.872 25.6059 149.8 26.2149H154.367C154.295 25.6149 154.049 25.1268 153.628 24.7507C153.216 24.3656 152.701 24.1731 152.084 24.1731ZM161.262 23.0851C162.166 23.0851 162.883 23.3492 163.411 23.8776C163.949 24.397 164.217 25.1626 164.217 26.1746V30.2715H162.928V26.3223C162.928 25.6328 162.762 25.1134 162.431 24.7641C162.099 24.4149 161.625 24.2403 161.007 24.2403C160.308 24.2403 159.758 24.4462 159.355 24.8582C158.952 25.2611 158.75 25.8432 158.75 26.6044V30.2715H157.461V23.1522H158.696V24.2268C158.956 23.8597 159.305 23.5776 159.744 23.3806C160.192 23.1836 160.698 23.0851 161.262 23.0851ZM59.3727 50.3521C58.6474 50.3521 57.9981 50.1954 57.425 49.8819C56.8608 49.5685 56.4176 49.1387 56.0952 48.5924C55.7728 48.0372 55.6116 47.4104 55.6116 46.7119C55.6116 46.0134 55.7728 45.391 56.0952 44.8447C56.4176 44.2895 56.8608 43.8597 57.425 43.5552C57.9981 43.2418 58.6474 43.0851 59.3727 43.0851C60.0175 43.0851 60.5906 43.2149 61.0921 43.4746C61.6025 43.7343 61.9965 44.1104 62.2742 44.603L61.2936 45.2343C61.0697 44.894 60.7921 44.6388 60.4608 44.4686C60.1294 44.2985 59.7623 44.2134 59.3593 44.2134C58.8936 44.2134 58.4727 44.3164 58.0966 44.5224C57.7295 44.7283 57.4384 45.0238 57.2235 45.4089C57.0176 45.785 56.9146 46.2193 56.9146 46.7119C56.9146 47.2133 57.0176 47.6566 57.2235 48.0417C57.4384 48.4178 57.7295 48.7088 58.0966 48.9148C58.4727 49.1208 58.8936 49.2237 59.3593 49.2237C59.7623 49.2237 60.1294 49.1387 60.4608 48.9685C60.7921 48.7984 61.0697 48.5432 61.2936 48.2029L62.2742 48.8208C61.9965 49.3133 61.6025 49.6939 61.0921 49.9625C60.5906 50.2222 60.0175 50.3521 59.3727 50.3521ZM67.7204 43.0851C68.6249 43.0851 69.3413 43.3492 69.8696 43.8776C70.4069 44.397 70.6756 45.1626 70.6756 46.1746V50.2715H69.3861V46.3223C69.3861 45.6328 69.2204 45.1134 68.889 44.7641C68.5577 44.4149 68.0831 44.2403 67.4652 44.2403C66.7667 44.2403 66.216 44.4462 65.813 44.8582C65.41 45.2611 65.2085 45.8432 65.2085 46.6044V50.2715H63.919V40.3045H65.2085V44.1597C65.4772 43.8194 65.8264 43.5552 66.2563 43.3672C66.6951 43.1791 67.1831 43.0851 67.7204 43.0851ZM75.7217 43.0851C76.7067 43.0851 77.459 43.3269 77.9784 43.8104C78.5067 44.294 78.7709 45.0149 78.7709 45.9731V50.2715H77.5485V49.3312C77.3336 49.6625 77.0246 49.9178 76.6217 50.0969C76.2277 50.267 75.7575 50.3521 75.2113 50.3521C74.4143 50.3521 73.774 50.1595 73.2904 49.7745C72.8158 49.3894 72.5785 48.8835 72.5785 48.2566C72.5785 47.6298 72.8068 47.1283 73.2635 46.7522C73.7202 46.3671 74.4456 46.1746 75.4396 46.1746H77.4814V45.9193C77.4814 45.3641 77.3202 44.9388 76.9978 44.6433C76.6754 44.3477 76.2008 44.2 75.5739 44.2C75.153 44.2 74.7411 44.2716 74.3381 44.4149C73.9352 44.5492 73.5949 44.7328 73.3173 44.9656L72.78 43.9985C73.1471 43.703 73.5859 43.4791 74.0964 43.3269C74.6068 43.1657 75.1486 43.0851 75.7217 43.0851ZM75.4262 49.3581C75.9187 49.3581 76.3441 49.2506 76.7023 49.0357C77.0605 48.8118 77.3202 48.4984 77.4814 48.0954V47.1014H75.4933C74.4008 47.1014 73.8546 47.4686 73.8546 48.2029C73.8546 48.5611 73.9934 48.8432 74.271 49.0491C74.5486 49.2551 74.9337 49.3581 75.4262 49.3581ZM82.4602 44.3477C82.6841 43.9358 83.0154 43.6224 83.4542 43.4075C83.893 43.1925 84.4258 43.0851 85.0527 43.0851V44.3343C84.9811 44.3253 84.8825 44.3209 84.7572 44.3209C84.0587 44.3209 83.508 44.5313 83.105 44.9522C82.711 45.3641 82.5139 45.9552 82.5139 46.7253V50.2715H81.2244V43.1522H82.4602V44.3477ZM93.4539 43.1522V49.3043C93.4539 50.5491 93.145 51.467 92.5271 52.058C91.9092 52.658 90.9868 52.958 89.76 52.958C89.0883 52.958 88.448 52.864 87.8391 52.6759C87.2302 52.4968 86.7376 52.2371 86.3615 51.8968L86.9794 50.9028C87.3108 51.1894 87.7182 51.4133 88.2018 51.5744C88.6943 51.7446 89.2003 51.8297 89.7197 51.8297C90.5525 51.8297 91.1659 51.6326 91.5599 51.2386C91.9629 50.8446 92.1644 50.2446 92.1644 49.4387V48.8745C91.8599 49.2417 91.4838 49.5193 91.0361 49.7073C90.5973 49.8864 90.1182 49.976 89.5988 49.976C88.9182 49.976 88.3003 49.8327 87.7451 49.5461C87.1988 49.2506 86.769 48.8432 86.4556 48.3238C86.1421 47.7954 85.9854 47.1954 85.9854 46.5238C85.9854 45.8522 86.1421 45.2567 86.4556 44.7373C86.769 44.2089 87.1988 43.8015 87.7451 43.5149C88.3003 43.2284 88.9182 43.0851 89.5988 43.0851C90.1361 43.0851 90.6331 43.1836 91.0898 43.3806C91.5554 43.5776 91.936 43.8686 92.2315 44.2537V43.1522H93.4539ZM89.7465 48.8476C90.2122 48.8476 90.6286 48.7491 90.9958 48.5521C91.3719 48.3551 91.6629 48.082 91.8689 47.7327C92.0838 47.3745 92.1912 46.9716 92.1912 46.5238C92.1912 45.8343 91.9629 45.2791 91.5062 44.8582C91.0495 44.4283 90.4629 44.2134 89.7465 44.2134C89.0212 44.2134 88.4301 44.4283 87.9734 44.8582C87.5167 45.2791 87.2884 45.8343 87.2884 46.5238C87.2884 46.9716 87.3914 47.3745 87.5973 47.7327C87.8122 48.082 88.1033 48.3551 88.4704 48.5521C88.8465 48.7491 89.2719 48.8476 89.7465 48.8476ZM102.419 46.7522C102.419 46.8507 102.41 46.9805 102.392 47.1417H96.6163C96.6969 47.7686 96.97 48.2745 97.4357 48.6596C97.9103 49.0357 98.4969 49.2237 99.1954 49.2237C100.046 49.2237 100.731 48.9372 101.251 48.3641L101.962 49.1969C101.64 49.573 101.237 49.8596 100.754 50.0566C100.279 50.2536 99.7461 50.3521 99.1551 50.3521C98.4029 50.3521 97.7357 50.1998 97.1536 49.8954C96.5715 49.5819 96.1193 49.1476 95.7969 48.5924C95.4835 48.0372 95.3268 47.4104 95.3268 46.7119C95.3268 46.0223 95.479 45.4 95.7835 44.8447C96.0969 44.2895 96.5223 43.8597 97.0596 43.5552C97.6059 43.2418 98.2193 43.0851 98.8999 43.0851C99.5804 43.0851 100.185 43.2418 100.713 43.5552C101.251 43.8597 101.667 44.2895 101.962 44.8447C102.267 45.4 102.419 46.0358 102.419 46.7522ZM98.8999 44.1731C98.282 44.1731 97.7626 44.3612 97.3417 44.7373C96.9298 45.1134 96.688 45.6059 96.6163 46.2149H101.183C101.112 45.6149 100.865 45.1268 100.445 44.7507C100.033 44.3656 99.5178 44.1731 98.8999 44.1731ZM106.319 50.3521C105.737 50.3521 105.177 50.276 104.64 50.1237C104.102 49.9625 103.681 49.761 103.377 49.5193L103.914 48.4984C104.228 48.7223 104.608 48.9014 105.056 49.0357C105.504 49.17 105.956 49.2372 106.413 49.2372C107.541 49.2372 108.105 48.9148 108.105 48.27C108.105 48.0551 108.029 47.885 107.877 47.7596C107.725 47.6342 107.532 47.5447 107.299 47.4909C107.075 47.4283 106.753 47.3611 106.332 47.2895C105.759 47.1999 105.289 47.0969 104.922 46.9805C104.564 46.8641 104.255 46.6671 103.995 46.3895C103.735 46.1119 103.605 45.7223 103.605 45.2209C103.605 44.5761 103.874 44.0612 104.411 43.6761C104.949 43.2821 105.669 43.0851 106.574 43.0851C107.049 43.0851 107.523 43.1433 107.998 43.2597C108.472 43.3761 108.862 43.5328 109.166 43.7298L108.616 44.7507C108.034 44.3746 107.349 44.1865 106.56 44.1865C106.014 44.1865 105.598 44.2761 105.311 44.4552C105.025 44.6343 104.881 44.8716 104.881 45.1671C104.881 45.4 104.962 45.5835 105.123 45.7179C105.284 45.8522 105.481 45.9507 105.714 46.0134C105.956 46.0761 106.292 46.1477 106.722 46.2283C107.295 46.3268 107.756 46.4343 108.105 46.5507C108.463 46.6581 108.768 46.8462 109.019 47.1148C109.269 47.3835 109.395 47.7596 109.395 48.2432C109.395 48.8879 109.117 49.4028 108.562 49.7879C108.016 50.164 107.268 50.3521 106.319 50.3521Z" fill="black"/>
</svg>
