<svg width="239" height="85" viewBox="0 0 239 85" fill="none" xmlns="http://www.w3.org/2000/svg">
<path d="M124.92 82.2245C124.847 80.9583 125.797 79.8757 127.059 79.7931C128.32 79.7197 129.408 80.6831 129.481 81.94C129.564 83.2062 128.604 84.298 127.342 84.3714C127.297 84.3714 127.251 84.3806 127.205 84.3806C125.998 84.3806 124.993 83.4448 124.92 82.2245ZM111.335 84.3714C110.074 84.2889 109.114 83.197 109.196 81.9309C109.278 80.6739 110.357 79.7105 111.619 79.7839C112.88 79.8665 113.84 80.9583 113.758 82.2245C113.685 83.4356 112.679 84.3714 111.482 84.3714C111.436 84.3714 111.381 84.3714 111.335 84.3714ZM140.561 80.5546C140.323 79.316 141.137 78.1141 142.38 77.8755C143.623 77.6461 144.812 78.4627 145.049 79.7014C145.287 80.9492 144.473 82.1511 143.23 82.3805C143.084 82.4172 142.947 82.4263 142.801 82.4263C141.722 82.4263 140.762 81.6556 140.561 80.5546ZM95.4473 82.3713C94.2132 82.1327 93.3996 80.9308 93.6281 79.683C93.8658 78.4444 95.0633 77.6278 96.3066 77.8572C97.5407 78.0957 98.3543 79.2976 98.1258 80.5363C97.9155 81.6373 96.9557 82.408 95.877 82.408C95.7398 82.408 95.5935 82.3896 95.4473 82.3713ZM155.873 76.9305C155.489 75.7194 156.147 74.4257 157.345 74.0404C158.552 73.6459 159.831 74.3064 160.224 75.5175C160.618 76.7195 159.959 78.0132 158.753 78.4077C158.524 78.4811 158.286 78.5178 158.049 78.5178C157.089 78.5178 156.193 77.9031 155.873 76.9305ZM79.9341 78.3802C78.7365 77.9856 78.0783 76.692 78.4714 75.4809C78.8645 74.2789 80.1535 73.6183 81.351 74.0129C82.5485 74.4074 83.2067 75.701 82.8136 76.903C82.5028 77.8755 81.6069 78.4903 80.6471 78.4903C80.4094 78.4903 80.1717 78.4536 79.9341 78.3802ZM170.609 71.3888C170.079 70.2419 170.564 68.8748 171.706 68.3335C172.849 67.7922 174.211 68.2877 174.75 69.4345C175.281 70.5814 174.796 71.9485 173.653 72.4806C173.343 72.6366 173.004 72.7008 172.684 72.7008C171.825 72.7008 171.002 72.2145 170.609 71.3888ZM65.0516 72.4531C63.9089 71.9118 63.4244 70.5447 63.9637 69.3978C64.5031 68.2509 65.8652 67.7647 66.9987 68.306C68.1414 68.8473 68.6351 70.2052 68.0957 71.3521C67.7026 72.187 66.8799 72.6733 66.0297 72.6733C65.7006 72.6733 65.3715 72.5999 65.0516 72.4531ZM184.532 64.0304C183.855 62.957 184.175 61.544 185.236 60.865C186.305 60.1861 187.713 60.4981 188.39 61.5715C189.066 62.6358 188.755 64.0488 187.686 64.7369C187.311 64.9754 186.881 65.0947 186.461 65.0947C185.711 65.0947 184.971 64.7186 184.532 64.0304ZM51.0375 64.7002C49.968 64.0213 49.6572 62.5991 50.3337 61.5348C51.0101 60.4614 52.427 60.1494 53.4875 60.8284C54.557 61.5073 54.8679 62.9294 54.1914 63.9937C53.7526 64.6819 53.0121 65.058 52.2625 65.058C51.842 65.058 51.4123 64.9388 51.0375 64.7002ZM197.421 54.9747C196.617 54.0022 196.754 52.5525 197.723 51.7451C198.701 50.9377 200.136 51.0753 200.941 52.0571C201.745 53.0296 201.608 54.4701 200.639 55.2775C200.21 55.6353 199.698 55.8096 199.186 55.8096C198.528 55.8096 197.869 55.5252 197.421 54.9747ZM38.0931 55.2408C37.1241 54.4334 36.9869 52.9929 37.7914 52.0112C38.5959 51.0386 40.0403 50.901 41.0093 51.7084C41.9874 52.5158 42.1154 53.9654 41.3109 54.938C40.863 55.4885 40.2048 55.7729 39.5557 55.7729C39.0347 55.7729 38.5227 55.5986 38.0931 55.2408ZM209.086 44.3867C208.163 43.5151 208.117 42.0654 208.986 41.1388C209.845 40.2213 211.289 40.1754 212.213 41.0379C213.136 41.9095 213.182 43.3591 212.313 44.2858C211.865 44.7629 211.253 45.0015 210.649 45.0015C210.092 45.0015 209.525 44.7996 209.086 44.3867ZM26.4284 44.2399C25.56 43.3224 25.6057 41.8728 26.529 41.0012C27.4523 40.1295 28.8967 40.1754 29.756 41.1021C30.6244 42.0288 30.5787 43.4784 29.6554 44.35C29.2167 44.7629 28.6499 44.9648 28.0922 44.9648C27.4797 44.9648 26.8764 44.7262 26.4284 44.2399ZM219.334 32.4225C218.319 31.6702 218.091 30.2389 218.831 29.2113C219.581 28.1837 221.007 27.9635 222.031 28.7066C223.045 29.459 223.274 30.8903 222.533 31.9179C222.085 32.5326 221.382 32.8537 220.678 32.8537C220.211 32.8537 219.745 32.7161 219.334 32.4225ZM16.2173 31.8629H16.2082C15.4677 30.8444 15.6962 29.4039 16.7201 28.6608C17.7348 27.9176 19.17 28.1378 19.9105 29.1654C20.651 30.193 20.4224 31.6243 19.4077 32.3675C18.9964 32.6702 18.5301 32.8079 18.0639 32.8079C17.36 32.8079 16.6653 32.4776 16.2173 31.8629ZM228.018 19.2656C226.912 18.6508 226.51 17.2562 227.122 16.1461C227.735 15.0359 229.124 14.6322 230.231 15.2469C231.328 15.8616 231.739 17.2562 231.126 18.3664C230.706 19.1188 229.929 19.55 229.124 19.55C228.75 19.55 228.366 19.4582 228.018 19.2656ZM7.61508 18.3022C7.01174 17.192 7.41396 15.7974 8.52009 15.1827C9.62622 14.5771 11.0158 14.9808 11.6191 16.091C12.2316 17.2012 11.8294 18.5958 10.7232 19.2013C10.3759 19.394 9.9919 19.4858 9.62624 19.4858C8.81264 19.4858 8.0356 19.0637 7.61508 18.3022ZM234.984 5.12687C233.814 4.65895 233.238 3.32857 233.704 2.14499C234.171 0.970593 235.505 0.392573 236.675 0.860498C237.846 1.32842 238.421 2.66798 237.955 3.84238C237.599 4.74153 236.739 5.29202 235.834 5.29202C235.551 5.29202 235.268 5.23697 234.984 5.12687ZM0.786359 3.75979C0.32014 2.57621 0.896025 1.24584 2.06615 0.777912C3.24541 0.309987 4.57093 0.888021 5.03715 2.06242C5.50337 3.246 4.92749 4.57638 3.75737 5.0443C3.47398 5.1544 3.19061 5.20944 2.91636 5.20944C2.0022 5.20944 1.14288 4.65894 0.786359 3.75979Z" fill="#4D4D4D"/>
</svg>
