<svg width="32" height="33" viewBox="0 0 32 33" fill="none" xmlns="http://www.w3.org/2000/svg">
<g clip-path="url(#clip0_1450_102)">
<path d="M16.7602 0.879573L18.1047 2.6714C18.2452 2.85851 18.4497 2.98721 18.6792 3.03286C18.9086 3.0785 19.1469 3.03788 19.3482 2.91878L21.276 1.77784C21.4029 1.70277 21.5456 1.65828 21.6927 1.6479C21.8398 1.63752 21.9873 1.66154 22.1235 1.71805C22.2597 1.77456 22.3809 1.86201 22.4775 1.97347C22.574 2.08494 22.6433 2.21736 22.6798 2.36024L23.2364 4.53007C23.2945 4.75664 23.4342 4.9538 23.6286 5.08379C23.8231 5.21377 24.0587 5.26743 24.2903 5.23449L26.5089 4.91833C26.6548 4.89753 26.8036 4.91098 26.9434 4.95762C27.0833 5.00426 27.2103 5.0828 27.3146 5.18703C27.4188 5.29127 27.4974 5.41833 27.544 5.55816C27.5906 5.698 27.6041 5.84677 27.5833 5.99271L27.2671 8.21135C27.2342 8.44292 27.2878 8.6785 27.4178 8.87296C27.5478 9.06743 27.745 9.20709 27.9715 9.2652L30.1414 9.8218C30.2843 9.85831 30.4167 9.92759 30.5281 10.0241C30.6396 10.1207 30.7271 10.2419 30.7836 10.3781C30.8401 10.5143 30.8641 10.6618 30.8537 10.8089C30.8433 10.956 30.7988 11.0987 30.7238 11.2256L29.5828 13.1534C29.4637 13.3547 29.4231 13.593 29.4688 13.8224C29.5144 14.0519 29.6431 14.2565 29.8302 14.3969L31.622 15.7414C31.7399 15.83 31.8356 15.9447 31.9014 16.0766C31.9673 16.2085 32.0016 16.3539 32.0016 16.5013C32.0016 16.6487 31.9673 16.7941 31.9014 16.926C31.8356 17.0579 31.7399 17.1726 31.622 17.2612L29.8302 18.6057C29.6431 18.7461 29.5144 18.9507 29.4688 19.1801C29.4231 19.4096 29.4637 19.6479 29.5828 19.8492L30.7238 21.7769C30.7988 21.9039 30.8433 22.0465 30.8537 22.1936C30.8641 22.3408 30.8401 22.4883 30.7836 22.6245C30.7271 22.7607 30.6396 22.8819 30.5281 22.9784C30.4167 23.075 30.2843 23.1443 30.1414 23.1808L27.9715 23.7374C27.745 23.7955 27.5478 23.9352 27.4178 24.1296C27.2878 24.3241 27.2342 24.5597 27.2671 24.7912L27.5833 27.0099C27.6041 27.1558 27.5906 27.3046 27.544 27.4444C27.4974 27.5843 27.4188 27.7113 27.3146 27.8156C27.2103 27.9198 27.0833 27.9983 26.9434 28.045C26.8036 28.0916 26.6548 28.1051 26.5089 28.0843L24.2903 27.7681C24.0587 27.7352 23.8231 27.7888 23.6286 27.9188C23.4342 28.0488 23.2945 28.2459 23.2364 28.4725L22.6798 30.6423C22.6433 30.7852 22.574 30.9177 22.4775 31.0291C22.3809 31.1406 22.2597 31.228 22.1235 31.2845C21.9873 31.3411 21.8398 31.3651 21.6927 31.3547C21.5456 31.3443 21.4029 31.2998 21.276 31.2247L19.3482 30.0838C19.1469 29.9647 18.9086 29.9241 18.6792 29.9697C18.4497 30.0154 18.2452 30.1441 18.1047 30.3312L16.7602 32.123C16.6717 32.2409 16.5569 32.3365 16.425 32.4024C16.2931 32.4683 16.1477 32.5026 16.0003 32.5026C15.8529 32.5026 15.7075 32.4683 15.5756 32.4024C15.4437 32.3365 15.329 32.2409 15.2404 32.123L13.8959 30.3312C13.7555 30.1441 13.5509 30.0154 13.3215 29.9697C13.092 29.9241 12.8538 29.9647 12.6524 30.0838L10.7247 31.2247C10.5977 31.2998 10.4551 31.3443 10.308 31.3547C10.1609 31.3651 10.0133 31.3411 9.87713 31.2845C9.74092 31.228 9.61973 31.1406 9.52317 31.0291C9.42661 30.9177 9.35734 30.7852 9.32082 30.6423L8.76422 28.4725C8.70611 28.2459 8.56645 28.0488 8.37199 27.9188C8.17753 27.7888 7.94194 27.7352 7.71037 27.7681L5.49173 28.0843C5.34579 28.1051 5.19702 28.0916 5.05719 28.045C4.91735 27.9983 4.79029 27.9198 4.68606 27.8156C4.58182 27.7113 4.50328 27.5843 4.45664 27.4444C4.41001 27.3046 4.39655 27.1558 4.41735 27.0099L4.73351 24.7912C4.76645 24.5597 4.71279 24.3241 4.58281 24.1296C4.45283 23.9352 4.25566 23.7955 4.02909 23.7374L1.85926 23.1808C1.71638 23.1443 1.58396 23.075 1.4725 22.9784C1.36103 22.8819 1.27358 22.7607 1.21707 22.6245C1.16056 22.4883 1.13654 22.3408 1.14692 22.1936C1.1573 22.0465 1.20179 21.9039 1.27687 21.7769L2.4178 19.8492C2.53691 19.6479 2.57753 19.4096 2.53188 19.1801C2.48623 18.9507 2.35753 18.7461 2.17043 18.6057L0.378597 17.2612C0.260728 17.1726 0.165073 17.0579 0.099195 16.926C0.0333173 16.7941 -0.000976562 16.6487 -0.000976562 16.5013C-0.000976562 16.3539 0.0333173 16.2085 0.099195 16.0766C0.165073 15.9447 0.260728 15.83 0.378597 15.7414L2.17043 14.3969C2.35753 14.2565 2.48623 14.0519 2.53188 13.8224C2.57753 13.593 2.53691 13.3547 2.4178 13.1534L1.27687 11.2256C1.20179 11.0987 1.1573 10.956 1.14692 10.8089C1.13654 10.6618 1.16056 10.5143 1.21707 10.3781C1.27358 10.2419 1.36103 10.1207 1.4725 10.0241C1.58396 9.92759 1.71638 9.85831 1.85926 9.8218L4.02909 9.2652C4.25566 9.20709 4.45283 9.06743 4.58281 8.87296C4.71279 8.6785 4.76645 8.44292 4.73351 8.21135L4.41735 5.99271C4.39655 5.84677 4.41001 5.698 4.45664 5.55816C4.50328 5.41833 4.58182 5.29127 4.68606 5.18703C4.79029 5.0828 4.91735 5.00426 5.05719 4.95762C5.19702 4.91098 5.34579 4.89753 5.49173 4.91833L7.71037 5.23449C7.94194 5.26743 8.17753 5.21377 8.37199 5.08379C8.56645 4.9538 8.70611 4.75664 8.76422 4.53007L9.32082 2.36024C9.35734 2.21736 9.42661 2.08494 9.52317 1.97347C9.61973 1.86201 9.74092 1.77456 9.87713 1.71805C10.0133 1.66154 10.1609 1.63752 10.308 1.6479C10.4551 1.65828 10.5977 1.70277 10.7247 1.77784L12.6524 2.91878C12.8538 3.03788 13.092 3.0785 13.3215 3.03286C13.5509 2.98721 13.7555 2.85851 13.8959 2.6714L15.2404 0.879573C15.329 0.761705 15.4437 0.66605 15.5756 0.600172C15.7075 0.534295 15.8529 0.5 16.0003 0.5C16.1477 0.5 16.2931 0.534295 16.425 0.600172C16.5569 0.66605 16.6717 0.761705 16.7602 0.879573Z" fill="url(#paint0_linear_1450_102)"/>
<path d="M13.7901 22.4464L8.27539 16.9317L10.2905 14.9167L13.7901 18.4163L21.7087 10.4977L23.7238 12.5128L13.7901 22.4464Z" fill="white"/>
</g>
<defs>
<linearGradient id="paint0_linear_1450_102" x1="4.68664" y1="5.18623" x2="27.314" y2="27.8136" gradientUnits="userSpaceOnUse">
<stop stop-color="#8CEBFC"/>
<stop offset="0.26" stop-color="#68C8F5"/>
<stop offset="0.58" stop-color="#43A4EE"/>
<stop offset="0.84" stop-color="#2B8EEA"/>
<stop offset="1" stop-color="#2386E8"/>
</linearGradient>
<clipPath id="clip0_1450_102">
<rect width="32" height="32" fill="white" transform="translate(0 0.5)"/>
</clipPath>
</defs>
</svg>
