<svg width="716" height="837" viewBox="0 0 716 837" fill="none" xmlns="http://www.w3.org/2000/svg">
<path d="M715.51 47.41V790.73C715.51 808.56 704.51 823.96 688.43 831.43C681.507 834.677 673.947 836.344 666.3 836.31H431.3C431.235 836.407 431.14 836.48 431.03 836.52L429.67 836.31H49.3402C22.1702 836.31 0.13026 815.94 0.13026 790.73V47.41C0.11996 45.0634 0.320745 42.7206 0.730235 40.41C1.43083 36.141 2.75143 31.9972 4.65022 28.11C6.09349 25.2334 7.80798 22.501 9.77027 19.95C10.4303 19.09 11.1202 18.27 11.8702 17.45C12.8703 16.2297 13.9781 15.1018 15.1802 14.08C15.7402 13.57 16.3403 13.01 16.9503 12.49C18.7961 10.9548 20.7403 9.5418 22.7703 8.25998C26.2256 6.10567 29.9163 4.35428 33.7703 3.04001C39.4597 1.11794 45.4249 0.138345 51.4302 0.139984H664.1C671.191 0.115094 678.219 1.4738 684.79 4.13998C685.68 4.52998 686.57 4.91001 687.45 5.35001C691.406 7.19382 695.104 9.54711 698.45 12.35C699.1 12.91 699.75 13.47 700.36 14.03C701.642 15.1364 702.826 16.3509 703.9 17.66C704.6 18.48 705.3 19.3 705.9 20.12C707.167 21.7734 708.336 23.4997 709.4 25.29C710.419 27.1083 711.337 28.9811 712.15 30.9C713.351 33.8182 714.226 36.8599 714.76 39.97C714.9 40.79 715.04 41.65 715.13 42.51C715.35 44.1347 715.477 45.7708 715.51 47.41Z" fill="#EBEBEB"/>
<g style="mix-blend-mode:multiply">
<path d="M572.63 443.02L495.93 473.18C494.728 473.671 493.385 473.69 492.169 473.234C490.953 472.778 489.953 471.881 489.37 470.72L485.6 462.5C485.352 461.93 485.224 461.315 485.225 460.694C485.225 460.072 485.353 459.457 485.602 458.888C485.851 458.318 486.214 457.806 486.67 457.383C487.126 456.96 487.664 456.636 488.25 456.43L564.98 426.27C566.18 425.779 567.521 425.759 568.735 426.213C569.949 426.667 570.947 427.563 571.53 428.72L575.3 436.94C575.551 437.512 575.681 438.129 575.681 438.753C575.681 439.378 575.551 439.995 575.3 440.566C575.049 441.138 574.682 441.651 574.223 442.073C573.763 442.496 573.221 442.818 572.63 443.02Z" fill="#EAEFF7"/>
</g>
<g style="mix-blend-mode:multiply">
<path d="M610.3 458.25L533.58 488.41C532.379 488.904 531.036 488.926 529.819 488.471C528.603 488.017 527.603 487.12 527.02 485.96L523.25 477.74C523 477.169 522.871 476.554 522.87 475.931C522.87 475.308 522.998 474.692 523.247 474.121C523.495 473.55 523.86 473.037 524.316 472.613C524.773 472.19 525.312 471.865 525.9 471.66L602.62 441.5C603.822 441.012 605.164 440.994 606.38 441.449C607.595 441.905 608.595 442.801 609.18 443.96L612.95 452.18C613.199 452.75 613.328 453.365 613.329 453.987C613.329 454.609 613.201 455.224 612.952 455.794C612.703 456.364 612.339 456.877 611.883 457.3C611.426 457.722 610.887 458.046 610.3 458.25Z" fill="#EAEFF7"/>
</g>
<g style="mix-blend-mode:multiply">
<path d="M647.68 474.55L570.93 504.71C569.729 505.201 568.387 505.222 567.171 504.768C565.955 504.314 564.955 503.418 564.37 502.259L560.6 494.039C560.35 493.469 560.221 492.853 560.221 492.23C560.22 491.608 560.348 490.992 560.597 490.421C560.846 489.85 561.21 489.337 561.667 488.913C562.123 488.49 562.662 488.165 563.25 487.96L639.97 457.8C641.173 457.309 642.516 457.29 643.732 457.746C644.948 458.202 645.947 459.099 646.53 460.259L650.3 468.479C650.55 469.047 650.681 469.661 650.683 470.281C650.686 470.902 650.56 471.516 650.314 472.086C650.068 472.656 649.707 473.169 649.254 473.592C648.801 474.016 648.265 474.342 647.68 474.55Z" fill="#EAEFF7"/>
</g>
<g style="mix-blend-mode:multiply">
<path d="M110.68 78.0904L28.3899 90.3304C27.1229 90.5514 25.8194 90.2757 24.7504 89.5606C23.6814 88.8454 22.9291 87.7459 22.6498 86.4904L21.1299 77.6704C21.0432 77.0484 21.0823 76.4154 21.2448 75.8089C21.4074 75.2023 21.6902 74.6346 22.0763 74.1394C22.4624 73.6442 22.944 73.2315 23.4926 72.9259C24.0412 72.6204 24.6456 72.428 25.2699 72.3604L107.57 60.1304C108.835 59.9121 110.136 60.1892 111.203 60.9041C112.27 61.619 113.021 62.7169 113.3 63.9704L114.83 72.7904C114.915 73.4123 114.874 74.0451 114.711 74.651C114.547 75.257 114.263 75.8239 113.876 76.3182C113.489 76.8124 113.007 77.2239 112.458 77.5284C111.909 77.8328 111.304 78.0239 110.68 78.0904Z" fill="#EAEFF7"/>
</g>
<g style="mix-blend-mode:multiply">
<path d="M122.71 44.9497L40.4099 57.1897C39.1444 57.408 37.8434 57.1309 36.7767 56.416C35.7099 55.7011 34.9591 54.6031 34.6799 53.3497L33.1498 44.5297C33.0646 43.9072 33.1052 43.2739 33.2689 42.6673C33.4327 42.0608 33.7164 41.4932 34.1033 40.9982C34.4902 40.5031 34.9724 40.0907 35.5214 39.7852C36.0705 39.4797 36.6752 39.2874 37.2999 39.2197L119.59 26.9897C120.855 26.7715 122.156 27.0486 123.223 27.7635C124.29 28.4784 125.041 29.5763 125.32 30.8297L126.85 39.6497C126.937 40.2711 126.897 40.9036 126.735 41.5095C126.572 42.1154 126.289 42.6825 125.903 43.1769C125.517 43.6714 125.035 44.0831 124.486 44.3876C123.938 44.6922 123.334 44.8833 122.71 44.9497Z" fill="#EAEFF7"/>
</g>
<g style="mix-blend-mode:multiply">
<path d="M399.26 680.41L341.68 675.41C341.141 675.386 340.611 675.254 340.123 675.023C339.635 674.791 339.198 674.465 338.838 674.063C338.477 673.66 338.201 673.19 338.024 672.68C337.848 672.169 337.775 671.629 337.81 671.09L338.81 660.87C338.967 659.783 339.542 658.801 340.412 658.132C341.283 657.464 342.38 657.161 343.47 657.29L401.06 662.24C401.599 662.265 402.127 662.398 402.614 662.629C403.101 662.861 403.537 663.188 403.897 663.59C404.256 663.992 404.531 664.462 404.707 664.972C404.883 665.482 404.955 666.022 404.92 666.56L403.92 676.78C403.775 677.875 403.206 678.87 402.334 679.549C401.462 680.228 400.358 680.537 399.26 680.41Z" fill="#EAEFF7"/>
</g>
<g style="mix-blend-mode:multiply">
<path d="M172.6 668.97L118.25 650.67C117.737 650.519 117.261 650.265 116.851 649.923C116.441 649.58 116.105 649.158 115.865 648.68C115.625 648.203 115.486 647.682 115.455 647.148C115.425 646.615 115.505 646.081 115.69 645.58L119.48 635.94C119.924 634.923 120.738 634.112 121.757 633.672C122.776 633.232 123.925 633.196 124.97 633.57L179.31 651.87C179.822 652.019 180.298 652.273 180.708 652.614C181.119 652.955 181.455 653.376 181.696 653.853C181.937 654.329 182.077 654.849 182.109 655.382C182.141 655.915 182.063 656.449 181.88 656.95L178.09 666.6C177.645 667.617 176.831 668.427 175.812 668.867C174.793 669.307 173.645 669.344 172.6 668.97Z" fill="#EAEFF7"/>
</g>
<g style="mix-blend-mode:multiply">
<path d="M698.86 721.15L655.64 717.44C655.168 717.417 654.704 717.3 654.277 717.097C653.85 716.893 653.468 716.607 653.152 716.254C652.837 715.902 652.595 715.49 652.44 715.043C652.285 714.596 652.22 714.122 652.25 713.65L653.37 702.46C653.507 701.506 654.012 700.644 654.776 700.057C655.54 699.47 656.504 699.206 657.46 699.32L700.68 703.03C701.153 703.053 701.616 703.17 702.043 703.373C702.47 703.577 702.853 703.863 703.168 704.216C703.484 704.568 703.726 704.98 703.881 705.427C704.036 705.874 704.1 706.348 704.07 706.82L702.93 718.01C702.798 718.962 702.298 719.824 701.537 720.412C700.776 720.999 699.815 721.264 698.86 721.15Z" fill="#EAEFF7"/>
</g>
<g style="mix-blend-mode:multiply">
<path d="M426.75 437.27L386.75 452.98C385.848 453.348 384.841 453.364 383.93 453.023C383.018 452.682 382.268 452.009 381.83 451.14L377.09 440.79C376.903 440.362 376.806 439.899 376.807 439.431C376.807 438.963 376.904 438.501 377.092 438.073C377.28 437.644 377.554 437.26 377.898 436.942C378.242 436.625 378.648 436.383 379.09 436.23L419.09 420.52C419.991 420.152 420.998 420.137 421.91 420.478C422.821 420.819 423.571 421.491 424.01 422.36L428.76 432.72C428.946 433.149 429.042 433.611 429.041 434.079C429.04 434.546 428.942 435.008 428.753 435.436C428.564 435.864 428.288 436.247 427.943 436.563C427.599 436.879 427.192 437.12 426.75 437.27Z" fill="#EAEFF7"/>
</g>
<g style="mix-blend-mode:multiply">
<path d="M330.62 476.04L313.62 439.04C313.433 438.613 313.336 438.151 313.337 437.684C313.337 437.217 313.435 436.755 313.623 436.327C313.811 435.9 314.085 435.516 314.429 435.2C314.772 434.884 315.178 434.642 315.62 434.49L326.8 430.091C327.701 429.722 328.708 429.707 329.62 430.048C330.531 430.389 331.281 431.061 331.72 431.93L348.72 468.93C348.907 469.358 349.003 469.82 349.002 470.287C349.002 470.754 348.904 471.216 348.716 471.644C348.529 472.071 348.254 472.455 347.91 472.771C347.567 473.087 347.161 473.329 346.72 473.48L335.54 477.88C334.638 478.246 333.632 478.26 332.721 477.92C331.81 477.579 331.06 476.908 330.62 476.04Z" fill="#EAEFF7"/>
</g>
<g style="mix-blend-mode:multiply">
<path d="M61.51 508.72L36.45 475.89C36.1673 475.522 35.9652 475.098 35.8569 474.647C35.7486 474.195 35.7365 473.726 35.8214 473.27C35.9063 472.813 36.0862 472.38 36.3496 471.997C36.6129 471.615 36.9537 471.292 37.3499 471.05L47.26 464.56C48.079 464.024 49.0683 463.812 50.0352 463.966C51.002 464.119 51.8771 464.627 52.4899 465.39L77.56 498.21C77.8411 498.579 78.0419 499.003 78.1493 499.454C78.2567 499.905 78.2685 500.374 78.1837 500.83C78.0989 501.286 77.9194 501.719 77.657 502.102C77.3946 502.484 77.0549 502.807 76.6599 503.05L66.7399 509.55C65.9168 510.073 64.931 510.277 63.9679 510.125C63.0048 509.972 62.1307 509.472 61.51 508.72Z" fill="#EAEFF7"/>
</g>
<g style="mix-blend-mode:multiply">
<path d="M355.38 167.41L317.79 147.31C317.373 147.106 317.003 146.816 316.704 146.46C316.405 146.104 316.184 145.69 316.055 145.243C315.926 144.797 315.892 144.328 315.955 143.868C316.017 143.407 316.176 142.965 316.42 142.57L322.49 132.83C323.031 132.015 323.858 131.432 324.807 131.195C325.756 130.958 326.759 131.085 327.62 131.55L365.21 151.65C365.628 151.855 365.998 152.146 366.297 152.502C366.596 152.859 366.817 153.274 366.946 153.722C367.075 154.169 367.109 154.638 367.046 155.099C366.983 155.561 366.824 156.004 366.58 156.4L360.51 166.14C359.966 166.951 359.139 167.531 358.19 167.766C357.242 168.001 356.24 167.874 355.38 167.41Z" fill="#EAEFF7"/>
</g>
<g style="mix-blend-mode:multiply">
<path d="M301.58 143.11L263.98 123.01C263.562 122.804 263.192 122.514 262.893 122.157C262.594 121.8 262.373 121.385 262.244 120.938C262.115 120.49 262.081 120.021 262.144 119.56C262.207 119.099 262.366 118.656 262.61 118.26L268.68 108.52C269.224 107.708 270.051 107.128 271 106.893C271.948 106.659 272.95 106.786 273.81 107.25L311.4 127.35C311.819 127.554 312.19 127.843 312.49 128.2C312.79 128.557 313.011 128.972 313.141 129.42C313.27 129.868 313.303 130.338 313.24 130.799C313.176 131.261 313.016 131.704 312.77 132.1L306.7 141.84C306.159 142.652 305.334 143.233 304.386 143.468C303.439 143.703 302.438 143.575 301.58 143.11Z" fill="#EAEFF7"/>
</g>
<g style="mix-blend-mode:multiply">
<path d="M192.05 64.1396L175.47 26.9896C175.286 26.5621 175.192 26.1012 175.194 25.6358C175.196 25.1704 175.294 24.7104 175.482 24.2845C175.67 23.8586 175.943 23.4759 176.285 23.1602C176.627 22.8445 177.03 22.6026 177.47 22.4496L188.7 18.1496C189.605 17.7907 190.611 17.786 191.519 18.1363C192.428 18.4865 193.17 19.1661 193.6 20.0396L210.18 57.1897C210.362 57.6174 210.455 58.078 210.452 58.543C210.449 59.008 210.351 59.4674 210.163 59.8929C209.976 60.3184 209.703 60.7009 209.362 61.0169C209.021 61.3328 208.618 61.5754 208.18 61.7296L196.93 66.0196C196.029 66.3758 195.027 66.3802 194.123 66.0319C193.219 65.6837 192.479 65.0082 192.05 64.1396Z" fill="#EAEFF7"/>
</g>
<g style="mix-blend-mode:multiply">
<path d="M245.93 60.2197L229.34 23.0697C229.156 22.6421 229.062 22.1813 229.064 21.7159C229.067 21.2505 229.164 20.7905 229.352 20.3646C229.54 19.9387 229.813 19.556 230.155 19.2403C230.497 18.9246 230.9 18.6827 231.34 18.5297L242.56 14.2397C243.463 13.8753 244.471 13.8666 245.38 14.2155C246.289 14.5643 247.032 15.2448 247.46 16.1197L264.05 53.2697C264.234 53.6973 264.327 54.1582 264.325 54.6236C264.323 55.089 264.225 55.5489 264.038 55.9748C263.85 56.4008 263.577 56.7835 263.235 57.0992C262.893 57.4149 262.489 57.6567 262.05 57.8097L250.83 62.0997C249.927 62.4618 248.92 62.4692 248.011 62.1206C247.103 61.772 246.359 61.0931 245.93 60.2197Z" fill="#EAEFF7"/>
</g>
<g style="mix-blend-mode:multiply">
<path d="M31.0097 512.79L5.92965 479.97C5.64847 479.601 5.44772 479.177 5.3403 478.726C5.23287 478.275 5.22114 477.806 5.30594 477.35C5.39073 476.894 5.57017 476.461 5.83261 476.078C6.09505 475.696 6.4347 475.373 6.82968 475.13L16.7497 468.63C17.5728 468.107 18.5586 467.902 19.5217 468.055C20.4848 468.208 21.3589 468.708 21.9796 469.46L47.0396 502.29C47.3223 502.658 47.5244 503.082 47.6327 503.533C47.741 503.985 47.7531 504.454 47.6682 504.91C47.5833 505.367 47.4034 505.8 47.14 506.183C46.8767 506.565 46.5359 506.888 46.1397 507.13L36.2296 513.62C35.4114 514.153 34.4243 514.363 33.4598 514.21C32.4953 514.056 31.6222 513.55 31.0097 512.79Z" fill="#EAEFF7"/>
</g>
<g style="mix-blend-mode:multiply">
<path d="M93.6699 464.41L77.32 428.73C77.0925 428.214 76.9743 427.657 76.9727 427.094C76.9711 426.531 77.0862 425.973 77.3107 425.456C77.5352 424.94 77.8643 424.475 78.2772 424.092C78.6902 423.709 79.178 423.415 79.71 423.23L96.9299 416.51C98.0163 416.065 99.2305 416.046 100.33 416.458C101.429 416.869 102.333 417.681 102.86 418.73L119.19 454.41C119.414 454.926 119.529 455.483 119.529 456.046C119.528 456.609 119.412 457.166 119.187 457.682C118.962 458.198 118.633 458.662 118.22 459.045C117.808 459.429 117.321 459.723 116.79 459.91L99.6099 466.66C98.5186 467.103 97.3001 467.117 96.1985 466.7C95.097 466.283 94.1938 465.465 93.6699 464.41Z" fill="#EAEFF7"/>
</g>
<g style="mix-blend-mode:multiply">
<path d="M158.04 155.029L133.87 123.409C133.529 122.965 133.286 122.454 133.155 121.91C133.025 121.366 133.01 120.8 133.112 120.249C133.213 119.699 133.43 119.176 133.746 118.714C134.063 118.253 134.473 117.863 134.95 117.569L150.19 107.569C151.178 106.924 152.371 106.669 153.537 106.854C154.703 107.038 155.759 107.65 156.5 108.569L180.67 140.219C181.01 140.664 181.253 141.175 181.384 141.719C181.515 142.263 181.53 142.829 181.428 143.379C181.326 143.93 181.11 144.453 180.793 144.915C180.476 145.376 180.067 145.766 179.59 146.059L164.35 156.059C163.358 156.702 162.162 156.952 160.996 156.762C159.83 156.571 158.776 155.954 158.04 155.029Z" fill="#EAEFF7"/>
</g>
<g style="mix-blend-mode:multiply">
<path d="M463.98 386.29L402.12 410.61C400.989 411.07 399.727 411.088 398.583 410.66C397.44 410.232 396.5 409.39 395.95 408.3L391.95 399.57C391.714 399.034 391.593 398.456 391.592 397.871C391.591 397.285 391.711 396.706 391.945 396.17C392.179 395.634 392.522 395.152 392.951 394.754C393.38 394.357 393.887 394.052 394.44 393.86L456.3 369.54C457.43 369.077 458.693 369.058 459.837 369.487C460.981 369.915 461.921 370.759 462.47 371.85L466.47 380.58C466.705 381.116 466.827 381.694 466.828 382.279C466.828 382.865 466.708 383.444 466.474 383.98C466.24 384.516 465.898 384.998 465.469 385.396C465.039 385.793 464.532 386.098 463.98 386.29Z" fill="#EAEFF7"/>
</g>
<g style="mix-blend-mode:multiply">
<path d="M254.46 171.74L199.59 207.67C198.563 208.335 197.329 208.6 196.12 208.415C194.911 208.231 193.812 207.61 193.03 206.67L187.12 198.93C186.766 198.467 186.514 197.935 186.379 197.368C186.244 196.801 186.229 196.212 186.336 195.64C186.442 195.067 186.668 194.523 186.997 194.042C187.327 193.562 187.754 193.156 188.25 192.85L243.12 156.92C244.146 156.256 245.381 155.991 246.59 156.175C247.798 156.36 248.898 156.98 249.68 157.92L255.59 165.66C255.945 166.123 256.198 166.655 256.334 167.222C256.47 167.789 256.485 168.379 256.379 168.952C256.272 169.525 256.046 170.07 255.716 170.55C255.385 171.031 254.957 171.436 254.46 171.74Z" fill="#EAEFF7"/>
</g>
<g style="mix-blend-mode:multiply">
<path d="M528.27 745.17L470.68 740.17C470.142 740.146 469.614 740.015 469.127 739.784C468.64 739.553 468.204 739.228 467.845 738.826C467.485 738.425 467.209 737.956 467.033 737.447C466.857 736.937 466.785 736.398 466.82 735.86L467.82 725.64C467.974 724.553 468.549 723.569 469.42 722.9C470.291 722.23 471.39 721.929 472.48 722.06L530.06 727.06C530.603 727.083 531.136 727.214 531.626 727.447C532.117 727.68 532.556 728.009 532.917 728.415C533.279 728.821 533.554 729.295 533.728 729.81C533.902 730.324 533.971 730.869 533.93 731.41L532.93 741.63C532.764 742.709 532.185 743.682 531.316 744.342C530.446 745.003 529.354 745.3 528.27 745.17Z" fill="#EAEFF7"/>
</g>
<g style="mix-blend-mode:multiply">
<path d="M533.1 717.79L475.52 712.79C474.982 712.765 474.454 712.634 473.967 712.403C473.48 712.173 473.044 711.847 472.684 711.446C472.325 711.044 472.049 710.575 471.873 710.066C471.697 709.557 471.625 709.017 471.66 708.48L472.66 698.25C472.817 697.163 473.392 696.181 474.262 695.512C475.133 694.843 476.23 694.541 477.32 694.67L534.9 699.67C535.439 699.692 535.968 699.823 536.456 700.053C536.944 700.283 537.381 700.609 537.742 701.01C538.103 701.412 538.379 701.881 538.556 702.391C538.732 702.901 538.805 703.441 538.77 703.98L537.77 714.2C537.621 715.292 537.047 716.282 536.172 716.954C535.298 717.626 534.194 717.926 533.1 717.79Z" fill="#EAEFF7"/>
</g>
<g style="mix-blend-mode:multiply">
<path d="M366.72 743.66L352.79 691.66C352.673 691.139 352.661 690.601 352.755 690.076C352.85 689.55 353.048 689.05 353.339 688.602C353.629 688.155 354.007 687.771 354.448 687.471C354.89 687.172 355.387 686.964 355.91 686.86L366.67 684.38C367.742 684.109 368.876 684.259 369.841 684.798C370.806 685.337 371.528 686.225 371.86 687.28L385.79 739.28C385.908 739.801 385.921 740.34 385.828 740.867C385.734 741.393 385.536 741.895 385.245 742.343C384.954 742.792 384.577 743.177 384.134 743.477C383.692 743.777 383.194 743.985 382.67 744.09L371.91 746.56C370.838 746.833 369.702 746.684 368.737 746.144C367.771 745.605 367.049 744.716 366.72 743.66Z" fill="#EAEFF7"/>
</g>
<g style="mix-blend-mode:multiply">
<path d="M143.85 161.1C143.85 161.1 167.27 167.49 172.27 184.1C177.27 200.71 156.54 213.54 151.86 219.01C147.18 224.48 94.69 219.56 94.69 219.56C94.69 219.56 42.89 197.11 41.98 184.1C41.07 171.09 -0.410007 169.04 48.39 153.3C97.19 137.56 74 129.3 97.18 137.56C120.36 145.82 143.85 161.1 143.85 161.1Z" fill="#EAEFF7"/>
</g>
<g style="mix-blend-mode:multiply">
<path d="M620.67 111.96C620.67 111.96 644.09 118.35 649.09 134.96C654.09 151.57 633.37 164.4 628.69 169.87C624.01 175.34 571.52 170.42 571.52 170.42C571.52 170.42 519.71 147.97 518.8 134.96C517.89 121.95 476.42 119.9 525.21 104.16C574 88.4197 550.83 80.1597 574 88.4197C597.17 96.6797 620.67 111.96 620.67 111.96Z" fill="#EAEFF7"/>
</g>
<g style="mix-blend-mode:multiply">
<path d="M196.76 399.85C195.203 403.312 192.875 406.373 189.955 408.8C187.035 411.226 183.599 412.953 179.91 413.85C167.14 417.05 156.27 408.59 151.81 406.85C147.35 405.11 149.13 381.44 149.13 381.44C149.13 381.44 164.65 357.05 174.79 355.87C184.93 354.69 184.9 336.12 199.12 356.87C213.34 377.62 218.86 366.87 213.35 377.66C207.84 388.45 196.76 399.85 196.76 399.85Z" fill="#EAEFF7"/>
</g>
<g style="mix-blend-mode:multiply">
<path d="M0.120117 272.6C39.4301 259.48 131.01 241.55 152.12 254.6C173.23 267.65 254.12 266.86 254.12 266.86L328.12 225.4C328.12 225.4 439.25 250.93 438.21 198.16C437.17 145.39 470.93 62.2698 513.93 42.7098C556.93 23.1498 560.25 0.0498047 560.25 0.0498047H522.87C522.87 0.0498047 502.78 36.7398 484.07 39.9898C465.36 43.2398 410.71 89.3298 415.74 114.1C420.77 138.87 415.74 182.28 415.74 182.28L368.93 196.41L308.12 187.41C308.12 187.41 281.31 219.52 277.7 225.41C274.09 231.3 242.05 242.58 222.97 236.68C203.89 230.78 147.37 231.25 147.37 231.25C147.37 231.25 84.7101 254.63 73.5801 240.84C62.4501 227.05 31.4201 233.41 31.4201 233.41L0.120117 240.83V272.6Z" fill="#EAEFF7"/>
</g>
<g style="mix-blend-mode:multiply">
<path d="M715.51 428.58V475.49C711.36 479.03 705.21 483.65 698.36 486.36C693.14 488.52 687.5 489.47 682.14 488C679.592 487.443 676.932 487.716 674.55 488.78C666.11 492.02 656.04 502.16 647.47 512.26C642.76 517.83 638.47 523.44 635.31 527.84C631.53 533.06 629.2 536.6 629.2 536.6C629.2 536.6 584.2 568.28 565.08 574.1C558.08 576.22 551.24 581.18 545.37 586.88C544.01 588.21 542.71 589.55 541.5 590.88C540.29 592.21 538.89 593.88 537.72 595.33C531.72 602.97 528.08 610.33 528.5 613.33C529.38 620.02 528.64 660.63 528.64 660.63L528.36 660.76L520.48 664.6L511.48 668.95L474.1 687.12L445.73 724.41C445.73 724.41 453.65 736.88 464.28 750.69C469.862 758.165 475.872 765.31 482.28 772.09C484.75 774.64 487.22 777.01 489.64 779.09C500.83 788.59 501.39 813.71 497.43 836.28H463.92C462.601 825.477 460.421 814.796 457.4 804.34C455.67 798.08 453.62 791.87 451.4 785.74C449.59 780.86 447.63 776.03 445.58 771.33C442.46 764.21 439.01 757.33 435.37 750.78C430.211 741.366 424.185 732.454 417.37 724.16C397.37 700.29 423.43 676.64 449.37 660.76C451.94 659.16 454.5 657.7 457.06 656.27C459.62 654.84 461.96 653.55 464.33 652.34C477.57 645.44 488.05 641.34 488.05 641.34L520.63 567.07C520.714 567.025 520.792 566.967 520.86 566.9L521.19 566.68C521.89 566.16 523.38 565.17 525.43 563.79C526.69 562.88 528.18 561.89 529.9 560.73C534.98 557.36 541.78 552.91 549.38 548.17C569.84 535.57 596.12 521.11 610.29 520.42C623.57 519.77 646.92 501.52 669.47 479.63C674.92 474.37 680.33 468.85 685.55 463.32C697.15 451.1 707.68 438.76 715.51 428.58Z" fill="#EAEFF7"/>
</g>
<g style="mix-blend-mode:multiply">
<path d="M224.82 793.41C224.44 796.873 223.815 800.305 222.95 803.68C222.81 804.11 222.72 804.54 222.58 804.97H53.04C50.5667 802.037 48.2834 799.13 46.1901 796.25C40.3601 788.05 36.4901 780.11 36.1901 773.25C34.8901 742.25 -24.95 737.39 45.4201 699.89C47.2801 698.89 49.06 697.89 50.78 696.95C54.27 694.95 57.49 693.07 60.47 691.21C110.93 659.5 85.1101 644.41 115.82 662.41C124.94 667.857 133.674 673.924 141.96 680.57C144.8 682.86 147.6 685.19 150.3 687.48C161.807 697.236 172.776 707.608 183.16 718.55C183.16 718.55 216.94 733.74 224.16 773.27C225.392 779.912 225.615 786.702 224.82 793.41Z" fill="#EAEFF7"/>
</g>
<g style="mix-blend-mode:multiply">
<path d="M532.62 229.23C477.62 265.68 391.73 266.36 438.21 318.99C484.69 371.62 543.21 430.1 585.21 395.16C627.21 360.22 617.66 364.65 640.05 315.16C662.44 265.67 684.35 224.84 612.64 211.89C540.93 198.94 532.62 229.23 532.62 229.23Z" fill="#EAEFF7"/>
</g>
<g style="mix-blend-mode:multiply">
<path d="M381.629 545.41C346.629 562.09 291.97 562.41 321.55 586.5C351.13 610.59 388.35 637.36 415.11 621.36C441.87 605.36 435.759 607.36 450.009 584.75C464.259 562.14 478.2 543.4 432.56 537.47C386.92 531.54 381.629 545.41 381.629 545.41Z" fill="#EAEFF7"/>
</g>
<g style="mix-blend-mode:multiply">
<path d="M223.93 743.29C240.39 767.18 238.34 802.94 265.6 785.09C292.86 767.24 323.33 744.58 307.26 726.09C291.19 707.6 293.11 711.73 269.32 701.02C245.53 690.31 225.98 680.019 217.6 709.499C209.22 738.979 223.93 743.29 223.93 743.29Z" fill="#EAEFF7"/>
</g>
<path d="M429.65 836.28H411.71C412.05 835.825 412.479 835.444 412.97 835.16C413.3 834.98 413.62 834.81 413.97 834.59C414.053 834.59 414.135 834.561 414.2 834.51C415.134 834.218 416.122 834.143 417.09 834.29L429.65 836.28Z" fill="white"/>
<path d="M715.499 517.41V562.7L685.93 509.32L680.8 500.04L616.72 384.49L606.52 366.12L562.34 286.41L557.24 277.19L505.81 184.41L500.67 175.16L460.749 103.16L455.56 93.8001L406.18 4.80011C405.362 3.36252 404.941 1.73367 404.96 0.0800781H428.68L476.74 86.7701L481.869 96.0101L546.04 211.77L551.17 221.01L626.61 357.08L636.81 375.45L715.499 517.41Z" fill="white"/>
<path d="M715.5 316.89V339.89L636.81 375.41L616.72 384.48L466.04 452.6L455.96 457.12L343.96 507.71L333.96 512.23L321.96 517.65L235.6 556.65L212.76 566.97L124.56 606.84L111.29 612.84L89.9302 622.55C89.6802 622.67 89.4002 622.78 89.1202 622.9L45.6902 642.54L35.6102 647.09L5.04016 660.91C3.50569 661.594 1.84023 661.936 0.160156 661.91V640.11L71.8802 607.72L92.5602 598.39L208.42 546.03C208.7 545.88 208.98 545.77 209.26 545.65L300.97 504.22L321.12 495.09L371.12 472.49L381.12 467.97L528.58 401.35L538.58 396.81L606.5 366.12L626.59 357.05L715.5 316.89Z" fill="white"/>
<path d="M354.63 836.28H332.3C334.87 777.41 325.5 729.85 310.91 691.96C309.143 687.294 307.28 682.807 305.32 678.5C274.8 609.5 227.73 576.22 212.82 567.02C209.97 565.25 208.3 564.35 208.11 564.26C202.75 561.54 200.75 555.26 203.73 550.26C205.002 548.155 206.936 546.53 209.23 545.64C210.783 545.049 212.441 544.786 214.1 544.868C215.76 544.951 217.384 545.377 218.87 546.12C224.698 549.256 230.305 552.787 235.65 556.69C251.87 568.21 277.31 589.75 300.65 624.14C301.17 624.92 301.65 625.7 302.24 626.47C305.5 631.47 308.81 636.79 312.07 642.47C328.52 671.17 343.76 709.32 350.84 758.05C351.84 764.69 352.66 771.56 353.31 778.63C355.038 797.796 355.479 817.056 354.63 836.28Z" fill="white"/>
<path d="M715.5 149.47V160.22L689.25 169.93L551.17 220.98L540.25 224.98C539.594 225.235 538.895 225.364 538.19 225.36C537.106 225.386 536.038 225.092 535.12 224.514C534.202 223.936 533.475 223.099 533.03 222.11C532.758 221.469 532.623 220.778 532.633 220.082C532.644 219.386 532.799 218.699 533.09 218.067C533.381 217.434 533.801 216.869 534.323 216.408C534.844 215.947 535.457 215.6 536.12 215.39L546.04 211.71L679.361 162.41L689.78 158.56L713.44 149.81C714.101 149.571 714.799 149.456 715.5 149.47Z" fill="white"/>
<path d="M689.93 169.64C689.716 169.749 689.495 169.846 689.27 169.93C688.628 170.159 687.952 170.278 687.27 170.28C686.285 170.289 685.315 170.042 684.455 169.563C683.594 169.084 682.872 168.391 682.36 167.55L679.36 162.45L611.28 45.9398L605.93 36.7898L585.93 2.50977C585.486 1.76596 585.251 0.916077 585.25 0.0498047H597.25L616.37 32.7898L621.72 41.9498L689.86 158.6L692.24 162.66C692.575 163.264 692.781 163.931 692.846 164.619C692.91 165.306 692.831 166 692.614 166.656C692.397 167.312 692.047 167.915 691.585 168.429C691.123 168.943 690.559 169.355 689.93 169.64Z" fill="white"/>
<path d="M322.64 696.16C321.89 696.158 321.147 696.015 320.45 695.74L102.24 609.24C101.582 609.013 100.978 608.652 100.467 608.179C99.9565 607.706 99.5502 607.131 99.2744 606.492C98.9986 605.853 98.8593 605.163 98.8654 604.467C98.8716 603.771 99.023 603.084 99.31 602.45C99.9637 601.158 101.081 600.161 102.438 599.659C103.796 599.156 105.293 599.185 106.63 599.74L324.84 686.24C325.497 686.466 326.1 686.827 326.609 687.299C327.119 687.772 327.525 688.345 327.801 688.983C328.076 689.621 328.216 690.31 328.211 691.005C328.206 691.7 328.055 692.386 327.77 693.02C327.302 693.977 326.571 694.781 325.662 695.337C324.754 695.893 323.705 696.178 322.64 696.16Z" fill="white"/>
<path d="M217.93 654.76L217.7 655.02L164.85 718.76L104.85 791.18L97.4804 800.07L67.4804 836.23H53.4404L60.7104 827.47L89.1404 793.16L97.2904 783.27L156.52 711.81L207.13 650.81L209.13 648.48C210.069 647.373 211.387 646.657 212.827 646.472C214.266 646.287 215.722 646.647 216.91 647.48C217.488 647.865 217.978 648.368 218.347 648.956C218.717 649.544 218.957 650.203 219.054 650.891C219.15 651.579 219.1 652.279 218.906 652.946C218.713 653.613 218.38 654.231 217.93 654.76Z" fill="white"/>
<path d="M419.86 656.79C418.867 656.805 417.889 656.559 417.022 656.076C416.155 655.594 415.43 654.892 414.92 654.04L328.92 503.26C328.582 502.654 328.374 501.984 328.309 501.294C328.244 500.603 328.324 499.906 328.543 499.247C328.762 498.589 329.116 497.983 329.582 497.469C330.048 496.955 330.616 496.543 331.25 496.26C332.549 495.611 334.044 495.473 335.44 495.873C336.836 496.273 338.031 497.182 338.79 498.42L424.79 649.19C425.127 649.797 425.335 650.466 425.4 651.157C425.465 651.848 425.385 652.545 425.166 653.204C424.947 653.862 424.593 654.468 424.127 654.982C423.661 655.496 423.093 655.908 422.46 656.19C421.651 656.588 420.761 656.793 419.86 656.79Z" fill="white"/>
<path d="M567.65 640.41C566.671 640.423 565.706 640.183 564.848 639.714C563.989 639.244 563.267 638.561 562.75 637.73L450.75 448.31C450.408 447.711 450.194 447.048 450.121 446.363C450.048 445.677 450.117 444.984 450.325 444.327C450.532 443.669 450.873 443.062 451.327 442.543C451.78 442.024 452.336 441.604 452.96 441.31C454.25 440.647 455.742 440.489 457.142 440.868C458.542 441.248 459.751 442.136 460.53 443.36L572.53 632.77C572.871 633.369 573.086 634.032 573.159 634.717C573.232 635.402 573.163 636.096 572.955 636.753C572.747 637.41 572.406 638.018 571.953 638.537C571.499 639.056 570.943 639.476 570.32 639.77C569.494 640.193 568.578 640.413 567.65 640.41Z" fill="white"/>
<path d="M524.84 567.99C523.752 568.009 522.682 567.711 521.76 567.132C520.839 566.553 520.106 565.719 519.65 564.73C519.38 564.087 519.248 563.395 519.262 562.698C519.275 562.001 519.435 561.314 519.729 560.682C520.024 560.051 520.448 559.487 520.973 559.029C521.499 558.57 522.114 558.227 522.78 558.02L691.78 496.02C693.13 495.501 694.627 495.511 695.97 496.049C697.312 496.586 698.402 497.612 699.02 498.92C699.288 499.563 699.419 500.254 699.405 500.95C699.39 501.646 699.23 502.331 698.936 502.962C698.641 503.593 698.218 504.155 697.693 504.613C697.169 505.071 696.555 505.414 695.89 505.62L526.89 567.62C526.234 567.865 525.54 567.99 524.84 567.99Z" fill="white"/>
<path d="M715.5 685.749V696.149C715.239 696.159 714.977 696.139 714.72 696.09L642.97 686.56L631.87 685.08L548.17 673.96L537.06 672.479L419.06 656.769L311.99 642.549L293.81 640.139C292.76 640.017 291.768 639.594 290.952 638.922C290.137 638.249 289.532 637.356 289.21 636.349C288.942 635.35 288.99 634.292 289.348 633.321C289.706 632.351 290.357 631.515 291.21 630.93L300.57 624.229L369.65 574.859L373.37 572.19C374.568 571.36 376.031 571.003 377.477 571.187C378.923 571.372 380.249 572.085 381.2 573.19C381.391 573.423 381.558 573.674 381.7 573.94C382.317 575.011 382.504 576.275 382.226 577.479C381.948 578.683 381.224 579.737 380.2 580.43L374.94 584.2L308.48 631.69L409.73 645.169L423.44 646.989L538.58 662.32L549.72 663.799L633.41 674.919L644.49 676.399L715.5 685.749Z" fill="white"/>
<path d="M698.55 12.25L621.65 41.94L611.26 45.94L481.85 95.94L471.13 100.08L470.71 100.21C470.15 100.43 467.03 101.34 462.09 102.76L460.74 103.15C450.53 106.04 433.8 110.48 415.74 114.07C400.74 117.07 384.74 119.55 370.86 119.98C369.32 119.98 367.86 120.07 366.34 120.07C363.17 120.07 360.1 119.94 357.25 119.68C356.56 119.59 355.81 119.46 355.16 119.38C338.29 116.38 324.16 96.2 313.45 73.28C311.957 70.0466 310.513 66.7667 309.12 63.44C297.46 35.69 290.61 6.94996 289.22 1.07996C289.125 0.728022 289.077 0.364699 289.08 0H300.4C305.628 22.224 312.802 43.9446 321.84 64.91C322.025 65.2227 322.166 65.5591 322.26 65.91C332.93 89.47 345.6 108.25 358.37 109.41C373.94 110.88 396.26 107.56 416.67 103.33C431.96 100.13 446.12 96.42 455.58 93.83C461.92 92.06 466.12 90.8299 467.05 90.5099L469.05 89.78L476.78 86.78L605.93 36.8L616.27 32.8L687.48 5.26996C691.46 7.1022 695.181 9.44895 698.55 12.25Z" fill="white"/>
<path d="M381.14 484.63C380.133 484.65 379.138 484.401 378.259 483.909C377.38 483.417 376.649 482.699 376.14 481.83C312.52 367.28 311.61 289.74 373.35 244.76C389.28 233.16 397.83 219.05 398.76 202.85C401.15 161.49 354.36 118.68 353.88 118.25C353.362 117.796 352.945 117.239 352.656 116.614C352.367 115.989 352.213 115.31 352.204 114.622C352.194 113.934 352.33 113.251 352.601 112.618C352.873 111.986 353.274 111.417 353.78 110.95C354.852 109.964 356.25 109.409 357.706 109.39C359.162 109.372 360.573 109.891 361.67 110.85C363.75 112.73 412.54 157.31 409.91 203.37C408.8 222.69 398.83 239.37 380.25 252.88C323.38 294.32 325.25 367.66 386.07 477.1C386.405 477.711 386.609 478.385 386.668 479.08C386.728 479.775 386.641 480.474 386.414 481.133C386.187 481.792 385.825 482.397 385.351 482.908C384.876 483.419 384.3 483.825 383.66 484.1C382.869 484.459 382.009 484.64 381.14 484.63Z" fill="white"/>
<path d="M336.77 374.67C335.702 374.689 334.651 374.402 333.741 373.844C332.83 373.286 332.098 372.48 331.63 371.52C331.346 370.882 331.199 370.191 331.198 369.493C331.198 368.794 331.343 368.103 331.626 367.465C331.908 366.826 332.322 366.253 332.839 365.784C333.357 365.315 333.967 364.959 334.63 364.74L567.93 273.01C569.271 272.463 570.769 272.441 572.126 272.949C573.482 273.456 574.598 274.457 575.25 275.75C575.534 276.388 575.681 277.079 575.682 277.777C575.682 278.476 575.537 279.167 575.254 279.806C574.971 280.444 574.558 281.017 574.041 281.486C573.523 281.955 572.913 282.311 572.25 282.53L338.93 374.26C338.241 374.529 337.509 374.668 336.77 374.67Z" fill="white"/>
<path d="M515.72 180.53L505.81 184.45L404.87 224.14L402.74 224.98C402.04 225.244 401.298 225.383 400.55 225.39C399.531 225.388 398.53 225.126 397.64 224.63L393.51 222.32L295.02 166.89L284.75 161.12L167.48 95.1201L165.7 94.1201C164.589 93.5346 163.74 92.553 163.32 91.3701L161.2 85.57L130.28 1.72003C130.071 1.18469 129.966 0.61461 129.97 0.0400391H141.42L172.33 83.92L173.21 86.27L184.44 92.58L297.68 156.3L397.3 212.3L400.99 214.39L408.99 211.26L500.72 175.15L511.43 170.95C512.773 170.411 514.269 170.394 515.624 170.903C516.979 171.412 518.094 172.41 518.75 173.7C519.032 174.344 519.177 175.04 519.175 175.742C519.174 176.445 519.026 177.14 518.741 177.783C518.456 178.426 518.04 179.002 517.52 179.475C517 179.948 516.387 180.307 515.72 180.53Z" fill="white"/>
<path d="M389.11 354.52C388.01 351.203 386.54 348.02 384.73 345.03C375.92 330.22 359.38 319.95 340.18 318.83C339.06 318.83 337.95 318.74 336.83 318.74C335.942 318.725 335.054 318.755 334.17 318.83C332.375 318.877 330.585 319.037 328.81 319.31C307.33 322.24 289.95 336.7 284.12 355.69C282.768 360.154 282.094 364.796 282.12 369.46C282.122 372.855 282.484 376.241 283.2 379.56C288.27 402.69 310.46 420.21 336.93 420.21C340.113 420.215 343.29 419.954 346.43 419.43C348.221 419.147 349.997 418.774 351.75 418.31C353.599 417.842 355.419 417.265 357.2 416.58C377.38 409.12 391.73 390.78 391.73 369.46C391.692 364.369 390.806 359.32 389.11 354.52ZM353.41 406.87C351.633 407.562 349.808 408.124 347.95 408.55C346.191 409.002 344.404 409.336 342.6 409.55C340.684 409.807 338.753 409.934 336.82 409.93C312.72 409.93 293.15 391.81 293.15 369.5C293.15 349.99 308.06 333.76 327.92 329.92C329.661 329.581 331.421 329.351 333.19 329.23C334.35 329.15 335.57 329.1 336.78 329.1C337.57 329.1 338.36 329.1 339.15 329.1C354.15 329.87 367.21 337.68 374.38 349.03C376.306 351.975 377.782 355.19 378.76 358.57C379.854 362.093 380.407 365.761 380.4 369.45C380.4 386.33 369.21 400.78 353.41 406.87Z" fill="white"/>
<path d="M590.8 624.55C583.691 624.539 576.643 625.859 570.02 628.44C568.3 629.13 566.62 629.86 565.02 630.68C563.383 631.496 561.794 632.404 560.26 633.4C549.764 640.027 542.08 650.292 538.68 662.23C538.251 663.788 537.917 665.371 537.68 666.97C537.373 668.782 537.186 670.613 537.12 672.45C537.041 673.114 537.011 673.782 537.03 674.45C537.03 701.89 561.21 724.29 590.85 724.29C615.97 724.29 637.13 708.29 643.05 686.62V686.57C643.938 683.231 644.451 679.803 644.58 676.35C644.63 675.7 644.63 675.09 644.63 674.45C644.58 646.91 620.49 624.55 590.8 624.55ZM631.86 685.06C626.86 701.67 610.33 713.89 590.8 713.89C567.27 713.89 548.16 696.15 548.16 674.4V673.92C548.235 670.455 548.769 667.015 549.75 663.69C551.402 658.516 554.076 653.726 557.613 649.603C561.149 645.481 565.477 642.11 570.34 639.69C576.688 636.501 583.696 634.847 590.8 634.86C614.34 634.86 633.44 652.6 633.44 674.35V674.78C633.442 678.267 632.909 681.734 631.86 685.06Z" fill="white"/>
<path d="M538.2 413.66C537.156 413.681 536.128 413.411 535.229 412.882C534.331 412.352 533.597 411.583 533.11 410.66L484.55 311.57C484.251 310.943 484.086 310.261 484.066 309.566C484.045 308.872 484.17 308.181 484.431 307.537C484.693 306.894 485.086 306.312 485.585 305.829C486.084 305.345 486.678 304.971 487.33 304.73C488.657 304.152 490.154 304.096 491.522 304.572C492.89 305.049 494.028 306.023 494.71 307.3L543.269 406.39C543.568 407.017 543.734 407.699 543.755 408.393C543.776 409.086 543.652 409.777 543.391 410.421C543.131 411.064 542.739 411.646 542.241 412.13C541.743 412.614 541.15 412.988 540.499 413.23C539.77 413.528 538.987 413.674 538.2 413.66Z" fill="white"/>
<path d="M688.43 831.409C681.506 834.657 673.947 836.323 666.3 836.289H663.83C636.89 809.183 598.333 790.496 548.16 780.229C544.53 779.489 540.8 778.799 536.98 778.109C528.12 776.599 518.98 775.309 509.48 774.269C500.35 773.269 491.26 772.539 482.36 772.109C476.07 771.769 469.87 771.51 463.77 771.42C459.99 771.34 456.22 771.289 452.54 771.289C450.21 771.289 447.93 771.29 445.69 771.34C414.769 771.676 383.907 774.125 353.32 778.67C347.32 779.67 343.82 780.229 343.68 780.269C337.68 781.429 331.75 777.849 330.49 772.269C329.23 766.689 333.1 761.27 339.16 760.06C339.86 759.93 343.96 759.149 350.85 758.119C378.878 753.904 407.144 751.466 435.48 750.82C444.71 750.56 454.4 750.519 464.33 750.739C479.71 751.079 495.78 751.989 512.1 753.739C592.01 762.409 651.57 788.889 688.43 831.409Z" fill="white"/>
<path d="M239.38 824.71L285.65 836.28H242.78L237.52 834.98L97.5196 800.07L93.9396 799.16C93.0786 798.961 92.2794 798.555 91.6117 797.976C90.9441 797.397 90.4283 796.664 90.1096 795.84L89.1096 793.21L65.2896 728.21L35.5096 647.03L31.6896 636.59C31.463 635.93 31.3747 635.231 31.4302 634.535C31.4856 633.84 31.6837 633.164 32.0121 632.548C32.3404 631.933 32.792 631.392 33.3387 630.958C33.8854 630.525 34.5155 630.209 35.1896 630.03C36.5592 629.566 38.0541 629.642 39.3697 630.242C40.6852 630.842 41.7224 631.921 42.2696 633.26L45.6696 642.5L74.9896 722.5L97.2596 783.3L99.6796 789.86L104.86 791.16L239.38 824.71Z" fill="white"/>
<path d="M457.48 804.34C454.626 810.926 450.826 817.061 446.2 822.55C441.823 827.735 436.81 832.348 431.28 836.28C431.215 836.377 431.12 836.451 431.01 836.49L429.65 836.28H410.73C411.48 835.89 412.22 835.54 412.97 835.16C413.3 834.98 413.62 834.81 413.97 834.59C414.054 834.59 414.135 834.562 414.2 834.51C423.022 830.008 430.877 823.822 437.32 816.3C444.672 807.553 449.56 797.004 451.48 785.74C452.297 780.966 452.632 776.122 452.48 771.28C452.421 768.169 452.123 765.066 451.59 762C451.457 761.318 451.464 760.615 451.609 759.936C451.755 759.256 452.036 758.612 452.437 758.044C452.838 757.476 453.35 756.995 453.941 756.63C454.533 756.265 455.193 756.024 455.88 755.92C457.287 755.597 458.764 755.834 460 756.581C461.235 757.327 462.132 758.525 462.5 759.92C463.287 763.71 463.693 767.57 463.71 771.44C464.037 782.728 461.912 793.953 457.48 804.34Z" fill="white"/>
<path d="M548.16 768.61V836.28H536.98V768.61C537.099 767.209 537.739 765.904 538.775 764.953C539.81 764.002 541.165 763.474 542.57 763.474C543.976 763.474 545.331 764.002 546.366 764.953C547.401 765.904 548.042 767.209 548.16 768.61Z" fill="white"/>
<path d="M317.86 72.6299L313.44 73.2999L184.44 92.5899L167.52 95.1099L97.4401 105.6L85.2001 107.41L26.7501 116.16L15.6401 117.81L1.00012 120.01C0.708028 120.045 0.414293 120.065 0.120117 120.07V109.66L19.0501 106.85L161.2 85.5799L172.33 83.9299L309.1 63.4699L316.1 62.4699C317.513 62.2228 318.967 62.5311 320.157 63.3306C321.348 64.13 322.184 65.3587 322.49 66.7599C322.582 67.451 322.534 68.1535 322.35 68.8258C322.166 69.4981 321.848 70.1266 321.416 70.674C320.985 71.2213 320.447 71.6765 319.836 72.0125C319.226 72.3484 318.554 72.5584 317.86 72.6299Z" fill="white"/>
<path d="M84.8099 623.69C82.5081 623.737 80.2484 623.068 78.3439 621.774C76.4394 620.481 74.9842 618.627 74.1799 616.47C73.7799 615.3 35.4499 498.67 154.32 453.73C273.19 408.79 326.38 502.83 326.91 503.73C329.7 508.82 327.51 515.04 322.01 517.63C316.51 520.22 309.8 518.18 307.01 513.09C305.24 509.92 262.29 435.19 162.75 472.82C120.82 488.67 96.7499 516.43 91.2199 555.32C88.7513 573.7 90.1928 592.395 95.4499 610.18C97.3099 615.62 94.0599 621.43 88.1799 623.18C87.0869 623.511 85.9519 623.682 84.8099 623.69Z" fill="white"/>
<path d="M168.61 464.96C167.797 464.968 166.992 464.803 166.248 464.477C165.503 464.151 164.836 463.672 164.29 463.07C163.827 462.558 163.477 461.954 163.264 461.297C163.05 460.641 162.978 459.947 163.052 459.26C163.125 458.574 163.343 457.911 163.691 457.314C164.039 456.718 164.509 456.202 165.07 455.8L280.07 368.52L83.1998 104.74C82.7856 104.188 82.4923 103.554 82.3389 102.881C82.1854 102.208 82.1754 101.511 82.3093 100.833C82.4432 100.156 82.7181 99.5148 83.1162 98.9508C83.5143 98.3869 84.0266 97.913 84.6198 97.56C85.8452 96.7763 87.3182 96.4764 88.7524 96.7185C90.1867 96.9606 91.4796 97.7275 92.3798 98.87L292.13 366.56C292.525 367.079 292.812 367.672 292.976 368.304C293.14 368.936 293.176 369.594 293.083 370.239C292.99 370.885 292.769 371.506 292.434 372.066C292.099 372.626 291.655 373.113 291.13 373.5L172.19 463.79C171.157 464.561 169.899 464.972 168.61 464.96Z" fill="white"/>
<path d="M187.67 240.819C186.827 240.834 185.991 240.663 185.221 240.317C184.452 239.971 183.769 239.46 183.22 238.819C182.78 238.287 182.457 237.669 182.272 237.003C182.087 236.338 182.044 235.642 182.146 234.959C182.248 234.276 182.492 233.622 182.863 233.04C183.234 232.458 183.724 231.96 184.3 231.579L291.3 156.579C292.496 155.748 293.958 155.39 295.402 155.575C296.847 155.76 298.172 156.474 299.12 157.579C299.559 158.111 299.881 158.73 300.066 159.395C300.25 160.06 300.292 160.756 300.189 161.438C300.086 162.12 299.841 162.773 299.469 163.354C299.097 163.935 298.606 164.431 298.03 164.81L191.03 239.81C190.04 240.483 188.867 240.836 187.67 240.819Z" fill="white"/>
<path d="M82.9298 168.98C70.3898 168.98 59.1598 166.39 49.3098 161.21C20.3098 145.97 14.6298 114.1 14.3998 112.75C14.3078 112.055 14.3563 111.349 14.5422 110.673C14.7282 109.997 15.0479 109.365 15.4825 108.815C15.917 108.265 16.4575 107.808 17.0719 107.47C17.6864 107.133 18.3624 106.922 19.0598 106.85C20.4707 106.602 21.9229 106.911 23.1097 107.714C24.2965 108.516 25.1249 109.748 25.4198 111.15C25.4798 111.47 30.5998 139.56 54.8998 152.27C72.5398 161.5 96.1698 160.7 125.13 149.87C126.477 149.342 127.975 149.343 129.322 149.874C130.669 150.404 131.765 151.425 132.39 152.73C132.662 153.371 132.798 154.061 132.788 154.756C132.779 155.452 132.624 156.138 132.334 156.771C132.044 157.403 131.625 157.968 131.105 158.43C130.584 158.891 129.973 159.239 129.31 159.45C112.33 165.804 96.8698 168.98 82.9298 168.98Z" fill="white"/>
<path d="M152.93 192.47L149.23 193.28L96.08 204.76L85.16 207.13L57.25 213.13L46.25 215.48L1.25 225.21C0.842651 225.319 0.421696 225.37 0 225.36V214.9L48.81 204.41C48.93 204.41 49.03 204.41 49.12 204.35L142.45 184.19L150.45 182.45C151.559 182.183 152.721 182.253 153.79 182.651C154.858 183.048 155.784 183.754 156.45 184.68C156.789 185.174 157.043 185.721 157.2 186.3C157.346 186.987 157.349 187.697 157.211 188.385C157.072 189.074 156.795 189.727 156.395 190.305C155.995 190.883 155.482 191.373 154.886 191.745C154.29 192.117 153.624 192.364 152.93 192.47Z" fill="white"/>
<path d="M194.18 335.02C183.04 335.02 174.07 321.73 165.35 308.8C157.94 297.8 148.71 284.16 142.01 285.8C117.51 291.8 91.8799 225.8 84.6099 205.47C84.3903 204.809 84.3089 204.11 84.3706 203.416C84.4323 202.722 84.6359 202.048 84.9687 201.435C85.3015 200.823 85.7565 200.286 86.3054 199.857C86.8543 199.428 87.4855 199.116 88.1598 198.94C89.5253 198.507 91.0037 198.605 92.3008 199.212C93.5979 199.82 94.6187 200.894 95.1598 202.22C109.91 243.55 130.46 277.9 139.1 275.82C153.77 272.22 164.44 288.04 174.76 303.34C181.36 313.12 190.41 326.54 195.55 324.34C214.25 316.43 237.98 303.08 238.21 302.95C239.474 302.233 240.959 302.012 242.377 302.33C243.795 302.648 245.043 303.482 245.88 304.67C246.251 305.251 246.497 305.903 246.604 306.584C246.711 307.264 246.676 307.96 246.502 308.627C246.327 309.294 246.016 309.917 245.589 310.458C245.162 310.999 244.628 311.446 244.02 311.77C243.02 312.33 219.5 325.57 200.19 333.77C198.291 334.588 196.247 335.013 194.18 335.02Z" fill="white"/>
<path d="M85.7601 539.16L71.4301 541.41L1.06012 552.62C0.750406 552.68 0.435614 552.711 0.120117 552.71V542.31L74.5301 530.43L83.8801 528.92C85.2922 528.667 86.7477 528.964 87.9474 529.751C89.1471 530.538 89.9998 531.754 90.3301 533.15C90.4356 533.846 90.4002 534.557 90.2261 535.239C90.052 535.921 89.7427 536.562 89.3165 537.122C88.8903 537.682 88.3559 538.152 87.745 538.502C87.1341 538.852 86.4592 539.076 85.7601 539.16Z" fill="white"/>
<path d="M103.09 509.229C102.137 509.868 101.018 510.216 99.8702 510.229C98.9896 510.238 98.1189 510.044 97.3261 509.66C96.5333 509.277 95.8399 508.715 95.3002 508.02L89.6402 500.63L32.7302 426.01C32.5149 425.791 32.3238 425.549 32.1602 425.29L0.160156 383.29V369.19C1.03486 369.184 1.89917 369.379 2.68634 369.761C3.47351 370.142 4.16251 370.7 4.7002 371.39L34.9302 411L43.0002 421.58L96.6302 491.82L104.42 502.04C104.84 502.586 105.14 503.215 105.301 503.886C105.463 504.556 105.481 505.253 105.356 505.931C105.23 506.608 104.964 507.252 104.573 507.821C104.183 508.389 103.678 508.869 103.09 509.229Z" fill="white"/>
<path d="M146.52 473.55C145.391 473.574 144.281 473.254 143.338 472.632C142.395 472.011 141.663 471.117 141.24 470.07L44.7097 211.07C44.4823 210.413 44.3919 209.717 44.444 209.023C44.4962 208.33 44.6899 207.654 45.0132 207.039C45.3365 206.423 45.7825 205.88 46.3236 205.444C46.8648 205.007 47.4896 204.686 48.1597 204.5C49.5283 204.034 51.0231 204.105 52.3414 204.699C53.6597 205.293 54.7029 206.366 55.2597 207.7L151.79 466.64C152.019 467.297 152.11 467.994 152.059 468.688C152.007 469.382 151.814 470.058 151.49 470.674C151.167 471.29 150.72 471.833 150.178 472.269C149.636 472.706 149.011 473.026 148.34 473.21C147.755 473.42 147.141 473.535 146.52 473.55Z" fill="white"/>
<path d="M36.9996 427.84C36.7015 427.841 36.4038 427.818 36.1096 427.77C35.4143 427.696 34.7409 427.483 34.1292 427.145C33.5175 426.806 32.9799 426.348 32.5482 425.798C32.1166 425.248 31.7996 424.617 31.6161 423.942C31.4325 423.267 31.3861 422.563 31.4796 421.87C31.6596 420.87 35.9196 397.21 57.8296 383.87C73.0796 374.62 92.7396 372.8 116.28 378.46C116.964 378.595 117.614 378.868 118.191 379.262C118.767 379.656 119.257 380.163 119.631 380.752C120.005 381.341 120.255 382 120.367 382.689C120.478 383.378 120.449 384.083 120.28 384.76C119.832 386.13 118.877 387.277 117.611 387.965C116.344 388.653 114.863 388.83 113.47 388.46C93.1596 383.59 76.5296 384.92 64.0396 392.46C46.2696 403.18 42.5396 423.26 42.4996 423.46C42.2438 424.72 41.5523 425.85 40.5465 426.651C39.5407 427.452 38.2849 427.873 36.9996 427.84Z" fill="white"/>
<path d="M84.0701 302L79.0701 303.24L1.56012 322.41C1.08805 322.52 0.604986 322.577 0.120117 322.58V312.08L75.4001 293.41L81.1901 291.96C82.4365 291.637 83.7549 291.742 84.9349 292.257C86.1149 292.772 87.0885 293.667 87.7001 294.8C87.8214 295.073 87.925 295.353 88.0101 295.64C88.1936 296.317 88.236 297.024 88.1346 297.719C88.0332 298.413 87.7902 299.079 87.4208 299.675C87.0513 300.271 86.5633 300.785 85.9869 301.185C85.4105 301.585 84.7581 301.862 84.0701 302Z" fill="white"/>
<path d="M355.997 289.16C355.997 307.44 330.129 341.836 318.512 356.353C317.852 357.178 317.012 357.845 316.055 358.304C315.099 358.762 314.05 359 312.987 359C311.925 359 310.876 358.762 309.919 358.304C308.963 357.845 308.123 357.178 307.462 356.353C295.858 341.81 270.003 307.44 270.003 289.16C269.934 283.517 270.995 277.917 273.125 272.683C275.254 267.45 278.41 262.688 282.41 258.673C286.409 254.659 291.173 251.471 296.424 249.296C301.675 247.12 307.309 246 313 246C318.691 246 324.325 247.12 329.576 249.296C334.827 251.471 339.591 254.659 343.59 258.673C347.59 262.688 350.746 267.45 352.875 272.683C355.005 277.917 356.066 283.517 355.997 289.16Z" fill="#FDA100"/>
<path d="M313 313C308.055 313 303.222 311.504 299.111 308.702C295 305.9 291.795 301.918 289.903 297.258C288.011 292.599 287.516 287.472 288.48 282.525C289.445 277.579 291.826 273.035 295.322 269.469C298.819 265.903 303.273 263.474 308.123 262.49C312.972 261.506 317.999 262.011 322.567 263.941C327.135 265.871 331.04 269.14 333.787 273.333C336.534 277.526 338 282.457 338 287.5C337.993 294.261 335.357 300.743 330.67 305.524C325.983 310.304 319.628 312.993 313 313ZM313 264.978C308.633 264.978 304.364 266.299 300.733 268.774C297.102 271.249 294.272 274.766 292.601 278.881C290.929 282.997 290.492 287.525 291.344 291.894C292.196 296.263 294.299 300.276 297.387 303.425C300.475 306.575 304.409 308.72 308.692 309.589C312.975 310.458 317.415 310.012 321.45 308.307C325.484 306.603 328.933 303.716 331.359 300.012C333.785 296.309 335.08 291.954 335.08 287.5C335.074 281.529 332.745 275.804 328.606 271.582C324.466 267.36 318.854 264.985 313 264.978Z" fill="white"/>
</svg>
