<svg width="35" height="28" viewBox="0 0 35 28" fill="none" xmlns="http://www.w3.org/2000/svg">
<path d="M33.4166 16.7025H15.6004C15.4233 16.7025 15.2536 16.7734 15.1289 16.8996C15.0041 17.0258 14.9348 17.1966 14.9362 17.3743L15.0042 25.9819C15.0071 26.3479 15.3036 26.6431 15.6685 26.6431H21.5293C21.8961 26.6431 22.1935 26.3447 22.1935 25.9766C22.1935 25.6086 21.8961 25.3101 21.5293 25.3101H16.3274L16.2699 18.0355H32.7575L32.8149 25.3101H27.5556C27.1888 25.3101 26.8913 25.6086 26.8913 25.9766C26.8913 26.3447 27.1888 26.6431 27.5556 26.6431H33.4846C33.6617 26.6431 33.8315 26.5722 33.9561 26.446C34.0809 26.3199 34.1502 26.149 34.1488 25.9714L34.0808 17.3638C34.0779 16.9976 33.7814 16.7025 33.4166 16.7025Z" fill="#FDA100"/>
<path d="M25.1679 25.7211C25.0608 25.4632 24.7973 25.2951 24.5188 25.3103C24.2426 25.3253 23.9997 25.5174 23.9191 25.7827C23.8395 26.0441 23.9328 26.3396 24.1501 26.5052C24.3749 26.6766 24.6879 26.6868 24.9234 26.5305C25.185 26.3568 25.286 26.0108 25.1679 25.7211Z" fill="#FDA100"/>
<path d="M6.29645 15.4938C2.90104 15.4938 0.138672 18.2658 0.138672 21.6731C0.138672 25.0805 2.90104 27.8525 6.29645 27.8525C9.69186 27.8525 12.4543 25.0805 12.4543 21.6731C12.4543 18.2658 9.69186 15.4938 6.29645 15.4938ZM6.29645 26.5196C3.63358 26.5196 1.46718 24.3455 1.46718 21.6731C1.46718 19.0008 3.63358 16.8267 6.29645 16.8267C8.95938 16.8267 11.1258 19.0008 11.1258 21.6731C11.1258 24.3455 8.95938 26.5196 6.29645 26.5196Z" fill="#FDA100"/>
<path d="M6.29682 0.950928C2.90141 0.950928 0.139038 3.72294 0.139038 7.1303C0.139038 10.5376 2.90141 13.3097 6.29682 13.3097C9.69222 13.3097 12.4547 10.5376 12.4547 7.1303C12.4547 3.72294 9.69222 0.950928 6.29682 0.950928ZM6.29682 11.9767C3.63395 11.9767 1.46755 9.80261 1.46755 7.1303C1.46755 4.45793 3.63395 2.28381 6.29682 2.28381C8.95975 2.28381 11.1262 4.45793 11.1262 7.1303C11.1262 9.80261 8.95975 11.9767 6.29682 11.9767Z" fill="#FDA100"/>
<path d="M8.0318 5.38895C7.77248 5.12861 7.3518 5.12867 7.09241 5.38902L6.29657 6.18772L5.50079 5.38902C5.24153 5.12881 4.82086 5.12874 4.5614 5.38895C4.30201 5.64917 4.30194 6.07121 4.56133 6.33156L5.35731 7.1304L4.56133 7.92923C4.30194 8.18951 4.30201 8.61156 4.5614 8.87184C4.69106 9.00201 4.86104 9.06706 5.03103 9.06706C5.20101 9.06706 5.37106 9.00194 5.50072 8.87177L6.29657 8.07307L7.09241 8.87177C7.22208 9.00194 7.39212 9.06706 7.56211 9.06706C7.73209 9.06706 7.90207 9.00194 8.03174 8.87184C8.29113 8.61162 8.29119 8.18958 8.0318 7.92923L7.23583 7.1304L8.0318 6.33156C8.29126 6.07128 8.29119 5.64923 8.0318 5.38895Z" fill="#FDA100"/>
<path d="M15.6685 12.1009H33.4846C33.6617 12.1009 33.8315 12.03 33.9561 11.9038C34.0809 11.7777 34.1502 11.6069 34.1488 11.4292L34.0808 2.82186C34.0779 2.45583 33.7814 2.16064 33.4166 2.16064H15.6004C15.4233 2.16064 15.2536 2.23162 15.1289 2.35772C15.0041 2.48389 14.9348 2.65471 14.9362 2.83239L15.0042 11.4397C15.0071 11.8057 15.3036 12.1009 15.6685 12.1009ZM32.7576 3.49354L32.815 10.7679H16.3275L16.27 3.49354H32.7576Z" fill="#FDA100"/>
<path d="M19.7703 6.3937H30.5188C30.8857 6.3937 31.1831 6.09529 31.1831 5.72731C31.1831 5.35932 30.8857 5.06091 30.5188 5.06091H19.7703C19.4035 5.06091 19.1061 5.35932 19.1061 5.72731C19.1061 6.09529 19.4035 6.3937 19.7703 6.3937Z" fill="#FDA100"/>
<path d="M19.7703 9.19961H26.6961C27.063 9.19961 27.3604 8.90127 27.3604 8.53322C27.3604 8.16523 27.063 7.86682 26.6961 7.86682H19.7703C19.4035 7.86682 19.1061 8.16523 19.1061 8.53322C19.1061 8.90127 19.4035 9.19961 19.7703 9.19961Z" fill="#FDA100"/>
<path d="M19.7703 21.1505H30.5188C30.8857 21.1505 31.1831 20.8521 31.1831 20.4841C31.1831 20.1161 30.8857 19.8177 30.5188 19.8177H19.7703C19.4035 19.8177 19.1061 20.1161 19.1061 20.4841C19.1061 20.8521 19.4035 21.1505 19.7703 21.1505Z" fill="#FDA100"/>
<path d="M27.3604 23.2907C27.3604 22.9226 27.063 22.6241 26.6961 22.6241H19.7703C19.4035 22.6241 19.1061 22.9226 19.1061 23.2907C19.1061 23.6588 19.4035 23.9573 19.7703 23.9573H26.6961C27.0629 23.9573 27.3604 23.6588 27.3604 23.2907Z" fill="#FDA100"/>
<path d="M7.97677 20.0906C7.67972 19.875 7.26436 19.9417 7.04921 20.2398L5.99285 21.7046L5.46463 21.1986C5.1994 20.9444 4.77886 20.954 4.52551 21.2204C4.27216 21.4865 4.28186 21.9084 4.54723 22.1626L5.62598 23.1961C5.75006 23.3149 5.9146 23.3805 6.08458 23.3805C6.10471 23.3805 6.1249 23.3796 6.14503 23.3778C6.33607 23.3603 6.5103 23.2607 6.62276 23.1047L8.12543 21.0213C8.34058 20.7232 8.27403 20.3065 7.97677 20.0906Z" fill="#FDA100"/>
</svg>
