<svg width="248" height="31" viewBox="0 0 248 31" fill="none" xmlns="http://www.w3.org/2000/svg">
<path d="M90.3214 8.70994C91.5973 7.80635 92.6705 6.67848 93.5451 5.37981V5.37851C92.3777 5.88833 91.1358 6.22734 89.839 6.39163C91.1724 5.59756 92.1908 4.34974 92.6692 2.84636C91.426 3.58567 90.0534 4.10722 88.5906 4.39929C87.4101 3.14495 85.7277 2.36914 83.8923 2.36914C80.3313 2.36914 77.4645 5.25203 77.4645 8.78556C77.4645 9.29408 77.5077 9.78304 77.6135 10.2485C72.2669 9.98775 67.5346 7.43213 64.3553 3.53742C63.801 4.49839 63.4742 5.59756 63.4742 6.78019C63.4742 9.00201 64.6207 10.9709 66.3319 12.1118C65.2979 12.0922 64.2847 11.7923 63.4259 11.3216V11.392C63.4259 14.5096 65.6547 17.0991 68.5791 17.6963C68.0549 17.8398 67.4849 17.9076 66.8927 17.9076C66.4809 17.9076 66.0652 17.8841 65.6757 17.798C66.5084 20.338 68.8745 22.2065 71.6851 22.2677C69.4968 23.9745 66.7175 25.0033 63.7095 25.0033C63.1827 25.0033 62.6768 24.9798 62.1709 24.9159C65.0207 26.7479 68.3961 27.7949 72.0381 27.7949C83.389 27.7949 90.7868 18.3496 90.3214 8.70994Z" fill="#545454"/>
<path d="M11.8367 5.026H14.4804V0.213148C14.0243 0.147564 12.4557 0 10.6289 0C6.81729 0 4.20621 2.50606 4.20621 7.11208V11.3511H0V16.7315H4.20621V30.2695H9.36322V16.7327H13.3993L14.04 11.3523H9.36201V7.64558C9.36322 6.09048 9.76381 5.026 11.8367 5.026Z" fill="#545454"/>
<path d="M156.13 7.85156C152.027 7.85156 148.705 11.1881 148.705 15.3013C148.705 19.4181 152.03 22.751 156.13 22.751C160.232 22.751 163.554 19.4145 163.554 15.3013C163.554 11.1845 160.229 7.85156 156.13 7.85156ZM156.13 20.1367C153.466 20.1367 151.311 17.9724 151.311 15.3013C151.311 12.6301 153.467 10.4659 156.13 10.4659C158.792 10.4659 160.949 12.6301 160.949 15.3013C160.95 17.9724 158.793 20.1367 156.13 20.1367Z" fill="#545454"/>
<path d="M162.09 0.881724C159.428 0.757123 152.834 0.763172 150.17 0.881724C147.828 0.991808 145.763 1.55916 144.098 3.22978C141.315 6.02181 141.671 9.78402 141.671 15.3015C141.671 20.9485 141.358 24.6236 144.098 27.3733C146.892 30.175 150.695 29.8085 156.129 29.8085C161.704 29.8085 163.629 29.8121 165.6 29.0463C168.28 28.0023 170.303 25.5986 170.501 21.2812C170.626 18.6089 170.619 11.9942 170.501 9.3207C170.262 4.22417 167.536 1.13334 162.09 0.881724ZM166.304 25.5261C164.48 27.3564 161.949 27.193 156.094 27.193C150.066 27.193 147.649 27.2826 145.885 25.5079C143.853 23.4792 144.221 20.2215 144.221 15.2822C144.221 8.5985 143.537 3.78504 150.223 3.44148C151.759 3.38705 152.211 3.3689 156.078 3.3689L156.132 3.40519C162.557 3.40519 167.598 2.73017 167.9 9.43684C167.969 10.9671 167.985 11.4268 167.985 15.3003C167.983 21.2787 168.097 23.7187 166.304 25.5261Z" fill="#545454"/>
<path d="M163.848 9.29785C164.806 9.29785 165.583 8.5185 165.583 7.55713C165.583 6.59575 164.806 5.81641 163.848 5.81641C162.89 5.81641 162.113 6.59575 162.113 7.55713C162.113 8.5185 162.89 9.29785 163.848 9.29785Z" fill="#545454"/>
<path d="M228.937 19.9242L228.418 27.361C229.161 27.361 229.482 27.036 229.868 26.6458L233.349 23.2564L240.563 28.6382C241.886 29.3893 242.818 28.9938 243.175 27.3983L247.91 4.7949L247.911 4.79357C248.331 2.80119 247.204 2.02208 245.915 2.51085L218.083 13.3664C216.183 14.1175 216.212 15.1963 217.76 15.6851L224.875 17.9398L241.403 7.4039C242.181 6.87917 242.888 7.1695 242.307 7.69424L228.937 19.9242Z" fill="#545454"/>
</svg>
