<svg width="34" height="31" viewBox="0 0 34 31" fill="none" xmlns="http://www.w3.org/2000/svg">
<path d="M0.12207 15.8678C0.12207 12.1244 0.524299 9.23426 1.31961 7.19742C2.12407 5.15141 3.24849 3.61002 4.71114 2.5549C6.17379 1.49978 7.80099 0.976807 9.61102 0.976807C11.4393 0.976807 13.1031 1.50896 14.584 2.56408C16.065 3.62838 17.2442 5.21564 18.1127 7.33505C18.9811 9.45447 19.4108 12.2987 19.4108 15.8769C19.4108 19.4368 18.9811 22.2719 18.131 24.3821C17.2808 26.4924 16.1015 28.0796 14.6023 29.1531C13.1031 30.2266 11.4393 30.7587 9.61102 30.7587C7.80099 30.7587 6.18293 30.2357 4.72942 29.199C3.28505 28.1622 2.1515 26.6024 1.3379 24.5473C0.533441 22.4737 0.12207 19.5836 0.12207 15.8678ZM2.79141 15.9136C2.79141 19.1157 3.07479 21.5379 3.64157 23.1802C4.20835 24.8225 5.04937 26.0611 6.16465 26.9144C7.27992 27.7677 8.45918 28.1897 9.70243 28.1897C10.9548 28.1897 12.1249 27.7768 13.2128 26.9419C14.3006 26.1162 15.1234 24.8684 15.6902 23.2077C16.3941 21.1892 16.7506 18.7579 16.7506 15.9136C16.7506 13.0602 16.4398 10.7206 15.809 8.90396C15.1782 7.08732 14.3098 5.75696 13.2037 4.91287C12.0975 4.06877 10.9274 3.64672 9.70243 3.64672C8.45004 3.64672 7.27078 4.06877 6.16465 4.91287C5.06766 5.75696 4.22663 6.99558 3.65072 8.6379C3.08394 10.271 2.79141 12.7024 2.79141 15.9136Z" fill="#4C4C4C"/>
<path d="M27.9582 1.68311H33.5071V30.0432H30.7006V4.45397H26.267L27.9582 1.68311Z" fill="#4C4C4C"/>
</svg>
