<svg width="332" height="32" viewBox="0 0 332 32" fill="none" xmlns="http://www.w3.org/2000/svg">
<path d="M90.3219 9.46287C91.5978 8.55928 92.671 7.43141 93.5456 6.13274V6.13144C92.3782 6.64126 91.1363 6.98027 89.8395 7.14456C91.1729 6.35049 92.1913 5.10267 92.6697 3.59929C91.4265 4.3386 90.0539 4.86015 88.5911 5.15222C87.4106 3.89788 85.7282 3.12207 83.8928 3.12207C80.3318 3.12207 77.465 6.00496 77.465 9.53849C77.465 10.047 77.5081 10.536 77.614 11.0015C72.2673 10.7407 67.5351 8.18506 64.3558 4.29035C63.8015 5.25132 63.4747 6.35049 63.4747 7.53312C63.4747 9.75494 64.6212 11.7238 66.3324 12.8647C65.2983 12.8451 64.2852 12.5453 63.4264 12.0746V12.145C63.4264 15.2626 65.6552 17.8521 68.5796 18.4493C68.0554 18.5927 67.4854 18.6605 66.8932 18.6605C66.4814 18.6605 66.0657 18.637 65.6761 18.551C66.5089 21.0909 68.875 22.9594 71.6856 23.0207C69.4973 24.7275 66.718 25.7562 63.71 25.7562C63.1832 25.7562 62.6773 25.7328 62.1714 25.6689C65.0212 27.5008 68.3966 28.5479 72.0386 28.5479C83.3895 28.5479 90.7873 19.1025 90.3219 9.46287Z" fill="#F3F3F3"/>
<path d="M11.8367 5.77893H14.4804V0.966078C14.0243 0.900494 12.4557 0.75293 10.6289 0.75293C6.81729 0.75293 4.20621 3.25899 4.20621 7.86501V12.104H0V17.4844H4.20621V31.0225H9.36322V17.4857H13.3993L14.04 12.1053H9.36201V8.39851C9.36322 6.84341 9.76381 5.77893 11.8367 5.77893Z" fill="#F3F3F3"/>
<path d="M156.129 8.60449C152.026 8.60449 148.705 11.941 148.705 16.0542C148.705 20.171 152.03 23.5039 156.129 23.5039C160.232 23.5039 163.554 20.1674 163.554 16.0542C163.554 11.9374 160.228 8.60449 156.129 8.60449ZM156.129 20.8896C153.466 20.8896 151.31 18.7254 151.31 16.0542C151.31 13.383 153.467 11.2188 156.129 11.2188C158.791 11.2188 160.948 13.383 160.948 16.0542C160.949 18.7254 158.792 20.8896 156.129 20.8896Z" fill="#F3F3F3"/>
<path d="M162.09 1.63465C159.428 1.51005 152.834 1.5161 150.17 1.63465C147.828 1.74474 145.763 2.31209 144.098 3.98271C141.315 6.77474 141.671 10.537 141.671 16.0545C141.671 21.7014 141.358 25.3765 144.098 28.1262C146.892 30.9279 150.695 30.5614 156.129 30.5614C161.704 30.5614 163.629 30.565 165.6 29.7993C168.28 28.7553 170.303 26.3516 170.501 22.0341C170.626 19.3618 170.619 12.7471 170.501 10.0736C170.262 4.9771 167.536 1.88627 162.09 1.63465ZM166.304 26.279C164.48 28.1093 161.949 27.946 156.094 27.946C150.066 27.946 147.649 28.0355 145.885 26.2608C143.853 24.2321 144.221 20.9744 144.221 16.0351C144.221 9.35143 143.537 4.53797 150.223 4.19441C151.759 4.13998 152.211 4.12183 156.078 4.12183L156.132 4.15812C162.557 4.15812 167.598 3.4831 167.9 10.1898C167.969 11.7201 167.985 12.1797 167.985 16.0533C167.983 22.0317 168.097 24.4717 166.304 26.279Z" fill="#F3F3F3"/>
<path d="M163.848 10.0508C164.806 10.0508 165.583 9.27143 165.583 8.31006C165.583 7.34868 164.806 6.56934 163.848 6.56934C162.89 6.56934 162.113 7.34868 162.113 8.31006C162.113 9.27143 162.89 10.0508 163.848 10.0508Z" fill="#F3F3F3"/>
<path d="M251.82 6.75498L251.863 7.04813C251.454 5.50912 250.352 4.32159 248.951 3.88935L248.922 3.88187C246.288 3.12209 235.688 3.12209 235.688 3.12209C235.688 3.12209 225.116 3.10713 222.455 3.88187C221.028 4.32159 219.924 5.50912 219.523 7.01672L219.516 7.04813C218.532 12.5087 218.524 19.07 219.559 24.9165L219.516 24.6203C219.924 26.1593 221.026 27.3469 222.427 27.7791L222.456 27.7866C225.088 28.5478 235.69 28.5479 235.69 28.5479C235.69 28.5479 246.261 28.5478 248.923 27.7866C250.352 27.3469 251.456 26.1593 251.857 24.6517L251.864 24.6203C252.312 22.0807 252.568 19.1583 252.568 16.173C252.568 16.0638 252.568 15.9531 252.566 15.8424C252.568 15.7407 252.568 15.6196 252.568 15.4985C252.568 12.5117 252.312 9.58921 251.82 6.75498ZM232.307 21.2955V10.3879L241.128 15.8499L232.307 21.2955Z" fill="#F3F3F3"/>
<path d="M312.937 20.6771L312.418 28.1139C313.161 28.1139 313.482 27.789 313.868 27.3987L317.349 24.0093L324.563 29.3911C325.886 30.1423 326.818 29.7467 327.175 28.1512L331.91 5.54783L331.911 5.54649C332.331 3.55411 331.204 2.77501 329.915 3.26378L302.083 14.1193C300.183 14.8705 300.212 15.9492 301.76 16.438L308.875 18.6927L325.403 8.15683C326.181 7.6321 326.888 7.92243 326.307 8.44717L312.937 20.6771Z" fill="#F3F3F3"/>
</svg>
