<svg width="62" height="45" viewBox="0 0 62 45" fill="none" xmlns="http://www.w3.org/2000/svg">
<path d="M0.0761719 22.2423C0.0761719 16.6578 0.676221 12.3462 1.86269 9.30754C3.0628 6.2552 4.7402 3.95568 6.92221 2.38161C9.10422 0.807538 11.5317 0.0273438 14.232 0.0273438C16.9595 0.0273438 19.4415 0.821229 21.6508 2.3953C23.8601 3.98306 25.6193 6.35101 26.9149 9.51285C28.2105 12.6747 28.8514 16.9178 28.8514 22.256C28.8514 27.5668 28.2105 31.7962 26.9422 34.9444C25.6739 38.0925 23.9146 40.4605 21.6781 42.0619C19.4415 43.6634 16.9595 44.4573 14.232 44.4573C11.5317 44.4573 9.11789 43.6771 6.94952 42.1304C4.79478 40.5837 3.10373 38.2568 1.88999 35.1908C0.676248 32.0974 0.0761719 27.7858 0.0761719 22.2423ZM4.05836 22.3107C4.05836 27.0877 4.48111 30.7012 5.32664 33.1513C6.17217 35.6014 7.42684 37.4492 9.09062 38.7222C10.7544 39.9951 12.5136 40.6247 14.3684 40.6247C16.2367 40.6247 17.9823 40.0088 19.6052 38.7632C21.228 37.5314 22.4554 35.6698 23.3009 33.1924C24.351 30.1811 24.8829 26.5539 24.8829 22.3107C24.8829 18.0539 24.4192 14.5636 23.4782 11.8534C22.5372 9.14328 21.2417 7.15858 19.5915 5.89932C17.9414 4.64006 16.1958 4.01043 14.3684 4.01043C12.5 4.01043 10.7408 4.64006 9.09062 5.89932C7.45412 7.15858 6.19946 9.00641 5.34029 11.4565C4.49476 13.8929 4.05836 17.5201 4.05836 22.3107Z" fill="#4C4C4C"/>
<path d="M37.5249 14.3035H33.4882C33.5973 10.1288 34.9884 6.70688 37.6613 4.02413C40.3206 1.34138 43.621 0 47.5349 0C51.408 0 54.5446 1.25925 56.9448 3.76407C59.345 6.28257 60.5451 9.23908 60.5451 12.6473C60.5451 15.0426 59.9724 17.2873 58.8268 19.3952C57.6813 21.4894 55.4583 24.3364 52.1717 27.9225L41.6708 39.2695H61.1179V43.3484H32.4927L48.5987 25.8831C51.8717 22.3654 53.9855 19.7648 54.9674 18.0675C55.9493 16.3703 56.4403 14.5772 56.4403 12.702C56.4403 10.3204 55.5538 8.28095 53.7946 6.55632C52.0217 4.84538 49.8669 3.98307 47.3031 3.98307C44.6165 3.98307 42.3663 4.88644 40.5798 6.67951C38.7933 8.51364 37.7704 11.0458 37.5249 14.3035Z" fill="#4C4C4C"/>
</svg>
