<svg width="504" height="547" viewBox="0 0 504 547" fill="none" xmlns="http://www.w3.org/2000/svg">
<path d="M504 31.6629V517.096C504 528.74 496.251 538.798 484.925 543.676C480.048 545.796 474.723 546.885 469.337 546.863H303.805C303.758 546.926 303.692 546.974 303.614 547L302.656 546.863H34.7551C15.6168 546.863 0.0920624 533.56 0.0920624 517.096V31.6629C0.0848074 30.1304 0.226238 28.6005 0.51468 27.0915C1.00817 24.3035 1.93839 21.5974 3.27588 19.0588C4.29251 17.1802 5.50019 15.3958 6.88241 13.7298C7.34731 13.1682 7.83332 12.6327 8.36161 12.0972C9.06604 11.3003 9.84636 10.5637 10.6931 9.89637C11.0876 9.56331 11.5103 9.19762 11.9399 8.85803C13.2401 7.85546 14.6096 6.93266 16.0395 6.09555C18.4734 4.68866 21.0731 3.54489 23.7878 2.68659C27.7954 1.43136 31.9972 0.791629 36.2273 0.7927H467.787C472.782 0.776445 477.732 1.66376 482.361 3.40494C482.988 3.65964 483.615 3.90782 484.234 4.19516C487.021 5.39928 489.626 6.93613 491.983 8.76659C492.441 9.1323 492.898 9.49801 493.328 9.86373C494.231 10.5863 495.065 11.3794 495.822 12.2343C496.315 12.7699 496.808 13.3054 497.23 13.8409C498.123 14.9206 498.946 16.048 499.696 17.2172C500.413 18.4047 501.06 19.6277 501.633 20.8809C502.479 22.7866 503.095 24.7731 503.471 26.8041C503.57 27.3396 503.669 27.9013 503.732 28.4629C503.887 29.5239 503.976 30.5924 504 31.6629Z" fill="#EBEBEB"/>
<g style="mix-blend-mode:multiply">
<path d="M403.357 290.021L349.33 309.718C348.483 310.038 347.537 310.051 346.681 309.753C345.824 309.455 345.12 308.869 344.709 308.111L342.054 302.743C341.879 302.371 341.789 301.969 341.789 301.563C341.789 301.157 341.88 300.756 342.055 300.384C342.23 300.012 342.486 299.677 342.807 299.401C343.128 299.125 343.507 298.913 343.92 298.779L397.968 279.083C398.813 278.762 399.758 278.749 400.613 279.045C401.468 279.342 402.171 279.926 402.582 280.683L405.238 286.051C405.414 286.424 405.506 286.827 405.505 287.235C405.505 287.642 405.414 288.046 405.237 288.419C405.061 288.792 404.802 289.127 404.478 289.403C404.155 289.679 403.773 289.889 403.357 290.021Z" fill="#EAEFF7"/>
</g>
<g style="mix-blend-mode:multiply">
<path d="M429.893 299.967L375.852 319.663C375.006 319.986 374.06 320 373.203 319.704C372.347 319.407 371.642 318.821 371.231 318.063L368.576 312.695C368.4 312.323 368.309 311.92 368.309 311.514C368.308 311.107 368.399 310.705 368.574 310.332C368.749 309.959 369.006 309.624 369.327 309.347C369.649 309.071 370.028 308.859 370.442 308.725L424.483 289.028C425.33 288.709 426.276 288.698 427.132 288.995C427.988 289.293 428.692 289.878 429.104 290.635L431.76 296.003C431.936 296.375 432.026 296.777 432.027 297.183C432.027 297.589 431.937 297.991 431.761 298.363C431.586 298.736 431.33 299.07 431.008 299.346C430.687 299.622 430.307 299.834 429.893 299.967Z" fill="#EAEFF7"/>
</g>
<g style="mix-blend-mode:multiply">
<path d="M456.221 310.611L402.159 330.308C401.313 330.629 400.367 330.642 399.511 330.346C398.655 330.049 397.95 329.464 397.538 328.708L394.883 323.34C394.707 322.967 394.616 322.565 394.615 322.158C394.615 321.751 394.705 321.349 394.88 320.976C395.056 320.603 395.312 320.268 395.634 319.992C395.955 319.715 396.335 319.503 396.749 319.369L450.79 299.673C451.637 299.352 452.583 299.34 453.44 299.637C454.296 299.935 455 300.521 455.411 301.279L458.066 306.647C458.243 307.018 458.335 307.419 458.336 307.824C458.338 308.229 458.249 308.63 458.076 309.003C457.903 309.375 457.649 309.71 457.33 309.986C457.01 310.263 456.633 310.476 456.221 310.611Z" fill="#EAEFF7"/>
</g>
<g style="mix-blend-mode:multiply">
<path d="M77.9654 51.6988L20.001 59.6923C19.1085 59.8366 18.1904 59.6566 17.4374 59.1896C16.6844 58.7226 16.1544 58.0045 15.9577 57.1846L14.8871 51.4246C14.826 51.0184 14.8536 50.605 14.9681 50.2089C15.0826 49.8128 15.2818 49.442 15.5537 49.1186C15.8257 48.7952 16.165 48.5257 16.5514 48.3262C16.9378 48.1266 17.3635 48.001 17.8033 47.9568L75.7748 39.9699C76.6662 39.8274 77.5825 40.0083 78.3339 40.4752C79.0854 40.942 79.6142 41.6591 79.8109 42.4776L80.8886 48.2376C80.9487 48.6438 80.9201 49.057 80.8046 49.4528C80.6892 49.8485 80.4893 50.2187 80.2167 50.5415C79.9441 50.8643 79.6043 51.133 79.2176 51.3318C78.8309 51.5306 78.4051 51.6554 77.9654 51.6988Z" fill="#EAEFF7"/>
</g>
<g style="mix-blend-mode:multiply">
<path d="M86.4362 30.0563L28.4648 38.0499C27.5734 38.1924 26.657 38.0115 25.9056 37.5446C25.1542 37.0777 24.6253 36.3607 24.4286 35.5421L23.3509 29.782C23.2909 29.3755 23.3194 28.9619 23.4348 28.5658C23.5501 28.1697 23.7499 27.799 24.0225 27.4757C24.295 27.1524 24.6347 26.8831 25.0214 26.6836C25.4082 26.4841 25.8341 26.3585 26.2741 26.3143L84.2384 18.3273C85.1298 18.1848 86.0462 18.3657 86.7976 18.8326C87.549 19.2995 88.0779 20.0165 88.2746 20.835L89.3523 26.5951C89.4134 27.0009 89.3857 27.4139 89.2712 27.8097C89.1566 28.2054 88.9573 28.5757 88.6853 28.8986C88.4132 29.2215 88.0739 29.4904 87.6876 29.6893C87.3012 29.8881 86.8756 30.013 86.4362 30.0563Z" fill="#EAEFF7"/>
</g>
<g style="mix-blend-mode:multiply">
<path d="M281.234 445.051L240.675 441.786C240.295 441.77 239.922 441.684 239.579 441.533C239.235 441.382 238.927 441.169 238.673 440.906C238.419 440.643 238.224 440.336 238.1 440.003C237.976 439.67 237.925 439.317 237.949 438.965L238.654 432.29C238.764 431.581 239.169 430.939 239.782 430.503C240.395 430.066 241.168 429.869 241.936 429.953L282.502 433.185C282.882 433.202 283.254 433.288 283.597 433.44C283.94 433.591 284.247 433.804 284.5 434.067C284.753 434.33 284.947 434.636 285.071 434.969C285.195 435.302 285.246 435.655 285.221 436.006L284.517 442.68C284.415 443.396 284.013 444.045 283.399 444.489C282.785 444.932 282.007 445.134 281.234 445.051Z" fill="#EAEFF7"/>
</g>
<g style="mix-blend-mode:multiply">
<path d="M121.579 437.58L83.2949 425.629C82.9339 425.53 82.5985 425.364 82.3095 425.141C82.0206 424.917 81.7843 424.641 81.6152 424.329C81.4461 424.018 81.3479 423.677 81.3267 423.329C81.3054 422.981 81.3616 422.632 81.4917 422.305L84.1613 416.009C84.4743 415.345 85.0478 414.815 85.7656 414.528C86.4835 414.241 87.2923 414.217 88.0284 414.461L126.305 426.412C126.666 426.51 127.001 426.675 127.29 426.898C127.579 427.121 127.816 427.396 127.986 427.707C128.156 428.018 128.255 428.358 128.277 428.706C128.299 429.054 128.244 429.402 128.115 429.73L125.446 436.032C125.133 436.696 124.559 437.225 123.841 437.513C123.123 437.8 122.315 437.824 121.579 437.58Z" fill="#EAEFF7"/>
</g>
<g style="mix-blend-mode:multiply">
<path d="M492.272 471.657L461.828 469.234C461.496 469.219 461.169 469.143 460.868 469.01C460.568 468.877 460.298 468.69 460.076 468.46C459.854 468.229 459.683 467.961 459.574 467.669C459.465 467.377 459.42 467.067 459.441 466.759L460.229 459.451C460.326 458.829 460.681 458.265 461.22 457.882C461.758 457.499 462.437 457.326 463.11 457.401L493.554 459.824C493.887 459.839 494.214 459.915 494.514 460.048C494.815 460.181 495.085 460.368 495.307 460.598C495.529 460.828 495.7 461.097 495.809 461.389C495.918 461.681 495.963 461.99 495.942 462.299L495.139 469.606C495.046 470.228 494.694 470.791 494.158 471.175C493.622 471.558 492.945 471.731 492.272 471.657Z" fill="#EAEFF7"/>
</g>
<g style="mix-blend-mode:multiply">
<path d="M300.599 286.265L272.424 296.525C271.789 296.765 271.08 296.775 270.437 296.553C269.795 296.33 269.267 295.891 268.958 295.323L265.619 288.564C265.487 288.284 265.42 287.982 265.42 287.677C265.42 287.371 265.489 287.069 265.621 286.789C265.753 286.51 265.947 286.258 266.189 286.051C266.431 285.844 266.717 285.686 267.028 285.586L295.204 275.327C295.838 275.086 296.548 275.076 297.19 275.299C297.832 275.522 298.36 275.96 298.669 276.528L302.015 283.294C302.147 283.574 302.214 283.876 302.213 284.181C302.212 284.486 302.143 284.788 302.01 285.068C301.877 285.347 301.683 285.597 301.44 285.804C301.197 286.01 300.911 286.167 300.599 286.265Z" fill="#EAEFF7"/>
</g>
<g style="mix-blend-mode:multiply">
<path d="M232.887 311.583L220.912 287.42C220.78 287.141 220.713 286.839 220.713 286.534C220.713 286.229 220.782 285.928 220.914 285.649C221.047 285.369 221.24 285.119 221.482 284.912C221.724 284.706 222.01 284.548 222.321 284.449L230.196 281.576C230.831 281.335 231.54 281.325 232.182 281.548C232.825 281.771 233.353 282.21 233.662 282.777L245.636 306.94C245.768 307.22 245.836 307.521 245.835 307.826C245.835 308.131 245.766 308.433 245.634 308.712C245.502 308.991 245.308 309.242 245.066 309.448C244.824 309.655 244.539 309.813 244.227 309.912L236.352 312.785C235.717 313.024 235.009 313.033 234.367 312.811C233.725 312.588 233.197 312.15 232.887 311.583Z" fill="#EAEFF7"/>
</g>
<g style="mix-blend-mode:multiply">
<path d="M43.3274 332.926L25.6754 311.486C25.4763 311.246 25.3339 310.969 25.2576 310.674C25.1814 310.379 25.1729 310.073 25.2327 309.775C25.2925 309.477 25.4192 309.194 25.6047 308.944C25.7902 308.694 26.0303 308.484 26.3093 308.325L33.2899 304.087C33.8668 303.737 34.5637 303.599 35.2447 303.699C35.9257 303.799 36.5421 304.131 36.9738 304.629L54.6329 326.063C54.8309 326.303 54.9724 326.58 55.048 326.875C55.1237 327.169 55.132 327.476 55.0722 327.773C55.0125 328.071 54.8861 328.354 54.7012 328.604C54.5164 328.853 54.2771 329.065 53.9989 329.223L47.0114 333.468C46.4316 333.81 45.7372 333.943 45.0588 333.843C44.3804 333.743 43.7647 333.417 43.3274 332.926Z" fill="#EAEFF7"/>
</g>
<g style="mix-blend-mode:multiply">
<path d="M250.328 110.03L223.85 96.9035C223.556 96.7701 223.295 96.581 223.085 96.3486C222.874 96.1162 222.718 95.8455 222.627 95.5539C222.536 95.2624 222.512 94.9564 222.557 94.6557C222.601 94.355 222.713 94.0662 222.885 93.8079L227.16 87.4472C227.542 86.9149 228.124 86.534 228.792 86.3794C229.461 86.2247 230.168 86.3074 230.774 86.6113L257.252 99.7377C257.546 99.8718 257.807 100.061 258.018 100.294C258.228 100.527 258.384 100.799 258.475 101.091C258.566 101.383 258.59 101.689 258.545 101.991C258.501 102.292 258.389 102.581 258.217 102.84L253.941 109.201C253.558 109.73 252.975 110.109 252.307 110.262C251.639 110.416 250.933 110.333 250.328 110.03Z" fill="#EAEFF7"/>
</g>
<g style="mix-blend-mode:multiply">
<path d="M212.431 94.1612L185.946 81.0346C185.652 80.9005 185.391 80.7109 185.18 80.4779C184.97 80.2448 184.814 79.9736 184.723 79.6815C184.632 79.3894 184.608 79.083 184.653 78.7818C184.697 78.4806 184.809 78.1913 184.981 77.9325L189.256 71.5717C189.64 71.0417 190.222 70.6631 190.89 70.5098C191.558 70.3564 192.264 70.4394 192.87 70.7423L219.348 83.8689C219.643 84.0022 219.905 84.1915 220.116 84.4244C220.327 84.6573 220.483 84.9287 220.574 85.2211C220.665 85.5135 220.689 85.8203 220.644 86.1217C220.599 86.4231 220.486 86.7124 220.313 86.9709L216.037 93.3318C215.656 93.8625 215.075 94.2418 214.408 94.3953C213.74 94.5488 213.035 94.4653 212.431 94.1612Z" fill="#EAEFF7"/>
</g>
<g style="mix-blend-mode:multiply">
<path d="M135.277 42.5885L123.598 18.3276C123.469 18.0483 123.403 17.7473 123.404 17.4434C123.406 17.1395 123.475 16.8391 123.607 16.5609C123.739 16.2828 123.932 16.0329 124.173 15.8267C124.413 15.6205 124.697 15.4626 125.007 15.3627L132.917 12.5545C133.555 12.3202 134.264 12.3171 134.904 12.5458C135.543 12.7746 136.066 13.2184 136.369 13.7888L148.048 38.0498C148.176 38.3292 148.241 38.63 148.239 38.9336C148.237 39.2373 148.168 39.5373 148.036 39.8152C147.904 40.0931 147.712 40.3429 147.472 40.5492C147.231 40.7555 146.948 40.9139 146.639 41.0147L138.715 43.8163C138.08 44.0489 137.374 44.0517 136.737 43.8243C136.101 43.5969 135.579 43.1557 135.277 42.5885Z" fill="#EAEFF7"/>
</g>
<g style="mix-blend-mode:multiply">
<path d="M173.233 40.0284L161.548 15.7675C161.418 15.4883 161.352 15.1873 161.354 14.8834C161.355 14.5795 161.424 14.2791 161.556 14.0009C161.688 13.7228 161.881 13.4728 162.122 13.2667C162.363 13.0605 162.647 12.9026 162.956 12.8027L170.86 10.0011C171.496 9.76306 172.205 9.75739 172.846 9.98521C173.486 10.213 174.01 10.6574 174.311 11.2288L185.997 35.4897C186.126 35.7689 186.192 36.0699 186.191 36.3738C186.189 36.6778 186.121 36.9781 185.988 37.2563C185.856 37.5344 185.664 37.7844 185.423 37.9905C185.182 38.1967 184.898 38.3546 184.588 38.4546L176.685 41.2562C176.049 41.4926 175.339 41.4974 174.699 41.2698C174.059 41.0421 173.536 40.5988 173.233 40.0284Z" fill="#EAEFF7"/>
</g>
<g style="mix-blend-mode:multiply">
<path d="M21.8441 335.585L4.17796 314.152C3.9799 313.911 3.83849 313.634 3.76282 313.34C3.68716 313.045 3.67889 312.739 3.73862 312.441C3.79835 312.143 3.92474 311.86 4.1096 311.611C4.29446 311.361 4.53371 311.15 4.81193 310.991L11.7995 306.746C12.3793 306.405 13.0737 306.271 13.7521 306.371C14.4305 306.471 15.0462 306.797 15.4834 307.288L33.1355 328.728C33.3346 328.969 33.477 329.245 33.5533 329.54C33.6295 329.835 33.638 330.141 33.5783 330.44C33.5185 330.738 33.3917 331.021 33.2062 331.27C33.0207 331.52 32.7807 331.731 32.5016 331.889L25.521 336.127C24.9447 336.475 24.2494 336.613 23.57 336.513C22.8906 336.413 22.2756 336.082 21.8441 335.585Z" fill="#EAEFF7"/>
</g>
<g style="mix-blend-mode:multiply">
<path d="M65.9782 303.988L54.4614 280.687C54.3012 280.35 54.2179 279.987 54.2168 279.619C54.2157 279.251 54.2967 278.887 54.4549 278.549C54.6131 278.212 54.8449 277.908 55.1357 277.658C55.4266 277.408 55.7702 277.216 56.1449 277.095L68.2746 272.707C69.0398 272.416 69.8951 272.404 70.6695 272.673C71.4439 272.941 72.0803 273.471 72.4516 274.156L83.9543 297.458C84.1122 297.795 84.1935 298.159 84.1931 298.527C84.1927 298.894 84.1107 299.258 83.9521 299.595C83.7935 299.932 83.5617 300.235 83.2713 300.485C82.9808 300.735 82.6379 300.928 82.2638 301.05L70.1623 305.458C69.3936 305.747 68.5353 305.757 67.7593 305.484C66.9834 305.212 66.3472 304.677 65.9782 303.988Z" fill="#EAEFF7"/>
</g>
<g style="mix-blend-mode:multiply">
<path d="M111.321 101.946L94.2958 81.2961C94.056 81.0059 93.8845 80.6722 93.7926 80.3168C93.7006 79.9613 93.6901 79.5919 93.7618 79.2324C93.8335 78.8729 93.9858 78.5314 94.2088 78.2299C94.4318 77.9284 94.7207 77.6737 95.0565 77.4822L105.791 70.9516C106.488 70.53 107.328 70.3634 108.15 70.4841C108.971 70.6048 109.715 71.0042 110.236 71.6047L127.261 92.274C127.501 92.5642 127.672 92.8978 127.764 93.2533C127.856 93.6088 127.867 93.9782 127.795 94.3377C127.724 94.6971 127.571 95.0387 127.348 95.3402C127.125 95.6416 126.836 95.8964 126.501 96.0878L115.766 102.618C115.067 103.038 114.225 103.201 113.403 103.077C112.582 102.953 111.84 102.549 111.321 101.946Z" fill="#EAEFF7"/>
</g>
<g style="mix-blend-mode:multiply">
<path d="M326.823 252.972L283.25 268.854C282.453 269.155 281.564 269.167 280.759 268.887C279.954 268.607 279.291 268.057 278.904 267.346L276.086 261.644C275.92 261.295 275.835 260.917 275.834 260.535C275.833 260.152 275.918 259.774 276.083 259.424C276.248 259.074 276.489 258.759 276.791 258.499C277.094 258.24 277.451 258.041 277.84 257.915L321.414 242.033C322.21 241.731 323.1 241.718 323.905 241.998C324.711 242.278 325.373 242.829 325.76 243.541L328.577 249.243C328.743 249.593 328.829 249.97 328.83 250.353C328.83 250.735 328.745 251.113 328.581 251.463C328.416 251.813 328.175 252.128 327.872 252.388C327.57 252.647 327.213 252.846 326.823 252.972Z" fill="#EAEFF7"/>
</g>
<g style="mix-blend-mode:multiply">
<path d="M179.241 112.859L140.591 136.323C139.867 136.757 138.998 136.93 138.146 136.81C137.295 136.689 136.521 136.284 135.97 135.67L131.807 130.615C131.558 130.313 131.38 129.965 131.285 129.595C131.19 129.225 131.18 128.84 131.255 128.466C131.33 128.092 131.488 127.737 131.72 127.423C131.953 127.109 132.253 126.844 132.603 126.645L171.253 103.18C171.976 102.746 172.845 102.573 173.697 102.694C174.548 102.814 175.323 103.219 175.874 103.833L180.036 108.888C180.286 109.19 180.465 109.538 180.561 109.908C180.656 110.278 180.667 110.663 180.592 111.038C180.517 111.412 180.358 111.768 180.125 112.081C179.892 112.395 179.591 112.66 179.241 112.859Z" fill="#EAEFF7"/>
</g>
<g style="mix-blend-mode:multiply">
<path d="M372.109 487.343L331.543 484.078C331.164 484.062 330.792 483.976 330.449 483.826C330.106 483.675 329.799 483.462 329.546 483.2C329.293 482.938 329.099 482.632 328.975 482.299C328.851 481.966 328.8 481.614 328.824 481.263L329.529 474.589C329.638 473.879 330.042 473.236 330.656 472.799C331.269 472.362 332.043 472.165 332.811 472.251L373.37 475.516C373.752 475.531 374.128 475.617 374.473 475.769C374.819 475.921 375.128 476.136 375.383 476.401C375.637 476.666 375.831 476.976 375.954 477.312C376.076 477.648 376.125 478.003 376.096 478.357L375.392 485.031C375.275 485.736 374.867 486.371 374.255 486.802C373.642 487.234 372.873 487.428 372.109 487.343Z" fill="#EAEFF7"/>
</g>
<g style="mix-blend-mode:multiply">
<path d="M375.512 469.462L334.954 466.197C334.574 466.181 334.202 466.095 333.859 465.945C333.516 465.794 333.209 465.581 332.956 465.319C332.703 465.057 332.509 464.751 332.385 464.418C332.261 464.086 332.21 463.733 332.235 463.382L332.939 456.702C333.049 455.992 333.454 455.351 334.067 454.914C334.681 454.477 335.454 454.28 336.221 454.364L376.78 457.629C377.16 457.644 377.533 457.729 377.877 457.879C378.22 458.03 378.528 458.242 378.782 458.504C379.036 458.767 379.231 459.073 379.355 459.406C379.48 459.739 379.531 460.092 379.506 460.444L378.802 467.118C378.697 467.831 378.292 468.477 377.677 468.916C377.061 469.355 376.283 469.551 375.512 469.462Z" fill="#EAEFF7"/>
</g>
<g style="mix-blend-mode:multiply">
<path d="M258.314 486.357L248.502 452.398C248.42 452.058 248.412 451.706 248.478 451.363C248.544 451.02 248.684 450.693 248.889 450.401C249.094 450.109 249.359 449.858 249.67 449.663C249.981 449.467 250.331 449.331 250.7 449.263L258.279 447.644C259.034 447.467 259.833 447.565 260.513 447.917C261.193 448.269 261.701 448.849 261.935 449.537L271.747 483.496C271.831 483.837 271.84 484.189 271.774 484.533C271.708 484.876 271.568 485.204 271.363 485.497C271.159 485.79 270.893 486.042 270.581 486.238C270.269 486.433 269.919 486.569 269.549 486.638L261.97 488.251C261.215 488.429 260.415 488.332 259.735 487.979C259.055 487.627 258.546 487.046 258.314 486.357Z" fill="#EAEFF7"/>
</g>
<g style="mix-blend-mode:multiply">
<path d="M101.327 105.91C101.327 105.91 117.824 110.083 121.346 120.931C124.868 131.778 110.266 140.157 106.969 143.729C103.673 147.301 66.6991 144.088 66.6991 144.088C66.6991 144.088 30.2116 129.427 29.5706 120.931C28.9296 112.434 -0.288557 111.096 34.0857 100.816C68.46 90.5372 52.1252 85.143 68.453 90.5372C84.7808 95.9315 101.327 105.91 101.327 105.91Z" fill="#EAEFF7"/>
</g>
<g style="mix-blend-mode:multiply">
<path d="M437.197 73.8179C437.197 73.8179 453.694 77.991 457.216 88.8383C460.738 99.6856 446.143 108.064 442.846 111.637C439.55 115.209 402.576 111.996 402.576 111.996C402.576 111.996 366.082 97.3346 365.441 88.8383C364.8 80.342 335.588 79.0032 369.956 68.7241C404.323 58.4449 388.002 53.0507 404.323 58.445C420.644 63.8392 437.197 73.8179 437.197 73.8179Z" fill="#EAEFF7"/>
</g>
<g style="mix-blend-mode:multiply">
<path d="M138.596 261.828C137.499 264.089 135.86 266.088 133.803 267.673C131.746 269.257 129.326 270.385 126.727 270.971C117.732 273.06 110.075 267.536 106.934 266.399C103.792 265.263 105.046 249.805 105.046 249.805C105.046 249.805 115.978 233.877 123.121 233.106C130.263 232.336 130.242 220.208 140.258 233.759C150.275 247.31 154.163 240.29 150.282 247.336C146.401 254.383 138.596 261.828 138.596 261.828Z" fill="#EAEFF7"/>
</g>
<g style="mix-blend-mode:multiply">
<path d="M0.0820312 178.725C27.7717 170.157 92.2798 158.447 107.15 166.97C122.019 175.492 178.997 174.976 178.997 174.976L231.122 147.9C231.122 147.9 309.401 164.573 308.669 130.111C307.936 95.6488 331.717 41.3664 362.005 28.5925C392.294 15.8186 394.633 0.73291 394.633 0.73291H368.303C368.303 0.73291 354.151 24.6937 340.972 26.8162C327.793 28.9386 289.298 59.0382 292.841 75.2146C296.384 91.3909 292.841 119.74 292.841 119.74L259.869 128.968L217.035 123.09C217.035 123.09 198.15 144.06 195.607 147.907C193.064 151.753 170.495 159.12 157.056 155.267C143.616 151.414 103.804 151.721 103.804 151.721C103.804 151.721 59.6665 166.989 51.8266 157.984C43.9868 148.978 22.1295 153.131 22.1295 153.131L0.0820312 157.977V178.725Z" fill="#EAEFF7"/>
</g>
<g style="mix-blend-mode:multiply">
<path d="M504 280.591V311.226C501.077 313.538 496.745 316.555 491.92 318.325C488.243 319.735 484.27 320.356 480.495 319.396C478.7 319.032 476.826 319.21 475.149 319.905C469.203 322.021 462.11 328.643 456.074 335.239C452.756 338.876 449.734 342.54 447.508 345.414C444.846 348.823 443.204 351.134 443.204 351.134C443.204 351.134 411.507 371.823 398.039 375.624C393.108 377.009 388.29 380.248 384.155 383.97C383.197 384.839 382.282 385.714 381.429 386.583C380.577 387.451 379.591 388.542 378.767 389.489C374.54 394.478 371.976 399.285 372.272 401.244C372.892 405.613 372.371 432.134 372.371 432.134L372.174 432.218L366.623 434.726L360.283 437.567L333.953 449.433L313.97 473.786C313.97 473.786 319.548 481.93 327.036 490.948C330.968 495.83 335.201 500.496 339.715 504.924C341.455 506.589 343.195 508.137 344.899 509.495C352.782 515.699 353.176 532.104 350.387 546.844H326.783C325.854 539.788 324.318 532.813 322.19 525.985C320.971 521.897 319.527 517.841 317.964 513.838C316.689 510.651 315.308 507.497 313.864 504.427C311.666 499.778 309.236 495.285 306.672 491.007C303.038 484.859 298.793 479.039 293.993 473.623C279.905 458.034 298.262 442.589 316.534 432.218C318.344 431.174 320.147 430.22 321.95 429.286C323.754 428.352 325.402 427.51 327.071 426.72C336.398 422.214 343.78 419.536 343.78 419.536L366.729 371.033C366.788 371.004 366.843 370.966 366.891 370.922L367.123 370.779C367.616 370.439 368.666 369.792 370.11 368.891C370.997 368.297 372.047 367.65 373.258 366.893C376.837 364.692 381.626 361.786 386.98 358.69C401.392 350.462 419.903 341.019 429.884 340.568C439.239 340.143 455.686 328.225 471.57 313.93C475.409 310.494 479.22 306.89 482.897 303.278C491.068 295.298 498.485 287.239 504 280.591Z" fill="#EAEFF7"/>
</g>
<g style="mix-blend-mode:multiply">
<path d="M158.362 518.847C158.094 521.108 157.654 523.349 157.045 525.554C156.947 525.834 156.883 526.115 156.785 526.396H37.362C35.6198 524.48 34.0114 522.582 32.5369 520.701C28.4303 515.346 25.7043 510.161 25.493 505.681C24.5773 485.436 -17.5735 482.262 31.9945 457.772C33.3047 457.119 34.5585 456.466 35.77 455.852C38.2284 454.546 40.4965 453.318 42.5956 452.104C78.1392 431.395 59.9518 421.54 81.5837 433.296C88.0076 436.852 94.1598 440.815 99.9965 445.155C101.997 446.651 103.969 448.172 105.871 449.668C113.976 456.039 121.703 462.812 129.017 469.958C129.017 469.958 152.812 479.878 157.897 505.694C158.765 510.031 158.922 514.466 158.362 518.847Z" fill="#EAEFF7"/>
</g>
<g style="mix-blend-mode:multiply">
<path d="M375.174 150.403C336.432 174.207 275.932 174.651 308.672 209.022C341.412 243.392 382.633 281.583 412.218 258.765C441.802 235.947 435.075 238.84 450.847 206.52C466.618 174.2 482.051 147.536 431.539 139.079C381.027 130.621 375.174 150.403 375.174 150.403Z" fill="#EAEFF7"/>
</g>
<g style="mix-blend-mode:multiply">
<path d="M268.819 356.887C244.166 367.78 205.664 367.988 226.5 383.721C247.336 399.453 273.553 416.935 292.403 406.486C311.252 396.037 306.948 397.343 316.986 382.578C327.023 367.812 336.843 355.574 304.694 351.701C272.546 347.829 268.819 356.887 268.819 356.887Z" fill="#EAEFF7"/>
</g>
<g style="mix-blend-mode:multiply">
<path d="M157.736 486.115C169.33 501.716 167.886 525.07 187.088 513.413C206.289 501.756 227.752 486.957 216.432 474.882C205.113 462.807 206.465 465.504 189.708 458.51C172.95 451.516 159.18 444.796 153.277 464.048C147.374 483.3 157.736 486.115 157.736 486.115Z" fill="#EAEFF7"/>
</g>
<path d="M302.643 546.842H290.006C290.245 546.545 290.547 546.296 290.893 546.111C291.126 545.993 291.351 545.882 291.598 545.739C291.657 545.739 291.714 545.72 291.76 545.686C292.418 545.496 293.114 545.447 293.795 545.543L302.643 546.842Z" fill="white"/>
<path d="M503.992 338.602V368.179L483.163 333.319L479.55 327.258L434.412 251.797L427.227 239.8L396.108 187.745L392.515 181.724L356.288 121.133L352.668 115.092L324.548 68.0715L320.893 61.9588L286.11 3.83638C285.534 2.89754 285.237 1.8338 285.25 0.753906H301.959L335.812 57.3678L339.425 63.4021L384.626 139L388.239 145.035L441.379 233.897L448.564 245.894L503.992 338.602Z" fill="white"/>
<path d="M503.993 207.65V222.671L448.564 245.867L434.413 251.791L328.275 296.277L321.175 299.229L242.283 332.267L235.239 335.219L226.787 338.759L165.955 364.228L149.867 370.968L87.7396 397.005L78.3923 400.924L63.3465 407.265C63.1704 407.343 62.9732 407.415 62.776 407.493L32.1842 420.319L25.084 423.291L3.55072 432.316C2.46985 432.763 1.29671 432.986 0.113281 432.969V418.732L50.6323 397.58L65.1991 391.487L146.81 357.293C147.007 357.195 147.204 357.123 147.402 357.044L212.001 329.988L226.195 324.026L261.414 309.267L268.458 306.315L372.328 262.808L379.372 259.843L427.214 239.801L441.365 233.877L503.993 207.65Z" fill="white"/>
<path d="M249.801 546.843H234.072C235.882 508.397 229.282 477.338 219.005 452.593C217.761 449.546 216.448 446.615 215.067 443.803C193.569 398.742 160.414 377.008 149.911 371C147.904 369.844 146.727 369.256 146.594 369.197C142.818 367.421 141.409 363.32 143.508 360.054C144.405 358.679 145.767 357.618 147.382 357.037C148.476 356.651 149.644 356.479 150.813 356.533C151.982 356.587 153.126 356.866 154.173 357.351C158.278 359.398 162.227 361.705 165.992 364.254C177.418 371.777 195.337 385.844 211.778 408.303C212.144 408.812 212.482 409.321 212.898 409.824C215.194 413.09 217.526 416.564 219.822 420.273C231.409 439.016 242.144 463.93 247.131 495.754C247.836 500.09 248.413 504.577 248.871 509.194C250.088 521.71 250.399 534.288 249.801 546.843Z" fill="white"/>
<path d="M503.992 98.3142V105.335L485.502 111.676L388.239 145.015L380.547 147.627C380.085 147.793 379.593 147.877 379.096 147.875C378.332 147.892 377.58 147.7 376.934 147.322C376.287 146.945 375.775 146.399 375.462 145.752C375.27 145.334 375.175 144.883 375.182 144.428C375.189 143.974 375.299 143.525 375.504 143.112C375.709 142.699 376.004 142.33 376.372 142.029C376.739 141.728 377.171 141.501 377.638 141.364L384.626 138.961L478.535 106.765L485.875 104.251L502.541 98.5363C503.006 98.3805 503.498 98.3052 503.992 98.3142Z" fill="white"/>
<path d="M485.98 111.485C485.829 111.557 485.674 111.62 485.515 111.675C485.063 111.825 484.586 111.902 484.106 111.903C483.412 111.909 482.729 111.748 482.123 111.435C481.517 111.123 481.008 110.67 480.648 110.121L478.534 106.79L430.579 30.7019L426.811 24.7264L412.723 2.33941C412.41 1.85366 412.245 1.29864 412.244 0.73291H420.697L434.165 22.1141L437.933 28.0961L485.931 104.276L487.607 106.927C487.843 107.322 487.988 107.757 488.034 108.206C488.079 108.656 488.023 109.109 487.871 109.537C487.718 109.965 487.471 110.359 487.145 110.695C486.82 111.03 486.423 111.299 485.98 111.485Z" fill="white"/>
<path d="M227.266 455.337C226.737 455.336 226.214 455.243 225.723 455.063L72.0178 398.573C71.5541 398.425 71.1287 398.189 70.769 397.88C70.4093 397.571 70.1231 397.196 69.9289 396.779C69.7346 396.361 69.6364 395.911 69.6408 395.456C69.6451 395.002 69.7517 394.553 69.9539 394.139C70.4144 393.295 71.2015 392.644 72.1576 392.316C73.1137 391.988 74.1683 392.007 75.1101 392.369L228.815 448.859C229.278 449.007 229.703 449.242 230.062 449.551C230.421 449.859 230.707 450.234 230.901 450.651C231.095 451.067 231.193 451.517 231.19 451.971C231.186 452.425 231.08 452.873 230.879 453.287C230.55 453.912 230.035 454.437 229.395 454.8C228.754 455.163 228.016 455.35 227.266 455.337Z" fill="white"/>
<path d="M153.508 428.3L153.346 428.47L116.119 470.096L73.8553 517.39L68.664 523.196L47.5322 546.81H37.6426L42.7635 541.09L62.7894 518.683L68.5301 512.224L110.251 465.557L145.9 425.72L147.309 424.199C147.97 423.476 148.899 423.008 149.913 422.887C150.927 422.767 151.953 423.001 152.789 423.545C153.196 423.797 153.541 424.126 153.802 424.51C154.062 424.893 154.231 425.324 154.299 425.773C154.367 426.222 154.332 426.68 154.195 427.115C154.059 427.551 153.825 427.954 153.508 428.3Z" fill="white"/>
<path d="M295.747 429.626C295.048 429.636 294.359 429.475 293.748 429.16C293.137 428.845 292.627 428.386 292.267 427.83L231.69 329.362C231.452 328.966 231.305 328.528 231.26 328.077C231.214 327.626 231.27 327.171 231.424 326.741C231.579 326.311 231.828 325.915 232.156 325.58C232.484 325.244 232.884 324.975 233.331 324.79C234.246 324.366 235.299 324.276 236.283 324.537C237.266 324.798 238.108 325.392 238.642 326.201L299.22 424.663C299.458 425.059 299.604 425.496 299.65 425.947C299.695 426.399 299.639 426.854 299.485 427.284C299.33 427.714 299.081 428.109 298.753 428.445C298.425 428.781 298.025 429.05 297.578 429.234C297.009 429.494 296.382 429.628 295.747 429.626Z" fill="white"/>
<path d="M399.849 418.928C399.16 418.937 398.48 418.78 397.875 418.474C397.271 418.167 396.762 417.721 396.398 417.178L317.506 293.475C317.265 293.084 317.114 292.651 317.063 292.204C317.011 291.756 317.06 291.303 317.206 290.874C317.353 290.445 317.593 290.048 317.912 289.709C318.232 289.37 318.623 289.096 319.063 288.904C319.971 288.471 321.022 288.368 322.008 288.616C322.995 288.863 323.846 289.443 324.395 290.243L403.287 413.939C403.527 414.33 403.678 414.763 403.73 415.211C403.781 415.658 403.732 416.111 403.586 416.54C403.44 416.97 403.199 417.366 402.88 417.705C402.561 418.044 402.169 418.318 401.73 418.51C401.148 418.787 400.503 418.93 399.849 418.928Z" fill="white"/>
<path d="M369.694 371.633C368.927 371.645 368.174 371.451 367.524 371.073C366.875 370.695 366.359 370.15 366.038 369.504C365.848 369.084 365.755 368.632 365.764 368.177C365.774 367.722 365.886 367.273 366.094 366.861C366.301 366.448 366.6 366.08 366.97 365.781C367.34 365.481 367.774 365.257 368.243 365.122L487.285 324.633C488.236 324.293 489.29 324.3 490.236 324.651C491.182 325.002 491.949 325.672 492.385 326.527C492.573 326.946 492.666 327.398 492.655 327.852C492.645 328.307 492.533 328.754 492.325 329.166C492.118 329.578 491.82 329.945 491.45 330.244C491.081 330.543 490.648 330.767 490.18 330.902L371.138 371.392C370.676 371.551 370.187 371.633 369.694 371.633Z" fill="white"/>
<path d="M503.991 448.538V455.329C503.807 455.336 503.623 455.323 503.442 455.29L452.902 449.067L445.083 448.1L386.126 440.838L378.3 439.871L295.182 429.612L219.762 420.325L206.956 418.752C206.217 418.671 205.518 418.395 204.943 417.956C204.369 417.517 203.943 416.934 203.716 416.276C203.527 415.624 203.561 414.933 203.813 414.299C204.066 413.665 204.524 413.119 205.125 412.737L211.718 408.361L260.378 376.12L262.998 374.376C263.842 373.834 264.872 373.601 265.891 373.721C266.909 373.842 267.843 374.308 268.513 375.029C268.647 375.181 268.765 375.345 268.865 375.519C269.3 376.218 269.432 377.044 269.236 377.831C269.04 378.617 268.53 379.305 267.809 379.757L264.104 382.219L217.29 413.233L288.61 422.036L298.267 423.225L379.37 433.236L387.217 434.203L446.168 441.465L453.973 442.432L503.991 448.538Z" fill="white"/>
<path d="M492.054 8.70117L437.886 28.0906L430.568 30.7028L339.413 63.3559L331.861 66.0595L331.566 66.1444C331.171 66.2881 328.973 66.8824 325.494 67.8097L324.543 68.0644C317.351 69.9518 305.567 72.8513 292.845 75.1958C282.279 77.155 271.009 78.7746 261.232 79.0555C260.147 79.0555 259.119 79.1142 258.048 79.1142C255.815 79.1142 253.653 79.0293 251.645 78.8595C251.159 78.8008 250.631 78.7158 250.173 78.6636C238.29 76.7044 228.337 63.5256 220.793 48.5575C219.741 46.4459 218.724 44.3039 217.743 42.1314C209.53 24.0089 204.705 5.23992 203.726 1.40645C203.658 1.17661 203.625 0.939343 203.627 0.701172H211.601C215.283 15.2148 220.337 29.3997 226.703 43.0914C226.833 43.2956 226.933 43.5153 226.999 43.7444C234.515 59.1305 243.439 71.395 252.434 72.1526C263.402 73.1126 279.124 70.9444 293.5 68.182C304.27 66.0922 314.245 63.6693 320.908 61.9779C325.374 60.822 328.332 60.0187 328.988 59.8097L330.396 59.333L335.841 57.3738L426.813 24.7338L434.097 22.1216L484.257 4.14278C487.06 5.33934 489.681 6.87192 492.054 8.70117Z" fill="white"/>
<path d="M268.473 317.194C267.763 317.207 267.063 317.045 266.444 316.723C265.825 316.402 265.309 315.933 264.951 315.365C220.138 240.557 219.497 189.919 262.986 160.544C274.207 152.968 280.229 143.754 280.884 133.174C282.568 106.164 249.609 78.2062 249.271 77.9253C248.906 77.6293 248.613 77.2653 248.409 76.8571C248.206 76.449 248.097 76.0058 248.091 75.5562C248.084 75.1066 248.179 74.6608 248.371 74.2476C248.562 73.8345 248.845 73.4632 249.201 73.158C249.956 72.5142 250.94 72.1515 251.966 72.1395C252.992 72.1274 253.986 72.4669 254.758 73.0927C256.224 74.3204 290.591 103.434 288.738 133.514C287.956 146.131 280.934 157.024 267.846 165.847C227.787 192.91 229.104 240.805 271.946 312.276C272.182 312.675 272.325 313.116 272.367 313.569C272.409 314.023 272.348 314.48 272.188 314.91C272.028 315.341 271.773 315.735 271.439 316.069C271.105 316.403 270.699 316.668 270.248 316.847C269.691 317.082 269.085 317.2 268.473 317.194Z" fill="white"/>
<path d="M237.22 245.383C236.467 245.396 235.727 245.208 235.086 244.844C234.445 244.48 233.929 243.953 233.599 243.326C233.399 242.909 233.295 242.459 233.295 242.002C233.294 241.546 233.397 241.095 233.596 240.678C233.795 240.261 234.086 239.887 234.451 239.58C234.815 239.274 235.245 239.042 235.712 238.899L400.047 178.993C400.991 178.636 402.047 178.621 403.002 178.953C403.958 179.285 404.743 179.938 405.203 180.783C405.403 181.199 405.506 181.65 405.507 182.107C405.507 182.563 405.405 183.014 405.206 183.431C405.007 183.848 404.715 184.222 404.351 184.529C403.987 184.835 403.557 185.067 403.09 185.21L238.741 245.116C238.256 245.291 237.74 245.382 237.22 245.383Z" fill="white"/>
<path d="M363.27 118.598L356.289 121.158L285.188 147.078L283.688 147.626C283.194 147.799 282.672 147.889 282.145 147.894C281.428 147.893 280.722 147.722 280.095 147.398L277.186 145.889L207.811 109.69L200.577 105.922L117.973 62.82L116.719 62.167C115.937 61.7847 115.338 61.1436 115.042 60.3711L113.549 56.5833L91.7692 1.82419C91.6222 1.47458 91.5481 1.10228 91.5509 0.727051H99.6161L121.389 55.5058L122.009 57.0404L129.919 61.1613L209.684 102.774L279.856 139.346L282.455 140.711L288.09 138.666L352.704 115.084L360.248 112.342C361.194 111.989 362.248 111.978 363.203 112.311C364.157 112.643 364.942 113.295 365.404 114.138C365.603 114.558 365.705 115.012 365.704 115.471C365.703 115.93 365.599 116.384 365.398 116.804C365.197 117.224 364.904 117.6 364.538 117.909C364.171 118.218 363.74 118.452 363.27 118.598Z" fill="white"/>
<path d="M274.086 232.224C273.311 230.058 272.276 227.979 271.001 226.027C264.795 216.355 253.144 209.648 239.62 208.917C238.831 208.917 238.049 208.858 237.26 208.858C236.635 208.848 236.01 208.868 235.387 208.917C234.122 208.947 232.861 209.052 231.611 209.23C216.481 211.144 204.239 220.587 200.132 232.988C199.18 235.904 198.705 238.935 198.723 241.981C198.724 244.198 198.979 246.409 199.484 248.577C203.055 263.682 218.686 275.124 237.331 275.124C239.573 275.127 241.811 274.956 244.023 274.614C245.284 274.43 246.535 274.186 247.77 273.883C249.073 273.577 250.355 273.2 251.609 272.753C265.823 267.881 275.932 255.904 275.932 241.981C275.905 238.656 275.281 235.359 274.086 232.224ZM248.939 266.412C247.688 266.864 246.402 267.231 245.093 267.509C243.854 267.804 242.595 268.022 241.325 268.162C239.975 268.33 238.615 268.413 237.253 268.41C220.278 268.41 206.493 256.577 206.493 242.007C206.493 229.266 216.995 218.667 230.984 216.159C232.21 215.938 233.45 215.787 234.696 215.708C235.514 215.656 236.373 215.624 237.225 215.624C237.782 215.624 238.338 215.624 238.895 215.624C249.46 216.126 258.66 221.227 263.71 228.639C265.067 230.562 266.107 232.662 266.796 234.869C267.566 237.17 267.956 239.566 267.951 241.975C267.951 252.998 260.069 262.435 248.939 266.412Z" fill="white"/>
<path d="M416.156 408.571C411.149 408.565 406.184 409.426 401.519 411.112C400.307 411.562 399.124 412.039 397.997 412.575C396.844 413.108 395.725 413.701 394.644 414.351C387.251 418.679 381.839 425.382 379.443 433.179C379.142 434.196 378.906 435.23 378.739 436.274C378.523 437.458 378.391 438.653 378.344 439.853C378.289 440.286 378.268 440.723 378.281 441.159C378.281 459.079 395.313 473.708 416.191 473.708C433.886 473.708 448.791 463.259 452.961 449.107V449.074C453.586 446.894 453.948 444.655 454.038 442.4C454.074 441.975 454.073 441.577 454.073 441.159C454.038 423.174 437.069 408.571 416.156 408.571ZM445.078 448.088C441.556 458.936 429.913 466.916 416.156 466.916C399.582 466.916 386.121 455.331 386.121 441.127V440.813C386.174 438.55 386.55 436.303 387.241 434.132C388.405 430.753 390.288 427.625 392.779 424.933C395.271 422.241 398.319 420.039 401.744 418.459C406.216 416.376 411.152 415.296 416.156 415.304C432.737 415.304 446.191 426.89 446.191 441.094V441.375C446.193 443.652 445.818 445.916 445.078 448.088Z" fill="white"/>
<path d="M379.106 270.847C378.371 270.86 377.647 270.684 377.013 270.338C376.38 269.992 375.863 269.49 375.52 268.888L341.315 204.176C341.105 203.766 340.988 203.321 340.974 202.867C340.96 202.414 341.048 201.962 341.232 201.542C341.416 201.122 341.693 200.742 342.044 200.426C342.396 200.11 342.814 199.866 343.273 199.709C344.209 199.332 345.263 199.295 346.226 199.606C347.19 199.917 347.991 200.553 348.472 201.387L382.677 266.099C382.887 266.508 383.004 266.953 383.019 267.407C383.033 267.86 382.946 268.311 382.763 268.731C382.579 269.151 382.303 269.531 381.953 269.847C381.602 270.163 381.184 270.408 380.726 270.566C380.212 270.76 379.661 270.856 379.106 270.847Z" fill="white"/>
<path d="M484.924 543.663C480.047 545.784 474.723 546.872 469.336 546.85H467.596C448.62 529.148 421.461 516.944 386.119 510.24C383.562 509.756 380.935 509.306 378.244 508.855C372.003 507.869 365.565 507.027 358.874 506.347C352.442 505.694 346.04 505.218 339.77 504.937C335.34 504.715 330.973 504.545 326.676 504.486C324.013 504.434 321.358 504.401 318.765 504.401C317.124 504.401 315.518 504.401 313.94 504.434C292.16 504.654 270.421 506.253 248.876 509.221C244.649 509.874 242.184 510.24 242.085 510.266C237.859 511.023 233.682 508.685 232.795 505.041C231.907 501.397 234.633 497.858 238.902 497.067C239.395 496.983 242.283 496.473 247.136 495.801C266.878 493.047 286.789 491.455 306.749 491.033C313.25 490.863 320.076 490.837 327.07 490.981C337.904 491.203 349.223 491.797 360.719 492.94C417.007 498.602 458.96 515.895 484.924 543.663Z" fill="white"/>
<path d="M168.616 539.287L201.208 546.843H171.011L167.306 545.994L68.6912 523.196L66.1694 522.602C65.563 522.472 65 522.207 64.5297 521.829C64.0594 521.451 63.6961 520.972 63.4716 520.434L62.7672 518.716L45.9886 476.267L25.0118 423.251L22.3211 416.433C22.1614 416.003 22.0992 415.546 22.1383 415.092C22.1774 414.638 22.3169 414.196 22.5482 413.794C22.7795 413.392 23.0976 413.039 23.4827 412.756C23.8677 412.473 24.3115 412.266 24.7864 412.149C25.7511 411.846 26.8041 411.896 27.7308 412.288C28.6575 412.68 29.388 413.385 29.7735 414.259L32.1684 420.293L52.8212 472.538L68.508 512.244L70.2126 516.528L73.8614 517.377L168.616 539.287Z" fill="white"/>
<path d="M322.245 525.986C320.234 530.287 317.557 534.293 314.299 537.878C311.216 541.264 307.685 544.277 303.79 546.845C303.744 546.908 303.677 546.956 303.599 546.982L302.641 546.845H289.314C289.843 546.59 290.364 546.362 290.892 546.113C291.125 545.996 291.35 545.885 291.597 545.741C291.655 545.741 291.713 545.723 291.759 545.689C297.973 542.749 303.505 538.708 308.044 533.797C313.223 528.084 316.666 521.195 318.018 513.839C318.594 510.721 318.83 507.557 318.723 504.396C318.681 502.364 318.471 500.338 318.096 498.335C318.002 497.889 318.006 497.431 318.109 496.987C318.211 496.543 318.41 496.123 318.692 495.752C318.974 495.38 319.335 495.066 319.752 494.828C320.169 494.59 320.633 494.432 321.118 494.365C322.109 494.154 323.149 494.308 324.019 494.796C324.89 495.283 325.521 496.065 325.781 496.977C326.335 499.452 326.62 501.972 326.633 504.5C326.863 511.872 325.366 519.202 322.245 525.986Z" fill="white"/>
<path d="M386.121 502.651V546.844H378.246V502.651C378.33 501.737 378.781 500.884 379.51 500.263C380.239 499.642 381.193 499.297 382.184 499.297C383.174 499.297 384.128 499.642 384.857 500.263C385.587 500.884 386.038 501.737 386.121 502.651Z" fill="white"/>
<path d="M223.895 48.1323L220.782 48.5699L129.915 61.1675L117.997 62.8132L68.6334 69.6639L60.0117 70.8459L18.84 76.5602L11.0142 77.6378L0.701899 79.0745C0.496151 79.0975 0.289246 79.1106 0.0820312 79.1137V72.3153L13.4162 70.4802L113.545 56.5895L121.385 55.512L217.725 42.1503L222.656 41.4972C223.651 41.3358 224.675 41.5372 225.514 42.0593C226.352 42.5814 226.941 43.3838 227.157 44.2988C227.222 44.7501 227.188 45.209 227.058 45.648C226.928 46.0871 226.704 46.4975 226.4 46.855C226.096 47.2124 225.718 47.5097 225.288 47.7291C224.857 47.9485 224.384 48.0856 223.895 48.1323Z" fill="white"/>
<path d="M59.7394 408.008C58.118 408.039 56.5263 407.602 55.1848 406.757C53.8433 405.913 52.8182 404.702 52.2517 403.293C51.97 402.529 24.9706 326.363 108.702 297.014C192.433 267.666 229.899 329.08 230.273 329.667C232.238 332.991 230.695 337.053 226.821 338.745C222.947 340.436 218.22 339.104 216.255 335.78C215.008 333.71 184.755 284.907 114.64 309.481C85.1045 319.832 68.1498 337.961 64.2545 363.359C62.5156 375.362 63.531 387.571 67.2341 399.185C68.5443 402.738 66.255 406.532 62.1132 407.675C61.3433 407.891 60.5438 408.003 59.7394 408.008Z" fill="white"/>
<path d="M118.767 304.349C118.195 304.354 117.628 304.246 117.103 304.034C116.579 303.821 116.109 303.508 115.724 303.115C115.398 302.78 115.152 302.386 115.001 301.957C114.851 301.528 114.8 301.075 114.852 300.627C114.904 300.178 115.058 299.745 115.303 299.356C115.547 298.967 115.878 298.629 116.274 298.367L197.279 241.368L58.6052 69.1034C58.3135 68.7428 58.1068 68.3292 57.9988 67.8897C57.8907 67.4502 57.8836 66.9945 57.978 66.5522C58.0723 66.11 58.2659 65.6911 58.5463 65.3228C58.8267 64.9545 59.1876 64.645 59.6055 64.4145C60.4686 63.9027 61.5062 63.7068 62.5164 63.8649C63.5267 64.023 64.4374 64.5239 65.0715 65.27L205.774 240.088C206.052 240.427 206.254 240.814 206.37 241.227C206.485 241.639 206.511 242.069 206.445 242.491C206.379 242.912 206.224 243.318 205.988 243.683C205.752 244.049 205.439 244.367 205.069 244.62L121.289 303.585C120.561 304.089 119.675 304.357 118.767 304.349Z" fill="white"/>
<path d="M132.193 157.971C131.599 157.98 131.01 157.868 130.468 157.643C129.926 157.417 129.445 157.083 129.058 156.665C128.748 156.317 128.521 155.913 128.391 155.479C128.26 155.044 128.23 154.589 128.302 154.143C128.373 153.698 128.545 153.271 128.807 152.89C129.068 152.51 129.413 152.185 129.819 151.937L205.189 102.957C206.031 102.414 207.061 102.18 208.079 102.301C209.096 102.422 210.029 102.888 210.697 103.61C211.007 103.958 211.234 104.362 211.363 104.796C211.493 105.23 211.523 105.684 211.45 106.13C211.378 106.575 211.205 107.002 210.943 107.381C210.681 107.761 210.335 108.084 209.929 108.332L134.56 157.311C133.862 157.751 133.036 157.982 132.193 157.971Z" fill="white"/>
<path d="M58.4171 111.056C49.5841 111.056 41.6738 109.365 34.7355 105.982C14.3081 96.0293 10.3072 75.2162 10.1452 74.3346C10.0804 73.8807 10.1145 73.4194 10.2455 72.9779C10.3765 72.5365 10.6017 72.1239 10.9078 71.7646C11.2139 71.4053 11.5946 71.1067 12.0274 70.8863C12.4603 70.6659 12.9364 70.5282 13.4277 70.4815C14.4215 70.3191 15.4444 70.5213 16.2804 71.0453C17.1164 71.5693 17.6999 72.3741 17.9076 73.2897C17.9498 73.4986 21.5563 91.8432 38.673 100.144C51.0985 106.171 67.7433 105.649 88.1425 98.5763C89.0917 98.2312 90.1466 98.2319 91.0953 98.5784C92.0439 98.9249 92.816 99.5914 93.2564 100.444C93.4482 100.862 93.5437 101.313 93.537 101.767C93.5302 102.221 93.4213 102.67 93.2171 103.083C93.0129 103.496 92.7179 103.865 92.3511 104.166C91.9843 104.467 91.5537 104.694 91.0868 104.833C79.1263 108.982 68.2364 111.056 58.4171 111.056Z" fill="white"/>
<path d="M107.723 126.396L105.116 126.925L67.678 134.422L59.986 135.969L40.3264 139.888L32.5781 141.422L0.88049 147.777C0.593557 147.848 0.297039 147.881 0 147.875V141.044L34.3814 134.193C34.4659 134.193 34.5363 134.193 34.5997 134.154L100.341 120.988L105.976 119.852C106.757 119.678 107.575 119.724 108.328 119.983C109.081 120.243 109.733 120.704 110.202 121.308C110.441 121.631 110.62 121.989 110.73 122.366C110.833 122.815 110.835 123.279 110.738 123.728C110.64 124.178 110.445 124.605 110.163 124.982C109.882 125.359 109.52 125.679 109.1 125.922C108.681 126.165 108.212 126.327 107.723 126.396Z" fill="white"/>
<path d="M136.781 219.491C128.934 219.491 122.615 210.811 116.473 202.367C111.254 195.184 104.752 186.276 100.033 187.347C82.7751 191.265 64.7215 148.163 59.6006 134.887C59.446 134.455 59.3886 133.998 59.4321 133.545C59.4755 133.092 59.619 132.652 59.8534 132.252C60.0878 131.852 60.4083 131.501 60.7949 131.221C61.1816 130.94 61.6262 130.737 62.1012 130.622C63.063 130.34 64.1044 130.403 65.0181 130.8C65.9317 131.197 66.6507 131.898 67.0319 132.764C77.4217 159.755 91.8969 182.188 97.9829 180.829C108.316 178.478 115.832 188.81 123.101 198.802C127.75 205.189 134.125 213.953 137.746 212.516C150.918 207.35 167.633 198.632 167.795 198.547C168.685 198.079 169.731 197.934 170.73 198.142C171.729 198.35 172.608 198.894 173.198 199.67C173.459 200.05 173.633 200.475 173.708 200.92C173.783 201.364 173.759 201.819 173.636 202.254C173.513 202.69 173.294 203.097 172.993 203.45C172.692 203.803 172.316 204.095 171.888 204.307C171.183 204.673 154.616 213.319 141.014 218.674C139.677 219.208 138.237 219.486 136.781 219.491Z" fill="white"/>
<path d="M60.4061 352.806L50.3122 354.275L0.744161 361.596C0.526001 361.635 0.304265 361.655 0.0820312 361.655V354.863L52.4958 347.104L59.0819 346.118C60.0765 345.953 61.1018 346.147 61.9468 346.661C62.7918 347.174 63.3925 347.969 63.6252 348.881C63.6995 349.335 63.6745 349.799 63.5519 350.245C63.4292 350.69 63.2114 351.108 62.9112 351.474C62.611 351.841 62.2345 352.147 61.8042 352.376C61.3739 352.604 60.8985 352.75 60.4061 352.806Z" fill="white"/>
<path d="M72.6163 333.26C71.9447 333.677 71.1566 333.904 70.3482 333.913C69.7279 333.918 69.1146 333.791 68.5562 333.541C67.9977 333.29 67.5093 332.924 67.1291 332.469L63.1423 327.643L23.0553 278.912C22.9037 278.769 22.7691 278.611 22.6538 278.442L0.113281 251.013V241.805C0.729413 241.801 1.33823 241.929 1.8927 242.178C2.44718 242.427 2.93251 242.791 3.31125 243.241L24.605 269.109L30.2894 276.019L68.066 321.89L73.5532 328.564C73.8489 328.921 74.0604 329.332 74.1739 329.77C74.2874 330.207 74.3004 330.662 74.2121 331.105C74.1237 331.548 73.936 331.968 73.6611 332.34C73.3862 332.711 73.0303 333.024 72.6163 333.26Z" fill="white"/>
<path d="M103.206 309.959C102.411 309.975 101.629 309.766 100.965 309.36C100.301 308.954 99.7855 308.37 99.4871 307.687L31.4922 138.544C31.332 138.115 31.2683 137.66 31.305 137.207C31.3418 136.754 31.4782 136.313 31.7059 135.911C31.9337 135.509 32.2478 135.155 32.629 134.87C33.0102 134.584 33.4503 134.375 33.9223 134.253C34.8863 133.949 35.9393 133.995 36.8679 134.383C37.7964 134.771 38.5313 135.472 38.9235 136.343L106.918 305.447C107.08 305.876 107.144 306.331 107.108 306.784C107.072 307.237 106.935 307.679 106.708 308.081C106.48 308.483 106.165 308.838 105.783 309.123C105.402 309.408 104.961 309.617 104.488 309.737C104.077 309.874 103.644 309.949 103.206 309.959Z" fill="white"/>
<path d="M26.062 280.108C25.852 280.108 25.6423 280.093 25.435 280.062C24.9453 280.013 24.4709 279.875 24.0401 279.653C23.6092 279.432 23.2305 279.133 22.9265 278.774C22.6224 278.415 22.3991 278.003 22.2698 277.562C22.1405 277.121 22.1078 276.661 22.1737 276.209C22.3005 275.556 25.3012 260.104 40.7344 251.392C51.4764 245.352 65.3247 244.163 81.9061 247.859C82.3884 247.947 82.8464 248.126 83.2521 248.383C83.6579 248.64 84.003 248.971 84.2665 249.356C84.5301 249.741 84.7065 250.171 84.785 250.621C84.8636 251.071 84.8427 251.531 84.7236 251.974C84.4085 252.868 83.7359 253.617 82.8438 254.067C81.9517 254.516 80.9079 254.632 79.9267 254.39C65.6206 251.209 53.9065 252.078 45.1087 257.002C32.5917 264.003 29.9643 277.116 29.9361 277.247C29.7559 278.07 29.2689 278.808 28.5604 279.331C27.8519 279.854 26.9673 280.129 26.062 280.108Z" fill="white"/>
<path d="M59.2157 197.925L55.6938 198.735L1.09636 211.254C0.763835 211.326 0.423569 211.364 0.0820312 211.365V204.508L53.1086 192.315L57.1871 191.368C58.0651 191.158 58.9937 191.226 59.8249 191.562C60.6561 191.899 61.3418 192.483 61.7727 193.223C61.8581 193.401 61.9311 193.585 61.9911 193.772C62.1203 194.214 62.1501 194.676 62.0787 195.129C62.0073 195.582 61.8361 196.017 61.5759 196.407C61.3157 196.796 60.9719 197.132 60.5659 197.393C60.1599 197.654 59.7003 197.835 59.2157 197.925Z" fill="white"/>
<path d="M250.761 189.54C250.761 201.478 232.54 223.941 224.357 233.421C223.892 233.96 223.3 234.396 222.626 234.695C221.953 234.994 221.214 235.15 220.465 235.15C219.717 235.15 218.978 234.994 218.304 234.695C217.63 234.396 217.039 233.96 216.574 233.421C208.4 223.924 190.188 201.478 190.188 189.54C190.139 185.855 190.886 182.198 192.386 178.78C193.887 175.362 196.11 172.252 198.927 169.631C201.744 167.009 205.099 164.927 208.798 163.506C212.497 162.086 216.466 161.354 220.474 161.354C224.483 161.354 228.452 162.086 232.151 163.506C235.849 164.927 239.205 167.009 242.022 169.631C244.839 172.252 247.062 175.362 248.562 178.78C250.063 182.198 250.81 185.855 250.761 189.54Z" fill="#FDA100"/>
<path d="M220.473 205.109C216.99 205.109 213.586 204.133 210.69 202.303C207.794 200.473 205.537 197.872 204.204 194.829C202.871 191.786 202.522 188.438 203.202 185.207C203.881 181.977 205.558 179.01 208.021 176.681C210.484 174.352 213.622 172.766 217.038 172.123C220.454 171.481 223.994 171.81 227.212 173.071C230.43 174.331 233.18 176.466 235.115 179.204C237.05 181.943 238.083 185.163 238.083 188.456C238.078 192.872 236.221 197.105 232.92 200.227C229.618 203.349 225.142 205.105 220.473 205.109ZM220.473 173.748C217.397 173.748 214.39 174.611 211.832 176.227C209.275 177.843 207.281 180.14 206.104 182.828C204.927 185.515 204.619 188.473 205.219 191.326C205.819 194.179 207.3 196.8 209.475 198.857C211.65 200.914 214.422 202.314 217.439 202.882C220.456 203.449 223.583 203.158 226.425 202.045C229.267 200.932 231.696 199.046 233.405 196.628C235.114 194.209 236.026 191.365 236.026 188.456C236.021 184.557 234.381 180.818 231.466 178.061C228.55 175.304 224.597 173.753 220.473 173.748Z" fill="white"/>
</svg>
