<svg width="41" height="42" viewBox="0 0 41 42" fill="none" xmlns="http://www.w3.org/2000/svg">
<g style="mix-blend-mode:multiply" opacity="0.35">
<g style="mix-blend-mode:multiply" opacity="0.35">
<path d="M10.581 1.18391C11.0358 0.996218 11.4155 1.27282 12.1295 0.936947C12.3751 0.823345 12.4138 0.751727 12.6025 0.722092C12.8431 0.699021 13.0849 0.747516 13.302 0.862376C13.5191 0.977235 13.7034 1.15413 13.8349 1.37407C14.2488 2.14953 13.6417 3.58191 12.6707 4.07336C11.5019 4.6636 9.81697 3.88073 9.66461 2.83855C9.645 2.49439 9.72212 2.15188 9.88577 1.85639C10.0494 1.5609 10.2919 1.32638 10.581 1.18391Z" fill="#FDA100"/>
</g>
</g>
<path d="M21.407 13.806C21.8001 13.806 22.1188 13.4599 22.1188 13.033C22.1188 12.6061 21.8001 12.26 21.407 12.26C21.014 12.26 20.6953 12.6061 20.6953 13.033C20.6953 13.4599 21.014 13.806 21.407 13.806Z" fill="#F4D59D"/>
<path d="M27.5218 14.9099H24.4816H21.4414V20.1134H24.4816H27.5218L25.2684 17.5129L27.5218 14.9099Z" fill="#FDA100"/>
<path d="M18.2397 40.6656L22.7898 35.7239L24.1382 37.1884L27.8993 33.1061L28.8725 32.0491L31.708 35.1287L32.9632 36.4944L36.8038 40.6656H18.2397Z" fill="white"/>
<path d="M18.2397 40.6657L22.7897 35.724L24.1381 37.1885L27.8992 33.1062L27.6741 33.3507L21.4618 26.6038L19.8746 28.33L13.7374 34.9955L11.534 32.6024L4.10742 40.6707L18.2397 40.6657Z" fill="#F4D59D"/>
<path d="M34.4138 41.0411H3.28418L11.5339 32.0789L13.7373 34.4719L19.6335 28.0682L20.1155 28.5918L13.7373 35.5191L11.5339 33.126L4.93048 40.3002H34.4138V41.0411Z" fill="#323232"/>
<path d="M27.4332 33.6124L21.462 27.1272L20.1159 28.5917L19.6338 28.0681L21.462 26.0801L27.9153 33.0888L27.4332 33.6124Z" fill="#323232"/>
<path d="M37.6269 41.0361H17.4165L22.7897 35.2004L24.1381 36.6649L27.6581 32.8444L28.1402 33.3679L24.1381 37.7144L22.7897 36.2475L19.0651 40.2952H35.9806L31.4669 35.393L31.949 34.867L37.6269 41.0361Z" fill="#323232"/>
<path d="M31.467 35.393L28.8725 32.5727L28.1403 33.3679L27.6582 32.8443L28.8725 31.5255L31.949 34.8669L31.467 35.393Z" fill="#323232"/>
<path d="M38.6726 40.3495H1.79688V41.0904H38.6726V40.3495Z" fill="#323232"/>
<path d="M40.0531 40.3495H39.3687V41.0904H40.0531V40.3495Z" fill="#323232"/>
<path d="M1.17175 40.3495H0.487305V41.0904H1.17175V40.3495Z" fill="#323232"/>
<path d="M21.7486 13.7566H21.0664V27.0506H21.7486V13.7566Z" fill="#323232"/>
<path d="M28.3057 20.4839H21.1021V14.5395H28.3057L25.7317 17.503L28.3057 20.4839ZM21.7774 19.743H26.7277L24.7949 17.5203L26.7277 15.2977H21.7842L21.7774 19.743Z" fill="#323232"/>
<path d="M21.4073 14.184C21.1991 14.184 20.9955 14.1169 20.8224 13.9913C20.6493 13.8656 20.5143 13.6871 20.4346 13.4781C20.3549 13.2692 20.3341 13.0393 20.3747 12.8175C20.4153 12.5957 20.5156 12.3919 20.6629 12.232C20.8101 12.0721 20.9977 11.9632 21.2019 11.9191C21.4061 11.8749 21.6178 11.8976 21.8102 11.9841C22.0026 12.0707 22.167 12.2172 22.2827 12.4053C22.3984 12.5933 22.4601 12.8144 22.4601 13.0405C22.4604 13.1908 22.4334 13.3396 22.3806 13.4785C22.3278 13.6174 22.2502 13.7436 22.1524 13.8498C22.0546 13.9561 21.9384 14.0403 21.8106 14.0976C21.6827 14.155 21.5456 14.1843 21.4073 14.184ZM21.4073 12.6405C21.3339 12.6405 21.2622 12.6641 21.2012 12.7085C21.1402 12.7528 21.0926 12.8158 21.0647 12.8895C21.0367 12.9632 21.0295 13.0443 21.044 13.1225C21.0584 13.2006 21.094 13.2723 21.146 13.3285C21.1981 13.3847 21.2644 13.4229 21.3364 13.4381C21.4084 13.4534 21.483 13.4451 21.5507 13.4142C21.6184 13.3834 21.6761 13.3314 21.7166 13.2649C21.757 13.1983 21.7784 13.1203 21.7779 13.0405C21.7789 12.9871 21.7699 12.9339 21.7517 12.8842C21.7335 12.8345 21.7063 12.7893 21.6718 12.7511C21.6373 12.7129 21.5962 12.6826 21.5507 12.6619C21.5053 12.6412 21.4566 12.6306 21.4073 12.6306V12.6405Z" fill="#323232"/>
</svg>
