<svg width="43" height="41" viewBox="0 0 43 41" fill="none" xmlns="http://www.w3.org/2000/svg">
<path d="M11.8368 25.9723C12.233 25.743 12.3686 25.2342 12.1401 24.8367C11.9113 24.4396 11.4044 24.3032 11.0082 24.5324C10.612 24.762 10.476 25.2709 10.7049 25.668C10.9334 26.0655 11.4406 26.2019 11.8368 25.9723Z" fill="#FDA100"/>
<path d="M8.44026 31.7107L12.6134 38.9635C13.5139 40.5303 15.5396 41.1103 17.1416 40.1811C18.7268 39.262 19.2716 37.2298 18.3545 35.638L15.8685 31.3171L18.0215 30.0699C18.4177 29.8399 18.5536 29.3316 18.3248 28.9341L17.2472 27.0614C17.3757 27.0364 18.2205 26.8701 33.1195 23.9376C34.9613 23.8372 36.0648 21.8161 35.1345 20.2003L32.3804 15.4142L34.1404 12.7396C34.3133 12.4765 34.3236 12.1384 34.1666 11.8656L32.5093 8.98541C32.3523 8.71259 32.0542 8.55279 31.7418 8.57131L28.5537 8.76326L25.4963 3.44975C25.0535 2.68001 24.2601 2.21394 23.3745 2.2029C23.3638 2.20258 23.3534 2.20258 23.3428 2.20258C22.4869 2.20258 21.71 2.62999 21.2497 3.35264L10.4245 17.1892L3.38699 21.2659C0.619032 22.8687 -0.339767 26.4316 1.26384 29.2163C2.72891 31.7627 5.81765 32.7643 8.44026 31.7107ZM16.9196 36.4698C17.3773 37.2642 17.1064 38.2808 16.3123 38.741C15.5157 39.2032 14.5012 38.9193 14.0487 38.1324L9.90533 30.9309L12.7759 29.268C17.5712 37.6026 16.8425 36.3363 16.9196 36.4698ZM15.0399 29.8766L14.2112 28.4365L15.6465 27.6051L16.4751 29.0452L15.0399 29.8766ZM31.33 10.2618L32.4753 12.2521L31.454 13.8039L29.4801 10.3732L31.33 10.2618ZM22.6358 4.26432C22.8582 3.89926 23.211 3.86158 23.3541 3.86548C23.4955 3.8671 23.848 3.91128 24.0607 4.28088L33.6992 21.0317C34.0132 21.577 33.6315 22.2627 33.002 22.2783C32.889 22.2809 32.8369 22.3013 32.5475 22.3556L22.3519 4.63685C22.5659 4.36078 22.5934 4.33415 22.6358 4.26432ZM21.2491 6.04642L30.8283 22.694L16.3712 25.5391L11.9754 17.8998L21.2491 6.04642ZM2.69913 28.3849C2.33529 27.7532 2.14301 27.0361 2.14301 26.3105C2.14301 24.8275 2.93737 23.4465 4.21566 22.706L10.6744 18.9645L14.8178 26.165L8.35902 29.9068C6.38024 31.0527 3.84146 30.37 2.69913 28.3849Z" fill="#FDA100"/>
<path d="M9.26908 26.4991C9.04023 26.1016 8.53332 25.9651 8.13711 26.1948L6.70183 27.0263C6.30627 27.2556 5.79839 27.1189 5.56986 26.7219C5.341 26.3244 4.83409 26.188 4.43788 26.4176C4.04168 26.6472 3.90572 27.1559 4.13458 27.5534C4.81661 28.739 6.33799 29.157 7.5305 28.4665L8.96578 27.635C9.36198 27.4053 9.49794 26.897 9.26908 26.4991Z" fill="#FDA100"/>
<path d="M41.6821 3.98123L37.0646 6.55934C36.6648 6.78279 36.5207 7.28912 36.7434 7.69023C36.9655 8.09101 37.4698 8.23618 37.8706 8.01241L42.4878 5.4343C42.8879 5.21085 43.0316 4.70451 42.8089 4.30341C42.5865 3.90198 42.0819 3.75778 41.6821 3.98123Z" fill="#FDA100"/>
<path d="M41.1984 12.5923L37.9967 11.7314C37.5545 11.6125 37.1 11.8757 36.9816 12.3194C36.8631 12.7632 37.1256 13.2189 37.5678 13.3378L40.7698 14.1987C41.2146 14.3185 41.6668 14.0512 41.7846 13.6107C41.9031 13.1669 41.6406 12.7109 41.1984 12.5923Z" fill="#FDA100"/>
<path d="M33.1529 0.960194L32.2941 4.1731C32.1756 4.61678 32.4378 5.07247 32.88 5.19167C33.3218 5.31023 33.7763 5.04779 33.8951 4.60379L34.7536 1.39088C34.872 0.947202 34.6098 0.491184 34.1677 0.372308C33.7258 0.253431 33.2713 0.516518 33.1529 0.960194Z" fill="#FDA100"/>
</svg>
