<svg width="61" height="45" viewBox="0 0 61 45" fill="none" xmlns="http://www.w3.org/2000/svg">
<path d="M0.0410156 22.2285C0.0410156 16.644 0.641066 12.3324 1.82754 9.29381C3.02764 6.24149 4.70501 3.94199 6.88703 2.36793C9.06904 0.793862 11.4966 0.0136719 14.1968 0.0136719C16.9244 0.0136719 19.4064 0.807521 21.6157 2.38159C23.825 3.96934 25.5842 6.3373 26.8798 9.49911C28.1753 12.6609 28.8163 16.9041 28.8163 22.2422C28.8163 27.553 28.1754 31.7824 26.9071 34.9305C25.6388 38.0786 23.8795 40.4466 21.6429 42.048C19.4063 43.6495 16.9244 44.4434 14.1968 44.4434C11.5102 44.4434 9.0827 43.6632 6.91433 42.1165C4.75959 40.5698 3.0685 38.2429 1.85475 35.1769C0.654647 32.0835 0.0410156 27.7719 0.0410156 22.2285ZM4.02317 22.297C4.02317 27.0739 4.44594 30.6874 5.3051 33.1375C6.15063 35.5875 7.4053 37.4353 9.06909 38.7083C10.7329 39.9812 12.4921 40.6109 14.3468 40.6109C16.2152 40.6109 17.9608 39.9949 19.5973 38.7493C21.2201 37.5175 22.4475 35.656 23.2931 33.1785C24.3432 30.1673 24.875 26.5401 24.875 22.297C24.875 18.0401 24.4114 14.5498 23.4704 11.8397C22.5294 9.12954 21.2338 7.14484 19.5836 5.88559C17.9335 4.62634 16.1879 3.99675 14.3605 3.99675C12.4921 3.99675 10.7329 4.62634 9.08274 5.88559C7.43259 7.14484 6.19157 8.99265 5.3324 11.4427C4.4596 13.8791 4.02317 17.5063 4.02317 22.297Z" fill="#4C4C4C"/>
<path d="M38.4716 10.8679H34.1758C34.9531 7.37758 36.4532 4.69482 38.6761 2.81963C40.8854 0.944435 43.5039 0 46.5314 0C48.7271 0 50.7727 0.506447 52.682 1.50564C54.5776 2.51851 56.0505 3.87358 57.1006 5.57083C58.137 7.28177 58.6689 9.06115 58.6689 10.9227C58.6689 14.5635 56.8687 17.4516 53.2547 19.5731C55.2731 20.3944 56.9369 21.5989 58.2462 23.2004C60.0736 25.4451 61.001 27.9499 61.001 30.7285C61.001 33.1238 60.3736 35.4096 59.1053 37.5859C57.8507 39.7622 56.1323 41.4458 53.9503 42.6366C51.7683 43.8274 49.3408 44.416 46.6405 44.416C43.0129 44.416 39.9854 43.3621 37.5579 41.2679C35.1304 39.1737 33.5484 36.0803 32.7983 32.0151H36.9306C37.6534 34.7526 38.7034 36.7373 40.0536 37.9692C41.7855 39.5159 44.0085 40.2961 46.6951 40.2961C49.7499 40.2961 52.2047 39.379 54.0594 37.5312C55.9141 35.6971 56.8414 33.5344 56.8414 31.057C56.8414 29.4145 56.3778 27.8678 55.4505 26.4306C54.5231 24.9934 53.282 23.9121 51.7273 23.1867C50.1727 22.4612 47.7588 22.0095 44.4858 21.8316V17.9443C46.4087 17.9443 48.1679 17.6021 49.7635 16.9178C51.3455 16.2334 52.5047 15.3711 53.2139 14.3171C53.9367 13.2632 54.2912 12.1135 54.2912 10.8679C54.2912 9.03377 53.5548 7.43234 52.0956 6.09096C50.6364 4.74959 48.7816 4.0789 46.5451 4.0789C44.7313 4.0789 43.1629 4.58533 41.8401 5.61189C40.5036 6.67952 39.3853 8.41783 38.4716 10.8679Z" fill="#4C4C4C"/>
</svg>
