<svg width="32" height="31" viewBox="0 0 32 31" fill="none" xmlns="http://www.w3.org/2000/svg">
<path d="M8.77183 19.4341C9.06389 19.2651 9.16387 18.89 8.99541 18.597C8.82671 18.3042 8.45304 18.2036 8.16098 18.3727C7.86891 18.5419 7.7687 18.917 7.9374 19.2098C8.10586 19.5028 8.47977 19.6033 8.77183 19.4341Z" fill="#FDA100"/>
<path d="M6.26775 23.6644L9.34408 29.011C10.0079 30.166 11.5012 30.5936 12.6822 29.9086C13.8507 29.231 14.2523 27.7329 13.5763 26.5595L11.7437 23.3742L13.3308 22.4548C13.6228 22.2853 13.7231 21.9106 13.5544 21.6175L12.76 20.237C12.8547 20.2186 13.4775 20.096 24.4607 17.9342C25.8184 17.8603 26.6319 16.3703 25.9461 15.1792L23.9159 11.651L25.2133 9.67936C25.3407 9.48543 25.3483 9.23619 25.2326 9.03507L24.0108 6.91186C23.8951 6.71074 23.6753 6.59294 23.4451 6.60659L21.0949 6.74809L18.8411 2.8311C18.5146 2.26367 17.9298 1.92009 17.2769 1.91195C17.269 1.91171 17.2614 1.91171 17.2535 1.91171C16.6226 1.91171 16.0499 2.2268 15.7106 2.75951L7.73051 12.9595L2.54259 15.9647C0.502123 17.1463 -0.20468 19.7728 0.977461 21.8256C2.05747 23.7027 4.33442 24.4411 6.26775 23.6644ZM12.5185 27.1727C12.8559 27.7583 12.6562 28.5077 12.0708 28.847C11.4836 29.1877 10.7357 28.9784 10.4021 28.3983L7.34776 23.0895L9.46387 21.8637C12.9988 28.0078 12.4617 27.0743 12.5185 27.1727ZM11.1328 22.3124L10.5219 21.2508L11.58 20.6378L12.1909 21.6994L11.1328 22.3124ZM23.1415 7.85279L23.9858 9.31999L23.2329 10.464L21.7778 7.93492L23.1415 7.85279ZM16.7323 3.43158C16.8963 3.16247 17.1564 3.13469 17.2619 3.13757C17.3661 3.13876 17.626 3.17133 17.7828 3.44379L24.888 15.7921C25.1195 16.1941 24.8382 16.6995 24.374 16.711C24.2908 16.7129 24.2523 16.728 24.039 16.768L16.5231 3.7062C16.6808 3.50269 16.7011 3.48306 16.7323 3.43158ZM15.7101 4.7453L22.7717 17.0175L12.1143 19.1148L8.87376 13.4833L15.7101 4.7453ZM2.03552 21.2127C1.76731 20.747 1.62556 20.2184 1.62556 19.6835C1.62556 18.5903 2.21115 17.5722 3.15347 17.0263L7.91473 14.2682L10.9691 19.5762L6.20785 22.3346C4.74915 23.1793 2.87762 22.676 2.03552 21.2127Z" fill="#FDA100"/>
<path d="M6.87868 19.8223C6.70998 19.5292 6.33629 19.4286 6.04422 19.5979L4.98617 20.2109C4.69457 20.3799 4.32017 20.2791 4.1517 19.9865C3.983 19.6935 3.60931 19.5929 3.31724 19.7622C3.02516 19.9315 2.92494 20.3064 3.09365 20.5995C3.59643 21.4735 4.71795 21.7816 5.59704 21.2726L6.65509 20.6596C6.94717 20.4903 7.04739 20.1156 6.87868 19.8223Z" fill="#FDA100"/>
<path d="M30.7726 3.22296L27.3686 5.12348C27.0739 5.2882 26.9677 5.66146 27.1319 5.95714C27.2956 6.25259 27.6674 6.35961 27.9628 6.19465L31.3665 4.29413C31.6615 4.12941 31.7674 3.75615 31.6032 3.46046C31.4393 3.16454 31.0673 3.05824 30.7726 3.22296Z" fill="#FDA100"/>
<path d="M30.4166 9.57081L28.0564 8.93622C27.7304 8.84857 27.3954 9.04254 27.3081 9.36966C27.2207 9.69677 27.4143 10.0328 27.7402 10.1204L30.1007 10.755C30.4285 10.8434 30.7619 10.6463 30.8488 10.3216C30.9361 9.99444 30.7426 9.65822 30.4166 9.57081Z" fill="#FDA100"/>
<path d="M24.4841 0.99587L23.8511 3.36435C23.7637 3.69142 23.957 4.02734 24.283 4.11522C24.6087 4.20261 24.9437 4.00915 25.0313 3.68184L25.6641 1.31336C25.7515 0.986293 25.5582 0.650128 25.2322 0.562495C24.9065 0.474862 24.5715 0.668804 24.4841 0.99587Z" fill="#FDA100"/>
</svg>
