<svg width="38" height="32" viewBox="0 0 38 32" fill="none" xmlns="http://www.w3.org/2000/svg">
<path d="M20.8105 10.7399L18.2131 8.67327V5.03847C18.2131 4.69674 17.9363 4.41968 17.5948 4.41968H15.7396C15.3981 4.41968 15.1212 4.69674 15.1212 5.03847V6.21411L13.417 4.859C12.9671 4.49975 12.3282 4.49975 11.8783 4.859L4.5113 10.7197C4.00493 11.0774 3.72986 11.6799 3.79085 12.2972C3.85215 12.9148 4.24015 13.4514 4.80691 13.7028C5.37367 13.9544 6.03162 13.8813 6.52983 13.5121L7.70049 12.6311V18.6519C7.70049 19.3353 8.25426 19.8895 8.93727 19.8895H16.358C17.041 19.8895 17.5948 19.3353 17.5948 18.6519V12.6317L18.7696 13.516C19.536 14.0798 20.6142 13.9152 21.1777 13.1483C21.7411 12.3815 21.5769 11.3025 20.8105 10.7387V10.7399ZM16.358 5.65726H16.9764V7.69009L16.358 7.19487V5.65726ZM11.4108 18.6519V16.1767H13.8844V18.6519H11.4108ZM16.358 18.6519H15.1212V15.5579C15.1212 15.2162 14.8443 14.9391 14.5028 14.9391H10.7924C10.4509 14.9391 10.1741 15.2162 10.1741 15.5579V18.6519H8.93727V11.7004L12.6476 8.90652L16.358 11.7004V18.6519ZM20.1921 12.3972C20.1193 12.5051 20.0064 12.5794 19.8787 12.6036C19.751 12.6277 19.6187 12.5999 19.5118 12.5259L13.0187 7.63751C12.7989 7.47224 12.4963 7.47224 12.2765 7.63751L5.79217 12.519C5.68498 12.5972 5.55061 12.6283 5.42017 12.6048C5.28943 12.5815 5.17408 12.506 5.10071 12.3954C5.02884 12.2842 5.00439 12.1488 5.03307 12.0195C5.06176 11.8902 5.14087 11.7778 5.25289 11.7071L12.6476 5.82858L20.0683 11.7295C20.2842 11.8811 20.3392 12.1781 20.1921 12.3972Z" fill="#FDA100"/>
<path d="M10.7202 11.8647C10.7202 12.8792 11.54 13.7017 12.551 13.7017C13.5621 13.7017 14.3819 12.8792 14.3819 11.8647C14.3819 10.8502 13.5621 10.0277 12.551 10.0277C11.54 10.0277 10.7202 10.8502 10.7202 11.8647ZM13.1613 11.8647C13.1613 12.2029 12.8881 12.477 12.551 12.477C12.214 12.477 11.9408 12.2029 11.9408 11.8647C11.9408 11.5266 12.214 11.2524 12.551 11.2524C12.8881 11.2524 13.1613 11.5266 13.1613 11.8647Z" fill="#FDA100"/>
<path d="M34.81 0.165771H3.9751C2.27285 0.167886 0.893709 1.55166 0.891602 3.25963V21.8228C0.893709 23.5308 2.27285 24.9145 3.9751 24.9166H24.9429V26.1542H24.3262C23.9856 26.1542 23.7095 26.4312 23.7095 26.773V30.4856C23.7095 30.8273 23.9856 31.1044 24.3262 31.1044H35.4267C35.7673 31.1044 36.0434 30.8273 36.0434 30.4856V26.773C36.0434 26.4312 35.7673 26.1542 35.4267 26.1542H34.81V24.9166C36.5123 24.9145 37.8914 23.5308 37.8935 21.8228V3.25963C37.8914 1.55166 36.5123 0.167886 34.81 0.165771ZM34.81 29.8668H24.9429V27.3917H34.81V29.8668ZM26.1763 26.1542V22.4416C26.1772 22.3458 26.1561 22.2512 26.1145 22.1651L24.3262 18.583V13.7788C24.3262 13.437 24.6023 13.16 24.9429 13.16C25.2834 13.16 25.5596 13.437 25.5596 13.7788V17.4914H26.793V13.7788C26.7915 13.2536 26.5671 12.7542 26.1763 12.4049V8.82858C26.1763 8.48686 26.4524 8.20981 26.793 8.20981C26.9595 8.2095 27.1185 8.27809 27.2326 8.39985C27.3473 8.51255 27.4112 8.66754 27.4097 8.82858V15.6351H28.6431V11.9224C28.6431 11.5807 28.9192 11.3037 29.2598 11.3037C29.6003 11.3037 29.8765 11.5807 29.8765 11.9224V16.2538H31.1099V12.5412C31.1099 12.1995 31.386 11.9224 31.7266 11.9224C32.0671 11.9224 32.3432 12.1995 32.3432 12.5412V16.2538H33.5766V13.7788C33.5766 13.437 33.8528 13.16 34.1933 13.16C34.5339 13.16 34.81 13.437 34.81 13.7788V19.8662L33.6086 23.4836C33.5875 23.5465 33.5769 23.6126 33.5766 23.6791V26.1542H26.1763ZM28.6271 8.66512C28.5958 8.23428 28.4103 7.82912 28.1046 7.52487C27.7608 7.16895 27.2871 6.96924 26.793 6.97226C25.7712 6.97226 24.9429 7.80344 24.9429 8.82858H24.3262C23.645 8.82858 23.0928 8.27446 23.0928 7.59103C23.0928 6.90761 23.645 6.35349 24.3262 6.35349H28.0264C28.5907 6.34564 29.0872 6.72542 29.2296 7.27319C29.3721 7.82096 29.1233 8.39562 28.6271 8.66512ZM36.6601 21.8228C36.6583 22.8331 35.8513 23.6564 34.8447 23.6755L36.0115 20.162C36.0326 20.0991 36.0431 20.0329 36.0434 19.9665V13.7788C36.0456 13.1618 35.7411 12.5847 35.2316 12.2394C34.7221 11.894 34.0747 11.8264 33.505 12.0587C33.3622 11.5034 32.9684 11.0472 32.4411 10.826C31.9138 10.6048 31.3137 10.6441 30.8193 10.9323C30.3661 10.1924 29.4546 9.87729 28.6431 10.18V9.9782C29.7331 9.70356 30.4965 8.7189 30.4932 7.59103C30.4932 6.22418 29.3886 5.11595 28.0264 5.11595H24.3262C22.9639 5.11595 21.8594 6.22418 21.8594 7.59103C21.8594 8.95789 22.9639 10.0661 24.3262 10.0661H24.9429V11.9224C23.9212 11.9224 23.0928 12.7536 23.0928 13.7788V18.7289C23.0919 18.8247 23.1129 18.9193 23.1545 19.0054L24.9429 22.5875V23.6791H3.9751C2.95339 23.6791 2.125 22.8479 2.125 21.8228V3.25963C2.125 2.23449 2.95339 1.40332 3.9751 1.40332H32.9599V10.0661H34.1933V1.40332H34.81C35.8318 1.40332 36.6601 2.23449 36.6601 3.25963V21.8228Z" fill="#FDA100"/>
</svg>
