<svg width="1674" height="848" viewBox="0 0 1674 848" fill="none" xmlns="http://www.w3.org/2000/svg">
<path d="M1579.13 847.999L91.6342 847.999C55.9537 847.999 25.1358 834.962 10.1873 815.904C3.68942 807.699 0.353725 798.74 0.421718 789.677L0.421731 511.162C0.227761 511.084 0.0806661 510.972 0.00156459 510.842L0.421731 509.23L0.42175 58.4748C0.421752 26.2738 41.1853 0.152719 91.6343 0.152721L1579.13 0.152786C1583.82 0.14058 1588.51 0.378544 1593.14 0.863859C1601.68 1.69418 1609.97 3.25932 1617.75 5.5097C1623.51 7.22023 1628.97 9.25219 1634.08 11.5778C1635.8 12.36 1637.44 13.1778 1639.08 14.0667C1641.52 15.2519 1643.78 16.5648 1645.83 17.9896C1646.85 18.6533 1647.97 19.3644 1649.01 20.0873C1652.08 22.275 1654.91 24.5791 1657.47 26.985C1661.78 31.0802 1665.29 35.4543 1667.92 40.0219C1671.76 46.7648 1673.73 53.8346 1673.72 60.9519L1673.72 787.069C1673.77 795.474 1671.05 803.803 1665.72 811.59C1664.94 812.645 1664.18 813.7 1663.3 814.743C1659.61 819.432 1654.9 823.815 1649.29 827.78C1648.17 828.55 1647.05 829.321 1645.93 830.044C1643.71 831.563 1641.28 832.966 1638.66 834.239C1637.02 835.069 1635.38 835.898 1633.74 836.609C1630.43 838.111 1626.98 839.496 1623.39 840.757C1619.75 841.965 1616.01 843.053 1612.17 844.017C1606.33 845.44 1600.24 846.477 1594.02 847.11C1592.38 847.276 1590.65 847.442 1588.93 847.548C1585.68 847.809 1582.41 847.96 1579.13 847.999Z" fill="#EBEBEB"/>
<g style="mix-blend-mode:multiply">
<path d="M787.451 678.663L727.097 587.76C726.115 586.335 726.076 584.743 726.989 583.302C727.901 581.861 729.698 580.677 732.02 579.986L748.469 575.518C749.61 575.224 750.84 575.072 752.084 575.072C753.328 575.073 754.558 575.225 755.698 575.52C756.838 575.814 757.864 576.245 758.71 576.785C759.556 577.325 760.205 577.963 760.616 578.658L820.971 669.596C821.953 671.018 821.994 672.607 821.085 674.046C820.176 675.485 818.385 676.668 816.068 677.359L799.618 681.827C798.475 682.124 797.239 682.278 795.99 682.278C794.741 682.278 793.506 682.124 792.362 681.827C791.218 681.529 790.191 681.095 789.346 680.55C788.501 680.005 787.856 679.363 787.451 678.663Z" fill="#EAEFF7"/>
</g>
<g style="mix-blend-mode:multiply">
<path d="M756.973 723.308L696.618 632.382C695.63 630.959 695.586 629.367 696.495 627.925C697.404 626.483 699.199 625.298 701.521 624.607L717.97 620.139C719.112 619.843 720.344 619.69 721.591 619.689C722.837 619.689 724.07 619.841 725.212 620.136C726.355 620.431 727.382 620.862 728.229 621.403C729.077 621.944 729.726 622.583 730.137 623.28L790.492 714.206C791.469 715.631 791.505 717.222 790.593 718.662C789.681 720.103 787.888 721.287 785.569 721.981L769.12 726.449C767.98 726.745 766.748 726.898 765.504 726.898C764.259 726.899 763.027 726.747 761.886 726.452C760.746 726.157 759.72 725.725 758.875 725.184C758.029 724.643 757.382 724.004 756.973 723.308Z" fill="#EAEFF7"/>
</g>
<g style="mix-blend-mode:multiply">
<path d="M724.354 767.611L663.999 676.65C663.016 675.226 662.974 673.635 663.883 672.194C664.792 670.753 666.584 669.568 668.902 668.875L685.352 664.407C686.493 664.111 687.726 663.958 688.972 663.957C690.218 663.956 691.451 664.108 692.593 664.403C693.736 664.698 694.763 665.13 695.61 665.671C696.458 666.212 697.108 666.851 697.519 667.547L757.873 758.474C758.855 759.899 758.894 761.491 757.981 762.932C757.069 764.373 755.272 765.557 752.95 766.248L736.501 770.716C735.365 771.013 734.137 771.168 732.895 771.171C731.653 771.173 730.424 771.024 729.284 770.733C728.144 770.441 727.117 770.014 726.269 769.477C725.421 768.94 724.769 768.304 724.354 767.611Z" fill="#EAEFF7"/>
</g>
<g style="mix-blend-mode:multiply">
<path d="M1517.73 131.175L1493.24 33.6478C1492.8 32.1462 1493.35 30.6013 1494.78 29.3344C1496.21 28.0675 1498.41 27.1758 1500.92 26.8448L1518.57 25.0434C1519.82 24.9407 1521.08 24.987 1522.3 25.1797C1523.51 25.3724 1524.65 25.7075 1525.64 26.1651C1526.63 26.6227 1527.46 27.1935 1528.07 27.8437C1528.68 28.4938 1529.06 29.2101 1529.2 29.9501L1553.67 127.489C1554.11 128.989 1553.56 130.531 1552.12 131.795C1550.69 133.06 1548.5 133.949 1545.99 134.28L1528.34 136.094C1527.09 136.195 1525.83 136.147 1524.61 135.952C1523.4 135.758 1522.27 135.422 1521.28 134.963C1520.29 134.504 1519.47 133.933 1518.86 133.282C1518.25 132.632 1517.87 131.915 1517.73 131.175Z" fill="#EAEFF7"/>
</g>
<g style="mix-blend-mode:multiply">
<path d="M1584.05 145.432L1559.55 47.8921C1559.12 46.3923 1559.67 44.8505 1561.1 43.5862C1562.53 42.3219 1564.73 41.4321 1567.24 41.1011L1584.89 39.2878C1586.13 39.1868 1587.4 39.2348 1588.61 39.4289C1589.83 39.623 1590.96 39.9592 1591.95 40.4177C1592.94 40.8763 1593.77 41.4478 1594.38 42.0985C1594.99 42.7492 1595.38 43.4659 1595.51 44.2062L1619.99 141.734C1620.42 143.234 1619.87 144.775 1618.44 146.04C1617.01 147.304 1614.81 148.194 1612.3 148.525L1594.65 150.338C1593.41 150.441 1592.14 150.394 1590.93 150.202C1589.72 150.009 1588.58 149.674 1587.59 149.216C1586.6 148.758 1585.78 148.187 1585.17 147.537C1584.56 146.887 1584.18 146.171 1584.05 145.432Z" fill="#EAEFF7"/>
</g>
<g style="mix-blend-mode:multiply">
<path d="M312.398 473.19L322.404 404.948C322.452 404.309 322.715 403.682 323.178 403.103C323.641 402.525 324.294 402.006 325.099 401.579C325.904 401.152 326.845 400.824 327.867 400.615C328.888 400.406 329.97 400.32 331.049 400.362L351.501 401.547C353.675 401.733 355.64 402.414 356.979 403.446C358.317 404.477 358.922 405.778 358.665 407.07L348.759 475.324C348.708 475.962 348.443 476.588 347.979 477.165C347.515 477.743 346.862 478.259 346.057 478.685C345.252 479.111 344.312 479.437 343.292 479.646C342.271 479.854 341.191 479.94 340.114 479.898L319.662 478.713C317.47 478.542 315.479 477.866 314.12 476.833C312.761 475.8 312.143 474.491 312.398 473.19Z" fill="#EAEFF7"/>
</g>
<g style="mix-blend-mode:multiply">
<path d="M335.291 204.561L371.912 140.147C372.213 139.54 372.722 138.975 373.407 138.489C374.092 138.003 374.938 137.606 375.893 137.321C376.848 137.037 377.892 136.871 378.959 136.836C380.026 136.8 381.095 136.894 382.098 137.113L401.389 141.605C403.424 142.132 405.046 143.096 405.927 144.304C406.807 145.512 406.88 146.873 406.132 148.111L369.511 212.514C369.211 213.121 368.704 213.685 368.022 214.171C367.339 214.658 366.495 215.056 365.543 215.342C364.59 215.627 363.548 215.794 362.482 215.831C361.416 215.869 360.348 215.776 359.345 215.559L340.034 211.068C337.998 210.541 336.376 209.576 335.496 208.368C334.615 207.16 334.542 205.8 335.291 204.561Z" fill="#EAEFF7"/>
</g>
<g style="mix-blend-mode:multiply">
<path d="M230.87 828.267L238.295 777.044C238.34 776.484 238.574 775.935 238.981 775.428C239.389 774.922 239.962 774.469 240.667 774.095C241.373 773.721 242.197 773.434 243.092 773.251C243.987 773.067 244.934 772.991 245.879 773.026L268.272 774.353C270.18 774.515 271.906 775.113 273.08 776.019C274.255 776.925 274.784 778.067 274.555 779.201L267.131 830.424C267.085 830.984 266.852 831.533 266.444 832.039C266.037 832.545 265.464 832.998 264.758 833.372C264.053 833.746 263.228 834.033 262.334 834.217C261.439 834.4 260.492 834.477 259.547 834.441L237.154 833.09C235.249 832.934 233.523 832.341 232.348 831.439C231.173 830.537 230.642 829.398 230.87 828.267Z" fill="#EAEFF7"/>
</g>
<g style="mix-blend-mode:multiply">
<path d="M798.958 505.771L767.52 458.364C766.783 457.296 766.752 456.103 767.435 455.022C768.117 453.941 769.462 453.053 771.202 452.533L791.914 446.915C792.771 446.694 793.697 446.58 794.633 446.58C795.569 446.581 796.495 446.696 797.352 446.918C798.209 447.141 798.979 447.466 799.613 447.874C800.248 448.281 800.733 448.762 801.039 449.286L832.477 496.693C833.214 497.761 833.244 498.954 832.562 500.035C831.88 501.115 830.535 502.004 828.795 502.523L808.063 508.153C807.205 508.374 806.279 508.488 805.344 508.486C804.408 508.485 803.484 508.369 802.628 508.145C801.772 507.921 801.004 507.594 800.373 507.186C799.741 506.777 799.259 506.295 798.958 505.771Z" fill="#EAEFF7"/>
</g>
<g style="mix-blend-mode:multiply">
<path d="M721.372 391.84L795.414 371.692C796.271 371.471 797.195 371.357 798.13 371.357C799.064 371.358 799.988 371.473 800.844 371.696C801.699 371.919 802.468 372.244 803.1 372.651C803.733 373.059 804.216 373.539 804.52 374.063L813.325 387.313C814.062 388.381 814.092 389.574 813.41 390.655C812.727 391.736 811.382 392.625 809.642 393.144L735.6 413.292C734.744 413.513 733.819 413.627 732.885 413.627C731.95 413.626 731.026 413.511 730.171 413.288C729.315 413.065 728.547 412.74 727.914 412.333C727.282 411.926 726.798 411.445 726.495 410.922L717.69 397.671C716.957 396.603 716.929 395.411 717.611 394.331C718.293 393.251 719.635 392.362 721.372 391.84Z" fill="#EAEFF7"/>
</g>
<g style="mix-blend-mode:multiply">
<path d="M655.977 72.9001L721.674 43.1997C722.411 42.8647 723.259 42.6252 724.163 42.4968C725.066 42.3685 726.005 42.3542 726.918 42.4548C727.832 42.5554 728.699 42.7686 729.465 43.0807C730.23 43.3928 730.876 43.7968 731.36 44.2663L744.347 56.0114C745.42 56.9822 745.844 58.1546 745.537 59.3005C745.23 60.4463 744.214 61.4835 742.687 62.2098L677.009 91.922C676.271 92.2552 675.423 92.4932 674.52 92.6205C673.617 92.7478 672.679 92.7617 671.766 92.6612C670.854 92.5607 669.987 92.348 669.222 92.037C668.456 91.726 667.81 91.3234 667.323 90.8553L654.316 79.0985C653.269 78.123 652.861 76.9546 653.166 75.8131C653.472 74.6717 654.472 73.6357 655.977 72.9001Z" fill="#EAEFF7"/>
</g>
<g style="mix-blend-mode:multiply">
<path d="M1338.99 421.184L1379.21 376.634C1379.62 376.139 1380.2 375.7 1380.91 375.346C1381.62 374.992 1382.45 374.73 1383.35 374.577C1384.24 374.424 1385.18 374.384 1386.1 374.458C1387.02 374.533 1387.91 374.721 1388.7 375.01L1408.19 382.204C1409.82 382.845 1410.99 383.825 1411.46 384.95C1411.93 386.075 1411.68 387.264 1410.75 388.284L1370.53 432.834C1370.12 433.33 1369.53 433.768 1368.82 434.123C1368.11 434.477 1367.28 434.739 1366.38 434.892C1365.49 435.045 1364.55 435.085 1363.62 435.01C1362.7 434.936 1361.81 434.748 1361.02 434.458L1341.53 427.264C1339.91 426.619 1338.75 425.639 1338.28 424.515C1337.81 423.391 1338.06 422.203 1338.99 421.184Z" fill="#EAEFF7"/>
</g>
<g style="mix-blend-mode:multiply">
<path d="M1387.61 357.423L1427.84 312.861C1428.25 312.366 1428.83 311.927 1429.54 311.573C1430.26 311.218 1431.09 310.956 1431.98 310.803C1432.88 310.651 1433.82 310.61 1434.74 310.685C1435.66 310.76 1436.55 310.948 1437.34 311.237L1456.83 318.431C1458.46 319.076 1459.62 320.056 1460.09 321.18C1460.56 322.304 1460.3 323.492 1459.38 324.511L1419.15 369.062C1418.74 369.558 1418.16 369.998 1417.45 370.353C1416.74 370.709 1415.9 370.971 1415.01 371.124C1414.11 371.277 1413.17 371.317 1412.25 371.242C1411.33 371.166 1410.44 370.976 1409.65 370.685L1390.16 363.491C1388.53 362.85 1387.37 361.872 1386.9 360.749C1386.43 359.626 1386.68 358.44 1387.61 357.423Z" fill="#EAEFF7"/>
</g>
<g style="mix-blend-mode:multiply">
<path d="M1545.65 227.611L1619.99 207.961C1620.85 207.743 1621.77 207.632 1622.7 207.635C1623.63 207.637 1624.55 207.753 1625.4 207.976C1626.26 208.198 1627.02 208.522 1627.65 208.927C1628.29 209.333 1628.77 209.811 1629.08 210.332L1637.68 223.641C1638.4 224.713 1638.41 225.906 1637.71 226.983C1637.01 228.059 1635.65 228.939 1633.9 229.448L1559.56 249.098C1558.7 249.314 1557.78 249.424 1556.85 249.421C1555.92 249.417 1555 249.301 1554.15 249.079C1553.29 248.857 1552.53 248.533 1551.9 248.129C1551.26 247.725 1550.78 247.248 1550.47 246.728L1541.89 233.395C1541.17 232.327 1541.16 231.14 1541.86 230.068C1542.56 228.997 1543.91 228.12 1545.65 227.611Z" fill="#EAEFF7"/>
</g>
<g style="mix-blend-mode:multiply">
<path d="M1553.49 291.469L1627.83 271.807C1628.69 271.589 1629.61 271.478 1630.54 271.481C1631.47 271.483 1632.39 271.599 1633.25 271.821C1634.1 272.044 1634.86 272.368 1635.5 272.773C1636.13 273.178 1636.61 273.656 1636.92 274.177L1645.5 287.475C1646.23 288.545 1646.25 289.739 1645.55 290.817C1644.85 291.894 1643.49 292.775 1641.74 293.282L1567.4 312.944C1566.54 313.162 1565.62 313.273 1564.69 313.27C1563.76 313.268 1562.84 313.152 1561.98 312.93C1561.13 312.707 1560.37 312.383 1559.73 311.978C1559.1 311.573 1558.62 311.095 1558.31 310.574L1549.73 297.276C1549 296.206 1548.99 295.012 1549.69 293.935C1550.38 292.859 1551.74 291.978 1553.49 291.469Z" fill="#EAEFF7"/>
</g>
<g style="mix-blend-mode:multiply">
<path d="M647.832 36.7522L713.51 7.02816C714.248 6.69491 715.096 6.45699 715.999 6.32967C716.902 6.20236 717.84 6.18846 718.752 6.28895C719.665 6.38944 720.532 6.60211 721.297 6.91315C722.062 7.22418 722.709 7.62672 723.195 8.09484L736.203 19.8517C737.249 20.8272 737.658 21.9956 737.352 23.137C737.046 24.2785 736.047 25.3144 734.542 26.0501L668.844 55.7504C668.107 56.0855 667.259 56.325 666.356 56.4533C665.452 56.5817 664.513 56.5959 663.6 56.4954C662.686 56.3948 661.819 56.1815 661.054 55.8694C660.289 55.5573 659.643 55.1534 659.159 54.6838L646.171 42.9388C645.104 41.969 644.683 40.7991 644.99 39.656C645.297 38.5129 646.31 37.4781 647.832 36.7522Z" fill="#EAEFF7"/>
</g>
<g style="mix-blend-mode:multiply">
<path d="M744.646 111.016L816.048 91.6382C817.079 91.3686 818.193 91.2285 819.321 91.2266C820.448 91.2247 821.564 91.3611 822.598 91.6272C823.632 91.8933 824.562 92.2833 825.329 92.7727C826.095 93.2621 826.683 93.8403 827.054 94.4707L840.502 114.879C841.392 116.167 841.429 117.606 840.605 118.909C839.782 120.212 838.158 121.283 836.059 121.907L764.658 141.261C763.625 141.527 762.51 141.664 761.383 141.663C760.257 141.662 759.142 141.524 758.11 141.257C757.077 140.991 756.148 140.601 755.381 140.112C754.614 139.623 754.026 139.046 753.652 138.417L740.144 118.056C739.257 116.762 739.228 115.318 740.063 114.012C740.898 112.707 742.535 111.636 744.646 111.016Z" fill="#EAEFF7"/>
</g>
<g style="mix-blend-mode:multiply">
<path d="M1363.76 187.305L1427.04 158.659C1427.93 158.256 1428.95 157.967 1430.04 157.812C1431.13 157.658 1432.26 157.64 1433.36 157.761C1434.46 157.881 1435.51 158.138 1436.43 158.513C1437.36 158.888 1438.14 159.374 1438.73 159.939L1458.74 178.001C1460.03 179.173 1460.54 180.587 1460.17 181.969C1459.8 183.351 1458.58 184.602 1456.74 185.479L1393.4 214.125C1392.51 214.528 1391.49 214.817 1390.4 214.972C1389.31 215.126 1388.18 215.144 1387.08 215.023C1385.97 214.903 1384.93 214.647 1384 214.271C1383.08 213.896 1382.3 213.41 1381.71 212.845L1361.7 194.783C1360.42 193.607 1359.92 192.191 1360.3 190.808C1360.68 189.426 1361.91 188.177 1363.76 187.305Z" fill="#EAEFF7"/>
</g>
<g style="mix-blend-mode:multiply">
<path d="M900.978 549.895L852.311 476.581C851.39 475.241 851.354 473.745 852.21 472.39C853.067 471.035 854.753 469.921 856.933 469.268L874.403 464.528C875.475 464.249 876.633 464.104 877.804 464.104C878.975 464.103 880.134 464.245 881.207 464.522C882.28 464.8 883.245 465.205 884.041 465.714C884.836 466.223 885.445 466.824 885.83 467.479L934.498 540.793C935.423 542.133 935.461 543.63 934.605 544.986C933.748 546.341 932.059 547.456 929.875 548.106L912.405 552.846C911.333 553.125 910.175 553.27 909.004 553.271C907.833 553.272 906.675 553.129 905.601 552.852C904.528 552.575 903.563 552.169 902.768 551.66C901.972 551.151 901.363 550.55 900.978 549.895Z" fill="#EAEFF7"/>
</g>
<g style="mix-blend-mode:multiply">
<path d="M1330.32 301.578L1258.42 236.547C1257.09 235.331 1256.56 233.868 1256.93 232.435C1257.3 231.002 1258.54 229.699 1260.42 228.773L1275.91 221.768C1276.84 221.349 1277.9 221.05 1279.04 220.89C1280.17 220.73 1281.35 220.713 1282.5 220.839C1283.64 220.965 1284.73 221.232 1285.69 221.623C1286.66 222.014 1287.47 222.519 1288.08 223.107L1359.98 288.138C1361.31 289.354 1361.84 290.817 1361.47 292.25C1361.1 293.683 1359.86 294.986 1357.98 295.912L1342.49 302.917C1341.56 303.337 1340.5 303.638 1339.36 303.799C1338.23 303.96 1337.05 303.978 1335.9 303.852C1334.76 303.725 1333.67 303.458 1332.71 303.066C1331.74 302.674 1330.93 302.167 1330.32 301.578Z" fill="#EAEFF7"/>
</g>
<g style="mix-blend-mode:multiply">
<path d="M182.807 626.089L192.812 557.835C192.861 557.197 193.123 556.571 193.585 555.994C194.047 555.417 194.699 554.9 195.502 554.474C196.305 554.048 197.244 553.721 198.263 553.513C199.282 553.304 200.361 553.219 201.437 553.26L221.889 554.445C224.066 554.628 226.034 555.309 227.373 556.341C228.713 557.374 229.316 558.676 229.053 559.968L219.047 628.21C219.002 628.854 218.739 629.485 218.273 630.067C217.808 630.648 217.149 631.169 216.337 631.597C215.525 632.025 214.575 632.351 213.546 632.558C212.516 632.764 211.426 632.845 210.342 632.797L189.891 631.612C187.731 631.415 185.785 630.729 184.463 629.698C183.142 628.668 182.548 627.374 182.807 626.089Z" fill="#EAEFF7"/>
</g>
<g style="mix-blend-mode:multiply">
<path d="M237.597 631.813L247.603 563.571C247.651 562.933 247.914 562.308 248.376 561.73C248.838 561.153 249.489 560.637 250.293 560.211C251.096 559.785 252.035 559.458 253.054 559.249C254.073 559.041 255.152 558.955 256.228 558.997L276.7 560.182C278.874 560.367 280.84 561.049 282.178 562.08C283.516 563.112 284.121 564.413 283.864 565.705L273.858 633.947C273.812 634.586 273.551 635.213 273.091 635.791C272.63 636.37 271.979 636.888 271.175 637.315C270.372 637.742 269.432 638.07 268.412 638.279C267.391 638.489 266.311 638.575 265.233 638.533L244.781 637.348C242.595 637.171 240.615 636.491 239.27 635.455C237.925 634.418 237.324 633.11 237.597 631.813Z" fill="#EAEFF7"/>
</g>
<g style="mix-blend-mode:multiply">
<path d="M185.827 434.625L289.887 418.115C290.929 417.977 292.006 417.963 293.057 418.075C294.108 418.186 295.11 418.421 296.005 418.766C296.9 419.11 297.67 419.557 298.269 420.081C298.868 420.604 299.284 421.193 299.493 421.813L304.455 434.566C304.997 435.836 304.697 437.181 303.618 438.324C302.539 439.468 300.762 440.324 298.652 440.717L194.592 457.226C193.55 457.366 192.47 457.382 191.417 457.271C190.364 457.16 189.359 456.925 188.462 456.581C187.564 456.236 186.793 455.788 186.193 455.264C185.592 454.74 185.175 454.149 184.967 453.528L180.024 440.776C179.478 439.505 179.775 438.159 180.855 437.015C181.935 435.871 183.714 435.015 185.827 434.625Z" fill="#EAEFF7"/>
</g>
<g style="mix-blend-mode:multiply">
<path d="M1351.61 170.486C1351.61 170.486 1338.83 198.243 1305.59 204.169C1272.35 210.095 1246.67 185.526 1235.73 179.98C1224.78 174.433 1234.63 112.223 1234.63 112.223C1234.63 112.223 1279.55 50.8317 1305.59 49.7532C1331.62 48.6747 1335.73 -0.486032 1367.22 57.3502C1398.72 115.186 1415.25 87.7024 1398.72 115.175C1382.19 142.647 1351.61 170.486 1351.61 170.486Z" fill="#EAEFF7"/>
</g>
<g style="mix-blend-mode:multiply">
<path d="M1449.95 735.598C1449.95 735.598 1437.16 763.355 1403.93 769.281C1370.69 775.207 1345.01 750.65 1334.07 745.103C1323.12 739.557 1332.97 677.347 1332.97 677.347C1332.97 677.347 1377.89 615.944 1403.93 614.865C1429.96 613.787 1434.06 564.638 1465.56 622.462C1497.06 680.287 1513.59 652.826 1497.06 680.286C1480.53 707.747 1449.95 735.598 1449.95 735.598Z" fill="#EAEFF7"/>
</g>
<g style="mix-blend-mode:multiply">
<path d="M873.842 233.193C866.913 231.348 860.787 228.589 855.932 225.128C851.076 221.668 847.62 217.596 845.826 213.223C839.422 198.089 856.352 185.206 859.834 179.92C863.316 174.634 910.683 176.744 910.683 176.744C910.683 176.744 959.491 195.138 961.852 207.155C964.214 219.173 1001.37 219.137 959.851 235.99C918.327 252.843 939.84 259.386 918.247 252.855C896.655 246.325 873.842 233.193 873.842 233.193Z" fill="#EAEFF7"/>
</g>
<g style="mix-blend-mode:multiply">
<path d="M1128.49 0.142554C1154.74 46.7315 1190.62 155.269 1164.51 180.288C1138.39 205.307 1139.97 301.175 1139.97 301.175L1222.94 388.878C1222.94 388.878 1171.85 520.586 1277.45 519.353C1383.05 518.121 1549.39 558.132 1588.53 609.094C1627.67 660.056 1673.9 663.991 1673.9 663.991L1673.9 619.689C1673.9 619.689 1600.48 595.88 1593.97 573.705C1587.47 551.531 1495.24 486.761 1445.67 492.722C1396.1 498.684 1309.23 492.722 1309.23 492.722L1280.95 437.245L1298.96 365.174C1298.96 365.174 1234.71 333.4 1222.92 329.122C1211.13 324.843 1188.56 286.87 1200.37 264.257C1212.17 241.644 1211.23 174.659 1211.23 174.659C1211.23 174.659 1164.45 100.396 1192.04 87.2051C1219.64 74.0142 1206.91 37.2383 1206.91 37.2383L1192.06 0.142557L1128.49 0.142554Z" fill="#EAEFF7"/>
</g>
<g style="mix-blend-mode:multiply">
<path d="M816.348 848L722.474 848C715.39 843.081 706.145 835.793 700.721 827.674C696.399 821.488 694.498 814.803 697.44 808.451C698.555 805.431 698.008 802.278 695.879 799.455C689.395 789.453 669.103 777.518 648.892 767.361C637.745 761.779 626.519 756.695 617.714 752.949C607.268 748.469 600.184 745.708 600.184 745.708C600.184 745.708 536.787 692.375 525.141 669.715C520.898 661.419 510.973 653.312 499.566 646.355C496.905 644.743 494.223 643.203 491.561 641.769C488.9 640.335 485.558 638.675 482.656 637.289C467.367 630.178 452.639 625.864 446.636 626.361C433.248 627.404 351.981 626.527 351.981 626.527L351.721 626.196L344.037 616.857L335.332 606.19L298.971 561.888L224.348 528.265C224.348 528.265 199.394 537.652 171.758 550.25C156.799 556.865 142.5 563.988 128.933 571.583C123.83 574.51 119.088 577.438 114.925 580.306C95.9142 593.568 45.6455 594.232 0.47961 589.538L0.479611 549.823C22.0988 548.26 43.4722 545.676 64.3962 542.096C76.9233 540.046 89.3507 537.616 101.618 534.985C111.383 532.84 121.049 530.517 130.454 528.087C144.702 524.39 158.47 520.301 171.578 515.987C190.416 509.872 208.25 502.73 224.848 494.654C272.616 470.95 319.943 501.836 351.721 532.579C354.923 535.625 357.845 538.659 360.706 541.693C363.568 544.727 366.149 547.5 368.571 550.309C382.379 566.001 390.583 578.421 390.583 578.421L539.209 617.034C539.299 617.134 539.414 617.226 539.549 617.307L539.989 617.698C541.03 618.528 543.011 620.293 545.772 622.723C547.594 624.216 549.575 625.982 551.896 628.021C558.64 634.041 567.545 642.101 577.03 651.108C602.245 675.356 631.181 706.503 632.562 723.296C633.863 739.036 670.384 766.709 714.189 793.435C724.715 799.894 735.761 806.306 746.828 812.492C771.282 826.24 795.976 838.72 816.348 848Z" fill="#EAEFF7"/>
</g>
<g style="mix-blend-mode:multiply">
<path d="M86.27 266.45C79.3398 265.999 72.4721 265.259 65.7182 264.234C64.8577 264.068 63.9972 263.961 63.1366 263.795L63.1367 62.8619C69.0067 59.9305 74.8235 57.2244 80.5869 54.7435C96.9963 47.834 112.885 43.2474 126.613 42.8918C188.649 41.3511 198.374 -29.5694 273.417 53.8309C275.419 56.0353 277.42 58.1449 279.301 60.1834C283.303 64.3196 287.065 68.1359 290.787 71.6677C354.244 131.471 384.441 100.87 348.42 137.267C337.522 148.075 325.379 158.427 312.08 168.247C307.497 171.613 302.834 174.931 298.252 178.131C278.73 191.769 257.974 204.769 236.076 217.076C236.076 217.076 205.679 257.111 126.573 265.668C113.282 267.128 99.6944 267.392 86.27 266.45Z" fill="#EAEFF7"/>
</g>
<g style="mix-blend-mode:multiply">
<path d="M1215.28 631.244C1142.33 566.06 1140.97 464.266 1035.65 519.352C930.332 574.439 813.305 643.795 883.225 693.572C953.145 743.349 944.28 732.031 1043.32 758.567C1142.35 785.103 1224.06 811.07 1249.98 726.081C1275.89 641.093 1215.28 631.244 1215.28 631.244Z" fill="#EAEFF7"/>
</g>
<g style="mix-blend-mode:multiply">
<path d="M582.553 452.297C549.173 410.816 548.533 346.034 500.326 381.092C452.118 416.149 398.547 460.261 430.566 491.976C462.584 523.691 458.582 516.45 503.828 533.338C549.073 550.227 586.575 566.748 598.442 512.657C610.308 458.566 582.553 452.297 582.553 452.297Z" fill="#EAEFF7"/>
</g>
<g style="mix-blend-mode:multiply">
<path d="M186.565 265.395C138.758 284.903 67.1965 282.473 102.917 314.781C138.637 347.088 183.983 383.2 220.985 364.155C257.986 345.109 249.721 347.385 271.154 319.19C292.586 290.994 313.178 267.824 254.184 257.893C195.19 247.961 186.565 265.395 186.565 265.395Z" fill="#EAEFF7"/>
</g>
<path d="M0.481392 509.207L0.481393 487.945C1.39085 488.348 2.15321 488.856 2.72267 489.439C3.08288 489.83 3.42296 490.209 3.86322 490.624C3.86312 490.723 3.9197 490.819 4.02346 490.896C4.60636 492.004 4.75684 493.175 4.46366 494.322L0.481392 509.207Z" fill="white"/>
<path d="M638.586 847.988L547.954 847.988L654.775 812.943L673.346 806.863L904.578 730.917L941.339 718.829L1100.85 666.468L1119.3 660.424L1304.97 599.47L1323.48 593.378L1467.56 546.066L1486.29 539.916L1664.39 481.392C1667.27 480.423 1670.53 479.924 1673.84 479.946L1673.84 508.058L1500.36 565.017L1481.87 571.097L1250.22 647.15L1231.73 653.229L959.43 742.639L922.669 754.727L638.586 847.988Z" fill="white"/>
<path d="M1039.86 847.988L993.829 847.988L922.748 754.727L904.598 730.917L768.28 552.336L759.234 540.389L657.996 407.65L648.951 395.799L638.105 381.577L560.06 279.226L539.408 252.156L459.622 147.624L447.615 131.897L428.184 106.582C427.944 106.286 427.724 105.954 427.484 105.622L388.182 54.1502L379.076 42.2037L351.42 5.97305C350.05 4.15445 349.367 2.18059 349.419 0.189423L393.044 0.189425L457.861 85.1898L476.532 109.699L581.312 247.013C581.613 247.345 581.833 247.676 582.073 248.008L664.98 356.7L683.251 380.581L728.477 439.84L737.522 451.691L870.838 626.456L879.924 638.308L941.339 718.805L959.489 742.615L1039.86 847.988Z" fill="white"/>
<path d="M0.479667 420.297L0.479669 393.832C118.287 396.878 213.462 385.773 289.285 368.481C298.624 366.388 307.603 364.179 316.221 361.856C454.3 325.685 520.898 269.899 539.309 252.228C542.851 248.851 544.652 246.871 544.832 246.646C550.275 240.294 562.842 237.923 572.848 241.455C577.062 242.963 580.313 245.255 582.093 247.974C583.278 249.814 583.804 251.779 583.638 253.746C583.473 255.712 582.62 257.637 581.133 259.398C574.858 266.306 567.791 272.951 559.981 279.286C536.927 298.509 493.823 328.66 425.003 356.322C423.442 356.938 421.881 357.507 420.34 358.206C410.335 362.07 399.689 365.993 388.322 369.856C330.889 389.352 254.545 407.414 157.029 415.805C143.742 416.99 129.994 417.962 115.846 418.733C77.4927 420.78 38.9509 421.303 0.479667 420.297Z" fill="white"/>
<path d="M1374.89 847.989L1353.38 847.989L1333.94 816.878L1231.79 653.23L1223.78 640.288C1223.27 639.51 1223.01 638.681 1223.02 637.847C1222.97 636.561 1223.56 635.295 1224.71 634.207C1225.87 633.12 1227.54 632.258 1229.52 631.731C1230.81 631.408 1232.19 631.248 1233.58 631.26C1234.98 631.273 1236.35 631.457 1237.62 631.802C1238.88 632.146 1240.01 632.644 1240.93 633.262C1241.86 633.881 1242.55 634.607 1242.97 635.393L1250.34 647.15L1348.99 805.157L1356.7 817.506L1374.21 845.547C1374.69 846.33 1374.92 847.157 1374.89 847.989Z" fill="white"/>
<path d="M1334.52 817.685C1334.31 817.431 1334.11 817.169 1333.94 816.902C1333.48 816.142 1333.25 815.34 1333.24 814.532C1333.23 813.365 1333.72 812.215 1334.68 811.195C1335.64 810.175 1337.02 809.32 1338.71 808.713L1348.91 805.157L1582.07 724.471L1600.38 718.13L1668.98 694.427C1670.46 693.901 1672.16 693.622 1673.9 693.621L1673.9 707.843L1608.38 730.504L1590.05 736.844L1356.62 817.602L1348.49 820.422C1347.28 820.82 1345.95 821.064 1344.57 821.14C1343.2 821.217 1341.81 821.123 1340.49 820.866C1339.18 820.609 1337.97 820.193 1336.95 819.646C1335.92 819.098 1335.09 818.43 1334.52 817.685Z" fill="white"/>
<path d="M280.88 382.383C280.884 381.494 281.169 380.614 281.721 379.787L454.82 121.172C455.273 120.391 455.996 119.676 456.943 119.07C457.889 118.465 459.039 117.984 460.318 117.657C461.597 117.33 462.977 117.165 464.37 117.172C465.764 117.179 467.139 117.359 468.408 117.699C470.992 118.474 472.987 119.798 473.992 121.407C474.998 123.016 474.94 124.79 473.831 126.374L300.732 384.99C300.279 385.769 299.556 386.483 298.611 387.087C297.665 387.691 296.518 388.172 295.241 388.499C293.965 388.826 292.587 388.991 291.196 388.985C289.805 388.979 288.432 388.801 287.164 388.463C285.248 387.908 283.64 387.042 282.527 385.965C281.414 384.888 280.843 383.645 280.88 382.383Z" fill="white"/>
<path d="M363.726 258.284L363.206 258.012L235.653 195.376L90.7298 124.265L72.9395 115.531L0.578185 79.9757L0.578186 63.3359L18.108 71.9521L86.7675 105.646L106.559 115.306L249.561 185.503L371.631 245.484L376.294 247.855C378.508 248.967 379.941 250.53 380.311 252.236C380.681 253.941 379.962 255.667 378.295 257.075C377.524 257.76 376.517 258.341 375.341 258.778C374.164 259.216 372.845 259.502 371.469 259.616C370.093 259.73 368.691 259.67 367.357 259.441C366.022 259.211 364.785 258.817 363.726 258.284Z" fill="white"/>
<path d="M359.666 497.605C359.636 496.429 360.129 495.269 361.095 494.242C362.06 493.214 363.465 492.355 365.169 491.75L666.902 389.826C668.115 389.425 669.456 389.179 670.838 389.102C672.221 389.025 673.615 389.12 674.933 389.38C676.25 389.639 677.462 390.059 678.491 390.611C679.521 391.163 680.344 391.836 680.91 392.587C682.209 394.127 682.486 395.899 681.686 397.554C680.886 399.208 679.066 400.625 676.588 401.523L374.874 503.448C373.661 503.848 372.321 504.095 370.938 504.171C369.556 504.248 368.161 504.154 366.844 503.894C365.526 503.634 364.314 503.215 363.285 502.663C362.256 502.111 361.432 501.437 360.866 500.686C360.071 499.728 359.66 498.673 359.666 497.605Z" fill="white"/>
<path d="M392.445 672.76C392.419 671.601 392.899 670.457 393.838 669.439C394.778 668.422 396.145 667.566 397.808 666.953L776.866 534.214C778.064 533.809 779.39 533.556 780.762 533.469C782.134 533.382 783.521 533.465 784.836 533.71C786.152 533.956 787.367 534.361 788.406 534.898C789.445 535.436 790.285 536.095 790.874 536.834C792.201 538.363 792.516 540.13 791.757 541.79C790.998 543.45 789.22 544.882 786.771 545.805L407.734 678.544C406.536 678.949 405.209 679.203 403.837 679.289C402.466 679.376 401.078 679.294 399.763 679.048C398.448 678.802 397.232 678.398 396.193 677.86C395.154 677.323 394.314 676.664 393.726 675.925C392.878 674.946 392.439 673.861 392.445 672.76Z" fill="white"/>
<path d="M537.37 622.025C537.333 620.735 537.93 619.467 539.088 618.375C540.246 617.283 541.916 616.414 543.894 615.873C545.18 615.554 546.566 615.397 547.961 615.413C549.356 615.429 550.729 615.618 551.994 615.968C553.258 616.317 554.386 616.819 555.303 617.442C556.221 618.064 556.908 618.794 557.321 619.583L681.392 819.877C682.433 821.477 682.412 823.25 681.336 824.842C680.26 826.433 678.207 827.725 675.589 828.457C674.303 828.775 672.92 828.93 671.527 828.913C670.134 828.896 668.763 828.706 667.501 828.357C666.239 828.008 665.114 827.507 664.198 826.885C663.282 826.263 662.595 825.535 662.181 824.748L538.11 624.454C537.621 623.677 537.37 622.854 537.37 622.025Z" fill="white"/>
<path d="M301.711 847.989L280.899 847.989C280.879 847.679 280.92 847.369 281.019 847.065L300.09 762.029L303.052 748.873L325.305 649.675L328.267 636.507L359.705 496.658L388.161 369.762L392.984 348.215C393.23 346.971 394.076 345.795 395.421 344.828C396.766 343.861 398.553 343.144 400.568 342.763C402.568 342.445 404.685 342.502 406.628 342.927C408.57 343.351 410.243 344.123 411.414 345.134L424.822 356.227L523.619 438.098L528.962 442.507C530.622 443.927 531.337 445.661 530.967 447.375C530.598 449.088 529.17 450.66 526.96 451.787C526.494 452.013 525.991 452.211 525.46 452.38C523.316 453.11 520.785 453.333 518.376 453.003C515.966 452.673 513.857 451.815 512.472 450.602L504.928 444.368L409.893 365.602L382.918 485.6L379.276 501.849L348.598 638.309L345.636 651.512L323.384 750.698L320.422 763.83L301.711 847.989Z" fill="white"/>
<path d="M1649.49 827.901L1590.07 736.761L1582.07 724.447L1482.01 571.075L1473.73 558.369L1473.47 557.872C1473.02 557.208 1471.2 553.51 1468.36 547.656L1467.58 546.056C1461.8 533.955 1452.91 514.127 1445.73 492.723C1439.73 474.946 1434.76 455.983 1433.9 439.533C1433.9 437.707 1433.72 435.977 1433.72 434.176C1433.72 430.419 1433.98 426.78 1434.5 423.402C1434.68 422.585 1434.94 421.696 1435.1 420.925C1441.11 400.932 1481.49 384.185 1527.36 371.492C1533.83 369.722 1540.39 368.012 1547.05 366.36C1602.58 352.541 1660.09 344.423 1671.84 342.775C1672.54 342.662 1673.27 342.606 1674 342.61L1674 356.026C1629.53 362.221 1586.06 370.724 1544.11 381.436C1543.48 381.655 1542.81 381.822 1542.1 381.933C1494.96 394.579 1457.38 409.595 1455.05 424.73C1452.11 443.183 1458.76 469.636 1467.22 493.825C1473.63 511.946 1481.05 528.728 1486.23 539.94C1489.77 547.454 1492.24 552.432 1492.88 553.534L1494.34 555.904L1500.34 565.066L1600.36 718.13L1608.36 730.385L1663.45 814.781C1659.79 819.497 1655.09 823.908 1649.49 827.901Z" fill="white"/>
<path d="M704.183 451.714C704.142 450.521 704.64 449.342 705.625 448.3C706.61 447.259 708.046 446.391 709.786 445.788C939.017 370.388 1094.19 369.31 1184.2 442.482C1207.41 461.362 1235.65 471.495 1268.07 472.597C1350.83 475.429 1436.5 419.975 1437.36 419.407C1438.27 418.792 1439.39 418.298 1440.64 417.956C1441.89 417.614 1443.25 417.431 1444.62 417.42C1446 417.409 1447.37 417.57 1448.63 417.891C1449.9 418.213 1451.04 418.689 1451.97 419.288C1453.94 420.558 1455.06 422.215 1455.09 423.941C1455.13 425.667 1454.09 427.34 1452.17 428.639C1448.41 431.104 1359.2 488.929 1267.03 485.812C1228.36 484.496 1194.98 472.68 1167.95 450.659C1085.02 383.259 938.257 385.475 719.251 457.557C718.029 457.955 716.679 458.196 715.289 458.267C713.898 458.337 712.499 458.234 711.18 457.965C709.861 457.696 708.651 457.267 707.629 456.705C706.607 456.143 705.794 455.46 705.243 454.701C704.524 453.763 704.162 452.744 704.183 451.714Z" fill="white"/>
<path d="M924.232 399.129C924.195 397.863 924.768 396.618 925.885 395.539C927.001 394.46 928.615 393.592 930.536 393.037C931.813 392.7 933.195 392.526 934.593 392.525C935.99 392.525 937.373 392.697 938.651 393.032C939.93 393.367 941.075 393.857 942.014 394.47C942.953 395.083 943.665 395.806 944.103 396.592L1127.67 673.092C1128.76 674.682 1128.81 676.457 1127.79 678.065C1126.78 679.673 1124.77 680.995 1122.19 681.768C1120.91 682.104 1119.53 682.279 1118.13 682.279C1116.73 682.28 1115.35 682.108 1114.07 681.773C1112.79 681.438 1111.65 680.948 1110.71 680.335C1109.77 679.721 1109.06 678.998 1108.62 678.212L925.053 401.689C924.515 400.873 924.237 400.005 924.232 399.129Z" fill="white"/>
<path d="M1312.73 611.216L1304.89 599.471L1225.46 479.84L1223.78 477.316C1223.25 476.486 1222.98 475.607 1222.96 474.72C1222.97 473.513 1223.49 472.326 1224.48 471.271L1229.1 466.377L1340.03 349.649L1351.57 337.478L1483.65 198.493L1485.65 196.383C1486.82 195.067 1488.79 194.06 1491.16 193.563L1502.76 191.05L1670.56 154.405C1671.63 154.157 1672.77 154.033 1673.92 154.037L1673.92 167.607L1506.06 204.241L1501.36 205.284L1488.73 218.593L1361.22 352.802L1249.16 470.868L1244.97 475.242L1251.24 484.723L1323.5 593.439L1331.9 606.132C1332.98 607.723 1333.02 609.497 1332 611.103C1330.98 612.709 1328.98 614.03 1326.4 614.807C1325.11 615.142 1323.72 615.313 1322.31 615.311C1320.91 615.31 1319.52 615.134 1318.23 614.796C1316.94 614.458 1315.79 613.966 1314.84 613.349C1313.9 612.733 1313.18 612.006 1312.73 611.216Z" fill="white"/>
<path d="M964.554 461.162C971.192 459.858 977.562 458.116 983.544 455.97C1013.18 445.529 1033.73 425.926 1035.97 403.171C1035.97 401.844 1036.15 400.528 1036.15 399.201C1036.18 398.149 1036.12 397.097 1035.97 396.048C1035.88 393.921 1035.56 391.799 1035.01 389.696C1029.15 364.238 1000.21 343.64 962.212 336.731C953.279 335.129 943.99 334.33 934.656 334.36C927.862 334.362 921.087 334.791 914.445 335.64C868.158 341.649 833.098 367.948 833.098 399.319C833.089 403.092 833.611 406.858 834.659 410.578C835.225 412.701 835.973 414.806 836.9 416.884C837.837 419.075 838.993 421.232 840.362 423.343C855.291 447.259 891.992 464.267 934.656 464.267C944.844 464.221 954.948 463.172 964.554 461.162ZM859.794 418.851C858.409 416.745 857.285 414.583 856.432 412.38C855.527 410.295 854.859 408.177 854.43 406.039C853.916 403.769 853.662 401.48 853.67 399.189C853.67 370.626 889.931 347.433 934.576 347.433C973.619 347.433 1006.1 365.104 1013.78 388.641C1014.46 390.704 1014.92 392.79 1015.16 394.887C1015.32 396.262 1015.42 397.708 1015.42 399.142C1015.42 400.078 1015.42 401.014 1015.42 401.95C1013.88 419.728 998.253 435.206 975.54 443.704C969.647 445.986 963.213 447.736 956.449 448.895C949.4 450.192 942.058 450.847 934.676 450.839C900.897 450.839 871.981 437.577 859.794 418.851Z" fill="white"/>
<path d="M424.182 700.198C424.202 691.773 421.562 683.42 416.397 675.57C415.016 673.531 413.555 671.54 411.914 669.644C410.282 667.704 408.464 665.82 406.471 664.002C393.209 651.563 372.668 642.457 348.778 638.427C345.66 637.919 342.492 637.523 339.293 637.241C335.666 636.878 332.003 636.656 328.326 636.578C326.998 636.485 325.661 636.449 324.324 636.471C269.413 636.471 224.587 665.128 224.587 700.257C224.587 730.028 256.605 755.106 299.97 762.123L300.07 762.123C306.752 763.176 313.612 763.784 320.522 763.936C321.823 763.995 323.043 763.995 324.324 763.995C379.436 763.936 424.182 735.385 424.182 700.198ZM303.092 748.861C269.853 742.935 245.399 723.344 245.399 700.198C245.399 672.31 280.899 649.662 324.424 649.662L325.385 649.662C332.319 649.751 339.203 650.385 345.857 651.546C356.211 653.505 365.796 656.674 374.046 660.865C382.295 665.057 389.041 670.186 393.884 675.949C400.265 683.473 403.576 691.778 403.55 700.198C403.55 728.096 368.049 750.733 324.524 750.733L323.664 750.733C316.685 750.736 309.747 750.104 303.092 748.861Z" fill="white"/>
<path d="M846.204 637.858C846.163 636.621 846.702 635.403 847.762 634.337C848.823 633.272 850.361 632.403 852.208 631.825L1050.5 574.273C1051.76 573.919 1053.12 573.724 1054.51 573.7C1055.9 573.676 1057.28 573.823 1058.57 574.133C1059.86 574.443 1061.02 574.909 1061.99 575.5C1062.96 576.092 1063.71 576.796 1064.19 577.568C1065.35 579.142 1065.46 580.916 1064.51 582.537C1063.55 584.158 1061.6 585.507 1059.05 586.315L860.753 643.866C859.499 644.221 858.134 644.417 856.746 644.441C855.357 644.466 853.975 644.32 852.687 644.011C851.4 643.702 850.235 643.238 849.267 642.648C848.299 642.058 847.549 641.355 847.065 640.583C846.47 639.719 846.177 638.791 846.204 637.858Z" fill="white"/>
<path d="M10.2249 815.905C3.72708 807.7 0.39137 798.741 0.459318 789.678L0.459318 786.75C54.7038 754.822 92.0987 709.126 112.644 649.662C114.125 645.36 115.505 640.939 116.886 636.412C119.908 625.911 122.489 615.079 124.571 603.82C126.572 592.999 128.033 582.226 128.893 571.678C129.574 564.223 130.094 556.875 130.274 549.645C130.434 545.165 130.534 540.697 130.534 536.336C130.534 533.575 130.534 530.872 130.434 528.218C129.76 491.571 124.859 454.994 115.765 418.744C113.764 411.633 112.644 407.484 112.564 407.319C110.242 400.207 117.406 393.18 128.573 391.686C139.739 390.193 150.585 394.779 153.007 401.962C153.267 402.791 154.828 407.65 156.889 415.816C165.325 449.034 170.204 482.534 171.497 516.117C172.018 527.056 172.098 538.54 171.658 550.309C170.977 568.537 169.156 587.583 165.654 606.925C148.304 701.632 95.3137 772.22 10.2249 815.905Z" fill="white"/>
<path d="M23.6317 283.707L0.478563 338.544L0.478566 287.736L3.08013 281.502L72.9401 115.579L74.7612 111.336C75.1585 110.315 75.9718 109.368 77.13 108.577C78.2881 107.786 79.7558 107.174 81.4049 106.797L86.6679 105.611L216.743 77.3806L379.196 42.0864L400.088 37.559C401.408 37.2904 402.808 37.1857 404.199 37.2515C405.59 37.3172 406.944 37.552 408.176 37.9412C409.407 38.3303 410.49 38.8656 411.357 39.5135C412.224 40.1614 412.857 40.9081 413.215 41.7071C414.144 43.3302 413.992 45.102 412.791 46.6612C411.59 48.2203 409.43 49.4495 406.752 50.0981L388.261 54.1276L228.169 88.8768L106.499 115.271L93.3719 118.139L90.7704 124.278L23.6317 283.707Z" fill="white"/>
<path d="M64.3964 542.192C51.2168 538.808 38.9408 534.305 27.9555 528.823C17.5803 523.635 8.34921 517.694 0.479812 511.14C0.285872 511.063 0.138747 510.951 0.0596608 510.82L0.479812 509.208L0.479813 486.785C1.26027 487.674 1.96066 488.551 2.7211 489.44C3.0813 489.831 3.42139 490.21 3.86163 490.625C3.86154 490.724 3.91812 490.82 4.02188 490.898C13.0317 501.353 25.4116 510.662 40.4627 518.299C57.9674 527.012 79.077 532.805 101.618 535.081C111.172 536.049 120.866 536.446 130.554 536.266C136.781 536.195 142.989 535.843 149.125 535.211C150.491 535.053 151.896 535.061 153.257 535.233C154.618 535.406 155.905 535.739 157.042 536.214C158.179 536.69 159.142 537.296 159.872 537.997C160.602 538.699 161.086 539.48 161.292 540.295C161.938 541.963 161.465 543.714 159.971 545.178C158.477 546.642 156.08 547.705 153.287 548.141C145.703 549.074 137.98 549.554 130.234 549.575C107.645 549.963 85.1825 547.444 64.3964 542.192Z" fill="white"/>
<path d="M135.898 649.662L0.480605 649.662L0.480606 636.412L135.898 636.412C138.702 636.553 141.314 637.311 143.218 638.538C145.121 639.765 146.178 641.371 146.178 643.037C146.178 644.703 145.121 646.309 143.218 647.536C141.314 648.763 138.702 649.522 135.898 649.662Z" fill="white"/>
<path d="M1528.66 376.718L1527.32 371.48L1488.71 218.593L1483.67 198.54L1462.68 115.483L1459.06 100.977L1441.55 31.7036L1438.24 18.5364L1433.84 1.18553C1433.77 0.839347 1433.73 0.491221 1433.72 0.142573L1454.55 0.142574L1460.18 22.5778L1502.74 191.05L1506.04 204.241L1546.99 366.336L1548.99 374.632C1549.48 376.307 1548.87 378.03 1547.27 379.441C1545.67 380.852 1543.21 381.843 1540.4 382.206C1539.02 382.315 1537.61 382.258 1536.27 382.039C1534.92 381.821 1533.67 381.445 1532.57 380.933C1531.47 380.421 1530.56 379.784 1529.89 379.06C1529.22 378.336 1528.8 377.54 1528.66 376.718Z" fill="white"/>
<path d="M425.902 100.514C425.806 97.7856 427.146 95.1075 429.735 92.8503C432.323 90.5931 436.033 88.8685 440.35 87.9153C442.691 87.4412 676.085 42.0137 766.017 182.895C855.948 323.776 667.76 386.815 665.959 387.443C655.774 390.75 643.326 388.154 638.143 381.636C632.96 375.117 637.043 367.165 647.228 363.858C653.572 361.76 803.118 310.857 727.815 192.886C696.097 143.192 640.545 114.665 562.72 108.111C525.938 105.185 488.527 106.893 452.937 113.124C442.051 115.328 430.424 111.476 426.922 104.508C426.26 103.212 425.916 101.867 425.902 100.514Z" fill="white"/>
<path d="M743.546 199.831C743.531 198.868 743.86 197.914 744.512 197.031C745.164 196.149 746.123 195.358 747.328 194.711C748.352 194.162 749.561 193.748 750.875 193.495C752.189 193.242 753.578 193.156 754.952 193.244C756.325 193.331 757.652 193.589 758.846 194.001C760.039 194.413 761.072 194.97 761.876 195.635L936.537 331.93L1464.4 98.6057C1465.5 98.1148 1466.77 97.7671 1468.12 97.5853C1469.47 97.4034 1470.86 97.3915 1472.22 97.5503C1473.57 97.709 1474.86 98.0348 1475.98 98.5066C1477.11 98.9783 1478.06 99.5855 1478.77 100.289C1480.34 101.741 1480.94 103.487 1480.45 105.186C1479.97 106.886 1478.43 108.419 1476.15 109.485L940.459 346.223C939.419 346.691 938.233 347.032 936.969 347.226C935.705 347.42 934.388 347.463 933.096 347.352C931.803 347.242 930.561 346.981 929.441 346.583C928.321 346.186 927.345 345.66 926.571 345.038L745.887 204.074C744.344 202.849 743.521 201.359 743.546 199.831Z" fill="white"/>
<path d="M1192.09 222.421C1192.06 221.422 1192.4 220.431 1193.09 219.52C1193.78 218.608 1194.81 217.798 1196.09 217.147C1197.15 216.626 1198.39 216.243 1199.72 216.024C1201.05 215.805 1202.45 215.754 1203.81 215.874C1205.18 215.995 1206.49 216.285 1207.65 216.725C1208.82 217.164 1209.81 217.745 1210.58 218.427L1360.66 345.24C1362.33 346.658 1363.04 348.39 1362.67 350.103C1362.3 351.815 1360.87 353.385 1358.66 354.508C1357.6 355.029 1356.36 355.411 1355.03 355.629C1353.7 355.848 1352.3 355.898 1350.94 355.776C1349.57 355.654 1348.27 355.363 1347.11 354.922C1345.94 354.481 1344.95 353.9 1344.19 353.217L1194.11 226.404C1192.76 225.231 1192.05 223.84 1192.09 222.421Z" fill="white"/>
<path d="M1335.85 98.285C1335.85 83.423 1341.03 70.1136 1351.4 58.4397C1381.89 24.0698 1445.67 17.338 1448.37 17.0654C1449.76 16.9564 1451.18 17.0138 1452.53 17.2342C1453.88 17.4546 1455.15 17.8336 1456.25 18.3486C1457.35 18.8636 1458.26 19.5041 1458.94 20.2324C1459.61 20.9606 1460.03 21.7618 1460.18 22.5883C1460.68 24.2604 1460.06 25.9816 1458.45 27.3882C1456.84 28.7947 1454.38 29.7765 1451.57 30.126C1450.93 30.1971 1394.72 36.2651 1369.29 65.0647C1350.82 85.9711 1352.42 113.977 1374.09 148.299C1375.15 149.896 1375.14 151.671 1374.08 153.267C1373.02 154.864 1370.98 156.163 1368.37 156.903C1367.08 157.226 1365.7 157.387 1364.31 157.376C1362.92 157.364 1361.55 157.181 1360.28 156.837C1359.01 156.494 1357.88 155.998 1356.96 155.38C1356.04 154.763 1355.34 154.039 1354.92 153.253C1342.2 133.129 1335.85 114.806 1335.85 98.285Z" fill="white"/>
<path d="M1288.84 181.248L1287.22 176.863L1264.25 113.871L1259.5 100.929L1247.5 67.8509L1242.79 54.814L1223.32 1.48146C1223.1 0.99868 1223 0.499777 1223.02 -3.76734e-06L1243.95 -2.85237e-06L1264.95 57.8481C1264.95 57.9903 1264.95 58.1088 1265.07 58.2155L1305.41 168.827L1308.89 178.309C1309.42 179.622 1309.28 181 1308.49 182.267C1307.69 183.533 1306.28 184.631 1304.43 185.42C1303.44 185.822 1302.34 186.122 1301.19 186.309C1299.81 186.481 1298.39 186.485 1297.01 186.321C1295.63 186.157 1294.33 185.828 1293.17 185.354C1292.02 184.881 1291.03 184.272 1290.29 183.566C1289.55 182.86 1289.05 182.071 1288.84 181.248Z" fill="white"/>
<path d="M1003.57 230.137C1003.57 216.934 1030.17 206.303 1056.04 195.969C1078.06 187.186 1105.35 176.247 1102.07 168.307C1090.06 139.27 1222.14 108.894 1262.82 100.278C1264.15 100.018 1265.55 99.9213 1266.93 99.9944C1268.32 100.068 1269.67 100.309 1270.9 100.703C1272.12 101.098 1273.2 101.637 1274.06 102.288C1274.92 102.938 1275.54 103.686 1275.89 104.485C1276.76 106.104 1276.56 107.856 1275.35 109.393C1274.13 110.93 1271.98 112.14 1269.33 112.781C1186.62 130.263 1117.88 154.618 1122.04 164.858C1129.25 182.244 1097.59 194.89 1066.97 207.121C1047.4 214.943 1020.54 225.669 1024.95 231.761C1040.78 253.923 1067.49 282.047 1067.75 282.32C1069.19 283.818 1069.63 285.578 1068.99 287.258C1068.36 288.939 1066.69 290.419 1064.31 291.41C1063.15 291.849 1061.84 292.142 1060.48 292.269C1059.12 292.395 1057.73 292.354 1056.39 292.147C1055.06 291.94 1053.81 291.572 1052.73 291.066C1051.64 290.559 1050.75 289.926 1050.1 289.206C1048.98 288.021 1022.49 260.145 1006.08 237.26C1004.44 235.01 1003.59 232.587 1003.57 230.137Z" fill="white"/>
<path d="M595.06 101.64L590.558 84.657L568.125 1.25664C568.005 0.889574 567.944 0.516493 567.945 0.142576L588.757 0.142577L612.53 88.331L615.552 99.4123C616.059 101.086 615.464 102.811 613.89 104.233C612.315 105.655 609.881 106.665 607.087 107.057C605.694 107.182 604.273 107.14 602.908 106.933C601.542 106.727 600.261 106.36 599.139 105.855C598.017 105.35 597.079 104.717 596.378 103.993C595.677 103.269 595.229 102.469 595.06 101.64Z" fill="white"/>
<path d="M654.956 122.179C653.678 121.049 652.982 119.723 652.955 118.363C652.937 117.319 653.327 116.287 654.094 115.347C654.862 114.408 655.985 113.586 657.378 112.946L672.166 106.238L821.492 38.7904C821.93 38.5353 822.413 38.3089 822.933 38.1148L906.981 0.189452L935.197 0.189453C935.208 1.22612 934.817 2.25048 934.054 3.18341C933.29 4.11633 932.175 4.93292 930.795 5.57017L851.529 41.3978L830.357 50.9621L689.796 114.523L669.345 123.755C668.25 124.253 666.992 124.609 665.65 124.8C664.309 124.991 662.915 125.012 661.558 124.864C660.202 124.715 658.913 124.399 657.775 123.937C656.638 123.474 655.678 122.875 654.956 122.179Z" fill="white"/>
<path d="M726.356 173.652C726.308 172.314 726.949 170.999 728.193 169.881C729.437 168.764 731.225 167.896 733.32 167.394L1251.62 52.9901C1252.93 52.7205 1254.33 52.6134 1255.71 52.6752C1257.1 52.7371 1258.45 52.9666 1259.68 53.3498C1260.92 53.7329 1262 54.2615 1262.88 54.9028C1263.75 55.5442 1264.39 56.2848 1264.76 57.0789C1265.7 58.7009 1265.56 60.4725 1264.37 62.0349C1263.18 63.5973 1261.03 64.8337 1258.36 65.4936L740.184 179.898C738.869 180.169 737.474 180.278 736.086 180.217C734.697 180.156 733.345 179.926 732.112 179.543C730.879 179.16 729.793 178.63 728.919 177.988C728.046 177.346 727.405 176.604 727.036 175.809C726.616 175.116 726.386 174.388 726.356 173.652Z" fill="white"/>
<path d="M817.826 43.8517C817.824 43.4984 817.871 43.1456 817.966 42.7969C818.114 41.9729 818.54 41.1748 819.217 40.4498C819.895 39.7248 820.812 39.0877 821.912 38.5761C823.013 38.0645 824.276 37.6888 825.626 37.4713C826.976 37.2538 828.386 37.1988 829.773 37.3096C831.774 37.5229 879.121 42.5718 905.817 68.5388C924.327 86.6126 927.969 109.913 916.643 137.812C916.373 138.623 915.827 139.394 915.038 140.077C914.249 140.759 913.235 141.34 912.056 141.783C910.877 142.227 909.558 142.524 908.179 142.656C906.8 142.788 905.391 142.753 904.036 142.553C901.294 142.022 898.999 140.891 897.622 139.39C896.245 137.889 895.891 136.132 896.631 134.482C906.377 110.411 903.715 90.7014 888.627 75.8987C867.174 54.8382 826.991 50.4175 826.591 50.3701C824.069 50.067 821.809 49.2475 820.206 48.0554C818.603 46.8634 817.76 45.3751 817.826 43.8517Z" fill="white"/>
<path d="M1069.65 99.6375L1067.17 93.7117L1028.81 1.84922C1028.59 1.28974 1028.47 0.717227 1028.47 0.142575L1049.48 0.142576L1086.84 89.362L1089.74 96.2242C1090.39 97.7014 1090.18 99.264 1089.15 100.662C1088.12 102.061 1086.33 103.215 1084.06 103.94C1083.51 104.083 1082.95 104.206 1082.38 104.307C1081.02 104.525 1079.61 104.575 1078.22 104.455C1076.83 104.334 1075.5 104.046 1074.3 103.609C1073.11 103.171 1072.08 102.592 1071.28 101.909C1070.48 101.226 1069.93 100.453 1069.65 99.6375Z" fill="white"/>
</svg>
