<svg width="132" height="15" viewBox="0 0 132 15" fill="none" xmlns="http://www.w3.org/2000/svg">
<path d="M35.8367 4.31624C36.3429 3.86847 36.7688 3.30956 37.1158 2.666V2.66536C36.6526 2.918 36.1598 3.08599 35.6453 3.16741C36.1744 2.77391 36.5784 2.15556 36.7682 1.41056C36.275 1.77692 35.7304 2.03537 35.15 2.18011C34.6816 1.55852 34.0141 1.17407 33.2858 1.17407C31.873 1.17407 30.7355 2.60268 30.7355 4.35372C30.7355 4.60571 30.7526 4.84801 30.7946 5.07868C28.6732 4.94946 26.7956 3.68303 25.5342 1.75301C25.3143 2.22922 25.1846 2.77391 25.1846 3.35996C25.1846 4.46098 25.6395 5.43664 26.3184 6.00202C25.9082 5.99232 25.5062 5.84371 25.1654 5.61046V5.64535C25.1654 7.19026 26.0498 8.47349 27.21 8.76942C27.0021 8.8405 26.7759 8.8741 26.5409 8.8741C26.3776 8.8741 26.2126 8.86247 26.0581 8.81982C26.3885 10.0785 27.3273 11.0044 28.4424 11.0348C27.5742 11.8806 26.4714 12.3904 25.278 12.3904C25.0689 12.3904 24.8682 12.3788 24.6675 12.3471C25.7982 13.2549 27.1374 13.7738 28.5825 13.7738C33.0861 13.7738 36.0213 9.09314 35.8367 4.31624V4.31624Z" fill="#363636"/>
<path d="M4.69636 2.49062H5.74527V0.105625C5.56431 0.073125 4.94195 0 4.21715 0C2.70484 0 1.66886 1.24187 1.66886 3.52437V5.625H0V8.29125H1.66886V15H3.71496V8.29188H5.31632L5.57053 5.62563H3.71448V3.78875C3.71496 3.01812 3.8739 2.49062 4.69636 2.49062V2.49062Z" fill="#363636"/>
<path d="M61.9467 3.89087C60.3189 3.89087 59.001 5.54427 59.001 7.58256C59.001 9.62263 60.3203 11.2742 61.9467 11.2742C63.5746 11.2742 64.8925 9.62084 64.8925 7.58256C64.8925 5.54248 63.5732 3.89087 61.9467 3.89087V3.89087ZM61.9467 9.97873C60.89 9.97873 60.0347 8.90624 60.0347 7.58256C60.0347 6.25887 60.8905 5.18638 61.9467 5.18638C63.0029 5.18638 63.8587 6.25887 63.8587 7.58256C63.8592 8.90624 63.0034 9.97873 61.9467 9.97873V9.97873Z" fill="#FDA100"/>
<path d="M64.3115 0.437038C63.2553 0.375292 60.6391 0.37829 59.5819 0.437038C58.653 0.49159 57.8335 0.772742 57.1729 1.60061C56.0688 2.98419 56.21 4.84855 56.21 7.58275C56.21 10.3811 56.0856 12.2023 57.1729 13.5649C58.2813 14.9533 59.7905 14.7716 61.9465 14.7716C64.1585 14.7716 64.9219 14.7734 65.7041 14.3939C66.7675 13.8766 67.5702 12.6855 67.6486 10.5459C67.6984 9.2217 67.6955 5.94379 67.6486 4.61896C67.5539 2.09338 66.4723 0.561728 64.3115 0.437038V0.437038ZM65.9834 12.6495C65.2597 13.5565 64.2556 13.4756 61.9326 13.4756C59.5408 13.4756 58.5817 13.5199 57.8818 12.6405C57.0758 11.6352 57.2217 10.0208 57.2217 7.57315C57.2217 4.26107 56.9505 1.87577 59.603 1.70552C60.2124 1.67854 60.3918 1.66955 61.9259 1.66955L61.9475 1.68754C64.4967 1.68754 66.4967 1.35303 66.6168 4.6765C66.6441 5.43484 66.6503 5.66264 66.6503 7.58215C66.6498 10.5447 66.6948 11.7539 65.9834 12.6495V12.6495Z" fill="#FDA100"/>
<path d="M65.0092 4.60755C65.3893 4.60755 65.6975 4.22134 65.6975 3.74494C65.6975 3.26853 65.3893 2.88232 65.0092 2.88232C64.629 2.88232 64.3208 3.26853 64.3208 3.74494C64.3208 4.22134 64.629 4.60755 65.0092 4.60755Z" fill="#FDA100"/>
<path d="M99.9134 2.97435L99.9301 3.11962C99.7682 2.35697 99.3308 1.76849 98.775 1.5543L98.7633 1.55059C97.7182 1.17408 93.5128 1.17408 93.5128 1.17408C93.5128 1.17408 89.3179 1.16667 88.2622 1.55059C87.6958 1.76849 87.2579 2.35697 87.0987 3.10406L87.0959 3.11962C86.7055 5.82559 86.7027 9.07705 87.1133 11.9742L87.0959 11.8275C87.2579 12.5901 87.6953 13.1786 88.2511 13.3928L88.2628 13.3965C89.3067 13.7738 93.5133 13.7738 93.5133 13.7738C93.5133 13.7738 97.7076 13.7738 98.7638 13.3965C99.3308 13.1786 99.7687 12.5901 99.9279 11.843L99.9307 11.8275C100.108 10.569 100.21 9.12078 100.21 7.64142C100.21 7.58732 100.21 7.53247 100.209 7.47763C100.21 7.42723 100.21 7.3672 100.21 7.30716C100.21 5.82707 100.108 4.37885 99.9134 2.97435V2.97435ZM92.1711 10.1799V4.77463L95.6711 7.48133L92.1711 10.1799Z" fill="#363636"/>
<path d="M124.162 9.87344L123.956 13.5587C124.251 13.5587 124.379 13.3977 124.532 13.2043L125.913 11.5247L128.775 14.1916C129.3 14.5639 129.67 14.3679 129.811 13.5772L131.69 2.37615L131.691 2.37549C131.857 1.38817 131.41 1.00209 130.899 1.2443L119.856 6.62374C119.102 6.99596 119.113 7.53054 119.728 7.77275L122.551 8.89008L129.109 3.66904C129.417 3.40901 129.698 3.55288 129.467 3.81291L124.162 9.87344Z" fill="#363636"/>
</svg>
