<svg width="62" height="46" viewBox="0 0 62 46" fill="none" xmlns="http://www.w3.org/2000/svg">
<path d="M0.931641 23.123C0.931641 17.5385 1.53169 13.227 2.71816 10.1883C3.91827 7.13602 5.59564 4.83652 7.77765 3.26246C9.95966 1.68839 12.3872 0.908203 15.0875 0.908203C17.815 0.908203 20.297 1.70205 22.5063 3.27612C24.7156 4.86387 26.4748 7.23183 27.7704 10.3936C29.066 13.5555 29.7069 17.7986 29.7069 23.1367C29.7069 28.4475 29.066 32.6769 27.7977 35.825C26.5294 38.9732 24.7701 41.3411 22.5335 42.9426C20.297 44.544 17.815 45.3379 15.0875 45.3379C12.4009 45.3379 9.97333 44.5577 7.80495 43.011C5.65021 41.4643 3.95912 39.1375 2.74538 36.0715C1.54527 32.9781 0.931641 28.6665 0.931641 23.123ZM4.91379 23.1915C4.91379 27.9684 5.33656 31.5819 6.19573 34.032C7.04126 36.482 8.29593 38.3299 9.95971 39.6028C11.6235 40.8758 13.3827 41.5054 15.2375 41.5054C17.1058 41.5054 18.8514 40.8894 20.4879 39.6439C22.1108 38.412 23.3382 36.5505 24.1837 34.073C25.2338 31.0618 25.7656 27.4346 25.7656 23.1915C25.7656 18.9347 25.302 15.4443 24.361 12.7342C23.42 10.0241 22.1244 8.03937 20.4742 6.78012C18.8241 5.52087 17.0785 4.89128 15.2511 4.89128C13.3828 4.89128 11.6235 5.52087 9.97336 6.78012C8.32322 8.03937 7.0822 9.88718 6.22303 12.3373C5.35022 14.7736 4.91379 18.4009 4.91379 23.1915Z" fill="#4C4C4C"/>
<path d="M39.3627 11.7624H35.0669C35.8442 8.27211 37.3443 5.58935 39.5673 3.71416C41.7765 1.83897 44.395 0.894531 47.4225 0.894531C49.6182 0.894531 51.6638 1.40098 53.5731 2.40017C55.4687 3.41304 56.9416 4.76811 57.9917 6.46536C59.0281 8.1763 59.56 9.95568 59.56 11.8172C59.56 15.4581 57.7598 18.3461 54.1459 20.4677C56.1642 21.2889 57.8281 22.4935 59.1373 24.0949C60.9647 26.3396 61.8921 28.8445 61.8921 31.623C61.8921 34.0183 61.2647 36.3041 59.9964 38.4804C58.7418 40.6568 57.0234 42.3403 54.8414 43.5311C52.6594 44.722 50.2319 45.3105 47.5317 45.3105C43.9041 45.3105 40.8765 44.2566 38.449 42.1624C36.0216 40.0682 34.4395 36.9748 33.6895 32.9097H37.8217C38.5445 35.6472 39.5945 37.6318 40.9447 38.8637C42.6766 40.4104 44.8996 41.1906 47.5862 41.1906C50.641 41.1906 53.0958 40.2735 54.9505 38.4257C56.8052 36.5916 57.7326 34.429 57.7326 31.9515C57.7326 30.309 57.2689 28.7623 56.3416 27.3251C55.4142 25.8879 54.1731 24.8066 52.6185 24.0812C51.0638 23.3558 48.6499 22.9041 45.3769 22.7261V18.8388C47.2998 18.8388 49.059 18.4967 50.6546 17.8123C52.2366 17.1279 53.3958 16.2656 54.105 15.2117C54.8278 14.1577 55.1823 13.008 55.1823 11.7624C55.1823 9.9283 54.4459 8.32687 52.9867 6.98549C51.5275 5.64412 49.6727 4.97343 47.4362 4.97343C45.6224 4.97343 44.054 5.47986 42.7312 6.50642C41.3947 7.57405 40.2765 9.31236 39.3627 11.7624Z" fill="#4C4C4C"/>
</svg>
