<svg width="29" height="26" viewBox="0 0 29 26" fill="none" xmlns="http://www.w3.org/2000/svg">
<path d="M0.138672 13.2956C0.138672 10.17 0.474514 7.75691 1.13857 6.05624C1.81025 4.34791 2.74909 3.06092 3.97033 2.17994C5.19158 1.29896 6.55022 0.862305 8.06151 0.862305C9.58807 0.862305 10.9772 1.30663 12.2138 2.18761C13.4503 3.07625 14.4349 4.40154 15.16 6.17115C15.8851 7.94077 16.2439 10.3156 16.2439 13.3032C16.2439 16.2756 15.8851 18.6427 15.1753 20.4047C14.4654 22.1666 13.4808 23.4919 12.229 24.3882C10.9772 25.2845 9.58807 25.7288 8.06151 25.7288C6.55022 25.7288 5.19921 25.2922 3.9856 24.4265C2.77962 23.5609 1.83315 22.2586 1.15383 20.5426C0.482148 18.8113 0.138672 16.3982 0.138672 13.2956ZM2.36745 13.3339C2.36745 16.0074 2.60406 18.0299 3.0773 19.4011C3.55053 20.7724 4.25275 21.8066 5.18395 22.519C6.11515 23.2315 7.09978 23.5839 8.13784 23.5839C9.18353 23.5839 10.1605 23.2391 11.0688 22.542C11.9771 21.8525 12.6641 20.8107 13.1373 19.4241C13.725 17.7388 14.0227 15.7087 14.0227 13.3339C14.0227 10.9514 13.7632 8.99793 13.2365 7.48112C12.7099 5.96431 11.9848 4.85352 11.0612 4.14874C10.1376 3.44396 9.16063 3.09156 8.13784 3.09156C7.09215 3.09156 6.10752 3.44396 5.18395 4.14874C4.26801 4.85352 3.5658 5.88771 3.08493 7.25897C2.6117 8.62257 2.36745 10.6526 2.36745 13.3339Z" fill="#4C4C4C"/>
<path d="M23.3808 1.45215H28.0139V25.1315H25.6707V3.7657H21.9688L23.3808 1.45215Z" fill="#4C4C4C"/>
</svg>
