<svg width="36" height="26" viewBox="0 0 36 26" fill="none" xmlns="http://www.w3.org/2000/svg">
<path d="M0.880859 12.8651C0.880859 9.73951 1.2167 7.32636 1.88075 5.62566C2.55244 3.91731 3.49128 2.63029 4.71253 1.7493C5.93377 0.868307 7.29239 0.431641 8.80368 0.431641C10.3302 0.431641 11.7194 0.875969 12.9559 1.75696C14.1924 2.64561 15.177 3.97093 15.9022 5.74057C16.6273 7.51022 16.986 9.88506 16.986 12.8728C16.986 15.8452 16.6273 18.2124 15.9174 19.9743C15.2076 21.7363 14.223 23.0616 12.9712 23.9579C11.7194 24.8543 10.3302 25.2986 8.80368 25.2986C7.30003 25.2986 5.94137 24.8619 4.72776 23.9962C3.52178 23.1306 2.57535 21.8282 1.89603 20.1122C1.22435 18.3809 0.880859 15.9677 0.880859 12.8651ZM3.10962 12.9034C3.10962 15.577 3.34623 17.5995 3.8271 18.9708C4.30033 20.3421 5.00255 21.3763 5.93375 22.0887C6.86495 22.8012 7.84957 23.1536 8.88763 23.1536C9.93332 23.1536 10.9103 22.8088 11.8263 22.1117C12.7346 21.4222 13.4215 20.3804 13.8947 18.9938C14.4825 17.3084 14.7802 15.2783 14.7802 12.9034C14.7802 10.5209 14.5206 8.56741 13.994 7.05057C13.4673 5.53373 12.7422 4.42292 11.8186 3.71812C10.8951 3.01333 9.91806 2.66093 8.89527 2.66093C7.84958 2.66093 6.86496 3.01333 5.94139 3.71812C5.01783 4.42292 4.32324 5.45713 3.84238 6.82841C3.35388 8.19203 3.10962 10.2221 3.10962 12.9034Z" fill="#4C4C4C"/>
<path d="M32.0303 0.423828H32.5111V16.9405H35.3658V19.1928H32.5111V24.7009H30.1679V19.1928H18.8789L32.0303 0.423828ZM30.1679 16.9405V6.98913L23.1762 16.9328H30.1679V16.9405Z" fill="#4C4C4C"/>
</svg>
