<svg width="199" height="71" viewBox="0 0 199 71" fill="none" xmlns="http://www.w3.org/2000/svg">
<path d="M104.423 68.5168C104.362 67.4596 105.156 66.5556 106.21 66.4867C107.263 66.4254 108.171 67.2298 108.232 68.2793C108.301 69.3365 107.499 70.2481 106.446 70.3094C106.408 70.3094 106.37 70.317 106.332 70.317C105.324 70.317 104.484 69.5357 104.423 68.5168ZM93.0811 70.3094C92.0278 70.2404 91.2263 69.3288 91.295 68.2716C91.3637 67.2221 92.2644 66.4177 93.3177 66.479C94.371 66.548 95.1725 67.4596 95.1038 68.5168C95.0428 69.528 94.2031 70.3094 93.2032 70.3094C93.165 70.3094 93.1193 70.3094 93.0811 70.3094ZM117.483 67.1225C117.285 66.0883 117.964 65.0848 119.002 64.8856C120.04 64.6941 121.032 65.3759 121.231 66.4101C121.429 67.452 120.75 68.4555 119.712 68.647C119.59 68.6777 119.475 68.6853 119.353 68.6853C118.453 68.6853 117.651 68.0418 117.483 67.1225ZM79.8153 68.6393C78.7849 68.4402 78.1056 67.4366 78.2964 66.3948C78.4948 65.3606 79.4947 64.6788 80.5328 64.8703C81.5632 65.0695 82.2425 66.073 82.0517 67.1072C81.8762 68.0265 81.0747 68.67 80.1741 68.67C80.0596 68.67 79.9374 68.6547 79.8153 68.6393ZM130.268 64.0965C129.948 63.0853 130.497 62.0052 131.497 61.6834C132.505 61.354 133.573 61.9056 133.901 62.9168C134.23 63.9203 133.68 65.0005 132.672 65.3299C132.482 65.3912 132.283 65.4219 132.085 65.4219C131.283 65.4219 130.535 64.9086 130.268 64.0965ZM66.8625 65.3069C65.8626 64.9775 65.313 63.8974 65.6412 62.8862C65.9694 61.8826 67.0456 61.331 68.0455 61.6604C69.0454 61.9898 69.595 63.07 69.2668 64.0736C69.0073 64.8856 68.2592 65.3989 67.4578 65.3989C67.2594 65.3989 67.0609 65.3682 66.8625 65.3069ZM142.572 59.4695C142.129 58.5119 142.534 57.3704 143.488 56.9184C144.442 56.4665 145.58 56.8802 146.03 57.8377C146.473 58.7953 146.068 59.9368 145.114 60.3811C144.854 60.5113 144.572 60.565 144.305 60.565C143.587 60.565 142.9 60.1589 142.572 59.4695ZM54.4363 60.3581C53.4822 59.9061 53.0776 58.7647 53.528 57.8071C53.9783 56.8495 55.1156 56.4435 56.062 56.8955C57.0161 57.3475 57.4283 58.4812 56.978 59.4388C56.6498 60.136 55.9628 60.542 55.253 60.542C54.9782 60.542 54.7034 60.4807 54.4363 60.3581ZM154.197 53.3256C153.632 52.4293 153.899 51.2495 154.785 50.6826C155.678 50.1157 156.853 50.3762 157.418 51.2725C157.983 52.1611 157.723 53.3409 156.83 53.9154C156.517 54.1146 156.159 54.2142 155.807 54.2142C155.182 54.2142 154.563 53.9001 154.197 53.3256ZM42.7352 53.8848C41.8421 53.3179 41.5826 52.1305 42.1475 51.2419C42.7123 50.3456 43.8953 50.0851 44.7808 50.652C45.6738 51.2189 45.9333 52.4063 45.3685 53.2949C45.0021 53.8695 44.3839 54.1836 43.758 54.1836C43.4069 54.1836 43.0481 54.084 42.7352 53.8848ZM164.959 45.7644C164.287 44.9524 164.402 43.742 165.211 43.0679C166.028 42.3937 167.226 42.5086 167.898 43.3283C168.569 44.1404 168.455 45.3431 167.646 46.0172C167.287 46.316 166.86 46.4616 166.432 46.4616C165.883 46.4616 165.333 46.2241 164.959 45.7644ZM31.9272 45.9866C31.1181 45.3125 31.0036 44.1097 31.6753 43.29C32.3469 42.478 33.5529 42.3631 34.362 43.0372C35.1787 43.7114 35.2856 44.9218 34.6139 45.7338C34.2399 46.1934 33.6903 46.4309 33.1484 46.4309C32.7133 46.4309 32.2859 46.2854 31.9272 45.9866ZM174.699 36.924C173.928 36.1962 173.89 34.9858 174.615 34.2121C175.332 33.446 176.538 33.4077 177.309 34.1278C178.08 34.8556 178.118 36.066 177.393 36.8397C177.019 37.2381 176.508 37.4372 176.004 37.4372C175.538 37.4372 175.065 37.2687 174.699 36.924ZM22.1877 36.8014C21.4626 36.0353 21.5007 34.8249 22.2716 34.0972C23.0426 33.3694 24.2486 33.4077 24.966 34.1814C25.6912 34.9552 25.653 36.1656 24.8821 36.8933C24.5157 37.2381 24.0425 37.4066 23.5769 37.4066C23.0655 37.4066 22.5617 37.2074 22.1877 36.8014ZM183.255 26.9344C182.408 26.3062 182.217 25.1111 182.835 24.2531C183.461 23.3951 184.652 23.2113 185.507 23.8318C186.354 24.46 186.545 25.6551 185.926 26.5131C185.552 27.0263 184.965 27.2944 184.377 27.2944C183.988 27.2944 183.598 27.1795 183.255 26.9344ZM13.6619 26.4671H13.6542C13.036 25.6168 13.2268 24.414 14.0817 23.7935C14.9289 23.173 16.1273 23.3568 16.7455 24.2148C17.3638 25.0728 17.173 26.2679 16.3257 26.8884C15.9822 27.1412 15.5929 27.2561 15.2037 27.2561C14.6159 27.2561 14.0359 26.9804 13.6619 26.4671ZM190.506 15.9489C189.583 15.4357 189.247 14.2712 189.758 13.3443C190.269 12.4173 191.43 12.0803 192.353 12.5935C193.269 13.1068 193.613 14.2712 193.101 15.1982C192.75 15.8264 192.101 16.1864 191.43 16.1864C191.117 16.1864 190.796 16.1098 190.506 15.9489ZM6.47939 15.1446C5.97563 14.2176 6.31146 13.0532 7.23503 12.5399C8.1586 12.0343 9.31879 12.3714 9.82256 13.2983C10.334 14.2253 9.99813 15.3897 9.07456 15.8953C8.78451 16.0562 8.46393 16.1328 8.15861 16.1328C7.4793 16.1328 6.8305 15.7804 6.47939 15.1446ZM196.322 4.14376C195.345 3.75307 194.864 2.64226 195.254 1.65403C195.643 0.673457 196.757 0.190837 197.734 0.581533C198.711 0.97223 199.192 2.0907 198.803 3.07127C198.505 3.82202 197.788 4.28165 197.032 4.28165C196.796 4.28165 196.559 4.23569 196.322 4.14376ZM0.777714 3.00231C0.388441 2.01408 0.869279 0.903275 1.84628 0.512578C2.83091 0.121882 3.93766 0.604514 4.32694 1.58509C4.71621 2.57332 4.23537 3.68412 3.25837 4.07482C3.02176 4.16675 2.78515 4.21271 2.55617 4.21271C1.79289 4.21271 1.07539 3.75306 0.777714 3.00231Z" fill="#4D4D4D"/>
</svg>
