<svg width="44" height="41" viewBox="0 0 44 41" fill="none" xmlns="http://www.w3.org/2000/svg">
<path d="M12.0946 25.9723C12.4908 25.743 12.6264 25.2342 12.3979 24.8367C12.1691 24.4396 11.6622 24.3032 11.266 24.5324C10.8698 24.762 10.7339 25.2709 10.9627 25.668C11.1912 26.0655 11.6984 26.2019 12.0946 25.9723Z" fill="#FDA100"/>
<path d="M8.69808 31.7108L12.8712 38.9636C13.7717 40.5303 15.7975 41.1104 17.3995 40.1812C18.9846 39.262 19.5294 37.2299 18.6124 35.6381L16.1263 31.3171L18.2793 30.0699C18.6755 29.84 18.8114 29.3317 18.5826 28.9342L17.505 27.0614C17.6335 27.0364 18.4783 26.8701 33.3773 23.9377C35.2191 23.8373 36.3226 21.8161 35.3923 20.2003L32.6383 15.4143L34.3982 12.7397C34.5711 12.4766 34.5814 12.1385 34.4244 11.8657L32.7671 8.98547C32.6101 8.71265 32.312 8.55286 31.9996 8.57137L28.8115 8.76332L25.7541 3.44982C25.3113 2.68007 24.5179 2.214 23.6323 2.20296C23.6216 2.20264 23.6112 2.20264 23.6006 2.20264C22.7447 2.20264 21.9678 2.63006 21.5075 3.3527L10.6824 17.1892L3.6448 21.266C0.876844 22.8688 -0.0819544 26.4317 1.52165 29.2164C2.98672 31.7627 6.07546 32.7644 8.69808 31.7108ZM17.1774 36.4699C17.6351 37.2643 17.3642 38.2809 16.5701 38.7411C15.7735 39.2033 14.759 38.9194 14.3065 38.1324L10.1631 30.9309L13.0337 29.268C17.829 37.6027 17.1004 36.3364 17.1774 36.4699ZM15.2977 29.8767L14.469 28.4366L15.9043 27.6051L16.733 29.0452L15.2977 29.8767ZM31.5879 10.2619L32.7331 12.2522L31.7118 13.804L29.7379 10.3733L31.5879 10.2619ZM22.8936 4.26438C23.116 3.89932 23.4688 3.86164 23.6119 3.86554C23.7534 3.86717 24.1059 3.91134 24.3185 4.28094L33.957 21.0318C34.271 21.5771 33.8894 22.2627 33.2598 22.2783C33.1468 22.2809 33.0947 22.3014 32.8053 22.3556L22.6097 4.63691C22.8237 4.36084 22.8512 4.33421 22.8936 4.26438ZM21.5069 6.04648L31.0861 22.694L16.629 25.5392L12.2332 17.8999L21.5069 6.04648ZM2.95694 28.3849C2.5931 27.7532 2.40082 27.0361 2.40082 26.3105C2.40082 24.8276 3.19518 23.4466 4.47347 22.7061L10.9323 18.9645L15.0756 26.165L8.61683 29.9069C6.63805 31.0527 4.09928 30.37 2.95694 28.3849Z" fill="#FDA100"/>
<path d="M9.5269 26.4991C9.29804 26.1016 8.79113 25.9651 8.39492 26.1948L6.95964 27.0263C6.56408 27.2556 6.0562 27.1189 5.82767 26.7219C5.59882 26.3244 5.0919 26.188 4.6957 26.4176C4.29949 26.6472 4.16354 27.1559 4.39239 27.5534C5.07442 28.739 6.59581 29.157 7.78831 28.4665L9.22359 27.635C9.6198 27.4053 9.75575 26.897 9.5269 26.4991Z" fill="#FDA100"/>
<path d="M41.9399 3.98129L37.3224 6.5594C36.9226 6.78285 36.7785 7.28918 37.0013 7.69029C37.2233 8.09107 37.7276 8.23624 38.1284 8.01247L42.7456 5.43436C43.1457 5.21091 43.2894 4.70457 43.0667 4.30347C42.8444 3.90204 42.3397 3.75784 41.9399 3.98129Z" fill="#FDA100"/>
<path d="M41.4562 12.5923L38.2545 11.7314C37.8123 11.6125 37.3578 11.8757 37.2394 12.3194C37.1209 12.7632 37.3834 13.2189 37.8256 13.3378L41.0276 14.1987C41.4724 14.3185 41.9246 14.0512 42.0424 13.6107C42.1609 13.1669 41.8984 12.7109 41.4562 12.5923Z" fill="#FDA100"/>
<path d="M33.4107 0.960194L32.5519 4.1731C32.4334 4.61678 32.6956 5.07247 33.1378 5.19167C33.5797 5.31023 34.0341 5.04779 34.1529 4.60379L35.0114 1.39088C35.1299 0.947202 34.8677 0.491184 34.4255 0.372308C33.9836 0.253431 33.5292 0.516518 33.4107 0.960194Z" fill="#FDA100"/>
</svg>
