<svg width="107" height="109" viewBox="0 0 107 109" fill="none" xmlns="http://www.w3.org/2000/svg">
<g style="mix-blend-mode:multiply" opacity="0.35">
<g style="mix-blend-mode:multiply" opacity="0.35">
<path d="M27.5493 2.15709C28.7621 1.65658 29.7747 2.39417 31.6787 1.49853C32.3336 1.19559 32.4367 1.00461 32.94 0.925578C33.5815 0.864056 34.2263 0.993376 34.8053 1.29967C35.3843 1.60596 35.8756 2.07767 36.2265 2.66419C37.3301 4.73208 35.7111 8.55176 33.1219 9.8623C30.0051 11.4363 25.5119 9.34862 25.1056 6.56948C25.0533 5.65171 25.259 4.73834 25.6954 3.95037C26.1318 3.1624 26.7783 2.53703 27.5493 2.15709Z" fill="#FDA100"/>
</g>
</g>
<path d="M56.4194 35.8159C57.4676 35.8159 58.3174 34.8931 58.3174 33.7546C58.3174 32.6162 57.4676 31.6934 56.4194 31.6934C55.3712 31.6934 54.5215 32.6162 54.5215 33.7546C54.5215 34.8931 55.3712 35.8159 56.4194 35.8159Z" fill="#F4D59D"/>
<path d="M72.7241 38.7598H64.617H56.5098V52.6357H64.617H72.7241L66.715 45.701L72.7241 38.7598Z" fill="#FDA100"/>
<path d="M47.9727 107.442L60.1062 94.2638L63.7019 98.1691L73.7313 87.283L76.3266 84.4644L83.8881 92.6766L87.2352 96.3185L97.4769 107.442H47.9727Z" fill="white"/>
<path d="M47.9731 107.442L60.1066 94.2641L63.7024 98.1693L73.7318 87.2833L73.1315 87.9353L56.5654 69.9434L52.3329 74.5467L35.9669 92.3213L30.0912 85.9398L10.2871 107.455L47.9731 107.442Z" fill="#F4D59D"/>
<path d="M91.1041 108.443H8.0918L30.091 84.5437L35.9667 90.9252L51.6899 73.8486L52.9754 75.2448L35.9667 93.7175L30.091 87.336L12.4819 106.467H91.1041V108.443Z" fill="#323232"/>
<path d="M72.488 88.6331L56.5647 71.3392L52.975 75.2445L51.6895 73.8483L56.5647 68.5469L73.7735 87.2369L72.488 88.6331Z" fill="#323232"/>
<path d="M99.6717 108.43H45.7773L60.1059 92.8677L63.7017 96.773L73.0883 86.585L74.3739 87.9811L63.7017 99.5719L60.1059 95.66L50.1735 106.454H95.2816L83.2451 93.3814L84.5306 91.9786L99.6717 108.43Z" fill="#323232"/>
<path d="M83.2446 93.3812L76.3259 85.8604L74.3734 87.981L73.0879 86.5848L76.3259 83.0681L84.5301 91.9785L83.2446 93.3812Z" fill="#323232"/>
<path d="M102.46 106.599H4.125V108.574H102.46V106.599Z" fill="#323232"/>
<path d="M106.142 106.599H104.316V108.574H106.142V106.599Z" fill="#323232"/>
<path d="M2.45801 106.599H0.632812V108.574H2.45801V106.599Z" fill="#323232"/>
<path d="M57.3289 35.6843H55.5098V71.1349H57.3289V35.6843Z" fill="#323232"/>
<path d="M74.8153 53.6237H55.6055V37.772H74.8153L67.9512 45.6748L74.8153 53.6237ZM57.4064 51.648H70.6071L65.4529 45.7209L70.6071 39.7938H57.4246L57.4064 51.648Z" fill="#323232"/>
<path d="M56.4188 36.824C55.8636 36.824 55.3208 36.6451 54.8591 36.3101C54.3974 35.975 54.0375 35.4988 53.825 34.9416C53.6125 34.3845 53.5569 33.7714 53.6653 33.1799C53.7736 32.5884 54.041 32.0451 54.4336 31.6187C54.8263 31.1922 55.3265 30.9018 55.8711 30.7842C56.4157 30.6665 56.9802 30.7269 57.4932 30.9577C58.0062 31.1885 58.4447 31.5793 58.7532 32.0807C59.0617 32.5822 59.2263 33.1717 59.2263 33.7748C59.2271 34.1754 59.1551 34.5723 59.0143 34.9427C58.8734 35.313 58.6667 35.6495 58.4058 35.9328C58.145 36.2161 57.8351 36.4407 57.4942 36.5936C57.1532 36.7466 56.7877 36.8248 56.4188 36.824ZM56.4188 32.7079C56.2231 32.7079 56.0318 32.771 55.8691 32.8893C55.7064 33.0075 55.5797 33.1756 55.5051 33.3721C55.4305 33.5686 55.4113 33.7848 55.4499 33.9932C55.4885 34.2016 55.5833 34.3929 55.7221 34.5428C55.8609 34.6926 56.0376 34.7943 56.2298 34.835C56.4219 34.8757 56.6208 34.8535 56.8013 34.7712C56.9818 34.689 57.1357 34.5504 57.2436 34.373C57.3515 34.1956 57.4084 33.9874 57.4072 33.7748C57.4096 33.6322 57.3859 33.4904 57.3373 33.3579C57.2887 33.2254 57.2163 33.1047 57.1242 33.0029C57.0322 32.9011 56.9224 32.8203 56.8013 32.7651C56.6802 32.7099 56.5502 32.6815 56.4188 32.6815V32.7079Z" fill="#323232"/>
</svg>
