<svg width="355" height="125" viewBox="0 0 355 125" fill="none" xmlns="http://www.w3.org/2000/svg">
<path d="M2.43952 124.714C0.680272 124.016 -0.178857 122.031 0.516658 120.265C1.21217 118.513 3.18962 117.651 4.94886 118.349C6.69447 119.047 7.55359 121.032 6.85807 122.784C6.32621 124.125 5.04435 124.947 3.69423 124.947C3.27147 124.947 2.84864 124.878 2.43952 124.714ZM348.002 122.674H347.988C347.292 120.909 348.152 118.924 349.897 118.226C351.656 117.528 353.634 118.39 354.329 120.142C355.025 121.894 354.166 123.893 352.42 124.577C352.011 124.755 351.575 124.823 351.165 124.823C349.802 124.823 348.52 124.002 348.002 122.674ZM12.054 103.225C10.4038 102.307 9.80379 100.227 10.7039 98.5708C11.6176 96.9146 13.6905 96.3124 15.3407 97.2294C16.9908 98.1328 17.5908 100.213 16.6771 101.869C16.0634 103.006 14.8906 103.649 13.6905 103.649C13.1314 103.649 12.5722 103.512 12.054 103.225ZM338.169 101.787C337.255 100.131 337.855 98.0507 339.505 97.1336C341.156 96.2165 343.228 96.8188 344.142 98.475C345.042 100.131 344.442 102.212 342.806 103.129C342.274 103.416 341.715 103.553 341.155 103.553C339.955 103.553 338.796 102.91 338.169 101.787ZM24.2733 83.1176C22.7595 82.0089 22.4186 79.86 23.5369 78.3407C23.5369 78.3407 23.5368 78.3407 23.5232 78.3407C24.6415 76.8077 26.7689 76.4655 28.2964 77.5742C29.8101 78.6966 30.151 80.8318 29.0464 82.3648C28.3782 83.2819 27.3417 83.7746 26.2916 83.7746C25.5824 83.7746 24.8869 83.5556 24.2733 83.1176ZM325.8 82.2964C324.695 80.7634 325.036 78.6281 326.55 77.5058C328.077 76.3971 330.205 76.7393 331.323 78.2586C332.427 79.7916 332.087 81.9268 330.573 83.0492C329.959 83.4872 329.264 83.6925 328.568 83.6925C327.518 83.6925 326.468 83.2134 325.8 82.2964ZM38.92 64.708C37.5426 63.4077 37.4744 61.2451 38.77 59.8626C40.0519 58.4939 42.2203 58.4255 43.5841 59.7121C44.9615 61.0124 45.0296 63.175 43.7341 64.5574C43.0658 65.2692 42.1657 65.6387 41.252 65.6387C40.4201 65.6387 39.5746 65.3239 38.92 64.708ZM311.112 64.5027C309.816 63.1203 309.885 60.9576 311.262 59.6573C312.626 58.3707 314.78 58.4255 316.076 59.8079C317.372 61.1903 317.303 63.3529 315.926 64.6532C315.271 65.2692 314.426 65.5703 313.594 65.5703C312.68 65.5703 311.78 65.2144 311.112 64.5027ZM55.7215 48.2694C54.5213 46.8185 54.7259 44.6559 56.1715 43.4514C56.1715 43.4514 56.1715 43.4514 56.1715 43.4651C57.6171 42.2469 59.7719 42.4522 60.972 43.903C62.1721 45.3676 61.9675 47.5165 60.5219 48.721V48.7347C59.8809 49.2549 59.1172 49.5149 58.3535 49.5149C57.3716 49.5149 56.4033 49.0906 55.7215 48.2694ZM294.31 48.68C292.865 47.4618 292.66 45.3129 293.86 43.862C295.061 42.3974 297.215 42.1921 298.661 43.4103C298.661 43.4103 298.661 43.4103 298.661 43.3966C300.106 44.6011 300.311 46.7637 299.111 48.2146C298.443 49.0359 297.461 49.4602 296.479 49.4602C295.715 49.4602 294.951 49.2001 294.31 48.68ZM74.4322 34.0755C73.423 32.4877 73.8867 30.3662 75.4823 29.3533C77.0642 28.3404 79.1781 28.8058 80.1872 30.4072C81.1964 31.995 80.7327 34.1165 79.1371 35.1294C78.578 35.4853 77.9371 35.6632 77.3097 35.6632C76.1914 35.6632 75.0868 35.102 74.4322 34.0755ZM275.682 35.0746C274.086 34.0618 273.622 31.9539 274.632 30.3525C275.641 28.7647 277.755 28.2857 279.336 29.2985C280.932 30.3114 281.396 32.433 280.387 34.0207C279.746 35.0473 278.641 35.6085 277.509 35.6085C276.882 35.6085 276.254 35.4442 275.682 35.0746ZM94.7658 22.3453C93.9612 20.6344 94.684 18.5949 96.3886 17.7874C98.0933 16.9798 100.125 17.7189 100.93 19.4162C101.735 21.1271 100.998 23.1665 99.2935 23.9741C98.8298 24.1931 98.3388 24.3026 97.8479 24.3026C96.5659 24.3026 95.3386 23.5772 94.7658 22.3453ZM255.498 23.933C253.793 23.1255 253.071 21.0861 253.862 19.3751C254.666 17.6642 256.698 16.9388 258.403 17.7326C260.107 18.5402 260.844 20.5796 260.039 22.2906C259.453 23.5224 258.225 24.2616 256.944 24.2616C256.466 24.2616 255.962 24.152 255.498 23.933ZM116.409 13.2568C115.822 11.4638 116.804 9.53384 118.604 8.94527C120.391 8.3704 122.314 9.34221 122.9 11.149C123.473 12.942 122.491 14.8719 120.704 15.4605C120.363 15.57 120.009 15.6248 119.654 15.6248C118.209 15.6248 116.872 14.7077 116.409 13.2568ZM234.073 15.4194C232.287 14.8309 231.305 12.901 231.878 11.1079C232.464 9.31484 234.387 8.32934 236.174 8.90421C237.974 9.49278 238.956 11.4227 238.369 13.2158C237.906 14.6666 236.569 15.5837 235.123 15.5837C234.783 15.5837 234.428 15.5289 234.073 15.4194ZM139.02 7.00166C138.679 5.14016 139.892 3.34711 141.734 2.99123C143.588 2.64904 145.375 3.86723 145.729 5.71503C146.07 7.57653 144.857 9.36959 143.015 9.72546C142.797 9.76652 142.579 9.78021 142.375 9.78021C140.765 9.78021 139.333 8.64415 139.02 7.00166ZM211.749 9.69808C209.894 9.34221 208.68 7.54916 209.035 5.70135C209.376 3.83985 211.162 2.62167 213.017 2.96386C214.872 3.31973 216.085 5.11278 215.731 6.96059C215.417 8.60309 213.999 9.75284 212.39 9.75284C212.171 9.75284 211.967 9.73915 211.749 9.69808ZM162.244 3.63454C162.135 1.75936 163.554 0.130551 165.436 0.00736364C167.318 -0.102136 168.94 1.32136 169.05 3.21023C169.172 5.0991 167.74 6.7279 165.858 6.8374C165.79 6.85109 165.722 6.85109 165.64 6.85109C163.854 6.85109 162.353 5.45497 162.244 3.63454ZM188.892 6.8374C187.024 6.71422 185.592 5.0991 185.701 3.21023C185.824 1.32136 187.433 -0.115824 189.315 0.00736364C191.197 0.116863 192.629 1.74567 192.506 3.63454C192.397 5.44128 190.897 6.8374 189.11 6.8374C189.042 6.8374 188.974 6.8374 188.892 6.8374Z" fill="#4D4D4D"/>
</svg>
