<svg width="56" height="48" viewBox="0 0 56 48" fill="none" xmlns="http://www.w3.org/2000/svg">
<path d="M29.7153 16.6631L25.8405 13.58V8.1575C25.8405 7.64771 25.4274 7.23438 24.9179 7.23438H22.1503C21.6409 7.23438 21.2278 7.64771 21.2278 8.1575V9.91135L18.6855 7.88976C18.0143 7.35382 17.0611 7.35382 16.3899 7.88976L5.39979 16.6329C4.64438 17.1665 4.23401 18.0653 4.32501 18.9862C4.41645 19.9075 4.99528 20.708 5.84078 21.0831C6.68628 21.4585 7.66782 21.3494 8.41107 20.7986L10.1575 19.4843V28.4663C10.1575 29.4858 10.9836 30.3125 12.0025 30.3125H23.0729C24.0918 30.3125 24.9179 29.4858 24.9179 28.4663V19.4852L26.6706 20.8045C27.8139 21.6456 29.4225 21.3999 30.263 20.2559C31.1036 19.1119 30.8585 17.5023 29.7153 16.6612V16.6631ZM23.0729 9.08063H23.9954V12.1132L23.0729 11.3745V9.08063ZM15.6926 28.4663V24.7738H19.3828V28.4663H15.6926ZM23.0729 28.4663H21.2278V23.8506C21.2278 23.3408 20.8147 22.9275 20.3053 22.9275H14.7701C14.2607 22.9275 13.8476 23.3408 13.8476 23.8506V28.4663H12.0025V18.096L17.5377 13.9279L23.0729 18.096V28.4663ZM28.7927 19.1354C28.6842 19.2963 28.5157 19.4072 28.3252 19.4432C28.1346 19.4793 27.9373 19.4378 27.7779 19.3274L18.0913 12.0348C17.7634 11.7882 17.312 11.7882 16.9841 12.0348L7.31061 19.317C7.1507 19.4338 6.95025 19.4802 6.75565 19.445C6.5606 19.4103 6.38853 19.2977 6.27907 19.1327C6.17186 18.9668 6.13538 18.7649 6.17817 18.572C6.22096 18.379 6.33898 18.2114 6.5061 18.1059L17.5377 9.3362L28.608 18.1392C28.9301 18.3655 29.0121 18.8086 28.7927 19.1354Z" fill="#FDA100"/>
<path d="M14.6626 18.342C14.6626 19.8555 15.8855 21.0825 17.3939 21.0825C18.9022 21.0825 20.1251 19.8555 20.1251 18.342C20.1251 16.8286 18.9022 15.6016 17.3939 15.6016C15.8855 15.6016 14.6626 16.8286 14.6626 18.342ZM18.3043 18.342C18.3043 18.8465 17.8966 19.2555 17.3939 19.2555C16.8911 19.2555 16.4834 18.8465 16.4834 18.342C16.4834 17.8376 16.8911 17.4285 17.3939 17.4285C17.8966 17.4285 18.3043 17.8376 18.3043 18.342Z" fill="#FDA100"/>
<path d="M50.6002 0.888672H4.60002C2.06057 0.891827 0.00314455 2.95617 0 5.50415V33.197C0.00314455 35.745 2.06057 37.8093 4.60002 37.8125H35.8801V39.6587H34.9601C34.4521 39.6587 34.0401 40.072 34.0401 40.5818V46.1204C34.0401 46.6301 34.4521 47.0435 34.9601 47.0435H51.5202C52.0282 47.0435 52.4402 46.6301 52.4402 46.1204V40.5818C52.4402 40.072 52.0282 39.6587 51.5202 39.6587H50.6002V37.8125C53.1396 37.8093 55.197 35.745 55.2002 33.197V5.50415C55.197 2.95617 53.1396 0.891827 50.6002 0.888672ZM50.6002 45.1973H35.8801V41.5049H50.6002V45.1973ZM37.7201 39.6587V34.1201C37.7215 33.9772 37.69 33.8362 37.628 33.7077L34.9601 28.3638V21.1968C34.9601 20.687 35.3721 20.2737 35.8801 20.2737C36.3882 20.2737 36.8001 20.687 36.8001 21.1968V26.7354H38.6401V21.1968C38.6379 20.4134 38.3032 19.6684 37.7201 19.1473V13.812C37.7201 13.3022 38.1321 12.8889 38.6401 12.8889C38.8886 12.8885 39.1257 12.9908 39.296 13.1724C39.4672 13.3405 39.5624 13.5718 39.5601 13.812V23.9661H41.4001V18.4275C41.4001 17.9177 41.8121 17.5044 42.3201 17.5044C42.8282 17.5044 43.2402 17.9177 43.2402 18.4275V24.8892H45.0802V19.3506C45.0802 18.8408 45.4921 18.4275 46.0002 18.4275C46.5082 18.4275 46.9202 18.8408 46.9202 19.3506V24.8892H48.7602V21.1968C48.7602 20.687 49.1721 20.2737 49.6802 20.2737C50.1882 20.2737 50.6002 20.687 50.6002 21.1968V30.2781L48.8078 35.6747C48.7763 35.7684 48.7606 35.8671 48.7602 35.9663V39.6587H37.7201ZM41.3763 13.5682C41.3296 12.9254 41.0529 12.321 40.5969 11.8671C40.0839 11.3362 39.3773 11.0382 38.6401 11.0427C37.1159 11.0427 35.8801 12.2827 35.8801 13.812H34.9601C33.944 13.812 33.1201 12.9854 33.1201 11.9658C33.1201 10.9463 33.944 10.1196 34.9601 10.1196H40.4801C41.322 10.1079 42.0627 10.6745 42.2752 11.4917C42.4877 12.3088 42.1167 13.1661 41.3763 13.5682ZM53.3602 33.197C53.3575 34.7043 52.1536 35.9325 50.6518 35.9609L52.3926 30.7194C52.424 30.6256 52.4397 30.5269 52.4402 30.4277V21.1968C52.4433 20.2764 51.9892 19.4155 51.2291 18.9003C50.469 18.3851 49.5032 18.2842 48.6533 18.6308C48.4403 17.8023 47.8527 17.1217 47.0662 16.7918C46.2796 16.4619 45.3843 16.5205 44.6467 16.9504C43.9706 15.8466 42.6108 15.3765 41.4001 15.8281V15.527C43.0263 15.1173 44.1651 13.6484 44.1602 11.9658C44.1602 9.92672 42.5124 8.27344 40.4801 8.27344H34.9601C32.9279 8.27344 31.2801 9.92672 31.2801 11.9658C31.2801 14.0049 32.9279 15.6582 34.9601 15.6582H35.8801V18.4275C34.3559 18.4275 33.1201 19.6674 33.1201 21.1968V28.5815C33.1188 28.7244 33.1502 28.8655 33.2122 28.994L35.8801 34.3378V35.9663H4.60002C3.07581 35.9663 1.84001 34.7263 1.84001 33.197V5.50415C1.84001 3.97482 3.07581 2.73486 4.60002 2.73486H47.8402V15.6582H49.6802V2.73486H50.6002C52.1244 2.73486 53.3602 3.97482 53.3602 5.50415V33.197Z" fill="#FDA100"/>
</svg>
