<svg width="35" height="26" viewBox="0 0 35 26" fill="none" xmlns="http://www.w3.org/2000/svg">
<path d="M0.689453 12.8602C0.689453 9.73456 1.02529 7.32144 1.68935 5.62075C2.36104 3.9124 3.29984 2.6254 4.52109 1.74441C5.74234 0.863422 7.10101 0.426758 8.61231 0.426758C10.1389 0.426758 11.528 0.871067 12.7646 1.75205C14.0011 2.6407 14.9857 3.96602 15.7108 5.73566C16.4359 7.50529 16.7947 9.88012 16.7947 12.8678C16.7947 15.8402 16.4359 18.2074 15.7261 19.9693C15.0162 21.7313 14.0316 23.0566 12.7798 23.9529C11.528 24.8492 10.1389 25.2936 8.61231 25.2936C7.10865 25.2936 5.74999 24.8569 4.53637 23.9912C3.33039 23.1256 2.3839 21.8233 1.70458 20.1072C1.0329 18.3759 0.689453 15.9628 0.689453 12.8602ZM2.91822 12.8985C2.91822 15.5721 3.15484 17.5945 3.63571 18.9658C4.10894 20.3371 4.81117 21.3713 5.74237 22.0837C6.67357 22.7962 7.6582 23.1486 8.69626 23.1486C9.74195 23.1486 10.7189 22.8038 11.6349 22.1067C12.5432 21.4172 13.2301 20.3754 13.7034 18.9888C14.2911 17.3034 14.5888 15.2733 14.5888 12.8985C14.5888 10.516 14.3293 8.56247 13.8026 7.04564C13.2759 5.52881 12.5508 4.418 11.6272 3.71321C10.7037 3.00842 9.7267 2.65604 8.7039 2.65604C7.65821 2.65604 6.67358 3.00842 5.75001 3.71321C4.82644 4.418 4.13185 5.4522 3.65099 6.82347C3.16249 8.18709 2.91822 10.2172 2.91822 12.8985Z" fill="#4C4C4C"/>
<path d="M22.1987 6.50159H19.7944C20.2294 4.54809 21.069 3.04658 22.3132 1.99706C23.5497 0.947536 25.0152 0.418945 26.7097 0.418945C27.9386 0.418945 29.0835 0.702398 30.1521 1.26163C31.2131 1.82853 32.0374 2.58694 32.6251 3.53688C33.2052 4.49447 33.5029 5.49037 33.5029 6.53224C33.5029 8.57 32.4954 10.1864 30.4727 11.3738C31.6023 11.8335 32.5335 12.5076 33.2663 13.4039C34.2891 14.6603 34.8081 16.0622 34.8081 17.6173C34.8081 18.958 34.457 20.2373 33.7472 21.4554C33.045 22.6734 32.0832 23.6157 30.8619 24.2822C29.6407 24.9487 28.2821 25.2781 26.7708 25.2781C24.7404 25.2781 23.046 24.6882 21.6873 23.5161C20.3287 22.344 19.4432 20.6127 19.0234 18.3375H21.3362C21.7407 19.8696 22.3285 20.9804 23.0841 21.6699C24.0535 22.5355 25.2976 22.9722 26.8013 22.9722C28.511 22.9722 29.885 22.4589 30.923 21.4247C31.9611 20.3982 32.4801 19.1878 32.4801 17.8012C32.4801 16.8819 32.2206 16.0162 31.7016 15.2119C31.1826 14.4075 30.4879 13.8023 29.6178 13.3963C28.7477 12.9902 27.3966 12.7374 25.5648 12.6379V10.4622C26.641 10.4622 27.6256 10.2707 28.5187 9.88763C29.4041 9.50459 30.0529 9.02197 30.4498 8.43209C30.8543 7.84221 31.0528 7.19871 31.0528 6.50159C31.0528 5.47505 30.6406 4.57874 29.8239 3.82799C29.0072 3.07724 27.9691 2.70186 26.7173 2.70186C25.7022 2.70186 24.8244 2.9853 24.084 3.55986C23.336 4.1574 22.7101 5.13031 22.1987 6.50159Z" fill="#4C4C4C"/>
</svg>
