<svg width="216" height="234" viewBox="0 0 216 234" fill="none" xmlns="http://www.w3.org/2000/svg">
<path d="M215.598 13.7846V220.903C215.598 225.871 212.292 230.162 207.459 232.243C205.379 233.148 203.107 233.612 200.808 233.603H130.182C130.162 233.63 130.133 233.65 130.1 233.661L129.692 233.603H15.3873C7.22166 233.603 0.59777 227.927 0.59777 220.903V13.7846C0.594674 13.1308 0.655018 12.478 0.778086 11.8342C0.988643 10.6446 1.38554 9.49004 1.9562 8.40691C2.38996 7.60537 2.90523 6.84401 3.49498 6.13321C3.69334 5.89358 3.9007 5.6651 4.12611 5.43661C4.42666 5.09659 4.7596 4.78232 5.12089 4.4976C5.28919 4.3555 5.46952 4.19947 5.65285 4.05458C6.20761 3.62682 6.7919 3.23309 7.402 2.87592C8.44046 2.27565 9.54967 1.78764 10.7079 1.42143C12.4178 0.885871 14.2106 0.612918 16.0155 0.613375H200.147C202.278 0.606439 204.391 0.985029 206.365 1.72793C206.633 1.8366 206.9 1.94249 207.165 2.06509C208.354 2.57885 209.465 3.23457 210.471 4.01556C210.666 4.1716 210.862 4.32764 211.045 4.48367C211.43 4.79196 211.786 5.13036 212.109 5.49513C212.319 5.72362 212.529 5.95211 212.71 6.18059C213.091 6.64128 213.442 7.12229 213.762 7.62115C214.068 8.1278 214.344 8.64964 214.588 9.18431C214.949 9.99744 215.212 10.845 215.373 11.7116C215.415 11.9401 215.457 12.1797 215.484 12.4193C215.55 12.872 215.588 13.3279 215.598 13.7846Z" fill="#EBEBEB"/>
<g style="mix-blend-mode:multiply">
<path d="M172.658 124.017L149.606 132.421C149.245 132.558 148.841 132.563 148.476 132.436C148.11 132.309 147.81 132.059 147.635 131.736L146.502 129.445C146.427 129.286 146.389 129.115 146.389 128.942C146.389 128.769 146.427 128.597 146.502 128.439C146.577 128.28 146.686 128.137 146.823 128.019C146.96 127.901 147.122 127.811 147.298 127.754L170.358 119.35C170.719 119.213 171.122 119.208 171.487 119.334C171.852 119.461 172.152 119.71 172.327 120.033L173.46 122.323C173.535 122.482 173.574 122.654 173.574 122.828C173.574 123.002 173.535 123.174 173.46 123.333C173.384 123.493 173.274 123.636 173.136 123.753C172.998 123.871 172.835 123.961 172.658 124.017Z" fill="#EAEFF7"/>
</g>
<g style="mix-blend-mode:multiply">
<path d="M183.979 128.261L160.922 136.665C160.561 136.802 160.157 136.808 159.792 136.682C159.426 136.555 159.125 136.305 158.95 135.982L157.817 133.691C157.742 133.533 157.703 133.361 157.703 133.187C157.703 133.014 157.741 132.842 157.816 132.683C157.891 132.524 158 132.381 158.138 132.263C158.275 132.145 158.437 132.055 158.614 131.997L181.671 123.594C182.032 123.458 182.436 123.453 182.801 123.58C183.166 123.707 183.467 123.956 183.642 124.279L184.776 126.569C184.851 126.728 184.889 126.9 184.889 127.073C184.89 127.246 184.851 127.418 184.776 127.577C184.701 127.735 184.592 127.878 184.455 127.996C184.318 128.114 184.156 128.204 183.979 128.261Z" fill="#EAEFF7"/>
</g>
<g style="mix-blend-mode:multiply">
<path d="M195.213 132.803L172.146 141.206C171.785 141.343 171.382 141.349 171.017 141.223C170.651 141.096 170.351 140.846 170.175 140.524L169.042 138.233C168.967 138.074 168.928 137.903 168.928 137.729C168.928 137.556 168.966 137.384 169.041 137.225C169.116 137.066 169.225 136.923 169.362 136.805C169.499 136.687 169.662 136.596 169.838 136.539L192.896 128.135C193.257 127.999 193.661 127.993 194.026 128.12C194.392 128.247 194.692 128.498 194.867 128.821L196 131.111C196.075 131.269 196.115 131.44 196.115 131.613C196.116 131.786 196.078 131.957 196.004 132.116C195.93 132.275 195.822 132.418 195.686 132.536C195.55 132.654 195.389 132.745 195.213 132.803Z" fill="#EAEFF7"/>
</g>
<g style="mix-blend-mode:multiply">
<path d="M33.8233 22.3332L9.0919 25.7438C8.71111 25.8053 8.31937 25.7285 7.9981 25.5293C7.67682 25.33 7.45071 25.0236 7.36678 24.6738L6.90998 22.2162C6.88393 22.0429 6.89567 21.8665 6.94454 21.6975C6.9934 21.5285 7.07837 21.3703 7.19441 21.2323C7.31045 21.0943 7.4552 20.9794 7.62007 20.8942C7.78494 20.8091 7.96659 20.7555 8.15422 20.7366L32.8887 17.3289C33.269 17.2681 33.66 17.3453 33.9806 17.5445C34.3012 17.7437 34.5268 18.0496 34.6108 18.3988L35.0706 20.8564C35.0962 21.0297 35.084 21.206 35.0348 21.3749C34.9855 21.5437 34.9002 21.7017 34.7839 21.8394C34.6676 21.9771 34.5226 22.0918 34.3576 22.1766C34.1926 22.2614 34.011 22.3147 33.8233 22.3332Z" fill="#EAEFF7"/>
</g>
<g style="mix-blend-mode:multiply">
<path d="M37.4372 13.0989L12.7028 16.5094C12.3224 16.5703 11.9315 16.493 11.6109 16.2938C11.2903 16.0946 11.0646 15.7887 10.9807 15.4395L10.5209 12.9818C10.4952 12.8084 10.5074 12.6319 10.5566 12.4629C10.6059 12.2939 10.6911 12.1357 10.8074 11.9978C10.9237 11.8599 11.0686 11.7449 11.2336 11.6598C11.3986 11.5747 11.5804 11.5211 11.7681 11.5023L36.4995 8.09449C36.8798 8.03368 37.2708 8.11088 37.5914 8.31008C37.912 8.50928 38.1377 8.8152 38.2216 9.16446L38.6814 11.6221C38.7075 11.7952 38.6957 11.9715 38.6468 12.1403C38.5979 12.3091 38.5129 12.4671 38.3968 12.6049C38.2808 12.7427 38.136 12.8574 37.9711 12.9422C37.8063 13.0271 37.6247 13.0804 37.4372 13.0989Z" fill="#EAEFF7"/>
</g>
<g style="mix-blend-mode:multiply">
<path d="M120.553 190.163L103.248 188.77C103.086 188.763 102.926 188.726 102.78 188.662C102.633 188.598 102.502 188.507 102.393 188.394C102.285 188.282 102.202 188.151 102.149 188.009C102.096 187.867 102.074 187.716 102.085 187.566L102.385 184.718C102.432 184.416 102.605 184.142 102.867 183.956C103.128 183.769 103.458 183.685 103.786 183.721L121.094 185.1C121.256 185.107 121.414 185.144 121.561 185.209C121.707 185.273 121.838 185.364 121.946 185.476C122.054 185.588 122.137 185.719 122.19 185.861C122.243 186.004 122.264 186.154 122.254 186.304L121.953 189.151C121.91 189.457 121.739 189.734 121.476 189.923C121.214 190.112 120.883 190.199 120.553 190.163Z" fill="#EAEFF7"/>
</g>
<g style="mix-blend-mode:multiply">
<path d="M52.4319 186.975L36.0975 181.876C35.9435 181.834 35.8004 181.763 35.6771 181.668C35.5538 181.573 35.453 181.455 35.3809 181.322C35.3087 181.189 35.2668 181.044 35.2577 180.895C35.2487 180.746 35.2726 180.598 35.3281 180.458L36.4672 177.772C36.6007 177.488 36.8454 177.263 37.1517 177.14C37.458 177.017 37.803 177.007 38.1171 177.111L54.4485 182.211C54.6024 182.252 54.7455 182.323 54.8689 182.418C54.9922 182.513 55.0932 182.63 55.1656 182.763C55.238 182.896 55.2803 183.041 55.2898 183.189C55.2993 183.338 55.2758 183.486 55.2209 183.626L54.0818 186.315C53.9483 186.598 53.7036 186.824 53.3973 186.947C53.091 187.069 52.746 187.079 52.4319 186.975Z" fill="#EAEFF7"/>
</g>
<g style="mix-blend-mode:multiply">
<path d="M210.594 201.515L197.605 200.481C197.463 200.475 197.324 200.443 197.195 200.386C197.067 200.329 196.952 200.249 196.857 200.151C196.762 200.053 196.69 199.938 196.643 199.813C196.597 199.689 196.577 199.557 196.586 199.425L196.923 196.307C196.964 196.042 197.115 195.801 197.345 195.638C197.575 195.474 197.864 195.401 198.152 195.433L211.141 196.466C211.283 196.473 211.423 196.505 211.551 196.562C211.679 196.619 211.794 196.698 211.889 196.797C211.984 196.895 212.057 197.01 212.103 197.134C212.15 197.259 212.169 197.391 212.16 197.522L211.818 200.64C211.778 200.906 211.627 201.146 211.399 201.309C211.17 201.473 210.881 201.547 210.594 201.515Z" fill="#EAEFF7"/>
</g>
<g style="mix-blend-mode:multiply">
<path d="M128.814 122.415L116.793 126.792C116.522 126.895 116.219 126.899 115.945 126.804C115.671 126.709 115.446 126.522 115.314 126.28L113.89 123.396C113.834 123.276 113.805 123.147 113.805 123.017C113.805 122.887 113.834 122.758 113.89 122.638C113.947 122.519 114.029 122.412 114.133 122.324C114.236 122.235 114.358 122.168 114.491 122.125L126.512 117.748C126.783 117.645 127.086 117.641 127.36 117.736C127.634 117.831 127.859 118.018 127.991 118.26L129.419 121.147C129.475 121.266 129.503 121.395 129.503 121.526C129.503 121.656 129.473 121.785 129.417 121.904C129.36 122.023 129.277 122.13 129.173 122.218C129.07 122.306 128.947 122.373 128.814 122.415Z" fill="#EAEFF7"/>
</g>
<g style="mix-blend-mode:multiply">
<path d="M99.9226 133.217L94.8134 122.907C94.7573 122.788 94.7284 122.659 94.7285 122.529C94.7287 122.399 94.7579 122.271 94.8144 122.151C94.8709 122.032 94.9534 121.925 95.0566 121.837C95.1599 121.749 95.2818 121.682 95.4145 121.64L98.7746 120.414C99.0454 120.311 99.348 120.307 99.6221 120.402C99.8961 120.497 100.122 120.684 100.253 120.926L105.362 131.236C105.419 131.355 105.448 131.484 105.447 131.614C105.447 131.744 105.418 131.873 105.361 131.992C105.305 132.111 105.223 132.218 105.119 132.306C105.016 132.394 104.894 132.461 104.761 132.504L101.401 133.73C101.13 133.832 100.828 133.836 100.554 133.741C100.28 133.646 100.055 133.459 99.9226 133.217Z" fill="#EAEFF7"/>
</g>
<g style="mix-blend-mode:multiply">
<path d="M19.0458 142.323L11.5143 133.176C11.4293 133.073 11.3686 132.955 11.336 132.829C11.3035 132.703 11.2999 132.573 11.3254 132.445C11.3509 132.318 11.4049 132.197 11.4841 132.091C11.5632 131.984 11.6657 131.894 11.7847 131.827L14.7631 130.019C15.0093 129.869 15.3066 129.81 15.5972 129.853C15.8877 129.896 16.1507 130.037 16.3349 130.25L23.8694 139.395C23.9539 139.498 24.0143 139.616 24.0466 139.741C24.0788 139.867 24.0824 139.998 24.0569 140.125C24.0314 140.252 23.9775 140.372 23.8986 140.479C23.8197 140.586 23.7177 140.676 23.5989 140.743L20.6176 142.555C20.3702 142.7 20.074 142.757 19.7845 142.715C19.495 142.672 19.2323 142.533 19.0458 142.323Z" fill="#EAEFF7"/>
</g>
<g style="mix-blend-mode:multiply">
<path d="M107.366 47.221L96.0687 41.6204C95.9432 41.5635 95.832 41.4829 95.7422 41.3837C95.6524 41.2845 95.5859 41.169 95.5472 41.0446C95.5084 40.9202 95.4981 40.7897 95.517 40.6614C95.5359 40.5331 95.5836 40.4099 95.657 40.2997L97.4813 37.5857C97.6439 37.3586 97.8922 37.1961 98.1775 37.1301C98.4628 37.0642 98.7643 37.0995 99.023 37.2291L110.32 42.8297C110.446 42.8869 110.557 42.9678 110.647 43.0672C110.737 43.1667 110.803 43.2824 110.842 43.407C110.881 43.5316 110.891 43.6624 110.872 43.7909C110.853 43.9194 110.805 44.0428 110.732 44.1532L108.908 46.8671C108.744 47.0933 108.496 47.2548 108.211 47.3202C107.926 47.3857 107.624 47.3503 107.366 47.221Z" fill="#EAEFF7"/>
</g>
<g style="mix-blend-mode:multiply">
<path d="M91.1953 40.4505L79.895 34.8498C79.7695 34.7926 79.6582 34.7117 79.5684 34.6123C79.4785 34.5129 79.4121 34.3971 79.3733 34.2725C79.3345 34.1479 79.3243 34.0171 79.3432 33.8886C79.3622 33.7601 79.4099 33.6367 79.4833 33.5263L81.3076 30.8123C81.4711 30.5862 81.7197 30.4247 82.0047 30.3592C82.2898 30.2938 82.5909 30.3292 82.8493 30.4585L94.1466 36.0591C94.2725 36.116 94.3841 36.1967 94.4742 36.2961C94.5643 36.3955 94.6309 36.5113 94.6697 36.6361C94.7085 36.7608 94.7187 36.8917 94.6995 37.0203C94.6803 37.1489 94.6322 37.2724 94.5583 37.3827L92.7341 40.0966C92.5715 40.323 92.3235 40.4849 92.0388 40.5504C91.754 40.6159 91.4532 40.5802 91.1953 40.4505Z" fill="#EAEFF7"/>
</g>
<g style="mix-blend-mode:multiply">
<path d="M58.2767 18.4461L53.2937 8.09479C53.2385 7.97565 53.2103 7.84723 53.2109 7.71755C53.2116 7.58787 53.241 7.45971 53.2974 7.34104C53.3538 7.22237 53.4359 7.11572 53.5387 7.02776C53.6415 6.9398 53.7627 6.87241 53.8948 6.82977L57.2699 5.63164C57.5418 5.53164 57.8444 5.53031 58.1173 5.62791C58.3902 5.72552 58.6135 5.91488 58.7425 6.15827L63.7255 16.5096C63.7802 16.6288 63.8081 16.7571 63.8072 16.8867C63.8064 17.0163 63.7769 17.1443 63.7205 17.2628C63.6642 17.3814 63.5822 17.488 63.4797 17.576C63.3771 17.664 63.2562 17.7316 63.1244 17.7746L59.7433 18.97C59.4725 19.0692 59.1714 19.0704 58.8997 18.9734C58.628 18.8763 58.4056 18.6881 58.2767 18.4461Z" fill="#EAEFF7"/>
</g>
<g style="mix-blend-mode:multiply">
<path d="M74.4711 17.3535L69.4851 7.00216C69.4299 6.88302 69.4017 6.75462 69.4024 6.62494C69.403 6.49526 69.4324 6.3671 69.4888 6.24843C69.5452 6.12976 69.6273 6.02311 69.7301 5.93515C69.8329 5.84719 69.9541 5.7798 70.0862 5.73716L73.4583 4.54182C73.7297 4.44027 74.0325 4.43785 74.3058 4.53506C74.579 4.63226 74.8024 4.82186 74.9309 5.06566L79.9169 15.417C79.9721 15.5361 80.0003 15.6645 79.9996 15.7942C79.999 15.9239 79.9696 16.052 79.9132 16.1707C79.8568 16.2894 79.7746 16.396 79.6719 16.484C79.5691 16.5719 79.4479 16.6393 79.3158 16.682L75.9437 17.8773C75.6722 17.9782 75.3697 17.9803 75.0966 17.8831C74.8235 17.786 74.6001 17.5968 74.4711 17.3535Z" fill="#EAEFF7"/>
</g>
<g style="mix-blend-mode:multiply">
<path d="M9.87854 143.458L2.34098 134.313C2.25648 134.21 2.19614 134.092 2.16386 133.967C2.13157 133.841 2.12805 133.71 2.15353 133.583C2.17901 133.456 2.23294 133.335 2.31182 133.229C2.39069 133.122 2.49277 133.032 2.61148 132.964L5.59283 131.153C5.8402 131.008 6.13648 130.951 6.42594 130.993C6.71539 131.036 6.97809 131.175 7.16465 131.385L14.6962 140.532C14.7811 140.635 14.8419 140.753 14.8744 140.879C14.907 141.004 14.9106 141.135 14.8851 141.262C14.8596 141.39 14.8055 141.51 14.7264 141.617C14.6472 141.723 14.5448 141.813 14.4257 141.881L11.4473 143.689C11.2014 143.838 10.9048 143.896 10.6149 143.854C10.325 143.811 10.0626 143.67 9.87854 143.458Z" fill="#EAEFF7"/>
</g>
<g style="mix-blend-mode:multiply">
<path d="M28.7096 129.977L23.7958 120.035C23.7274 119.891 23.6919 119.736 23.6914 119.579C23.6909 119.422 23.7255 119.266 23.793 119.122C23.8605 118.979 23.9594 118.849 24.0835 118.742C24.2076 118.636 24.3542 118.554 24.5141 118.502L29.6894 116.63C30.0159 116.506 30.3808 116.5 30.7112 116.615C31.0416 116.73 31.3132 116.956 31.4716 117.248L36.3794 127.19C36.4468 127.334 36.4815 127.489 36.4813 127.646C36.4811 127.803 36.4461 127.958 36.3785 128.102C36.3108 128.246 36.2119 128.375 36.088 128.482C35.964 128.589 35.8177 128.671 35.6581 128.723L30.4948 130.603C30.1668 130.727 29.8006 130.731 29.4695 130.615C29.1385 130.498 28.867 130.27 28.7096 129.977Z" fill="#EAEFF7"/>
</g>
<g style="mix-blend-mode:multiply">
<path d="M48.0549 43.772L40.7908 34.9615C40.6885 34.8377 40.6154 34.6953 40.5761 34.5436C40.5369 34.392 40.5324 34.2343 40.563 34.081C40.5936 33.9276 40.6586 33.7819 40.7537 33.6532C40.8489 33.5246 40.9721 33.4159 41.1154 33.3342L45.6956 30.5478C45.9927 30.368 46.3513 30.2969 46.7018 30.3484C47.0522 30.3999 47.3695 30.5703 47.5921 30.8265L54.8561 39.6454C54.9584 39.7692 55.0315 39.9115 55.0708 40.0632C55.11 40.2149 55.1145 40.3725 55.0839 40.5259C55.0533 40.6792 54.9883 40.825 54.8932 40.9536C54.798 41.0822 54.6748 41.1909 54.5315 41.2726L49.9513 44.059C49.6532 44.2379 49.2939 44.3077 48.9434 44.2546C48.5928 44.2016 48.2762 44.0295 48.0549 43.772Z" fill="#EAEFF7"/>
</g>
<g style="mix-blend-mode:multiply">
<path d="M140.004 108.21L121.412 114.986C121.072 115.115 120.693 115.12 120.349 115C120.006 114.881 119.723 114.646 119.558 114.343L118.356 111.91C118.285 111.761 118.248 111.6 118.248 111.437C118.248 111.274 118.284 111.112 118.354 110.963C118.425 110.813 118.527 110.679 118.656 110.568C118.786 110.457 118.938 110.373 119.104 110.319L137.695 103.543C138.035 103.414 138.415 103.408 138.759 103.528C139.102 103.647 139.385 103.882 139.55 104.186L140.752 106.619C140.823 106.768 140.859 106.929 140.859 107.092C140.86 107.255 140.823 107.417 140.753 107.566C140.683 107.716 140.58 107.85 140.451 107.961C140.322 108.071 140.17 108.156 140.004 108.21Z" fill="#EAEFF7"/>
</g>
<g style="mix-blend-mode:multiply">
<path d="M77.0342 48.4282L60.5435 58.4397C60.235 58.6248 59.864 58.6987 59.5007 58.6473C59.1374 58.596 58.807 58.423 58.572 58.1611L56.7958 56.0044C56.6896 55.8753 56.6138 55.727 56.5732 55.5691C56.5326 55.4111 56.5282 55.2471 56.5602 55.0875C56.5922 54.9278 56.6599 54.7762 56.7589 54.6424C56.858 54.5085 56.9863 54.3954 57.1354 54.3103L73.626 44.2987C73.9345 44.1136 74.3055 44.0398 74.6688 44.0911C75.0321 44.1425 75.3625 44.3155 75.5976 44.5774L77.3738 46.734C77.4804 46.863 77.5566 47.0113 77.5975 47.1693C77.6383 47.3273 77.6429 47.4915 77.6108 47.6512C77.5788 47.811 77.5109 47.9627 77.4116 48.0965C77.3122 48.2304 77.1837 48.3434 77.0342 48.4282Z" fill="#EAEFF7"/>
</g>
<g style="mix-blend-mode:multiply">
<path d="M159.326 208.208L142.018 206.815C141.856 206.808 141.698 206.771 141.551 206.707C141.405 206.643 141.274 206.552 141.166 206.44C141.058 206.328 140.975 206.198 140.922 206.056C140.869 205.914 140.848 205.764 140.858 205.614L141.159 202.766C141.205 202.463 141.378 202.189 141.639 202.003C141.901 201.816 142.231 201.732 142.559 201.769L159.864 203.162C160.027 203.168 160.187 203.205 160.335 203.27C160.482 203.334 160.614 203.426 160.723 203.539C160.831 203.652 160.914 203.784 160.967 203.928C161.019 204.071 161.04 204.223 161.027 204.374L160.727 207.221C160.677 207.522 160.503 207.793 160.242 207.977C159.98 208.161 159.652 208.244 159.326 208.208Z" fill="#EAEFF7"/>
</g>
<g style="mix-blend-mode:multiply">
<path d="M160.778 200.579L143.473 199.185C143.311 199.179 143.153 199.142 143.006 199.078C142.86 199.013 142.729 198.923 142.621 198.811C142.513 198.699 142.43 198.568 142.377 198.426C142.324 198.285 142.303 198.134 142.313 197.984L142.614 195.134C142.661 194.831 142.834 194.558 143.095 194.371C143.357 194.185 143.687 194.101 144.014 194.136L161.319 195.53C161.481 195.536 161.64 195.572 161.787 195.637C161.934 195.701 162.065 195.791 162.173 195.903C162.282 196.015 162.365 196.146 162.418 196.288C162.471 196.43 162.493 196.581 162.482 196.731L162.182 199.578C162.137 199.883 161.964 200.158 161.702 200.346C161.439 200.533 161.107 200.617 160.778 200.579Z" fill="#EAEFF7"/>
</g>
<g style="mix-blend-mode:multiply">
<path d="M110.772 207.787L106.586 193.298C106.551 193.153 106.547 193.002 106.576 192.856C106.604 192.71 106.663 192.57 106.751 192.446C106.838 192.321 106.952 192.214 107.084 192.131C107.217 192.047 107.366 191.989 107.524 191.96L110.757 191.269C111.08 191.194 111.421 191.235 111.711 191.386C112.001 191.536 112.218 191.783 112.317 192.077L116.504 206.566C116.539 206.711 116.543 206.862 116.515 207.008C116.487 207.155 116.427 207.295 116.34 207.42C116.253 207.545 116.139 207.652 116.006 207.736C115.873 207.819 115.724 207.877 115.566 207.907L112.332 208.595C112.01 208.671 111.669 208.629 111.379 208.479C111.088 208.329 110.871 208.081 110.772 207.787Z" fill="#EAEFF7"/>
</g>
<g style="mix-blend-mode:multiply">
<path d="M43.7904 45.4633C43.7904 45.4633 50.8291 47.2438 52.3318 51.872C53.8345 56.5002 47.6043 60.0751 46.1978 61.5993C44.7912 63.1234 29.0159 61.7525 29.0159 61.7525C29.0159 61.7525 13.4479 55.4971 13.1744 51.872C12.9009 48.2469 0.43455 47.6757 15.1009 43.29C29.7672 38.9042 22.7977 36.6027 29.7642 38.9042C36.7307 41.2058 43.7904 45.4633 43.7904 45.4633Z" fill="#EAEFF7"/>
</g>
<g style="mix-blend-mode:multiply">
<path d="M187.096 31.7705C187.096 31.7705 194.134 33.551 195.637 38.1791C197.14 42.8073 190.913 46.3822 189.506 47.9064C188.1 49.4305 172.324 48.0596 172.324 48.0596C172.324 48.0596 156.753 41.8042 156.48 38.1791C156.206 34.5541 143.743 33.9829 158.406 29.5971C173.07 25.2113 166.106 22.9098 173.07 25.2113C180.033 27.5129 187.096 31.7705 187.096 31.7705Z" fill="#EAEFF7"/>
</g>
<g style="mix-blend-mode:multiply">
<path d="M59.6936 111.988C59.2256 112.953 58.5261 113.806 57.6484 114.482C56.7708 115.158 55.7382 115.639 54.6295 115.889C50.7916 116.781 47.5247 114.424 46.1843 113.939C44.8439 113.454 45.3788 106.859 45.3788 106.859C45.3788 106.859 50.0432 100.062 53.0907 99.7337C56.1382 99.4049 56.1292 94.2306 60.4028 100.012C64.6765 105.794 66.3355 102.799 64.6796 105.805C63.0236 108.812 59.6936 111.988 59.6936 111.988Z" fill="#EAEFF7"/>
</g>
<g style="mix-blend-mode:multiply">
<path d="M0.59375 76.531C12.408 72.8752 39.9314 67.8792 46.2758 71.5155C52.6202 75.1517 76.9309 74.9316 76.9309 74.9316L99.1708 63.3792C99.1708 63.3792 132.57 70.4929 132.257 55.7891C131.945 41.0853 142.091 17.9248 155.014 12.4746C167.937 7.02445 168.935 0.587891 168.935 0.587891H157.701C157.701 0.587891 151.663 10.8112 146.04 11.7167C140.417 12.6223 123.992 25.4648 125.504 32.3667C127.016 39.2686 125.504 51.3643 125.504 51.3643L111.436 55.3015L93.16 52.7937C93.16 52.7937 85.1026 61.7408 84.0176 63.382C82.9327 65.0232 73.3034 68.1662 67.5691 66.5223C61.8348 64.8783 44.8482 65.0093 44.8482 65.0093C44.8482 65.0093 26.0164 71.5238 22.6714 67.6814C19.3264 63.839 10.0006 65.6111 10.0006 65.6111L0.59375 67.6786V76.531Z" fill="#EAEFF7"/>
</g>
<g style="mix-blend-mode:multiply">
<path d="M215.598 119.994V133.065C214.351 134.051 212.502 135.338 210.444 136.093C208.875 136.695 207.18 136.96 205.569 136.55C204.803 136.395 204.003 136.471 203.288 136.768C200.751 137.67 197.725 140.496 195.149 143.31C193.734 144.862 192.444 146.425 191.494 147.651C190.358 149.106 189.658 150.092 189.658 150.092C189.658 150.092 176.134 158.919 170.388 160.541C168.284 161.132 166.228 162.514 164.464 164.102C164.055 164.473 163.664 164.846 163.301 165.217C162.937 165.587 162.516 166.053 162.165 166.457C160.362 168.585 159.268 170.636 159.394 171.472C159.658 173.336 159.436 184.652 159.436 184.652L159.352 184.688L156.983 185.758L154.279 186.97L143.044 192.033L134.518 202.423C134.518 202.423 136.898 205.898 140.093 209.746C141.771 211.829 143.577 213.82 145.503 215.709C146.245 216.419 146.988 217.08 147.715 217.659C151.078 220.306 151.246 227.306 150.056 233.595H139.985C139.589 230.584 138.933 227.608 138.025 224.695C137.505 222.951 136.889 221.22 136.222 219.512C135.678 218.153 135.089 216.807 134.473 215.497C133.535 213.513 132.498 211.596 131.405 209.771C129.854 207.148 128.043 204.665 125.995 202.354C119.984 195.703 127.816 189.113 135.612 184.688C136.384 184.242 137.154 183.835 137.923 183.437C138.693 183.038 139.396 182.679 140.108 182.342C144.087 180.419 147.237 179.277 147.237 179.277L157.029 158.582C157.054 158.57 157.077 158.554 157.098 158.535L157.197 158.474C157.407 158.329 157.855 158.053 158.471 157.668C158.85 157.415 159.298 157.139 159.815 156.816C161.341 155.877 163.385 154.637 165.669 153.316C171.818 149.805 179.716 145.776 183.975 145.584C187.966 145.403 194.984 140.318 201.761 134.218C203.399 132.753 205.025 131.214 206.594 129.674C210.08 126.269 213.245 122.83 215.598 119.994Z" fill="#EAEFF7"/>
</g>
<g style="mix-blend-mode:multiply">
<path d="M68.1273 221.649C68.0129 222.614 67.8251 223.57 67.5653 224.511C67.5232 224.631 67.4961 224.75 67.4541 224.87H16.5005C15.7572 224.053 15.071 223.243 14.4418 222.441C12.6897 220.156 11.5266 217.943 11.4364 216.032C11.0457 207.394 -6.9386 206.04 14.2104 195.591C14.7694 195.312 15.3044 195.034 15.8213 194.772C16.8702 194.214 17.8379 193.691 18.7335 193.172C33.8988 184.337 26.1388 180.132 35.3684 185.147C38.1093 186.665 40.7342 188.356 43.2245 190.208C44.0781 190.846 44.9196 191.495 45.731 192.133C49.1892 194.851 52.486 197.741 55.6068 200.79C55.6068 200.79 65.759 205.023 67.9289 216.037C68.2992 217.888 68.3661 219.78 68.1273 221.649Z" fill="#EAEFF7"/>
</g>
<g style="mix-blend-mode:multiply">
<path d="M160.634 64.4467C144.104 74.6031 118.291 74.7926 132.26 89.4574C146.229 104.122 163.817 120.417 176.439 110.681C189.062 100.946 186.192 102.18 192.921 88.3902C199.65 74.6003 206.235 63.2234 184.683 59.6151C163.131 56.0067 160.634 64.4467 160.634 64.4467Z" fill="#EAEFF7"/>
</g>
<g style="mix-blend-mode:multiply">
<path d="M115.254 152.547C104.736 157.194 88.3081 157.283 97.198 163.996C106.088 170.708 117.274 178.167 125.317 173.709C133.359 169.251 131.523 169.808 135.805 163.508C140.088 157.208 144.278 151.987 130.561 150.334C116.844 148.682 115.254 152.547 115.254 152.547Z" fill="#EAEFF7"/>
</g>
<g style="mix-blend-mode:multiply">
<path d="M67.8577 207.684C72.8046 214.341 72.1885 224.305 80.3812 219.331C88.5739 214.357 97.7313 208.043 92.9017 202.891C88.072 197.739 88.6491 198.89 81.4992 195.906C74.3494 192.922 68.4738 190.054 65.9553 198.269C63.4368 206.483 67.8577 207.684 67.8577 207.684Z" fill="#EAEFF7"/>
</g>
<path d="M129.687 233.594H124.295C124.397 233.468 124.526 233.361 124.674 233.282C124.773 233.232 124.869 233.185 124.974 233.123C124.999 233.123 125.024 233.116 125.043 233.101C125.324 233.02 125.621 232.999 125.912 233.04L129.687 233.594Z" fill="white"/>
<path d="M215.595 144.745V157.365L206.708 142.491L205.167 139.905L185.908 107.708L182.843 102.59L169.565 80.3794L168.032 77.8104L152.575 51.9582L151.03 49.3808L139.033 29.3188L137.473 26.7107L122.632 1.91186C122.387 1.5113 122.26 1.05744 122.266 0.59668H129.395L143.839 24.7519L145.38 27.3265L164.666 59.5818L166.208 62.1564L188.88 100.071L191.946 105.189L215.595 144.745Z" fill="white"/>
<path d="M215.596 88.8726V95.2812L191.946 105.178L185.908 107.706L140.623 126.687L137.594 127.946L103.933 142.042L100.928 143.302L97.3212 144.812L71.3666 155.679L64.5022 158.555L37.9946 169.664L34.0064 171.336L27.5869 174.041C27.5118 174.075 27.4276 174.105 27.3435 174.139L14.291 179.611L11.2616 180.879L2.07406 184.73C1.61289 184.921 1.11235 185.016 0.607422 185.008V178.934L22.1622 169.909L28.3773 167.309L63.1979 152.72C63.282 152.678 63.3662 152.647 63.4503 152.614L91.0129 141.07L97.0687 138.526L112.096 132.229L115.101 130.969L159.419 112.406L162.424 111.141L182.837 102.59L188.875 100.063L215.596 88.8726Z" fill="white"/>
<path d="M107.141 233.594H100.429C101.202 217.191 98.3858 203.939 94.0009 193.381C93.47 192.081 92.91 190.831 92.3209 189.631C83.1485 170.405 69.002 161.132 64.521 158.568C63.6644 158.075 63.1626 157.824 63.1055 157.799C61.4946 157.041 60.8935 155.291 61.7891 153.898C62.1715 153.311 62.7528 152.859 63.4421 152.611C63.9087 152.446 64.4071 152.373 64.9058 152.396C65.4045 152.419 65.8926 152.538 66.3392 152.745C68.0909 153.618 69.7759 154.602 71.3823 155.69C76.2571 158.9 83.9028 164.902 90.9174 174.484C91.0737 174.701 91.218 174.919 91.3953 175.133C92.375 176.526 93.3698 178.009 94.3496 179.591C99.2935 187.588 103.874 198.218 106.002 211.797C106.302 213.647 106.548 215.561 106.744 217.531C107.263 222.871 107.396 228.238 107.141 233.594Z" fill="white"/>
<path d="M215.594 42.222V45.2174L207.705 47.9229L166.206 62.1474L162.924 63.262C162.727 63.333 162.517 63.3689 162.305 63.3679C161.979 63.3752 161.658 63.2932 161.382 63.1321C161.106 62.971 160.888 62.738 160.754 62.4623C160.672 62.2837 160.632 62.0913 160.635 61.8973C160.638 61.7033 160.685 61.512 160.772 61.3357C160.86 61.1595 160.986 61.0021 161.143 60.8736C161.299 60.7452 161.483 60.6485 161.683 60.5898L164.664 59.5644L204.732 45.8276L207.864 44.7548L214.975 42.3167C215.173 42.2503 215.383 42.2181 215.594 42.222Z" fill="white"/>
<path d="M207.91 47.8422C207.845 47.8727 207.779 47.8996 207.711 47.923C207.518 47.987 207.315 48.02 207.11 48.0206C206.814 48.023 206.523 47.9542 206.264 47.8208C206.005 47.6875 205.789 47.4942 205.635 47.2599L204.733 45.8388L184.272 13.3746L182.664 10.8251L176.654 1.27333C176.52 1.06608 176.45 0.829268 176.449 0.587891H180.056L185.802 9.71052L187.41 12.2628L207.889 44.7661L208.604 45.8973C208.705 46.0657 208.767 46.2515 208.786 46.4432C208.805 46.6348 208.782 46.8281 208.716 47.0108C208.651 47.1936 208.546 47.3618 208.407 47.5049C208.268 47.648 208.099 47.7628 207.91 47.8422Z" fill="white"/>
<path d="M97.5267 194.552C97.3013 194.551 97.0781 194.512 96.8685 194.435L31.2877 170.333C31.0898 170.269 30.9084 170.169 30.7549 170.037C30.6014 169.905 30.4793 169.745 30.3964 169.567C30.3135 169.389 30.2717 169.197 30.2735 169.003C30.2753 168.809 30.3208 168.617 30.4071 168.441C30.6036 168.081 30.9394 167.803 31.3473 167.663C31.7553 167.523 32.2052 167.531 32.6071 167.685L98.1879 191.788C98.3853 191.851 98.5664 191.951 98.7197 192.083C98.8729 192.215 98.9948 192.375 99.0776 192.552C99.1605 192.73 99.2025 192.922 99.2009 193.116C99.1993 193.309 99.1542 193.5 99.0684 193.677C98.9278 193.944 98.7081 194.168 98.435 194.323C98.1619 194.478 97.8468 194.557 97.5267 194.552Z" fill="white"/>
<path d="M66.055 183.016L65.9858 183.088L50.1023 200.849L32.0699 221.028L29.8549 223.505L20.8387 233.58H16.6191L18.8041 231.139L27.3484 221.579L29.7978 218.824L47.5988 198.912L62.8091 181.915L63.4102 181.266C63.6923 180.958 64.0885 180.758 64.5211 180.707C64.9536 180.655 65.3913 180.755 65.7484 180.987C65.922 181.095 66.0692 181.235 66.1802 181.399C66.2913 181.562 66.3636 181.746 66.3926 181.938C66.4215 182.129 66.4064 182.325 66.3482 182.51C66.29 182.696 66.1901 182.868 66.055 183.016Z" fill="white"/>
<path d="M126.744 183.582C126.446 183.586 126.151 183.518 125.891 183.383C125.63 183.249 125.412 183.053 125.259 182.816L99.4127 140.803C99.3112 140.634 99.2487 140.447 99.2292 140.255C99.2097 140.062 99.2337 139.868 99.2996 139.684C99.3655 139.501 99.4718 139.332 99.6118 139.189C99.7519 139.046 99.9225 138.931 100.113 138.852C100.503 138.671 100.953 138.633 101.372 138.744C101.792 138.856 102.151 139.109 102.379 139.454L128.225 181.464C128.327 181.633 128.39 181.82 128.409 182.012C128.428 182.205 128.405 182.399 128.339 182.583C128.273 182.766 128.166 182.935 128.026 183.078C127.886 183.221 127.716 183.336 127.525 183.415C127.282 183.526 127.015 183.583 126.744 183.582Z" fill="white"/>
<path d="M171.161 179.017C170.867 179.021 170.577 178.954 170.319 178.823C170.061 178.692 169.843 178.502 169.688 178.271L136.028 125.491C135.925 125.324 135.861 125.139 135.839 124.948C135.817 124.757 135.837 124.564 135.9 124.381C135.962 124.198 136.065 124.028 136.201 123.884C136.337 123.739 136.504 123.622 136.692 123.54C137.08 123.355 137.528 123.312 137.949 123.417C138.37 123.523 138.733 123.77 138.967 124.111L172.627 176.888C172.73 177.055 172.794 177.24 172.816 177.431C172.838 177.622 172.817 177.815 172.755 177.998C172.693 178.181 172.59 178.351 172.454 178.495C172.318 178.64 172.151 178.757 171.963 178.839C171.715 178.957 171.44 179.018 171.161 179.017Z" fill="white"/>
<path d="M158.294 158.838C157.967 158.844 157.645 158.76 157.368 158.599C157.092 158.438 156.871 158.205 156.734 157.93C156.653 157.751 156.613 157.558 156.617 157.364C156.622 157.169 156.669 156.978 156.758 156.802C156.847 156.626 156.974 156.469 157.132 156.341C157.29 156.214 157.475 156.118 157.675 156.06L208.466 138.785C208.872 138.64 209.322 138.643 209.725 138.793C210.129 138.943 210.456 139.228 210.642 139.593C210.723 139.772 210.762 139.965 210.758 140.158C210.753 140.352 210.705 140.543 210.617 140.719C210.528 140.895 210.401 141.051 210.243 141.179C210.086 141.307 209.901 141.402 209.701 141.46L158.91 158.735C158.713 158.803 158.504 158.838 158.294 158.838Z" fill="white"/>
<path d="M215.594 191.651V194.549C215.516 194.552 215.437 194.546 215.36 194.532L193.796 191.877L190.46 191.464L165.305 188.366L161.966 187.954L126.502 183.576L94.3235 179.614L88.8597 178.942C88.5442 178.908 88.246 178.79 88.0008 178.603C87.7556 178.416 87.5739 178.167 87.4772 177.886C87.3966 177.608 87.411 177.313 87.5187 177.043C87.6264 176.772 87.8219 176.539 88.0783 176.376L90.8914 174.509L111.653 160.753L112.771 160.009C113.131 159.778 113.57 159.678 114.005 159.73C114.439 159.781 114.838 159.98 115.124 160.287C115.181 160.352 115.231 160.422 115.274 160.496C115.459 160.795 115.516 161.147 115.432 161.483C115.349 161.818 115.131 162.112 114.823 162.305L113.243 163.355L93.2686 176.588L123.698 180.344L127.819 180.851L162.423 185.123L165.771 185.535L190.923 188.633L194.253 189.046L215.594 191.651Z" fill="white"/>
<path d="M210.502 3.98755L187.39 12.2603L184.267 13.3749L145.375 27.3069L142.153 28.4604L142.027 28.4966C141.858 28.5579 140.921 28.8115 139.436 29.2072L139.03 29.3158C135.962 30.1211 130.934 31.3582 125.506 32.3586C120.998 33.1945 116.189 33.8855 112.018 34.0053C111.555 34.0053 111.116 34.0304 110.659 34.0304C109.706 34.0304 108.784 33.9942 107.927 33.9217C107.72 33.8967 107.494 33.8604 107.299 33.8381C102.229 33.0022 97.9824 27.3793 94.7636 20.9929C94.3148 20.0919 93.881 19.178 93.4623 18.2511C89.958 10.5188 87.8993 2.51075 87.4816 0.875137C87.4528 0.777074 87.4387 0.675838 87.4395 0.574219H90.8416C92.4127 6.76671 94.5689 12.8189 97.2852 18.6607C97.3407 18.7478 97.3831 18.8415 97.4114 18.9393C100.618 25.504 104.426 30.7369 108.264 31.0601C112.943 31.4697 119.651 30.5446 125.785 29.366C130.381 28.4743 134.636 27.4406 137.479 26.7189C139.385 26.2257 140.647 25.883 140.927 25.7938L141.528 25.5904L143.851 24.7545L182.666 10.8281L185.773 9.71358L207.175 2.04263C208.371 2.55317 209.489 3.20707 210.502 3.98755Z" fill="white"/>
<path d="M115.106 135.611C114.803 135.616 114.505 135.547 114.24 135.41C113.976 135.273 113.756 135.073 113.603 134.83C94.4831 102.912 94.2096 81.3067 112.765 68.7735C117.553 65.5413 120.122 61.6097 120.402 57.0958C121.12 45.5713 107.058 33.6428 106.913 33.523C106.758 33.3966 106.632 33.2413 106.546 33.0672C106.459 32.8931 106.413 32.7039 106.41 32.5121C106.407 32.3203 106.448 32.1301 106.529 31.9538C106.611 31.7775 106.731 31.6191 106.883 31.4889C107.205 31.2142 107.626 31.0595 108.063 31.0543C108.501 31.0492 108.925 31.194 109.255 31.461C109.88 31.9849 124.543 44.4066 123.753 57.2407C123.419 62.624 120.423 67.2717 114.839 71.0361C97.7469 82.5829 98.309 103.018 116.588 133.512C116.689 133.683 116.75 133.871 116.768 134.064C116.786 134.258 116.76 134.453 116.691 134.636C116.623 134.82 116.514 134.988 116.372 135.131C116.229 135.273 116.056 135.386 115.863 135.463C115.626 135.563 115.367 135.614 115.106 135.611Z" fill="white"/>
<path d="M101.772 104.972C101.451 104.977 101.135 104.897 100.862 104.742C100.588 104.586 100.368 104.362 100.227 104.094C100.142 103.916 100.098 103.724 100.098 103.529C100.097 103.335 100.141 103.142 100.226 102.964C100.311 102.786 100.435 102.627 100.591 102.496C100.746 102.365 100.93 102.266 101.129 102.205L171.245 76.6454C171.648 76.4928 172.098 76.4867 172.506 76.6282C172.914 76.7697 173.249 77.0484 173.445 77.4089C173.53 77.5867 173.574 77.7791 173.575 77.9737C173.575 78.1684 173.531 78.3609 173.446 78.5389C173.361 78.7169 173.237 78.8764 173.081 79.0071C172.926 79.1379 172.743 79.237 172.543 79.298L102.421 104.858C102.214 104.932 101.994 104.971 101.772 104.972Z" fill="white"/>
<path d="M155.552 50.8769L152.574 51.9692L122.238 63.0284L121.597 63.2624C121.387 63.336 121.164 63.3746 120.939 63.3767C120.633 63.3761 120.332 63.3032 120.065 63.1649L118.823 62.5212L89.2233 47.0763L86.1367 45.4686L50.8924 27.0784L50.3575 26.7998C50.0238 26.6367 49.7684 26.3631 49.6422 26.0335L49.005 24.4174L39.7123 1.05356C39.6496 0.904394 39.618 0.745547 39.6192 0.585449H43.0604L52.3501 23.9577L52.6145 24.6125L55.9896 26.3707L90.0227 44.1255L119.963 59.7293L121.072 60.3116L123.476 59.4395L151.044 49.3779L154.263 48.2076C154.667 48.0573 155.117 48.0526 155.524 48.1944C155.931 48.3362 156.266 48.6143 156.463 48.9738C156.548 49.1532 156.591 49.3471 156.591 49.5429C156.59 49.7388 156.546 49.9325 156.46 50.1115C156.375 50.2906 156.25 50.4511 156.093 50.5829C155.937 50.7147 155.753 50.8148 155.552 50.8769Z" fill="white"/>
<path d="M117.501 99.3574C117.17 98.4331 116.728 97.5461 116.184 96.7131C113.537 92.5865 108.566 89.7249 102.795 89.4128C102.459 89.4128 102.125 89.3878 101.788 89.3878C101.522 89.3836 101.255 89.392 100.989 89.4128C100.45 89.4258 99.9115 89.4705 99.3781 89.5466C92.9225 90.363 87.6991 94.3921 85.947 99.6834C85.5408 100.927 85.3382 102.221 85.3459 103.52C85.3464 104.466 85.4553 105.41 85.6705 106.335C87.1943 112.779 93.8632 117.661 101.819 117.661C102.775 117.662 103.73 117.59 104.674 117.444C105.212 117.365 105.746 117.261 106.272 117.132C106.828 117.001 107.375 116.84 107.91 116.65C113.975 114.571 118.288 109.461 118.288 103.52C118.277 102.102 118.011 100.695 117.501 99.3574ZM106.771 113.944C106.237 114.137 105.689 114.293 105.13 114.412C104.602 114.538 104.065 114.631 103.523 114.691C102.947 114.762 102.366 114.798 101.785 114.797C94.5424 114.797 88.6609 109.748 88.6609 103.531C88.6609 98.0952 93.1419 93.5729 99.1106 92.5029C99.6338 92.4085 100.163 92.3443 100.694 92.3107C101.043 92.2884 101.41 92.2744 101.773 92.2744C102.011 92.2744 102.248 92.2744 102.486 92.2744C106.994 92.489 110.919 94.6652 113.074 97.8277C113.652 98.6482 114.096 99.5441 114.39 100.486C114.719 101.467 114.885 102.49 114.883 103.517C114.883 108.221 111.52 112.247 106.771 113.944Z" fill="white"/>
<path d="M178.119 174.599C175.982 174.596 173.864 174.963 171.873 175.683C171.356 175.875 170.852 176.078 170.371 176.307C169.879 176.534 169.401 176.787 168.94 177.065C165.786 178.911 163.477 181.771 162.454 185.098C162.326 185.532 162.225 185.973 162.154 186.419C162.062 186.924 162.006 187.434 161.986 187.946C161.962 188.13 161.953 188.317 161.959 188.503C161.959 196.149 169.226 202.39 178.134 202.39C185.683 202.39 192.043 197.932 193.822 191.894V191.88C194.089 190.949 194.243 189.994 194.282 189.032C194.297 188.851 194.297 188.681 194.297 188.503C194.282 180.829 187.042 174.599 178.119 174.599ZM190.459 191.459C188.956 196.087 183.988 199.492 178.119 199.492C171.047 199.492 165.304 194.549 165.304 188.489V188.355C165.326 187.39 165.487 186.431 165.781 185.505C166.278 184.063 167.082 182.728 168.145 181.58C169.208 180.431 170.508 179.492 171.97 178.817C173.877 177.929 175.984 177.468 178.119 177.471C185.193 177.471 190.934 182.414 190.934 188.475V188.595C190.934 189.566 190.774 190.532 190.459 191.459Z" fill="white"/>
<path d="M162.309 115.836C161.996 115.842 161.687 115.767 161.416 115.619C161.146 115.471 160.926 115.257 160.779 115L146.185 87.3898C146.095 87.215 146.046 87.0248 146.04 86.8314C146.034 86.6379 146.071 86.4453 146.15 86.266C146.228 86.0867 146.346 85.9246 146.496 85.7899C146.646 85.6552 146.825 85.551 147.021 85.4839C147.42 85.3229 147.87 85.3072 148.281 85.4399C148.692 85.5726 149.034 85.844 149.239 86.2L163.833 113.81C163.923 113.985 163.972 114.175 163.979 114.368C163.985 114.562 163.948 114.754 163.869 114.933C163.791 115.113 163.673 115.275 163.524 115.41C163.374 115.544 163.196 115.649 163 115.716C162.781 115.799 162.546 115.84 162.309 115.836Z" fill="white"/>
<path d="M207.459 232.238C205.378 233.143 203.107 233.607 200.808 233.598H200.066C191.969 226.045 180.382 220.838 165.302 217.977C164.212 217.771 163.091 217.579 161.942 217.386C159.28 216.966 156.533 216.606 153.678 216.316C150.934 216.038 148.202 215.834 145.527 215.714C143.637 215.62 141.773 215.547 139.94 215.522C138.804 215.5 137.671 215.486 136.565 215.486C135.865 215.486 135.179 215.486 134.506 215.5C125.213 215.594 115.938 216.276 106.745 217.542C104.942 217.821 103.89 217.977 103.848 217.988C102.045 218.311 100.263 217.314 99.884 215.759C99.5053 214.204 100.668 212.694 102.49 212.357C102.7 212.321 103.932 212.103 106.003 211.816C114.426 210.642 122.922 209.962 131.438 209.782C134.212 209.71 137.124 209.699 140.108 209.76C144.731 209.855 149.56 210.108 154.465 210.596C178.481 213.012 196.381 220.39 207.459 232.238Z" fill="white"/>
<path d="M72.5 230.371L86.406 233.595H73.5218L71.941 233.232L29.8654 223.505L28.7895 223.251C28.5307 223.196 28.2905 223.083 28.0899 222.922C27.8892 222.76 27.7342 222.556 27.6384 222.326L27.3379 221.594L20.179 203.482L11.2289 180.862L10.0809 177.953C10.0128 177.769 9.98621 177.574 10.0029 177.381C10.0196 177.187 10.0791 176.998 10.1778 176.827C10.2765 176.655 10.4122 176.505 10.5765 176.384C10.7408 176.263 10.9301 176.175 11.1328 176.125C11.5444 175.996 11.9936 176.017 12.389 176.184C12.7844 176.352 13.0961 176.652 13.2606 177.025L14.2824 179.6L23.0942 201.891L29.7873 218.832L30.5146 220.66L32.0714 221.022L72.5 230.371Z" fill="white"/>
<path d="M138.05 224.696C137.192 226.531 136.05 228.24 134.66 229.77C133.345 231.214 131.838 232.5 130.176 233.595C130.156 233.622 130.128 233.643 130.095 233.654L129.686 233.595H124C124.225 233.487 124.448 233.389 124.673 233.283C124.772 233.233 124.869 233.186 124.974 233.124C124.999 233.124 125.023 233.117 125.043 233.102C127.694 231.848 130.055 230.124 131.991 228.028C134.201 225.591 135.67 222.651 136.247 219.513C136.492 218.183 136.593 216.833 136.548 215.484C136.53 214.617 136.44 213.752 136.28 212.898C136.24 212.708 136.242 212.512 136.286 212.323C136.329 212.133 136.414 211.954 136.534 211.796C136.655 211.637 136.809 211.503 136.987 211.402C137.164 211.3 137.363 211.233 137.569 211.204C137.992 211.114 138.436 211.18 138.807 211.388C139.179 211.596 139.448 211.93 139.559 212.318C139.795 213.374 139.917 214.45 139.923 215.528C140.021 218.674 139.382 221.801 138.05 224.696Z" fill="white"/>
<path d="M165.303 214.739V233.595H161.943V214.739C161.979 214.349 162.171 213.985 162.483 213.72C162.794 213.455 163.201 213.308 163.623 213.308C164.046 213.308 164.453 213.455 164.764 213.72C165.075 213.985 165.268 214.349 165.303 214.739Z" fill="white"/>
<path d="M96.0873 20.8117L94.7589 20.9984L55.9893 26.3734L50.9041 27.0755L29.8423 29.9985L26.1637 30.5028L8.59713 32.9409L5.25814 33.4007L0.858227 34.0137C0.770441 34.0235 0.682162 34.0291 0.59375 34.0304V31.1297L6.28297 30.3468L49.0047 24.4201L52.3497 23.9603L93.4546 18.2593L95.5584 17.9807C95.983 17.9118 96.4199 17.9978 96.7777 18.2205C97.1356 18.4433 97.3868 18.7856 97.4788 19.1761C97.5065 19.3686 97.4921 19.5644 97.4367 19.7517C97.3813 19.939 97.2859 20.1142 97.1561 20.2667C97.0263 20.4192 96.8649 20.546 96.6813 20.6396C96.4977 20.7333 96.2957 20.7918 96.0873 20.8117Z" fill="white"/>
<path d="M26.0471 174.358C25.3553 174.372 24.6762 174.185 24.1038 173.825C23.5314 173.464 23.0941 172.948 22.8523 172.347C22.7321 172.021 11.2124 139.523 46.9376 127.001C82.6628 114.479 98.6485 140.682 98.8078 140.933C99.6463 142.351 98.9881 144.084 97.3351 144.806C95.6822 145.528 93.6655 144.959 92.827 143.541C92.2951 142.658 79.3869 121.835 49.4711 132.32C36.8695 136.737 29.6355 144.472 27.9735 155.308C27.2316 160.429 27.6648 165.638 29.2448 170.594C29.8038 172.11 28.8271 173.729 27.0599 174.216C26.7314 174.308 26.3903 174.356 26.0471 174.358Z" fill="white"/>
<path d="M51.2324 130.131C50.9882 130.133 50.7462 130.087 50.5225 129.996C50.2987 129.905 50.0982 129.772 49.9341 129.604C49.7949 129.461 49.6898 129.293 49.6257 129.11C49.5616 128.927 49.5399 128.734 49.562 128.542C49.5841 128.351 49.6496 128.166 49.7541 128C49.8586 127.834 49.9998 127.69 50.1685 127.578L84.7306 103.259L25.5633 29.7593C25.4388 29.6055 25.3507 29.429 25.3046 29.2415C25.2584 29.054 25.2554 28.8595 25.2957 28.6708C25.3359 28.4821 25.4185 28.3034 25.5382 28.1463C25.6578 27.9891 25.8118 27.8571 25.9901 27.7587C26.3583 27.5404 26.801 27.4568 27.2321 27.5242C27.6631 27.5917 28.0517 27.8054 28.3223 28.1237L88.3551 102.713C88.4737 102.857 88.5602 103.022 88.6094 103.198C88.6585 103.374 88.6695 103.558 88.6415 103.738C88.6135 103.918 88.5472 104.091 88.4465 104.247C88.3457 104.403 88.2124 104.539 88.0545 104.646L52.3083 129.805C51.9978 130.019 51.6199 130.134 51.2324 130.131Z" fill="white"/>
<path d="M56.9616 67.6758C56.7082 67.6799 56.4569 67.6321 56.2257 67.5358C55.9945 67.4394 55.7891 67.297 55.6242 67.1186C55.492 66.9703 55.3949 66.7979 55.3393 66.6125C55.2836 66.4272 55.2707 66.2331 55.3013 66.0428C55.332 65.8525 55.4054 65.6703 55.5169 65.5081C55.6285 65.3459 55.7756 65.2073 55.9488 65.1012L88.1065 44.2033C88.4659 43.9717 88.9052 43.8719 89.3394 43.9234C89.7736 43.9749 90.1717 44.1739 90.4567 44.482C90.5887 44.6302 90.6856 44.8025 90.741 44.9878C90.7963 45.173 90.8089 45.367 90.778 45.557C90.7471 45.7471 90.6734 45.929 90.5616 46.0909C90.4497 46.2528 90.3024 46.391 90.1291 46.4965L57.9714 67.3944C57.6739 67.5821 57.3214 67.6804 56.9616 67.6758Z" fill="white"/>
<path d="M25.4827 47.659C21.7139 47.659 18.3388 46.9373 15.3785 45.4939C6.66285 41.2475 4.95578 32.3672 4.88665 31.9911C4.85902 31.7974 4.87358 31.6006 4.92947 31.4122C4.98536 31.2239 5.08146 31.0478 5.21205 30.8946C5.34264 30.7413 5.50507 30.6138 5.68975 30.5198C5.87443 30.4258 6.07758 30.367 6.28718 30.3471C6.7112 30.2778 7.14766 30.3641 7.50434 30.5876C7.86103 30.8112 8.10999 31.1546 8.19861 31.5452C8.21664 31.6344 9.7554 39.4614 17.0585 43.0029C22.36 45.5748 29.4618 45.3519 38.1654 42.3342C38.5705 42.1869 39.0206 42.1873 39.4253 42.3351C39.8301 42.4829 40.1595 42.7673 40.3474 43.1311C40.4292 43.3095 40.47 43.5018 40.4671 43.6956C40.4642 43.8895 40.4177 44.0806 40.3306 44.2569C40.2435 44.4331 40.1176 44.5905 39.9611 44.7191C39.8046 44.8477 39.6209 44.9446 39.4217 45.0035C34.3185 46.7738 29.6722 47.659 25.4827 47.659Z" fill="white"/>
<path d="M46.5202 54.2038L45.4082 54.4295L29.4345 57.6282L26.1526 58.2886L17.7645 59.9604L14.4586 60.6152L0.934269 63.3263C0.811844 63.3568 0.68533 63.3709 0.558594 63.3681V60.4536L15.228 57.5307C15.264 57.5307 15.2941 57.5307 15.3211 57.514L43.3705 51.8967L45.7748 51.4119C46.108 51.3377 46.4574 51.3572 46.7786 51.4679C47.0997 51.5785 47.378 51.7754 47.5781 52.0332C47.6801 52.1708 47.7563 52.3235 47.8035 52.4846C47.8472 52.6761 47.8483 52.8739 47.8067 53.0658C47.7651 53.2577 47.6817 53.4397 47.5615 53.6007C47.4414 53.7616 47.287 53.8981 47.108 54.0019C46.9289 54.1056 46.7289 54.1743 46.5202 54.2038Z" fill="white"/>
<path d="M58.9182 93.9245C55.5702 93.9245 52.8744 90.2214 50.2537 86.6186C48.0267 83.5536 45.2527 79.7529 43.2391 80.2099C35.8758 81.8817 28.173 63.4916 25.9881 57.8269C25.9221 57.6426 25.8976 57.4477 25.9162 57.2543C25.9347 57.061 25.9959 56.8732 26.0959 56.7026C26.196 56.532 26.3327 56.3823 26.4977 56.2627C26.6626 56.1431 26.8523 56.0562 27.055 56.0074C27.4654 55.8867 27.9097 55.9138 28.2995 56.0832C28.6894 56.2525 28.9961 56.5517 29.1588 56.9213C33.5917 68.4374 39.7678 78.0086 42.3645 77.4291C46.7734 76.426 49.9802 80.834 53.0817 85.0972C55.0653 87.8223 57.7852 91.5616 59.33 90.9486C64.95 88.7446 72.0819 85.0248 72.151 84.9885C72.5308 84.7887 72.9772 84.7271 73.4033 84.8157C73.8294 84.9043 74.2047 85.1368 74.4561 85.4678C74.5675 85.6297 74.6416 85.8112 74.6738 86.0009C74.706 86.1906 74.6954 86.3845 74.6429 86.5702C74.5905 86.756 74.4971 86.9297 74.3687 87.0804C74.2404 87.2312 74.0798 87.3557 73.8971 87.4461C73.5966 87.6022 66.5279 91.2913 60.7245 93.5762C60.1538 93.8039 59.5395 93.9224 58.9182 93.9245Z" fill="white"/>
<path d="M26.332 150.805L22.0252 151.432L0.876258 154.556C0.783177 154.572 0.688569 154.581 0.59375 154.581V151.683L22.9569 148.373L25.767 147.952C26.1914 147.881 26.6288 147.964 26.9893 148.183C27.3499 148.403 27.6062 148.741 27.7055 149.13C27.7372 149.324 27.7265 149.522 27.6742 149.712C27.6219 149.903 27.5289 150.081 27.4008 150.237C27.2727 150.393 27.1121 150.524 26.9285 150.622C26.7449 150.719 26.5421 150.782 26.332 150.805Z" fill="white"/>
<path d="M31.542 142.465C31.2554 142.644 30.9192 142.74 30.5743 142.744C30.3096 142.747 30.0479 142.692 29.8097 142.586C29.5714 142.479 29.363 142.322 29.2008 142.128L27.4998 140.069L10.396 119.277C10.3313 119.216 10.2739 119.149 10.2247 119.077L0.607422 107.374V103.445C0.870304 103.443 1.13007 103.498 1.36664 103.604C1.60322 103.71 1.81029 103.866 1.97189 104.058L11.0572 115.095L13.4826 118.043L29.6005 137.614L31.9417 140.462C32.0679 140.614 32.1581 140.79 32.2066 140.976C32.255 141.163 32.2605 141.357 32.2229 141.546C32.1852 141.735 32.1051 141.915 31.9878 142.073C31.8705 142.231 31.7186 142.365 31.542 142.465Z" fill="white"/>
<path d="M44.5923 132.524C44.253 132.531 43.9195 132.441 43.6361 132.268C43.3527 132.095 43.1327 131.846 43.0054 131.554L13.9943 59.3868C13.926 59.2037 13.8988 59.0096 13.9145 58.8164C13.9302 58.6232 13.9884 58.435 14.0855 58.2635C14.1827 58.092 14.3167 57.9407 14.4794 57.8191C14.642 57.6974 14.8298 57.6079 15.0312 57.5562C15.4425 57.4262 15.8917 57.4459 16.2879 57.6115C16.6841 57.777 16.9977 58.076 17.165 58.4478L46.1761 130.599C46.245 130.782 46.2725 130.976 46.257 131.169C46.2415 131.362 46.1834 131.551 46.0862 131.722C45.989 131.894 45.8547 132.045 45.6919 132.167C45.529 132.289 45.3409 132.378 45.1393 132.429C44.9636 132.488 44.7789 132.52 44.5923 132.524Z" fill="white"/>
<path d="M11.679 119.787C11.5894 119.788 11.4999 119.781 11.4115 119.768C11.2025 119.747 11.0001 119.688 10.8163 119.594C10.6324 119.499 10.4709 119.372 10.3411 119.218C10.2114 119.065 10.1162 118.889 10.061 118.701C10.0058 118.513 9.99187 118.317 10.02 118.124C10.0741 117.845 11.3544 111.253 17.9392 107.536C22.5224 104.958 28.431 104.451 35.5057 106.028C35.7115 106.066 35.9069 106.142 36.0801 106.252C36.2532 106.361 36.4004 106.503 36.5129 106.667C36.6253 106.831 36.7006 107.015 36.7341 107.207C36.7676 107.399 36.7587 107.595 36.7079 107.784C36.5734 108.165 36.2865 108.485 35.9058 108.677C35.5252 108.868 35.0799 108.918 34.6612 108.814C28.5573 107.458 23.5593 107.828 19.8055 109.929C14.465 112.916 13.3439 118.511 13.3319 118.567C13.2551 118.918 13.0472 119.233 12.745 119.456C12.4427 119.679 12.0653 119.796 11.679 119.787Z" fill="white"/>
<path d="M25.8241 84.7227L24.3214 85.0682L1.02653 90.4097C0.884653 90.4405 0.739473 90.4564 0.59375 90.4571V87.5313L23.2184 82.3291L24.9585 81.9251C25.3331 81.8353 25.7294 81.8645 26.084 82.0079C26.4386 82.1514 26.7312 82.4008 26.9151 82.7165C26.9515 82.7925 26.9826 82.8707 27.0082 82.9505C27.0634 83.1392 27.0761 83.3363 27.0456 83.5298C27.0152 83.7232 26.9421 83.9087 26.8311 84.0749C26.7201 84.2411 26.5734 84.3843 26.4002 84.4957C26.2269 84.6072 26.0309 84.6844 25.8241 84.7227Z" fill="white"/>
<path d="M107.551 81.1458C107.551 86.2391 99.7763 95.8232 96.2849 99.8682C96.0865 100.098 95.834 100.284 95.5465 100.412C95.259 100.539 94.9438 100.606 94.6245 100.606C94.3051 100.606 93.99 100.539 93.7024 100.412C93.4149 100.284 93.1625 100.098 92.964 99.8682C89.4765 95.8161 81.706 86.2391 81.706 81.1458C81.6852 79.5734 82.0041 78.0129 82.6441 76.5547C83.2842 75.0965 84.2327 73.7696 85.4347 72.6509C86.6367 71.5323 88.0683 70.6441 89.6465 70.0379C91.2246 69.4318 92.918 69.1196 94.6283 69.1196C96.3386 69.1196 98.032 69.4318 99.6101 70.0379C101.188 70.6441 102.62 71.5323 103.822 72.6509C105.024 73.7696 105.972 75.0965 106.612 76.5547C107.253 78.0129 107.571 79.5734 107.551 81.1458Z" fill="#FDA100"/>
<path d="M94.6287 87.7883C93.1427 87.7883 91.69 87.3715 90.4545 86.5908C89.2189 85.8101 88.2558 84.7004 87.6872 83.402C87.1185 82.1037 86.9697 80.6751 87.2596 79.2968C87.5495 77.9185 88.2651 76.6524 89.3159 75.6587C90.3667 74.665 91.7055 73.9883 93.1629 73.7142C94.6204 73.44 96.1311 73.5807 97.504 74.1185C98.8769 74.6563 100.05 75.567 100.876 76.7354C101.702 77.9039 102.142 79.2776 102.142 80.6829C102.14 82.5668 101.348 84.373 99.9394 85.7051C98.5308 87.0372 96.6208 87.7864 94.6287 87.7883ZM94.6287 74.4075C93.3163 74.4075 92.0333 74.7755 90.942 75.4651C89.8507 76.1546 89.0001 77.1347 88.4979 78.2814C87.9956 79.4281 87.8642 80.6899 88.1203 81.9072C88.3763 83.1246 89.0083 84.2427 89.9364 85.1204C90.8644 85.998 92.0469 86.5957 93.3341 86.8378C94.6214 87.08 95.9556 86.9557 97.1682 86.4807C98.3808 86.0057 99.4172 85.2014 100.146 84.1694C100.876 83.1374 101.265 81.9241 101.265 80.6829C101.263 79.0192 100.563 77.4241 99.3189 76.2476C98.0748 75.0711 96.3881 74.4094 94.6287 74.4075Z" fill="white"/>
</svg>
