<svg width="32" height="26" viewBox="0 0 32 26" fill="none" xmlns="http://www.w3.org/2000/svg">
<path d="M17.4969 8.9949L15.3283 7.26933V4.23444C15.3283 3.94911 15.0971 3.71777 14.8119 3.71777H13.2629C12.9778 3.71777 12.7466 3.94911 12.7466 4.23444V5.21605L11.3237 4.08458C10.948 3.78463 10.4146 3.78463 10.0389 4.08458L3.88784 8.978C3.46504 9.27669 3.23537 9.77973 3.2863 10.2951C3.33747 10.8108 3.66144 11.2588 4.13466 11.4687C4.60788 11.6789 5.15723 11.6178 5.57322 11.3095L6.55066 10.5739V15.601C6.55066 16.1717 7.01304 16.6343 7.58332 16.6343H13.7793C14.3496 16.6343 14.8119 16.1717 14.8119 15.601V10.5744L15.7929 11.3128C16.4328 11.7836 17.3331 11.6461 17.8035 11.0058C18.274 10.3655 18.1368 9.46464 17.4969 8.99389V8.9949ZM13.7793 4.7511H14.2956V6.44842L13.7793 6.03494V4.7511ZM9.64864 15.601V13.5344H11.714V15.601H9.64864ZM13.7793 15.601H12.7466V13.0177C12.7466 12.7324 12.5154 12.501 12.2303 12.501H9.13231C8.84717 12.501 8.61598 12.7324 8.61598 13.0177V15.601H7.58332V9.79689L10.6813 7.46408L13.7793 9.79689V15.601ZM16.9806 10.3786C16.9199 10.4687 16.8256 10.5308 16.7189 10.5509C16.6123 10.5711 16.5018 10.5479 16.4126 10.4861L10.9911 6.40452C10.8076 6.26653 10.555 6.26653 10.3714 6.40452L4.95731 10.4803C4.86781 10.5456 4.75561 10.5716 4.6467 10.552C4.53754 10.5325 4.44123 10.4695 4.37997 10.3771C4.31996 10.2843 4.29954 10.1713 4.32349 10.0633C4.34744 9.95532 4.4135 9.86147 4.50703 9.80244L10.6813 4.89414L16.8772 9.82111C17.0575 9.94775 17.1034 10.1957 16.9806 10.3786Z" fill="#FDA100"/>
<path d="M9.07227 9.93421C9.07227 10.7813 9.75673 11.468 10.6009 11.468C11.4451 11.468 12.1296 10.7813 12.1296 9.93421C12.1296 9.08716 11.4451 8.40039 10.6009 8.40039C9.75673 8.40039 9.07227 9.08716 9.07227 9.93421ZM11.1105 9.93421C11.1105 10.2166 10.8823 10.4455 10.6009 10.4455C10.3195 10.4455 10.0914 10.2166 10.0914 9.93421C10.0914 9.65186 10.3195 9.42293 10.6009 9.42293C10.8823 9.42293 11.1105 9.65186 11.1105 9.93421Z" fill="#FDA100"/>
<path d="M29.1856 0.166016H3.43981C2.01851 0.167782 0.866994 1.32317 0.865234 2.74925V18.2486C0.866994 19.6747 2.01851 20.8301 3.43981 20.8319H20.9469V21.8652H20.432C20.1477 21.8652 19.9171 22.0965 19.9171 22.3818V25.4817C19.9171 25.767 20.1477 25.9983 20.432 25.9983H29.7005C29.9849 25.9983 30.2154 25.767 30.2154 25.4817V22.3818C30.2154 22.0965 29.9849 21.8652 29.7005 21.8652H29.1856V20.8319C30.6069 20.8301 31.7584 19.6747 31.7602 18.2486V2.74925C31.7584 1.32317 30.6069 0.167782 29.1856 0.166016ZM29.1856 24.965H20.9469V22.8985H29.1856V24.965ZM21.9768 21.8652V18.7653C21.9775 18.6853 21.9599 18.6064 21.9252 18.5345L20.432 15.5436V11.5322C20.432 11.2469 20.6626 11.0156 20.9469 11.0156C21.2313 11.0156 21.4619 11.2469 21.4619 11.5322V14.6321H22.4917V11.5322C22.4904 11.0938 22.3031 10.6768 21.9768 10.3852V7.39907C21.9768 7.11375 22.2073 6.88242 22.4917 6.88242C22.6307 6.88217 22.7635 6.93943 22.8588 7.0411C22.9546 7.13519 23.0079 7.26461 23.0066 7.39907V13.0822H24.0364V9.9823C24.0364 9.69698 24.267 9.46565 24.5514 9.46565C24.8357 9.46565 25.0663 9.69698 25.0663 9.9823V13.5988H26.0961V10.4989C26.0961 10.2136 26.3267 9.9823 26.611 9.9823C26.8954 9.9823 27.1259 10.2136 27.1259 10.4989V13.5988H28.1558V11.5322C28.1558 11.2469 28.3863 11.0156 28.6707 11.0156C28.955 11.0156 29.1856 11.2469 29.1856 11.5322V16.615L28.1824 19.6354C28.1648 19.6878 28.156 19.7431 28.1558 19.7986V21.8652H21.9768ZM24.0231 7.26259C23.997 6.90285 23.8421 6.56456 23.5869 6.31053C23.2998 6.01335 22.9043 5.84661 22.4917 5.84913C21.6386 5.84913 20.9469 6.54312 20.9469 7.39907H20.432C19.8633 7.39907 19.4022 6.93641 19.4022 6.36577C19.4022 5.79514 19.8633 5.33248 20.432 5.33248H23.5215C23.9927 5.32592 24.4073 5.64302 24.5262 6.10039C24.6451 6.55775 24.4375 7.03757 24.0231 7.26259ZM30.7303 18.2486C30.7288 19.0922 30.055 19.7797 29.2145 19.7956L30.1888 16.8619C30.2064 16.8095 30.2152 16.7542 30.2154 16.6987V11.5322C30.2172 11.0171 29.963 10.5353 29.5376 10.2469C29.1122 9.95859 28.5716 9.90208 28.0959 10.0961C27.9768 9.6324 27.6479 9.25148 27.2077 9.06682C26.7674 8.88216 26.2663 8.91495 25.8535 9.15562C25.4751 8.53781 24.714 8.27469 24.0364 8.52747V8.35895C24.9466 8.12964 25.584 7.30749 25.5812 6.36577C25.5812 5.22451 24.659 4.29919 23.5215 4.29919H20.432C19.2946 4.29919 18.3724 5.22451 18.3724 6.36577C18.3724 7.50704 19.2946 8.43236 20.432 8.43236H20.9469V9.9823C20.0939 9.9823 19.4022 10.6763 19.4022 11.5322V15.6654C19.4014 15.7454 19.419 15.8243 19.4537 15.8962L20.9469 18.8871V19.7986H3.43981C2.58673 19.7986 1.89507 19.1046 1.89507 18.2486V2.74925C1.89507 1.8933 2.58673 1.19931 3.43981 1.19931H27.6409V8.43236H28.6707V1.19931H29.1856C30.0387 1.19931 30.7303 1.8933 30.7303 2.74925V18.2486Z" fill="#FDA100"/>
</svg>
