<svg width="22" height="23" viewBox="0 0 22 23" fill="none" xmlns="http://www.w3.org/2000/svg">
<path d="M21.3259 21.1274L15.8333 15.7044C17.2716 14.1365 18.1554 12.0628 18.1554 9.78103C18.1547 4.89981 14.1476 0.943359 9.2043 0.943359C4.26096 0.943359 0.253906 4.89981 0.253906 9.78103C0.253906 14.6622 4.26096 18.6187 9.2043 18.6187C11.3402 18.6187 13.2991 17.8774 14.8379 16.6451L20.3517 22.0894C20.6204 22.355 21.0566 22.355 21.3252 22.0894C21.5945 21.8239 21.5945 21.3929 21.3259 21.1274ZM9.2043 17.259C5.0217 17.259 1.63105 13.911 1.63105 9.78103C1.63105 5.65107 5.0217 2.30309 9.2043 2.30309C13.3869 2.30309 16.7775 5.65107 16.7775 9.78103C16.7775 13.911 13.3869 17.259 9.2043 17.259Z" fill="#FDA100"/>
</svg>
