<svg width="80" height="87" viewBox="0 0 80 87" fill="none" xmlns="http://www.w3.org/2000/svg">
<path d="M59.2563 8.11231C59.0172 6.3055 58.127 4.67586 56.7815 3.58191C55.4361 2.48796 53.7456 2.01931 52.082 2.27904C50.4184 2.53877 48.9179 3.50561 47.9106 4.96688C46.9034 6.42814 46.4718 8.26412 46.711 10.0709L59.2563 8.11231Z" fill="#FDA100"/>
<path d="M20.4512 8.11209C20.5453 7.19557 20.808 6.30893 21.2238 5.50486C21.6396 4.70079 22.1999 3.99568 22.8715 3.43141C23.5431 2.86713 24.3123 2.45521 25.1334 2.2201C25.9544 1.98499 26.8106 1.93149 27.6511 2.06278C28.4916 2.19407 29.2992 2.50747 30.0259 2.98437C30.7527 3.46127 31.3838 4.09192 31.8817 4.8389C32.3797 5.58587 32.7343 6.43393 32.9246 7.33267C33.1149 8.23141 33.1369 9.16251 32.9894 10.0707L20.4512 8.11209Z" fill="#FDA100"/>
<path d="M39.9322 58.5868C42.4005 58.5868 44.4015 56.4136 44.4015 53.7328C44.4015 51.0521 42.4005 48.8789 39.9322 48.8789C37.4639 48.8789 35.4629 51.0521 35.4629 53.7328C35.4629 56.4136 37.4639 58.5868 39.9322 58.5868Z" fill="white"/>
<path d="M44.1014 31.6694C44.1014 30.4683 43.6621 29.3164 42.8801 28.4671C42.0981 27.6178 41.0375 27.1406 39.9316 27.1406C38.8257 27.1406 37.765 27.6178 36.983 28.4671C36.201 29.3164 35.7617 30.4683 35.7617 31.6694L35.6191 53.7483C35.6191 52.5513 36.057 51.4033 36.8363 50.5569C37.6156 49.7105 38.6726 49.235 39.7748 49.235C40.8769 49.235 41.9339 49.7105 42.7132 50.5569C43.4926 51.4033 43.9304 52.5513 43.9304 53.7483L44.1014 31.6694Z" fill="#FDA100"/>
<path d="M25.1991 7.55477C22.6779 7.49839 20.2159 8.38772 18.2281 10.0729C16.2402 11.758 14.848 14.1359 14.2862 16.8059L3.67969 57.9908C5.56875 54.4723 8.47924 51.7339 11.9551 50.2048C15.4309 48.6756 19.2756 48.4421 22.8868 49.5407C26.4979 50.6394 29.6714 53.0083 31.91 56.276C34.1485 59.5438 35.3256 63.5258 35.2567 67.598L35.9695 19.6702C35.995 18.1066 35.7366 16.5528 35.2091 15.0977C34.6816 13.6425 33.8953 12.3144 32.8952 11.1894C31.895 10.0643 30.7006 9.16424 29.3801 8.54061C28.0595 7.91697 26.6388 7.58198 25.1991 7.55477Z" fill="white"/>
<path d="M3.67932 57.9907C2.22135 60.7031 1.42862 63.7764 1.37695 66.9166L3.67932 57.9907Z" fill="white"/>
<path d="M54.5736 7.55483C57.092 7.5035 59.55 8.39502 61.5347 10.0796C63.5193 11.7643 64.9097 14.1393 65.4723 16.8059L76.1002 57.9908C74.2111 54.4723 71.3006 51.7339 67.8248 50.2048C64.3489 48.6756 60.5042 48.4421 56.8931 49.5408C53.2819 50.6395 50.1084 53.0083 47.8699 56.276C45.6313 59.5438 44.4543 63.5258 44.5231 67.598L43.8103 19.6703C43.7588 16.5137 44.8637 13.4641 46.8821 11.1921C48.9005 8.92015 51.6672 7.61181 54.5736 7.55483Z" fill="white"/>
<path d="M76.0996 57.9907C77.5584 60.7023 78.349 63.7765 78.395 66.9166L76.0996 57.9907Z" fill="white"/>
<path d="M61.5721 85.4189C70.8627 85.4189 78.3942 77.2392 78.3942 67.1489C78.3942 57.0587 70.8627 48.8789 61.5721 48.8789C52.2815 48.8789 44.75 57.0587 44.75 67.1489C44.75 77.2392 52.2815 85.4189 61.5721 85.4189Z" fill="#F4D59D"/>
<path d="M18.3123 85.4189C27.6029 85.4189 35.1344 77.2392 35.1344 67.1489C35.1344 57.0587 27.6029 48.8789 18.3123 48.8789C9.02174 48.8789 1.49023 57.0587 1.49023 67.1489C1.49023 77.2392 9.02174 85.4189 18.3123 85.4189Z" fill="#F4D59D"/>
<path d="M61.5653 86.8279C56.8438 86.7823 52.3275 84.7251 48.9887 81.099C45.65 77.4729 43.7557 72.5679 43.7136 67.44C43.6716 62.3121 45.4851 57.3713 48.7639 53.6812C52.0427 49.9911 56.5245 47.8468 61.2446 47.71H61.5796C66.2964 47.7171 70.8229 49.731 74.1887 53.3199C77.5545 56.9088 79.4916 61.7871 79.5849 66.9089C79.6669 72.0945 77.852 77.1037 74.5381 80.8378C71.2241 84.572 66.6818 86.7262 61.9074 86.8279H61.5653ZM61.5653 50.0324H61.2659C58.1281 50.0983 55.0787 51.1733 52.5035 53.1216C49.9283 55.0698 47.9429 57.8037 46.7984 60.9775C45.6539 64.1513 45.4017 67.6225 46.0738 70.952C46.7458 74.2815 48.3119 77.3197 50.5739 79.6824C52.0683 81.2624 53.8379 82.5028 55.779 83.3309C57.7202 84.1591 59.794 84.5584 61.8789 84.5054C66.0861 84.4139 70.0882 82.5142 73.0078 79.2229C75.9274 75.9316 77.5261 71.5172 77.4536 66.9477C77.3697 62.4337 75.661 58.1351 72.6937 54.9731C69.7264 51.8112 65.7366 50.0376 61.5796 50.0324H61.5653Z" fill="#283133"/>
<path d="M42.8834 20.8312V19.6699C42.8227 16.4333 43.8705 13.2874 45.8236 10.8418C47.7767 8.39618 50.4961 6.82505 53.4549 6.43276C56.4137 6.04047 59.4013 6.85495 61.8387 8.71843C64.2762 10.5819 65.99 13.3617 66.648 16.5191L66.8904 17.6494L64.8019 18.1603L64.5667 17.0301C64.015 14.443 62.6014 12.1692 60.5982 10.6465C58.595 9.12387 56.1439 8.4601 53.717 8.78309C51.2901 9.10608 49.059 10.393 47.4536 12.3959C45.8482 14.3988 44.9819 16.9761 45.0217 19.6313V20.7925L42.8834 20.8312Z" fill="#283133"/>
<path d="M66.3183 15.3695L64.2637 16.0132L75.8618 59.6832L77.9164 59.0396L66.3183 15.3695Z" fill="#283133"/>
<path d="M44.9838 18.4872L42.8457 18.5249L43.6003 69.0084L45.7384 68.9708L44.9838 18.4872Z" fill="#283133"/>
<path d="M61.5653 86.8279C56.8438 86.7823 52.3275 84.7251 48.9887 81.099C45.65 77.4729 43.7557 72.5679 43.7136 67.44C43.6716 62.3121 45.4851 57.3713 48.7639 53.6812C52.0427 49.9911 56.5245 47.8468 61.2446 47.71H61.5796C66.2964 47.7171 70.8229 49.731 74.1887 53.3199C77.5545 56.9088 79.4916 61.7871 79.5849 66.9089C79.6669 72.0945 77.852 77.1037 74.5381 80.8378C71.2241 84.572 66.6818 86.7262 61.9074 86.8279H61.5653ZM61.5653 50.0324H61.2659C58.1281 50.0983 55.0787 51.1733 52.5035 53.1216C49.9283 55.0698 47.9429 57.8037 46.7984 60.9775C45.6539 64.1513 45.4017 67.6225 46.0738 70.952C46.7458 74.2815 48.3119 77.3197 50.5739 79.6824C52.0683 81.2624 53.8379 82.5028 55.779 83.3309C57.7202 84.1591 59.794 84.5584 61.8789 84.5054C66.0861 84.4139 70.0882 82.5142 73.0078 79.2229C75.9274 75.9316 77.5261 71.5172 77.4536 66.9477C77.3697 62.4337 75.661 58.1351 72.6937 54.9731C69.7264 51.8112 65.7366 50.0376 61.5796 50.0324H61.5653Z" fill="#323232"/>
<path d="M42.8834 20.8312V19.6699C42.8227 16.4333 43.8705 13.2874 45.8236 10.8418C47.7767 8.39618 50.4961 6.82505 53.4549 6.43276C56.4137 6.04047 59.4013 6.85495 61.8387 8.71843C64.2762 10.5819 65.99 13.3617 66.648 16.5191L66.8904 17.6494L64.8019 18.1603L64.5667 17.0301C64.015 14.443 62.6014 12.1692 60.5982 10.6465C58.595 9.12387 56.1439 8.4601 53.717 8.78309C51.2901 9.10608 49.059 10.393 47.4536 12.3959C45.8482 14.3988 44.9819 16.9761 45.0217 19.6313V20.7925L42.8834 20.8312Z" fill="#323232"/>
<path d="M66.3183 15.3695L64.2637 16.0132L75.8618 59.6832L77.9164 59.0396L66.3183 15.3695Z" fill="#323232"/>
<path d="M44.9838 18.4872L42.8457 18.5249L43.6003 69.0084L45.7384 68.9708L44.9838 18.4872Z" fill="#283133"/>
<path d="M18.3269 86.8282H17.9848C13.2104 86.7265 8.6681 84.5723 5.35417 80.8382C2.04023 77.1041 0.225275 72.0949 0.307355 66.9093H1.37656H0.307355C0.371944 63.0564 1.4828 59.3101 3.50058 56.1404C5.51835 52.9706 8.35315 50.5187 11.6493 49.0923C14.9453 47.6658 18.5559 47.3284 22.0279 48.1224C25.5 48.9163 28.6787 50.8062 31.1654 53.555C33.6521 56.3038 35.3359 59.789 36.0056 63.5733C36.6752 67.3575 36.3009 71.2723 34.9295 74.8264C33.5582 78.3805 31.251 81.4155 28.2973 83.5507C25.3436 85.6859 21.8751 86.8261 18.3269 86.8282ZM18.3269 50.0328C14.1696 50.0774 10.1942 51.8917 7.25533 55.0857C4.31646 58.2796 2.64864 62.5984 2.61036 67.1136C2.57208 71.6289 4.16639 75.9802 7.05061 79.2324C9.93484 82.4846 13.8788 84.3781 18.0347 84.5058C22.2432 84.5887 26.3099 82.8537 29.3412 79.6819C32.3725 76.5102 34.1205 72.1612 34.201 67.5906C34.2735 63.021 32.6748 58.6067 29.7552 55.3154C26.8356 52.024 22.8335 50.1244 18.6263 50.0328H18.3269Z" fill="#323232"/>
<path d="M37.009 20.8312L34.8706 20.7925V19.6313C34.9104 16.9761 34.0442 14.3988 32.4388 12.3959C30.8334 10.393 28.6023 9.10608 26.1754 8.78309C23.7485 8.4601 21.2973 9.12387 19.2941 10.6465C17.2909 12.1692 15.8773 14.443 15.3257 17.0301L15.0905 18.1603L13.002 17.6494L13.2443 16.5191C13.9024 13.3617 15.6162 10.5819 18.0536 8.71843C20.4911 6.85495 23.4786 6.04047 26.4375 6.43276C29.3963 6.82505 32.1157 8.39618 34.0688 10.8418C36.0219 13.2874 37.0697 16.4333 37.009 19.6699V20.8312Z" fill="#323232"/>
<path d="M13.5622 15.3482L1.95703 59.0161L4.01156 59.6602L15.6168 15.9922L13.5622 15.3482Z" fill="#323232"/>
<path d="M34.8913 18.4979L34.1367 68.9814L36.2749 69.0191L37.0294 18.5356L34.8913 18.4979Z" fill="#323232"/>
<path d="M36.568 47.7795L34.4296 47.7408V46.5796C34.4853 43.2046 33.4421 39.9166 31.4841 37.2952C29.526 34.6738 26.7787 32.8873 23.7264 32.2506C20.6742 31.6139 17.513 32.1679 14.8001 33.8149C12.0871 35.4619 9.99661 38.0962 8.89707 41.2535L8.51929 42.345L6.52344 41.5244L6.90124 40.4329C8.18095 36.7666 10.6108 33.7084 13.7628 31.7968C16.9148 29.8852 20.5869 29.2429 24.1321 29.983C27.6774 30.7231 30.8684 32.7981 33.1433 35.8426C35.4182 38.8871 36.631 42.7058 36.568 46.6261V47.7795Z" fill="#323232"/>
<path d="M43.2973 47.7795V46.6183C43.2343 42.698 44.447 38.8793 46.7219 35.8348C48.9968 32.7903 52.1879 30.7153 55.7331 29.9752C59.2784 29.2351 62.9504 29.8774 66.1024 31.789C69.2544 33.7006 71.6843 36.7588 72.964 40.4251L73.3417 41.5167L71.3459 42.3373L70.9681 41.2457C69.9923 38.4869 68.2592 36.1206 66.0038 34.4672C63.7483 32.8139 61.0794 31.9534 58.3587 32.0023C54.8668 32.0756 51.5444 33.6511 49.1214 36.3829C46.6983 39.1147 45.3727 42.7793 45.4357 46.5719V47.7331L43.2973 47.7795Z" fill="#323232"/>
<path d="M39.7756 59.3997C38.7422 59.3997 37.7321 59.0669 36.8729 58.4433C36.0136 57.8198 35.344 56.9335 34.9485 55.8967C34.5531 54.8598 34.4496 53.7188 34.6512 52.6181C34.8528 51.5173 35.3504 50.5062 36.0811 49.7126C36.8118 48.919 37.7428 48.3785 38.7563 48.1596C39.7698 47.9406 40.8203 48.053 41.7751 48.4825C42.7298 48.912 43.5458 49.6393 44.1199 50.5725C44.694 51.5057 45.0004 52.6028 45.0004 53.7251C44.9985 55.2294 44.4475 56.6716 43.468 57.7353C42.4886 58.7991 41.1607 59.3976 39.7756 59.3997ZM39.7756 50.373C39.1652 50.373 38.5684 50.5696 38.0609 50.9379C37.5533 51.3063 37.1577 51.8298 36.9241 52.4423C36.6905 53.0548 36.6294 53.7288 36.7485 54.3791C36.8676 55.0293 37.1615 55.6266 37.5932 56.0954C38.0248 56.5642 38.5748 56.8834 39.1735 57.0128C39.7722 57.1421 40.3928 57.0757 40.9567 56.822C41.5207 56.5683 42.0027 56.1387 42.3419 55.5874C42.681 55.0362 42.862 54.3881 42.862 53.7251C42.862 52.8361 42.5369 51.9834 41.958 51.3548C41.3792 50.7262 40.5942 50.373 39.7756 50.373Z" fill="#323232"/>
<path d="M45.1716 32.8076H43.0332V31.6696C43.0332 30.7764 42.7065 29.9199 42.125 29.2883C41.5435 28.6568 40.7548 28.302 39.9325 28.302C39.1101 28.302 38.3214 28.6568 37.7399 29.2883C37.1584 29.9199 36.8318 30.7764 36.8318 31.6696V32.8308H34.6934V31.6696C34.6934 30.9223 34.8289 30.1824 35.0922 29.4921C35.3554 28.8017 35.7414 28.1745 36.2279 27.6461C36.7144 27.1177 37.2919 26.6986 37.9275 26.4126C38.5632 26.1267 39.2445 25.9795 39.9325 25.9795C40.6205 25.9795 41.3018 26.1267 41.9374 26.4126C42.573 26.6986 43.1506 27.1177 43.6371 27.6461C44.1236 28.1745 44.5095 28.8017 44.7728 29.4921C45.0361 30.1824 45.1716 30.9223 45.1716 31.6696V32.8076Z" fill="#323232"/>
<path d="M45.3566 42.9025H43.2182V41.7335C43.2182 40.787 42.872 39.8793 42.2558 39.21C41.6395 38.5407 40.8037 38.1647 39.9322 38.1647C39.0607 38.1647 38.2249 38.5407 37.6087 39.21C36.9924 39.8793 36.6462 40.787 36.6462 41.7335V42.8947H34.5078V41.7335C34.5078 40.1711 35.0793 38.6726 36.0966 37.5678C37.1139 36.463 38.4936 35.8423 39.9322 35.8423C41.3709 35.8423 42.7506 36.463 43.7679 37.5678C44.7851 38.6726 45.3566 40.1711 45.3566 41.7335V42.9025Z" fill="#323232"/>
<path d="M62.4833 82.3531H61.4141C57.7742 82.3491 54.2845 80.7768 51.7107 77.9815C49.1369 75.1862 47.6893 71.3961 47.6855 67.443V66.2817H49.824V67.443C49.8277 70.7802 51.0501 73.9795 53.2228 76.3393C55.3956 78.6991 58.3414 80.0266 61.4141 80.0307H62.4833V82.3531Z" fill="#323232"/>
<path d="M19.2098 81.9896H18.1406C14.5008 81.9855 11.011 80.4133 8.43727 77.618C5.86349 74.8227 4.41588 71.0326 4.41211 67.0794V65.9182H6.55051V67.0794C6.55616 70.416 7.77908 73.6142 9.95143 75.9735C12.1238 78.3328 15.0685 79.661 18.1406 79.6672H19.2098V81.9896Z" fill="#323232"/>
<path d="M33.7241 11.8047L31.6356 11.3402L31.8495 10.2022C32.1331 8.71568 31.8613 7.16774 31.094 5.89885C30.3267 4.62996 29.1267 3.74408 27.758 3.4361C26.3893 3.12813 24.9641 3.42327 23.7958 4.25661C22.6274 5.08995 21.8118 6.39323 21.5282 7.87973L21.3144 9.01773L19.2188 8.55326L19.4326 7.41526C19.8267 5.32512 20.9692 3.49064 22.6088 2.31539C24.2483 1.14015 26.2505 0.720406 28.175 1.14849C30.0995 1.57658 31.7886 2.81743 32.8707 4.59809C33.9528 6.37874 34.3393 8.55332 33.9451 10.6435L33.7241 11.8047Z" fill="#283133"/>
<path d="M45.8045 11.3867L45.6548 10.2332C45.4987 9.1805 45.5368 8.10456 45.767 7.06798C45.9973 6.0314 46.415 5.05488 46.9958 4.19522C47.5767 3.33556 48.3092 2.60993 49.1506 2.06052C49.9921 1.5111 50.9257 1.14888 51.8972 0.994922C52.8687 0.840963 53.8587 0.898354 54.8097 1.16372C55.7606 1.4291 56.6534 1.89715 57.4362 2.5407C58.2191 3.18424 58.8763 3.99041 59.3696 4.91232C59.863 5.83423 60.1826 6.85348 60.31 7.91079L60.4668 9.06426L58.3284 9.38942L58.1716 8.24366C57.9704 6.74416 57.2304 5.39231 56.1136 4.48404C54.9967 3.57576 53.594 3.18507 52.2126 3.39749C50.8305 3.61591 49.5846 4.42071 48.7481 5.63542C47.9116 6.85012 47.5528 8.37554 47.7504 9.87714L47.9001 11.0229L45.8045 11.3867Z" fill="#323232"/>
</svg>
