<svg width="355" height="126" viewBox="0 0 355 126" fill="none" xmlns="http://www.w3.org/2000/svg">
<path d="M186.032 122.454C185.923 120.566 187.355 118.95 189.223 118.827C191.105 118.718 192.728 120.155 192.837 122.03C192.96 123.919 191.528 125.548 189.646 125.657C189.578 125.657 189.51 125.671 189.441 125.671C187.655 125.671 186.141 124.275 186.032 122.454ZM165.767 125.657C163.885 125.534 162.466 123.905 162.575 122.016C162.698 120.141 164.307 118.704 166.189 118.814C168.071 118.937 169.503 120.566 169.381 122.454C169.272 124.261 167.771 125.657 165.985 125.657C165.917 125.657 165.835 125.657 165.767 125.657ZM209.366 119.963C209.011 118.115 210.225 116.322 212.08 115.966C213.935 115.624 215.707 116.843 216.062 118.69C216.417 120.552 215.203 122.345 213.348 122.687C213.13 122.742 212.925 122.755 212.707 122.755C211.098 122.755 209.666 121.606 209.366 119.963ZM142.065 122.673C140.224 122.317 139.01 120.524 139.364 118.663C139.705 116.815 141.492 115.597 143.347 115.939C145.188 116.295 146.401 118.088 146.06 119.936C145.747 121.578 144.315 122.728 142.706 122.728C142.501 122.728 142.283 122.701 142.065 122.673ZM232.223 114.557C231.636 112.75 232.618 110.82 234.404 110.245C236.191 109.657 238.114 110.642 238.7 112.449C239.287 114.242 238.305 116.172 236.505 116.76C236.164 116.87 235.809 116.925 235.455 116.925C234.023 116.925 232.686 116.008 232.223 114.557ZM118.935 116.719C117.135 116.131 116.153 114.201 116.74 112.394C117.326 110.601 119.249 109.616 121.036 110.204C122.822 110.793 123.804 112.723 123.231 114.516C122.754 115.966 121.417 116.884 119.985 116.884C119.631 116.884 119.276 116.829 118.935 116.719ZM254.193 106.289C253.402 104.579 254.124 102.539 255.829 101.732C257.534 100.924 259.566 101.663 260.37 103.374C261.175 105.085 260.439 107.124 258.734 107.918C258.27 108.151 257.779 108.247 257.288 108.247C256.006 108.247 254.779 107.521 254.193 106.289ZM96.7197 107.877C95.015 107.07 94.2922 105.03 95.0968 103.319C95.9015 101.608 97.9335 100.883 99.6245 101.69C101.329 102.498 102.066 104.524 101.261 106.235C100.675 107.48 99.4472 108.206 98.1789 108.206C97.688 108.206 97.197 108.096 96.7197 107.877ZM274.963 95.3121C273.953 93.7107 274.431 91.6028 276.013 90.5899C277.595 89.5771 279.708 90.0425 280.718 91.6439C281.727 93.2317 281.263 95.3395 279.668 96.3661C279.108 96.7219 278.467 96.8999 277.84 96.8999C276.722 96.8999 275.617 96.3387 274.963 95.3121ZM75.8134 96.3113C74.2178 95.2985 73.7541 93.1769 74.7632 91.5891C75.7724 89.9877 77.8863 89.5224 79.4682 90.5352C81.0638 91.5481 81.5275 93.6696 80.5183 95.2574C79.8637 96.2839 78.7591 96.8451 77.6408 96.8451C77.0135 96.8451 76.3725 96.6672 75.8134 96.3113ZM294.192 81.8026C292.991 80.3518 293.196 78.1891 294.642 76.9847C296.101 75.7802 298.242 75.9855 299.442 77.4363C300.642 78.9009 300.438 81.0498 298.992 82.2543C298.351 82.7881 297.587 83.0482 296.824 83.0482C295.842 83.0482 294.86 82.6239 294.192 81.8026ZM56.5026 82.1996C55.057 81.0088 54.8524 78.8461 56.0525 77.3816C57.2526 75.9307 59.4074 75.7254 60.853 76.9299C62.3122 78.1344 62.5031 80.297 61.303 81.7479C60.6347 82.5691 59.6665 82.9934 58.6846 82.9934C57.9073 82.9934 57.1435 82.7334 56.5026 82.1996ZM311.593 66.0073C310.216 64.707 310.147 62.5443 311.443 61.1619C312.725 59.7932 314.88 59.7248 316.257 61.0114C317.634 62.3117 317.703 64.4743 316.407 65.8567C315.739 66.5685 314.825 66.9244 313.925 66.9244C313.08 66.9244 312.248 66.6232 311.593 66.0073ZM39.101 65.7883C37.8055 64.4195 37.8737 62.2569 39.2511 60.9566C40.6148 59.6563 42.7832 59.7248 44.0651 61.1072C45.3607 62.4896 45.2925 64.6522 43.9151 65.9389C43.2605 66.5685 42.415 66.8696 41.5831 66.8696C40.6694 66.8696 39.7693 66.5137 39.101 65.7883ZM326.881 48.1588C325.367 47.0365 325.026 44.9012 326.144 43.3682C326.144 43.3682 326.144 43.3682 326.131 43.3682C327.249 41.8353 329.376 41.5067 330.904 42.6154C332.418 43.7378 332.759 45.873 331.64 47.406C330.972 48.3231 329.936 48.8021 328.885 48.8021C328.19 48.8021 327.494 48.5968 326.881 48.1588ZM23.8679 47.3239C22.7496 45.8046 23.0906 43.6557 24.618 42.547C26.1317 41.4383 28.2728 41.7668 29.3775 43.2998C30.4821 44.8328 30.1412 46.968 28.6274 48.0767C28.0137 48.5284 27.3182 48.7337 26.6227 48.7337C25.5726 48.7337 24.5225 48.241 23.8679 47.3239ZM339.836 28.5311C338.186 27.614 337.586 25.5335 338.5 23.8773C339.414 22.2211 341.487 21.6189 343.137 22.5359C344.773 23.453 345.373 25.5335 344.473 27.1897C343.846 28.312 342.687 28.9554 341.487 28.9554C340.927 28.9554 340.355 28.8185 339.836 28.5311ZM11.0486 27.0939C10.1349 25.4377 10.7349 23.3572 12.3851 22.4401C14.0352 21.5368 16.1081 22.139 17.0082 23.7952C17.9219 25.4514 17.3219 27.5319 15.6717 28.4352C15.1535 28.7227 14.5807 28.8595 14.0352 28.8595C12.8215 28.8595 11.6623 28.2299 11.0486 27.0939ZM350.242 7.43868C348.483 6.74062 347.637 4.75594 348.319 2.99026C349.014 1.23826 351.006 0.375961 352.751 1.07402C354.497 1.77208 355.356 3.77045 354.66 5.52244C354.129 6.86381 352.847 7.68504 351.497 7.68504C351.074 7.68504 350.651 7.60293 350.242 7.43868ZM0.847707 5.39924C0.152192 3.63356 1.01136 1.64888 2.77061 0.950818C4.51621 0.252758 6.49365 1.11508 7.18916 2.86707C7.88468 4.63276 7.02552 6.61744 5.27991 7.3155C4.87079 7.47975 4.448 7.56186 4.02524 7.56186C2.66148 7.56186 1.37957 6.74061 0.847707 5.39924Z" fill="#4D4D4D"/>
</svg>
