<svg width="238" height="85" viewBox="0 0 238 85" fill="none" xmlns="http://www.w3.org/2000/svg">
<path d="M1.59666 84.1256C0.417397 83.6577 -0.158496 82.3273 0.307723 81.1437C0.773943 79.9693 2.09947 79.3913 3.27873 79.8592C4.44885 80.3271 5.02473 81.6575 4.55852 82.8319C4.20199 83.7311 3.34274 84.2816 2.43772 84.2816C2.15433 84.2816 1.87091 84.2357 1.59666 84.1256ZM233.235 82.7585H233.226C232.759 81.575 233.335 80.2446 234.505 79.7766C235.685 79.3087 237.01 79.8867 237.476 81.0611C237.943 82.2355 237.367 83.5751 236.197 84.0339C235.922 84.1531 235.63 84.199 235.356 84.199C234.441 84.199 233.582 83.6485 233.235 82.7585ZM8.04145 69.7208C6.93532 69.1061 6.5331 67.7115 7.13644 66.6013C7.74893 65.4911 9.13847 65.0874 10.2446 65.7022C11.3507 66.3077 11.7529 67.7023 11.1405 68.8125C10.7291 69.574 9.9429 70.0053 9.13845 70.0053C8.76364 70.0053 8.38883 69.9135 8.04145 69.7208ZM226.644 68.7575C226.031 67.6473 226.433 66.2527 227.54 65.638C228.646 65.0232 230.035 65.4269 230.648 66.5371C231.251 67.6473 230.849 69.0419 229.752 69.6566C229.395 69.8493 229.02 69.941 228.646 69.941C227.841 69.941 227.064 69.5098 226.644 68.7575ZM16.2323 56.2427C15.2176 55.4995 14.9891 54.0591 15.7387 53.0406C15.7387 53.0406 15.7387 53.0406 15.7295 53.0406C16.4791 52.013 17.9052 51.7837 18.9291 52.5269C19.9438 53.2792 20.1723 54.7105 19.4319 55.7381C18.9839 56.3528 18.2891 56.6831 17.5852 56.6831C17.1099 56.6831 16.6437 56.5363 16.2323 56.2427ZM218.352 55.6922C217.612 54.6646 217.84 53.2333 218.855 52.481C219.879 51.7378 221.305 51.9672 222.055 52.9856C222.795 54.0132 222.566 55.4445 221.552 56.1969C221.14 56.4905 220.674 56.6281 220.208 56.6281C219.504 56.6281 218.8 56.307 218.352 55.6922ZM26.0503 43.9023C25.127 43.0307 25.0813 41.5811 25.9498 40.6544C26.8091 39.7369 28.2626 39.691 29.1768 40.5535C30.1001 41.4251 30.1458 42.8747 29.2773 43.8014C28.8294 44.2785 28.226 44.5262 27.6136 44.5262C27.0559 44.5262 26.4891 44.3152 26.0503 43.9023ZM208.507 43.7647C207.638 42.838 207.684 41.3884 208.607 40.5168C209.521 39.6543 210.966 39.691 211.834 40.6177C212.703 41.5444 212.657 42.994 211.734 43.8656C211.295 44.2785 210.728 44.4804 210.171 44.4804C209.558 44.4804 208.955 44.2418 208.507 43.7647ZM37.3127 32.8831C36.5083 31.9106 36.6454 30.4609 37.6144 29.6535C37.6144 29.6535 37.6144 29.6535 37.6144 29.6627C38.5834 28.8461 40.0278 28.9838 40.8323 29.9563C41.6367 30.938 41.4996 32.3785 40.5306 33.1859V33.1951C40.1009 33.5437 39.589 33.7181 39.0771 33.7181C38.4189 33.7181 37.7698 33.4336 37.3127 32.8831ZM197.244 33.1584C196.275 32.3418 196.138 30.9013 196.943 29.9288C197.747 28.9471 199.192 28.8094 200.161 29.626C200.161 29.626 200.161 29.626 200.161 29.6168C201.13 30.4242 201.267 31.8739 200.462 32.8464C200.014 33.3969 199.356 33.6814 198.698 33.6814C198.186 33.6814 197.674 33.507 197.244 33.1584ZM49.855 23.3687C49.1785 22.3043 49.4893 20.8822 50.5589 20.2033C51.6193 19.5243 53.0362 19.8363 53.7127 20.9097C54.3892 21.974 54.0784 23.3962 53.0088 24.0751C52.634 24.3137 52.2044 24.433 51.7839 24.433C51.0342 24.433 50.2938 24.0568 49.855 23.3687ZM184.757 24.0384C183.687 23.3595 183.377 21.9465 184.053 20.873C184.73 19.8087 186.147 19.4876 187.207 20.1666C188.277 20.8455 188.587 22.2676 187.911 23.3319C187.481 24.0201 186.741 24.3962 185.982 24.3962C185.561 24.3962 185.141 24.2862 184.757 24.0384ZM63.485 15.5057C62.9457 14.3588 63.4302 12.9917 64.5729 12.4504C65.7156 11.9091 67.0777 12.4045 67.617 13.5422C68.1564 14.6891 67.6627 16.0562 66.52 16.5975C66.2092 16.7443 65.8801 16.8177 65.551 16.8177C64.6917 16.8177 63.869 16.3314 63.485 15.5057ZM171.227 16.57C170.085 16.0286 169.6 14.6616 170.131 13.5147C170.67 12.3678 172.032 11.8815 173.175 12.4137C174.317 12.955 174.811 14.3221 174.272 15.469C173.879 16.2947 173.056 16.7902 172.196 16.7902C171.877 16.7902 171.538 16.7168 171.227 16.57ZM77.9927 9.41345C77.5996 8.21152 78.2578 6.91785 79.4645 6.52332C80.662 6.13797 81.951 6.7894 82.3441 8.0005C82.728 9.20243 82.0698 10.4961 80.8723 10.8906C80.6438 10.964 80.4061 11.0007 80.1684 11.0007C79.1994 11.0007 78.3035 10.386 77.9927 9.41345ZM156.866 10.8631C155.669 10.4686 155.01 9.1749 155.394 7.97297C155.787 6.77105 157.076 6.11045 158.274 6.4958C159.481 6.89032 160.139 8.184 159.746 9.38592C159.435 10.3585 158.539 10.9732 157.57 10.9732C157.341 10.9732 157.104 10.9365 156.866 10.8631ZM93.1494 5.22047C92.9209 3.97267 93.7345 2.77074 94.9686 2.53219C96.2118 2.30281 97.4094 3.11939 97.647 4.35802C97.8756 5.60582 97.062 6.80774 95.8279 7.0463C95.6816 7.07382 95.5354 7.083 95.3983 7.083C94.3195 7.083 93.3597 6.32147 93.1494 5.22047ZM141.901 7.02794C140.658 6.78939 139.844 5.58747 140.082 4.34884C140.311 3.10104 141.508 2.28446 142.752 2.51384C143.995 2.75239 144.808 3.95431 144.571 5.19294C144.36 6.29394 143.41 7.06465 142.331 7.06465C142.185 7.06465 142.048 7.05547 141.901 7.02794ZM108.717 2.96341C108.644 1.70644 109.595 0.614611 110.857 0.532036C112.118 0.458636 113.206 1.41284 113.279 2.67899C113.361 3.94514 112.402 5.03697 111.14 5.11037C111.094 5.11954 111.049 5.11954 110.994 5.11954C109.796 5.11954 108.791 4.18369 108.717 2.96341ZM126.58 5.11037C125.328 5.02779 124.368 3.94514 124.441 2.67899C124.523 1.41284 125.602 0.44946 126.863 0.532036C128.125 0.605436 129.085 1.69726 129.003 2.96341C128.929 4.17451 127.924 5.11037 126.726 5.11037C126.681 5.11037 126.635 5.11037 126.58 5.11037Z" fill="#4D4D4D"/>
</svg>
