<svg width="29" height="24" viewBox="0 0 29 24" fill="none" xmlns="http://www.w3.org/2000/svg">
<path d="M28.2037 13.9707H13.3281C13.1802 13.9707 13.0385 14.0299 12.9344 14.1353C12.8302 14.2406 12.7723 14.3832 12.7735 14.5316L12.8302 21.7186C12.8327 22.0242 13.0803 22.2707 13.3849 22.2707H18.2784C18.5847 22.2707 18.833 22.0215 18.833 21.7142C18.833 21.4069 18.5847 21.1577 18.2784 21.1577H13.9351L13.8871 15.0837H27.6534L27.7014 21.1577H23.3101C23.0038 21.1577 22.7555 21.4069 22.7555 21.7142C22.7555 22.0215 23.0038 22.2707 23.3101 22.2707H28.2605C28.4084 22.2707 28.5502 22.2115 28.6543 22.1061C28.7584 22.0008 28.8163 21.8581 28.8152 21.7098L28.7584 14.5228C28.7559 14.2171 28.5083 13.9707 28.2037 13.9707V13.9707Z" fill="#FDA100"/>
<path d="M21.3161 21.501C21.2267 21.2857 21.0068 21.1454 20.7742 21.158C20.5435 21.1705 20.3408 21.3309 20.2734 21.5524C20.207 21.7707 20.2849 22.0175 20.4663 22.1557C20.6541 22.2989 20.9154 22.3074 21.112 22.1768C21.3304 22.0318 21.4148 21.7429 21.3161 21.501Z" fill="#FDA100"/>
<path d="M5.55944 12.9619C2.72442 12.9619 0.417969 15.2765 0.417969 18.1214C0.417969 20.9664 2.72442 23.2809 5.55944 23.2809C8.39445 23.2809 10.701 20.9664 10.701 18.1214C10.701 15.2765 8.39445 12.9619 5.55944 12.9619ZM5.55944 22.168C3.33606 22.168 1.52721 20.3527 1.52721 18.1214C1.52721 15.8901 3.33606 14.0749 5.55944 14.0749C7.78286 14.0749 9.59171 15.8901 9.59171 18.1214C9.59171 20.3527 7.78286 22.168 5.55944 22.168Z" fill="#FDA100"/>
<path d="M5.55944 0.819336C2.72442 0.819336 0.417969 3.13384 0.417969 5.97883C0.417969 8.82377 2.72442 11.1383 5.55944 11.1383C8.39445 11.1383 10.701 8.82377 10.701 5.97883C10.701 3.13384 8.39445 0.819336 5.55944 0.819336V0.819336ZM5.55944 10.0254C3.33606 10.0254 1.52721 8.21009 1.52721 5.97883C1.52721 3.74752 3.33606 1.93224 5.55944 1.93224C7.78286 1.93224 9.59171 3.74752 9.59171 5.97883C9.59171 8.21009 7.78286 10.0254 5.55944 10.0254Z" fill="#FDA100"/>
<path d="M7.00931 4.52531C6.79279 4.30793 6.44154 4.30799 6.22496 4.52537L5.56047 5.19225L4.89603 4.52537C4.67956 4.3081 4.32832 4.30804 4.11168 4.52531C3.8951 4.74258 3.89505 5.09497 4.11163 5.31234L4.77623 5.97934L4.11163 6.64633C3.89505 6.86365 3.8951 7.21604 4.11168 7.43336C4.21994 7.54205 4.36187 7.59637 4.5038 7.59637C4.64573 7.59637 4.78771 7.54199 4.89598 7.43331L5.56047 6.76643L6.22496 7.43331C6.33323 7.54199 6.47521 7.59637 6.61714 7.59637C6.75907 7.59637 6.901 7.542 7.00926 7.43336C7.22584 7.2161 7.22589 6.86371 7.00931 6.64633L6.34471 5.97934L7.00931 5.31234C7.22595 5.09502 7.22589 4.74263 7.00931 4.52531V4.52531Z" fill="#FDA100"/>
<path d="M13.3849 10.1288H28.2605C28.4084 10.1288 28.5502 10.0696 28.6543 9.96424C28.7584 9.85889 28.8163 9.71627 28.8152 9.56791L28.7584 2.38119C28.7559 2.07557 28.5083 1.8291 28.2037 1.8291H13.3281C13.1802 1.8291 13.0385 1.88837 12.9344 1.99365C12.8302 2.09899 12.7723 2.24162 12.7735 2.38998L12.8302 9.5767C12.8327 9.88232 13.0803 10.1288 13.3849 10.1288V10.1288ZM27.6535 2.94201L27.7015 9.01577H13.9351L13.8871 2.94201H27.6535Z" fill="#FDA100"/>
<path d="M16.8085 5.3638H25.783C26.0893 5.3638 26.3376 5.11464 26.3376 4.80739C26.3376 4.50014 26.0893 4.25098 25.783 4.25098H16.8085C16.5023 4.25098 16.2539 4.50014 16.2539 4.80739C16.2539 5.11464 16.5023 5.3638 16.8085 5.3638Z" fill="#FDA100"/>
<path d="M16.8085 7.70657H22.5912C22.8976 7.70657 23.1459 7.45746 23.1459 7.15016C23.1459 6.84291 22.8976 6.59375 22.5912 6.59375H16.8085C16.5023 6.59375 16.2539 6.84291 16.2539 7.15016C16.2539 7.45746 16.5023 7.70657 16.8085 7.70657Z" fill="#FDA100"/>
<path d="M16.8085 17.6851H25.783C26.0893 17.6851 26.3376 17.4359 26.3376 17.1287C26.3376 16.8214 26.0893 16.5723 25.783 16.5723H16.8085C16.5023 16.5723 16.2539 16.8214 16.2539 17.1287C16.2539 17.4359 16.5023 17.6851 16.8085 17.6851Z" fill="#FDA100"/>
<path d="M23.1459 19.4716C23.1459 19.1643 22.8976 18.915 22.5912 18.915H16.8085C16.5023 18.915 16.2539 19.1643 16.2539 19.4716C16.2539 19.7789 16.5023 20.0281 16.8085 20.0281H22.5912C22.8975 20.0281 23.1459 19.779 23.1459 19.4716Z" fill="#FDA100"/>
<path d="M6.96288 16.8C6.71485 16.6199 6.36805 16.6757 6.1884 16.9246L5.30639 18.1475L4.86535 17.7251C4.64389 17.5128 4.29276 17.5209 4.08123 17.7432C3.8697 17.9655 3.87779 18.3178 4.09937 18.53L5.00007 19.3929C5.10367 19.4921 5.24105 19.5469 5.38298 19.5469C5.39979 19.5469 5.41665 19.5461 5.43345 19.5446C5.59296 19.53 5.73844 19.4468 5.83234 19.3166L7.087 17.577C7.26664 17.3281 7.21107 16.9802 6.96288 16.8V16.8Z" fill="#FDA100"/>
</svg>
