<svg width="51" height="45" viewBox="0 0 51 45" fill="none" xmlns="http://www.w3.org/2000/svg">
<path d="M0.985352 22.2146C0.985352 16.6302 1.5854 12.3186 2.77187 9.28003C3.97198 6.22775 5.6494 3.92828 7.83141 2.35423C10.0134 0.780182 12.4409 0 15.1411 0C17.8687 0 20.3507 0.793882 22.56 2.36793C24.7693 3.95566 26.5285 6.32357 27.8241 9.48536C29.1196 12.6471 29.7606 16.8902 29.7606 22.2283C29.7606 27.539 29.1196 31.7684 27.8513 34.9165C26.5831 38.0646 24.8238 40.4325 22.5872 42.0339C20.3507 43.6353 17.8687 44.4292 15.1411 44.4292C12.4409 44.4292 10.0271 43.649 7.85868 42.1024C5.70395 40.5557 4.01289 38.2288 2.79915 35.1628C1.59904 32.0695 0.985352 27.758 0.985352 22.2146ZM4.96752 22.283C4.96752 27.0599 5.39028 30.6734 6.23581 33.1234C7.08134 35.5735 8.336 37.4213 9.99978 38.6942C11.6636 39.9671 13.4228 40.5967 15.2775 40.5967C17.1459 40.5967 18.8915 39.9808 20.5143 38.7353C22.1372 37.5034 23.3646 35.6419 24.2101 33.1645C25.2602 30.1533 25.7921 26.5261 25.7921 22.283C25.7921 18.0263 25.3284 14.536 24.3874 11.8259C23.4464 9.11578 22.1509 7.13113 20.5007 5.87189C18.8506 4.61265 17.1049 3.98303 15.2775 3.98303C13.4092 3.98303 11.6499 4.61265 9.99978 5.87189C8.36327 7.13113 7.10862 8.97892 6.24945 11.429C5.40392 13.8653 4.96752 17.4925 4.96752 22.283Z" fill="#4C4C4C"/>
<path d="M42.5117 1.05371H50.7897V43.3618H46.603V5.18735H39.9888L42.5117 1.05371Z" fill="#4C4C4C"/>
</svg>
