<svg width="27" height="27" viewBox="0 0 27 27" fill="none" xmlns="http://www.w3.org/2000/svg">
<path d="M9.65725 20.7087H3.22088C1.74159 20.7087 0.539062 19.5011 0.539062 18.0179V5.10195C0.539062 3.61877 1.74159 2.41113 3.22088 2.41113H19.3118C20.7911 2.41113 21.9936 3.61877 21.9936 5.10195V9.40726C21.9936 9.7054 21.7533 9.94543 21.4573 9.94543C21.1612 9.94543 20.9209 9.7054 20.9209 9.40726V5.10195C20.9209 4.21183 20.199 3.48746 19.3118 3.48746H3.22088C2.33374 3.48746 1.61179 4.21183 1.61179 5.10195V18.0179C1.61179 18.908 2.33374 19.6324 3.22088 19.6324H9.65725C9.95333 19.6324 10.1936 19.8735 10.1936 20.1705C10.1936 20.4676 9.95333 20.7087 9.65725 20.7087Z" fill="#FDA100"/>
<path d="M21.4573 7.79397H1.07543C0.779354 7.79397 0.539062 7.5529 0.539062 7.25587C0.539062 6.95884 0.779354 6.71777 1.07543 6.71777H21.4573C21.7533 6.71777 21.9936 6.95884 21.9936 7.25587C21.9936 7.5529 21.7533 7.79397 21.4573 7.79397Z" fill="#FDA100"/>
<path d="M5.36839 5.6406C5.07232 5.6406 4.83203 5.3995 4.83203 5.10242V0.796971C4.83203 0.499894 5.07232 0.258789 5.36839 0.258789C5.66446 0.258789 5.90475 0.499894 5.90475 0.796971V5.10242C5.90475 5.3995 5.66446 5.6406 5.36839 5.6406Z" fill="#FDA100"/>
<path d="M17.1672 5.6406C16.8711 5.6406 16.6309 5.3995 16.6309 5.10242V0.796971C16.6309 0.499894 16.8711 0.258789 17.1672 0.258789C17.4633 0.258789 17.7036 0.499894 17.7036 0.796971V5.10242C17.7036 5.3995 17.4633 5.6406 17.1672 5.6406Z" fill="#FDA100"/>
<path d="M18.2387 21.7851C18.096 21.7851 17.9598 21.7281 17.859 21.628L15.7135 19.4754C15.5043 19.2655 15.5043 18.9243 15.7135 18.7144C15.9227 18.5045 16.2628 18.5045 16.4719 18.7144L18.2119 20.4602L21.5888 16.5876C21.784 16.3626 22.123 16.3411 22.3451 16.537C22.5682 16.7329 22.5907 17.073 22.3955 17.2969L18.641 21.6022C18.5434 21.7141 18.4039 21.7808 18.2559 21.7851C18.2505 21.7851 18.2451 21.7851 18.2387 21.7851Z" fill="#FDA100"/>
<path d="M19.3145 26.0909C15.4699 26.0909 12.3418 22.9523 12.3418 19.0947C12.3418 15.2372 15.4699 12.0986 19.3145 12.0986C23.1592 12.0986 26.2873 15.2372 26.2873 19.0947C26.2873 22.9523 23.1592 26.0909 19.3145 26.0909ZM19.3145 13.175C16.062 13.175 13.4145 15.8303 13.4145 19.0947C13.4145 22.3592 16.062 25.0145 19.3145 25.0145C22.5671 25.0145 25.2146 22.3592 25.2146 19.0947C25.2146 15.8303 22.5671 13.175 19.3145 13.175Z" fill="#FDA100"/>
</svg>
