<svg width="27" height="26" viewBox="0 0 27 26" fill="none" xmlns="http://www.w3.org/2000/svg">
<path d="M26.0488 24.4699L19.4705 17.975C21.1931 16.0971 22.2516 13.6136 22.2516 10.8807C22.2508 5.03466 17.4516 0.296143 11.5311 0.296143C5.61066 0.296143 0.811523 5.03466 0.811523 10.8807C0.811523 16.7268 5.61066 21.4654 11.5311 21.4654C14.0892 21.4654 16.4354 20.5776 18.2783 19.1017L24.8821 25.6222C25.2039 25.9402 25.7262 25.9402 26.048 25.6222C26.3705 25.3042 26.3705 24.7879 26.0488 24.4699ZM11.5311 19.8369C6.52176 19.8369 2.46089 15.8271 2.46089 10.8807C2.46089 5.93442 6.52176 1.92465 11.5311 1.92465C16.5406 1.92465 20.6014 5.93442 20.6014 10.8807C20.6014 15.8271 16.5406 19.8369 11.5311 19.8369Z" fill="#FDA100"/>
</svg>
