<svg width="42" height="31" viewBox="0 0 42 31" fill="none" xmlns="http://www.w3.org/2000/svg">
<path d="M0.552734 15.7335C0.552734 11.99 0.954961 9.09988 1.75028 7.06301C2.55474 5.01696 3.67914 3.47554 5.14179 2.4204C6.60444 1.36527 8.23165 0.842285 10.0417 0.842285C11.87 0.842285 13.5338 1.37444 15.0147 2.42958C16.4956 3.49389 17.6749 5.08118 18.5433 7.20063C19.4118 9.32008 19.8414 12.1644 19.8414 15.7427C19.8414 19.3026 19.4118 22.1377 18.5616 24.248C17.7115 26.3582 16.5322 27.9455 15.033 29.019C13.5338 30.0925 11.87 30.6247 10.0417 30.6247C8.23165 30.6247 6.6136 30.1017 5.16009 29.0649C3.71572 28.0281 2.58218 26.4683 1.76858 24.4131C0.954979 22.3396 0.552734 19.4494 0.552734 15.7335ZM3.22208 15.7794C3.22208 18.9815 3.50547 21.4037 4.07224 23.046C4.63902 24.6884 5.48005 25.927 6.59532 26.7803C7.7106 27.6336 8.88985 28.0556 10.1331 28.0556C11.3855 28.0556 12.5556 27.6428 13.6435 26.8078C14.7313 25.9821 15.554 24.7343 16.1208 23.0736C16.8247 21.055 17.1812 18.6236 17.1812 15.7794C17.1812 12.9259 16.8704 10.5862 16.2397 8.76958C15.6089 6.95291 14.7404 5.62251 13.6343 4.77841C12.5282 3.9343 11.3581 3.51224 10.1331 3.51224C8.88071 3.51224 7.70145 3.9343 6.59532 4.77841C5.49834 5.62251 4.65731 6.86115 4.08139 8.5035C3.51462 10.1367 3.22208 12.5681 3.22208 15.7794Z" fill="#4C4C4C"/>
<path d="M25.6555 10.4119H22.9496C23.0227 7.61351 23.9551 5.31975 25.7469 3.52144C27.5295 1.72313 29.7418 0.823975 32.3654 0.823975C34.9616 0.823975 37.0641 1.66808 38.6731 3.34711C40.282 5.03533 41.0864 7.01714 41.0864 9.30172C41.0864 10.9074 40.7025 12.4121 39.9346 13.825C39.1667 15.2288 37.6766 17.1372 35.4735 19.5411L28.4345 27.1472H41.4704V29.8814H22.2822L33.0784 18.174C35.2724 15.816 36.6893 14.0728 37.3475 12.935C38.0057 11.7973 38.3348 10.5954 38.3348 9.33843C38.3348 7.74197 37.7406 6.37488 36.5614 5.21882C35.373 4.07194 33.9286 3.49392 32.21 3.49392C30.4091 3.49392 28.9007 4.09947 27.7032 5.3014C26.5056 6.53086 25.82 8.22824 25.6555 10.4119Z" fill="#4C4C4C"/>
</svg>
