<svg width="93" height="102" viewBox="0 0 93 102" fill="none" xmlns="http://www.w3.org/2000/svg">
<path d="M42.7277 17.2021H14.2891V57.3776H42.7277V17.2021Z" fill="#F4D59D"/>
<path d="M33.2285 49.7853H49.2779H63.1341L52.8648 29.3829L63.1341 8.98047H49.2779H33.2285V49.7853Z" fill="white"/>
<path d="M2.06251 7.53912C2.06251 6.46455 2.35593 5.41409 2.90562 4.52061C3.45532 3.62714 4.23663 2.93075 5.15073 2.51953C6.06484 2.10831 7.07066 2.00072 8.04108 2.21036C9.01149 2.42 9.9029 2.93745 10.6025 3.69729C11.3022 4.45713 11.7786 5.42522 11.9716 6.47915C12.1646 7.53308 12.0656 8.62552 11.687 9.6183C11.3083 10.6111 10.6671 11.4596 9.84443 12.0566C9.02176 12.6536 8.05454 12.9723 7.06512 12.9723C6.4079 12.9733 5.75695 12.8335 5.14957 12.5608C4.54219 12.2882 3.99033 11.888 3.52561 11.3833C3.06088 10.8786 2.69242 10.2792 2.44135 9.61954C2.19029 8.95988 2.06154 8.25291 2.06251 7.53912Z" fill="#FDA100"/>
<path d="M9.27966 17.2021V101.807V17.2021V101.807H4.8418V17.2021H9.27966Z" fill="#F4D59D"/>
<path d="M10.3802 17.2021H8.17969V101.807H10.3802V17.2021Z" fill="#283133"/>
<path d="M10.3806 101.807H8.17999V18.3968H5.94275V101.807H3.74219V16.0068H10.3806V101.807Z" fill="#323232"/>
<path d="M43.8287 58.5643H13.1895V16.0068H33.2293V18.3968H15.39V56.1744H41.6281V49.7852H43.8287V58.5643Z" fill="#323232"/>
<path d="M64.9905 50.9727H32.1289V7.77783H64.9905L54.1198 29.3753L64.9905 50.9727ZM34.3295 48.5827H61.2789L51.6112 29.3753L61.2789 10.1678H34.3295V48.5827Z" fill="#323232"/>
<path d="M66.4227 56.0073H54.4883V58.3972H66.4227V56.0073Z" fill="#323232"/>
<path d="M72.1796 56.0073H69.7148V58.3972H72.1796V56.0073Z" fill="#323232"/>
<path d="M86.491 23.9893H74.5566V26.3793H86.491V23.9893Z" fill="#323232"/>
<path d="M92.2477 23.9893H89.7832V26.3793H92.2477V23.9893Z" fill="#323232"/>
<path d="M83.4102 36.0908H64.1699V38.4807H83.4102V36.0908Z" fill="#323232"/>
<path d="M10.3802 17.2021H8.17969V101.807H10.3802V17.2021Z" fill="#323232"/>
<path d="M7.07951 14.167C5.87246 14.167 4.69255 13.7782 3.68893 13.0499C2.68531 12.3216 1.90304 11.2864 1.44112 10.0753C0.979203 8.86417 0.85835 7.53145 1.09383 6.24571C1.32931 4.95997 1.91059 3.77894 2.7641 2.85197C3.6176 1.92501 4.70502 1.29376 5.88887 1.03801C7.07272 0.782258 8.29981 0.913513 9.41497 1.41518C10.5301 1.91685 11.4833 2.7664 12.1539 3.8564C12.8245 4.9464 13.1824 6.22789 13.1824 7.53881C13.1824 8.40924 13.0246 9.27114 12.7179 10.0753C12.4112 10.8795 11.9616 11.6101 11.3949 12.2256C10.8282 12.8411 10.1554 13.3293 9.41497 13.6624C8.67453 13.9955 7.88095 14.167 7.07951 14.167ZM7.07951 3.30858C6.30738 3.30858 5.55262 3.55734 4.91072 4.0234C4.26882 4.48945 3.76863 5.15184 3.47349 5.92673C3.17835 6.70163 3.10151 7.55418 3.25268 8.37653C3.40385 9.19888 3.77626 9.95405 4.32275 10.5465C4.86923 11.1389 5.56524 11.5419 6.3227 11.7045C7.08016 11.8671 7.86501 11.7821 8.57794 11.4601C9.29087 11.1381 9.89985 10.5936 10.3278 9.89559C10.7557 9.19758 10.9833 8.37739 10.9819 7.53881C10.9799 6.41615 10.5679 5.3402 9.83631 4.5471C9.10469 3.75401 8.1132 3.30857 7.07951 3.30858Z" fill="#323232"/>
</svg>
