<svg width="46" height="47" viewBox="0 0 46 47" fill="none" xmlns="http://www.w3.org/2000/svg">
<path d="M16.2915 36.5947H4.79163C2.14857 36.5947 0 34.437 0 31.787V8.71005C0 6.06004 2.14857 3.90234 4.79163 3.90234H33.5414C36.1844 3.90234 38.333 6.06004 38.333 8.71005V16.4024C38.333 16.9351 37.9037 17.3639 37.3747 17.3639C36.8457 17.3639 36.4164 16.9351 36.4164 16.4024V8.71005C36.4164 7.11966 35.1265 5.82543 33.5414 5.82543H4.79163C3.20656 5.82543 1.91665 7.11966 1.91665 8.71005V31.787C1.91665 33.3774 3.20656 34.6716 4.79163 34.6716H16.2915C16.8205 34.6716 17.2499 35.1024 17.2499 35.6332C17.2499 36.164 16.8205 36.5947 16.2915 36.5947Z" fill="#FDA100"/>
<path d="M37.3747 13.5186H0.958325C0.42933 13.5186 0 13.0878 0 12.5571C0 12.0264 0.42933 11.5957 0.958325 11.5957H37.3747C37.9037 11.5957 38.333 12.0264 38.333 12.5571C38.333 13.0878 37.9037 13.5186 37.3747 13.5186Z" fill="#FDA100"/>
<path d="M8.62482 9.67236C8.09583 9.67236 7.6665 9.24158 7.6665 8.71079V1.01821C7.6665 0.487425 8.09583 0.0566406 8.62482 0.0566406C9.15381 0.0566406 9.58313 0.487425 9.58313 1.01821V8.71079C9.58313 9.24158 9.15381 9.67236 8.62482 9.67236Z" fill="#FDA100"/>
<path d="M29.7078 9.67236C29.1788 9.67236 28.7495 9.24158 28.7495 8.71079V1.01821C28.7495 0.487425 29.1788 0.0566406 29.7078 0.0566406C30.2368 0.0566406 30.6661 0.487425 30.6661 1.01821V8.71079C30.6661 9.24158 30.2368 9.67236 29.7078 9.67236Z" fill="#FDA100"/>
<path d="M31.6246 38.5181C31.3697 38.5181 31.1263 38.4161 30.9461 38.2373L27.1128 34.3912C26.7391 34.0162 26.7391 33.4066 27.1128 33.0316C27.4866 32.6566 28.0941 32.6566 28.4679 33.0316L31.5767 36.1508L37.6102 29.2316C37.9591 28.8297 38.5647 28.7912 38.9615 29.1412C39.3601 29.4912 39.4004 30.0989 39.0515 30.4989L32.3433 38.1911C32.1689 38.3911 31.9197 38.5104 31.6553 38.5181C31.6457 38.5181 31.6361 38.5181 31.6246 38.5181Z" fill="#FDA100"/>
<path d="M33.5413 46.2109C26.672 46.2109 21.083 40.6032 21.083 33.7109C21.083 26.8186 26.672 21.2109 33.5413 21.2109C40.4105 21.2109 45.9995 26.8186 45.9995 33.7109C45.9995 40.6032 40.4105 46.2109 33.5413 46.2109ZM33.5413 23.134C27.73 23.134 22.9997 27.8782 22.9997 33.7109C22.9997 39.5436 27.73 44.2879 33.5413 44.2879C39.3526 44.2879 44.0829 39.5436 44.0829 33.7109C44.0829 27.8782 39.3526 23.134 33.5413 23.134Z" fill="#FDA100"/>
</svg>
