<svg width="356" height="126" viewBox="0 0 356 126" fill="none" xmlns="http://www.w3.org/2000/svg">
<path d="M186.37 122.454C186.261 120.566 187.679 118.95 189.561 118.827C191.443 118.718 193.066 120.155 193.175 122.03C193.298 123.919 191.866 125.548 189.984 125.657C189.916 125.657 189.848 125.671 189.78 125.671C187.979 125.671 186.479 124.275 186.37 122.454ZM166.105 125.657C164.223 125.534 162.791 123.905 162.914 122.016C163.036 120.141 164.646 118.704 166.528 118.814C168.41 118.937 169.842 120.566 169.719 122.454C169.61 124.261 168.11 125.657 166.323 125.657C166.255 125.657 166.173 125.657 166.105 125.657ZM209.704 119.963C209.35 118.115 210.563 116.322 212.418 115.966C214.273 115.624 216.046 116.843 216.4 118.69C216.755 120.552 215.541 122.345 213.686 122.687C213.468 122.742 213.264 122.755 213.045 122.755C211.436 122.755 210.004 121.606 209.704 119.963ZM142.403 122.673C140.562 122.317 139.348 120.524 139.689 118.663C140.043 116.815 141.83 115.597 143.685 115.939C145.526 116.295 146.739 118.088 146.399 119.936C146.085 121.578 144.653 122.728 143.044 122.728C142.839 122.728 142.621 122.701 142.403 122.673ZM232.547 114.557C231.974 112.75 232.956 110.82 234.743 110.245C236.543 109.657 238.452 110.642 239.039 112.449C239.625 114.242 238.643 116.172 236.843 116.76C236.502 116.87 236.147 116.925 235.793 116.925C234.361 116.925 233.024 116.008 232.547 114.557ZM119.26 116.719C117.473 116.131 116.491 114.201 117.078 112.394C117.664 110.601 119.587 109.616 121.374 110.204C123.16 110.793 124.142 112.723 123.556 114.516C123.092 115.967 121.755 116.884 120.324 116.884C119.969 116.884 119.614 116.829 119.26 116.719ZM254.531 106.289C253.74 104.579 254.463 102.539 256.167 101.732C257.872 100.924 259.904 101.663 260.709 103.374C261.5 105.085 260.777 107.124 259.072 107.918C258.608 108.151 258.104 108.247 257.627 108.247C256.345 108.247 255.117 107.521 254.531 106.289ZM97.0578 107.877C95.3531 107.07 94.6304 105.03 95.435 103.319C96.2396 101.608 98.2716 100.883 99.9627 101.69C101.667 102.498 102.404 104.524 101.599 106.235C101.013 107.48 99.7854 108.206 98.5171 108.206C98.0261 108.206 97.5352 108.096 97.0578 107.877ZM275.301 95.3121C274.292 93.7107 274.769 91.6028 276.351 90.5899C277.947 89.5771 280.047 90.0425 281.056 91.6439C282.065 93.2317 281.601 95.3395 280.006 96.3661C279.447 96.7219 278.806 96.8999 278.178 96.8999C277.06 96.8999 275.955 96.3387 275.301 95.3121ZM76.1514 96.3113C74.5558 95.2985 74.0922 93.1769 75.1014 91.5891C76.1106 89.9877 78.2243 89.5224 79.8063 90.5352C81.4019 91.5481 81.8656 93.6696 80.8564 95.2574C80.2018 96.2839 79.0972 96.8451 77.9789 96.8451C77.3516 96.8451 76.7106 96.6672 76.1514 96.3113ZM294.53 81.8026C293.33 80.3518 293.534 78.1891 294.98 76.9847C296.439 75.7802 298.58 75.9855 299.78 77.45C300.98 78.9009 300.776 81.0498 299.33 82.2543C298.689 82.7881 297.926 83.0482 297.162 83.0482C296.18 83.0482 295.198 82.6239 294.53 81.8026ZM56.8407 82.1996C55.3951 80.9951 55.1905 78.8461 56.3906 77.3816C57.5907 75.9307 59.7455 75.7254 61.1911 76.9299C62.6503 78.1344 62.8412 80.297 61.6411 81.7479C60.9729 82.5691 59.9909 82.9934 59.0227 82.9934C58.2453 82.9934 57.4816 82.7334 56.8407 82.1996ZM311.931 66.0073C310.554 64.707 310.486 62.5444 311.781 61.1619C313.063 59.7932 315.218 59.7248 316.595 61.0114C317.973 62.3117 318.041 64.4743 316.745 65.8567C316.077 66.5685 315.163 66.9244 314.263 66.9244C313.431 66.9244 312.586 66.6232 311.931 66.0073ZM39.4391 65.7883C38.1436 64.4195 38.2117 62.2569 39.5891 60.9566C40.9665 59.6563 43.1213 59.7248 44.4032 61.1072C45.6988 62.4896 45.6306 64.6522 44.2532 65.9525C43.5986 66.5685 42.7531 66.8696 41.9212 66.8696C41.0075 66.8696 40.1074 66.5137 39.4391 65.7883ZM327.219 48.1588C325.705 47.0365 325.364 44.9012 326.469 43.3682C327.587 41.8353 329.715 41.5067 331.242 42.6154C332.756 43.7378 333.097 45.873 331.992 47.406C331.324 48.3231 330.274 48.8021 329.224 48.8021C328.528 48.8021 327.833 48.5968 327.219 48.1588ZM24.206 47.3239H24.1923C23.0877 45.8046 23.4286 43.6557 24.956 42.547C26.4698 41.4383 28.6109 41.7668 29.7155 43.2998C30.8202 44.8328 30.4793 46.968 28.9655 48.0767C28.3518 48.5284 27.6562 48.7337 26.9607 48.7337C25.9106 48.7337 24.8742 48.241 24.206 47.3239ZM340.175 28.5311C338.525 27.614 337.924 25.5335 338.838 23.8773C339.752 22.2211 341.825 21.6189 343.475 22.5359C345.112 23.453 345.725 25.5335 344.811 27.1897C344.184 28.312 343.025 28.9554 341.825 28.9554C341.266 28.9554 340.693 28.8185 340.175 28.5311ZM11.373 27.0939C10.4729 25.4377 11.073 23.3572 12.7231 22.4401C14.3733 21.5368 16.4462 22.139 17.3463 23.7952C18.26 25.4514 17.66 27.5319 16.0098 28.4352C15.4916 28.7227 14.9188 28.8595 14.3733 28.8595C13.1595 28.8595 12.0003 28.2299 11.373 27.0939ZM350.566 7.43868C348.821 6.74062 347.962 4.75594 348.657 2.99026C349.353 1.23826 351.344 0.375961 353.09 1.07402C354.835 1.77208 355.694 3.77045 354.999 5.52244C354.467 6.86381 353.185 7.68504 351.835 7.68504C351.412 7.68504 350.989 7.60293 350.566 7.43868ZM1.18578 5.39924C0.490268 3.63356 1.34938 1.64888 3.09499 0.950818C4.85424 0.252758 6.83168 1.11508 7.5272 2.86707C8.22272 4.63276 7.3636 6.61744 5.61799 7.3155C5.19523 7.47975 4.77249 7.56186 4.36336 7.56186C2.9996 7.56186 1.71765 6.74061 1.18578 5.39924Z" fill="#4D4D4D"/>
</svg>
