<svg width="42" height="31" viewBox="0 0 42 31" fill="none" xmlns="http://www.w3.org/2000/svg">
<path d="M0.878418 15.2822C0.878418 11.5388 1.28065 8.64866 2.07596 6.6118C2.88042 4.56576 4.0048 3.02436 5.46745 1.96922C6.93011 0.914093 8.55735 0.391113 10.3674 0.391113C12.1957 0.391113 13.8595 0.923249 15.3404 1.97838C16.8213 3.04269 18.0006 4.62998 18.869 6.74942C19.7375 8.86886 20.1671 11.7131 20.1671 15.2914C20.1671 18.8513 19.7375 21.6864 18.8873 23.7967C18.0372 25.9069 16.8579 27.4942 15.3586 28.5677C13.8594 29.6412 12.1957 30.1733 10.3674 30.1733C8.56649 30.1733 6.93927 29.6503 5.48575 28.6136C4.04138 27.5768 2.90781 26.017 2.09421 23.9618C1.28975 21.8883 0.878418 18.9981 0.878418 15.2822ZM3.54774 15.3281C3.54774 18.5302 3.83113 20.9524 4.40705 22.5947C4.97383 24.2371 5.81487 25.4757 6.93014 26.329C8.04541 27.1823 9.22467 27.6043 10.4679 27.6043C11.7203 27.6043 12.8904 27.1914 13.9874 26.3565C15.0753 25.5308 15.898 24.2829 16.4648 22.6223C17.1687 20.6037 17.5252 18.1724 17.5252 15.3281C17.5252 12.4747 17.2144 10.135 16.5836 8.31835C15.9529 6.50169 15.0844 5.1713 13.9783 4.32719C12.8721 3.48309 11.702 3.06106 10.4771 3.06106C9.22468 3.06106 8.04542 3.48309 6.93929 4.32719C5.83316 5.1713 5.00128 6.40993 4.42536 8.05226C3.84029 9.68542 3.54774 12.1168 3.54774 15.3281Z" fill="#4C4C4C"/>
<path d="M26.6394 7.66683H23.7597C24.2808 5.32719 25.2864 3.52888 26.7765 2.27189C28.2574 1.01491 30.0126 0.381836 32.042 0.381836C33.5138 0.381836 34.8851 0.721318 36.1649 1.3911C37.4356 2.07005 38.4228 2.97838 39.1268 4.11609C39.8215 5.26297 40.1781 6.45573 40.1781 7.70354C40.1781 10.1441 38.9713 12.08 36.5488 13.5021C37.9018 14.0527 39.0171 14.8601 39.8947 15.9336C41.1196 17.4383 41.7413 19.1173 41.7413 20.9798C41.7413 22.5855 41.3208 24.1177 40.4706 25.5765C39.6296 27.0354 38.4777 28.1639 37.015 28.9621C35.5524 29.7603 33.9252 30.1549 32.1152 30.1549C29.6835 30.1549 27.6541 29.4484 26.0269 28.0446C24.3997 26.6408 23.3392 24.5673 22.8364 21.8423H25.6064C26.0909 23.6773 26.7947 25.0077 27.6998 25.8334C28.8607 26.8702 30.3508 27.3932 32.1517 27.3932C34.1994 27.3932 35.8449 26.7785 37.0882 25.5398C38.3315 24.3104 38.9531 22.8607 38.9531 21.2C38.9531 20.099 38.6423 19.0622 38.0207 18.0989C37.399 17.1355 36.5671 16.4107 35.525 15.9244C34.4828 15.4381 32.8648 15.1353 30.6708 15.0161V12.4103C31.9597 12.4103 33.139 12.1809 34.2086 11.7222C35.269 11.2634 36.0461 10.6854 36.5214 9.97893C37.0059 9.27245 37.2436 8.50176 37.2436 7.66683C37.2436 6.43737 36.75 5.3639 35.7718 4.46475C34.7937 3.56559 33.5504 3.11601 32.0512 3.11601C30.8353 3.11601 29.784 3.45548 28.8973 4.14361C28.0014 4.85927 27.2518 6.0245 26.6394 7.66683Z" fill="#4C4C4C"/>
</svg>
