<svg width="361" height="394" viewBox="0 0 361 394" fill="none" xmlns="http://www.w3.org/2000/svg">
<path d="M0 0V32.7048C0.000914254 32.8924 0.0503071 33.0766 0.143444 33.2396C0.236581 33.4026 0.370295 33.5388 0.531636 33.6351L55.1533 66.3399C55.3229 66.4413 55.5162 66.4965 55.714 66.4998C55.912 66.4982 56.1058 66.443 56.2748 66.3399L110.896 33.6351C110.941 33.6077 110.982 33.5761 111.02 33.5406L111.071 33.497C111.106 33.4667 111.138 33.4326 111.166 33.3953L111.217 33.3371L111.282 33.2281C111.281 33.2039 111.281 33.1796 111.282 33.1554C111.285 33.1191 111.285 33.0827 111.282 33.0464C111.286 33.015 111.286 32.9833 111.282 32.9519C111.286 32.9205 111.286 32.8888 111.282 32.8574C111.286 32.8163 111.286 32.775 111.282 32.7339V0.029055H109.097V32.0798L55.5683 64.1306L2.0392 32.0798V0.029055L0 0Z" fill="#535353" fill-opacity="0.2"/>
<path d="M360.999 377.999L329.593 359.179V295.027L360.999 276.207V273.662L328.502 293.137L276.052 261.697L329.062 229.915C329.224 229.82 329.359 229.684 329.452 229.521C329.545 229.358 329.594 229.173 329.593 228.985V165.487L360.999 184.307V181.763L330.627 163.59L360.999 145.416V142.872L329.593 161.692V98.7542L360.999 79.9339V77.3896L328.502 96.8642L276.052 65.4242L329.062 33.6426C329.224 33.5473 329.359 33.4113 329.452 33.2481C329.545 33.0848 329.594 32.9 329.593 32.7121V0H327.41V32.0579L273.927 64.1157L221.478 32.6758L274.488 0.894117L275.994 0H271.752L220.444 30.7494V0H218.261V30.7494L166.961 0H163.694C163.7 0.180898 163.751 0.357508 163.842 0.5137C163.934 0.669893 164.063 0.800675 164.218 0.894117L217.235 32.6758L164.218 64.4501L109.644 97.1623C109.482 97.2597 109.348 97.3973 109.255 97.5615C109.162 97.7258 109.113 97.9113 109.113 98.1V161.598L56.1898 129.874C55.945 129.739 55.6575 129.703 55.3867 129.773C55.1158 129.843 54.8824 130.015 54.7345 130.252C54.6606 130.374 54.6115 130.51 54.5902 130.651C54.5688 130.792 54.5756 130.936 54.6101 131.075C54.6446 131.213 54.7061 131.343 54.7911 131.458C54.8762 131.573 54.9831 131.669 55.1056 131.743L108.123 163.524L55.1056 195.299L0.531177 228.011C0.369405 228.108 0.235569 228.246 0.142521 228.41C0.0494721 228.574 0.000368366 228.76 0 228.948V294.373C0 294.662 0.114989 294.939 0.319683 295.144C0.524377 295.348 0.802008 295.463 1.09149 295.463C1.38097 295.463 1.6586 295.348 1.86329 295.144C2.06799 294.939 2.18298 294.662 2.18298 294.373V229.603L55.6659 197.545L109.149 229.603V292.483L56.2263 260.759C55.9814 260.624 55.6938 260.588 55.423 260.658C55.1522 260.728 54.9188 260.9 54.7709 261.137C54.633 261.381 54.5946 261.668 54.6637 261.939C54.7329 262.21 54.9043 262.443 55.1421 262.591L108.159 294.373L55.0693 326.147C54.9465 326.221 54.8394 326.318 54.7542 326.434C54.6691 326.549 54.6076 326.68 54.5731 326.819C54.5387 326.958 54.5319 327.103 54.5534 327.244C54.5749 327.386 54.6241 327.522 54.6982 327.645C54.7946 327.806 54.931 327.939 55.0942 328.032C55.2573 328.125 55.4417 328.174 55.6295 328.175C55.8266 328.176 56.0202 328.123 56.1898 328.023L110.764 295.31L164.771 262.94L217.228 294.38L164.218 326.147C164.095 326.221 163.988 326.318 163.903 326.434C163.818 326.549 163.757 326.68 163.722 326.819C163.688 326.958 163.681 327.103 163.702 327.244C163.724 327.386 163.773 327.522 163.847 327.645C163.944 327.806 164.08 327.939 164.243 328.032C164.406 328.125 164.591 328.174 164.778 328.175C164.977 328.176 165.171 328.121 165.339 328.015L218.261 296.299V359.797C218.262 359.985 218.311 360.169 218.404 360.332C218.497 360.496 218.631 360.632 218.793 360.727L273.367 393.44C273.437 393.477 273.51 393.508 273.585 393.534H273.636C273.722 393.557 273.81 393.57 273.898 393.57C273.987 393.57 274.075 393.558 274.16 393.534H274.204C274.272 393.514 274.338 393.487 274.4 393.454H274.451C274.519 393.412 274.583 393.363 274.641 393.309V393.309C274.702 393.247 274.755 393.179 274.801 393.105V393.105V393.054C274.823 393.015 274.842 392.973 274.859 392.931C274.863 392.899 274.863 392.868 274.859 392.836C274.859 392.8 274.859 392.764 274.859 392.727C274.862 392.689 274.862 392.65 274.859 392.611C274.862 392.589 274.862 392.567 274.859 392.545V327.121C274.86 326.932 274.811 326.746 274.718 326.582C274.625 326.417 274.49 326.28 274.328 326.183L221.318 294.409L273.767 262.969L327.25 295.027V359.797C327.25 359.797 327.25 359.884 327.25 359.921C327.25 359.957 327.25 359.986 327.25 360.015C327.259 360.052 327.271 360.089 327.287 360.124C327.287 360.124 327.287 360.182 327.287 360.219L327.345 360.313C327.359 360.344 327.376 360.373 327.396 360.4C327.415 360.429 327.437 360.455 327.461 360.48L327.534 360.56L327.607 360.618L327.701 360.691L360.759 380.507L360.999 377.999ZM111.295 98.7542L163.687 67.3506V130.231L111.295 161.634V98.7542ZM110.204 227.713L57.7543 196.273L110.204 164.833L162.661 196.273L110.204 227.713ZM163.687 261.079L111.295 292.483V229.603L163.687 198.199V261.079ZM112.329 163.524L164.778 132.084L217.235 163.524L164.778 194.964L112.329 163.524ZM218.261 292.446L165.87 261.043V198.163L218.261 229.566V292.446ZM218.261 227.022L166.903 196.236L218.261 165.451V227.022ZM218.261 161.598L165.87 130.194V67.3143L218.261 98.7179V161.598ZM166.903 65.3879L219.353 33.9479L271.81 65.3879L219.353 96.8279L166.903 65.3879ZM272.836 67.3143V130.194L220.444 161.598V98.7542L272.836 67.3143ZM272.836 327.703V390.583L220.444 359.179V296.299L272.836 327.703ZM220.444 292.446V230.875L271.81 261.661L220.444 292.446ZM272.836 259.734L220.444 228.331V165.451L272.836 196.854V259.734ZM221.478 163.524L274.488 131.743C274.65 131.647 274.784 131.511 274.877 131.348C274.971 131.185 275.019 131 275.019 130.812V67.3143L327.41 98.7179V162.906L273.927 194.964L221.478 163.524ZM275.019 196.891L327.41 165.487V228.367L275.019 259.771V196.891Z" fill="#535353" fill-opacity="0.2"/>
</svg>
