<svg width="43" height="31" viewBox="0 0 43 31" fill="none" xmlns="http://www.w3.org/2000/svg">
<path d="M0.828613 15.7242C0.828613 11.9808 1.23084 9.0906 2.02615 7.05373C2.83061 5.00768 3.95504 3.46626 5.41768 2.41113C6.88033 1.35599 8.50751 0.833008 10.3175 0.833008C12.1458 0.833008 13.8096 1.36517 15.2905 2.4203C16.7715 3.48462 17.9507 5.07191 18.8192 7.19135C19.6876 9.3108 20.1172 12.1551 20.1172 15.7334C20.1172 19.2933 19.6876 22.1284 18.8375 24.2387C17.9873 26.349 16.8081 27.9363 15.3088 29.0098C13.8096 30.0832 12.1458 30.6154 10.3175 30.6154C8.51665 30.6154 6.88943 30.0924 5.43593 29.0556C3.99157 28.0188 2.85805 26.4591 2.04445 24.4038C1.24 22.3303 0.828613 19.4401 0.828613 15.7242ZM3.49793 15.7701C3.49793 18.9722 3.78132 21.3944 4.35723 23.0368C4.92401 24.6791 5.76504 25.9177 6.88031 26.771C7.99558 27.6243 9.17483 28.0464 10.4181 28.0464C11.6705 28.0464 12.8406 27.6335 13.9376 26.7986C15.0255 25.9728 15.8482 24.725 16.4149 23.0643C17.1188 21.0458 17.4754 18.6144 17.4754 15.7701C17.4754 12.9166 17.1645 10.577 16.5338 8.7603C15.903 6.94363 15.0346 5.61324 13.9285 4.76913C12.8223 3.92502 11.6522 3.50296 10.4272 3.50296C9.17484 3.50296 7.99559 3.92502 6.88946 4.76913C5.78333 5.61324 4.95145 6.85188 4.37554 8.49422C3.79048 10.1274 3.49793 12.5588 3.49793 15.7701Z" fill="#4C4C4C"/>
<path d="M38.1353 0.823975H38.7112V20.6055H42.1302V23.303H38.7112V29.8999H35.9047V23.303H22.3843L38.1353 0.823975ZM35.9047 20.6055V8.68704L27.531 20.5963H35.9047V20.6055Z" fill="#4C4C4C"/>
</svg>
