<svg width="35" height="26" viewBox="0 0 35 26" fill="none" xmlns="http://www.w3.org/2000/svg">
<path d="M0.0078125 12.8729C0.0078125 9.74732 0.343654 7.33417 1.00771 5.63348C1.67939 3.92512 2.61822 2.6381 3.83947 1.75711C5.06071 0.876119 6.41936 0.439453 7.93066 0.439453C9.45722 0.439453 10.8464 0.883782 12.0829 1.76477C13.3194 2.65343 14.304 3.97874 15.0291 5.74839C15.7543 7.51803 16.113 9.89288 16.113 12.8806C16.113 15.853 15.7543 18.2202 15.0444 19.9821C14.3346 21.7441 13.3499 23.0694 12.0982 23.9658C10.8464 24.8621 9.45722 25.3064 7.93066 25.3064C6.41936 25.3064 5.06836 24.8697 3.85475 24.0041C2.64877 23.1384 1.70231 21.8361 1.02299 20.12C0.343669 18.3887 0.0078125 15.9756 0.0078125 12.8729ZM2.2366 12.9112C2.2366 15.5849 2.47321 17.6073 2.94644 18.9786C3.41968 20.3499 4.1219 21.3841 5.0531 22.0965C5.9843 22.809 6.96893 23.1614 8.00699 23.1614C9.05268 23.1614 10.0297 22.8166 10.938 22.1195C11.8463 21.43 12.5332 20.3882 13.0065 19.0016C13.5942 17.3162 13.8919 15.2861 13.8919 12.9112C13.8919 10.5287 13.6324 8.57522 13.1057 7.05838C12.579 5.54155 11.8539 4.43073 10.9303 3.72594C10.0068 3.02114 9.02979 2.66874 8.00699 2.66874C6.9613 2.66874 5.97667 3.02114 5.0531 3.72594C4.13717 4.43073 3.43495 5.46494 2.95408 6.83622C2.48085 8.19984 2.2366 10.23 2.2366 12.9112Z" fill="#4C4C4C"/>
<path d="M20.9669 8.42932H18.7076C18.7687 6.09279 19.5472 4.1776 21.0432 2.67609C22.5316 1.17458 24.3788 0.423828 26.5694 0.423828C28.7371 0.423828 30.4926 1.12862 31.836 2.53054C33.1794 3.94012 33.851 5.59484 33.851 7.50237C33.851 8.843 33.5305 10.0994 32.8893 11.2791C32.2482 12.4512 31.004 14.0447 29.1645 16.0518L23.2873 22.4025H34.1716V24.6854H18.1504L27.1647 14.9103C28.9966 12.9415 30.1797 11.486 30.7292 10.536C31.2788 9.58609 31.5536 8.58253 31.5536 7.53301C31.5536 6.20004 31.0575 5.05858 30.0728 4.09333C29.0806 3.13573 27.8746 2.65311 26.4396 2.65311C24.936 2.65311 23.6765 3.15872 22.6767 4.16228C21.6768 5.18882 21.1043 6.60606 20.9669 8.42932Z" fill="#4C4C4C"/>
</svg>
