<svg width="199" height="71" viewBox="0 0 199 71" fill="none" xmlns="http://www.w3.org/2000/svg">
<path d="M104.144 68.5158C104.083 67.4586 104.884 66.5546 105.93 66.4857C106.983 66.4244 107.892 67.2288 107.953 68.2783C108.021 69.3355 107.22 70.2471 106.167 70.3084C106.129 70.3084 106.09 70.3161 106.052 70.3161C105.052 70.3161 104.205 69.5347 104.144 68.5158ZM92.8017 70.3084C91.7483 70.2395 90.9545 69.3278 91.0156 68.2707C91.0843 67.2211 91.9849 66.4168 93.0383 66.4781C94.0916 66.547 94.893 67.4586 94.8243 68.5158C94.7633 69.527 93.9237 70.3084 92.9238 70.3084C92.8856 70.3084 92.8398 70.3084 92.8017 70.3084ZM117.204 67.1216C117.005 66.0874 117.685 65.0838 118.723 64.8846C119.761 64.6931 120.753 65.3749 120.951 66.4091C121.15 67.451 120.471 68.4545 119.432 68.646C119.31 68.6767 119.196 68.6843 119.074 68.6843C118.173 68.6843 117.372 68.0408 117.204 67.1216ZM79.5359 68.6384C78.5054 68.4392 77.8261 67.4356 78.0246 66.3938C78.2154 65.3596 79.2153 64.6778 80.2533 64.8693C81.2838 65.0685 81.9631 66.072 81.7723 67.1062C81.5967 68.0255 80.7953 68.669 79.8946 68.669C79.7801 68.669 79.658 68.6537 79.5359 68.6384ZM129.996 64.0956C129.668 63.0843 130.218 62.0042 131.217 61.6824C132.217 61.353 133.294 61.9046 133.622 62.9158C133.95 63.9194 133.4 64.9995 132.393 65.3289C132.202 65.3902 132.004 65.4209 131.805 65.4209C131.004 65.4209 130.256 64.9076 129.996 64.0956ZM66.5907 65.306C65.5831 64.9766 65.0335 63.8964 65.3618 62.8852C65.69 61.8816 66.7662 61.33 67.7661 61.6595C68.766 61.9889 69.3156 63.069 68.995 64.0726C68.7278 64.8846 67.9798 65.3979 67.1784 65.3979C66.9799 65.3979 66.7815 65.3673 66.5907 65.306ZM142.293 59.4685C141.85 58.5109 142.255 57.3695 143.209 56.9175C144.163 56.4655 145.3 56.8792 145.75 57.8368C146.201 58.7944 145.788 59.9358 144.834 60.3801C144.575 60.5103 144.3 60.564 144.025 60.564C143.308 60.564 142.621 60.1579 142.293 59.4685ZM54.1568 60.3571C53.2027 59.9051 52.7982 58.7637 53.2485 57.8061C53.6989 56.8485 54.8362 56.4425 55.7826 56.8945C56.7367 57.3465 57.1489 58.4803 56.6986 59.4379C56.3703 60.135 55.6834 60.541 54.9735 60.541C54.6988 60.541 54.424 60.4797 54.1568 60.3571ZM153.917 53.3246C153.353 52.4283 153.62 51.2485 154.505 50.6816C155.391 50.1147 156.574 50.3752 157.138 51.2715C157.703 52.1602 157.444 53.3399 156.551 53.9145C156.238 54.1136 155.879 54.2132 155.528 54.2132C154.902 54.2132 154.284 53.8991 153.917 53.3246ZM42.4558 53.8838C41.5627 53.3169 41.3032 52.1295 41.868 51.2409C42.4329 50.3446 43.6159 50.0841 44.5014 50.651C45.3944 51.2179 45.6539 52.4053 45.0891 53.2939C44.7227 53.8685 44.1045 54.1826 43.4786 54.1826C43.1275 54.1826 42.7687 54.083 42.4558 53.8838ZM164.68 45.7635C164.008 44.9514 164.122 43.741 164.932 43.0669C165.748 42.3928 166.947 42.5077 167.618 43.3197C168.29 44.1394 168.175 45.3421 167.366 46.0163C167.008 46.315 166.58 46.4606 166.153 46.4606C165.603 46.4606 165.054 46.2231 164.68 45.7635ZM31.6477 45.9856C30.8387 45.3192 30.7242 44.1087 31.3958 43.289C32.0675 42.477 33.2735 42.3621 34.0826 43.0363C34.8993 43.7104 35.0062 44.9208 34.3345 45.7328C33.9605 46.1925 33.4185 46.4299 32.869 46.4299C32.4339 46.4299 32.0065 46.2844 31.6477 45.9856ZM174.419 36.923C173.648 36.1952 173.61 34.9848 174.335 34.2111C175.053 33.445 176.259 33.4067 177.029 34.1268C177.8 34.8546 177.839 36.065 177.113 36.8387C176.739 37.2371 176.228 37.4363 175.724 37.4363C175.251 37.4363 174.785 37.2677 174.419 36.923ZM21.9083 36.8004C21.1832 36.0343 21.2213 34.824 21.9923 34.0962C22.7555 33.3684 23.9691 33.4067 24.6866 34.1805C25.4117 34.9542 25.3736 36.1646 24.6027 36.8847C24.2363 37.2371 23.7631 37.4056 23.2975 37.4056C22.7861 37.4056 22.2823 37.2064 21.9083 36.8004ZM182.975 26.9334C182.128 26.3052 181.937 25.1102 182.563 24.2522C182.563 24.2522 182.563 24.2522 182.556 24.2522C183.182 23.3942 184.372 23.2103 185.227 23.8308C186.074 24.459 186.265 25.6541 185.639 26.5121C185.265 27.0253 184.685 27.2935 184.097 27.2935C183.708 27.2935 183.319 27.1786 182.975 26.9334ZM13.3825 26.4661C12.7566 25.6158 12.9474 24.413 13.8023 23.7925C14.6495 23.172 15.8478 23.3559 16.4661 24.2139C17.0844 25.0719 16.8935 26.2669 16.0463 26.8874C15.7028 27.1403 15.3136 27.2552 14.9243 27.2552C14.3366 27.2552 13.7488 26.9794 13.3825 26.4661ZM190.227 15.948C189.303 15.4347 188.967 14.2703 189.479 13.3433C189.99 12.4164 191.15 12.0793 192.074 12.5926C192.99 13.1058 193.326 14.2703 192.822 15.1972C192.471 15.8254 191.822 16.1854 191.15 16.1854C190.837 16.1854 190.517 16.1088 190.227 15.948ZM6.20763 15.1436C5.69623 14.2166 6.03208 13.0522 6.95565 12.5389C7.87922 12.0333 9.03939 12.3704 9.54315 13.2973C10.0545 14.2243 9.71872 15.3887 8.79515 15.8943C8.50511 16.0552 8.18452 16.1318 7.87921 16.1318C7.19989 16.1318 6.5511 15.7794 6.20763 15.1436ZM196.05 4.14279C195.066 3.75209 194.593 2.64129 194.974 1.65305C195.363 0.672481 196.478 0.18986 197.455 0.580557C198.432 0.971254 198.913 2.08972 198.523 3.07029C198.226 3.82104 197.508 4.28067 196.753 4.28067C196.516 4.28067 196.279 4.23471 196.05 4.14279ZM0.498313 3.00133C0.10904 2.0131 0.589909 0.902298 1.57454 0.511602C2.55154 0.120905 3.65828 0.603537 4.04756 1.58411C4.43683 2.57234 3.95597 3.68315 2.97897 4.07384C2.74999 4.16577 2.51336 4.21173 2.27674 4.21173C1.51346 4.21173 0.795992 3.75209 0.498313 3.00133Z" fill="#4D4D4D"/>
</svg>
