<svg width="51" height="41" viewBox="0 0 51 41" fill="none" xmlns="http://www.w3.org/2000/svg">
<path d="M49.6446 23.5566H23.0662C22.802 23.5566 22.5487 23.6624 22.3627 23.8507C22.1766 24.0389 22.0731 24.2937 22.0752 24.5588L22.1767 37.3998C22.1811 37.9459 22.6234 38.3862 23.1676 38.3862H31.911C32.4582 38.3862 32.9019 37.941 32.9019 37.3919C32.9019 36.8429 32.4582 36.3976 31.911 36.3976H24.1507L24.0649 25.5452H48.6614L48.7471 36.3976H40.9011C40.3539 36.3976 39.9102 36.8429 39.9102 37.3919C39.9102 37.941 40.3539 38.3862 40.9011 38.3862H49.7461C50.0103 38.3862 50.2636 38.2804 50.4496 38.0922C50.6357 37.904 50.7391 37.6492 50.737 37.3841L50.6356 24.5431C50.6312 23.9969 50.1888 23.5566 49.6446 23.5566Z" fill="#FDA100"/>
<path d="M37.3385 37.0107C37.1787 36.6261 36.7857 36.3753 36.3702 36.3979C35.9581 36.4203 35.5958 36.7068 35.4755 37.1026C35.3569 37.4926 35.496 37.9335 35.8201 38.1805C36.1556 38.4363 36.6224 38.4515 36.9738 38.2182C37.364 37.9591 37.5148 37.4429 37.3385 37.0107Z" fill="#FDA100"/>
<path d="M9.18629 21.7539C4.12096 21.7539 0 25.8893 0 30.9724C0 36.0555 4.12096 40.1909 9.18629 40.1909C14.2516 40.1909 18.3727 36.0555 18.3727 30.9724C18.3727 25.8893 14.2516 21.7539 9.18629 21.7539ZM9.18629 38.2024C5.21378 38.2024 1.9819 34.959 1.9819 30.9724C1.9819 26.9858 5.21378 23.7424 9.18629 23.7424C13.1589 23.7424 16.3908 26.9858 16.3908 30.9724C16.3908 34.959 13.1589 38.2024 9.18629 38.2024Z" fill="#FDA100"/>
<path d="M9.18629 0.0585938C4.12096 0.0585938 0 4.19393 0 9.2771C0 14.3602 4.12096 18.4956 9.18629 18.4956C14.2516 18.4956 18.3727 14.3602 18.3727 9.2771C18.3727 4.19393 14.2516 0.0585938 9.18629 0.0585938ZM9.18629 16.5071C5.21378 16.5071 1.9819 13.2637 1.9819 9.2771C1.9819 5.29041 5.21378 2.04702 9.18629 2.04702C13.1589 2.04702 16.3908 5.29041 16.3908 9.2771C16.3908 13.2637 13.1589 16.5071 9.18629 16.5071Z" fill="#FDA100"/>
<path d="M11.7751 6.67991C11.3882 6.29152 10.7607 6.29162 10.3737 6.68001L9.18645 7.87153L7.99929 6.68001C7.61252 6.29182 6.98496 6.29172 6.59789 6.67991C6.21093 7.06811 6.21083 7.69772 6.59779 8.08611L7.78525 9.27783L6.59779 10.4696C6.21083 10.8578 6.21093 11.4875 6.59789 11.8757C6.79132 12.0699 7.04491 12.167 7.29849 12.167C7.55208 12.167 7.80576 12.0698 7.99919 11.8756L9.18645 10.6841L10.3737 11.8756C10.5671 12.0698 10.8208 12.167 11.0744 12.167C11.328 12.167 11.5816 12.0698 11.775 11.8757C12.162 11.4876 12.1621 10.8579 11.7751 10.4696L10.5877 9.27783L11.7751 8.08611C12.1622 7.69782 12.1621 7.06821 11.7751 6.67991Z" fill="#FDA100"/>
<path d="M23.1676 16.6924H49.7461C50.0103 16.6924 50.2636 16.5866 50.4496 16.3984C50.6357 16.2102 50.7391 15.9553 50.737 15.6903L50.6356 2.84969C50.6312 2.30364 50.1888 1.86328 49.6446 1.86328H23.0662C22.802 1.86328 22.5487 1.96917 22.3627 2.15729C22.1766 2.3455 22.0731 2.60033 22.0752 2.8654L22.1767 15.706C22.1811 16.252 22.6234 16.6924 23.1676 16.6924ZM48.6615 3.85172L48.7472 14.7037H24.1508L24.065 3.85172H48.6615Z" fill="#FDA100"/>
<path d="M29.2868 8.17773H45.3216C45.8689 8.17773 46.3126 7.73256 46.3126 7.18359C46.3126 6.63463 45.8689 6.18945 45.3216 6.18945H29.2868C28.7396 6.18945 28.2959 6.63463 28.2959 7.18359C28.2959 7.73256 28.7396 8.17773 29.2868 8.17773Z" fill="#FDA100"/>
<path d="M29.2868 12.3643H39.6189C40.1662 12.3643 40.6098 11.9192 40.6098 11.3701C40.6098 10.8212 40.1662 10.376 39.6189 10.376H29.2868C28.7396 10.376 28.2959 10.8212 28.2959 11.3701C28.2959 11.9192 28.7396 12.3643 29.2868 12.3643Z" fill="#FDA100"/>
<path d="M29.2868 30.1934H45.3216C45.8689 30.1934 46.3126 29.7482 46.3126 29.1992C46.3126 28.6502 45.8689 28.2051 45.3216 28.2051H29.2868C28.7396 28.2051 28.2959 28.6502 28.2959 29.1992C28.2959 29.7482 28.7396 30.1934 29.2868 30.1934Z" fill="#FDA100"/>
<path d="M40.6098 33.385C40.6098 32.8359 40.1662 32.3906 39.6189 32.3906H29.2868C28.7396 32.3906 28.2959 32.8359 28.2959 33.385C28.2959 33.9341 28.7396 34.3794 29.2868 34.3794H39.6189C40.1661 34.3794 40.6098 33.9342 40.6098 33.385Z" fill="#FDA100"/>
<path d="M11.6924 28.6116C11.2493 28.2898 10.6297 28.3895 10.3087 28.8342L8.73278 31.0193L7.94478 30.2644C7.5491 29.8852 6.92173 29.8996 6.54378 30.2969C6.16583 30.6941 6.1803 31.3234 6.57619 31.7026L8.18548 33.2443C8.37059 33.4217 8.61605 33.5195 8.86963 33.5195C8.89966 33.5195 8.92978 33.5181 8.95981 33.5155C9.2448 33.4893 9.50473 33.3408 9.6725 33.1081L11.9142 30C12.2352 29.5552 12.1359 28.9336 11.6924 28.6116Z" fill="#FDA100"/>
</svg>
