<svg width="42" height="31" viewBox="0 0 42 31" fill="none" xmlns="http://www.w3.org/2000/svg">
<path d="M0.878418 15.2825C0.878418 11.539 1.28065 8.64891 2.07596 6.61204C2.88042 4.56601 4.0048 3.0246 5.46745 1.96947C6.93011 0.914337 8.55735 0.391357 10.3674 0.391357C12.1957 0.391357 13.8595 0.923493 15.3404 1.97862C16.8213 3.04293 18.0006 4.63023 18.869 6.74966C19.7375 8.8691 20.1671 11.7134 20.1671 15.2916C20.1671 18.8516 19.7375 21.6866 18.8873 23.7969C18.0372 25.9072 16.8579 27.4945 15.3586 28.5679C13.8594 29.6414 12.1957 30.1736 10.3674 30.1736C8.56649 30.1736 6.93927 29.6506 5.48575 28.6138C4.04138 27.577 2.90781 26.0173 2.09421 23.9621C1.28975 21.8885 0.878418 18.9984 0.878418 15.2825ZM3.54774 15.3283C3.54774 18.5304 3.83113 20.9526 4.40705 22.595C4.97383 24.2373 5.81487 25.4759 6.93014 26.3292C8.04541 27.1825 9.22467 27.6046 10.4679 27.6046C11.7203 27.6046 12.8904 27.1917 13.9874 26.3568C15.0753 25.531 15.898 24.2832 16.4648 22.6225C17.1687 20.604 17.5252 18.1726 17.5252 15.3283C17.5252 12.4749 17.2144 10.1353 16.5836 8.31859C15.9529 6.50193 15.0844 5.17154 13.9783 4.32744C12.8721 3.48333 11.702 3.0613 10.4771 3.0613C9.22468 3.0613 8.04542 3.48333 6.93929 4.32744C5.83316 5.17154 5.00127 6.41017 4.42536 8.05251C3.84029 9.68567 3.54774 12.1171 3.54774 15.3283Z" fill="#4C4C4C"/>
<path d="M26.6394 7.66707H23.7597C24.2808 5.32744 25.2864 3.52912 26.7765 2.27214C28.2574 1.01516 30.0126 0.38208 32.042 0.38208C33.5138 0.38208 34.8851 0.721563 36.1649 1.39134C37.4356 2.0703 38.4228 2.97863 39.1268 4.11633C39.8215 5.26321 40.1781 6.45597 40.1781 7.70378C40.1781 10.1443 38.9713 12.0803 36.5488 13.5024C37.9018 14.0529 39.0171 14.8603 39.8947 15.9338C41.1196 17.4385 41.7413 19.1175 41.7413 20.9801C41.7413 22.5857 41.3208 24.1179 40.4706 25.5768C39.6296 27.0356 38.4777 28.1641 37.015 28.9624C35.5524 29.7606 33.9252 30.1551 32.1152 30.1551C29.6835 30.1551 27.6541 29.4486 26.0269 28.0449C24.3997 26.6411 23.3392 24.5675 22.8364 21.8425H25.6064C26.0909 23.6776 26.7947 25.0079 27.6998 25.8337C28.8607 26.8704 30.3508 27.3934 32.1517 27.3934C34.1994 27.3934 35.8449 26.7787 37.0882 25.5401C38.3315 24.3106 38.9531 22.861 38.9531 21.2003C38.9531 20.0993 38.6423 19.0625 38.0207 18.0991C37.399 17.1357 36.5671 16.4109 35.525 15.9246C34.4828 15.4383 32.8648 15.1356 30.6708 15.0163V12.4106C31.9597 12.4106 33.139 12.1812 34.2086 11.7224C35.269 11.2637 36.0461 10.6857 36.5214 9.97918C37.0059 9.2727 37.2436 8.502 37.2436 7.66707C37.2436 6.43762 36.75 5.36414 35.7718 4.46499C34.7937 3.56583 33.5504 3.11626 32.0512 3.11626C30.8353 3.11626 29.784 3.45573 28.8973 4.14386C28.0014 4.85951 27.2518 6.02474 26.6394 7.66707Z" fill="#4C4C4C"/>
</svg>
