<svg width="32" height="32" viewBox="0 0 32 32" fill="none" xmlns="http://www.w3.org/2000/svg">
<path d="M11.1115 24.7709H3.40285C1.63115 24.7709 0.190918 23.3245 0.190918 21.5482V6.07916C0.190918 4.3028 1.63115 2.85645 3.40285 2.85645H22.6745C24.4462 2.85645 25.8864 4.3028 25.8864 6.07916V11.2355C25.8864 11.5926 25.5986 11.88 25.244 11.88C24.8894 11.88 24.6016 11.5926 24.6016 11.2355V6.07916C24.6016 5.01308 23.737 4.14553 22.6745 4.14553H3.40285C2.34034 4.14553 1.47569 5.01308 1.47569 6.07916V21.5482C1.47569 22.6142 2.34034 23.4818 3.40285 23.4818H11.1115C11.4661 23.4818 11.7539 23.7706 11.7539 24.1263C11.7539 24.4821 11.4661 24.7709 11.1115 24.7709Z" fill="#FDA100"/>
<path d="M25.244 9.30175H0.833305C0.478707 9.30175 0.190918 9.01303 0.190918 8.65728C0.190918 8.30154 0.478707 8.01282 0.833305 8.01282H25.244C25.5986 8.01282 25.8864 8.30154 25.8864 8.65728C25.8864 9.01303 25.5986 9.30175 25.244 9.30175Z" fill="#FDA100"/>
<path d="M5.97246 6.72396C5.61786 6.72396 5.33008 6.43519 5.33008 6.07939V0.922884C5.33008 0.567085 5.61786 0.27832 5.97246 0.27832C6.32705 0.27832 6.61484 0.567085 6.61484 0.922884V6.07939C6.61484 6.43519 6.32705 6.72396 5.97246 6.72396Z" fill="#FDA100"/>
<path d="M20.1048 6.72396C19.7502 6.72396 19.4624 6.43519 19.4624 6.07939V0.922884C19.4624 0.567085 19.7502 0.27832 20.1048 0.27832C20.4594 0.27832 20.7472 0.567085 20.7472 0.922884V6.07939C20.7472 6.43519 20.4594 6.72396 20.1048 6.72396Z" fill="#FDA100"/>
<path d="M21.3897 26.0603C21.2188 26.0603 21.0557 25.9919 20.9349 25.8721L18.3654 23.2939C18.1149 23.0425 18.1149 22.6339 18.3654 22.3825C18.6159 22.1312 19.0232 22.1312 19.2737 22.3825L21.3576 24.4734L25.402 19.8353C25.6359 19.5659 26.0418 19.5401 26.3078 19.7747C26.575 20.0093 26.602 20.4167 26.3682 20.6848L21.8715 25.8411C21.7546 25.9752 21.5876 26.0551 21.4103 26.0603C21.4039 26.0603 21.3974 26.0603 21.3897 26.0603Z" fill="#FDA100"/>
<path d="M22.6745 31.2163C18.0699 31.2163 14.3235 27.4574 14.3235 22.8373C14.3235 18.2172 18.0699 14.4583 22.6745 14.4583C27.2792 14.4583 31.0256 18.2172 31.0256 22.8373C31.0256 27.4574 27.2792 31.2163 22.6745 31.2163ZM22.6745 15.7473C18.7791 15.7473 15.6083 18.9275 15.6083 22.8373C15.6083 26.7471 18.7791 29.9272 22.6745 29.9272C26.57 29.9272 29.7408 26.7471 29.7408 22.8373C29.7408 18.9275 26.57 15.7473 22.6745 15.7473Z" fill="#FDA100"/>
</svg>
