<svg width="44" height="43" viewBox="0 0 44 43" fill="none" xmlns="http://www.w3.org/2000/svg">
<path d="M11.9847 27.147C12.3894 26.9128 12.528 26.393 12.2945 25.987C12.0607 25.5813 11.5429 25.442 11.1382 25.6762C10.7335 25.9107 10.5946 26.4305 10.8284 26.8362C11.0618 27.2422 11.58 27.3816 11.9847 27.147Z" fill="#FDA100"/>
<path d="M8.51585 33.009L12.7789 40.418C13.6988 42.0185 15.7681 42.6111 17.4046 41.6619C19.0239 40.7229 19.5804 38.647 18.6436 37.0209L16.1041 32.6069L18.3034 31.3329C18.7081 31.098 18.847 30.5787 18.6132 30.1726L17.5124 28.2596C17.6437 28.234 18.5067 28.0642 33.7265 25.0685C35.608 24.966 36.7353 22.9013 35.785 21.2507L32.9716 16.3616L34.7695 13.6294C34.946 13.3606 34.9566 13.0153 34.7962 12.7366L33.1032 9.79433C32.9428 9.51563 32.6383 9.35239 32.3192 9.3713L29.0624 9.56739L25.9392 4.13946C25.4869 3.35314 24.6764 2.87703 23.7717 2.86575C23.7608 2.86542 23.7502 2.86542 23.7393 2.86542C22.865 2.86542 22.0714 3.30204 21.6012 4.04025L10.5429 18.1748L3.35375 22.3393C0.526186 23.9766 -0.45326 27.6163 1.18488 30.4609C2.6815 33.0621 5.83676 34.0853 8.51585 33.009ZM17.1778 37.8706C17.6453 38.6821 17.3686 39.7206 16.5574 40.1907C15.7437 40.6629 14.7073 40.3729 14.2451 39.569L10.0125 32.2124L12.9449 30.5137C17.8434 39.0279 17.0991 37.7342 17.1778 37.8706ZM15.2576 31.1355L14.4111 29.6643L15.8772 28.815L16.7238 30.2861L15.2576 31.1355ZM31.8986 11.0982L33.0685 13.1314L32.0252 14.7166L30.0088 11.212L31.8986 11.0982ZM23.0171 4.97156C23.2443 4.59864 23.6047 4.56015 23.7509 4.56413C23.8954 4.56579 24.2555 4.61092 24.4727 4.98848L34.3188 22.1001C34.6395 22.6571 34.2497 23.3575 33.6065 23.3734C33.4911 23.3761 33.4379 23.397 33.1422 23.4524L22.7271 5.35211C22.9457 5.0701 22.9738 5.04289 23.0171 4.97156ZM21.6005 6.79204L31.386 23.7981L16.6176 26.7045L12.1271 18.9007L21.6005 6.79204ZM2.65108 29.6116C2.2794 28.9663 2.08298 28.2337 2.08298 27.4925C2.08298 25.9776 2.89445 24.5669 4.20027 23.8104L10.7981 19.9883L15.0307 27.3439L8.43286 31.1663C6.41147 32.3368 3.81801 31.6394 2.65108 29.6116Z" fill="#FDA100"/>
<path d="M9.36252 27.6851C9.12874 27.279 8.61091 27.1396 8.20617 27.3742L6.73998 28.2236C6.3359 28.4578 5.81708 28.3182 5.58363 27.9127C5.34985 27.5066 4.83202 27.3672 4.42728 27.6018C4.02254 27.8364 3.88366 28.356 4.11744 28.7621C4.81416 29.9732 6.36831 30.4002 7.58649 29.6948L9.05268 28.8454C9.45742 28.6108 9.5963 28.0915 9.36252 27.6851Z" fill="#FDA100"/>
<path d="M42.4743 4.6824L37.7573 7.31604C37.3489 7.5443 37.2018 8.06154 37.4293 8.47128C37.6561 8.88069 38.1713 9.029 38.5807 8.8004L43.2974 6.16677C43.7061 5.93851 43.8529 5.42127 43.6254 5.01153C43.3982 4.60145 42.8827 4.45414 42.4743 4.6824Z" fill="#FDA100"/>
<path d="M41.9793 13.4789L38.7086 12.5995C38.2569 12.478 37.7927 12.7468 37.6716 13.2001C37.5506 13.6534 37.8188 14.119 38.2705 14.2405L41.5415 15.1198C41.9958 15.2423 42.4577 14.9692 42.5781 14.5192C42.6991 14.0659 42.431 13.6 41.9793 13.4789Z" fill="#FDA100"/>
<path d="M33.7599 1.59627L32.8826 4.87838C32.7616 5.3316 33.0294 5.79711 33.4811 5.91888C33.9325 6.03998 34.3967 5.7719 34.5181 5.31833L35.395 2.03623C35.5161 1.583 35.2482 1.11716 34.7965 0.995725C34.3452 0.874289 33.8809 1.14304 33.7599 1.59627Z" fill="#FDA100"/>
</svg>
