<svg width="63" height="45" viewBox="0 0 63 45" fill="none" xmlns="http://www.w3.org/2000/svg">
<path d="M0.905273 22.2286C0.905273 16.6441 1.50532 12.3325 2.69179 9.29386C3.89189 6.24153 5.56933 3.94201 7.75134 2.36794C9.93334 0.793866 12.3608 0.0136719 15.061 0.0136719C17.7885 0.0136719 20.2706 0.807557 22.4798 2.38163C24.6891 3.96939 26.4483 6.33734 27.7439 9.49917C29.0395 12.661 29.6804 16.9042 29.6804 22.2423C29.6804 27.5531 29.0395 31.7826 27.7712 34.9307C26.5029 38.0789 24.7437 40.4468 22.5072 42.0483C20.2706 43.6497 17.7885 44.4436 15.061 44.4436C12.3744 44.4436 9.94692 43.6634 7.77856 42.1167C5.62383 40.57 3.93283 38.2431 2.71909 35.1771C1.51899 32.0837 0.905273 27.7721 0.905273 22.2286ZM4.88741 22.2971C4.88741 27.074 5.31017 30.6876 6.16934 33.1376C7.01486 35.5877 8.26953 37.4356 9.93331 38.7085C11.5971 39.9814 13.3563 40.6111 15.211 40.6111C17.0794 40.6111 18.825 39.9951 20.4615 38.7496C22.0844 37.5177 23.3117 35.6562 24.1572 33.1787C25.2073 30.1674 25.7392 26.5402 25.7392 22.2971C25.7392 18.0402 25.2755 14.5499 24.3345 11.8398C23.3935 9.12961 22.098 7.14491 20.4479 5.88565C18.7977 4.62639 17.0521 3.99676 15.2247 3.99676C13.3563 3.99676 11.5971 4.62639 9.94696 5.88565C8.29682 7.14491 7.0558 8.99274 6.19664 11.4428C5.32384 13.8792 4.88741 17.5064 4.88741 22.2971Z" fill="#4C4C4C"/>
<path d="M56.5601 0H57.4193V29.5104H62.5198V33.5346H57.4193V43.376H53.2325V33.5346H33.0625L56.5601 0ZM53.2325 29.5104V11.7303L40.7405 29.4968H53.2325V29.5104Z" fill="#4C4C4C"/>
</svg>
