<svg width="239" height="85" viewBox="0 0 239 85" fill="none" xmlns="http://www.w3.org/2000/svg">
<path d="M124.962 82.2245C124.889 80.9583 125.849 79.8757 127.102 79.7931C128.363 79.7197 129.451 80.6831 129.524 81.94C129.606 83.2062 128.647 84.298 127.385 84.3714C127.339 84.3714 127.294 84.3806 127.248 84.3806C126.05 84.3806 125.036 83.4448 124.962 82.2245ZM111.378 84.3714C110.117 84.2889 109.166 83.197 109.239 81.9309C109.321 80.6739 110.4 79.7105 111.661 79.7839C112.923 79.8665 113.883 80.9583 113.801 82.2245C113.727 83.4356 112.722 84.3714 111.524 84.3714C111.479 84.3714 111.424 84.3714 111.378 84.3714ZM140.604 80.5546C140.366 79.316 141.18 78.1141 142.423 77.8755C143.666 77.6461 144.855 78.4627 145.092 79.7014C145.33 80.9492 144.516 82.1511 143.273 82.3805C143.127 82.4172 142.99 82.4263 142.843 82.4263C141.765 82.4263 140.805 81.6556 140.604 80.5546ZM95.4901 82.3713C94.256 82.1327 93.4423 80.9308 93.68 79.683C93.9086 78.4444 95.1061 77.6278 96.3494 77.8572C97.5835 78.0957 98.3971 79.2976 98.1685 80.5363C97.9583 81.6373 96.9984 82.408 95.9197 82.408C95.7826 82.408 95.6363 82.3896 95.4901 82.3713ZM155.925 76.9305C155.532 75.7194 156.19 74.4257 157.388 74.0404C158.585 73.6459 159.874 74.3064 160.267 75.5175C160.66 76.7195 160.002 78.0132 158.795 78.4077C158.567 78.4811 158.329 78.5178 158.091 78.5178C157.132 78.5178 156.236 77.903 155.925 76.9305ZM79.986 78.3802C78.7793 77.9856 78.1211 76.692 78.5142 75.4809C78.9073 74.2789 80.1962 73.6183 81.3938 74.0129C82.5913 74.4074 83.2495 75.701 82.8656 76.903C82.5456 77.8755 81.6497 78.4903 80.6899 78.4903C80.4522 78.4903 80.2145 78.4536 79.986 78.3802ZM170.652 71.3888C170.122 70.2419 170.606 68.8748 171.749 68.3335C172.892 67.7922 174.254 68.2877 174.793 69.4345C175.332 70.5814 174.839 71.9485 173.696 72.4806C173.385 72.6366 173.056 72.7008 172.727 72.7008C171.868 72.7008 171.045 72.2145 170.652 71.3888ZM65.0944 72.4531C63.9517 71.9118 63.4672 70.5447 64.0065 69.3978C64.5459 68.2509 65.908 67.7647 67.0415 68.306C68.1842 68.8473 68.6779 70.2052 68.1385 71.3521C67.7454 72.187 66.9227 72.6733 66.0725 72.6733C65.7434 72.6733 65.4143 72.5999 65.0944 72.4531ZM184.575 64.0304C183.898 62.957 184.218 61.544 185.279 60.865C186.339 60.1861 187.756 60.4981 188.432 61.5715C189.109 62.6358 188.798 64.0488 187.728 64.7369C187.354 64.9755 186.924 65.0947 186.503 65.0947C185.754 65.0947 185.013 64.7186 184.575 64.0304ZM51.0804 64.7002C50.0108 64.0213 49.7 62.5991 50.3765 61.5348C51.0529 60.4614 52.4699 60.1494 53.5303 60.8284C54.5999 61.5073 54.9107 62.9294 54.2342 63.9937C53.7954 64.6819 53.0549 65.058 52.3053 65.058C51.8848 65.058 51.4552 64.9388 51.0804 64.7002ZM197.464 54.9747C196.66 54.0022 196.797 52.5525 197.766 51.7451C198.744 50.9377 200.179 51.0753 200.984 52.0479C201.788 53.0296 201.651 54.4701 200.682 55.2775C200.252 55.6353 199.74 55.8096 199.228 55.8096C198.57 55.8096 197.912 55.5252 197.464 54.9747ZM38.1359 55.2408C37.1669 54.4426 37.0298 52.9929 37.8342 52.0112C38.6387 51.0386 40.0831 50.901 41.0521 51.7084C42.0302 52.5158 42.1582 53.9654 41.3537 54.938C40.9058 55.4885 40.2568 55.7729 39.5986 55.7729C39.0775 55.7729 38.5656 55.5986 38.1359 55.2408ZM209.129 44.3867C208.206 43.5151 208.16 42.0655 209.028 41.1388C209.888 40.2213 211.332 40.1754 212.255 41.0379C213.179 41.9095 213.224 43.3591 212.356 44.2858C211.908 44.7629 211.295 45.0015 210.692 45.0015C210.125 45.0015 209.568 44.7996 209.129 44.3867ZM26.4713 44.2399C25.6028 43.3224 25.6485 41.8728 26.5718 41.0012C27.486 40.1295 28.9395 40.1754 29.7988 41.1021C30.6673 42.0288 30.6215 43.4784 29.6982 44.3409C29.2594 44.7629 28.6927 44.9648 28.135 44.9648C27.5226 44.9648 26.9192 44.7262 26.4713 44.2399ZM219.377 32.4225C218.362 31.6702 218.133 30.2389 218.883 29.2113C218.883 29.2113 218.883 29.2113 218.874 29.2113C219.623 28.1837 221.049 27.9635 222.073 28.7066C223.088 29.459 223.317 30.8903 222.567 31.9179C222.119 32.5326 221.424 32.8537 220.72 32.8537C220.254 32.8537 219.788 32.7161 219.377 32.4225ZM16.2602 31.8629C15.5106 30.8444 15.7391 29.4039 16.7629 28.6608C17.7777 27.9176 19.2129 28.1378 19.9533 29.1654C20.6938 30.193 20.4653 31.6243 19.4506 32.3675C19.0392 32.6702 18.573 32.8079 18.1068 32.8079C17.4029 32.8079 16.699 32.4776 16.2602 31.8629ZM228.061 19.2656C226.955 18.6508 226.553 17.2562 227.165 16.1461C227.778 15.0359 229.167 14.6322 230.273 15.2469C231.37 15.8616 231.772 17.2562 231.169 18.3664C230.749 19.1188 229.972 19.55 229.167 19.55C228.792 19.55 228.408 19.4582 228.061 19.2656ZM7.66707 18.3022C7.05459 17.192 7.45683 15.7974 8.56296 15.1827C9.66909 14.5771 11.0586 14.9808 11.6619 16.091C12.2744 17.2012 11.8722 18.5958 10.7661 19.2013C10.4187 19.394 10.0347 19.4858 9.66908 19.4858C8.85548 19.4858 8.07844 19.0637 7.66707 18.3022ZM235.036 5.12687C233.857 4.65895 233.29 3.32857 233.747 2.14499C234.213 0.970593 235.548 0.392573 236.718 0.860498C237.888 1.32842 238.464 2.66798 237.998 3.84238C237.641 4.74153 236.782 5.29202 235.877 5.29202C235.594 5.29202 235.31 5.23697 235.036 5.12687ZM0.829204 3.75979C0.362984 2.57621 0.938906 1.24584 2.11817 0.777912C3.28829 0.309987 4.6138 0.888021 5.08002 2.06242C5.54624 3.246 4.97033 4.57638 3.80021 5.0443C3.52596 5.1544 3.24256 5.20944 2.95918 5.20944C2.04502 5.20944 1.18572 4.65894 0.829204 3.75979Z" fill="#4D4D4D"/>
</svg>
