<svg width="100" height="145" viewBox="0 0 100 145" fill="none" xmlns="http://www.w3.org/2000/svg">
<path fill-rule="evenodd" clip-rule="evenodd" d="M23.3723 118.507L23.6742 117.903L24.0514 118.62C24.9946 121.975 31.031 123.256 32.6156 118.205C33.2947 118.921 33.5965 119.977 34.5019 120.655C36.8033 122.352 40.9156 121.749 41.6702 118.167L42.0097 118.582C42.802 119.6 42.5756 119.939 43.5188 120.655C47.9707 124.086 51.0643 118.205 51.1398 118.167C51.5548 120.165 53.1393 121.711 55.7048 121.598C56.7989 121.56 57.8176 121.07 58.4589 120.542C59.4021 119.751 59.2512 119.147 60.1567 118.205C61.3639 123.03 67.9663 122.276 68.6831 118.507L68.9472 117.941L69.3622 118.657C70.7581 122.616 76.2286 122.54 77.7754 118.695L78.0018 117.979L78.4168 118.544C79.36 122.766 85.585 122.54 87.0941 118.054C88.075 119.637 87.9619 120.391 89.735 121.183C94.6773 123.294 98.2615 117.602 94.5642 113.757L93.9228 113.04C95.0546 112.513 96.1487 111.118 95.9601 109.12C95.7337 106.933 94.036 106.519 93.8473 105.765C93.8096 105.689 93.7342 105.652 93.6964 105.614C96.6769 102.824 96.7146 100.525 93.2814 98.0746C94.4133 96.9436 95.8092 96.4913 95.6583 94.0409C95.5451 92.1561 94.3001 91.0252 92.7532 90.5351C93.1305 90.1581 92.6778 90.5728 93.2814 90.0827C95.9978 88.0471 96.6769 84.9182 93.206 83.1841L92.376 82.7317C92.3382 82.6187 92.2251 82.6564 92.1496 82.6187C93.9605 82.0909 95.5074 81.0354 95.3187 78.6981C95.1678 76.851 93.621 75.4185 91.6591 75.3808C86.9809 75.3431 86.6037 81.45 91.1687 82.6564L89.9237 83.2972C89.5464 83.5234 89.2069 83.7119 88.905 84.0135C88.2637 84.6166 87.7732 85.3706 87.7355 86.4638C87.66 89.1403 89.32 89.4419 90.5273 90.5351C84.2645 92.6461 89.6219 98.3761 89.8105 98.0746C89.8482 97.9992 89.9237 98.1877 89.9991 98.2631C87.3205 99.2809 85.9623 102.41 89.5841 105.652C88.6787 106.707 87.3205 107.084 87.245 109.421C87.2073 111.382 88.1882 112.626 89.32 113.154C88.7164 113.945 88.6409 113.644 87.9996 114.511L86.9809 116.132C86.6414 115.453 86.415 114.963 86 114.473L84.7927 113.04C86.7546 112.173 87.6223 109.082 86.0755 107.122C85.8868 106.896 85.5473 106.594 85.3586 106.368L84.5664 105.614C85.7359 104.709 86.83 103.691 86.7168 101.58C86.5659 99.5071 85.3964 99.017 84.2268 98.0746C84.2645 97.9992 84.3777 97.9615 84.4155 97.9238L85.9246 96.4536C86.4905 95.6619 86.6791 94.8326 86.5282 93.7394C86.3396 92.3446 85.585 91.666 84.5664 90.9121L83.6609 90.2335C85.3209 89.7811 86.6037 88.5371 86.3773 86.2376C86.0755 83.4103 83.8495 83.825 83.51 82.7317C83.4723 82.581 83.3591 82.6187 83.2836 82.5433C87.9241 81.6762 86.83 75.2677 82.3404 75.4562C78.3791 75.6069 77.0586 81.2992 81.9254 82.6187L81.2464 83.071C78.0772 85.0313 77.2095 88.8387 81.4727 90.3089C80.0768 91.4775 78.6431 91.5152 78.4922 94.0409C78.3413 96.6044 79.6241 96.6421 80.8691 98.1123C79.5486 99.017 78.4168 99.9217 78.3413 101.882C78.3036 104.031 79.3977 104.747 80.4918 105.652C79.5109 106.745 78.2659 107.009 78.1527 109.421C78.0772 111.382 79.0959 112.663 80.2277 113.191L77.9641 116.282C76.87 114.171 77.3604 114.85 75.7381 113.38C77.3981 111.721 78.6809 109.572 77.0586 107.122C76.7568 106.67 75.8136 106.255 75.7004 105.803C75.6627 105.689 75.5872 105.689 75.5118 105.652C76.6813 104.596 77.7754 103.805 77.6245 101.618C77.5113 99.9217 76.2663 98.7908 75.0968 98.1123C76.0022 97.1321 77.6245 96.7175 77.4736 94.0409C77.3604 92.0053 76.1154 91.0252 74.4931 90.4974C75.8136 89.4796 77.4359 89.1403 77.3227 86.5015C77.285 85.4836 76.8322 84.6166 76.304 84.0888C75.9268 83.7119 75.7759 83.6742 75.2854 83.3726L74.0404 82.581C79.0204 81.2992 77.5491 75.1923 73.3236 75.3808C69.1358 75.5692 68.1172 81.45 72.8708 82.581L71.6258 83.3726C68.4944 85.1821 69.1358 88.9895 72.4181 90.3466C71.0976 91.3267 69.5885 91.5906 69.4376 94.0409C69.2867 96.7552 70.909 97.0567 71.8145 98.1123C68.5322 100.035 68.5322 103.465 71.4749 105.652C70.6826 106.519 70.6072 106.029 69.8904 107.122C68.4944 109.233 69.4376 111.985 71.1731 113.267C69.9281 114.398 69.7395 114.548 69.0604 116.169C69.0226 116.094 68.9472 116.019 68.9094 115.981L66.6835 113.455C70.6072 109.158 68.3813 107.914 66.4194 105.652C69.3245 103.352 69.3622 100.261 66.0422 98.1123C67.0231 96.9436 68.6076 96.6798 68.419 94.0409C68.2681 91.9299 67.0231 91.1383 65.4385 90.4974C66.7213 89.4419 68.4944 88.9518 68.2304 86.2376C67.9663 83.825 66.4572 83.6365 64.7972 82.6564C69.9281 81.1108 68.4945 75.5316 64.5708 75.3808C62.5712 75.3054 60.8735 76.7379 60.6849 78.6227C60.4585 81.1862 61.9299 82.0532 63.8162 82.581C62.2694 83.7873 60.6094 83.8627 60.4962 86.4638C60.4208 88.801 61.8167 89.555 63.2881 90.3843C61.779 90.9498 60.4585 92.043 60.3076 93.9656C60.1567 96.2274 61.5903 96.906 62.6844 98.0369C61.4771 98.9793 60.3076 99.4694 60.1567 101.543C60.0058 103.503 61.213 104.785 62.3071 105.576C61.213 106.67 60.0435 107.65 59.968 109.384C59.8926 111.306 60.9112 112.437 62.0808 112.965C61.5149 114.021 62.1185 113.003 61.628 113.644C61.5526 113.719 61.3639 113.907 61.3262 113.983C61.1753 114.134 60.9867 114.284 60.7603 114.548C60.1567 115.302 60.2321 115.34 60.0058 116.169L59.2889 115.151C59.1003 114.812 59.1003 114.737 58.8739 114.398C58.308 113.606 58.1571 113.794 57.5535 113.078C58.7607 112.513 59.7794 111.156 59.5908 109.045C59.4021 106.933 58.1948 106.594 57.2894 105.539C60.1944 102.975 60.4585 99.6202 56.8744 98.15L57.2516 97.773C58.4212 96.6798 59.4021 95.775 59.3267 93.9279C59.2135 91.9676 57.9307 90.9498 56.3839 90.422C57.7044 89.2157 59.4398 88.7633 59.1757 86.0868C58.9494 83.7873 57.2139 83.5234 55.7803 82.5433C60.798 81.1108 59.5908 75.23 55.2898 75.2677C51.1775 75.3054 49.8193 81.2239 54.8371 82.5056L54.4221 82.7694C54.3466 82.8071 54.2712 82.8448 54.1957 82.8825L52.6112 83.9004C52.1207 84.3527 51.5925 85.4083 51.5548 86.3884C51.4793 88.6879 53.0639 89.1403 54.3089 90.4974C52.7621 90.9498 51.5171 92.1184 51.4039 93.9656C51.2907 96.1143 52.6112 96.7929 53.743 97.9992C52.5734 98.9416 51.2907 99.4694 51.253 101.769C51.2152 103.805 52.3848 104.521 53.4034 105.539C53.3657 105.576 53.2903 105.652 53.2525 105.689C53.2148 105.727 53.1393 105.803 53.1016 105.84C50.6493 108.14 49.9702 111.495 53.1771 113.003L52.4225 113.87C51.7057 114.586 51.3662 115.151 51.1398 116.169L48.6875 113.04C49.8571 112.513 50.9512 111.118 50.7625 109.082C50.6116 107.348 49.5552 106.594 48.4611 105.539C49.593 104.483 50.8002 103.805 50.6116 101.467C50.423 99.2809 49.3289 98.9039 48.1216 97.9615C48.4234 97.6599 48.1216 97.9615 48.612 97.5091C50.423 95.8881 51.3662 93.664 49.4043 91.5152L47.5557 90.0827C51.5171 88.8387 51.1021 83.3726 47.2539 82.9202L45.6316 82.8825C43.9338 83.2218 42.5756 84.5412 42.5756 86.6146C42.6134 88.9141 44.2357 89.2911 45.3675 90.3843C42.3115 91.4398 41.6702 94.2671 43.1416 96.3028C43.7829 97.2452 44.1225 97.2829 44.8016 97.9238C41.4438 100.336 41.2552 102.598 44.462 105.463C43.5943 106.556 42.2361 107.047 42.1606 109.233C42.0852 111.457 43.4434 112.286 44.1979 113.304C42.6511 113.945 43.1793 114.134 42.0852 115.679L41.7456 116.094C41.5947 115.34 41.3306 114.812 40.8779 114.284L39.6706 112.89C40.8779 112.362 41.8965 110.967 41.7456 109.007C41.557 107.197 40.5384 106.594 39.4443 105.501C40.5384 104.672 41.7456 103.465 41.5947 101.467C41.4061 99.4317 40.3497 98.9039 39.1424 97.9615C40.0479 97.0567 41.7456 96.2274 41.4438 93.7017C41.1797 91.5529 39.5197 90.9498 38.5765 90.0827C40.2743 89.6304 41.6325 88.0094 41.2552 85.8229C40.8402 83.4857 39.5952 83.5611 37.7842 82.581C39.7461 82.0532 41.2174 81.2239 41.142 78.8112C41.1043 76.8133 39.4065 75.3431 37.5202 75.2677C33.2947 75.1546 31.9742 81.2992 36.8411 82.4302C36.0111 83.1841 35.4074 83.1087 34.6151 84.0135C31.4083 87.5947 36.0865 90.1204 36.3883 90.3843C34.8038 90.799 33.5588 91.9676 33.4456 93.9279C33.2947 96.2274 34.4642 96.8306 35.5206 97.6976L35.8224 97.9992C34.5397 98.9039 33.3324 99.771 33.2947 101.807C33.2569 103.993 34.351 104.634 35.4451 105.576C34.5397 106.67 33.1815 106.971 33.106 109.346C33.0683 111.872 34.2756 112.286 35.1433 113.417C33.521 114.322 33.5588 115.265 32.7665 116.169C32.3138 114.661 31.9365 114.624 31.2951 113.832L30.5028 112.927C33.3701 111.57 33.1438 108.14 30.9556 106.142L30.3142 105.539C31.4837 104.596 32.5778 103.616 32.4269 101.505C32.276 99.4694 31.1065 98.9416 29.8992 97.9992C30.9556 96.8683 32.4269 96.4913 32.276 93.9279C32.1628 91.8545 30.8424 91.0629 29.2956 90.3466C30.7669 89.3665 32.3892 88.8387 32.0874 86.1245C31.8233 83.7119 30.2765 83.5611 28.5787 82.581C33.936 81.1862 32.2006 75.3808 28.3524 75.2677C26.2774 75.1923 24.6928 76.8133 24.5419 78.5473C24.3532 80.8846 25.8246 82.0532 27.6355 82.4679L25.3719 83.9758C23.7873 85.7475 23.7496 88.8387 27.1451 90.1958C25.8246 91.2514 24.3532 91.3267 24.2023 93.8902C24.0514 96.5667 25.7114 96.906 26.5792 97.9615C23.1082 100.148 23.2969 103.315 26.1642 105.501C25.5605 106.142 25.1833 106.104 24.6173 107.009C23.2214 109.158 23.7873 111.57 25.9378 113.116C25.1455 113.87 24.391 114.473 24.0137 115.679L23.7873 116.358L23.3723 115.717C23.1082 114.511 22.2028 113.832 21.4482 113.078C22.6555 112.437 23.6742 110.892 23.4855 108.969C23.2591 106.745 22.0519 106.519 21.1841 105.463C24.2401 103.051 24.2401 100.223 20.8069 97.9238C21.6746 96.9436 23.3346 96.4913 23.1837 93.8525C23.0705 91.8922 21.7123 90.799 20.2032 90.3089C21.5237 89.2911 23.146 88.8764 23.0328 86.2753C22.9196 83.7119 20.5428 83.1464 19.7882 82.5056C24.7305 81.0354 23.2969 75.2677 19.0714 75.3054C15.11 75.3431 13.6009 81.2992 18.6187 82.5433C18.2414 82.8448 18.6564 82.581 17.9773 82.9579C17.6 83.1841 17.7509 83.071 17.3737 83.2972C16.2418 83.9381 15.3364 84.7297 15.2986 86.4261C15.2609 88.7256 16.355 89.5927 18.1282 90.2712C16.6946 91.176 15.2986 91.8545 15.1477 93.9656C14.9591 96.5667 16.4682 96.8683 17.5246 98.0369C14.3555 100.412 13.8273 102.862 17.1473 105.576L16.6568 106.029C13.7518 108.668 14.5441 111.872 16.9209 112.965C16.4305 113.945 16.2796 113.681 15.6005 114.548C15.11 115.189 15.0723 115.415 14.8459 116.094C14.8082 116.019 14.7327 115.943 14.695 115.905C12.9973 113.304 13.9027 114.85 12.4313 113.078C13.6009 112.437 14.6573 111.156 14.4309 109.045C14.2423 107.009 12.9973 106.556 12.1295 105.539C15.1477 102.975 15.2609 100.299 11.79 97.9992C12.7332 96.8683 14.28 96.3405 14.1291 93.9656C14.0159 92.0053 12.7709 90.9498 11.1863 90.4597C12.4691 89.2534 14.2423 88.8387 13.9782 86.1245C13.8273 84.4658 12.6954 83.6742 11.6391 83.1464L10.5827 82.581C15.7514 81.2239 14.28 75.2677 10.0922 75.3431C6.16858 75.4185 4.50857 81.1108 9.63951 82.581L8.35678 83.2595C5.30085 84.8805 5.60267 89.1026 9.03587 90.1581C8.43223 90.6482 7.63995 90.9875 6.99859 91.7414C4.24448 94.9834 8.13041 97.5845 8.50769 97.9992C7.18722 98.9416 6.16858 99.4694 5.94222 101.505C5.75358 103.88 6.96086 104.408 8.09268 105.539L6.4704 107.16C5.22539 108.894 5.67812 111.834 7.82859 113.003C7.48904 113.53 7.75314 113.116 7.37586 113.53C7.30041 113.606 7.11177 113.757 7.07404 113.832C4.73493 116.207 5.41403 119.26 7.41359 120.693C9.14906 121.975 12.205 121.899 13.7141 119.901L14.7327 118.243C15.4496 119.524 15.1855 119.562 16.3173 120.467C19.0337 122.691 22.8441 121.221 23.3723 118.507Z" fill="black"/>
<path fill-rule="evenodd" clip-rule="evenodd" d="M45.2916 82.4307H47.5175C49.1398 81.639 50.3471 80.6589 50.0453 78.3593C49.8189 76.5876 48.3475 75.3436 46.3857 75.3059C42.3111 75.2682 41.0284 80.772 45.2916 82.4307Z" fill="black"/>
<path fill-rule="evenodd" clip-rule="evenodd" d="M85.9623 72.4776C87.6978 68.1424 80.8691 65.8806 79.3223 69.9896C77.6623 74.3625 84.2269 76.8882 85.9623 72.4776Z" fill="black"/>
<path fill-rule="evenodd" clip-rule="evenodd" d="M76.909 72.4774C78.4558 67.7652 71.5894 66.2196 70.2312 69.9516C68.4958 74.7769 75.5885 76.5864 76.909 72.4774Z" fill="black"/>
<path fill-rule="evenodd" clip-rule="evenodd" d="M40.6523 72.4776C42.35 68.1424 35.5968 65.8806 34.0122 69.9896C32.3522 74.3248 38.9168 76.8882 40.6523 72.4776Z" fill="black"/>
<path fill-rule="evenodd" clip-rule="evenodd" d="M94.9047 72.7414C96.8666 68.4816 90.4529 65.692 88.4533 69.801C86.4538 73.9477 93.0184 76.9258 94.9047 72.7414Z" fill="black"/>
<path fill-rule="evenodd" clip-rule="evenodd" d="M6.62217 71.8755C7.22581 76.173 14.3186 75.4191 13.6395 70.7446C12.9981 66.4471 5.94307 66.9749 6.62217 71.8755Z" fill="black"/>
<path fill-rule="evenodd" clip-rule="evenodd" d="M49.7449 72.4778C51.5935 67.9918 44.4253 66.2577 43.0671 70.0274C41.4071 74.5511 48.0094 76.6999 49.7449 72.4778Z" fill="black"/>
<path fill-rule="evenodd" clip-rule="evenodd" d="M60.9867 71.8748C61.5526 75.9461 68.6831 75.5314 68.004 70.7062C67.4004 66.4087 60.3076 67.0118 60.9867 71.8748Z" fill="black"/>
<path fill-rule="evenodd" clip-rule="evenodd" d="M24.7692 71.8744C25.2597 75.9834 32.3902 75.4933 31.7488 70.7811C31.1829 66.3705 24.1656 66.9737 24.7692 71.8744Z" fill="black"/>
<path fill-rule="evenodd" clip-rule="evenodd" d="M15.7135 71.8754C16.2794 75.9844 23.3722 75.532 22.7308 70.7068C22.0894 66.4847 15.0344 66.9747 15.7135 71.8754Z" fill="black"/>
<path fill-rule="evenodd" clip-rule="evenodd" d="M52.0082 72.1759C52.9514 76.1718 60.0064 75.154 58.9123 70.4795C57.9692 66.4459 50.8764 67.313 52.0082 72.1759Z" fill="black"/>
<path fill-rule="evenodd" clip-rule="evenodd" d="M88.3769 64.3358C89.1315 68.4071 95.9224 67.6155 94.9793 62.9033C94.2247 58.9451 87.5469 59.699 88.3769 64.3358Z" fill="black"/>
<path fill-rule="evenodd" clip-rule="evenodd" d="M13.262 64.9011C15.1107 60.9052 8.77243 58.3794 7.0747 62.1869C5.07514 66.6729 11.5265 68.7085 13.262 64.9011Z" fill="black"/>
<path fill-rule="evenodd" clip-rule="evenodd" d="M58.5731 64.9014C60.3463 60.717 54.0081 58.5683 52.3481 62.1872C50.2731 66.7863 57.0263 68.5581 58.5731 64.9014Z" fill="black"/>
<path fill-rule="evenodd" clip-rule="evenodd" d="M43.0669 64.3359C43.331 65.9569 45.1042 67.314 47.1792 66.8616C48.8015 66.5223 50.0465 65.0898 49.707 63.0165C49.0656 58.9829 42.2369 59.586 43.0669 64.3359Z" fill="black"/>
<path fill-rule="evenodd" clip-rule="evenodd" d="M61.2524 64.6362C62.3842 68.6698 68.9488 67.0866 67.7792 62.7514C67.3642 61.1681 65.5533 59.9995 63.6669 60.4141C62.0824 60.7534 60.6865 62.5629 61.2524 64.6362Z" fill="black"/>
<path fill-rule="evenodd" clip-rule="evenodd" d="M70.3059 64.6366C71.3623 68.5948 78.1155 67.1246 76.795 62.7141C75.6255 58.7181 69.1363 60.0752 70.3059 64.6366Z" fill="black"/>
<path fill-rule="evenodd" clip-rule="evenodd" d="M79.3612 64.6363C80.493 68.5946 87.133 67.1244 85.8503 62.6761C84.7562 58.8309 78.0407 60.0373 79.3612 64.6363Z" fill="black"/>
<path fill-rule="evenodd" clip-rule="evenodd" d="M34.0122 64.335C34.6913 68.2556 41.5577 67.5393 40.6522 62.9025C39.8599 58.982 33.1822 59.6982 34.0122 64.335Z" fill="black"/>
<path fill-rule="evenodd" clip-rule="evenodd" d="M25.0341 64.6375C26.2036 68.6334 32.6928 67.1255 31.5232 62.6772C30.5423 58.9452 23.6759 60.0761 25.0341 64.6375Z" fill="black"/>
<path fill-rule="evenodd" clip-rule="evenodd" d="M15.8656 64.3352C16.5447 68.218 23.3357 67.5395 22.5434 62.9404C22.2416 61.244 20.4684 60.0377 18.6198 60.3393C16.9597 60.6409 15.5261 62.2995 15.8656 64.3352Z" fill="black"/>
<path fill-rule="evenodd" clip-rule="evenodd" d="M85.6618 57.0596C87.2464 53.2145 81.1345 51.1034 79.6632 54.6093C77.9277 58.7183 84.0018 61.1309 85.6618 57.0596Z" fill="black"/>
<path fill-rule="evenodd" clip-rule="evenodd" d="M70.6456 57.362C72.4188 60.9432 78.1912 58.6814 76.4934 54.61C74.9843 51.0288 68.6461 53.3283 70.6456 57.362Z" fill="black"/>
<path fill-rule="evenodd" clip-rule="evenodd" d="M31.2968 57.0601C32.7682 52.8757 26.694 51.3678 25.2981 54.6098C23.4872 58.9073 29.9386 60.943 31.2968 57.0601Z" fill="black"/>
<path fill-rule="evenodd" clip-rule="evenodd" d="M40.3879 57.0593C42.0102 53.2518 35.672 50.9146 34.3138 54.8728C32.9179 58.831 38.6902 61.0175 40.3879 57.0593Z" fill="black"/>
<path fill-rule="evenodd" clip-rule="evenodd" d="M94.716 57.0597C96.2628 53.29 90.3019 51.0658 88.7173 54.6848C86.9441 58.7561 93.0937 61.0556 94.716 57.0597Z" fill="black"/>
<path fill-rule="evenodd" clip-rule="evenodd" d="M61.3647 56.7968C62.3079 60.7174 68.7216 59.4356 67.6275 55.1005C67.2502 53.6303 65.6656 52.4993 63.7038 52.914C62.1947 53.2533 60.912 54.8366 61.3647 56.7968Z" fill="black"/>
<path fill-rule="evenodd" clip-rule="evenodd" d="M43.2548 56.7964C44.1603 60.6792 50.574 59.5483 49.4799 55.1754C48.6499 51.6318 42.2362 52.3481 43.2548 56.7964Z" fill="black"/>
<path fill-rule="evenodd" clip-rule="evenodd" d="M6.92447 56.4951C7.3772 60.3779 14.0927 59.8879 13.3004 55.3642C12.6591 51.7075 6.43401 52.2353 6.92447 56.4951Z" fill="black"/>
<path fill-rule="evenodd" clip-rule="evenodd" d="M16.0928 56.7963C16.8474 60.2644 23.1479 59.6613 22.3933 55.3638C21.6765 51.4809 15.1119 52.2349 16.0928 56.7963Z" fill="black"/>
<path fill-rule="evenodd" clip-rule="evenodd" d="M49.3302 49.2195C50.4998 45.1859 44.4256 43.7534 43.4447 47.4477C42.3129 51.7075 48.3116 52.763 49.3302 49.2195Z" fill="black"/>
<path fill-rule="evenodd" clip-rule="evenodd" d="M12.9591 49.52C14.506 45.5995 8.6582 43.7146 7.3 47.0697C5.67772 51.141 11.6009 52.9882 12.9591 49.52Z" fill="black"/>
<path fill-rule="evenodd" clip-rule="evenodd" d="M31.1079 49.5199C32.8056 45.7502 26.807 43.7145 25.411 47.145C23.8642 50.9524 29.4856 53.1012 31.1079 49.5199Z" fill="black"/>
<path fill-rule="evenodd" clip-rule="evenodd" d="M79.5873 48.9558C80.1532 52.5371 86.3405 51.9716 85.6237 47.8249C84.9446 43.9797 78.9837 44.8091 79.5873 48.9558Z" fill="black"/>
<path fill-rule="evenodd" clip-rule="evenodd" d="M88.7163 49.2195C89.6218 52.5369 95.6582 51.8206 94.6396 47.5231C93.8095 44.0173 87.5468 44.9974 88.7163 49.2195Z" fill="black"/>
<path fill-rule="evenodd" clip-rule="evenodd" d="M22.0527 49.521C23.7504 45.5628 17.714 43.9795 16.3935 47.1083C14.7335 51.0289 20.5436 52.9891 22.0527 49.521Z" fill="black"/>
<path fill-rule="evenodd" clip-rule="evenodd" d="M70.6081 49.2186C71.4759 52.6491 77.5123 51.669 76.4936 47.5976C75.6636 44.0918 69.5518 44.9965 70.6081 49.2186Z" fill="black"/>
<path fill-rule="evenodd" clip-rule="evenodd" d="M34.3147 48.9545C34.9183 52.6112 40.917 51.7818 40.3511 47.8236C39.8229 44.167 33.6356 44.7701 34.3147 48.9545Z" fill="black"/>
<path fill-rule="evenodd" clip-rule="evenodd" d="M30.9954 41.68C32.3914 37.948 26.77 36.3647 25.5627 39.4936C24.0536 43.5649 29.7882 44.9974 30.9954 41.68Z" fill="black"/>
<path fill-rule="evenodd" clip-rule="evenodd" d="M85.3222 42.0564C86.9822 38.5882 81.6249 36.1002 80.0403 39.3044C79.2481 40.9254 80.0026 42.7349 81.3985 43.3004C83.4358 44.092 85.0581 42.5841 85.3222 42.0564Z" fill="black"/>
<path fill-rule="evenodd" clip-rule="evenodd" d="M43.5588 41.4153C44.3134 44.9211 50.0857 43.9033 49.218 40.0582C48.4634 36.6654 42.6911 37.4571 43.5588 41.4153Z" fill="black"/>
<path fill-rule="evenodd" clip-rule="evenodd" d="M34.5783 41.6799C35.597 44.9596 41.3316 43.5648 40.0488 39.7197C38.9925 36.4777 33.3333 37.7594 34.5783 41.6799Z" fill="black"/>
<path fill-rule="evenodd" clip-rule="evenodd" d="M7.3009 41.4164C7.98 44.583 13.8655 44.1307 12.9223 40.0216C12.13 36.3273 6.50862 37.6844 7.3009 41.4164Z" fill="black"/>
<path fill-rule="evenodd" clip-rule="evenodd" d="M88.8293 41.4162C89.5084 44.7712 95.3562 43.9419 94.5262 40.0591C93.7716 36.6663 88.0371 37.4957 88.8293 41.4162Z" fill="black"/>
<path fill-rule="evenodd" clip-rule="evenodd" d="M76.3045 41.6791C77.6627 37.8717 71.9659 36.5146 70.8718 39.4927C69.4004 43.4886 75.1727 44.8834 76.3045 41.6791Z" fill="black"/>
<path fill-rule="evenodd" clip-rule="evenodd" d="M16.3567 41.415C16.9604 44.5816 22.8836 44.0539 22.0159 40.0202C21.3368 36.7783 15.5645 37.3814 16.3567 41.415Z" fill="black"/>
<path fill-rule="evenodd" clip-rule="evenodd" d="M7.60332 34.1405C8.92378 37.2316 14.2434 35.4976 12.6588 31.9163C11.3383 29.0136 6.05649 30.5969 7.60332 34.1405Z" fill="black"/>
<path fill-rule="evenodd" clip-rule="evenodd" d="M21.7516 34.1399C23.1475 30.8225 18.1674 28.8999 16.7338 31.8026C15.0738 35.1577 20.3179 37.4949 21.7516 34.1399Z" fill="black"/>
<path fill-rule="evenodd" clip-rule="evenodd" d="M34.6165 33.5744C35.1447 37.0048 40.7284 36.2132 40.0115 32.4811C39.4079 29.3146 34.0506 29.8046 34.6165 33.5744Z" fill="black"/>
<path fill-rule="evenodd" clip-rule="evenodd" d="M70.8715 33.574C71.3243 36.9291 76.9834 36.3259 76.2666 32.5185C75.6252 29.3142 70.3433 29.8043 70.8715 33.574Z" fill="black"/>
<path fill-rule="evenodd" clip-rule="evenodd" d="M43.8595 34.1398C45.1423 37.3063 50.311 35.4592 48.915 31.9533C47.7455 29.0129 42.4259 30.6339 43.8595 34.1398Z" fill="black"/>
<path fill-rule="evenodd" clip-rule="evenodd" d="M88.9809 33.5748C89.5091 36.7791 95.0551 36.289 94.376 32.4816C93.7346 29.0888 88.3773 29.9936 88.9809 33.5748Z" fill="black"/>
<path fill-rule="evenodd" clip-rule="evenodd" d="M79.9271 33.5746C80.4176 36.7412 86.039 36.2888 85.3221 32.4814C84.643 29.164 79.3612 29.9179 79.9271 33.5746Z" fill="black"/>
<path fill-rule="evenodd" clip-rule="evenodd" d="M81.8515 23.0195C78.5315 24.0373 80.0406 28.9003 83.5115 27.807C84.7565 27.4301 85.6242 25.9222 84.9829 24.3766C84.5302 23.208 83.1342 22.6048 81.8515 23.0195Z" fill="black"/>
<path fill-rule="evenodd" clip-rule="evenodd" d="M18.5064 22.9808C15.2242 23.9232 16.5823 28.7862 20.0156 27.8061C23.1092 26.9767 21.9019 22.0007 18.5064 22.9808Z" fill="black"/>
<path fill-rule="evenodd" clip-rule="evenodd" d="M9.33873 23.0944C5.83007 24.4892 7.90508 28.8998 11.1496 27.7312C13.9415 26.7511 12.6587 21.7373 9.33873 23.0944Z" fill="black"/>
<path fill-rule="evenodd" clip-rule="evenodd" d="M36.4272 23.1691C35.635 23.5083 35.2954 23.2445 34.8804 24.4131C33.9749 27.0142 36.5404 28.5975 38.4645 27.6927C41.2941 26.3356 39.5964 21.8497 36.4272 23.1691Z" fill="black"/>
<path fill-rule="evenodd" clip-rule="evenodd" d="M90.906 23.0201C87.3973 24.2264 89.3969 28.9009 92.6037 27.7323C95.7351 26.6013 93.9997 21.9646 90.906 23.0201Z" fill="black"/>
<path fill-rule="evenodd" clip-rule="evenodd" d="M45.5939 23.0563C42.0475 24.2627 44.1603 28.8994 47.2917 27.8062C50.159 26.7884 48.914 21.8877 45.5939 23.0563Z" fill="black"/>
<path fill-rule="evenodd" clip-rule="evenodd" d="M82.1536 15.4421C78.8713 16.1207 80.0032 20.946 83.4364 20.0412C86.0773 19.3627 85.3228 14.8013 82.1536 15.4421Z" fill="black"/>
<path fill-rule="evenodd" clip-rule="evenodd" d="M36.653 15.5549C33.4462 16.6104 34.993 20.9079 38.0867 20.0408C40.9163 19.2492 39.8976 14.4993 36.653 15.5549Z" fill="black"/>
<path fill-rule="evenodd" clip-rule="evenodd" d="M18.6191 15.5171C15.1859 16.535 16.9214 21.021 20.0528 20.0031C22.656 19.2115 21.675 14.5747 18.6191 15.5171Z" fill="black"/>
<path fill-rule="evenodd" clip-rule="evenodd" d="M45.6695 15.5933C42.0854 16.875 44.4999 21.1348 47.2918 19.9662C49.9327 18.9106 48.6122 14.5377 45.6695 15.5933Z" fill="black"/>
<path fill-rule="evenodd" clip-rule="evenodd" d="M91.0189 15.5925C87.4725 16.7988 89.6984 21.134 92.6412 19.9654C95.2444 18.9099 93.8862 14.6124 91.0189 15.5925Z" fill="black"/>
<path fill-rule="evenodd" clip-rule="evenodd" d="M18.129 8.16705C15.6012 9.59955 17.3744 13.4824 20.2795 12.0876C22.7695 10.8813 20.8831 6.62146 18.129 8.16705Z" fill="black"/>
<path fill-rule="evenodd" clip-rule="evenodd" d="M81.549 8.20422C79.1721 9.74981 80.9076 13.218 83.6617 12.1624C86.3781 11.1446 84.1899 6.47014 81.549 8.20422Z" fill="black"/>
<path fill-rule="evenodd" clip-rule="evenodd" d="M90.5662 8.27964C87.8875 9.71214 90.1134 13.4442 92.8675 12.0871C95.2444 10.8431 93.5089 6.73405 90.5662 8.27964Z" fill="black"/>
<path fill-rule="evenodd" clip-rule="evenodd" d="M18.6942 0.325327C15.8646 1.19237 16.9964 5.18829 19.8637 4.47204C22.5801 3.79348 21.5614 -0.541712 18.6942 0.325327Z" fill="#ED1C24"/>
<path fill-rule="evenodd" clip-rule="evenodd" d="M45.5566 82.9572L47.1789 82.9949L47.5184 82.4294H45.2925L45.5566 82.9572Z" fill="black"/>
<path fill-rule="evenodd" clip-rule="evenodd" d="M24.052 115.717L23.4106 115.754L23.8256 116.433L24.052 115.717Z" fill="black"/>
<path fill-rule="evenodd" clip-rule="evenodd" d="M77.7769 118.658L78.4182 118.507L78.0032 117.942L77.7769 118.658Z" fill="black"/>
<path fill-rule="evenodd" clip-rule="evenodd" d="M23.373 118.506L24.0521 118.62L23.6749 117.903L23.373 118.506Z" fill="black"/>
<path fill-rule="evenodd" clip-rule="evenodd" d="M68.6841 118.469L69.3632 118.62L68.9482 117.903L68.6841 118.469Z" fill="black"/>
<path d="M13.149 133.209C12.8095 132.04 12.1304 131.098 11.1495 130.382C10.1685 129.665 9.03671 129.288 7.75397 129.288C6.88624 129.288 6.16942 129.515 5.64123 129.929C5.11305 130.344 4.84896 130.947 4.84896 131.663C4.84896 132.191 5.15078 132.719 5.71669 133.209C6.2826 133.699 7.22579 134.189 8.50853 134.717C10.7344 135.659 12.2813 136.526 13.149 137.243C14.0167 137.997 14.4317 138.864 14.4317 139.844C14.4317 141.163 13.8281 142.181 12.6208 142.973C11.4135 143.727 9.79126 144.141 7.71625 144.141C6.58442 144.141 5.49032 143.915 4.43395 143.5C3.98122 143.312 3.64167 143.274 3.33985 143.312C3.03803 143.387 2.81167 143.538 2.66076 143.84L2.54758 144.028H1.79303L0.925293 139.165H1.64212C2.09485 140.334 2.88712 141.314 4.01895 142.068C5.15078 142.822 6.35806 143.199 7.67852 143.199C8.81035 143.199 9.71581 142.935 10.3949 142.445C11.074 141.955 11.4135 141.276 11.4135 140.409C11.4135 139.881 11.074 139.316 10.3194 138.788C9.60262 138.26 8.43307 137.657 6.84851 136.979C5.11305 136.262 3.83031 135.509 3.00031 134.792C2.1703 134.038 1.7553 133.284 1.7553 132.53C1.7553 131.324 2.28348 130.306 3.30213 129.552C4.32077 128.761 5.64123 128.384 7.26352 128.384C8.43307 128.384 9.60262 128.61 10.6967 129.025C11.0363 129.138 11.3381 129.175 11.6776 129.1C12.0172 129.025 12.2436 128.912 12.3945 128.685L12.5831 128.384H13.3376L13.9413 133.247H13.149V133.209ZM26.6555 144.179C23.7882 144.179 21.4113 143.425 19.6004 141.955C17.7518 140.485 16.8463 138.6 16.8463 136.262C16.8463 133.925 17.7518 132.04 19.6004 130.57C21.4491 129.1 23.7882 128.346 26.6555 128.346C29.5228 128.346 31.8996 129.1 33.7482 130.57C35.5592 132.04 36.5024 133.963 36.5024 136.262C36.5024 138.562 35.5969 140.485 33.7482 141.955C31.8996 143.425 29.5605 144.179 26.6555 144.179ZM26.6555 143.199C28.5796 143.199 30.0887 142.596 31.2205 141.352C32.3523 140.108 32.9182 138.411 32.9182 136.3C32.9182 134.189 32.3523 132.493 31.2205 131.249C30.0887 130.005 28.5796 129.402 26.6555 129.402C24.7314 129.402 23.2223 130.005 22.0904 131.249C20.9586 132.493 20.3927 134.189 20.3927 136.3C20.3927 138.449 20.9586 140.108 22.0904 141.352C23.2223 142.558 24.7314 143.199 26.6555 143.199ZM40.8033 140.485V132.078C40.8033 130.909 40.6524 130.156 40.3128 129.816C40.011 129.477 39.2565 129.288 38.0869 129.213V128.685H42.3878H46.0474C48.7261 128.685 50.7634 129.025 52.1215 129.703C53.5175 130.382 54.1966 131.4 54.1966 132.719C54.1966 133.963 53.4797 134.943 52.0084 135.659C51.7443 135.81 51.4047 135.923 51.0652 136.036C51.6688 136.187 52.2347 136.413 52.7252 136.639C54.3852 137.431 55.2152 138.411 55.2152 139.655C55.2152 141.163 54.4984 142.219 53.1025 142.86C51.7065 143.5 49.3297 143.84 46.0097 143.84H42.3501H38.1246V143.274C39.2942 143.199 40.0487 143.01 40.3506 142.671C40.6524 142.407 40.8033 141.653 40.8033 140.485ZM44.0101 130.909V135.584H46.3492C47.8583 135.584 49.0279 135.32 49.8956 134.792C50.7634 134.265 51.1784 133.511 51.1784 132.606C51.1784 131.701 50.7634 130.947 49.8956 130.419C49.0279 129.892 47.8583 129.628 46.3492 129.628H45.7833C45.0665 129.628 44.576 129.703 44.3497 129.892C44.1233 130.042 44.0101 130.382 44.0101 130.909ZM44.0101 136.639V141.578C44.0101 142.143 44.1233 142.483 44.3119 142.633C44.5006 142.784 44.991 142.86 45.7079 142.86H46.0474C47.9715 142.86 49.3674 142.596 50.2729 142.106C51.1784 141.616 51.6311 140.824 51.6311 139.768C51.6311 138.751 51.1784 137.959 50.2729 137.431C49.3674 136.903 48.0092 136.639 46.2738 136.639H44.0101V136.639ZM59.8557 140.485V132.078C59.8557 130.909 59.7048 130.156 59.403 129.816C59.1011 129.477 58.3466 129.288 57.177 129.251V128.723H61.478H65.7789V129.251C64.6094 129.326 63.8548 129.439 63.553 129.703C63.2512 129.929 63.0625 130.457 63.0625 131.286V135.848H71.853V131.286C71.853 130.457 71.7021 129.929 71.3626 129.703C71.0608 129.477 70.3062 129.326 69.1367 129.251V128.723H73.4376H77.7385V129.251C76.569 129.288 75.8144 129.477 75.5126 129.816C75.2108 130.156 75.0599 130.909 75.0599 132.078V140.485C75.0599 141.653 75.2108 142.407 75.5126 142.746C75.8144 143.086 76.569 143.274 77.7385 143.312V143.877H73.4376H69.1367V143.312C70.3062 143.237 71.0608 143.123 71.3626 142.86C71.6644 142.633 71.853 142.106 71.853 141.276V136.753H63.0625V141.276C63.0625 142.106 63.2134 142.633 63.553 142.86C63.8548 143.086 64.6094 143.237 65.7789 143.312V143.877H61.478H57.177V143.312C58.3466 143.274 59.1011 143.086 59.403 142.746C59.7048 142.407 59.8557 141.653 59.8557 140.485ZM81.9263 141.276L89.1322 128.308H89.4718H89.8113L97.2437 141.691C97.6209 142.369 97.9605 142.784 98.2623 142.973C98.5641 143.161 99.0923 143.274 99.8091 143.312V143.877H96.0364H92.2636V143.312C93.1314 143.312 93.6973 143.199 93.9236 142.935C94.15 142.671 94.1123 142.256 93.7727 141.691L92.1505 138.751H84.7559L83.4731 141.088C83.0581 141.842 82.9827 142.407 83.2468 142.746C83.5108 143.086 84.1522 143.274 85.2086 143.35V143.915H82.1527H79.0967V143.35C79.8135 143.274 80.3417 143.086 80.6813 142.86C81.0963 142.596 81.4736 142.068 81.9263 141.276ZM88.5663 132.04L85.3972 137.77H91.7354L88.5663 132.04Z" fill="black"/>
</svg>
