<svg width="29" height="45" viewBox="0 0 29 45" fill="none" xmlns="http://www.w3.org/2000/svg">
<path d="M7.71018 28.1984C7.97933 27.9492 8.07146 27.3961 7.91622 26.9641C7.76076 26.5325 7.41641 26.3842 7.14726 26.6334C6.87811 26.8829 6.78576 27.436 6.94122 27.8677C7.09647 28.2997 7.44103 28.4479 7.71018 28.1984Z" fill="#FDA100"/>
<path d="M5.40328 34.4356L8.23818 42.3188C8.84993 44.0217 10.226 44.6522 11.3143 43.6423C12.3911 42.6432 12.7612 40.4344 12.1383 38.7043L10.4495 34.0078L11.912 32.6522C12.1811 32.4023 12.2735 31.8498 12.118 31.4177L11.386 29.3822C11.4733 29.355 12.0472 29.1743 22.1684 25.9869C23.4196 25.8778 24.1692 23.681 23.5372 21.9248L21.6664 16.7227L22.8619 13.8157C22.9794 13.5297 22.9864 13.1622 22.8797 12.8657L21.7539 9.73516C21.6472 9.43863 21.4447 9.26494 21.2325 9.28506L19.0667 9.4937L16.9898 3.71837C16.689 2.88172 16.15 2.37515 15.5484 2.36315C15.5411 2.36279 15.5341 2.36279 15.5269 2.36279C14.9454 2.36279 14.4177 2.82736 14.105 3.61282L6.75124 18.652L1.97048 23.083C0.0901484 24.8251 -0.561184 28.6977 0.528181 31.7245C1.52343 34.4921 3.62168 35.5808 5.40328 34.4356ZM11.1635 39.6083C11.4744 40.4718 11.2903 41.5768 10.7509 42.077C10.2098 42.5793 9.52061 42.2708 9.2132 41.4154L6.39853 33.588L8.34857 31.7806C11.6061 40.8397 11.1111 39.4633 11.1635 39.6083ZM9.88652 32.4421L9.32358 30.8769L10.2986 29.9732L10.8615 31.5384L9.88652 32.4421ZM20.9528 11.1225L21.7308 13.2858L21.037 14.9725L19.6961 11.2436L20.9528 11.1225ZM15.0466 4.60373C15.1977 4.20694 15.4374 4.16599 15.5345 4.17023C15.6306 4.17199 15.8701 4.22 16.0146 4.62174L22.5622 22.8285C22.7755 23.4212 22.5163 24.1664 22.0886 24.1834C22.0118 24.1862 21.9764 24.2084 21.7798 24.2674L14.8538 5.00864C14.9991 4.70858 15.0178 4.67963 15.0466 4.60373ZM14.1046 6.54073L20.6119 24.6352L10.791 27.7276L7.80476 19.4244L14.1046 6.54073ZM1.5032 30.8207C1.25604 30.1341 1.12542 29.3547 1.12542 28.566C1.12542 26.9542 1.66504 25.4532 2.53341 24.6483L6.921 20.5815L9.73567 28.4079L5.34808 32.475C4.00386 33.7204 2.27921 32.9784 1.5032 30.8207Z" fill="#FDA100"/>
<path d="M5.96633 28.7709C5.81087 28.3387 5.46651 28.1905 5.19736 28.4401L4.22233 29.3438C3.95362 29.5931 3.6086 29.4445 3.45335 29.013C3.29789 28.5809 2.95353 28.4326 2.68438 28.6822C2.41522 28.9318 2.32287 29.4847 2.47833 29.9168C2.94166 31.2054 3.97517 31.6598 4.78527 30.9092L5.76029 30.0054C6.02944 29.7558 6.1218 29.2033 5.96633 28.7709Z" fill="#FDA100"/>
<path d="M27.9852 4.29597L24.8484 7.09816C24.5768 7.34103 24.479 7.89137 24.6303 8.32734C24.7811 8.76295 25.1237 8.92075 25.3959 8.67753L28.5325 5.87534C28.8043 5.63246 28.902 5.08212 28.7507 4.64616C28.5996 4.20984 28.2568 4.0531 27.9852 4.29597Z" fill="#FDA100"/>
<path d="M27.6568 13.6554L25.4819 12.7198C25.1815 12.5905 24.8727 12.8765 24.7923 13.3588C24.7118 13.8412 24.8901 14.3365 25.1905 14.4658L27.3657 15.4014C27.6678 15.5317 27.975 15.2411 28.0551 14.7623C28.1356 14.28 27.9572 13.7843 27.6568 13.6554Z" fill="#FDA100"/>
<path d="M22.1911 1.01231L21.6077 4.50447C21.5272 4.9867 21.7053 5.482 22.0057 5.61157C22.3059 5.74042 22.6146 5.45517 22.6953 4.97258L23.2785 1.48042C23.359 0.998186 23.1809 0.502534 22.8805 0.373325C22.5803 0.244116 22.2716 0.53007 22.1911 1.01231Z" fill="#FDA100"/>
</svg>
