<svg width="62" height="8" viewBox="0 0 62 8" fill="none" xmlns="http://www.w3.org/2000/svg">
<path d="M16.8117 2.24858C17.0492 2.0153 17.2489 1.72412 17.4117 1.38884V1.38851C17.1944 1.52013 16.9633 1.60765 16.7219 1.65006C16.9701 1.44506 17.1596 1.12291 17.2487 0.734777C17.0173 0.925644 16.7618 1.06029 16.4895 1.1357C16.2698 0.811865 15.9567 0.611572 15.615 0.611572C14.9522 0.611572 14.4186 1.35585 14.4186 2.26811C14.4186 2.39939 14.4267 2.52563 14.4464 2.6458C13.4512 2.57848 12.5704 1.91869 11.9786 0.913189C11.8754 1.16128 11.8146 1.44506 11.8146 1.75038C11.8146 2.32399 12.028 2.83229 12.3465 3.12684C12.154 3.12179 11.9655 3.04437 11.8056 2.92285V2.94103C11.8056 3.7459 12.2205 4.41444 12.7648 4.56861C12.6672 4.60564 12.5611 4.62315 12.4509 4.62315C12.3742 4.62315 12.2969 4.61709 12.2244 4.59487C12.3794 5.25062 12.8198 5.733 13.3429 5.74882C12.9356 6.18947 12.4183 6.45506 11.8584 6.45506C11.7604 6.45506 11.6662 6.44901 11.572 6.43251C12.1025 6.90547 12.7307 7.17578 13.4086 7.17578C15.5214 7.17578 16.8983 4.73726 16.8117 2.24858Z" fill="#363636"/>
<path d="M2.20318 1.29757H2.69525V0.0550285C2.61035 0.0380967 2.31839 0 1.97837 0C1.26891 0 0.782904 0.646992 0.782904 1.83613V2.93051H0V4.31957H0.782904V7.8147H1.74278V4.3199H2.49402L2.61327 2.93084H1.74256V1.97386C1.74278 1.57238 1.81734 1.29757 2.20318 1.29757Z" fill="#363636"/>
<path d="M29.0604 2.02722C28.2967 2.02722 27.6785 2.88863 27.6785 3.95056C27.6785 5.01343 28.2974 5.8739 29.0604 5.8739C29.8241 5.8739 30.4423 5.01249 30.4423 3.95056C30.4423 2.8877 29.8234 2.02722 29.0604 2.02722ZM29.0604 5.19895C28.5647 5.19895 28.1634 4.64019 28.1634 3.95056C28.1634 3.26093 28.5649 2.70217 29.0604 2.70217C29.5559 2.70217 29.9574 3.26093 29.9574 3.95056C29.9576 4.64019 29.5561 5.19895 29.0604 5.19895Z" fill="#FDA100"/>
<path d="M30.1698 0.22789C29.6743 0.195722 28.447 0.197283 27.9511 0.22789C27.5153 0.256311 27.1309 0.402787 26.8209 0.834096C26.303 1.55492 26.3692 2.52623 26.3692 3.9507C26.3692 5.4086 26.3109 6.35741 26.8209 7.06731C27.3409 7.79063 28.0489 7.696 29.0603 7.696C30.098 7.696 30.4562 7.69694 30.8231 7.49924C31.322 7.22971 31.6985 6.60914 31.7353 5.49448C31.7587 4.80458 31.7573 3.09683 31.7353 2.40661C31.6909 1.09082 31.1835 0.292852 30.1698 0.22789ZM30.9541 6.5904C30.6146 7.06294 30.1436 7.02077 29.0538 7.02077C27.9318 7.02077 27.4818 7.04389 27.1535 6.58572C26.7754 6.06196 26.8438 5.22089 26.8438 3.94571C26.8438 2.22016 26.7166 0.97745 27.9609 0.888752C28.2468 0.874698 28.331 0.870013 29.0507 0.870013L29.0608 0.879382C30.2567 0.879382 31.1949 0.70511 31.2513 2.43659C31.2641 2.83167 31.267 2.95035 31.267 3.95039C31.2667 5.49386 31.2878 6.1238 30.9541 6.5904Z" fill="#FDA100"/>
<path d="M30.4972 2.40051C30.6756 2.40051 30.8202 2.19936 30.8202 1.95123C30.8202 1.7031 30.6756 1.50195 30.4972 1.50195C30.3189 1.50195 30.1743 1.7031 30.1743 1.95123C30.1743 2.19936 30.3189 2.40051 30.4972 2.40051Z" fill="#FDA100"/>
<path d="M46.8716 1.54949L46.8794 1.62517C46.8034 1.22784 46.5983 0.921254 46.3375 0.809662L46.332 0.807731C45.8418 0.611578 43.8689 0.611578 43.8689 0.611578C43.8689 0.611578 41.901 0.607716 41.4058 0.807731C41.1401 0.921254 40.9347 1.22784 40.86 1.61706L40.8587 1.62517C40.6755 3.03493 40.6742 4.72888 40.8668 6.23826L40.8587 6.16181C40.9347 6.55913 41.1398 6.86572 41.4005 6.97731L41.4061 6.97924C41.8958 7.17578 43.8692 7.17578 43.8692 7.17578C43.8692 7.17578 45.8368 7.17578 46.3323 6.97924C46.5983 6.86572 46.8037 6.55913 46.8784 6.16991L46.8797 6.16181C46.963 5.50616 47.0107 4.75166 47.0107 3.98094C47.0107 3.95276 47.0107 3.92418 47.0104 3.89561C47.0107 3.86935 47.0107 3.83808 47.0107 3.8068C47.0107 3.0357 46.963 2.2812 46.8716 1.54949ZM43.2395 5.30344V2.4874L44.8814 3.89754L43.2395 5.30344Z" fill="#363636"/>
<path d="M58.2471 5.14378L58.1505 7.06375C58.2887 7.06375 58.3486 6.97986 58.4204 6.87911L59.0684 6.00406L60.411 7.39349C60.6573 7.58741 60.8308 7.48529 60.8972 7.07338L61.7785 1.23783L61.7788 1.23749C61.8569 0.723114 61.6471 0.521971 61.4072 0.648158L56.2268 3.45075C55.8732 3.64467 55.8786 3.92317 56.1667 4.04936L57.4911 4.63147L60.5675 1.9114C60.7123 1.77593 60.8439 1.85089 60.7356 1.98636L58.2471 5.14378Z" fill="#363636"/>
</svg>
