<svg width="230" height="86" viewBox="0 0 230 86" fill="none" xmlns="http://www.w3.org/2000/svg">
<path d="M224.597 83.7554C224.14 82.5718 224.725 81.2414 225.904 80.7827C227.074 80.3239 228.4 80.9111 228.857 82.0947C229.314 83.2691 228.729 84.5995 227.559 85.0583C227.285 85.1684 227.001 85.2234 226.727 85.2234C225.813 85.2234 224.944 84.6637 224.597 83.7554ZM218.234 69.9286C217.631 68.8093 218.042 67.4238 219.158 66.8183C220.264 66.2219 221.653 66.6348 222.248 67.745V67.7541C222.851 68.8643 222.44 70.2497 221.324 70.8553C220.977 71.048 220.611 71.1305 220.246 71.1305C219.432 71.1305 218.646 70.6993 218.234 69.9286ZM1.89938 64.8181C0.820672 64.1575 0.482436 62.7446 1.14063 61.6619C1.79882 60.5884 3.20662 60.249 4.28533 60.9096C5.36403 61.5702 5.70227 62.9831 5.03494 64.0658C4.60528 64.7722 3.85567 65.1576 3.08778 65.1576C2.67641 65.1576 2.26504 65.0475 1.89938 64.8181ZM210.208 56.9918C209.477 55.9642 209.724 54.5329 210.748 53.7989C211.781 53.0649 213.207 53.3034 213.938 54.3402C214.669 55.3678 214.432 56.7991 213.399 57.5331C212.996 57.8176 212.53 57.9552 212.073 57.9552C211.36 57.9552 210.656 57.6249 210.208 56.9918ZM10.5382 51.9547C9.55087 51.1657 9.38632 49.7252 10.1725 48.7343C10.9587 47.7434 12.3939 47.5782 13.3812 48.3673C14.3685 49.1563 14.533 50.5968 13.7468 51.5877C13.7468 51.5877 13.7468 51.5877 13.7468 51.5969C13.2989 52.1657 12.6316 52.4593 11.9551 52.4593C11.4615 52.4593 10.9587 52.2942 10.5382 51.9547ZM200.674 45.1468C199.823 44.211 199.887 42.7613 200.82 41.908C201.743 41.0548 203.187 41.119 204.047 42.0548C204.897 42.9815 204.833 44.4404 203.9 45.2936C203.462 45.6973 202.913 45.89 202.356 45.89C201.743 45.89 201.121 45.6423 200.674 45.1468ZM20.6853 40.2565C19.7986 39.3482 19.8168 37.8986 20.7219 37.0086C21.6177 36.1186 23.0712 36.1369 23.9488 37.0453C24.8356 37.9444 24.8173 39.4033 23.9123 40.2841C23.4735 40.7245 22.8975 40.9447 22.3216 40.9447C21.7274 40.9447 21.1332 40.7153 20.6853 40.2565ZM189.758 34.568C188.799 33.7423 188.689 32.2926 189.512 31.3292C190.325 30.375 191.77 30.2557 192.73 31.0815C193.689 31.8981 193.799 33.3477 192.985 34.3111C192.528 34.8433 191.889 35.1185 191.239 35.1185C190.718 35.1185 190.188 34.935 189.758 34.568ZM32.1854 29.8888C31.4175 28.8795 31.6095 27.439 32.615 26.6683C33.6115 25.8976 35.0467 26.0903 35.8146 27.0995C36.5825 28.1088 36.3905 29.5493 35.3849 30.32C34.9736 30.6319 34.489 30.7879 34.0045 30.7879C33.3189 30.7879 32.6333 30.476 32.1854 29.8888ZM177.646 25.4113C176.586 24.714 176.302 23.2919 176.997 22.2276C177.692 21.1725 179.109 20.888 180.16 21.5853C181.211 22.2826 181.504 23.7048 180.809 24.7599C180.37 25.4297 179.639 25.7875 178.898 25.7875C178.469 25.7875 178.03 25.6682 177.646 25.4113ZM44.8647 21.0165C44.2248 19.9155 44.5905 18.5117 45.6875 17.8694V17.8786C46.7753 17.2364 48.174 17.6034 48.8139 18.6952C49.4447 19.787 49.079 21.1908 47.9911 21.8331C47.6346 22.0441 47.2324 22.145 46.8393 22.145C46.0531 22.145 45.2944 21.7413 44.8647 21.0165ZM164.5 17.8236C163.367 17.2547 162.91 15.8785 163.467 14.7408C164.025 13.6122 165.396 13.1443 166.53 13.7132C167.663 14.2728 168.12 15.6491 167.563 16.7868C167.161 17.5942 166.356 18.0621 165.515 18.0621C165.168 18.0621 164.82 17.9796 164.5 17.8236ZM58.5405 13.7682C58.0377 12.603 58.5771 11.2542 59.738 10.7588C60.899 10.2633 62.2428 10.7955 62.7456 11.9607C63.2393 13.126 62.6999 14.4747 61.5389 14.9793C61.2464 15.0986 60.9447 15.1628 60.6431 15.1628C59.7563 15.1628 58.9153 14.6398 58.5405 13.7682ZM150.532 11.9149C149.335 11.502 148.704 10.1899 149.124 8.99719C149.536 7.80443 150.843 7.17136 152.031 7.58423C153.229 8.00628 153.85 9.31831 153.439 10.5111C153.11 11.4561 152.223 12.0433 151.282 12.0433C151.035 12.0433 150.779 12.0066 150.532 11.9149ZM73.0025 8.28153C72.6551 7.07043 73.3498 5.7951 74.5657 5.44645C75.7815 5.0978 77.043 5.7951 77.3995 7.01538C77.7469 8.23566 77.043 9.50182 75.8363 9.85047C75.6169 9.91469 75.4067 9.94222 75.1964 9.94222C74.2091 9.94222 73.295 9.29079 73.0025 8.28153ZM135.924 7.79526C134.69 7.52918 133.904 6.31808 134.169 5.07027C134.434 3.83164 135.65 3.05176 136.884 3.31784C138.118 3.58392 138.904 4.79502 138.639 6.04283C138.41 7.11631 137.46 7.85031 136.408 7.85031C136.244 7.85031 136.088 7.83196 135.924 7.79526ZM88.0312 4.64822C87.8392 3.39124 88.6894 2.21683 89.9326 2.02416C91.185 1.82231 92.3551 2.67559 92.5471 3.93257C92.7482 5.18037 91.8981 6.35478 90.6457 6.55663C90.5268 6.57498 90.408 6.58415 90.2892 6.58415C89.183 6.58415 88.214 5.77675 88.0312 4.64822ZM120.923 5.52902C119.67 5.41892 118.738 4.29957 118.847 3.04259C118.957 1.77643 120.072 0.840579 121.325 0.959855C122.586 1.06996 123.51 2.18013 123.4 3.44629C123.299 4.63904 122.294 5.5382 121.124 5.5382C121.06 5.5382 120.987 5.52902 120.923 5.52902ZM103.389 2.89579C103.352 1.62963 104.34 0.565331 105.601 0.52863C106.863 0.482755 107.923 1.47366 107.96 2.73981C108.006 4.00597 107.018 5.07027 105.757 5.11615C105.729 5.11615 105.702 5.11615 105.674 5.11615C104.449 5.11615 103.435 4.13442 103.389 2.89579Z" fill="#4D4D4D"/>
</svg>
