<svg width="32" height="31" viewBox="0 0 32 31" fill="none" xmlns="http://www.w3.org/2000/svg">
<path d="M8.76987 19.4336C9.06193 19.2646 9.16191 18.8895 8.99345 18.5965C8.82475 18.3037 8.45108 18.2032 8.15902 18.3722C7.86696 18.5414 7.76674 18.9165 7.93544 19.2093C8.1039 19.5023 8.47781 19.6029 8.76987 19.4336Z" fill="#FDA100"/>
<path d="M6.26575 23.664L9.34206 29.0106C10.0059 30.1655 11.4992 30.5932 12.6801 29.9082C13.8487 29.2306 14.2503 27.7325 13.5743 26.5591L11.7416 23.3738L13.3287 22.4545C13.6208 22.2849 13.721 21.9102 13.5523 21.6172L12.7579 20.2367C12.8527 20.2182 13.4755 20.0957 24.4585 17.9339C25.8163 17.8599 26.6297 16.37 25.9439 15.1789L23.9137 11.6507L25.2111 9.67909C25.3386 9.48516 25.3462 9.23592 25.2305 9.03481L24.0087 6.9116C23.893 6.71049 23.6732 6.59269 23.4429 6.60634L21.0928 6.74784L18.839 2.83088C18.5125 2.26345 17.9277 1.91988 17.2748 1.91174C17.2669 1.9115 17.2593 1.9115 17.2514 1.9115C16.6205 1.9115 16.0478 2.22658 15.7085 2.7593L7.7285 12.9592L2.54062 15.9644C0.500169 17.146 -0.206629 19.7724 0.975504 21.8252C2.05551 23.7023 4.33244 24.4407 6.26575 23.664ZM12.5165 27.1723C12.8539 27.7579 12.6541 28.5073 12.0688 28.8466C11.4815 29.1873 10.7337 28.978 10.4001 28.3979L7.34575 23.0892L9.46185 21.8633C12.9968 28.0074 12.4597 27.0739 12.5165 27.1723ZM11.1308 22.312L10.5199 21.2504L11.578 20.6375L12.1888 21.6991L11.1308 22.312ZM23.1394 7.85254L23.9837 9.31972L23.2308 10.4637L21.7757 7.93466L23.1394 7.85254ZM16.7303 3.43135C16.8942 3.16224 17.1543 3.13447 17.2598 3.13734C17.3641 3.13854 17.6239 3.1711 17.7807 3.44357L24.8859 15.7918C25.1174 16.1938 24.836 16.6992 24.3719 16.7107C24.2886 16.7126 24.2502 16.7277 24.0369 16.7677L16.521 3.70597C16.6787 3.50246 16.699 3.48283 16.7303 3.43135ZM15.708 4.74507L22.7696 17.0172L12.1122 19.1145L8.87174 13.483L15.708 4.74507ZM2.03355 21.2123C1.76534 20.7466 1.6236 20.218 1.6236 19.6831C1.6236 18.5899 2.20918 17.5719 3.1515 17.026L7.91272 14.2679L10.9671 19.5759L6.20586 22.3343C4.74716 23.1789 2.87565 22.6757 2.03355 21.2123Z" fill="#FDA100"/>
<path d="M6.8767 19.8221C6.708 19.529 6.33432 19.4284 6.04224 19.5977L4.9842 20.2107C4.6926 20.3797 4.31821 20.2789 4.14974 19.9863C3.98104 19.6933 3.60736 19.5927 3.31528 19.762C3.02321 19.9313 2.92299 20.3062 3.0917 20.5993C3.59447 21.4732 4.71599 21.7814 5.59507 21.2723L6.65311 20.6594C6.94519 20.4901 7.04541 20.1154 6.8767 19.8221Z" fill="#FDA100"/>
<path d="M30.7706 3.22244L27.3667 5.12295C27.072 5.28767 26.9658 5.66092 27.13 5.9566C27.2937 6.25205 27.6654 6.35907 27.9608 6.19411L31.3645 4.2936C31.6595 4.12888 31.7654 3.75563 31.6013 3.45994C31.4373 3.16402 31.0653 3.05772 30.7706 3.22244Z" fill="#FDA100"/>
<path d="M30.4146 9.57032L28.0544 8.93573C27.7285 8.84808 27.3935 9.04205 27.3061 9.36917C27.2188 9.69628 27.4123 10.0323 27.7383 10.1199L30.0987 10.7545C30.4266 10.8429 30.7599 10.6458 30.8468 10.3211C30.9341 9.99394 30.7406 9.65773 30.4146 9.57032Z" fill="#FDA100"/>
<path d="M24.4841 0.99544L23.8511 3.3639C23.7637 3.69097 23.957 4.02689 24.283 4.11476C24.6087 4.20215 24.9437 4.00869 25.0313 3.68139L25.6641 1.31293C25.7515 0.985862 25.5582 0.6497 25.2322 0.562068C24.9065 0.474435 24.5715 0.668375 24.4841 0.99544Z" fill="#FDA100"/>
</svg>
