<svg width="199" height="70" viewBox="0 0 199 70" fill="none" xmlns="http://www.w3.org/2000/svg">
<path d="M1.71319 69.8215C0.728561 69.4308 0.247716 68.32 0.636988 67.3317C1.02626 66.3512 2.13301 65.8686 3.11764 66.2592C4.09464 66.6499 4.57548 67.7607 4.18621 68.7413C3.88853 69.4921 3.17109 69.9517 2.41544 69.9517C2.17882 69.9517 1.94217 69.9134 1.71319 69.8215ZM195.12 68.68H195.113C194.724 67.6918 195.204 66.581 196.181 66.1903C197.166 65.7996 198.273 66.2822 198.662 67.2628C199.051 68.2434 198.57 69.3618 197.593 69.7449C197.365 69.8445 197.12 69.8828 196.891 69.8828C196.128 69.8828 195.411 69.4231 195.12 68.68ZM7.0943 57.7941C6.17073 57.2809 5.8349 56.1164 6.33866 55.1895C6.85006 54.2626 8.01026 53.9255 8.93383 54.4388C9.85739 54.9444 10.1932 56.1088 9.68183 57.0357C9.33835 57.6716 8.68193 58.0316 8.01024 58.0316C7.6973 58.0316 7.38434 57.955 7.0943 57.7941ZM189.617 56.9898C189.106 56.0628 189.442 54.8984 190.365 54.3851C191.289 53.8719 192.449 54.2089 192.96 55.1359C193.464 56.0628 193.128 57.2273 192.212 57.7405C191.915 57.9014 191.602 57.978 191.289 57.978C190.617 57.978 189.968 57.6179 189.617 56.9898ZM13.9333 46.5405C13.0861 45.92 12.8953 44.7173 13.5211 43.8669C13.5211 43.8669 13.5211 43.8669 13.5135 43.8669C14.1394 43.0089 15.3301 42.8174 16.185 43.4379C17.0322 44.0661 17.223 45.2612 16.6048 46.1192C16.2308 46.6325 15.6507 46.9083 15.0629 46.9083C14.666 46.9083 14.2768 46.7857 13.9333 46.5405ZM182.694 46.0809C182.076 45.2229 182.267 44.0278 183.114 43.3996C183.969 42.7791 185.16 42.9706 185.786 43.821C186.404 44.679 186.213 45.8741 185.366 46.5022C185.022 46.7474 184.633 46.8623 184.244 46.8623C183.656 46.8623 183.068 46.5942 182.694 46.0809ZM22.1309 36.2369C21.36 35.5091 21.3218 34.2987 22.047 33.525C22.7644 32.7589 23.9781 32.7206 24.7414 33.4407C25.5123 34.1685 25.5504 35.3789 24.8253 36.1526C24.4513 36.551 23.9475 36.7578 23.4361 36.7578C22.9705 36.7578 22.4973 36.5816 22.1309 36.2369ZM174.474 36.122C173.749 35.3482 173.787 34.1378 174.558 33.4101C175.321 32.69 176.527 32.7206 177.252 33.4943C177.977 34.2681 177.939 35.4785 177.168 36.2062C176.802 36.551 176.329 36.7195 175.863 36.7195C175.352 36.7195 174.848 36.5203 174.474 36.122ZM31.5345 27.0363C30.8628 26.2243 30.9773 25.0139 31.7864 24.3398C31.7864 24.3398 31.7864 24.3398 31.7864 24.3474C32.5955 23.6656 33.8015 23.7805 34.4732 24.5926C35.1448 25.4123 35.0303 26.615 34.2213 27.2891V27.2968C33.8625 27.5879 33.4351 27.7335 33.0076 27.7335C32.4581 27.7335 31.9161 27.496 31.5345 27.0363ZM165.07 27.2662C164.261 26.5844 164.147 25.3816 164.818 24.5696C165.49 23.7499 166.696 23.635 167.505 24.3168C167.505 24.3168 167.505 24.3168 167.505 24.3091C168.314 24.9833 168.429 26.1937 167.757 27.0057C167.383 27.4653 166.833 27.7028 166.284 27.7028C165.856 27.7028 165.429 27.5573 165.07 27.2662ZM42.0067 19.0922C41.4419 18.2035 41.7014 17.0161 42.5944 16.4492C43.4798 15.8823 44.6629 16.1428 45.2277 17.0391C45.7926 17.9277 45.533 19.1152 44.64 19.682C44.3271 19.8812 43.9683 19.9808 43.6172 19.9808C42.9913 19.9808 42.3731 19.6667 42.0067 19.0922ZM154.644 19.6514C153.751 19.0845 153.491 17.9048 154.056 17.0085C154.621 16.1198 155.804 15.8517 156.689 16.4186C157.582 16.9855 157.842 18.1729 157.277 19.0615C156.918 19.6361 156.3 19.9502 155.667 19.9502C155.315 19.9502 154.964 19.8582 154.644 19.6514ZM53.3872 12.5269C52.9369 11.5693 53.3414 10.4279 54.2955 9.97591C55.2496 9.52392 56.3869 9.93761 56.8372 10.8875C57.2876 11.8451 56.8754 12.9866 55.9213 13.4386C55.6618 13.5611 55.387 13.6224 55.1122 13.6224C54.3947 13.6224 53.7078 13.2164 53.3872 12.5269ZM143.347 13.4156C142.393 12.9636 141.989 11.8221 142.431 10.8646C142.882 9.90696 144.019 9.50094 144.973 9.94527C145.927 10.3972 146.339 11.5387 145.889 12.4963C145.561 13.1858 144.874 13.5994 144.156 13.5994C143.889 13.5994 143.607 13.5381 143.347 13.4156ZM65.5004 7.44021C65.1722 6.43665 65.7218 5.35649 66.7293 5.02708C67.7292 4.70533 68.8054 5.24924 69.1336 6.26046C69.4542 7.26401 68.9047 8.34418 67.9048 8.67359C67.7139 8.73487 67.5155 8.76551 67.317 8.76551C66.508 8.76551 65.7599 8.25225 65.5004 7.44021ZM131.356 8.6506C130.356 8.32119 129.807 7.24103 130.127 6.23748C130.455 5.23392 131.532 4.68235 132.532 5.0041C133.539 5.33351 134.089 6.41367 133.76 7.41723C133.501 8.22926 132.753 8.74253 131.944 8.74253C131.753 8.74253 131.555 8.71189 131.356 8.6506ZM78.1556 3.93926C77.9648 2.8974 78.6441 1.89385 79.6745 1.69467C80.7126 1.50315 81.7125 2.18495 81.9109 3.21915C82.1017 4.26101 81.4224 5.26456 80.392 5.46374C80.2699 5.48672 80.1478 5.49439 80.0333 5.49439C79.1326 5.49439 78.3312 4.85855 78.1556 3.93926ZM118.861 5.44842C117.823 5.24924 117.144 4.24569 117.342 3.21149C117.533 2.16963 118.533 1.48783 119.571 1.67935C120.609 1.87852 121.288 2.88208 121.09 3.91627C120.914 4.83556 120.121 5.47906 119.22 5.47906C119.098 5.47906 118.983 5.4714 118.861 5.44842ZM91.1542 2.05472C91.0932 1.0052 91.887 0.0935757 92.9403 0.0246292C93.9936 -0.0366566 94.902 0.760059 94.963 1.81724C95.0317 2.87442 94.2303 3.78604 93.1769 3.84733C93.1388 3.85499 93.1006 3.85499 93.0548 3.85499C92.0549 3.85499 91.2153 3.0736 91.1542 2.05472ZM106.069 3.84733C105.023 3.77838 104.222 2.87442 104.283 1.81724C104.351 0.760059 105.252 -0.0443173 106.305 0.0246292C107.359 0.0859149 108.16 0.997539 108.091 2.05472C108.03 3.06593 107.191 3.84733 106.191 3.84733C106.153 3.84733 106.115 3.84733 106.069 3.84733Z" fill="#4D4D4D"/>
</svg>
