<svg width="332" height="31" viewBox="0 0 332 31" fill="none" xmlns="http://www.w3.org/2000/svg">
<path d="M90.3214 8.70994C91.5973 7.80635 92.6705 6.67848 93.5451 5.37981V5.37851C92.3777 5.88833 91.1358 6.22734 89.839 6.39163C91.1724 5.59756 92.1908 4.34974 92.6692 2.84636C91.426 3.58567 90.0534 4.10722 88.5906 4.39929C87.4101 3.14495 85.7277 2.36914 83.8923 2.36914C80.3313 2.36914 77.4645 5.25203 77.4645 8.78556C77.4645 9.29408 77.5077 9.78304 77.6135 10.2485C72.2669 9.98775 67.5346 7.43213 64.3553 3.53742C63.801 4.49839 63.4742 5.59756 63.4742 6.78019C63.4742 9.00201 64.6207 10.9709 66.3319 12.1118C65.2979 12.0922 64.2847 11.7923 63.4259 11.3216V11.392C63.4259 14.5096 65.6547 17.0991 68.5791 17.6963C68.0549 17.8398 67.4849 17.9076 66.8927 17.9076C66.4809 17.9076 66.0652 17.8841 65.6757 17.798C66.5084 20.338 68.8745 22.2065 71.6851 22.2677C69.4968 23.9745 66.7175 25.0033 63.7095 25.0033C63.1827 25.0033 62.6768 24.9798 62.1709 24.9159C65.0207 26.7479 68.3961 27.7949 72.0381 27.7949C83.389 27.7949 90.7868 18.3496 90.3214 8.70994V8.70994Z" fill="#FDA100"/>
<path d="M11.8367 5.026H14.4804V0.213148C14.0243 0.147564 12.4557 0 10.6289 0C6.81729 0 4.20621 2.50606 4.20621 7.11208V11.3511H0V16.7315H4.20621V30.2695H9.36322V16.7327H13.3993L14.04 11.3523H9.36201V7.64558C9.36322 6.09048 9.76381 5.026 11.8367 5.026V5.026Z" fill="#545454"/>
<path d="M156.13 7.85156C152.027 7.85156 148.705 11.1881 148.705 15.3013C148.705 19.4181 152.03 22.751 156.13 22.751C160.232 22.751 163.554 19.4145 163.554 15.3013C163.554 11.1845 160.229 7.85156 156.13 7.85156V7.85156ZM156.13 20.1367C153.466 20.1367 151.311 17.9724 151.311 15.3013C151.311 12.6301 153.467 10.4659 156.13 10.4659C158.792 10.4659 160.949 12.6301 160.949 15.3013C160.95 17.9724 158.793 20.1367 156.13 20.1367V20.1367Z" fill="#545454"/>
<path d="M162.09 0.882212C159.428 0.757611 152.834 0.76366 150.17 0.882212C147.828 0.992296 145.763 1.55965 144.098 3.23027C141.315 6.0223 141.671 9.78451 141.671 15.302C141.671 20.949 141.358 24.6241 144.098 27.3738C146.892 30.1755 150.695 29.8089 156.129 29.8089C161.704 29.8089 163.629 29.8126 165.6 29.0468C168.28 28.0028 170.303 25.5991 170.501 21.2817C170.626 18.6094 170.619 11.9947 170.501 9.32119C170.262 4.22466 167.536 1.13383 162.09 0.882212V0.882212ZM166.304 25.5265C164.48 27.3568 161.949 27.1935 156.094 27.1935C150.066 27.1935 147.649 27.2831 145.885 25.5084C143.853 23.4797 144.221 20.2219 144.221 15.2827C144.221 8.59899 143.537 3.78553 150.223 3.44197C151.759 3.38753 152.211 3.36939 156.078 3.36939L156.132 3.40568C162.557 3.40568 167.598 2.73066 167.9 9.43732C167.969 10.9676 167.985 11.4273 167.985 15.3008C167.983 21.2792 168.097 23.7192 166.304 25.5265V25.5265Z" fill="#545454"/>
<path d="M163.848 9.29785C164.806 9.29785 165.583 8.5185 165.583 7.55713C165.583 6.59575 164.806 5.81641 163.848 5.81641C162.89 5.81641 162.113 6.59575 162.113 7.55713C162.113 8.5185 162.89 9.29785 163.848 9.29785Z" fill="#545454"/>
<path d="M251.82 6.00205L251.863 6.2952C251.454 4.75619 250.352 3.56866 248.951 3.13642L248.922 3.12894C246.288 2.36916 235.688 2.36916 235.688 2.36916C235.688 2.36916 225.116 2.3542 222.455 3.12894C221.028 3.56866 219.924 4.75619 219.523 6.26379L219.516 6.2952C218.532 11.7558 218.524 18.3171 219.559 24.1635L219.516 23.8674C219.924 25.4064 221.026 26.5939 222.427 27.0262L222.456 27.0336C225.088 27.7949 235.69 27.7949 235.69 27.7949C235.69 27.7949 246.261 27.7949 248.923 27.0336C250.352 26.5939 251.456 25.4064 251.857 23.8988L251.864 23.8674C252.312 21.3278 252.568 18.4053 252.568 15.4201C252.568 15.3109 252.568 15.2002 252.566 15.0895C252.568 14.9878 252.568 14.8667 252.568 14.7455C252.568 11.7587 252.312 8.83628 251.82 6.00205V6.00205ZM232.307 20.5426V9.63495L241.128 15.097L232.307 20.5426Z" fill="#545454"/>
<path d="M312.937 19.9242L312.418 27.361C313.161 27.361 313.482 27.036 313.868 26.6458L317.349 23.2564L324.563 28.6382C325.886 29.3893 326.818 28.9938 327.175 27.3983L331.91 4.7949L331.911 4.79357C332.331 2.80119 331.204 2.02208 329.915 2.51085L302.083 13.3664C300.183 14.1175 300.212 15.1963 301.76 15.6851L308.875 17.9398L325.403 7.4039C326.181 6.87917 326.888 7.1695 326.307 7.69424L312.937 19.9242Z" fill="#545454"/>
</svg>
