<svg width="85" height="20" viewBox="0 0 85 20" fill="none" xmlns="http://www.w3.org/2000/svg">
<path d="M0.778384 0.357323H5.15238V19.2573H0.778384V0.357323ZM18.3048 4.51532C20.1048 4.51532 21.5538 5.05532 22.6518 6.13532C23.7678 7.21532 24.3258 8.81732 24.3258 10.9413V19.2573H20.1138V11.5893C20.1138 10.4373 19.8618 9.58232 19.3578 9.02432C18.8538 8.44832 18.1248 8.16032 17.1708 8.16032C16.1088 8.16032 15.2628 8.49332 14.6328 9.15932C14.0028 9.80732 13.6878 10.7793 13.6878 12.0753V19.2573H9.47576V4.73132H13.4988V6.43232C14.0568 5.82032 14.7498 5.35232 15.5778 5.02832C16.4058 4.68632 17.3148 4.51532 18.3048 4.51532ZM42.4331 4.73132L36.3041 19.2573H31.9571L25.8551 4.73132H30.2021L34.2251 14.6133L38.3831 4.73132H42.4331ZM58.1203 12.0483C58.1203 12.1023 58.0933 12.4803 58.0393 13.1823H47.0503C47.2483 14.0823 47.7163 14.7933 48.4543 15.3153C49.1923 15.8373 50.1103 16.0983 51.2083 16.0983C51.9643 16.0983 52.6303 15.9903 53.2063 15.7743C53.8003 15.5403 54.3493 15.1803 54.8533 14.6943L57.0943 17.1243C55.7263 18.6903 53.7283 19.4733 51.1003 19.4733C49.4623 19.4733 48.0133 19.1583 46.7533 18.5283C45.4933 17.8803 44.5213 16.9893 43.8373 15.8553C43.1533 14.7213 42.8113 13.4343 42.8113 11.9943C42.8113 10.5723 43.1443 9.29432 43.8103 8.16032C44.4943 7.00832 45.4213 6.11732 46.5913 5.48732C47.7793 4.83932 49.1023 4.51532 50.5603 4.51532C51.9823 4.51532 53.2693 4.82132 54.4213 5.43332C55.5733 6.04532 56.4733 6.92732 57.1213 8.07932C57.7873 9.21332 58.1203 10.5363 58.1203 12.0483ZM50.5873 7.70132C49.6333 7.70132 48.8323 7.97132 48.1843 8.51132C47.5363 9.05132 47.1403 9.78932 46.9963 10.7253H54.1513C54.0073 9.80732 53.6113 9.07832 52.9633 8.53832C52.3153 7.98032 51.5233 7.70132 50.5873 7.70132ZM65.9465 19.4733C64.7405 19.4733 63.5615 19.3293 62.4095 19.0413C61.2575 18.7353 60.3395 18.3573 59.6555 17.9073L61.0595 14.8833C61.7075 15.2973 62.4905 15.6393 63.4085 15.9093C64.3265 16.1613 65.2265 16.2873 66.1085 16.2873C67.8905 16.2873 68.7815 15.8463 68.7815 14.9643C68.7815 14.5503 68.5385 14.2533 68.0525 14.0733C67.5665 13.8933 66.8195 13.7403 65.8115 13.6143C64.6235 13.4343 63.6425 13.2273 62.8685 12.9933C62.0945 12.7593 61.4195 12.3453 60.8435 11.7513C60.2855 11.1573 60.0065 10.3113 60.0065 9.21332C60.0065 8.29532 60.2675 7.48532 60.7895 6.78332C61.3295 6.06332 62.1035 5.50532 63.1115 5.10932C64.1375 4.71332 65.3435 4.51532 66.7295 4.51532C67.7555 4.51532 68.7725 4.63232 69.7805 4.86632C70.8065 5.08232 71.6525 5.38832 72.3185 5.78432L70.9145 8.78132C69.6365 8.06132 68.2415 7.70132 66.7295 7.70132C65.8295 7.70132 65.1545 7.82732 64.7045 8.07932C64.2545 8.33132 64.0295 8.65532 64.0295 9.05132C64.0295 9.50132 64.2725 9.81632 64.7585 9.99632C65.2445 10.1763 66.0185 10.3473 67.0805 10.5093C68.2685 10.7073 69.2405 10.9233 69.9965 11.1573C70.7525 11.3733 71.4095 11.7783 71.9675 12.3723C72.5255 12.9663 72.8045 13.7943 72.8045 14.8563C72.8045 15.7563 72.5345 16.5573 71.9945 17.2593C71.4545 17.9613 70.6625 18.5103 69.6185 18.9063C68.5925 19.2843 67.3685 19.4733 65.9465 19.4733ZM84.9072 18.5553C84.4932 18.8613 83.9802 19.0953 83.3682 19.2573C82.7742 19.4013 82.1442 19.4733 81.4782 19.4733C79.7502 19.4733 78.4092 19.0323 77.4552 18.1503C76.5192 17.2683 76.0512 15.9723 76.0512 14.2623V8.29532H73.8102V5.05532H76.0512V1.51832H80.2632V5.05532H83.8812V8.29532H80.2632V14.2083C80.2632 14.8203 80.4162 15.2973 80.7222 15.6393C81.0462 15.9633 81.4962 16.1253 82.0722 16.1253C82.7382 16.1253 83.3052 15.9453 83.7732 15.5853L84.9072 18.5553Z" fill="#1F1F1F"/>
</svg>
