<svg width="85" height="20" viewBox="0 0 85 20" fill="none" xmlns="http://www.w3.org/2000/svg">
<path d="M0.241 0.0999987H4.615V19H0.241V0.0999987ZM17.7674 4.258C19.5674 4.258 21.0164 4.798 22.1144 5.878C23.2304 6.958 23.7884 8.56 23.7884 10.684V19H19.5764V11.332C19.5764 10.18 19.3244 9.325 18.8204 8.767C18.3164 8.191 17.5874 7.903 16.6334 7.903C15.5714 7.903 14.7254 8.236 14.0954 8.902C13.4654 9.55 13.1504 10.522 13.1504 11.818V19H8.93838V4.474H12.9614V6.175C13.5194 5.563 14.2124 5.095 15.0404 4.771C15.8684 4.429 16.7774 4.258 17.7674 4.258ZM41.8957 4.474L35.7667 19H31.4197L25.3177 4.474H29.6647L33.6877 14.356L37.8457 4.474H41.8957ZM57.5829 11.791C57.5829 11.845 57.5559 12.223 57.5019 12.925H46.5129C46.7109 13.825 47.1789 14.536 47.9169 15.058C48.6549 15.58 49.5729 15.841 50.6709 15.841C51.4269 15.841 52.0929 15.733 52.6689 15.517C53.2629 15.283 53.8119 14.923 54.3159 14.437L56.5569 16.867C55.1889 18.433 53.1909 19.216 50.5629 19.216C48.9249 19.216 47.4759 18.901 46.2159 18.271C44.9559 17.623 43.9839 16.732 43.2999 15.598C42.6159 14.464 42.2739 13.177 42.2739 11.737C42.2739 10.315 42.6069 9.037 43.2729 7.903C43.9569 6.751 44.8839 5.86 46.0539 5.23C47.2419 4.582 48.5649 4.258 50.0229 4.258C51.4449 4.258 52.7319 4.564 53.8839 5.176C55.0359 5.788 55.9359 6.67 56.5839 7.822C57.2499 8.956 57.5829 10.279 57.5829 11.791ZM50.0499 7.444C49.0959 7.444 48.2949 7.714 47.6469 8.254C46.9989 8.794 46.6029 9.532 46.4589 10.468H53.6139C53.4699 9.55 53.0739 8.821 52.4259 8.281C51.7779 7.723 50.9859 7.444 50.0499 7.444ZM65.4091 19.216C64.2031 19.216 63.0241 19.072 61.8721 18.784C60.7201 18.478 59.8021 18.1 59.1181 17.65L60.5221 14.626C61.1701 15.04 61.9531 15.382 62.8711 15.652C63.7891 15.904 64.6891 16.03 65.5711 16.03C67.3531 16.03 68.2441 15.589 68.2441 14.707C68.2441 14.293 68.0011 13.996 67.5151 13.816C67.0291 13.636 66.2821 13.483 65.2741 13.357C64.0861 13.177 63.1051 12.97 62.3311 12.736C61.5571 12.502 60.8821 12.088 60.3061 11.494C59.7481 10.9 59.4691 10.054 59.4691 8.956C59.4691 8.038 59.7301 7.228 60.2521 6.526C60.7921 5.806 61.5661 5.248 62.5741 4.852C63.6001 4.456 64.8061 4.258 66.1921 4.258C67.2181 4.258 68.2351 4.375 69.2431 4.609C70.2691 4.825 71.1151 5.131 71.7811 5.527L70.3771 8.524C69.0991 7.804 67.7041 7.444 66.1921 7.444C65.2921 7.444 64.6171 7.57 64.1671 7.822C63.7171 8.074 63.4921 8.398 63.4921 8.794C63.4921 9.244 63.7351 9.559 64.2211 9.739C64.7071 9.919 65.4811 10.09 66.5431 10.252C67.7311 10.45 68.7031 10.666 69.4591 10.9C70.2151 11.116 70.8721 11.521 71.4301 12.115C71.9881 12.709 72.2671 13.537 72.2671 14.599C72.2671 15.499 71.9971 16.3 71.4571 17.002C70.9171 17.704 70.1251 18.253 69.0811 18.649C68.0551 19.027 66.8311 19.216 65.4091 19.216ZM84.3698 18.298C83.9558 18.604 83.4428 18.838 82.8308 19C82.2368 19.144 81.6068 19.216 80.9408 19.216C79.2128 19.216 77.8718 18.775 76.9178 17.893C75.9818 17.011 75.5138 15.715 75.5138 14.005V8.038H73.2728V4.798H75.5138V1.261H79.7258V4.798H83.3438V8.038H79.7258V13.951C79.7258 14.563 79.8788 15.04 80.1848 15.382C80.5088 15.706 80.9588 15.868 81.5348 15.868C82.2008 15.868 82.7678 15.688 83.2358 15.328L84.3698 18.298Z" fill="#1F1F1F"/>
</svg>
