<svg width="92" height="39" viewBox="0 0 92 39" fill="none" xmlns="http://www.w3.org/2000/svg">
<path d="M0.365165 0.0662167H1.55566V11.3276H0.365165V0.0662167ZM9.7726 2.80113C10.8344 2.80113 11.6763 3.11216 12.2984 3.73422C12.9312 4.34556 13.2476 5.24111 13.2476 6.42088V11.3276H12.1053V6.53349C12.1053 5.65403 11.8855 4.9837 11.4457 4.52252C11.006 4.06134 10.3786 3.83075 9.56346 3.83075C8.65182 3.83075 7.92787 4.10424 7.39161 4.65122C6.86608 5.18748 6.60331 5.93288 6.60331 6.88742V11.3276H5.46108V2.86548H6.55505V4.426C6.86608 3.91119 7.29509 3.51436 7.84207 3.2355C8.39978 2.94592 9.04329 2.80113 9.7726 2.80113ZM23.7849 2.86548L20.0204 11.3276H18.846L15.0975 2.86548H16.288L19.4573 10.0728L22.6588 2.86548H23.7849ZM33.0087 7.45049H25.9301C25.9944 8.32995 26.3323 9.04318 26.9436 9.59016C27.555 10.1264 28.3272 10.3945 29.2603 10.3945C29.7858 10.3945 30.2684 10.3034 30.7082 10.1211C31.1479 9.928 31.5286 9.64915 31.8504 9.28449L32.4939 10.0245C32.1185 10.475 31.6466 10.8182 31.0782 11.0541C30.5205 11.2901 29.9038 11.4081 29.2281 11.4081C28.3593 11.4081 27.5871 11.2257 26.9114 10.8611C26.2465 10.4857 25.7263 9.9709 25.3509 9.31667C24.9756 8.66243 24.7879 7.9224 24.7879 7.09656C24.7879 6.27072 24.9648 5.53069 25.3188 4.87645C25.6834 4.22222 26.1768 3.71277 26.7988 3.34812C27.4316 2.98346 28.1395 2.80113 28.9224 2.80113C29.7054 2.80113 30.4078 2.98346 31.0299 3.34812C31.652 3.71277 32.14 4.22222 32.4939 4.87645C32.8478 5.51996 33.0248 6.26 33.0248 7.09656L33.0087 7.45049ZM28.9224 3.78249C28.1073 3.78249 27.4209 4.04525 26.8632 4.57078C26.3162 5.08559 26.0052 5.76128 25.9301 6.59784H31.9308C31.8557 5.76128 31.5394 5.08559 30.9816 4.57078C30.4347 4.04525 29.7483 3.78249 28.9224 3.78249ZM38.1007 11.4081C37.4143 11.4081 36.7547 11.3115 36.1219 11.1185C35.4999 10.9147 35.0119 10.6627 34.6579 10.3624L35.1728 9.46146C35.5267 9.74031 35.9718 9.9709 36.508 10.1532C37.0443 10.3248 37.602 10.4106 38.1812 10.4106C38.9534 10.4106 39.5218 10.2927 39.8865 10.0567C40.2618 9.81003 40.4495 9.46682 40.4495 9.02709C40.4495 8.71606 40.3476 8.47474 40.1439 8.30314C39.9401 8.12081 39.6827 7.98675 39.3717 7.90095C39.0606 7.80442 38.6477 7.71326 38.1329 7.62746C37.4465 7.49875 36.8941 7.37005 36.4759 7.24135C36.0576 7.10192 35.6983 6.87133 35.398 6.54958C35.1084 6.22782 34.9636 5.78273 34.9636 5.21429C34.9636 4.50643 35.2586 3.92728 35.8484 3.47682C36.4383 3.02636 37.2588 2.80113 38.3099 2.80113C38.8568 2.80113 39.4038 2.87621 39.9508 3.02636C40.4978 3.16579 40.9483 3.35348 41.3022 3.58943L40.8035 4.50643C40.1063 4.0238 39.2751 3.78249 38.3099 3.78249C37.5806 3.78249 37.0282 3.91119 36.6528 4.16859C36.2882 4.42599 36.1058 4.76384 36.1058 5.18212C36.1058 5.50387 36.2077 5.76128 36.4115 5.95433C36.626 6.14738 36.8888 6.29217 37.1998 6.3887C37.5108 6.4745 37.9398 6.56566 38.4868 6.66219C39.1625 6.79089 39.7041 6.9196 40.1117 7.0483C40.5192 7.177 40.8678 7.39686 41.1574 7.70789C41.447 8.01892 41.5918 8.44793 41.5918 8.99491C41.5918 9.73495 41.2807 10.3248 40.6587 10.7646C40.0473 11.1936 39.1947 11.4081 38.1007 11.4081ZM48.6423 10.8128C48.4278 11.0059 48.1597 11.156 47.838 11.2633C47.5269 11.3598 47.1998 11.4081 46.8566 11.4081C46.0629 11.4081 45.4516 11.1936 45.0226 10.7646C44.5936 10.3356 44.3791 9.72959 44.3791 8.94665V3.83075H42.8668V2.86548H44.3791V1.01539H45.5213V2.86548H48.0954V3.83075H45.5213V8.8823C45.5213 9.38638 45.6447 9.77249 45.8913 10.0406C46.1487 10.298 46.5134 10.4267 46.9853 10.4267C47.2213 10.4267 47.4465 10.3892 47.661 10.3141C47.8862 10.239 48.0793 10.1318 48.2401 9.99235L48.6423 10.8128ZM63.0082 2.86548L58.7771 12.3412C58.4339 13.1348 58.0371 13.6979 57.5866 14.0304C57.1362 14.3629 56.5945 14.5291 55.9618 14.5291C55.5542 14.5291 55.1735 14.4647 54.8195 14.336C54.4656 14.2073 54.1599 14.0143 53.9025 13.7569L54.4334 12.9042C54.8624 13.3332 55.3772 13.5477 55.9779 13.5477C56.364 13.5477 56.6911 13.4405 56.9592 13.226C57.2381 13.0115 57.4955 12.6468 57.7314 12.132L58.1014 11.3115L54.3208 2.86548H55.5113L58.6967 10.0567L61.8821 2.86548H63.0082ZM68.3227 11.4081C67.5076 11.4081 66.7729 11.2257 66.1187 10.8611C65.4644 10.4857 64.9496 9.9709 64.5742 9.31667C64.1989 8.66243 64.0112 7.9224 64.0112 7.09656C64.0112 6.27072 64.1989 5.53069 64.5742 4.87645C64.9496 4.22222 65.4644 3.71277 66.1187 3.34812C66.7729 2.98346 67.5076 2.80113 68.3227 2.80113C69.1378 2.80113 69.8725 2.98346 70.5267 3.34812C71.1809 3.71277 71.6904 4.22222 72.055 4.87645C72.4304 5.53069 72.6181 6.27072 72.6181 7.09656C72.6181 7.9224 72.4304 8.66243 72.055 9.31667C71.6904 9.9709 71.1809 10.4857 70.5267 10.8611C69.8725 11.2257 69.1378 11.4081 68.3227 11.4081ZM68.3227 10.3945C68.9233 10.3945 69.4596 10.2605 69.9315 9.99235C70.4141 9.7135 70.7895 9.32203 71.0576 8.81795C71.3257 8.31387 71.4598 7.74007 71.4598 7.09656C71.4598 6.45305 71.3257 5.87925 71.0576 5.37517C70.7895 4.87109 70.4141 4.48498 69.9315 4.21685C69.4596 3.938 68.9233 3.79857 68.3227 3.79857C67.7221 3.79857 67.1805 3.938 66.6978 4.21685C66.2259 4.48498 65.8505 4.87109 65.5717 5.37517C65.3036 5.87925 65.1695 6.45305 65.1695 7.09656C65.1695 7.74007 65.3036 8.31387 65.5717 8.81795C65.8505 9.32203 66.2259 9.7135 66.6978 9.99235C67.1805 10.2605 67.7221 10.3945 68.3227 10.3945ZM83.0583 2.86548V11.3276H81.9643V9.78321C81.664 10.298 81.2511 10.7002 80.7256 10.9898C80.2 11.2686 79.5994 11.4081 78.9237 11.4081C77.819 11.4081 76.9449 11.1024 76.3014 10.4911C75.6687 9.86901 75.3523 8.96274 75.3523 7.77225V2.86548H76.4945V7.65963C76.4945 8.54982 76.7144 9.2255 77.1541 9.68669C77.5938 10.1479 78.2212 10.3785 79.0364 10.3785C79.9265 10.3785 80.629 10.1103 81.1438 9.57407C81.6587 9.02709 81.9161 8.27097 81.9161 7.3057V2.86548H83.0583ZM87.834 4.52252C88.1021 3.95409 88.4989 3.52508 89.0245 3.2355C89.5607 2.94592 90.2203 2.80113 91.0032 2.80113V3.91119L90.7298 3.8951C89.8396 3.8951 89.1424 4.16859 88.6383 4.71557C88.1343 5.26256 87.8822 6.02941 87.8822 7.01612V11.3276H86.74V2.86548H87.834V4.52252ZM28.3051 26.8011C29.3669 26.8011 30.1981 27.1068 30.7987 27.7181C31.41 28.3295 31.7157 29.2304 31.7157 30.4209V35.3276H30.5735V30.5335C30.5735 29.654 30.359 28.9837 29.93 28.5225C29.5117 28.0613 28.9164 27.8307 28.1442 27.8307C27.2648 27.8307 26.573 28.1042 26.0689 28.6512C25.5648 29.1875 25.3128 29.9329 25.3128 30.8874V35.3276H24.1706V30.5335C24.1706 29.654 23.9561 28.9837 23.5271 28.5225C23.1088 28.0613 22.5082 27.8307 21.7252 27.8307C20.8565 27.8307 20.1647 28.1042 19.6499 28.6512C19.1458 29.1875 18.8938 29.9329 18.8938 30.8874V35.3276H17.7516V26.8655H18.8455V28.4099C19.1458 27.8951 19.5641 27.4983 20.1004 27.2194C20.6366 26.9406 21.2533 26.8011 21.9505 26.8011C22.6583 26.8011 23.2696 26.9513 23.7845 27.2516C24.31 27.5519 24.7015 27.997 24.9589 28.5869C25.2699 28.0292 25.715 27.5948 26.2941 27.2838C26.884 26.962 27.5544 26.8011 28.3051 26.8011ZM38.7863 35.4081C37.9712 35.4081 37.2365 35.2257 36.5823 34.8611C35.928 34.4857 35.4132 33.9709 35.0378 33.3167C34.6625 32.6624 34.4748 31.9224 34.4748 31.0966C34.4748 30.2707 34.6625 29.5307 35.0378 28.8765C35.4132 28.2222 35.928 27.7128 36.5823 27.3481C37.2365 26.9835 37.9712 26.8011 38.7863 26.8011C39.6014 26.8011 40.3361 26.9835 40.9903 27.3481C41.6445 27.7128 42.154 28.2222 42.5186 28.8765C42.894 29.5307 43.0817 30.2707 43.0817 31.0966C43.0817 31.9224 42.894 32.6624 42.5186 33.3167C42.154 33.9709 41.6445 34.4857 40.9903 34.8611C40.3361 35.2257 39.6014 35.4081 38.7863 35.4081ZM38.7863 34.3945C39.3869 34.3945 39.9231 34.2605 40.3951 33.9924C40.8777 33.7135 41.2531 33.322 41.5212 32.8179C41.7893 32.3139 41.9234 31.7401 41.9234 31.0966C41.9234 30.4531 41.7893 29.8793 41.5212 29.3752C41.2531 28.8711 40.8777 28.485 40.3951 28.2169C39.9231 27.938 39.3869 27.7986 38.7863 27.7986C38.1857 27.7986 37.644 27.938 37.1614 28.2169C36.6895 28.485 36.3141 28.8711 36.0353 29.3752C35.7671 29.8793 35.6331 30.4531 35.6331 31.0966C35.6331 31.7401 35.7671 32.3139 36.0353 32.8179C36.3141 33.322 36.6895 33.7135 37.1614 33.9924C37.644 34.2605 38.1857 34.3945 38.7863 34.3945ZM50.2078 26.8011C51.2696 26.8011 52.1115 27.1122 52.7336 27.7342C53.3664 28.3456 53.6828 29.2411 53.6828 30.4209V35.3276H52.5405V30.5335C52.5405 29.654 52.3207 28.9837 51.8809 28.5225C51.4412 28.0613 50.8138 27.8307 49.9987 27.8307C49.087 27.8307 48.3631 28.1042 47.8268 28.6512C47.3013 29.1875 47.0385 29.9329 47.0385 30.8874V35.3276H45.8963V26.8655H46.9903V28.426C47.3013 27.9112 47.7303 27.5144 48.2773 27.2355C48.835 26.9459 49.4785 26.8011 50.2078 26.8011ZM64.666 31.4505H57.5874C57.6518 32.33 57.9896 33.0432 58.601 33.5902C59.2123 34.1264 59.9845 34.3945 60.9176 34.3945C61.4431 34.3945 61.9258 34.3034 62.3655 34.1211C62.8052 33.928 63.186 33.6491 63.5077 33.2845L64.1512 34.0245C63.7759 34.475 63.3039 34.8182 62.7355 35.0541C62.1778 35.2901 61.5611 35.4081 60.8854 35.4081C60.0167 35.4081 59.2445 35.2257 58.5688 34.8611C57.9038 34.4857 57.3837 33.9709 57.0083 33.3167C56.6329 32.6624 56.4452 31.9224 56.4452 31.0966C56.4452 30.2707 56.6222 29.5307 56.9761 28.8765C57.3408 28.2222 57.8341 27.7128 58.4562 27.3481C59.089 26.9835 59.7968 26.8011 60.5798 26.8011C61.3627 26.8011 62.0652 26.9835 62.6872 27.3481C63.3093 27.7128 63.7973 28.2222 64.1512 28.8765C64.5052 29.52 64.6821 30.26 64.6821 31.0966L64.666 31.4505ZM60.5798 27.7825C59.7646 27.7825 59.0782 28.0453 58.5205 28.5708C57.9735 29.0856 57.6625 29.7613 57.5874 30.5978H63.5882C63.5131 29.7613 63.1967 29.0856 62.639 28.5708C62.092 28.0453 61.4056 27.7825 60.5798 27.7825ZM74.4434 26.8655L70.2123 36.3412C69.8691 37.1348 69.4723 37.6979 69.0218 38.0304C68.5713 38.3629 68.0297 38.5291 67.3969 38.5291C66.9894 38.5291 66.6086 38.4647 66.2547 38.336C65.9008 38.2073 65.5951 38.0143 65.3377 37.7569L65.8686 36.9042C66.2976 37.3332 66.8124 37.5477 67.413 37.5477C67.7991 37.5477 68.1262 37.4405 68.3944 37.226C68.6732 37.0115 68.9306 36.6468 69.1666 36.132L69.5366 35.3115L65.756 26.8655H66.9465L70.1319 34.0567L73.3172 26.8655H74.4434Z" fill="black"/>
</svg>
