<svg width="48" height="12" viewBox="0 0 48 12" fill="none" xmlns="http://www.w3.org/2000/svg">
<path d="M0.803091 0.514649H3.25117V11.0928H0.803091V0.514649ZM10.6124 2.84184C11.6199 2.84184 12.4308 3.14407 13.0454 3.74853C13.67 4.353 13.9823 5.24962 13.9823 6.4384V11.0928H11.6249V6.80108C11.6249 6.15632 11.4838 5.67778 11.2018 5.36548C10.9197 5.04309 10.5117 4.8819 9.97772 4.8819C9.38333 4.8819 8.90984 5.06828 8.55723 5.44103C8.20463 5.80371 8.02833 6.34773 8.02833 7.07309V11.0928H5.67092V2.96273H7.92255V3.91476C8.23485 3.57223 8.62272 3.3103 9.08614 3.12896C9.54956 2.93754 10.0583 2.84184 10.6124 2.84184ZM24.1168 2.96273L20.6864 11.0928H18.2535L14.8382 2.96273H17.2712L19.5228 8.49358L21.85 2.96273H24.1168ZM32.8967 7.05797C32.8967 7.0882 32.8816 7.29976 32.8514 7.69266H26.701C26.8118 8.19638 27.0737 8.59432 27.4868 8.88648C27.8998 9.17864 28.4136 9.32472 29.0281 9.32472C29.4513 9.32472 29.824 9.26427 30.1464 9.14338C30.4789 9.01241 30.7861 8.81092 31.0682 8.53891L32.3225 9.89896C31.5568 10.7754 30.4386 11.2137 28.9677 11.2137C28.0509 11.2137 27.2399 11.0374 26.5347 10.6848C25.8295 10.3221 25.2855 9.8234 24.9027 9.18871C24.5198 8.55402 24.3284 7.8337 24.3284 7.02775C24.3284 6.23187 24.5148 5.51659 24.8876 4.8819C25.2704 4.23714 25.7892 3.73846 26.4441 3.38585C27.109 3.02318 27.8494 2.84184 28.6655 2.84184C29.4613 2.84184 30.1817 3.0131 30.8264 3.35563C31.4712 3.69816 31.9749 4.19181 32.3376 4.83657C32.7103 5.47126 32.8967 6.21172 32.8967 7.05797ZM28.6806 4.62501C28.1466 4.62501 27.6983 4.77612 27.3356 5.07835C26.973 5.38059 26.7513 5.79364 26.6707 6.31751H30.6753C30.5947 5.80371 30.3731 5.3957 30.0104 5.09347C29.6477 4.78116 29.2044 4.62501 28.6806 4.62501ZM37.277 11.2137C36.602 11.2137 35.9421 11.1331 35.2973 10.9719C34.6526 10.8006 34.1388 10.5891 33.756 10.3372L34.5418 8.64469C34.9044 8.8764 35.3427 9.06782 35.8565 9.21893C36.3703 9.35998 36.874 9.4305 37.3676 9.4305C38.365 9.4305 38.8637 9.18367 38.8637 8.69003C38.8637 8.45832 38.7277 8.29209 38.4557 8.19135C38.1837 8.0906 37.7656 8.00497 37.2014 7.93445C36.5365 7.8337 35.9874 7.71785 35.5542 7.58688C35.121 7.45591 34.7432 7.2242 34.4209 6.89175C34.1086 6.55929 33.9524 6.08579 33.9524 5.47126C33.9524 4.95746 34.0985 4.50411 34.3906 4.11121C34.6929 3.70824 35.1261 3.39593 35.6902 3.17429C36.2645 2.95266 36.9395 2.84184 37.7152 2.84184C38.2894 2.84184 38.8586 2.90732 39.4228 3.03829C39.997 3.15918 40.4705 3.33045 40.8433 3.55208L40.0575 5.22947C39.3422 4.82649 38.5614 4.62501 37.7152 4.62501C37.2115 4.62501 36.8337 4.69553 36.5818 4.83657C36.33 4.97761 36.204 5.15895 36.204 5.38059C36.204 5.63245 36.34 5.80875 36.612 5.90949C36.8841 6.01024 37.3173 6.10594 37.9116 6.19661C38.5766 6.30743 39.1206 6.42832 39.5437 6.55929C39.9668 6.68018 40.3345 6.90686 40.6468 7.23931C40.9592 7.57177 41.1153 8.03519 41.1153 8.62958C41.1153 9.1333 40.9642 9.58161 40.662 9.97451C40.3597 10.3674 39.9165 10.6747 39.3321 10.8963C38.7579 11.1079 38.0728 11.2137 37.277 11.2137ZM47.8891 10.6999C47.6574 10.8711 47.3703 11.0021 47.0277 11.0928C46.6953 11.1734 46.3427 11.2137 45.9699 11.2137C45.0028 11.2137 44.2522 10.9668 43.7183 10.4732C43.1944 9.97955 42.9325 9.25419 42.9325 8.29713V4.95746H41.6782V3.14407H42.9325V1.16445H45.2899V3.14407H47.3148V4.95746H45.2899V8.2669C45.2899 8.60943 45.3755 8.8764 45.5468 9.06782C45.7281 9.24916 45.98 9.33983 46.3024 9.33983C46.6751 9.33983 46.9925 9.23908 47.2544 9.0376L47.8891 10.6999Z" fill="#1F1F1F"/>
</svg>
