<svg width="57" height="14" viewBox="0 0 57 14" fill="none" xmlns="http://www.w3.org/2000/svg">
<path d="M0.0288044 0.96347H2.9608V13.6326H0.0288044V0.96347ZM11.7771 3.75067C12.9837 3.75067 13.955 4.11265 14.691 4.83659C15.4391 5.56054 15.8131 6.6344 15.8131 8.05816V13.6326H12.9897V8.49253C12.9897 7.72032 12.8208 7.1472 12.483 6.77316C12.1451 6.38705 11.6565 6.194 11.017 6.194C10.3051 6.194 9.73801 6.41722 9.31571 6.86365C8.89341 7.29802 8.68225 7.94957 8.68225 8.81831V13.6326H5.85886V3.89546H8.55556V5.03568C8.9296 4.62544 9.39414 4.31173 9.94916 4.09455C10.5042 3.8653 11.1135 3.75067 11.7771 3.75067ZM27.9509 3.89546L23.8425 13.6326H20.9286L16.8383 3.89546H19.7522L22.4489 10.5196L25.2361 3.89546H27.9509ZM38.4664 8.80021C38.4664 8.83641 38.4483 9.08979 38.4121 9.56036H31.0459C31.1786 10.1636 31.4923 10.6402 31.987 10.9902C32.4817 11.3401 33.0971 11.515 33.8331 11.515C34.3399 11.515 34.7863 11.4426 35.1724 11.2978C35.5706 11.141 35.9386 10.8997 36.2764 10.5739L37.7786 12.2028C36.8616 13.2525 35.5223 13.7774 33.7607 13.7774C32.6627 13.7774 31.6914 13.5662 30.8468 13.1439C30.0022 12.7095 29.3506 12.1123 28.8921 11.3521C28.4336 10.592 28.2044 9.72928 28.2044 8.76401C28.2044 7.81082 28.4276 6.95414 28.874 6.194C29.3325 5.42179 29.9539 4.82453 30.7382 4.40222C31.5346 3.96786 32.4214 3.75067 33.3987 3.75067C34.3519 3.75067 35.2146 3.95579 35.9868 4.36603C36.7591 4.77627 37.3623 5.36749 37.7967 6.1397C38.2431 6.89985 38.4664 7.78668 38.4664 8.80021ZM33.4168 5.88632C32.7773 5.88632 32.2404 6.06731 31.806 6.42928C31.3717 6.79126 31.1062 7.28595 31.0097 7.91338H35.8059C35.7093 7.29802 35.4439 6.80935 35.0095 6.44738C34.5751 6.07334 34.0442 5.88632 33.4168 5.88632ZM43.7124 13.7774C42.904 13.7774 42.1137 13.6808 41.3415 13.4878C40.5693 13.2827 39.9539 13.0293 39.4954 12.7276L40.4366 10.7006C40.8709 10.9781 41.3958 11.2073 42.0112 11.3883C42.6265 11.5572 43.2298 11.6417 43.821 11.6417C45.0155 11.6417 45.6128 11.3461 45.6128 10.7549C45.6128 10.4774 45.4499 10.2783 45.1241 10.1576C44.7984 10.037 44.2976 9.9344 43.6219 9.84994C42.8256 9.72928 42.168 9.59052 41.6492 9.43367C41.1304 9.27681 40.6779 8.9993 40.2918 8.60113C39.9177 8.20295 39.7307 7.63586 39.7307 6.89985C39.7307 6.28449 39.9057 5.74153 40.2556 5.27096C40.6176 4.78833 41.1364 4.41429 41.8121 4.14884C42.4998 3.8834 43.3082 3.75067 44.2373 3.75067C44.9251 3.75067 45.6068 3.8291 46.2825 3.98595C46.9702 4.13074 47.5373 4.33586 47.9837 4.60131L47.0426 6.61027C46.1859 6.12764 45.2508 5.88632 44.2373 5.88632C43.634 5.88632 43.1815 5.97078 42.8799 6.1397C42.5783 6.30862 42.4274 6.52581 42.4274 6.79126C42.4274 7.0929 42.5903 7.30405 42.9161 7.42471C43.2419 7.54537 43.7607 7.65999 44.4726 7.76859C45.2689 7.90131 45.9205 8.0461 46.4272 8.20295C46.934 8.34774 47.3744 8.61923 47.7485 9.0174C48.1225 9.41557 48.3095 9.9706 48.3095 10.6825C48.3095 11.2858 48.1285 11.8227 47.7666 12.2933C47.4046 12.7638 46.8737 13.1318 46.1739 13.3973C45.4861 13.6507 44.6656 13.7774 43.7124 13.7774ZM56.4223 13.162C56.1448 13.3671 55.8009 13.524 55.3906 13.6326C54.9925 13.7291 54.5702 13.7774 54.1237 13.7774C52.9654 13.7774 52.0665 13.4817 51.427 12.8905C50.7996 12.2993 50.4859 11.4306 50.4859 10.2843V6.28449H48.9837V4.11265H50.4859V1.74172H53.3093V4.11265H55.7345V6.28449H53.3093V10.2481C53.3093 10.6583 53.4119 10.9781 53.617 11.2073C53.8342 11.4245 54.1358 11.5331 54.5219 11.5331C54.9683 11.5331 55.3484 11.4125 55.6621 11.1711L56.4223 13.162Z" fill="#1F1F1F"/>
</svg>
