<svg width="137" height="58" viewBox="0 0 137 58" fill="none" xmlns="http://www.w3.org/2000/svg">
<path d="M0.951782 0.199999H2.72778V17H0.951782V0.199999ZM14.986 4.28C16.57 4.28 17.826 4.744 18.754 5.672C19.698 6.584 20.17 7.92 20.17 9.68V17H18.466V9.848C18.466 8.536 18.138 7.536 17.482 6.848C16.826 6.16 15.89 5.816 14.674 5.816C13.314 5.816 12.234 6.224 11.434 7.04C10.65 7.84 10.258 8.952 10.258 10.376V17H8.55397V4.376H10.186V6.704C10.65 5.936 11.29 5.344 12.106 4.928C12.938 4.496 13.898 4.28 14.986 4.28ZM35.8898 4.376L30.2738 17H28.5218L22.9298 4.376H24.7058L29.4338 15.128L34.2098 4.376H35.8898ZM49.65 11.216H39.09C39.186 12.528 39.69 13.592 40.602 14.408C41.514 15.208 42.666 15.608 44.058 15.608C44.842 15.608 45.562 15.472 46.218 15.2C46.874 14.912 47.442 14.496 47.922 13.952L48.882 15.056C48.322 15.728 47.618 16.24 46.77 16.592C45.938 16.944 45.018 17.12 44.01 17.12C42.714 17.12 41.562 16.848 40.554 16.304C39.562 15.744 38.786 14.976 38.226 14C37.666 13.024 37.386 11.92 37.386 10.688C37.386 9.456 37.65 8.352 38.178 7.376C38.722 6.4 39.458 5.64 40.386 5.096C41.33 4.552 42.386 4.28 43.554 4.28C44.722 4.28 45.77 4.552 46.698 5.096C47.626 5.64 48.354 6.4 48.882 7.376C49.41 8.336 49.674 9.44 49.674 10.688L49.65 11.216ZM43.554 5.744C42.338 5.744 41.314 6.136 40.482 6.92C39.666 7.688 39.202 8.696 39.09 9.944H48.042C47.93 8.696 47.458 7.688 46.626 6.92C45.81 6.136 44.786 5.744 43.554 5.744ZM57.2464 17.12C56.2224 17.12 55.2384 16.976 54.2944 16.688C53.3664 16.384 52.6384 16.008 52.1104 15.56L52.8784 14.216C53.4064 14.632 54.0704 14.976 54.8704 15.248C55.6704 15.504 56.5024 15.632 57.3664 15.632C58.5184 15.632 59.3664 15.456 59.9104 15.104C60.4704 14.736 60.7504 14.224 60.7504 13.568C60.7504 13.104 60.5984 12.744 60.2944 12.488C59.9904 12.216 59.6064 12.016 59.1424 11.888C58.6784 11.744 58.0624 11.608 57.2944 11.48C56.2704 11.288 55.4464 11.096 54.8224 10.904C54.1984 10.696 53.6624 10.352 53.2144 9.872C52.7824 9.392 52.5664 8.728 52.5664 7.88C52.5664 6.824 53.0064 5.96 53.8864 5.288C54.7664 4.616 55.9904 4.28 57.5584 4.28C58.3744 4.28 59.1904 4.392 60.0064 4.616C60.8224 4.824 61.4944 5.104 62.0224 5.456L61.2784 6.824C60.2384 6.104 58.9984 5.744 57.5584 5.744C56.4704 5.744 55.6464 5.936 55.0864 6.32C54.5424 6.704 54.2704 7.208 54.2704 7.832C54.2704 8.312 54.4224 8.696 54.7264 8.984C55.0464 9.272 55.4384 9.488 55.9024 9.632C56.3664 9.76 57.0064 9.896 57.8224 10.04C58.8304 10.232 59.6384 10.424 60.2464 10.616C60.8544 10.808 61.3744 11.136 61.8064 11.6C62.2384 12.064 62.4544 12.704 62.4544 13.52C62.4544 14.624 61.9904 15.504 61.0624 16.16C60.1504 16.8 58.8784 17.12 57.2464 17.12ZM72.9726 16.232C72.6526 16.52 72.2526 16.744 71.7726 16.904C71.3086 17.048 70.8206 17.12 70.3086 17.12C69.1246 17.12 68.2126 16.8 67.5726 16.16C66.9326 15.52 66.6126 14.616 66.6126 13.448V5.816H64.3566V4.376H66.6126V1.616H68.3166V4.376H72.1566V5.816H68.3166V13.352C68.3166 14.104 68.5006 14.68 68.8686 15.08C69.2526 15.464 69.7966 15.656 70.5006 15.656C70.8526 15.656 71.1886 15.6 71.5086 15.488C71.8446 15.376 72.1326 15.216 72.3726 15.008L72.9726 16.232ZM94.4038 4.376L88.0918 18.512C87.5798 19.696 86.9878 20.536 86.3158 21.032C85.6438 21.528 84.8358 21.776 83.8918 21.776C83.2838 21.776 82.7158 21.68 82.1878 21.488C81.6598 21.296 81.2038 21.008 80.8198 20.624L81.6118 19.352C82.2518 19.992 83.0198 20.312 83.9158 20.312C84.4918 20.312 84.9798 20.152 85.3798 19.832C85.7958 19.512 86.1798 18.968 86.5318 18.2L87.0838 16.976L81.4438 4.376H83.2198L87.9718 15.104L92.7238 4.376H94.4038ZM102.332 17.12C101.116 17.12 100.02 16.848 99.0441 16.304C98.0681 15.744 97.3001 14.976 96.7401 14C96.1801 13.024 95.9001 11.92 95.9001 10.688C95.9001 9.456 96.1801 8.352 96.7401 7.376C97.3001 6.4 98.0681 5.64 99.0441 5.096C100.02 4.552 101.116 4.28 102.332 4.28C103.548 4.28 104.644 4.552 105.62 5.096C106.596 5.64 107.356 6.4 107.9 7.376C108.46 8.352 108.74 9.456 108.74 10.688C108.74 11.92 108.46 13.024 107.9 14C107.356 14.976 106.596 15.744 105.62 16.304C104.644 16.848 103.548 17.12 102.332 17.12ZM102.332 15.608C103.228 15.608 104.028 15.408 104.732 15.008C105.452 14.592 106.012 14.008 106.412 13.256C106.812 12.504 107.012 11.648 107.012 10.688C107.012 9.728 106.812 8.872 106.412 8.12C106.012 7.368 105.452 6.792 104.732 6.392C104.028 5.976 103.228 5.768 102.332 5.768C101.436 5.768 100.628 5.976 99.9081 6.392C99.2041 6.792 98.6441 7.368 98.2281 8.12C97.8281 8.872 97.6281 9.728 97.6281 10.688C97.6281 11.648 97.8281 12.504 98.2281 13.256C98.6441 14.008 99.2041 14.592 99.9081 15.008C100.628 15.408 101.436 15.608 102.332 15.608ZM124.315 4.376V17H122.683V14.696C122.235 15.464 121.619 16.064 120.835 16.496C120.051 16.912 119.155 17.12 118.147 17.12C116.499 17.12 115.195 16.664 114.235 15.752C113.291 14.824 112.819 13.472 112.819 11.696V4.376H114.523V11.528C114.523 12.856 114.851 13.864 115.507 14.552C116.163 15.24 117.099 15.584 118.315 15.584C119.643 15.584 120.691 15.184 121.459 14.384C122.227 13.568 122.611 12.44 122.611 11V4.376H124.315ZM131.439 6.848C131.839 6 132.431 5.36 133.215 4.928C134.015 4.496 134.999 4.28 136.167 4.28V5.936L135.759 5.912C134.431 5.912 133.391 6.32 132.639 7.136C131.887 7.952 131.511 9.096 131.511 10.568V17H129.807V4.376H131.439V6.848ZM42.6331 40.28C44.2171 40.28 45.4571 40.736 46.3531 41.648C47.2651 42.56 47.7211 43.904 47.7211 45.68V53H46.0171V45.848C46.0171 44.536 45.6971 43.536 45.0571 42.848C44.4331 42.16 43.5451 41.816 42.3931 41.816C41.0811 41.816 40.0491 42.224 39.2971 43.04C38.5451 43.84 38.1691 44.952 38.1691 46.376V53H36.4651V45.848C36.4651 44.536 36.1451 43.536 35.5051 42.848C34.8811 42.16 33.9851 41.816 32.8171 41.816C31.5211 41.816 30.4891 42.224 29.7211 43.04C28.9691 43.84 28.5931 44.952 28.5931 46.376V53H26.8891V40.376H28.5211V42.68C28.9691 41.912 29.5931 41.32 30.3931 40.904C31.1931 40.488 32.1131 40.28 33.1531 40.28C34.2091 40.28 35.1211 40.504 35.8891 40.952C36.6731 41.4 37.2571 42.064 37.6411 42.944C38.1051 42.112 38.7691 41.464 39.6331 41C40.5131 40.52 41.5131 40.28 42.6331 40.28ZM58.2691 53.12C57.0531 53.12 55.9571 52.848 54.9811 52.304C54.0051 51.744 53.2371 50.976 52.6771 50C52.1171 49.024 51.8371 47.92 51.8371 46.688C51.8371 45.456 52.1171 44.352 52.6771 43.376C53.2371 42.4 54.0051 41.64 54.9811 41.096C55.9571 40.552 57.0531 40.28 58.2691 40.28C59.4851 40.28 60.5811 40.552 61.5571 41.096C62.5331 41.64 63.2931 42.4 63.8371 43.376C64.3971 44.352 64.6771 45.456 64.6771 46.688C64.6771 47.92 64.3971 49.024 63.8371 50C63.2931 50.976 62.5331 51.744 61.5571 52.304C60.5811 52.848 59.4851 53.12 58.2691 53.12ZM58.2691 51.608C59.1651 51.608 59.9651 51.408 60.6691 51.008C61.3891 50.592 61.9491 50.008 62.3491 49.256C62.7491 48.504 62.9491 47.648 62.9491 46.688C62.9491 45.728 62.7491 44.872 62.3491 44.12C61.9491 43.368 61.3891 42.792 60.6691 42.392C59.9651 41.976 59.1651 41.768 58.2691 41.768C57.3731 41.768 56.5651 41.976 55.8451 42.392C55.1411 42.792 54.5811 43.368 54.1651 44.12C53.7651 44.872 53.5651 45.728 53.5651 46.688C53.5651 47.648 53.7651 48.504 54.1651 49.256C54.5811 50.008 55.1411 50.592 55.8451 51.008C56.5651 51.408 57.3731 51.608 58.2691 51.608ZM75.308 40.28C76.892 40.28 78.148 40.744 79.076 41.672C80.02 42.584 80.492 43.92 80.492 45.68V53H78.788V45.848C78.788 44.536 78.46 43.536 77.804 42.848C77.148 42.16 76.212 41.816 74.996 41.816C73.636 41.816 72.556 42.224 71.756 43.04C70.972 43.84 70.58 44.952 70.58 46.376V53H68.876V40.376H70.508V42.704C70.972 41.936 71.612 41.344 72.428 40.928C73.26 40.496 74.22 40.28 75.308 40.28ZM96.8771 47.216H86.3171C86.4131 48.528 86.9171 49.592 87.8291 50.408C88.7411 51.208 89.8931 51.608 91.2851 51.608C92.0691 51.608 92.7891 51.472 93.4451 51.2C94.1011 50.912 94.6691 50.496 95.1491 49.952L96.1091 51.056C95.5491 51.728 94.8451 52.24 93.9971 52.592C93.1651 52.944 92.2451 53.12 91.2371 53.12C89.9411 53.12 88.7891 52.848 87.7811 52.304C86.7891 51.744 86.0131 50.976 85.4531 50C84.8931 49.024 84.6131 47.92 84.6131 46.688C84.6131 45.456 84.8771 44.352 85.4051 43.376C85.9491 42.4 86.6851 41.64 87.6131 41.096C88.5571 40.552 89.6131 40.28 90.7811 40.28C91.9491 40.28 92.9971 40.552 93.9251 41.096C94.8531 41.64 95.5811 42.4 96.1091 43.376C96.6371 44.336 96.9011 45.44 96.9011 46.688L96.8771 47.216ZM90.7811 41.744C89.5651 41.744 88.5411 42.136 87.7091 42.92C86.8931 43.688 86.4291 44.696 86.3171 45.944H95.2691C95.1571 44.696 94.6851 43.688 93.8531 42.92C93.0371 42.136 92.0131 41.744 90.7811 41.744ZM111.463 40.376L105.151 54.512C104.639 55.696 104.047 56.536 103.375 57.032C102.703 57.528 101.895 57.776 100.951 57.776C100.343 57.776 99.7751 57.68 99.2471 57.488C98.7191 57.296 98.2631 57.008 97.8791 56.624L98.6711 55.352C99.3111 55.992 100.079 56.312 100.975 56.312C101.551 56.312 102.039 56.152 102.439 55.832C102.855 55.512 103.239 54.968 103.591 54.2L104.143 52.976L98.5031 40.376H100.279L105.031 51.104L109.783 40.376H111.463Z" fill="black"/>
</svg>
