<svg width="175" height="55" viewBox="0 0 175 55" fill="none" xmlns="http://www.w3.org/2000/svg">
<path d="M5.83913 1.2H7.61513V16.464H17.0231V18H5.83913V1.2ZM25.3044 18.12C24.0884 18.12 22.9924 17.848 22.0164 17.304C21.0404 16.744 20.2724 15.976 19.7124 15C19.1524 14.024 18.8724 12.92 18.8724 11.688C18.8724 10.456 19.1524 9.352 19.7124 8.376C20.2724 7.4 21.0404 6.64 22.0164 6.096C22.9924 5.552 24.0884 5.28 25.3044 5.28C26.5204 5.28 27.6164 5.552 28.5924 6.096C29.5684 6.64 30.3284 7.4 30.8724 8.376C31.4324 9.352 31.7124 10.456 31.7124 11.688C31.7124 12.92 31.4324 14.024 30.8724 15C30.3284 15.976 29.5684 16.744 28.5924 17.304C27.6164 17.848 26.5204 18.12 25.3044 18.12ZM25.3044 16.608C26.2004 16.608 27.0004 16.408 27.7044 16.008C28.4244 15.592 28.9844 15.008 29.3844 14.256C29.7844 13.504 29.9844 12.648 29.9844 11.688C29.9844 10.728 29.7844 9.872 29.3844 9.12C28.9844 8.368 28.4244 7.792 27.7044 7.392C27.0004 6.976 26.2004 6.768 25.3044 6.768C24.4084 6.768 23.6004 6.976 22.8804 7.392C22.1764 7.792 21.6164 8.368 21.2004 9.12C20.8004 9.872 20.6004 10.728 20.6004 11.688C20.6004 12.648 20.8004 13.504 21.2004 14.256C21.6164 15.008 22.1764 15.592 22.8804 16.008C23.6004 16.408 24.4084 16.608 25.3044 16.608ZM37.5433 7.848C37.9433 7 38.5353 6.36 39.3193 5.928C40.1193 5.496 41.1033 5.28 42.2713 5.28V6.936L41.8633 6.912C40.5353 6.912 39.4953 7.32 38.7433 8.136C37.9913 8.952 37.6153 10.096 37.6153 11.568V18H35.9113V5.376H37.5433V7.848ZM56.9514 12.216H46.3914C46.4874 13.528 46.9914 14.592 47.9034 15.408C48.8154 16.208 49.9674 16.608 51.3594 16.608C52.1434 16.608 52.8634 16.472 53.5194 16.2C54.1754 15.912 54.7434 15.496 55.2234 14.952L56.1834 16.056C55.6234 16.728 54.9194 17.24 54.0714 17.592C53.2394 17.944 52.3194 18.12 51.3114 18.12C50.0154 18.12 48.8634 17.848 47.8554 17.304C46.8634 16.744 46.0874 15.976 45.5274 15C44.9674 14.024 44.6874 12.92 44.6874 11.688C44.6874 10.456 44.9514 9.352 45.4794 8.376C46.0234 7.4 46.7594 6.64 47.6874 6.096C48.6314 5.552 49.6874 5.28 50.8554 5.28C52.0234 5.28 53.0714 5.552 53.9994 6.096C54.9274 6.64 55.6554 7.4 56.1834 8.376C56.7114 9.336 56.9754 10.44 56.9754 11.688L56.9514 12.216ZM50.8554 6.744C49.6394 6.744 48.6154 7.136 47.7834 7.92C46.9674 8.688 46.5034 9.696 46.3914 10.944H55.3434C55.2314 9.696 54.7594 8.688 53.9274 7.92C53.1114 7.136 52.0874 6.744 50.8554 6.744ZM76.9078 5.28C78.4918 5.28 79.7318 5.736 80.6278 6.648C81.5398 7.56 81.9958 8.904 81.9958 10.68V18H80.2918V10.848C80.2918 9.536 79.9718 8.536 79.3318 7.848C78.7078 7.16 77.8198 6.816 76.6678 6.816C75.3558 6.816 74.3238 7.224 73.5718 8.04C72.8198 8.84 72.4438 9.952 72.4438 11.376V18H70.7398V10.848C70.7398 9.536 70.4198 8.536 69.7798 7.848C69.1558 7.16 68.2598 6.816 67.0918 6.816C65.7958 6.816 64.7638 7.224 63.9958 8.04C63.2438 8.84 62.8678 9.952 62.8678 11.376V18H61.1638V5.376H62.7958V7.68C63.2438 6.912 63.8678 6.32 64.6678 5.904C65.4678 5.488 66.3878 5.28 67.4278 5.28C68.4838 5.28 69.3958 5.504 70.1638 5.952C70.9478 6.4 71.5318 7.064 71.9158 7.944C72.3798 7.112 73.0438 6.464 73.9078 6C74.7878 5.52 75.7878 5.28 76.9078 5.28ZM94.3382 5.376H96.0422V18H94.3382V5.376ZM95.2022 2.616C94.8502 2.616 94.5542 2.496 94.3142 2.256C94.0742 2.016 93.9542 1.728 93.9542 1.392C93.9542 1.072 94.0742 0.791999 94.3142 0.551999C94.5542 0.311999 94.8502 0.191999 95.2022 0.191999C95.5542 0.191999 95.8502 0.311999 96.0902 0.551999C96.3302 0.775999 96.4502 1.048 96.4502 1.368C96.4502 1.72 96.3302 2.016 96.0902 2.256C95.8502 2.496 95.5542 2.616 95.2022 2.616ZM108.008 5.28C109.192 5.28 110.264 5.552 111.224 6.096C112.184 6.624 112.936 7.376 113.48 8.352C114.024 9.328 114.296 10.44 114.296 11.688C114.296 12.952 114.024 14.072 113.48 15.048C112.936 16.024 112.184 16.784 111.224 17.328C110.28 17.856 109.208 18.12 108.008 18.12C106.984 18.12 106.056 17.912 105.224 17.496C104.408 17.064 103.736 16.44 103.208 15.624V22.656H101.504V5.376H103.136V7.872C103.648 7.04 104.32 6.4 105.152 5.952C106 5.504 106.952 5.28 108.008 5.28ZM107.888 16.608C108.768 16.608 109.568 16.408 110.288 16.008C111.008 15.592 111.568 15.008 111.968 14.256C112.384 13.504 112.592 12.648 112.592 11.688C112.592 10.728 112.384 9.88 111.968 9.144C111.568 8.392 111.008 7.808 110.288 7.392C109.568 6.976 108.768 6.768 107.888 6.768C106.992 6.768 106.184 6.976 105.464 7.392C104.76 7.808 104.2 8.392 103.784 9.144C103.384 9.88 103.184 10.728 103.184 11.688C103.184 12.648 103.384 13.504 103.784 14.256C104.2 15.008 104.76 15.592 105.464 16.008C106.184 16.408 106.992 16.608 107.888 16.608ZM121.873 18.12C120.849 18.12 119.865 17.976 118.921 17.688C117.993 17.384 117.265 17.008 116.737 16.56L117.505 15.216C118.033 15.632 118.697 15.976 119.497 16.248C120.297 16.504 121.129 16.632 121.993 16.632C123.145 16.632 123.993 16.456 124.537 16.104C125.097 15.736 125.377 15.224 125.377 14.568C125.377 14.104 125.225 13.744 124.921 13.488C124.617 13.216 124.233 13.016 123.769 12.888C123.305 12.744 122.689 12.608 121.921 12.48C120.897 12.288 120.073 12.096 119.449 11.904C118.825 11.696 118.289 11.352 117.841 10.872C117.409 10.392 117.193 9.728 117.193 8.88C117.193 7.824 117.633 6.96 118.513 6.288C119.393 5.616 120.617 5.28 122.185 5.28C123.001 5.28 123.817 5.392 124.633 5.616C125.449 5.824 126.121 6.104 126.649 6.456L125.905 7.824C124.865 7.104 123.625 6.744 122.185 6.744C121.097 6.744 120.273 6.936 119.713 7.32C119.169 7.704 118.897 8.208 118.897 8.832C118.897 9.312 119.049 9.696 119.353 9.984C119.673 10.272 120.065 10.488 120.529 10.632C120.993 10.76 121.633 10.896 122.449 11.04C123.457 11.232 124.265 11.424 124.873 11.616C125.481 11.808 126.001 12.136 126.433 12.6C126.865 13.064 127.081 13.704 127.081 14.52C127.081 15.624 126.617 16.504 125.689 17.16C124.777 17.8 123.505 18.12 121.873 18.12ZM142.327 5.376V18H140.695V15.696C140.247 16.464 139.631 17.064 138.847 17.496C138.063 17.912 137.167 18.12 136.159 18.12C134.511 18.12 133.207 17.664 132.247 16.752C131.303 15.824 130.831 14.472 130.831 12.696V5.376H132.535V12.528C132.535 13.856 132.863 14.864 133.519 15.552C134.175 16.24 135.111 16.584 136.327 16.584C137.655 16.584 138.703 16.184 139.471 15.384C140.239 14.568 140.623 13.44 140.623 12V5.376H142.327ZM163.564 5.28C165.148 5.28 166.388 5.736 167.284 6.648C168.196 7.56 168.652 8.904 168.652 10.68V18H166.948V10.848C166.948 9.536 166.628 8.536 165.988 7.848C165.364 7.16 164.476 6.816 163.324 6.816C162.012 6.816 160.98 7.224 160.228 8.04C159.476 8.84 159.1 9.952 159.1 11.376V18H157.396V10.848C157.396 9.536 157.076 8.536 156.436 7.848C155.812 7.16 154.916 6.816 153.748 6.816C152.452 6.816 151.42 7.224 150.652 8.04C149.9 8.84 149.524 9.952 149.524 11.376V18H147.82V5.376H149.452V7.68C149.9 6.912 150.524 6.32 151.324 5.904C152.124 5.488 153.044 5.28 154.084 5.28C155.14 5.28 156.052 5.504 156.82 5.952C157.604 6.4 158.188 7.064 158.572 7.944C159.036 7.112 159.7 6.464 160.564 6C161.444 5.52 162.444 5.28 163.564 5.28ZM12.8019 36.192V54H11.1699V51.504C10.6579 52.352 9.97794 53 9.12994 53.448C8.29794 53.896 7.35394 54.12 6.29794 54.12C5.11394 54.12 4.04194 53.848 3.08194 53.304C2.12194 52.76 1.36994 52 0.825937 51.024C0.281937 50.048 0.00993729 48.936 0.00993729 47.688C0.00993729 46.44 0.281937 45.328 0.825937 44.352C1.36994 43.376 2.12194 42.624 3.08194 42.096C4.04194 41.552 5.11394 41.28 6.29794 41.28C7.32194 41.28 8.24194 41.496 9.05794 41.928C9.88994 42.344 10.5699 42.96 11.0979 43.776V36.192H12.8019ZM6.44194 52.608C7.32194 52.608 8.11394 52.408 8.81794 52.008C9.53794 51.592 10.0979 51.008 10.4979 50.256C10.9139 49.504 11.1219 48.648 11.1219 47.688C11.1219 46.728 10.9139 45.872 10.4979 45.12C10.0979 44.368 9.53794 43.792 8.81794 43.392C8.11394 42.976 7.32194 42.768 6.44194 42.768C5.54594 42.768 4.73794 42.976 4.01794 43.392C3.31394 43.792 2.75394 44.368 2.33794 45.12C1.93794 45.872 1.73794 46.728 1.73794 47.688C1.73794 48.648 1.93794 49.504 2.33794 50.256C2.75394 51.008 3.31394 51.592 4.01794 52.008C4.73794 52.408 5.54594 52.608 6.44194 52.608ZM23.4276 54.12C22.2116 54.12 21.1156 53.848 20.1396 53.304C19.1636 52.744 18.3956 51.976 17.8356 51C17.2756 50.024 16.9956 48.92 16.9956 47.688C16.9956 46.456 17.2756 45.352 17.8356 44.376C18.3956 43.4 19.1636 42.64 20.1396 42.096C21.1156 41.552 22.2116 41.28 23.4276 41.28C24.6436 41.28 25.7396 41.552 26.7156 42.096C27.6916 42.64 28.4516 43.4 28.9956 44.376C29.5556 45.352 29.8356 46.456 29.8356 47.688C29.8356 48.92 29.5556 50.024 28.9956 51C28.4516 51.976 27.6916 52.744 26.7156 53.304C25.7396 53.848 24.6436 54.12 23.4276 54.12ZM23.4276 52.608C24.3236 52.608 25.1236 52.408 25.8276 52.008C26.5476 51.592 27.1076 51.008 27.5076 50.256C27.9076 49.504 28.1076 48.648 28.1076 47.688C28.1076 46.728 27.9076 45.872 27.5076 45.12C27.1076 44.368 26.5476 43.792 25.8276 43.392C25.1236 42.976 24.3236 42.768 23.4276 42.768C22.5316 42.768 21.7236 42.976 21.0036 43.392C20.2996 43.792 19.7396 44.368 19.3236 45.12C18.9236 45.872 18.7236 46.728 18.7236 47.688C18.7236 48.648 18.9236 49.504 19.3236 50.256C19.7396 51.008 20.2996 51.592 21.0036 52.008C21.7236 52.408 22.5316 52.608 23.4276 52.608ZM34.0344 36.192H35.7384V54H34.0344V36.192ZM46.3597 54.12C45.1437 54.12 44.0477 53.848 43.0717 53.304C42.0957 52.744 41.3277 51.976 40.7677 51C40.2077 50.024 39.9277 48.92 39.9277 47.688C39.9277 46.456 40.2077 45.352 40.7677 44.376C41.3277 43.4 42.0957 42.64 43.0717 42.096C44.0477 41.552 45.1437 41.28 46.3597 41.28C47.5757 41.28 48.6718 41.552 49.6478 42.096C50.6238 42.64 51.3837 43.4 51.9277 44.376C52.4878 45.352 52.7678 46.456 52.7678 47.688C52.7678 48.92 52.4878 50.024 51.9277 51C51.3837 51.976 50.6238 52.744 49.6478 53.304C48.6718 53.848 47.5757 54.12 46.3597 54.12ZM46.3597 52.608C47.2557 52.608 48.0557 52.408 48.7598 52.008C49.4798 51.592 50.0398 51.008 50.4398 50.256C50.8397 49.504 51.0397 48.648 51.0397 47.688C51.0397 46.728 50.8397 45.872 50.4398 45.12C50.0398 44.368 49.4798 43.792 48.7598 43.392C48.0557 42.976 47.2557 42.768 46.3597 42.768C45.4637 42.768 44.6557 42.976 43.9357 43.392C43.2317 43.792 42.6717 44.368 42.2557 45.12C41.8557 45.872 41.6557 46.728 41.6557 47.688C41.6557 48.648 41.8557 49.504 42.2557 50.256C42.6717 51.008 43.2317 51.592 43.9357 52.008C44.6557 52.408 45.4637 52.608 46.3597 52.608ZM58.5986 43.848C58.9986 43 59.5906 42.36 60.3746 41.928C61.1746 41.496 62.1586 41.28 63.3266 41.28V42.936L62.9186 42.912C61.5906 42.912 60.5506 43.32 59.7986 44.136C59.0466 44.952 58.6706 46.096 58.6706 47.568V54H56.9666V41.376H58.5986V43.848ZM77.7047 54.12C76.6807 54.12 75.6967 53.976 74.7527 53.688C73.8247 53.384 73.0967 53.008 72.5687 52.56L73.3367 51.216C73.8647 51.632 74.5287 51.976 75.3287 52.248C76.1287 52.504 76.9607 52.632 77.8247 52.632C78.9767 52.632 79.8247 52.456 80.3687 52.104C80.9287 51.736 81.2087 51.224 81.2087 50.568C81.2087 50.104 81.0567 49.744 80.7527 49.488C80.4487 49.216 80.0647 49.016 79.6007 48.888C79.1367 48.744 78.5207 48.608 77.7527 48.48C76.7287 48.288 75.9047 48.096 75.2807 47.904C74.6567 47.696 74.1207 47.352 73.6727 46.872C73.2407 46.392 73.0247 45.728 73.0247 44.88C73.0247 43.824 73.4647 42.96 74.3447 42.288C75.2247 41.616 76.4487 41.28 78.0167 41.28C78.8327 41.28 79.6487 41.392 80.4647 41.616C81.2807 41.824 81.9527 42.104 82.4807 42.456L81.7367 43.824C80.6967 43.104 79.4567 42.744 78.0167 42.744C76.9287 42.744 76.1047 42.936 75.5447 43.32C75.0007 43.704 74.7287 44.208 74.7287 44.832C74.7287 45.312 74.8807 45.696 75.1847 45.984C75.5047 46.272 75.8967 46.488 76.3607 46.632C76.8247 46.76 77.4647 46.896 78.2807 47.04C79.2887 47.232 80.0967 47.424 80.7047 47.616C81.3127 47.808 81.8327 48.136 82.2647 48.6C82.6967 49.064 82.9127 49.704 82.9127 50.52C82.9127 51.624 82.4487 52.504 81.5207 53.16C80.6087 53.8 79.3367 54.12 77.7047 54.12ZM86.7829 41.376H88.4869V54H86.7829V41.376ZM87.6469 38.616C87.2949 38.616 86.9989 38.496 86.7589 38.256C86.5189 38.016 86.3989 37.728 86.3989 37.392C86.3989 37.072 86.5189 36.792 86.7589 36.552C86.9989 36.312 87.2949 36.192 87.6469 36.192C87.9989 36.192 88.2949 36.312 88.5349 36.552C88.7749 36.776 88.8949 37.048 88.8949 37.368C88.8949 37.72 88.7749 38.016 88.5349 38.256C88.2949 38.496 87.9989 38.616 87.6469 38.616ZM100.596 53.232C100.276 53.52 99.8762 53.744 99.3962 53.904C98.9322 54.048 98.4442 54.12 97.9322 54.12C96.7482 54.12 95.8362 53.8 95.1962 53.16C94.5562 52.52 94.2362 51.616 94.2362 50.448V42.816H91.9802V41.376H94.2362V38.616H95.9402V41.376H99.7802V42.816H95.9402V50.352C95.9402 51.104 96.1242 51.68 96.4922 52.08C96.8762 52.464 97.4202 52.656 98.1242 52.656C98.4762 52.656 98.8122 52.6 99.1322 52.488C99.4682 52.376 99.7562 52.216 99.9962 52.008L100.596 53.232ZM115.835 41.28C117.483 41.28 118.747 41.696 119.627 42.528C120.507 43.344 120.947 44.56 120.947 46.176V54H119.315V52.032C118.931 52.688 118.363 53.2 117.611 53.568C116.875 53.936 115.995 54.12 114.971 54.12C113.563 54.12 112.443 53.784 111.611 53.112C110.779 52.44 110.363 51.552 110.363 50.448C110.363 49.376 110.747 48.512 111.515 47.856C112.299 47.2 113.539 46.872 115.235 46.872H119.243V46.104C119.243 45.016 118.939 44.192 118.331 43.632C117.723 43.056 116.835 42.768 115.667 42.768C114.867 42.768 114.099 42.904 113.363 43.176C112.627 43.432 111.995 43.792 111.467 44.256L110.699 42.984C111.339 42.44 112.107 42.024 113.003 41.736C113.899 41.432 114.843 41.28 115.835 41.28ZM115.235 52.776C116.195 52.776 117.019 52.56 117.707 52.128C118.395 51.68 118.907 51.04 119.243 50.208V48.144H115.283C113.123 48.144 112.043 48.896 112.043 50.4C112.043 51.136 112.323 51.72 112.883 52.152C113.443 52.568 114.227 52.776 115.235 52.776ZM142.04 41.28C143.624 41.28 144.864 41.736 145.76 42.648C146.672 43.56 147.128 44.904 147.128 46.68V54H145.424V46.848C145.424 45.536 145.104 44.536 144.464 43.848C143.84 43.16 142.952 42.816 141.8 42.816C140.488 42.816 139.456 43.224 138.704 44.04C137.952 44.84 137.576 45.952 137.576 47.376V54H135.872V46.848C135.872 45.536 135.552 44.536 134.912 43.848C134.288 43.16 133.392 42.816 132.224 42.816C130.928 42.816 129.896 43.224 129.128 44.04C128.376 44.84 128 45.952 128 47.376V54H126.296V41.376H127.928V43.68C128.376 42.912 129 42.32 129.8 41.904C130.6 41.488 131.52 41.28 132.56 41.28C133.616 41.28 134.528 41.504 135.296 41.952C136.08 42.4 136.664 43.064 137.048 43.944C137.512 43.112 138.176 42.464 139.04 42C139.92 41.52 140.92 41.28 142.04 41.28ZM163.508 48.216H152.948C153.044 49.528 153.548 50.592 154.46 51.408C155.372 52.208 156.524 52.608 157.916 52.608C158.7 52.608 159.42 52.472 160.076 52.2C160.732 51.912 161.3 51.496 161.78 50.952L162.74 52.056C162.18 52.728 161.476 53.24 160.628 53.592C159.796 53.944 158.876 54.12 157.868 54.12C156.572 54.12 155.42 53.848 154.412 53.304C153.42 52.744 152.644 51.976 152.084 51C151.524 50.024 151.244 48.92 151.244 47.688C151.244 46.456 151.508 45.352 152.036 44.376C152.58 43.4 153.316 42.64 154.244 42.096C155.188 41.552 156.244 41.28 157.412 41.28C158.58 41.28 159.628 41.552 160.556 42.096C161.484 42.64 162.212 43.4 162.74 44.376C163.268 45.336 163.532 46.44 163.532 47.688L163.508 48.216ZM157.412 42.744C156.196 42.744 155.172 43.136 154.34 43.92C153.524 44.688 153.06 45.696 152.948 46.944H161.9C161.788 45.696 161.316 44.688 160.484 43.92C159.668 43.136 158.644 42.744 157.412 42.744ZM174.368 53.232C174.048 53.52 173.648 53.744 173.168 53.904C172.704 54.048 172.216 54.12 171.704 54.12C170.52 54.12 169.608 53.8 168.968 53.16C168.328 52.52 168.008 51.616 168.008 50.448V42.816H165.752V41.376H168.008V38.616H169.712V41.376H173.552V42.816H169.712V50.352C169.712 51.104 169.896 51.68 170.264 52.08C170.648 52.464 171.192 52.656 171.896 52.656C172.248 52.656 172.584 52.6 172.904 52.488C173.24 52.376 173.528 52.216 173.768 52.008L174.368 53.232Z" fill="black"/>
</svg>
