<svg width="27" height="12" viewBox="0 0 27 12" fill="none" xmlns="http://www.w3.org/2000/svg">
<path d="M7.04401 10.9531L5.00395 8.00636H4.88305H2.75232V10.9531H0.304236V0.375001H4.88305C5.81997 0.375001 6.63096 0.531154 7.31602 0.843461C8.01115 1.15577 8.5451 1.59904 8.91785 2.17328C9.2906 2.74752 9.47698 3.42755 9.47698 4.21335C9.47698 4.99915 9.28557 5.67917 8.90274 6.25342C8.52999 6.81758 7.99604 7.25078 7.30091 7.55301L9.67343 10.9531H7.04401ZM6.99868 4.21335C6.99868 3.61896 6.80726 3.16561 6.42444 2.8533C6.04161 2.53092 5.48248 2.36973 4.74705 2.36973H2.75232V6.05697H4.74705C5.48248 6.05697 6.04161 5.89577 6.42444 5.57339C6.80726 5.25101 6.99868 4.79766 6.99868 4.21335ZM16.615 11.1345C15.5169 11.1345 14.5245 10.8977 13.638 10.4242C12.7615 9.95072 12.0714 9.30092 11.5677 8.47482C11.074 7.63865 10.8272 6.70173 10.8272 5.66406C10.8272 4.6264 11.074 3.69452 11.5677 2.86842C12.0714 2.03224 12.7615 1.3774 13.638 0.903908C14.5245 0.430411 15.5169 0.193662 16.615 0.193662C17.7131 0.193662 18.7004 0.430411 19.5768 0.903908C20.4533 1.3774 21.1434 2.03224 21.6471 2.86842C22.1509 3.69452 22.4027 4.6264 22.4027 5.66406C22.4027 6.70173 22.1509 7.63865 21.6471 8.47482C21.1434 9.30092 20.4533 9.95072 19.5768 10.4242C18.7004 10.8977 17.7131 11.1345 16.615 11.1345ZM16.615 9.04906C17.2396 9.04906 17.8037 8.90802 18.3075 8.62594C18.8112 8.33378 19.2041 7.9308 19.4862 7.41701C19.7783 6.90321 19.9244 6.3189 19.9244 5.66406C19.9244 5.00923 19.7783 4.42491 19.4862 3.91112C19.2041 3.39732 18.8112 2.99938 18.3075 2.7173C17.8037 2.42514 17.2396 2.27906 16.615 2.27906C15.9904 2.27906 15.4262 2.42514 14.9225 2.7173C14.4187 2.99938 14.0208 3.39732 13.7287 3.91112C13.4466 4.42491 13.3055 5.00923 13.3055 5.66406C13.3055 6.3189 13.4466 6.90321 13.7287 7.41701C14.0208 7.9308 14.4187 8.33378 14.9225 8.62594C15.4262 8.90802 15.9904 9.04906 16.615 9.04906ZM24.3181 0.375001H26.7662V10.9531H24.3181V0.375001Z" fill="#1F1F1F"/>
</svg>
