<svg width="48" height="20" viewBox="0 0 48 20" fill="none" xmlns="http://www.w3.org/2000/svg">
<path d="M12.4004 19.2578L8.75544 13.9928H8.53944H4.73244V19.2578H0.358439V0.357811H8.53944C10.2134 0.357811 11.6624 0.636811 12.8864 1.19481C14.1284 1.75281 15.0824 2.54481 15.7484 3.57081C16.4144 4.59681 16.7474 5.81181 16.7474 7.21581C16.7474 8.61981 16.4054 9.83481 15.7214 10.8608C15.0554 11.8688 14.1014 12.6428 12.8594 13.1828L17.0984 19.2578H12.4004ZM12.3194 7.21581C12.3194 6.15381 11.9774 5.34381 11.2934 4.78581C10.6094 4.20981 9.61044 3.92181 8.29644 3.92181H4.73244V10.5098H8.29644C9.61044 10.5098 10.6094 10.2218 11.2934 9.64581C11.9774 9.06981 12.3194 8.25981 12.3194 7.21581ZM29.5009 19.5818C27.5389 19.5818 25.7659 19.1588 24.1819 18.3128C22.6159 17.4668 21.3829 16.3058 20.4829 14.8298C19.6009 13.3358 19.1599 11.6618 19.1599 9.80781C19.1599 7.95381 19.6009 6.28881 20.4829 4.81281C21.3829 3.31881 22.6159 2.14881 24.1819 1.30281C25.7659 0.456812 27.5389 0.0338122 29.5009 0.0338122C31.4629 0.0338122 33.2269 0.456812 34.7929 1.30281C36.3589 2.14881 37.5919 3.31881 38.4919 4.81281C39.3919 6.28881 39.8419 7.95381 39.8419 9.80781C39.8419 11.6618 39.3919 13.3358 38.4919 14.8298C37.5919 16.3058 36.3589 17.4668 34.7929 18.3128C33.2269 19.1588 31.4629 19.5818 29.5009 19.5818ZM29.5009 15.8558C30.6169 15.8558 31.6249 15.6038 32.5249 15.0998C33.4249 14.5778 34.1269 13.8578 34.6309 12.9398C35.1529 12.0218 35.4139 10.9778 35.4139 9.80781C35.4139 8.63781 35.1529 7.59381 34.6309 6.67581C34.1269 5.75781 33.4249 5.04681 32.5249 4.54281C31.6249 4.02081 30.6169 3.75981 29.5009 3.75981C28.3849 3.75981 27.3769 4.02081 26.4769 4.54281C25.5769 5.04681 24.8659 5.75781 24.3439 6.67581C23.8399 7.59381 23.5879 8.63781 23.5879 9.80781C23.5879 10.9778 23.8399 12.0218 24.3439 12.9398C24.8659 13.8578 25.5769 14.5778 26.4769 15.0998C27.3769 15.6038 28.3849 15.8558 29.5009 15.8558ZM43.2642 0.357811H47.6382V19.2578H43.2642V0.357811Z" fill="#1F1F1F"/>
</svg>
