<svg width="144" height="61" viewBox="0 0 144 61" fill="none" xmlns="http://www.w3.org/2000/svg">
<path d="M4.30625 12.0946C3.46969 12.0946 2.6653 11.9605 1.89309 11.6924C1.13161 11.4243 0.541722 11.0703 0.123441 10.6306L0.589986 9.71359C0.997542 10.1211 1.53916 10.4536 2.21485 10.711C2.89053 10.9577 3.58767 11.081 4.30625 11.081C5.31442 11.081 6.07054 10.8987 6.57463 10.5341C7.07871 10.1587 7.33075 9.67605 7.33075 9.08617C7.33075 8.63571 7.19132 8.27642 6.91247 8.00829C6.64434 7.74016 6.31186 7.53638 5.91503 7.39695C5.5182 7.2468 4.96585 7.08592 4.25799 6.91432C3.4107 6.69982 2.73502 6.49604 2.23094 6.30299C1.72685 6.09921 1.29248 5.79354 0.927828 5.38598C0.573898 4.97843 0.396933 4.42608 0.396933 3.72895C0.396933 3.16051 0.547085 2.64571 0.84739 2.18452C1.14769 1.71262 1.60888 1.33724 2.23094 1.05838C2.85299 0.779528 3.62521 0.640101 4.54757 0.640101C5.19108 0.640101 5.8185 0.731265 6.42984 0.913593C7.0519 1.08519 7.58815 1.32651 8.03861 1.63754L7.63642 2.58672C7.16451 2.27569 6.66043 2.0451 6.12417 1.89494C5.58791 1.73407 5.06238 1.65363 4.54757 1.65363C3.56086 1.65363 2.81546 1.84668 2.31137 2.23279C1.81802 2.60817 1.57134 3.09616 1.57134 3.69677C1.57134 4.14723 1.7054 4.51188 1.97353 4.79074C2.25239 5.05887 2.59559 5.26801 3.00315 5.41816C3.42143 5.55759 3.97914 5.7131 4.67627 5.8847C5.50211 6.08848 6.16707 6.29226 6.67115 6.49604C7.18596 6.68909 7.62033 6.9894 7.97426 7.39695C8.32819 7.79378 8.50515 8.3354 8.50515 9.02181C8.50515 9.59025 8.34964 10.1104 8.03861 10.5823C7.73831 11.0435 7.27176 11.4135 6.63898 11.6924C6.00619 11.9605 5.22862 12.0946 4.30625 12.0946ZM18.7086 8.1209H11.6299C11.6943 9.00036 12.0321 9.71359 12.6435 10.2606C13.2548 10.7968 14.027 11.065 14.9601 11.065C15.4856 11.065 15.9683 10.9738 16.408 10.7915C16.8477 10.5984 17.2285 10.3196 17.5502 9.9549L18.1937 10.6949C17.8184 11.1454 17.3465 11.4886 16.778 11.7246C16.2203 11.9605 15.6036 12.0785 14.9279 12.0785C14.0592 12.0785 13.287 11.8962 12.6113 11.5315C11.9463 11.1561 11.4262 10.6413 11.0508 9.98708C10.6754 9.33284 10.4877 8.59281 10.4877 7.76697C10.4877 6.94113 10.6647 6.2011 11.0186 5.54686C11.3833 4.89263 11.8766 4.38318 12.4987 4.01853C13.1315 3.65387 13.8393 3.47154 14.6223 3.47154C15.4052 3.47154 16.1077 3.65387 16.7298 4.01853C17.3518 4.38318 17.8398 4.89263 18.1937 5.54686C18.5477 6.19037 18.7246 6.93041 18.7246 7.76697L18.7086 8.1209ZM14.6223 4.4529C13.8072 4.4529 13.1207 4.71566 12.563 5.2412C12.0161 5.756 11.705 6.43169 11.6299 7.26825H17.6307C17.5556 6.43169 17.2392 5.756 16.6815 5.2412C16.1345 4.71566 15.4481 4.4529 14.6223 4.4529ZM21.5322 0.0609417H22.6744V11.998H21.5322V0.0609417ZM33.7035 8.1209H26.6249C26.6892 9.00036 27.027 9.71359 27.6384 10.2606C28.2497 10.7968 29.0219 11.065 29.955 11.065C30.4805 11.065 30.9632 10.9738 31.4029 10.7915C31.8426 10.5984 32.2234 10.3196 32.5451 9.9549L33.1887 10.6949C32.8133 11.1454 32.3414 11.4886 31.7729 11.7246C31.2152 11.9605 30.5985 12.0785 29.9228 12.0785C29.0541 12.0785 28.2819 11.8962 27.6062 11.5315C26.9412 11.1561 26.4211 10.6413 26.0457 9.98708C25.6703 9.33284 25.4826 8.59281 25.4826 7.76697C25.4826 6.94113 25.6596 6.2011 26.0135 5.54686C26.3782 4.89263 26.8715 4.38318 27.4936 4.01853C28.1264 3.65387 28.8342 3.47154 29.6172 3.47154C30.4001 3.47154 31.1026 3.65387 31.7247 4.01853C32.3467 4.38318 32.8347 4.89263 33.1887 5.54686C33.5426 6.19037 33.7195 6.93041 33.7195 7.76697L33.7035 8.1209ZM29.6172 4.4529C28.8021 4.4529 28.1157 4.71566 27.5579 5.2412C27.011 5.756 26.6999 6.43169 26.6249 7.26825H32.6256C32.5505 6.43169 32.2341 5.756 31.6764 5.2412C31.1294 4.71566 30.443 4.4529 29.6172 4.4529ZM40.0342 12.0785C39.1977 12.0785 38.4469 11.8962 37.782 11.5315C37.1277 11.1668 36.6129 10.6574 36.2375 10.0032C35.8622 9.33821 35.6745 8.59281 35.6745 7.76697C35.6745 6.94113 35.8622 6.2011 36.2375 5.54686C36.6129 4.89263 37.1277 4.38318 37.782 4.01853C38.4469 3.65387 39.1977 3.47154 40.0342 3.47154C40.7636 3.47154 41.4124 3.61633 41.9809 3.90591C42.56 4.18477 43.0158 4.59769 43.3483 5.14467L42.4957 5.72383C42.2168 5.30555 41.8629 4.99452 41.4339 4.79074C41.0049 4.57623 40.5383 4.46898 40.0342 4.46898C39.4229 4.46898 38.8706 4.60841 38.3772 4.88726C37.8946 5.15539 37.5138 5.5415 37.235 6.04558C36.9668 6.54966 36.8328 7.12346 36.8328 7.76697C36.8328 8.42121 36.9668 9.00036 37.235 9.50445C37.5138 9.9978 37.8946 10.3839 38.3772 10.6628C38.8706 10.9309 39.4229 11.065 40.0342 11.065C40.5383 11.065 41.0049 10.9631 41.4339 10.7593C41.8629 10.5555 42.2168 10.2445 42.4957 9.8262L43.3483 10.4054C43.0158 10.9523 42.56 11.3706 41.9809 11.6602C41.4017 11.9391 40.7528 12.0785 40.0342 12.0785ZM50.6254 11.4832C50.4109 11.6763 50.1427 11.8264 49.821 11.9337C49.51 12.0302 49.1828 12.0785 48.8396 12.0785C48.046 12.0785 47.4346 11.864 47.0056 11.435C46.5766 11.006 46.3621 10.4 46.3621 9.61706V4.50116H44.8499V3.53589H46.3621V1.6858H47.5044V3.53589H50.0784V4.50116H47.5044V9.55271C47.5044 10.0568 47.6277 10.4429 47.8744 10.711C48.1318 10.9684 48.4964 11.0971 48.9683 11.0971C49.2043 11.0971 49.4295 11.0596 49.644 10.9845C49.8693 10.9094 50.0623 10.8022 50.2232 10.6628L50.6254 11.4832ZM60.8406 3.47154C61.9453 3.47154 62.7926 3.7504 63.3825 4.30811C63.9723 4.85509 64.2673 5.6702 64.2673 6.75344V11.998H63.1733V10.6789C62.9159 11.1186 62.5352 11.4618 62.0311 11.7085C61.5377 11.9551 60.9478 12.0785 60.2614 12.0785C59.3176 12.0785 58.5669 11.8533 58.0091 11.4028C57.4514 10.9523 57.1726 10.3571 57.1726 9.61706C57.1726 8.89848 57.43 8.31932 57.9448 7.87958C58.4703 7.43985 59.3015 7.21999 60.4384 7.21999H63.125V6.70518C63.125 5.97587 62.9213 5.42352 62.5137 5.04814C62.1062 4.66204 61.5109 4.46898 60.728 4.46898C60.1917 4.46898 59.6769 4.56015 59.1836 4.74247C58.6902 4.91408 58.2666 5.15539 57.9126 5.46642L57.3978 4.61377C57.8268 4.24912 58.3416 3.97026 58.9422 3.77721C59.5428 3.57343 60.1756 3.47154 60.8406 3.47154ZM60.4384 11.1776C61.0819 11.1776 61.6343 11.0328 62.0954 10.7432C62.5566 10.4429 62.8998 10.0139 63.125 9.45618V8.07264H60.4706C59.0227 8.07264 58.2987 8.57672 58.2987 9.58489C58.2987 10.0782 58.4864 10.4697 58.8618 10.7593C59.2372 11.0381 59.7627 11.1776 60.4384 11.1776ZM76.9052 3.47154C77.6989 3.47154 78.4175 3.65387 79.061 4.01853C79.7045 4.37246 80.2086 4.87654 80.5732 5.53077C80.9379 6.18501 81.1202 6.93041 81.1202 7.76697C81.1202 8.61426 80.9379 9.36502 80.5732 10.0193C80.2086 10.6735 79.7045 11.1829 79.061 11.5476C78.4282 11.9015 77.7096 12.0785 76.9052 12.0785C76.2188 12.0785 75.5967 11.9391 75.039 11.6602C74.492 11.3706 74.0416 10.9523 73.6877 10.4054V15.1191H72.5454V3.53589H73.6394V5.20902C73.9826 4.65131 74.4331 4.2223 74.9908 3.922C75.5592 3.6217 76.1973 3.47154 76.9052 3.47154ZM76.8248 11.065C77.4147 11.065 77.9509 10.9309 78.4335 10.6628C78.9162 10.3839 79.2916 9.99244 79.5597 9.48836C79.8385 8.98428 79.978 8.41048 79.978 7.76697C79.978 7.12346 79.8385 6.55503 79.5597 6.06167C79.2916 5.55759 78.9162 5.16612 78.4335 4.88726C77.9509 4.60841 77.4147 4.46898 76.8248 4.46898C76.2242 4.46898 75.6825 4.60841 75.1999 4.88726C74.728 5.16612 74.3526 5.55759 74.0738 6.06167C73.8056 6.55503 73.6716 7.12346 73.6716 7.76697C73.6716 8.41048 73.8056 8.98428 74.0738 9.48836C74.3526 9.99244 74.728 10.3839 75.1999 10.6628C75.6825 10.9309 76.2242 11.065 76.8248 11.065ZM85.0252 5.19293C85.2934 4.6245 85.6902 4.19549 86.2157 3.90591C86.752 3.61633 87.4116 3.47154 88.1945 3.47154V4.5816L87.921 4.56551C87.0308 4.56551 86.3337 4.839 85.8296 5.38598C85.3255 5.93297 85.0735 6.69982 85.0735 7.68653V11.998H83.9313V3.53589H85.0252V5.19293ZM94.1256 12.0785C93.3105 12.0785 92.5758 11.8962 91.9216 11.5315C91.2674 11.1561 90.7526 10.6413 90.3772 9.98708C90.0018 9.33284 89.8141 8.59281 89.8141 7.76697C89.8141 6.94113 90.0018 6.2011 90.3772 5.54686C90.7526 4.89263 91.2674 4.38318 91.9216 4.01853C92.5758 3.65387 93.3105 3.47154 94.1256 3.47154C94.9407 3.47154 95.6754 3.65387 96.3296 4.01853C96.9839 4.38318 97.4933 4.89263 97.858 5.54686C98.2334 6.2011 98.4211 6.94113 98.4211 7.76697C98.4211 8.59281 98.2334 9.33284 97.858 9.98708C97.4933 10.6413 96.9839 11.1561 96.3296 11.5315C95.6754 11.8962 94.9407 12.0785 94.1256 12.0785ZM94.1256 11.065C94.7262 11.065 95.2625 10.9309 95.7344 10.6628C96.217 10.3839 96.5924 9.99244 96.8605 9.48836C97.1287 8.98428 97.2627 8.41048 97.2627 7.76697C97.2627 7.12346 97.1287 6.54966 96.8605 6.04558C96.5924 5.5415 96.217 5.15539 95.7344 4.88726C95.2625 4.60841 94.7262 4.46898 94.1256 4.46898C93.525 4.46898 92.9834 4.60841 92.5008 4.88726C92.0289 5.15539 91.6535 5.5415 91.3746 6.04558C91.1065 6.54966 90.9724 7.12346 90.9724 7.76697C90.9724 8.41048 91.1065 8.98428 91.3746 9.48836C91.6535 9.99244 92.0289 10.3839 92.5008 10.6628C92.9834 10.9309 93.525 11.065 94.1256 11.065ZM105.595 3.47154C106.389 3.47154 107.108 3.65387 107.751 4.01853C108.395 4.37246 108.899 4.87654 109.263 5.53077C109.628 6.18501 109.81 6.93041 109.81 7.76697C109.81 8.61426 109.628 9.36502 109.263 10.0193C108.899 10.6735 108.395 11.1829 107.751 11.5476C107.118 11.9015 106.4 12.0785 105.595 12.0785C104.909 12.0785 104.287 11.9391 103.729 11.6602C103.182 11.3706 102.732 10.9523 102.378 10.4054V15.1191H101.236V3.53589H102.33V5.20902C102.673 4.65131 103.123 4.2223 103.681 3.922C104.249 3.6217 104.888 3.47154 105.595 3.47154ZM105.515 11.065C106.105 11.065 106.641 10.9309 107.124 10.6628C107.606 10.3839 107.982 9.99244 108.25 9.48836C108.529 8.98428 108.668 8.41048 108.668 7.76697C108.668 7.12346 108.529 6.55503 108.25 6.06167C107.982 5.55759 107.606 5.16612 107.124 4.88726C106.641 4.60841 106.105 4.46898 105.515 4.46898C104.914 4.46898 104.373 4.60841 103.89 4.88726C103.418 5.16612 103.043 5.55759 102.764 6.06167C102.496 6.55503 102.362 7.12346 102.362 7.76697C102.362 8.41048 102.496 8.98428 102.764 9.48836C103.043 9.99244 103.418 10.3839 103.89 10.6628C104.373 10.9309 104.914 11.065 105.515 11.065ZM119.99 8.1209H112.911C112.975 9.00036 113.313 9.71359 113.925 10.2606C114.536 10.7968 115.308 11.065 116.241 11.065C116.767 11.065 117.249 10.9738 117.689 10.7915C118.129 10.5984 118.51 10.3196 118.831 9.9549L119.475 10.6949C119.1 11.1454 118.628 11.4886 118.059 11.7246C117.501 11.9605 116.885 12.0785 116.209 12.0785C115.34 12.0785 114.568 11.8962 113.892 11.5315C113.227 11.1561 112.707 10.6413 112.332 9.98708C111.957 9.33284 111.769 8.59281 111.769 7.76697C111.769 6.94113 111.946 6.2011 112.3 5.54686C112.664 4.89263 113.158 4.38318 113.78 4.01853C114.413 3.65387 115.12 3.47154 115.903 3.47154C116.686 3.47154 117.389 3.65387 118.011 4.01853C118.633 4.38318 119.121 4.89263 119.475 5.54686C119.829 6.19037 120.006 6.93041 120.006 7.76697L119.99 8.1209ZM115.903 4.4529C115.088 4.4529 114.402 4.71566 113.844 5.2412C113.297 5.756 112.986 6.43169 112.911 7.26825H118.912C118.837 6.43169 118.52 5.756 117.963 5.2412C117.416 4.71566 116.729 4.4529 115.903 4.4529ZM123.907 5.19293C124.175 4.6245 124.572 4.19549 125.098 3.90591C125.634 3.61633 126.294 3.47154 127.077 3.47154V4.5816L126.803 4.56551C125.913 4.56551 125.216 4.839 124.712 5.38598C124.208 5.93297 123.956 6.69982 123.956 7.68653V11.998H122.813V3.53589H123.907V5.19293ZM134.445 11.4832C134.231 11.6763 133.962 11.8264 133.641 11.9337C133.33 12.0302 133.002 12.0785 132.659 12.0785C131.866 12.0785 131.254 11.864 130.825 11.435C130.396 11.006 130.182 10.4 130.182 9.61706V4.50116H128.67V3.53589H130.182V1.6858H131.324V3.53589H133.898V4.50116H131.324V9.55271C131.324 10.0568 131.447 10.4429 131.694 10.711C131.951 10.9684 132.316 11.0971 132.788 11.0971C133.024 11.0971 133.249 11.0596 133.464 10.9845C133.689 10.9094 133.882 10.8022 134.043 10.6628L134.445 11.4832ZM143.961 3.53589L139.73 13.0116C139.386 13.8052 138.99 14.3683 138.539 14.7008C138.089 15.0333 137.547 15.1995 136.914 15.1995C136.507 15.1995 136.126 15.1352 135.772 15.0065C135.418 14.8778 135.112 14.6847 134.855 14.4273L135.386 13.5746C135.815 14.0037 136.33 14.2182 136.93 14.2182C137.316 14.2182 137.644 14.1109 137.912 13.8964C138.191 13.6819 138.448 13.3172 138.684 12.8024L139.054 11.982L135.273 3.53589H136.464L139.649 10.7271L142.835 3.53589H143.961ZM6.24131 36.0785C5.4262 36.0785 4.69152 35.8962 4.03729 35.5315C3.38305 35.1561 2.86825 34.6413 2.49287 33.9871C2.11748 33.3328 1.92979 32.5928 1.92979 31.767C1.92979 30.9411 2.11748 30.2011 2.49287 29.5469C2.86825 28.8926 3.38305 28.3832 4.03729 28.0185C4.69152 27.6539 5.4262 27.4715 6.24131 27.4715C7.05642 27.4715 7.7911 27.6539 8.44533 28.0185C9.09957 28.3832 9.60901 28.8926 9.97367 29.5469C10.349 30.2011 10.5367 30.9411 10.5367 31.767C10.5367 32.5928 10.349 33.3328 9.97367 33.9871C9.60901 34.6413 9.09957 35.1561 8.44533 35.5315C7.7911 35.8962 7.05642 36.0785 6.24131 36.0785ZM6.24131 35.065C6.84192 35.065 7.37818 34.9309 7.85008 34.6628C8.33272 34.3839 8.7081 33.9924 8.97623 33.4884C9.24435 32.9843 9.37842 32.4105 9.37842 31.767C9.37842 31.1235 9.24435 30.5497 8.97623 30.0456C8.7081 29.5415 8.33272 29.1554 7.85008 28.8873C7.37818 28.6084 6.84192 28.469 6.24131 28.469C5.6407 28.469 5.09908 28.6084 4.61645 28.8873C4.14454 29.1554 3.76916 29.5415 3.49031 30.0456C3.22218 30.5497 3.08811 31.1235 3.08811 31.767C3.08811 32.4105 3.22218 32.9843 3.49031 33.4884C3.76916 33.9924 4.14454 34.3839 4.61645 34.6628C5.09908 34.9309 5.6407 35.065 6.24131 35.065ZM16.1506 24.9458C15.6572 24.9458 15.2819 25.0798 15.0245 25.348C14.7778 25.6161 14.6544 26.0129 14.6544 26.5385V27.5359H17.2607V28.5012H14.6866V35.998H13.5444V28.5012H12.0321V27.5359H13.5444V26.4902C13.5444 25.718 13.7643 25.1066 14.204 24.6562C14.6544 24.2057 15.2872 23.9805 16.1023 23.9805C16.4241 23.9805 16.7351 24.0288 17.0354 24.1253C17.3357 24.2111 17.5878 24.3398 17.7916 24.5114L17.4054 25.364C17.073 25.0852 16.6547 24.9458 16.1506 24.9458ZM31.0895 27.5359L26.8584 37.0116C26.5152 37.8052 26.1183 38.3683 25.6679 38.7008C25.2174 39.0333 24.6758 39.1995 24.043 39.1995C23.6355 39.1995 23.2547 39.1352 22.9008 39.0065C22.5469 38.8778 22.2412 38.6847 21.9838 38.4273L22.5147 37.5746C22.9437 38.0037 23.4585 38.2182 24.0591 38.2182C24.4452 38.2182 24.7723 38.1109 25.0405 37.8964C25.3193 37.6819 25.5767 37.3172 25.8127 36.8024L26.1827 35.982L22.4021 27.5359H23.5926L26.7779 34.7271L29.9633 27.5359H31.0895ZM36.4039 36.0785C35.5888 36.0785 34.8542 35.8962 34.1999 35.5315C33.5457 35.1561 33.0309 34.6413 32.6555 33.9871C32.2801 33.3328 32.0924 32.5928 32.0924 31.767C32.0924 30.9411 32.2801 30.2011 32.6555 29.5469C33.0309 28.8926 33.5457 28.3832 34.1999 28.0185C34.8542 27.6539 35.5888 27.4715 36.4039 27.4715C37.219 27.4715 37.9537 27.6539 38.608 28.0185C39.2622 28.3832 39.7716 28.8926 40.1363 29.5469C40.5117 30.2011 40.6994 30.9411 40.6994 31.767C40.6994 32.5928 40.5117 33.3328 40.1363 33.9871C39.7716 34.6413 39.2622 35.1561 38.608 35.5315C37.9537 35.8962 37.219 36.0785 36.4039 36.0785ZM36.4039 35.065C37.0045 35.065 37.5408 34.9309 38.0127 34.6628C38.4953 34.3839 38.8707 33.9924 39.1389 33.4884C39.407 32.9843 39.541 32.4105 39.541 31.767C39.541 31.1235 39.407 30.5497 39.1389 30.0456C38.8707 29.5415 38.4953 29.1554 38.0127 28.8873C37.5408 28.6084 37.0045 28.469 36.4039 28.469C35.8033 28.469 35.2617 28.6084 34.7791 28.8873C34.3072 29.1554 33.9318 29.5415 33.6529 30.0456C33.3848 30.5497 33.2507 31.1235 33.2507 31.767C33.2507 32.4105 33.3848 32.9843 33.6529 33.4884C33.9318 33.9924 34.3072 34.3839 34.7791 34.6628C35.2617 34.9309 35.8033 35.065 36.4039 35.065ZM51.1396 27.5359V35.998H50.0456V34.4536C49.7453 34.9684 49.3324 35.3706 48.8068 35.6602C48.2813 35.9391 47.6807 36.0785 47.005 36.0785C45.9003 36.0785 45.0262 35.7728 44.3827 35.1615C43.7499 34.5394 43.4335 33.6331 43.4335 32.4427V27.5359H44.5758V32.33C44.5758 33.2202 44.7956 33.8959 45.2354 34.3571C45.6751 34.8183 46.3025 35.0489 47.1176 35.0489C48.0078 35.0489 48.7103 34.7807 49.2251 34.2445C49.7399 33.6975 49.9973 32.9414 49.9973 31.9761V27.5359H51.1396ZM55.9152 29.1929C56.1834 28.6245 56.5802 28.1955 57.1057 27.9059C57.642 27.6163 58.3016 27.4715 59.0845 27.4715V28.5816L58.811 28.5655C57.9208 28.5655 57.2237 28.839 56.7196 29.386C56.2155 29.933 55.9635 30.6998 55.9635 31.6865V35.998H54.8213V27.5359H55.9152V29.1929ZM69.9612 36.0785C69.1246 36.0785 68.3739 35.8962 67.7089 35.5315C67.0547 35.1668 66.5399 34.6574 66.1645 34.0032C65.7891 33.3382 65.6014 32.5928 65.6014 31.767C65.6014 30.9411 65.7891 30.2011 66.1645 29.5469C66.5399 28.8926 67.0547 28.3832 67.7089 28.0185C68.3739 27.6539 69.1246 27.4715 69.9612 27.4715C70.6905 27.4715 71.3394 27.6163 71.9078 27.9059C72.487 28.1848 72.9428 28.5977 73.2753 29.1447L72.4226 29.7238C72.1438 29.3055 71.7899 28.9945 71.3608 28.7907C70.9318 28.5762 70.4653 28.469 69.9612 28.469C69.3499 28.469 68.7975 28.6084 68.3042 28.8873C67.8215 29.1554 67.4408 29.5415 67.1619 30.0456C66.8938 30.5497 66.7598 31.1235 66.7598 31.767C66.7598 32.4212 66.8938 33.0004 67.1619 33.5044C67.4408 33.9978 67.8215 34.3839 68.3042 34.6628C68.7975 34.9309 69.3499 35.065 69.9612 35.065C70.4653 35.065 70.9318 34.9631 71.3608 34.7593C71.7899 34.5555 72.1438 34.2445 72.4226 33.8262L73.2753 34.4054C72.9428 34.9523 72.487 35.3706 71.9078 35.6602C71.3287 35.9391 70.6798 36.0785 69.9612 36.0785ZM80.1876 27.4715C81.2494 27.4715 82.0913 27.7826 82.7134 28.4046C83.3462 29.016 83.6626 29.9115 83.6626 31.0913V35.998H82.5203V31.2039C82.5203 30.3244 82.3005 29.6541 81.8607 29.1929C81.421 28.7317 80.7936 28.5012 79.9785 28.5012C79.0668 28.5012 78.3429 28.7747 77.8066 29.3216C77.2811 29.8579 77.0183 30.6033 77.0183 31.5578V35.998H75.8761V24.0609H77.0183V29.016C77.3294 28.5226 77.7584 28.1419 78.3053 27.8737C78.8523 27.6056 79.4798 27.4715 80.1876 27.4715ZM90.7365 36.0785C89.9214 36.0785 89.1867 35.8962 88.5325 35.5315C87.8783 35.1561 87.3635 34.6413 86.9881 33.9871C86.6127 33.3328 86.425 32.5928 86.425 31.767C86.425 30.9411 86.6127 30.2011 86.9881 29.5469C87.3635 28.8926 87.8783 28.3832 88.5325 28.0185C89.1867 27.6539 89.9214 27.4715 90.7365 27.4715C91.5516 27.4715 92.2863 27.6539 92.9405 28.0185C93.5948 28.3832 94.1042 28.8926 94.4689 29.5469C94.8443 30.2011 95.0319 30.9411 95.0319 31.767C95.0319 32.5928 94.8443 33.3328 94.4689 33.9871C94.1042 34.6413 93.5948 35.1561 92.9405 35.5315C92.2863 35.8962 91.5516 36.0785 90.7365 36.0785ZM90.7365 35.065C91.3371 35.065 91.8734 34.9309 92.3453 34.6628C92.8279 34.3839 93.2033 33.9924 93.4714 33.4884C93.7396 32.9843 93.8736 32.4105 93.8736 31.767C93.8736 31.1235 93.7396 30.5497 93.4714 30.0456C93.2033 29.5415 92.8279 29.1554 92.3453 28.8873C91.8734 28.6084 91.3371 28.469 90.7365 28.469C90.1359 28.469 89.5943 28.6084 89.1117 28.8873C88.6397 29.1554 88.2644 29.5415 87.9855 30.0456C87.7174 30.5497 87.5833 31.1235 87.5833 31.767C87.5833 32.4105 87.7174 32.9843 87.9855 33.4884C88.2644 33.9924 88.6397 34.3839 89.1117 34.6628C89.5943 34.9309 90.1359 35.065 90.7365 35.065ZM97.8465 27.5359H98.9888V35.998H97.8465V27.5359ZM98.4257 25.6858C98.1898 25.6858 97.9913 25.6054 97.8305 25.4445C97.6696 25.2836 97.5891 25.0906 97.5891 24.8653C97.5891 24.6508 97.6696 24.4631 97.8305 24.3023C97.9913 24.1414 98.1898 24.0609 98.4257 24.0609C98.6617 24.0609 98.8601 24.1414 99.021 24.3023C99.1818 24.4524 99.2623 24.6347 99.2623 24.8492C99.2623 25.0852 99.1818 25.2836 99.021 25.4445C98.8601 25.6054 98.6617 25.6858 98.4257 25.6858ZM106.157 36.0785C105.32 36.0785 104.569 35.8962 103.904 35.5315C103.25 35.1668 102.735 34.6574 102.36 34.0032C101.985 33.3382 101.797 32.5928 101.797 31.767C101.797 30.9411 101.985 30.2011 102.36 29.5469C102.735 28.8926 103.25 28.3832 103.904 28.0185C104.569 27.6539 105.32 27.4715 106.157 27.4715C106.886 27.4715 107.535 27.6163 108.103 27.9059C108.683 28.1848 109.138 28.5977 109.471 29.1447L108.618 29.7238C108.339 29.3055 107.985 28.9945 107.556 28.7907C107.127 28.5762 106.661 28.469 106.157 28.469C105.545 28.469 104.993 28.6084 104.5 28.8873C104.017 29.1554 103.636 29.5415 103.357 30.0456C103.089 30.5497 102.955 31.1235 102.955 31.767C102.955 32.4212 103.089 33.0004 103.357 33.5044C103.636 33.9978 104.017 34.3839 104.5 34.6628C104.993 34.9309 105.545 35.065 106.157 35.065C106.661 35.065 107.127 34.9631 107.556 34.7593C107.985 34.5555 108.339 34.2445 108.618 33.8262L109.471 34.4054C109.138 34.9523 108.683 35.3706 108.103 35.6602C107.524 35.9391 106.875 36.0785 106.157 36.0785ZM119.424 32.1209H112.345C112.41 33.0004 112.748 33.7136 113.359 34.2606C113.97 34.7968 114.743 35.065 115.676 35.065C116.201 35.065 116.684 34.9738 117.124 34.7915C117.563 34.5984 117.944 34.3196 118.266 33.9549L118.909 34.6949C118.534 35.1454 118.062 35.4886 117.494 35.7246C116.936 35.9605 116.319 36.0785 115.643 36.0785C114.775 36.0785 114.003 35.8962 113.327 35.5315C112.662 35.1561 112.142 34.6413 111.766 33.9871C111.391 33.3328 111.203 32.5928 111.203 31.767C111.203 30.9411 111.38 30.2011 111.734 29.5469C112.099 28.8926 112.592 28.3832 113.214 28.0185C113.847 27.6539 114.555 27.4715 115.338 27.4715C116.121 27.4715 116.823 27.6539 117.445 28.0185C118.067 28.3832 118.555 28.8926 118.909 29.5469C119.263 30.1904 119.44 30.9304 119.44 31.767L119.424 32.1209ZM115.338 28.4529C114.523 28.4529 113.836 28.7157 113.279 29.2412C112.732 29.756 112.421 30.4317 112.345 31.2683H118.346C118.271 30.4317 117.955 29.756 117.397 29.2412C116.85 28.7157 116.164 28.4529 115.338 28.4529ZM131.397 35.4832C131.183 35.6763 130.915 35.8264 130.593 35.9337C130.282 36.0302 129.955 36.0785 129.611 36.0785C128.818 36.0785 128.206 35.864 127.777 35.435C127.348 35.006 127.134 34.4 127.134 33.6171V28.5012H125.622V27.5359H127.134V25.6858H128.276V27.5359H130.85V28.5012H128.276V33.5527C128.276 34.0568 128.399 34.4429 128.646 34.711C128.904 34.9684 129.268 35.0971 129.74 35.0971C129.976 35.0971 130.201 35.0596 130.416 34.9845C130.641 34.9094 130.834 34.8022 130.995 34.6628L131.397 35.4832ZM137.119 36.0785C136.304 36.0785 135.57 35.8962 134.915 35.5315C134.261 35.1561 133.746 34.6413 133.371 33.9871C132.996 33.3328 132.808 32.5928 132.808 31.767C132.808 30.9411 132.996 30.2011 133.371 29.5469C133.746 28.8926 134.261 28.3832 134.915 28.0185C135.57 27.6539 136.304 27.4715 137.119 27.4715C137.935 27.4715 138.669 27.6539 139.324 28.0185C139.978 28.3832 140.487 28.8926 140.852 29.5469C141.227 30.2011 141.415 30.9411 141.415 31.767C141.415 32.5928 141.227 33.3328 140.852 33.9871C140.487 34.6413 139.978 35.1561 139.324 35.5315C138.669 35.8962 137.935 36.0785 137.119 36.0785ZM137.119 35.065C137.72 35.065 138.256 34.9309 138.728 34.6628C139.211 34.3839 139.586 33.9924 139.854 33.4884C140.123 32.9843 140.257 32.4105 140.257 31.767C140.257 31.1235 140.123 30.5497 139.854 30.0456C139.586 29.5415 139.211 29.1554 138.728 28.8873C138.256 28.6084 137.72 28.469 137.119 28.469C136.519 28.469 135.977 28.6084 135.495 28.8873C135.023 29.1554 134.647 29.5415 134.368 30.0456C134.1 30.5497 133.966 31.1235 133.966 31.767C133.966 32.4105 134.1 32.9843 134.368 33.4884C134.647 33.9924 135.023 34.3839 135.495 34.6628C135.977 34.9309 136.519 35.065 137.119 35.065ZM38.041 51.5359H39.1832V59.998H38.041V51.5359ZM38.6202 49.6858C38.3842 49.6858 38.1858 49.6054 38.0249 49.4445C37.864 49.2836 37.7836 49.0906 37.7836 48.8653C37.7836 48.6508 37.864 48.4631 38.0249 48.3023C38.1858 48.1414 38.3842 48.0609 38.6202 48.0609C38.8561 48.0609 39.0545 48.1414 39.2154 48.3023C39.3763 48.4524 39.4567 48.6347 39.4567 48.8492C39.4567 49.0852 39.3763 49.2836 39.2154 49.4445C39.0545 49.6054 38.8561 49.6858 38.6202 49.6858ZM47.1556 51.4715C48.2174 51.4715 49.0593 51.7826 49.6814 52.4046C50.3141 53.016 50.6305 53.9115 50.6305 55.0913V59.998H49.4883V55.2039C49.4883 54.3244 49.2684 53.6541 48.8287 53.1929C48.389 52.7317 47.7616 52.5012 46.9464 52.5012C46.0348 52.5012 45.3109 52.7747 44.7746 53.3216C44.2491 53.8579 43.9863 54.6033 43.9863 55.5578V59.998H42.8441V51.5359H43.938V53.0964C44.2491 52.5816 44.6781 52.1848 45.225 51.9059C45.7828 51.6163 46.4263 51.4715 47.1556 51.4715ZM61.1679 51.5359L57.4033 59.998H56.2289L52.4805 51.5359H53.671L56.8403 58.7432L60.0417 51.5359H61.1679ZM70.3917 56.1209H63.3131C63.3774 57.0004 63.7153 57.7136 64.3266 58.2606C64.9379 58.7968 65.7101 59.065 66.6432 59.065C67.1688 59.065 67.6514 58.9738 68.0911 58.7915C68.5309 58.5984 68.9116 58.3196 69.2334 57.9549L69.8769 58.6949C69.5015 59.1454 69.0296 59.4886 68.4612 59.7246C67.9034 59.9605 67.2867 60.0785 66.6111 60.0785C65.7423 60.0785 64.9701 59.8962 64.2944 59.5315C63.6295 59.1561 63.1093 58.6413 62.7339 57.9871C62.3585 57.3328 62.1708 56.5928 62.1708 55.767C62.1708 54.9411 62.3478 54.2011 62.7017 53.5469C63.0664 52.8926 63.5598 52.3832 64.1818 52.0185C64.8146 51.6539 65.5225 51.4715 66.3054 51.4715C67.0883 51.4715 67.7908 51.6539 68.4129 52.0185C69.0349 52.3832 69.5229 52.8926 69.8769 53.5469C70.2308 54.1904 70.4078 54.9304 70.4078 55.767L70.3917 56.1209ZM66.3054 52.4529C65.4903 52.4529 64.8039 52.7157 64.2462 53.2412C63.6992 53.756 63.3882 54.4317 63.3131 55.2683H69.3138C69.2387 54.4317 68.9223 53.756 68.3646 53.2412C67.8176 52.7157 67.1312 52.4529 66.3054 52.4529ZM75.4837 60.0785C74.7973 60.0785 74.1377 59.982 73.5049 59.7889C72.8829 59.5851 72.3949 59.3331 72.0409 59.0328L72.5557 58.1319C72.9097 58.4107 73.3548 58.6413 73.891 58.8236C74.4273 58.9952 74.985 59.081 75.5641 59.081C76.3364 59.081 76.9048 58.9631 77.2694 58.7271C77.6448 58.4804 77.8325 58.1372 77.8325 57.6975C77.8325 57.3865 77.7306 57.1452 77.5269 56.9736C77.3231 56.7912 77.0657 56.6572 76.7546 56.5714C76.4436 56.4748 76.0307 56.3837 75.5159 56.2979C74.8295 56.1692 74.2771 56.0405 73.8588 55.9118C73.4406 55.7723 73.0813 55.5417 72.781 55.22C72.4914 54.8982 72.3466 54.4531 72.3466 53.8847C72.3466 53.1768 72.6415 52.5977 73.2314 52.1472C73.8213 51.6968 74.6418 51.4715 75.6928 51.4715C76.2398 51.4715 76.7868 51.5466 77.3338 51.6968C77.8808 51.8362 78.3312 52.0239 78.6852 52.2598L78.1864 53.1768C77.4893 52.6942 76.6581 52.4529 75.6928 52.4529C74.9635 52.4529 74.4112 52.5816 74.0358 52.839C73.6712 53.0964 73.4888 53.4342 73.4888 53.8525C73.4888 54.1743 73.5907 54.4317 73.7945 54.6247C74.009 54.8178 74.2718 54.9626 74.5828 55.0591C74.8938 55.1449 75.3228 55.2361 75.8698 55.3326C76.5455 55.4613 77.0871 55.59 77.4947 55.7187C77.9022 55.8474 78.2508 56.0673 78.5404 56.3783C78.83 56.6893 78.9747 57.1183 78.9747 57.6653C78.9747 58.4054 78.6637 58.9952 78.0417 59.435C77.4303 59.864 76.5777 60.0785 75.4837 60.0785ZM86.0253 59.4832C85.8108 59.6763 85.5427 59.8264 85.2209 59.9337C84.9099 60.0302 84.5828 60.0785 84.2396 60.0785C83.4459 60.0785 82.8346 59.864 82.4056 59.435C81.9766 59.006 81.7621 58.4 81.7621 57.6171V52.5012H80.2498V51.5359H81.7621V49.6858H82.9043V51.5359H85.4783V52.5012H82.9043V57.5527C82.9043 58.0568 83.0276 58.4429 83.2743 58.711C83.5317 58.9684 83.8964 59.0971 84.3683 59.0971C84.6042 59.0971 84.8295 59.0596 85.044 58.9845C85.2692 58.9094 85.4623 58.8022 85.6231 58.6628L86.0253 59.4832ZM93.2804 51.5359H94.4226V59.998H93.2804V51.5359ZM93.8596 49.6858C93.6236 49.6858 93.4252 49.6054 93.2643 49.4445C93.1034 49.2836 93.023 49.0906 93.023 48.8653C93.023 48.6508 93.1034 48.4631 93.2643 48.3023C93.4252 48.1414 93.6236 48.0609 93.8596 48.0609C94.0955 48.0609 94.2939 48.1414 94.4548 48.3023C94.6157 48.4524 94.6961 48.6347 94.6961 48.8492C94.6961 49.0852 94.6157 49.2836 94.4548 49.4445C94.2939 49.6054 94.0955 49.6858 93.8596 49.6858ZM102.395 51.4715C103.457 51.4715 104.299 51.7826 104.921 52.4046C105.554 53.016 105.87 53.9115 105.87 55.0913V59.998H104.728V55.2039C104.728 54.3244 104.508 53.6541 104.068 53.1929C103.628 52.7317 103.001 52.5012 102.186 52.5012C101.274 52.5012 100.55 52.7747 100.014 53.3216C99.4885 53.8579 99.2257 54.6033 99.2257 55.5578V59.998H98.0835V51.5359H99.1774V53.0964C99.4885 52.5816 99.9175 52.1848 100.464 51.9059C101.022 51.6163 101.666 51.4715 102.395 51.4715Z" fill="black"/>
</svg>
