<svg width="215" height="91" viewBox="0 0 215 91" fill="none" xmlns="http://www.w3.org/2000/svg">
<path d="M6.64253 18.144C5.39453 18.144 4.19453 17.944 3.04253 17.544C1.90653 17.144 1.02653 16.616 0.402529 15.96L1.09853 14.592C1.70653 15.2 2.51453 15.696 3.52253 16.08C4.53053 16.448 5.57053 16.632 6.64253 16.632C8.14653 16.632 9.27453 16.36 10.0265 15.816C10.7785 15.256 11.1545 14.536 11.1545 13.656C11.1545 12.984 10.9465 12.448 10.5305 12.048C10.1305 11.648 9.63453 11.344 9.04253 11.136C8.45053 10.912 7.62653 10.672 6.57053 10.416C5.30653 10.096 4.29853 9.792 3.54653 9.504C2.79453 9.2 2.14653 8.744 1.60253 8.136C1.07453 7.528 0.810529 6.704 0.810529 5.664C0.810529 4.816 1.03453 4.048 1.48253 3.36C1.93053 2.656 2.61853 2.096 3.54653 1.68C4.47453 1.264 5.62653 1.056 7.00253 1.056C7.96253 1.056 8.89853 1.192 9.81053 1.464C10.7385 1.72 11.5385 2.08 12.2105 2.544L11.6105 3.96C10.9065 3.496 10.1545 3.152 9.35453 2.928C8.55453 2.688 7.77053 2.568 7.00253 2.568C5.53053 2.568 4.41853 2.856 3.66653 3.432C2.93053 3.992 2.56253 4.72 2.56253 5.616C2.56253 6.288 2.76253 6.832 3.16253 7.248C3.57853 7.648 4.09053 7.96 4.69853 8.184C5.32253 8.392 6.15453 8.624 7.19453 8.88C8.42653 9.184 9.41853 9.488 10.1705 9.792C10.9385 10.08 11.5865 10.528 12.1145 11.136C12.6425 11.728 12.9065 12.536 12.9065 13.56C12.9065 14.408 12.6745 15.184 12.2105 15.888C11.7625 16.576 11.0665 17.128 10.1225 17.544C9.17853 17.944 8.01853 18.144 6.64253 18.144ZM28.1282 12.216H17.5682C17.6642 13.528 18.1682 14.592 19.0802 15.408C19.9922 16.208 21.1442 16.608 22.5362 16.608C23.3202 16.608 24.0402 16.472 24.6962 16.2C25.3522 15.912 25.9202 15.496 26.4002 14.952L27.3602 16.056C26.8002 16.728 26.0962 17.24 25.2482 17.592C24.4162 17.944 23.4962 18.12 22.4882 18.12C21.1922 18.12 20.0402 17.848 19.0322 17.304C18.0402 16.744 17.2642 15.976 16.7042 15C16.1442 14.024 15.8642 12.92 15.8642 11.688C15.8642 10.456 16.1282 9.352 16.6562 8.376C17.2002 7.4 17.9362 6.64 18.8642 6.096C19.8082 5.552 20.8642 5.28 22.0322 5.28C23.2002 5.28 24.2482 5.552 25.1762 6.096C26.1042 6.64 26.8322 7.4 27.3602 8.376C27.8882 9.336 28.1522 10.44 28.1522 11.688L28.1282 12.216ZM22.0322 6.744C20.8162 6.744 19.7922 7.136 18.9602 7.92C18.1442 8.688 17.6802 9.696 17.5682 10.944H26.5202C26.4082 9.696 25.9362 8.688 25.1042 7.92C24.2882 7.136 23.2642 6.744 22.0322 6.744ZM32.3405 0.191999H34.0445V18H32.3405V0.191999ZM50.4978 12.216H39.9378C40.0338 13.528 40.5378 14.592 41.4498 15.408C42.3618 16.208 43.5138 16.608 44.9058 16.608C45.6898 16.608 46.4098 16.472 47.0658 16.2C47.7218 15.912 48.2898 15.496 48.7698 14.952L49.7298 16.056C49.1698 16.728 48.4658 17.24 47.6178 17.592C46.7858 17.944 45.8658 18.12 44.8578 18.12C43.5618 18.12 42.4098 17.848 41.4018 17.304C40.4098 16.744 39.6338 15.976 39.0738 15C38.5138 14.024 38.2338 12.92 38.2338 11.688C38.2338 10.456 38.4978 9.352 39.0258 8.376C39.5698 7.4 40.3058 6.64 41.2338 6.096C42.1778 5.552 43.2338 5.28 44.4018 5.28C45.5698 5.28 46.6178 5.552 47.5458 6.096C48.4738 6.64 49.2018 7.4 49.7298 8.376C50.2578 9.336 50.5218 10.44 50.5218 11.688L50.4978 12.216ZM44.4018 6.744C43.1858 6.744 42.1618 7.136 41.3298 7.92C40.5138 8.688 40.0498 9.696 39.9378 10.944H48.8898C48.7778 9.696 48.3058 8.688 47.4738 7.92C46.6578 7.136 45.6338 6.744 44.4018 6.744ZM59.9422 18.12C58.6942 18.12 57.5742 17.848 56.5822 17.304C55.6062 16.76 54.8382 16 54.2782 15.024C53.7182 14.032 53.4382 12.92 53.4382 11.688C53.4382 10.456 53.7182 9.352 54.2782 8.376C54.8382 7.4 55.6062 6.64 56.5822 6.096C57.5742 5.552 58.6942 5.28 59.9422 5.28C61.0302 5.28 61.9982 5.496 62.8462 5.928C63.7102 6.344 64.3902 6.96 64.8862 7.776L63.6142 8.64C63.1982 8.016 62.6702 7.552 62.0302 7.248C61.3902 6.928 60.6942 6.768 59.9422 6.768C59.0302 6.768 58.2062 6.976 57.4702 7.392C56.7502 7.792 56.1822 8.368 55.7662 9.12C55.3662 9.872 55.1662 10.728 55.1662 11.688C55.1662 12.664 55.3662 13.528 55.7662 14.28C56.1822 15.016 56.7502 15.592 57.4702 16.008C58.2062 16.408 59.0302 16.608 59.9422 16.608C60.6942 16.608 61.3902 16.456 62.0302 16.152C62.6702 15.848 63.1982 15.384 63.6142 14.76L64.8862 15.624C64.3902 16.44 63.7102 17.064 62.8462 17.496C61.9822 17.912 61.0142 18.12 59.9422 18.12ZM75.7423 17.232C75.4223 17.52 75.0223 17.744 74.5423 17.904C74.0783 18.048 73.5903 18.12 73.0783 18.12C71.8943 18.12 70.9823 17.8 70.3423 17.16C69.7023 16.52 69.3823 15.616 69.3823 14.448V6.816H67.1263V5.376H69.3823V2.616H71.0863V5.376H74.9263V6.816H71.0863V14.352C71.0863 15.104 71.2703 15.68 71.6383 16.08C72.0223 16.464 72.5663 16.656 73.2703 16.656C73.6223 16.656 73.9583 16.6 74.2783 16.488C74.6143 16.376 74.9023 16.216 75.1423 16.008L75.7423 17.232ZM90.9815 5.28C92.6295 5.28 93.8935 5.696 94.7735 6.528C95.6535 7.344 96.0935 8.56 96.0935 10.176V18H94.4615V16.032C94.0775 16.688 93.5095 17.2 92.7575 17.568C92.0215 17.936 91.1415 18.12 90.1175 18.12C88.7095 18.12 87.5895 17.784 86.7575 17.112C85.9255 16.44 85.5095 15.552 85.5095 14.448C85.5095 13.376 85.8935 12.512 86.6615 11.856C87.4455 11.2 88.6855 10.872 90.3815 10.872H94.3895V10.104C94.3895 9.016 94.0855 8.192 93.4775 7.632C92.8695 7.056 91.9815 6.768 90.8135 6.768C90.0135 6.768 89.2455 6.904 88.5095 7.176C87.7735 7.432 87.1415 7.792 86.6135 8.256L85.8455 6.984C86.4855 6.44 87.2535 6.024 88.1495 5.736C89.0455 5.432 89.9895 5.28 90.9815 5.28ZM90.3815 16.776C91.3415 16.776 92.1655 16.56 92.8535 16.128C93.5415 15.68 94.0535 15.04 94.3895 14.208V12.144H90.4295C88.2695 12.144 87.1895 12.896 87.1895 14.4C87.1895 15.136 87.4695 15.72 88.0295 16.152C88.5895 16.568 89.3735 16.776 90.3815 16.776ZM114.947 5.28C116.131 5.28 117.203 5.552 118.163 6.096C119.123 6.624 119.875 7.376 120.419 8.352C120.963 9.328 121.235 10.44 121.235 11.688C121.235 12.952 120.963 14.072 120.419 15.048C119.875 16.024 119.123 16.784 118.163 17.328C117.219 17.856 116.147 18.12 114.947 18.12C113.923 18.12 112.995 17.912 112.163 17.496C111.347 17.064 110.675 16.44 110.147 15.624V22.656H108.443V5.376H110.075V7.872C110.587 7.04 111.259 6.4 112.091 5.952C112.939 5.504 113.891 5.28 114.947 5.28ZM114.827 16.608C115.707 16.608 116.507 16.408 117.227 16.008C117.947 15.592 118.507 15.008 118.907 14.256C119.323 13.504 119.531 12.648 119.531 11.688C119.531 10.728 119.323 9.88 118.907 9.144C118.507 8.392 117.947 7.808 117.227 7.392C116.507 6.976 115.707 6.768 114.827 6.768C113.931 6.768 113.123 6.976 112.403 7.392C111.699 7.808 111.139 8.392 110.723 9.144C110.323 9.88 110.123 10.728 110.123 11.688C110.123 12.648 110.323 13.504 110.723 14.256C111.139 15.008 111.699 15.592 112.403 16.008C113.123 16.408 113.931 16.608 114.827 16.608ZM127.061 7.848C127.461 7 128.053 6.36 128.837 5.928C129.637 5.496 130.621 5.28 131.789 5.28V6.936L131.381 6.912C130.053 6.912 129.013 7.32 128.261 8.136C127.509 8.952 127.133 10.096 127.133 11.568V18H125.429V5.376H127.061V7.848ZM140.637 18.12C139.421 18.12 138.325 17.848 137.349 17.304C136.373 16.744 135.605 15.976 135.045 15C134.485 14.024 134.205 12.92 134.205 11.688C134.205 10.456 134.485 9.352 135.045 8.376C135.605 7.4 136.373 6.64 137.349 6.096C138.325 5.552 139.421 5.28 140.637 5.28C141.853 5.28 142.949 5.552 143.925 6.096C144.901 6.64 145.661 7.4 146.205 8.376C146.765 9.352 147.045 10.456 147.045 11.688C147.045 12.92 146.765 14.024 146.205 15C145.661 15.976 144.901 16.744 143.925 17.304C142.949 17.848 141.853 18.12 140.637 18.12ZM140.637 16.608C141.533 16.608 142.333 16.408 143.037 16.008C143.757 15.592 144.317 15.008 144.717 14.256C145.117 13.504 145.317 12.648 145.317 11.688C145.317 10.728 145.117 9.872 144.717 9.12C144.317 8.368 143.757 7.792 143.037 7.392C142.333 6.976 141.533 6.768 140.637 6.768C139.741 6.768 138.933 6.976 138.213 7.392C137.509 7.792 136.949 8.368 136.533 9.12C136.133 9.872 135.933 10.728 135.933 11.688C135.933 12.648 136.133 13.504 136.533 14.256C136.949 15.008 137.509 15.592 138.213 16.008C138.933 16.408 139.741 16.608 140.637 16.608ZM157.748 5.28C158.932 5.28 160.004 5.552 160.964 6.096C161.924 6.624 162.676 7.376 163.22 8.352C163.764 9.328 164.036 10.44 164.036 11.688C164.036 12.952 163.764 14.072 163.22 15.048C162.676 16.024 161.924 16.784 160.964 17.328C160.02 17.856 158.948 18.12 157.748 18.12C156.724 18.12 155.796 17.912 154.964 17.496C154.148 17.064 153.476 16.44 152.948 15.624V22.656H151.244V5.376H152.876V7.872C153.388 7.04 154.06 6.4 154.892 5.952C155.74 5.504 156.692 5.28 157.748 5.28ZM157.628 16.608C158.508 16.608 159.308 16.408 160.028 16.008C160.748 15.592 161.308 15.008 161.708 14.256C162.124 13.504 162.332 12.648 162.332 11.688C162.332 10.728 162.124 9.88 161.708 9.144C161.308 8.392 160.748 7.808 160.028 7.392C159.308 6.976 158.508 6.768 157.628 6.768C156.732 6.768 155.924 6.976 155.204 7.392C154.5 7.808 153.94 8.392 153.524 9.144C153.124 9.88 152.924 10.728 152.924 11.688C152.924 12.648 153.124 13.504 153.524 14.256C153.94 15.008 154.5 15.592 155.204 16.008C155.924 16.408 156.732 16.608 157.628 16.608ZM179.221 12.216H168.661C168.757 13.528 169.261 14.592 170.173 15.408C171.085 16.208 172.237 16.608 173.629 16.608C174.413 16.608 175.133 16.472 175.789 16.2C176.445 15.912 177.013 15.496 177.493 14.952L178.453 16.056C177.893 16.728 177.189 17.24 176.341 17.592C175.509 17.944 174.589 18.12 173.581 18.12C172.285 18.12 171.133 17.848 170.125 17.304C169.133 16.744 168.357 15.976 167.797 15C167.237 14.024 166.957 12.92 166.957 11.688C166.957 10.456 167.221 9.352 167.749 8.376C168.293 7.4 169.029 6.64 169.957 6.096C170.901 5.552 171.957 5.28 173.125 5.28C174.293 5.28 175.341 5.552 176.269 6.096C177.197 6.64 177.925 7.4 178.453 8.376C178.981 9.336 179.245 10.44 179.245 11.688L179.221 12.216ZM173.125 6.744C171.909 6.744 170.885 7.136 170.053 7.92C169.237 8.688 168.773 9.696 168.661 10.944H177.613C177.501 9.696 177.029 8.688 176.197 7.92C175.381 7.136 174.357 6.744 173.125 6.744ZM185.066 7.848C185.466 7 186.058 6.36 186.842 5.928C187.642 5.496 188.626 5.28 189.794 5.28V6.936L189.386 6.912C188.058 6.912 187.018 7.32 186.266 8.136C185.514 8.952 185.138 10.096 185.138 11.568V18H183.434V5.376H185.066V7.848ZM200.786 17.232C200.466 17.52 200.066 17.744 199.586 17.904C199.122 18.048 198.634 18.12 198.122 18.12C196.938 18.12 196.026 17.8 195.386 17.16C194.746 16.52 194.426 15.616 194.426 14.448V6.816H192.17V5.376H194.426V2.616H196.13V5.376H199.97V6.816H196.13V14.352C196.13 15.104 196.314 15.68 196.682 16.08C197.066 16.464 197.61 16.656 198.314 16.656C198.666 16.656 199.002 16.6 199.322 16.488C199.658 16.376 199.946 16.216 200.186 16.008L200.786 17.232ZM214.982 5.376L208.67 19.512C208.158 20.696 207.566 21.536 206.894 22.032C206.222 22.528 205.414 22.776 204.47 22.776C203.862 22.776 203.294 22.68 202.766 22.488C202.238 22.296 201.782 22.008 201.398 21.624L202.19 20.352C202.83 20.992 203.598 21.312 204.494 21.312C205.07 21.312 205.558 21.152 205.958 20.832C206.374 20.512 206.758 19.968 207.11 19.2L207.662 17.976L202.022 5.376H203.798L208.55 16.104L213.302 5.376H214.982ZM9.52928 54.12C8.31328 54.12 7.21728 53.848 6.24128 53.304C5.26528 52.744 4.49728 51.976 3.93728 51C3.37728 50.024 3.09728 48.92 3.09728 47.688C3.09728 46.456 3.37728 45.352 3.93728 44.376C4.49728 43.4 5.26528 42.64 6.24128 42.096C7.21728 41.552 8.31328 41.28 9.52928 41.28C10.7453 41.28 11.8413 41.552 12.8173 42.096C13.7933 42.64 14.5533 43.4 15.0973 44.376C15.6573 45.352 15.9373 46.456 15.9373 47.688C15.9373 48.92 15.6573 50.024 15.0973 51C14.5533 51.976 13.7933 52.744 12.8173 53.304C11.8413 53.848 10.7453 54.12 9.52928 54.12ZM9.52928 52.608C10.4253 52.608 11.2253 52.408 11.9293 52.008C12.6493 51.592 13.2093 51.008 13.6093 50.256C14.0093 49.504 14.2093 48.648 14.2093 47.688C14.2093 46.728 14.0093 45.872 13.6093 45.12C13.2093 44.368 12.6493 43.792 11.9293 43.392C11.2253 42.976 10.4253 42.768 9.52928 42.768C8.63328 42.768 7.82528 42.976 7.10528 43.392C6.40128 43.792 5.84128 44.368 5.42528 45.12C5.02528 45.872 4.82528 46.728 4.82528 47.688C4.82528 48.648 5.02528 49.504 5.42528 50.256C5.84128 51.008 6.40128 51.592 7.10528 52.008C7.82528 52.408 8.63328 52.608 9.52928 52.608ZM24.3122 37.512C23.5762 37.512 23.0162 37.712 22.6322 38.112C22.2642 38.512 22.0802 39.104 22.0802 39.888V41.376H25.9682V42.816H22.1282V54H20.4242V42.816H18.1682V41.376H20.4242V39.816C20.4242 38.664 20.7522 37.752 21.4082 37.08C22.0802 36.408 23.0242 36.072 24.2402 36.072C24.7202 36.072 25.1842 36.144 25.6322 36.288C26.0802 36.416 26.4562 36.608 26.7602 36.864L26.1842 38.136C25.6882 37.72 25.0642 37.512 24.3122 37.512ZM46.5982 41.376L40.2862 55.512C39.7742 56.696 39.1822 57.536 38.5102 58.032C37.8382 58.528 37.0302 58.776 36.0862 58.776C35.4782 58.776 34.9102 58.68 34.3822 58.488C33.8542 58.296 33.3982 58.008 33.0142 57.624L33.8062 56.352C34.4462 56.992 35.2142 57.312 36.1102 57.312C36.6862 57.312 37.1742 57.152 37.5742 56.832C37.9902 56.512 38.3742 55.968 38.7262 55.2L39.2782 53.976L33.6382 41.376H35.4142L40.1662 52.104L44.9182 41.376H46.5982ZM54.5265 54.12C53.3105 54.12 52.2145 53.848 51.2385 53.304C50.2625 52.744 49.4945 51.976 48.9345 51C48.3745 50.024 48.0945 48.92 48.0945 47.688C48.0945 46.456 48.3745 45.352 48.9345 44.376C49.4945 43.4 50.2625 42.64 51.2385 42.096C52.2145 41.552 53.3105 41.28 54.5265 41.28C55.7425 41.28 56.8385 41.552 57.8145 42.096C58.7905 42.64 59.5505 43.4 60.0945 44.376C60.6545 45.352 60.9345 46.456 60.9345 47.688C60.9345 48.92 60.6545 50.024 60.0945 51C59.5505 51.976 58.7905 52.744 57.8145 53.304C56.8385 53.848 55.7425 54.12 54.5265 54.12ZM54.5265 52.608C55.4225 52.608 56.2225 52.408 56.9265 52.008C57.6465 51.592 58.2065 51.008 58.6065 50.256C59.0065 49.504 59.2065 48.648 59.2065 47.688C59.2065 46.728 59.0065 45.872 58.6065 45.12C58.2065 44.368 57.6465 43.792 56.9265 43.392C56.2225 42.976 55.4225 42.768 54.5265 42.768C53.6305 42.768 52.8225 42.976 52.1025 43.392C51.3985 43.792 50.8385 44.368 50.4225 45.12C50.0225 45.872 49.8225 46.728 49.8225 47.688C49.8225 48.648 50.0225 49.504 50.4225 50.256C50.8385 51.008 51.3985 51.592 52.1025 52.008C52.8225 52.408 53.6305 52.608 54.5265 52.608ZM76.5093 41.376V54H74.8773V51.696C74.4293 52.464 73.8133 53.064 73.0293 53.496C72.2453 53.912 71.3493 54.12 70.3413 54.12C68.6933 54.12 67.3893 53.664 66.4293 52.752C65.4853 51.824 65.0133 50.472 65.0133 48.696V41.376H66.7173V48.528C66.7173 49.856 67.0453 50.864 67.7013 51.552C68.3573 52.24 69.2933 52.584 70.5093 52.584C71.8373 52.584 72.8853 52.184 73.6533 51.384C74.4213 50.568 74.8053 49.44 74.8053 48V41.376H76.5093ZM83.6338 43.848C84.0338 43 84.6258 42.36 85.4098 41.928C86.2098 41.496 87.1938 41.28 88.3618 41.28V42.936L87.9538 42.912C86.6258 42.912 85.5858 43.32 84.8338 44.136C84.0818 44.952 83.7058 46.096 83.7058 47.568V54H82.0018V41.376H83.6338V43.848ZM104.588 54.12C103.34 54.12 102.22 53.848 101.228 53.304C100.252 52.76 99.4838 52 98.9238 51.024C98.3638 50.032 98.0838 48.92 98.0838 47.688C98.0838 46.456 98.3638 45.352 98.9238 44.376C99.4838 43.4 100.252 42.64 101.228 42.096C102.22 41.552 103.34 41.28 104.588 41.28C105.676 41.28 106.644 41.496 107.492 41.928C108.356 42.344 109.036 42.96 109.532 43.776L108.26 44.64C107.844 44.016 107.316 43.552 106.676 43.248C106.036 42.928 105.34 42.768 104.588 42.768C103.676 42.768 102.852 42.976 102.116 43.392C101.396 43.792 100.828 44.368 100.412 45.12C100.012 45.872 99.8118 46.728 99.8118 47.688C99.8118 48.664 100.012 49.528 100.412 50.28C100.828 51.016 101.396 51.592 102.116 52.008C102.852 52.408 103.676 52.608 104.588 52.608C105.34 52.608 106.036 52.456 106.676 52.152C107.316 51.848 107.844 51.384 108.26 50.76L109.532 51.624C109.036 52.44 108.356 53.064 107.492 53.496C106.628 53.912 105.66 54.12 104.588 54.12ZM119.844 41.28C121.428 41.28 122.684 41.744 123.612 42.672C124.556 43.584 125.028 44.92 125.028 46.68V54H123.324V46.848C123.324 45.536 122.996 44.536 122.34 43.848C121.684 43.16 120.748 42.816 119.532 42.816C118.172 42.816 117.092 43.224 116.292 44.04C115.508 44.84 115.116 45.952 115.116 47.376V54H113.412V36.192H115.116V43.584C115.58 42.848 116.22 42.28 117.036 41.88C117.852 41.48 118.788 41.28 119.844 41.28ZM135.581 54.12C134.365 54.12 133.269 53.848 132.293 53.304C131.317 52.744 130.549 51.976 129.989 51C129.429 50.024 129.149 48.92 129.149 47.688C129.149 46.456 129.429 45.352 129.989 44.376C130.549 43.4 131.317 42.64 132.293 42.096C133.269 41.552 134.365 41.28 135.581 41.28C136.797 41.28 137.893 41.552 138.869 42.096C139.845 42.64 140.605 43.4 141.149 44.376C141.709 45.352 141.989 46.456 141.989 47.688C141.989 48.92 141.709 50.024 141.149 51C140.605 51.976 139.845 52.744 138.869 53.304C137.893 53.848 136.797 54.12 135.581 54.12ZM135.581 52.608C136.477 52.608 137.277 52.408 137.981 52.008C138.701 51.592 139.261 51.008 139.661 50.256C140.061 49.504 140.261 48.648 140.261 47.688C140.261 46.728 140.061 45.872 139.661 45.12C139.261 44.368 138.701 43.792 137.981 43.392C137.277 42.976 136.477 42.768 135.581 42.768C134.685 42.768 133.877 42.976 133.157 43.392C132.453 43.792 131.893 44.368 131.477 45.12C131.077 45.872 130.877 46.728 130.877 47.688C130.877 48.648 131.077 49.504 131.477 50.256C131.893 51.008 132.453 51.592 133.157 52.008C133.877 52.408 134.685 52.608 135.581 52.608ZM146.188 41.376H147.892V54H146.188V41.376ZM147.052 38.616C146.7 38.616 146.404 38.496 146.164 38.256C145.924 38.016 145.804 37.728 145.804 37.392C145.804 37.072 145.924 36.792 146.164 36.552C146.404 36.312 146.7 36.192 147.052 36.192C147.404 36.192 147.7 36.312 147.94 36.552C148.18 36.776 148.3 37.048 148.3 37.368C148.3 37.72 148.18 38.016 147.94 38.256C147.7 38.496 147.404 38.616 147.052 38.616ZM158.585 54.12C157.337 54.12 156.217 53.848 155.225 53.304C154.249 52.76 153.481 52 152.921 51.024C152.361 50.032 152.081 48.92 152.081 47.688C152.081 46.456 152.361 45.352 152.921 44.376C153.481 43.4 154.249 42.64 155.225 42.096C156.217 41.552 157.337 41.28 158.585 41.28C159.673 41.28 160.641 41.496 161.489 41.928C162.353 42.344 163.033 42.96 163.529 43.776L162.257 44.64C161.841 44.016 161.313 43.552 160.673 43.248C160.033 42.928 159.337 42.768 158.585 42.768C157.673 42.768 156.849 42.976 156.113 43.392C155.393 43.792 154.825 44.368 154.409 45.12C154.009 45.872 153.809 46.728 153.809 47.688C153.809 48.664 154.009 49.528 154.409 50.28C154.825 51.016 155.393 51.592 156.113 52.008C156.849 52.408 157.673 52.608 158.585 52.608C159.337 52.608 160.033 52.456 160.673 52.152C161.313 51.848 161.841 51.384 162.257 50.76L163.529 51.624C163.033 52.44 162.353 53.064 161.489 53.496C160.625 53.912 159.657 54.12 158.585 54.12ZM178.378 48.216H167.818C167.914 49.528 168.418 50.592 169.33 51.408C170.242 52.208 171.394 52.608 172.786 52.608C173.57 52.608 174.29 52.472 174.946 52.2C175.602 51.912 176.17 51.496 176.65 50.952L177.61 52.056C177.05 52.728 176.346 53.24 175.498 53.592C174.666 53.944 173.746 54.12 172.738 54.12C171.442 54.12 170.29 53.848 169.282 53.304C168.29 52.744 167.514 51.976 166.954 51C166.394 50.024 166.114 48.92 166.114 47.688C166.114 46.456 166.378 45.352 166.906 44.376C167.45 43.4 168.186 42.64 169.114 42.096C170.058 41.552 171.114 41.28 172.282 41.28C173.45 41.28 174.498 41.552 175.426 42.096C176.354 42.64 177.082 43.4 177.61 44.376C178.138 45.336 178.402 46.44 178.402 47.688L178.378 48.216ZM172.282 42.744C171.066 42.744 170.042 43.136 169.21 43.92C168.394 44.688 167.93 45.696 167.818 46.944H176.77C176.658 45.696 176.186 44.688 175.354 43.92C174.538 43.136 173.514 42.744 172.282 42.744ZM196.239 53.232C195.919 53.52 195.519 53.744 195.039 53.904C194.575 54.048 194.087 54.12 193.575 54.12C192.391 54.12 191.479 53.8 190.839 53.16C190.199 52.52 189.879 51.616 189.879 50.448V42.816H187.623V41.376H189.879V38.616H191.583V41.376H195.423V42.816H191.583V50.352C191.583 51.104 191.767 51.68 192.135 52.08C192.519 52.464 193.063 52.656 193.767 52.656C194.119 52.656 194.455 52.6 194.775 52.488C195.111 52.376 195.399 52.216 195.639 52.008L196.239 53.232ZM204.776 54.12C203.56 54.12 202.464 53.848 201.488 53.304C200.512 52.744 199.744 51.976 199.184 51C198.624 50.024 198.344 48.92 198.344 47.688C198.344 46.456 198.624 45.352 199.184 44.376C199.744 43.4 200.512 42.64 201.488 42.096C202.464 41.552 203.56 41.28 204.776 41.28C205.992 41.28 207.088 41.552 208.064 42.096C209.04 42.64 209.8 43.4 210.344 44.376C210.904 45.352 211.184 46.456 211.184 47.688C211.184 48.92 210.904 50.024 210.344 51C209.8 51.976 209.04 52.744 208.064 53.304C207.088 53.848 205.992 54.12 204.776 54.12ZM204.776 52.608C205.672 52.608 206.472 52.408 207.176 52.008C207.896 51.592 208.456 51.008 208.856 50.256C209.256 49.504 209.456 48.648 209.456 47.688C209.456 46.728 209.256 45.872 208.856 45.12C208.456 44.368 207.896 43.792 207.176 43.392C206.472 42.976 205.672 42.768 204.776 42.768C203.88 42.768 203.072 42.976 202.352 43.392C201.648 43.792 201.088 44.368 200.672 45.12C200.272 45.872 200.072 46.728 200.072 47.688C200.072 48.648 200.272 49.504 200.672 50.256C201.088 51.008 201.648 51.592 202.352 52.008C203.072 52.408 203.88 52.608 204.776 52.608ZM56.9687 77.376H58.6727V90H56.9687V77.376ZM57.8327 74.616C57.4807 74.616 57.1847 74.496 56.9447 74.256C56.7047 74.016 56.5847 73.728 56.5847 73.392C56.5847 73.072 56.7047 72.792 56.9447 72.552C57.1847 72.312 57.4807 72.192 57.8327 72.192C58.1847 72.192 58.4807 72.312 58.7207 72.552C58.9607 72.776 59.0807 73.048 59.0807 73.368C59.0807 73.72 58.9607 74.016 58.7207 74.256C58.4807 74.496 58.1847 74.616 57.8327 74.616ZM70.566 77.28C72.15 77.28 73.406 77.744 74.334 78.672C75.278 79.584 75.75 80.92 75.75 82.68V90H74.046V82.848C74.046 81.536 73.718 80.536 73.062 79.848C72.406 79.16 71.47 78.816 70.254 78.816C68.894 78.816 67.814 79.224 67.014 80.04C66.23 80.84 65.838 81.952 65.838 83.376V90H64.134V77.376H65.766V79.704C66.23 78.936 66.87 78.344 67.686 77.928C68.518 77.496 69.478 77.28 70.566 77.28ZM91.4698 77.376L85.8538 90H84.1018L78.5098 77.376H80.2858L85.0138 88.128L89.7898 77.376H91.4698ZM105.23 84.216H94.67C94.766 85.528 95.27 86.592 96.182 87.408C97.094 88.208 98.246 88.608 99.638 88.608C100.422 88.608 101.142 88.472 101.798 88.2C102.454 87.912 103.022 87.496 103.502 86.952L104.462 88.056C103.902 88.728 103.198 89.24 102.35 89.592C101.518 89.944 100.598 90.12 99.59 90.12C98.294 90.12 97.142 89.848 96.134 89.304C95.142 88.744 94.366 87.976 93.806 87C93.246 86.024 92.966 84.92 92.966 83.688C92.966 82.456 93.23 81.352 93.758 80.376C94.302 79.4 95.038 78.64 95.966 78.096C96.91 77.552 97.966 77.28 99.134 77.28C100.302 77.28 101.35 77.552 102.278 78.096C103.206 78.64 103.934 79.4 104.462 80.376C104.99 81.336 105.254 82.44 105.254 83.688L105.23 84.216ZM99.134 78.744C97.918 78.744 96.894 79.136 96.062 79.92C95.246 80.688 94.782 81.696 94.67 82.944H103.622C103.51 81.696 103.038 80.688 102.206 79.92C101.39 79.136 100.366 78.744 99.134 78.744ZM112.826 90.12C111.802 90.12 110.818 89.976 109.874 89.688C108.946 89.384 108.218 89.008 107.69 88.56L108.458 87.216C108.986 87.632 109.65 87.976 110.45 88.248C111.25 88.504 112.082 88.632 112.946 88.632C114.098 88.632 114.946 88.456 115.49 88.104C116.05 87.736 116.33 87.224 116.33 86.568C116.33 86.104 116.178 85.744 115.874 85.488C115.57 85.216 115.186 85.016 114.722 84.888C114.258 84.744 113.642 84.608 112.874 84.48C111.85 84.288 111.026 84.096 110.402 83.904C109.778 83.696 109.242 83.352 108.794 82.872C108.362 82.392 108.146 81.728 108.146 80.88C108.146 79.824 108.586 78.96 109.466 78.288C110.346 77.616 111.57 77.28 113.138 77.28C113.954 77.28 114.77 77.392 115.586 77.616C116.402 77.824 117.074 78.104 117.602 78.456L116.858 79.824C115.818 79.104 114.578 78.744 113.138 78.744C112.05 78.744 111.226 78.936 110.666 79.32C110.122 79.704 109.85 80.208 109.85 80.832C109.85 81.312 110.002 81.696 110.306 81.984C110.626 82.272 111.018 82.488 111.482 82.632C111.946 82.76 112.586 82.896 113.402 83.04C114.41 83.232 115.218 83.424 115.826 83.616C116.434 83.808 116.954 84.136 117.386 84.6C117.818 85.064 118.034 85.704 118.034 86.52C118.034 87.624 117.57 88.504 116.642 89.16C115.73 89.8 114.458 90.12 112.826 90.12ZM128.553 89.232C128.233 89.52 127.833 89.744 127.353 89.904C126.889 90.048 126.401 90.12 125.889 90.12C124.705 90.12 123.793 89.8 123.153 89.16C122.513 88.52 122.193 87.616 122.193 86.448V78.816H119.937V77.376H122.193V74.616H123.897V77.376H127.737V78.816H123.897V86.352C123.897 87.104 124.081 87.68 124.449 88.08C124.833 88.464 125.377 88.656 126.081 88.656C126.433 88.656 126.769 88.6 127.089 88.488C127.425 88.376 127.713 88.216 127.953 88.008L128.553 89.232ZM139.376 77.376H141.08V90H139.376V77.376ZM140.24 74.616C139.888 74.616 139.592 74.496 139.352 74.256C139.112 74.016 138.992 73.728 138.992 73.392C138.992 73.072 139.112 72.792 139.352 72.552C139.592 72.312 139.888 72.192 140.24 72.192C140.592 72.192 140.888 72.312 141.128 72.552C141.368 72.776 141.488 73.048 141.488 73.368C141.488 73.72 141.368 74.016 141.128 74.256C140.888 74.496 140.592 74.616 140.24 74.616ZM152.973 77.28C154.557 77.28 155.813 77.744 156.741 78.672C157.685 79.584 158.157 80.92 158.157 82.68V90H156.453V82.848C156.453 81.536 156.125 80.536 155.469 79.848C154.813 79.16 153.877 78.816 152.661 78.816C151.301 78.816 150.221 79.224 149.421 80.04C148.637 80.84 148.245 81.952 148.245 83.376V90H146.541V77.376H148.173V79.704C148.637 78.936 149.277 78.344 150.093 77.928C150.925 77.496 151.885 77.28 152.973 77.28Z" fill="black"/>
</svg>
