<svg width="187" height="91" viewBox="0 0 187 91" fill="none" xmlns="http://www.w3.org/2000/svg">
<path d="M6.84538 18.192C5.58137 18.192 4.35737 18 3.17337 17.616C2.00537 17.216 1.08537 16.704 0.413375 16.08L1.30137 14.208C1.94137 14.784 2.75737 15.256 3.74937 15.624C4.75738 15.976 5.78938 16.152 6.84538 16.152C8.23738 16.152 9.27738 15.92 9.96537 15.456C10.6534 14.976 10.9974 14.344 10.9974 13.56C10.9974 12.984 10.8054 12.52 10.4214 12.168C10.0534 11.8 9.58938 11.52 9.02937 11.328C8.48538 11.136 7.70938 10.92 6.70137 10.68C5.43737 10.376 4.41337 10.072 3.62937 9.768C2.86137 9.464 2.19737 9 1.63737 8.376C1.09337 7.736 0.821375 6.88 0.821375 5.808C0.821375 4.912 1.05337 4.104 1.51737 3.384C1.99737 2.664 2.71737 2.088 3.67737 1.656C4.63737 1.224 5.82938 1.008 7.25337 1.008C8.24537 1.008 9.22137 1.136 10.1814 1.392C11.1414 1.648 11.9654 2.016 12.6534 2.496L11.8614 4.416C11.1574 3.968 10.4054 3.632 9.60538 3.408C8.80538 3.168 8.02137 3.048 7.25337 3.048C5.89337 3.048 4.86937 3.296 4.18138 3.792C3.50937 4.288 3.17337 4.928 3.17337 5.712C3.17337 6.288 3.36537 6.76 3.74937 7.128C4.13337 7.48 4.60537 7.76 5.16537 7.968C5.74137 8.16 6.51737 8.368 7.49338 8.592C8.75738 8.896 9.77338 9.2 10.5414 9.504C11.3094 9.808 11.9654 10.272 12.5094 10.896C13.0694 11.52 13.3494 12.36 13.3494 13.416C13.3494 14.296 13.1094 15.104 12.6294 15.84C12.1494 16.56 11.4214 17.136 10.4454 17.568C9.46938 17.984 8.26938 18.192 6.84538 18.192ZM28.7356 11.712C28.7356 11.888 28.7196 12.12 28.6876 12.408H18.3676C18.5116 13.528 18.9996 14.432 19.8316 15.12C20.6796 15.792 21.7276 16.128 22.9756 16.128C24.4956 16.128 25.7196 15.616 26.6476 14.592L27.9196 16.08C27.3436 16.752 26.6236 17.264 25.7596 17.616C24.9116 17.968 23.9596 18.144 22.9036 18.144C21.5596 18.144 20.3676 17.872 19.3276 17.328C18.2876 16.768 17.4796 15.992 16.9036 15C16.3436 14.008 16.0636 12.888 16.0636 11.64C16.0636 10.408 16.3356 9.296 16.8796 8.304C17.4396 7.312 18.1996 6.544 19.1596 6C20.1356 5.44 21.2316 5.16 22.4476 5.16C23.6636 5.16 24.7436 5.44 25.6876 6C26.6476 6.544 27.3916 7.312 27.9196 8.304C28.4636 9.296 28.7356 10.432 28.7356 11.712ZM22.4476 7.104C21.3436 7.104 20.4156 7.44 19.6636 8.112C18.9276 8.784 18.4956 9.664 18.3676 10.752H26.5276C26.3996 9.68 25.9596 8.808 25.2076 8.136C24.4716 7.448 23.5516 7.104 22.4476 7.104ZM32.6549 0.191999H34.9589V18H32.6549V0.191999ZM51.5741 11.712C51.5741 11.888 51.5581 12.12 51.5261 12.408H41.2061C41.3501 13.528 41.8381 14.432 42.6701 15.12C43.5181 15.792 44.5661 16.128 45.8141 16.128C47.3341 16.128 48.5581 15.616 49.4861 14.592L50.7581 16.08C50.1821 16.752 49.4621 17.264 48.5981 17.616C47.7501 17.968 46.7981 18.144 45.7421 18.144C44.3981 18.144 43.2061 17.872 42.1661 17.328C41.1261 16.768 40.3181 15.992 39.7421 15C39.1821 14.008 38.9021 12.888 38.9021 11.64C38.9021 10.408 39.1741 9.296 39.7181 8.304C40.2781 7.312 41.0381 6.544 41.9981 6C42.9741 5.44 44.0701 5.16 45.2861 5.16C46.5021 5.16 47.5821 5.44 48.5261 6C49.4861 6.544 50.2301 7.312 50.7581 8.304C51.3021 9.296 51.5741 10.432 51.5741 11.712ZM45.2861 7.104C44.1821 7.104 43.2541 7.44 42.5021 8.112C41.7661 8.784 41.3341 9.664 41.2061 10.752H49.3661C49.2381 9.68 48.7981 8.808 48.0461 8.136C47.3101 7.448 46.3901 7.104 45.2861 7.104ZM61.0374 18.144C59.7414 18.144 58.5814 17.864 57.5574 17.304C56.5494 16.744 55.7574 15.976 55.1814 15C54.6054 14.008 54.3174 12.888 54.3174 11.64C54.3174 10.392 54.6054 9.28 55.1814 8.304C55.7574 7.312 56.5494 6.544 57.5574 6C58.5814 5.44 59.7414 5.16 61.0374 5.16C62.1894 5.16 63.2134 5.392 64.1094 5.856C65.0214 6.32 65.7254 6.992 66.2214 7.872L64.4694 9C64.0694 8.392 63.5734 7.936 62.9814 7.632C62.3894 7.328 61.7334 7.176 61.0134 7.176C60.1814 7.176 59.4294 7.36 58.7574 7.728C58.1014 8.096 57.5814 8.624 57.1974 9.312C56.8294 9.984 56.6454 10.76 56.6454 11.64C56.6454 12.536 56.8294 13.328 57.1974 14.016C57.5814 14.688 58.1014 15.208 58.7574 15.576C59.4294 15.944 60.1814 16.128 61.0134 16.128C61.7334 16.128 62.3894 15.976 62.9814 15.672C63.5734 15.368 64.0694 14.912 64.4694 14.304L66.2214 15.408C65.7254 16.288 65.0214 16.968 64.1094 17.448C63.2134 17.912 62.1894 18.144 61.0374 18.144ZM77.2404 17.256C76.9044 17.544 76.4884 17.768 75.9924 17.928C75.4964 18.072 74.9844 18.144 74.4564 18.144C73.1764 18.144 72.1844 17.8 71.4804 17.112C70.7764 16.424 70.4244 15.44 70.4244 14.16V7.176H68.2644V5.28H70.4244V2.496H72.7284V5.28H76.3764V7.176H72.7284V14.064C72.7284 14.752 72.8964 15.28 73.2324 15.648C73.5844 16.016 74.0804 16.2 74.7204 16.2C75.4244 16.2 76.0244 16 76.5204 15.6L77.2404 17.256ZM92.5432 5.16C94.3032 5.16 95.6472 5.592 96.5752 6.456C97.5192 7.32 97.9912 8.608 97.9912 10.32V18H95.8072V16.32C95.4232 16.912 94.8712 17.368 94.1512 17.688C93.4472 17.992 92.6072 18.144 91.6312 18.144C90.2072 18.144 89.0632 17.8 88.1992 17.112C87.3512 16.424 86.9272 15.52 86.9272 14.4C86.9272 13.28 87.3352 12.384 88.1512 11.712C88.9672 11.024 90.2632 10.68 92.0392 10.68H95.6872V10.224C95.6872 9.232 95.3992 8.472 94.8232 7.944C94.2472 7.416 93.3992 7.152 92.2792 7.152C91.5272 7.152 90.7912 7.28 90.0712 7.536C89.3512 7.776 88.7432 8.104 88.2472 8.52L87.2872 6.792C87.9432 6.264 88.7272 5.864 89.6392 5.592C90.5512 5.304 91.5192 5.16 92.5432 5.16ZM92.0152 16.368C92.8952 16.368 93.6552 16.176 94.2952 15.792C94.9352 15.392 95.3992 14.832 95.6872 14.112V12.336H92.1352C90.1832 12.336 89.2072 12.992 89.2072 14.304C89.2072 14.944 89.4552 15.448 89.9512 15.816C90.4472 16.184 91.1352 16.368 92.0152 16.368ZM118.887 5.16C120.487 5.16 121.751 5.624 122.679 6.552C123.623 7.48 124.095 8.856 124.095 10.68V18H121.791V10.944C121.791 9.712 121.503 8.784 120.927 8.16C120.367 7.536 119.559 7.224 118.503 7.224C117.335 7.224 116.407 7.592 115.719 8.328C115.031 9.048 114.687 10.088 114.687 11.448V18H112.383V10.944C112.383 9.712 112.095 8.784 111.519 8.16C110.959 7.536 110.151 7.224 109.095 7.224C107.927 7.224 106.999 7.592 106.311 8.328C105.623 9.048 105.279 10.088 105.279 11.448V18H102.975V5.28H105.183V7.176C105.647 6.52 106.255 6.024 107.007 5.688C107.759 5.336 108.615 5.16 109.575 5.16C110.567 5.16 111.447 5.36 112.215 5.76C112.983 6.16 113.575 6.744 113.991 7.512C114.471 6.776 115.135 6.2 115.983 5.784C116.847 5.368 117.815 5.16 118.887 5.16ZM134.573 18.144C133.309 18.144 132.173 17.864 131.165 17.304C130.157 16.744 129.365 15.976 128.789 15C128.229 14.008 127.949 12.888 127.949 11.64C127.949 10.392 128.229 9.28 128.789 8.304C129.365 7.312 130.157 6.544 131.165 6C132.173 5.44 133.309 5.16 134.573 5.16C135.837 5.16 136.965 5.44 137.957 6C138.965 6.544 139.749 7.312 140.309 8.304C140.885 9.28 141.173 10.392 141.173 11.64C141.173 12.888 140.885 14.008 140.309 15C139.749 15.976 138.965 16.744 137.957 17.304C136.965 17.864 135.837 18.144 134.573 18.144ZM134.573 16.128C135.389 16.128 136.117 15.944 136.757 15.576C137.413 15.192 137.925 14.664 138.293 13.992C138.661 13.304 138.845 12.52 138.845 11.64C138.845 10.76 138.661 9.984 138.293 9.312C137.925 8.624 137.413 8.096 136.757 7.728C136.117 7.36 135.389 7.176 134.573 7.176C133.757 7.176 133.021 7.36 132.365 7.728C131.725 8.096 131.213 8.624 130.829 9.312C130.461 9.984 130.277 10.76 130.277 11.64C130.277 12.52 130.461 13.304 130.829 13.992C131.213 14.664 131.725 15.192 132.365 15.576C133.021 15.944 133.757 16.128 134.573 16.128ZM156.935 5.28V18H154.751V16.08C154.287 16.736 153.671 17.248 152.903 17.616C152.151 17.968 151.327 18.144 150.431 18.144C148.735 18.144 147.399 17.68 146.423 16.752C145.447 15.808 144.959 14.424 144.959 12.6V5.28H147.263V12.336C147.263 13.568 147.559 14.504 148.151 15.144C148.743 15.768 149.591 16.08 150.695 16.08C151.911 16.08 152.871 15.712 153.575 14.976C154.279 14.24 154.631 13.2 154.631 11.856V5.28H156.935ZM168.833 5.16C170.449 5.16 171.729 5.632 172.673 6.576C173.633 7.504 174.113 8.872 174.113 10.68V18H171.809V10.944C171.809 9.712 171.513 8.784 170.921 8.16C170.329 7.536 169.481 7.224 168.377 7.224C167.129 7.224 166.145 7.592 165.425 8.328C164.705 9.048 164.345 10.088 164.345 11.448V18H162.041V5.28H164.249V7.2C164.713 6.544 165.337 6.04 166.121 5.688C166.921 5.336 167.825 5.16 168.833 5.16ZM186.249 17.256C185.913 17.544 185.497 17.768 185.001 17.928C184.505 18.072 183.993 18.144 183.465 18.144C182.185 18.144 181.193 17.8 180.489 17.112C179.785 16.424 179.433 15.44 179.433 14.16V7.176H177.273V5.28H179.433V2.496H181.737V5.28H185.385V7.176H181.737V14.064C181.737 14.752 181.905 15.28 182.241 15.648C182.593 16.016 183.089 16.2 183.729 16.2C184.433 16.2 185.033 16 185.529 15.6L186.249 17.256ZM18.842 54.144C17.578 54.144 16.442 53.864 15.434 53.304C14.426 52.744 13.634 51.976 13.058 51C12.498 50.008 12.218 48.888 12.218 47.64C12.218 46.392 12.498 45.28 13.058 44.304C13.634 43.312 14.426 42.544 15.434 42C16.442 41.44 17.578 41.16 18.842 41.16C20.106 41.16 21.234 41.44 22.226 42C23.234 42.544 24.018 43.312 24.578 44.304C25.154 45.28 25.442 46.392 25.442 47.64C25.442 48.888 25.154 50.008 24.578 51C24.018 51.976 23.234 52.744 22.226 53.304C21.234 53.864 20.106 54.144 18.842 54.144ZM18.842 52.128C19.658 52.128 20.386 51.944 21.026 51.576C21.682 51.192 22.194 50.664 22.562 49.992C22.93 49.304 23.114 48.52 23.114 47.64C23.114 46.76 22.93 45.984 22.562 45.312C22.194 44.624 21.682 44.096 21.026 43.728C20.386 43.36 19.658 43.176 18.842 43.176C18.026 43.176 17.29 43.36 16.634 43.728C15.994 44.096 15.482 44.624 15.098 45.312C14.73 45.984 14.546 46.76 14.546 47.64C14.546 48.52 14.73 49.304 15.098 49.992C15.482 50.664 15.994 51.192 16.634 51.576C17.29 51.944 18.026 52.128 18.842 52.128ZM34.0044 37.944C32.6284 37.944 31.9404 38.688 31.9404 40.176V41.28H35.6364V43.176H31.9884V54H29.6844V43.176H27.5244V41.28H29.6844V40.152C29.6844 38.888 30.0524 37.888 30.7884 37.152C31.5244 36.416 32.5564 36.048 33.8844 36.048C34.3964 36.048 34.8764 36.112 35.3244 36.24C35.7724 36.368 36.1564 36.552 36.4764 36.792L35.7804 38.544C35.2524 38.144 34.6604 37.944 34.0044 37.944ZM64.7159 41.28V54H62.5319V52.08C62.0679 52.736 61.4519 53.248 60.6839 53.616C59.9319 53.968 59.1079 54.144 58.2119 54.144C56.5159 54.144 55.1799 53.68 54.2039 52.752C53.2279 51.808 52.7399 50.424 52.7399 48.6V41.28H55.0439V48.336C55.0439 49.568 55.3399 50.504 55.9319 51.144C56.5239 51.768 57.3719 52.08 58.4759 52.08C59.6919 52.08 60.6519 51.712 61.3559 50.976C62.0599 50.24 62.4119 49.2 62.4119 47.856V41.28H64.7159ZM76.6141 41.16C78.2301 41.16 79.5101 41.632 80.4541 42.576C81.4141 43.504 81.8941 44.872 81.8941 46.68V54H79.5901V46.944C79.5901 45.712 79.2941 44.784 78.7021 44.16C78.1101 43.536 77.2621 43.224 76.1581 43.224C74.9101 43.224 73.9261 43.592 73.2061 44.328C72.4861 45.048 72.1261 46.088 72.1261 47.448V54H69.8221V41.28H72.0301V43.2C72.4941 42.544 73.1181 42.04 73.9021 41.688C74.7021 41.336 75.6061 41.16 76.6141 41.16ZM86.8781 41.28H89.1821V54H86.8781V41.28ZM88.0301 38.832C87.5821 38.832 87.2061 38.688 86.9021 38.4C86.6141 38.112 86.4701 37.76 86.4701 37.344C86.4701 36.928 86.6141 36.576 86.9021 36.288C87.2061 35.984 87.5821 35.832 88.0301 35.832C88.4781 35.832 88.8461 35.976 89.1341 36.264C89.4381 36.536 89.5901 36.88 89.5901 37.296C89.5901 37.728 89.4381 38.096 89.1341 38.4C88.8461 38.688 88.4781 38.832 88.0301 38.832ZM101.453 53.256C101.117 53.544 100.701 53.768 100.205 53.928C99.7092 54.072 99.1972 54.144 98.6692 54.144C97.3892 54.144 96.3972 53.8 95.6932 53.112C94.9892 52.424 94.6372 51.44 94.6372 50.16V43.176H92.4772V41.28H94.6372V38.496H96.9412V41.28H100.589V43.176H96.9412V50.064C96.9412 50.752 97.1092 51.28 97.4452 51.648C97.7972 52.016 98.2932 52.2 98.9332 52.2C99.6372 52.2 100.237 52 100.733 51.6L101.453 53.256ZM119.276 53.256C118.94 53.544 118.524 53.768 118.028 53.928C117.532 54.072 117.02 54.144 116.492 54.144C115.212 54.144 114.22 53.8 113.516 53.112C112.812 52.424 112.46 51.44 112.46 50.16V43.176H110.3V41.28H112.46V38.496H114.764V41.28H118.412V43.176H114.764V50.064C114.764 50.752 114.932 51.28 115.268 51.648C115.62 52.016 116.116 52.2 116.756 52.2C117.46 52.2 118.06 52 118.556 51.6L119.276 53.256ZM127.808 54.144C126.544 54.144 125.408 53.864 124.4 53.304C123.392 52.744 122.6 51.976 122.024 51C121.464 50.008 121.184 48.888 121.184 47.64C121.184 46.392 121.464 45.28 122.024 44.304C122.6 43.312 123.392 42.544 124.4 42C125.408 41.44 126.544 41.16 127.808 41.16C129.072 41.16 130.2 41.44 131.192 42C132.2 42.544 132.984 43.312 133.544 44.304C134.12 45.28 134.408 46.392 134.408 47.64C134.408 48.888 134.12 50.008 133.544 51C132.984 51.976 132.2 52.744 131.192 53.304C130.2 53.864 129.072 54.144 127.808 54.144ZM127.808 52.128C128.624 52.128 129.352 51.944 129.992 51.576C130.648 51.192 131.16 50.664 131.528 49.992C131.896 49.304 132.08 48.52 132.08 47.64C132.08 46.76 131.896 45.984 131.528 45.312C131.16 44.624 130.648 44.096 129.992 43.728C129.352 43.36 128.624 43.176 127.808 43.176C126.992 43.176 126.256 43.36 125.6 43.728C124.96 44.096 124.448 44.624 124.064 45.312C123.696 45.984 123.512 46.76 123.512 47.64C123.512 48.52 123.696 49.304 124.064 49.992C124.448 50.664 124.96 51.192 125.6 51.576C126.256 51.944 126.992 52.128 127.808 52.128ZM152.223 41.16C153.455 41.16 154.559 41.432 155.535 41.976C156.511 42.52 157.271 43.28 157.815 44.256C158.375 45.232 158.655 46.36 158.655 47.64C158.655 48.92 158.375 50.056 157.815 51.048C157.271 52.024 156.511 52.784 155.535 53.328C154.559 53.872 153.455 54.144 152.223 54.144C151.279 54.144 150.415 53.96 149.631 53.592C148.847 53.224 148.199 52.688 147.687 51.984V54H145.479V36.192H147.783V43.2C148.295 42.528 148.935 42.024 149.703 41.688C150.471 41.336 151.311 41.16 152.223 41.16ZM152.031 52.128C152.847 52.128 153.575 51.944 154.215 51.576C154.871 51.192 155.383 50.664 155.751 49.992C156.135 49.304 156.327 48.52 156.327 47.64C156.327 46.76 156.135 45.984 155.751 45.312C155.383 44.624 154.871 44.096 154.215 43.728C153.575 43.36 152.847 43.176 152.031 43.176C151.231 43.176 150.503 43.36 149.847 43.728C149.191 44.096 148.679 44.624 148.311 45.312C147.943 45.984 147.759 46.76 147.759 47.64C147.759 48.52 147.943 49.304 148.311 49.992C148.679 50.664 149.191 51.192 149.847 51.576C150.503 51.944 151.231 52.128 152.031 52.128ZM174.055 47.712C174.055 47.888 174.039 48.12 174.007 48.408H163.687C163.831 49.528 164.319 50.432 165.151 51.12C165.999 51.792 167.047 52.128 168.295 52.128C169.815 52.128 171.039 51.616 171.967 50.592L173.239 52.08C172.663 52.752 171.943 53.264 171.079 53.616C170.231 53.968 169.279 54.144 168.223 54.144C166.879 54.144 165.687 53.872 164.647 53.328C163.607 52.768 162.799 51.992 162.223 51C161.663 50.008 161.383 48.888 161.383 47.64C161.383 46.408 161.655 45.296 162.199 44.304C162.759 43.312 163.519 42.544 164.479 42C165.455 41.44 166.551 41.16 167.767 41.16C168.983 41.16 170.063 41.44 171.007 42C171.967 42.544 172.711 43.312 173.239 44.304C173.783 45.296 174.055 46.432 174.055 47.712ZM167.767 43.104C166.663 43.104 165.735 43.44 164.983 44.112C164.247 44.784 163.815 45.664 163.687 46.752H171.847C171.719 45.68 171.279 44.808 170.527 44.136C169.791 43.448 168.871 43.104 167.767 43.104ZM41.5898 77.28H43.8938V90H41.5898V77.28ZM42.7418 74.832C42.2938 74.832 41.9178 74.688 41.6138 74.4C41.3258 74.112 41.1818 73.76 41.1818 73.344C41.1818 72.928 41.3258 72.576 41.6138 72.288C41.9178 71.984 42.2938 71.832 42.7418 71.832C43.1898 71.832 43.5578 71.976 43.8458 72.264C44.1498 72.536 44.3018 72.88 44.3018 73.296C44.3018 73.728 44.1498 74.096 43.8458 74.4C43.5578 74.688 43.1898 74.832 42.7418 74.832ZM55.8049 77.16C57.4209 77.16 58.7009 77.632 59.6449 78.576C60.6049 79.504 61.0849 80.872 61.0849 82.68V90H58.7809V82.944C58.7809 81.712 58.4849 80.784 57.8929 80.16C57.3009 79.536 56.4529 79.224 55.3489 79.224C54.1009 79.224 53.1169 79.592 52.3969 80.328C51.6769 81.048 51.3169 82.088 51.3169 83.448V90H49.0129V77.28H51.2209V79.2C51.6849 78.544 52.3089 78.04 53.0929 77.688C53.8929 77.336 54.7969 77.16 55.8049 77.16ZM77.0905 77.28L71.5225 90H69.1705L63.6025 77.28H66.0025L70.3705 87.48L74.8345 77.28H77.0905ZM91.1052 83.712C91.1052 83.888 91.0892 84.12 91.0572 84.408H80.7372C80.8812 85.528 81.3692 86.432 82.2012 87.12C83.0492 87.792 84.0972 88.128 85.3452 88.128C86.8652 88.128 88.0892 87.616 89.0172 86.592L90.2892 88.08C89.7132 88.752 88.9932 89.264 88.1292 89.616C87.2812 89.968 86.3292 90.144 85.2732 90.144C83.9292 90.144 82.7372 89.872 81.6972 89.328C80.6572 88.768 79.8492 87.992 79.2732 87C78.7132 86.008 78.4332 84.888 78.4332 83.64C78.4332 82.408 78.7052 81.296 79.2492 80.304C79.8092 79.312 80.5692 78.544 81.5292 78C82.5052 77.44 83.6012 77.16 84.8172 77.16C86.0332 77.16 87.1132 77.44 88.0572 78C89.0172 78.544 89.7612 79.312 90.2892 80.304C90.8332 81.296 91.1052 82.432 91.1052 83.712ZM84.8172 79.104C83.7132 79.104 82.7852 79.44 82.0332 80.112C81.2972 80.784 80.8652 81.664 80.7372 82.752H88.8972C88.7692 81.68 88.3292 80.808 87.5772 80.136C86.8412 79.448 85.9212 79.104 84.8172 79.104ZM98.6725 90.144C97.6325 90.144 96.6325 90.008 95.6725 89.736C94.7125 89.448 93.9605 89.088 93.4165 88.656L94.3765 86.832C94.9365 87.232 95.6165 87.552 96.4165 87.792C97.2165 88.032 98.0245 88.152 98.8405 88.152C100.856 88.152 101.864 87.576 101.864 86.424C101.864 86.04 101.728 85.736 101.456 85.512C101.184 85.288 100.84 85.128 100.424 85.032C100.024 84.92 99.4485 84.8 98.6965 84.672C97.6725 84.512 96.8325 84.328 96.1765 84.12C95.5365 83.912 94.9845 83.56 94.5205 83.064C94.0565 82.568 93.8245 81.872 93.8245 80.976C93.8245 79.824 94.3045 78.904 95.2645 78.216C96.2245 77.512 97.5125 77.16 99.1285 77.16C99.9765 77.16 100.824 77.264 101.672 77.472C102.52 77.68 103.216 77.96 103.76 78.312L102.776 80.136C101.736 79.464 100.512 79.128 99.1045 79.128C98.1285 79.128 97.3845 79.288 96.8725 79.608C96.3605 79.928 96.1045 80.352 96.1045 80.88C96.1045 81.296 96.2485 81.624 96.5365 81.864C96.8245 82.104 97.1765 82.28 97.5925 82.392C98.0245 82.504 98.6245 82.632 99.3925 82.776C100.416 82.952 101.24 83.144 101.864 83.352C102.504 83.544 103.048 83.88 103.496 84.36C103.944 84.84 104.168 85.512 104.168 86.376C104.168 87.528 103.672 88.448 102.68 89.136C101.704 89.808 100.368 90.144 98.6725 90.144ZM114.92 89.256C114.584 89.544 114.168 89.768 113.672 89.928C113.176 90.072 112.664 90.144 112.136 90.144C110.856 90.144 109.864 89.8 109.16 89.112C108.456 88.424 108.104 87.44 108.104 86.16V79.176H105.944V77.28H108.104V74.496H110.408V77.28H114.056V79.176H110.408V86.064C110.408 86.752 110.576 87.28 110.912 87.648C111.264 88.016 111.76 88.2 112.4 88.2C113.104 88.2 113.704 88 114.2 87.6L114.92 89.256ZM129.5 83.712C129.5 83.888 129.484 84.12 129.452 84.408H119.132C119.276 85.528 119.764 86.432 120.596 87.12C121.444 87.792 122.492 88.128 123.74 88.128C125.26 88.128 126.484 87.616 127.412 86.592L128.684 88.08C128.108 88.752 127.388 89.264 126.524 89.616C125.676 89.968 124.724 90.144 123.668 90.144C122.324 90.144 121.132 89.872 120.092 89.328C119.052 88.768 118.244 87.992 117.668 87C117.108 86.008 116.828 84.888 116.828 83.64C116.828 82.408 117.1 81.296 117.644 80.304C118.204 79.312 118.964 78.544 119.924 78C120.9 77.44 121.996 77.16 123.212 77.16C124.428 77.16 125.508 77.44 126.452 78C127.412 78.544 128.156 79.312 128.684 80.304C129.228 81.296 129.5 82.432 129.5 83.712ZM123.212 79.104C122.108 79.104 121.18 79.44 120.428 80.112C119.692 80.784 119.26 81.664 119.132 82.752H127.292C127.164 81.68 126.724 80.808 125.972 80.136C125.236 79.448 124.316 79.104 123.212 79.104ZM145.419 72.192V90H143.211V87.984C142.699 88.688 142.051 89.224 141.267 89.592C140.483 89.96 139.619 90.144 138.675 90.144C137.443 90.144 136.339 89.872 135.363 89.328C134.387 88.784 133.619 88.024 133.059 87.048C132.515 86.056 132.243 84.92 132.243 83.64C132.243 82.36 132.515 81.232 133.059 80.256C133.619 79.28 134.387 78.52 135.363 77.976C136.339 77.432 137.443 77.16 138.675 77.16C139.587 77.16 140.427 77.336 141.195 77.688C141.963 78.024 142.603 78.528 143.115 79.2V72.192H145.419ZM138.867 88.128C139.667 88.128 140.395 87.944 141.051 87.576C141.707 87.192 142.219 86.664 142.587 85.992C142.955 85.304 143.139 84.52 143.139 83.64C143.139 82.76 142.955 81.984 142.587 81.312C142.219 80.624 141.707 80.096 141.051 79.728C140.395 79.36 139.667 79.176 138.867 79.176C138.051 79.176 137.315 79.36 136.659 79.728C136.019 80.096 135.507 80.624 135.123 81.312C134.755 81.984 134.571 82.76 134.571 83.64C134.571 84.52 134.755 85.304 135.123 85.992C135.507 86.664 136.019 87.192 136.659 87.576C137.315 87.944 138.051 88.128 138.867 88.128Z" fill="black"/>
</svg>
