<svg width="165" height="18" viewBox="0 0 165 18" fill="none" xmlns="http://www.w3.org/2000/svg">
<path d="M6.11216 14.487C5.1107 14.487 4.1394 14.3542 3.19827 14.0888C2.2692 13.8113 1.52112 13.4553 0.95403 13.021L1.94946 10.8129C2.49242 11.2111 3.13794 11.5308 3.88602 11.7722C4.6341 12.0135 5.38218 12.1341 6.13026 12.1341C6.9628 12.1341 7.57816 12.0135 7.97633 11.7722C8.3745 11.5188 8.57359 11.187 8.57359 10.7767C8.57359 10.4751 8.45293 10.2277 8.21161 10.0347C7.98236 9.82956 7.68072 9.66667 7.30668 9.54601C6.9447 9.42535 6.45 9.29263 5.82258 9.14784C4.85732 8.91859 4.06701 8.68934 3.45165 8.46009C2.8363 8.23084 2.3054 7.86283 1.85897 7.35607C1.4246 6.8493 1.20741 6.17362 1.20741 5.32901C1.20741 4.593 1.4065 3.92938 1.80467 3.33815C2.20284 2.73486 2.8001 2.25826 3.59644 1.90836C4.40485 1.55845 5.38821 1.38349 6.54653 1.38349C7.35494 1.38349 8.14525 1.48002 8.91746 1.67307C9.68967 1.86613 10.3654 2.14364 10.9445 2.50561L10.0396 4.73175C8.8692 4.06814 7.69882 3.73633 6.52843 3.73633C5.70796 3.73633 5.09863 3.86905 4.70046 4.1345C4.31436 4.39994 4.1213 4.74985 4.1213 5.18422C4.1213 5.61859 4.34452 5.94437 4.79096 6.16155C5.24946 6.36667 5.94324 6.57179 6.87231 6.77691C7.83757 7.00616 8.62788 7.23541 9.24324 7.46466C9.8586 7.69391 10.3835 8.05588 10.8178 8.55058C11.2643 9.04528 11.4875 9.71493 11.4875 10.5595C11.4875 11.2835 11.2824 11.9471 10.8721 12.5504C10.474 13.1416 9.87066 13.6122 9.06225 13.9621C8.25384 14.312 7.27048 14.487 6.11216 14.487ZM22.9204 9.43742C22.9204 9.47362 22.9023 9.727 22.8661 10.1976H15.4999C15.6326 10.8009 15.9463 11.2775 16.441 11.6274C16.9357 11.9773 17.5511 12.1522 18.2871 12.1522C18.7938 12.1522 19.2403 12.0798 19.6264 11.935C20.0246 11.7782 20.3926 11.5369 20.7304 11.2111L22.2326 12.84C21.3156 13.8897 19.9763 14.4146 18.2147 14.4146C17.1167 14.4146 16.1454 14.2034 15.3008 13.7811C14.4562 13.3467 13.8046 12.7495 13.3461 11.9893C12.8876 11.2292 12.6584 10.3665 12.6584 9.40122C12.6584 8.44802 12.8816 7.59135 13.328 6.8312C13.7865 6.05899 14.4079 5.46174 15.1922 5.03943C15.9885 4.60506 16.8754 4.38788 17.8527 4.38788C18.8059 4.38788 19.6686 4.593 20.4408 5.00323C21.213 5.41347 21.8163 6.0047 22.2507 6.77691C22.6971 7.53705 22.9204 8.42389 22.9204 9.43742ZM17.8708 6.52353C17.2313 6.52353 16.6944 6.70451 16.26 7.06649C15.8257 7.42846 15.5602 7.92316 15.4637 8.55058H20.2598C20.1633 7.93523 19.8979 7.44656 19.4635 7.08459C19.0291 6.71055 18.4982 6.52353 17.8708 6.52353ZM24.8906 0.840531H27.714V14.2698H24.8906V0.840531ZM39.9628 9.43742C39.9628 9.47362 39.9447 9.727 39.9085 10.1976H32.5424C32.6751 10.8009 32.9888 11.2775 33.4835 11.6274C33.9782 11.9773 34.5935 12.1522 35.3296 12.1522C35.8363 12.1522 36.2828 12.0798 36.6689 11.935C37.067 11.7782 37.435 11.5369 37.7729 11.2111L39.2751 12.84C38.3581 13.8897 37.0188 14.4146 35.2572 14.4146C34.1592 14.4146 33.1879 14.2034 32.3433 13.7811C31.4987 13.3467 30.8471 12.7495 30.3886 11.9893C29.9301 11.2292 29.7009 10.3665 29.7009 9.40122C29.7009 8.44802 29.9241 7.59135 30.3705 6.8312C30.829 6.05899 31.4504 5.46174 32.2347 5.03943C33.031 4.60506 33.9179 4.38788 34.8952 4.38788C35.8484 4.38788 36.7111 4.593 37.4833 5.00323C38.2555 5.41347 38.8588 6.0047 39.2932 6.77691C39.7396 7.53705 39.9628 8.42389 39.9628 9.43742ZM34.9133 6.52353C34.2738 6.52353 33.7369 6.70451 33.3025 7.06649C32.8681 7.42846 32.6027 7.92316 32.5062 8.55058H37.3023C37.2058 7.93523 36.9403 7.44656 36.506 7.08459C36.0716 6.71055 35.5407 6.52353 34.9133 6.52353ZM46.6387 14.4146C45.6011 14.4146 44.666 14.2034 43.8334 13.7811C43.0129 13.3467 42.3674 12.7495 41.8968 11.9893C41.4383 11.2292 41.2091 10.3665 41.2091 9.40122C41.2091 8.43596 41.4383 7.57325 41.8968 6.81311C42.3674 6.05296 43.0129 5.46174 43.8334 5.03943C44.666 4.60506 45.6011 4.38788 46.6387 4.38788C47.6643 4.38788 48.5572 4.60506 49.3173 5.03943C50.0895 5.46174 50.6506 6.07106 51.0005 6.8674L48.8106 8.04382C48.3038 7.15095 47.5738 6.70451 46.6206 6.70451C45.8846 6.70451 45.2753 6.94583 44.7926 7.42846C44.31 7.91109 44.0687 8.56868 44.0687 9.40122C44.0687 10.2338 44.31 10.8913 44.7926 11.374C45.2753 11.8566 45.8846 12.0979 46.6206 12.0979C47.5859 12.0979 48.3159 11.6515 48.8106 10.7586L51.0005 11.9531C50.6506 12.7254 50.0895 13.3286 49.3173 13.763C48.5572 14.1974 47.6643 14.4146 46.6387 14.4146ZM59.1383 13.7992C58.8608 14.0043 58.5169 14.1612 58.1067 14.2698C57.7085 14.3663 57.2862 14.4146 56.8397 14.4146C55.6814 14.4146 54.7825 14.119 54.143 13.5277C53.5156 12.9365 53.2019 12.0678 53.2019 10.9215V6.9217H51.6997V4.74985H53.2019V2.37892H56.0253V4.74985H58.4505V6.9217H56.0253V10.8853C56.0253 11.2956 56.1279 11.6153 56.333 11.8445C56.5502 12.0617 56.8518 12.1703 57.2379 12.1703C57.6843 12.1703 58.0644 12.0497 58.3781 11.8084L59.1383 13.7992ZM69.9572 4.38788C71.4654 4.38788 72.6237 4.74985 73.4322 5.4738C74.2406 6.18568 74.6448 7.26557 74.6448 8.71347V14.2698H72.0024V13.0572C71.4715 13.9621 70.4821 14.4146 69.0342 14.4146C68.2861 14.4146 67.6345 14.2879 67.0795 14.0345C66.5365 13.7811 66.1203 13.4312 65.8307 12.9848C65.5411 12.5383 65.3963 12.0316 65.3963 11.4645C65.3963 10.5595 65.7342 9.84766 66.4099 9.32883C67.0976 8.81 68.1534 8.55058 69.5771 8.55058H71.8214C71.8214 7.93523 71.6344 7.46466 71.2603 7.13888C70.8863 6.80104 70.3252 6.63212 69.5771 6.63212C69.0583 6.63212 68.5455 6.71658 68.0387 6.8855C67.544 7.04236 67.1217 7.25954 66.7718 7.53705L65.7583 5.56429C66.2892 5.19025 66.9227 4.90068 67.6587 4.69556C68.4067 4.49044 69.1729 4.38788 69.9572 4.38788ZM69.74 12.5142C70.2227 12.5142 70.651 12.4056 71.025 12.1884C71.3991 11.9592 71.6645 11.6274 71.8214 11.193V10.1976H69.8848C68.7265 10.1976 68.1473 10.5776 68.1473 11.3378C68.1473 11.6998 68.2861 11.9893 68.5636 12.2065C68.8532 12.4116 69.2453 12.5142 69.74 12.5142ZM88.2621 4.38788C89.167 4.38788 89.9875 4.59903 90.7235 5.02133C91.4716 5.43157 92.0568 6.01676 92.4791 6.77691C92.9014 7.52499 93.1125 8.39976 93.1125 9.40122C93.1125 10.4027 92.9014 11.2835 92.4791 12.0436C92.0568 12.7917 91.4716 13.3769 90.7235 13.7992C89.9875 14.2094 89.167 14.4146 88.2621 14.4146C87.0193 14.4146 86.042 14.0224 85.3301 13.2381V17.7809H82.5067V4.53267H85.2034V5.65479C85.9032 4.81018 86.9228 4.38788 88.2621 4.38788ZM87.7734 12.0979C88.4974 12.0979 89.0886 11.8566 89.5471 11.374C90.0176 10.8793 90.2529 10.2217 90.2529 9.40122C90.2529 8.58075 90.0176 7.92919 89.5471 7.44656C89.0886 6.95186 88.4974 6.70451 87.7734 6.70451C87.0495 6.70451 86.4522 6.95186 85.9816 7.44656C85.5231 7.92919 85.2939 8.58075 85.2939 9.40122C85.2939 10.2217 85.5231 10.8793 85.9816 11.374C86.4522 11.8566 87.0495 12.0979 87.7734 12.0979ZM97.7898 5.81768C98.1276 5.34711 98.5801 4.99117 99.1472 4.74985C99.7263 4.50854 100.39 4.38788 101.138 4.38788V6.99409C100.824 6.96996 100.613 6.9579 100.505 6.9579C99.6962 6.9579 99.0627 7.18715 98.6042 7.64565C98.1457 8.09208 97.9165 8.76777 97.9165 9.6727V14.2698H95.0931V4.53267H97.7898V5.81768ZM107.452 14.4146C106.427 14.4146 105.504 14.2034 104.683 13.7811C103.875 13.3467 103.241 12.7495 102.783 11.9893C102.324 11.2292 102.095 10.3665 102.095 9.40122C102.095 8.43596 102.324 7.57325 102.783 6.81311C103.241 6.05296 103.875 5.46174 104.683 5.03943C105.504 4.60506 106.427 4.38788 107.452 4.38788C108.478 4.38788 109.395 4.60506 110.203 5.03943C111.012 5.46174 111.645 6.05296 112.104 6.81311C112.562 7.57325 112.791 8.43596 112.791 9.40122C112.791 10.3665 112.562 11.2292 112.104 11.9893C111.645 12.7495 111.012 13.3467 110.203 13.7811C109.395 14.2034 108.478 14.4146 107.452 14.4146ZM107.452 12.0979C108.176 12.0979 108.767 11.8566 109.226 11.374C109.696 10.8793 109.932 10.2217 109.932 9.40122C109.932 8.58075 109.696 7.92919 109.226 7.44656C108.767 6.95186 108.176 6.70451 107.452 6.70451C106.728 6.70451 106.131 6.95186 105.66 7.44656C105.19 7.92919 104.955 8.58075 104.955 9.40122C104.955 10.2217 105.19 10.8793 105.66 11.374C106.131 11.8566 106.728 12.0979 107.452 12.0979ZM120.524 4.38788C121.429 4.38788 122.25 4.59903 122.986 5.02133C123.734 5.43157 124.319 6.01676 124.741 6.77691C125.164 7.52499 125.375 8.39976 125.375 9.40122C125.375 10.4027 125.164 11.2835 124.741 12.0436C124.319 12.7917 123.734 13.3769 122.986 13.7992C122.25 14.2094 121.429 14.4146 120.524 14.4146C119.282 14.4146 118.304 14.0224 117.592 13.2381V17.7809H114.769V4.53267H117.466V5.65479C118.166 4.81018 119.185 4.38788 120.524 4.38788ZM120.036 12.0979C120.76 12.0979 121.351 11.8566 121.809 11.374C122.28 10.8793 122.515 10.2217 122.515 9.40122C122.515 8.58075 122.28 7.92919 121.809 7.44656C121.351 6.95186 120.76 6.70451 120.036 6.70451C119.312 6.70451 118.715 6.95186 118.244 7.44656C117.786 7.92919 117.556 8.58075 117.556 9.40122C117.556 10.2217 117.786 10.8793 118.244 11.374C118.715 11.8566 119.312 12.0979 120.036 12.0979ZM136.893 9.43742C136.893 9.47362 136.875 9.727 136.839 10.1976H129.473C129.606 10.8009 129.919 11.2775 130.414 11.6274C130.909 11.9773 131.524 12.1522 132.26 12.1522C132.767 12.1522 133.213 12.0798 133.599 11.935C133.998 11.7782 134.366 11.5369 134.704 11.2111L136.206 12.84C135.289 13.8897 133.949 14.4146 132.188 14.4146C131.09 14.4146 130.118 14.2034 129.274 13.7811C128.429 13.3467 127.778 12.7495 127.319 11.9893C126.861 11.2292 126.631 10.3665 126.631 9.40122C126.631 8.44802 126.855 7.59135 127.301 6.8312C127.76 6.05899 128.381 5.46174 129.165 5.03943C129.962 4.60506 130.848 4.38788 131.826 4.38788C132.779 4.38788 133.642 4.593 134.414 5.00323C135.186 5.41347 135.789 6.0047 136.224 6.77691C136.67 7.53705 136.893 8.42389 136.893 9.43742ZM131.844 6.52353C131.204 6.52353 130.667 6.70451 130.233 7.06649C129.799 7.42846 129.533 7.92316 129.437 8.55058H134.233C134.136 7.93523 133.871 7.44656 133.437 7.08459C133.002 6.71055 132.471 6.52353 131.844 6.52353ZM141.56 5.81768C141.898 5.34711 142.351 4.99117 142.918 4.74985C143.497 4.50854 144.161 4.38788 144.909 4.38788V6.99409C144.595 6.96996 144.384 6.9579 144.275 6.9579C143.467 6.9579 142.833 7.18715 142.375 7.64565C141.916 8.09208 141.687 8.76777 141.687 9.6727V14.2698H138.864V4.53267H141.56V5.81768ZM153.294 13.7992C153.016 14.0043 152.673 14.1612 152.262 14.2698C151.864 14.3663 151.442 14.4146 150.995 14.4146C149.837 14.4146 148.938 14.119 148.299 13.5277C147.671 12.9365 147.358 12.0678 147.358 10.9215V6.9217H145.855V4.74985H147.358V2.37892H150.181V4.74985H152.606V6.9217H150.181V10.8853C150.181 11.2956 150.284 11.6153 150.489 11.8445C150.706 12.0617 151.008 12.1703 151.394 12.1703C151.84 12.1703 152.22 12.0497 152.534 11.8084L153.294 13.7992ZM164.457 4.53267L160.059 14.867C159.613 15.9892 159.058 16.7795 158.394 17.238C157.743 17.6965 156.952 17.9257 156.023 17.9257C155.517 17.9257 155.016 17.8473 154.521 17.6904C154.026 17.5336 153.622 17.3164 153.309 17.0389L154.34 15.0299C154.557 15.223 154.805 15.3738 155.082 15.4824C155.372 15.591 155.655 15.6453 155.933 15.6453C156.319 15.6453 156.633 15.5488 156.874 15.3557C157.115 15.1747 157.333 14.867 157.526 14.4327L157.562 14.3422L153.345 4.53267H156.259L158.992 11.1387L161.743 4.53267H164.457Z" fill="#1F1F1F"/>
</svg>
