<svg width="156" height="23" viewBox="0 0 156 23" fill="none" xmlns="http://www.w3.org/2000/svg">
<path d="M8.451 22.324C6.957 22.324 5.508 22.126 4.104 21.73C2.718 21.316 1.602 20.785 0.756 20.137L2.241 16.843C3.051 17.437 4.014 17.914 5.13 18.274C6.246 18.634 7.362 18.814 8.478 18.814C9.72 18.814 10.638 18.634 11.232 18.274C11.826 17.896 12.123 17.401 12.123 16.789C12.123 16.339 11.943 15.97 11.583 15.682C11.241 15.376 10.791 15.133 10.233 14.953C9.693 14.773 8.955 14.575 8.019 14.359C6.579 14.017 5.4 13.675 4.482 13.333C3.564 12.991 2.772 12.442 2.106 11.686C1.458 10.93 1.134 9.922 1.134 8.662C1.134 7.564 1.431 6.574 2.025 5.692C2.619 4.792 3.51 4.081 4.698 3.559C5.904 3.037 7.371 2.776 9.099 2.776C10.305 2.776 11.484 2.92 12.636 3.208C13.788 3.496 14.796 3.91 15.66 4.45L14.31 7.771C12.564 6.781 10.818 6.286 9.072 6.286C7.848 6.286 6.939 6.484 6.345 6.88C5.769 7.276 5.481 7.798 5.481 8.446C5.481 9.094 5.814 9.58 6.48 9.904C7.164 10.21 8.199 10.516 9.585 10.822C11.025 11.164 12.204 11.506 13.122 11.848C14.04 12.19 14.823 12.73 15.471 13.468C16.137 14.206 16.47 15.205 16.47 16.465C16.47 17.545 16.164 18.535 15.552 19.435C14.958 20.317 14.058 21.019 12.852 21.541C11.646 22.063 10.179 22.324 8.451 22.324ZM33.5258 14.791C33.5258 14.845 33.4988 15.223 33.4448 15.925H22.4558C22.6538 16.825 23.1218 17.536 23.8598 18.058C24.5978 18.58 25.5158 18.841 26.6138 18.841C27.3698 18.841 28.0358 18.733 28.6118 18.517C29.2058 18.283 29.7548 17.923 30.2588 17.437L32.4998 19.867C31.1318 21.433 29.1338 22.216 26.5058 22.216C24.8678 22.216 23.4188 21.901 22.1588 21.271C20.8988 20.623 19.9268 19.732 19.2428 18.598C18.5588 17.464 18.2168 16.177 18.2168 14.737C18.2168 13.315 18.5498 12.037 19.2158 10.903C19.8998 9.751 20.8268 8.86 21.9968 8.23C23.1848 7.582 24.5078 7.258 25.9658 7.258C27.3878 7.258 28.6748 7.564 29.8268 8.176C30.9788 8.788 31.8788 9.67 32.5268 10.822C33.1928 11.956 33.5258 13.279 33.5258 14.791ZM25.9928 10.444C25.0388 10.444 24.2378 10.714 23.5898 11.254C22.9418 11.794 22.5458 12.532 22.4018 13.468H29.5568C29.4128 12.55 29.0168 11.821 28.3688 11.281C27.7208 10.723 26.9288 10.444 25.9928 10.444ZM36.465 1.966H40.677V22H36.465V1.966ZM58.9501 14.791C58.9501 14.845 58.9231 15.223 58.8691 15.925H47.8801C48.0781 16.825 48.5461 17.536 49.2841 18.058C50.0221 18.58 50.9401 18.841 52.0381 18.841C52.7941 18.841 53.4601 18.733 54.0361 18.517C54.6301 18.283 55.1791 17.923 55.6831 17.437L57.9241 19.867C56.5561 21.433 54.5581 22.216 51.9301 22.216C50.2921 22.216 48.8431 21.901 47.5831 21.271C46.3231 20.623 45.3511 19.732 44.6671 18.598C43.9831 17.464 43.6411 16.177 43.6411 14.737C43.6411 13.315 43.9741 12.037 44.6401 10.903C45.3241 9.751 46.2511 8.86 47.4211 8.23C48.6091 7.582 49.9321 7.258 51.3901 7.258C52.8121 7.258 54.0991 7.564 55.2511 8.176C56.4031 8.788 57.3031 9.67 57.9511 10.822C58.6171 11.956 58.9501 13.279 58.9501 14.791ZM51.4171 10.444C50.4631 10.444 49.6621 10.714 49.0141 11.254C48.3661 11.794 47.9701 12.532 47.8261 13.468H54.9811C54.8371 12.55 54.4411 11.821 53.7931 11.281C53.1451 10.723 52.3531 10.444 51.4171 10.444ZM68.9093 22.216C67.3613 22.216 65.9663 21.901 64.7243 21.271C63.5003 20.623 62.5373 19.732 61.8353 18.598C61.1513 17.464 60.8093 16.177 60.8093 14.737C60.8093 13.297 61.1513 12.01 61.8353 10.876C62.5373 9.742 63.5003 8.86 64.7243 8.23C65.9663 7.582 67.3613 7.258 68.9093 7.258C70.4393 7.258 71.7713 7.582 72.9053 8.23C74.0573 8.86 74.8943 9.769 75.4163 10.957L72.1493 12.712C71.3933 11.38 70.3043 10.714 68.8823 10.714C67.7843 10.714 66.8753 11.074 66.1553 11.794C65.4353 12.514 65.0753 13.495 65.0753 14.737C65.0753 15.979 65.4353 16.96 66.1553 17.68C66.8753 18.4 67.7843 18.76 68.8823 18.76C70.3223 18.76 71.4113 18.094 72.1493 16.762L75.4163 18.544C74.8943 19.696 74.0573 20.596 72.9053 21.244C71.7713 21.892 70.4393 22.216 68.9093 22.216ZM87.5564 21.298C87.1424 21.604 86.6294 21.838 86.0174 22C85.4234 22.144 84.7934 22.216 84.1274 22.216C82.3994 22.216 81.0584 21.775 80.1044 20.893C79.1684 20.011 78.7004 18.715 78.7004 17.005V11.038H76.4594V7.798H78.7004V4.261H82.9124V7.798H86.5304V11.038H82.9124V16.951C82.9124 17.563 83.0654 18.04 83.3714 18.382C83.6954 18.706 84.1454 18.868 84.7214 18.868C85.3874 18.868 85.9544 18.688 86.4224 18.328L87.5564 21.298ZM106.531 22.324C103.831 22.324 101.725 21.577 100.213 20.083C98.7192 18.589 97.9722 16.456 97.9722 13.684V3.1H102.346V13.522C102.346 16.906 103.75 18.598 106.558 18.598C107.926 18.598 108.97 18.193 109.69 17.383C110.41 16.555 110.77 15.268 110.77 13.522V3.1H115.09V13.684C115.09 16.456 114.334 18.589 112.822 20.083C111.328 21.577 109.231 22.324 106.531 22.324ZM128.08 7.258C129.88 7.258 131.329 7.798 132.427 8.878C133.543 9.958 134.101 11.56 134.101 13.684V22H129.889V14.332C129.889 13.18 129.637 12.325 129.133 11.767C128.629 11.191 127.9 10.903 126.946 10.903C125.884 10.903 125.038 11.236 124.408 11.902C123.778 12.55 123.463 13.522 123.463 14.818V22H119.251V7.474H123.274V9.175C123.832 8.563 124.525 8.095 125.353 7.771C126.181 7.429 127.09 7.258 128.08 7.258ZM138.054 7.474H142.266V22H138.054V7.474ZM140.16 5.449C139.386 5.449 138.756 5.224 138.27 4.774C137.784 4.324 137.541 3.766 137.541 3.1C137.541 2.434 137.784 1.876 138.27 1.426C138.756 0.975999 139.386 0.750998 140.16 0.750998C140.934 0.750998 141.564 0.966999 142.05 1.399C142.536 1.831 142.779 2.371 142.779 3.019C142.779 3.721 142.536 4.306 142.05 4.774C141.564 5.224 140.934 5.449 140.16 5.449ZM155.679 21.298C155.265 21.604 154.752 21.838 154.14 22C153.546 22.144 152.916 22.216 152.25 22.216C150.522 22.216 149.181 21.775 148.227 20.893C147.291 20.011 146.823 18.715 146.823 17.005V11.038H144.582V7.798H146.823V4.261H151.035V7.798H154.653V11.038H151.035V16.951C151.035 17.563 151.188 18.04 151.494 18.382C151.818 18.706 152.268 18.868 152.844 18.868C153.51 18.868 154.077 18.688 154.545 18.328L155.679 21.298Z" fill="#1F1F1F"/>
</svg>
