<svg width="88" height="13" viewBox="0 0 88 13" fill="none" xmlns="http://www.w3.org/2000/svg">
<path d="M4.92525 12.2741C4.08907 12.2741 3.27808 12.1633 2.49228 11.9417C1.71655 11.7099 1.09193 11.4128 0.618437 11.0501L1.44958 9.20646C1.90292 9.53891 2.4419 9.80588 3.06652 10.0074C3.69113 10.2089 4.31574 10.3096 4.94036 10.3096C5.63549 10.3096 6.14928 10.2089 6.48174 10.0074C6.8142 9.79581 6.98042 9.51876 6.98042 9.17623C6.98042 8.92437 6.87968 8.71785 6.67819 8.55666C6.48678 8.38539 6.23492 8.24939 5.92261 8.14864C5.62038 8.0479 5.20733 7.93708 4.68346 7.81619C3.87751 7.62478 3.21763 7.43336 2.70384 7.24195C2.19004 7.05053 1.74677 6.74327 1.37402 6.32014C1.01134 5.89702 0.83 5.33285 0.83 4.62764C0.83 4.0131 0.996228 3.45901 1.32868 2.96536C1.66114 2.46164 2.15982 2.0637 2.82473 1.77155C3.49972 1.47939 4.32078 1.33331 5.28792 1.33331C5.96291 1.33331 6.62278 1.41391 7.26754 1.5751C7.91231 1.73629 8.47647 1.968 8.96004 2.27023L8.20446 4.12896C7.22725 3.57487 6.25003 3.29782 5.27281 3.29782C4.58775 3.29782 4.079 3.40864 3.74654 3.63027C3.42416 3.85191 3.26297 4.14407 3.26297 4.50675C3.26297 4.86943 3.44934 5.14144 3.8221 5.32277C4.20493 5.49404 4.7842 5.6653 5.55993 5.83657C6.36588 6.02798 7.02576 6.2194 7.53955 6.41081C8.05335 6.60222 8.49158 6.90446 8.85426 7.31751C9.22702 7.73056 9.41339 8.28969 9.41339 8.99489C9.41339 9.59936 9.24213 10.1535 8.8996 10.6572C8.56714 11.1508 8.06342 11.5437 7.38844 11.8359C6.71345 12.128 5.89239 12.2741 4.92525 12.2741ZM18.9593 8.05797C18.9593 8.0882 18.9442 8.29976 18.914 8.69266H12.7636C12.8744 9.19638 13.1363 9.59432 13.5494 9.88648C13.9624 10.1786 14.4762 10.3247 15.0908 10.3247C15.5139 10.3247 15.8866 10.2643 16.209 10.1434C16.5415 10.0124 16.8487 9.81092 17.1308 9.53891L18.3851 10.899C17.6194 11.7754 16.5012 12.2137 15.0303 12.2137C14.1135 12.2137 13.3025 12.0374 12.5973 11.6848C11.8921 11.3221 11.3481 10.8234 10.9653 10.1887C10.5825 9.55402 10.391 8.8337 10.391 8.02775C10.391 7.23187 10.5774 6.51659 10.9502 5.8819C11.333 5.23714 11.8518 4.73846 12.5067 4.38585C13.1716 4.02318 13.912 3.84184 14.7281 3.84184C15.5239 3.84184 16.2443 4.0131 16.889 4.35563C17.5338 4.69816 18.0375 5.19181 18.4002 5.83657C18.7729 6.47126 18.9593 7.21172 18.9593 8.05797ZM14.7432 5.62501C14.2092 5.62501 13.7609 5.77612 13.3983 6.07835C13.0356 6.38059 12.8139 6.79364 12.7333 7.31751H16.7379C16.6573 6.80371 16.4357 6.3957 16.073 6.09347C15.7103 5.78116 15.2671 5.62501 14.7432 5.62501ZM20.6044 0.879962H22.9618V12.0928H20.6044V0.879962ZM33.189 8.05797C33.189 8.0882 33.1739 8.29976 33.1437 8.69266H26.9933C27.1041 9.19638 27.366 9.59432 27.7791 9.88648C28.1921 10.1786 28.7059 10.3247 29.3205 10.3247C29.7436 10.3247 30.1163 10.2643 30.4387 10.1434C30.7712 10.0124 31.0784 9.81092 31.3605 9.53891L32.6148 10.899C31.8491 11.7754 30.7309 12.2137 29.26 12.2137C28.3432 12.2137 27.5322 12.0374 26.827 11.6848C26.1218 11.3221 25.5778 10.8234 25.195 10.1887C24.8122 9.55402 24.6207 8.8337 24.6207 8.02775C24.6207 7.23187 24.8071 6.51659 25.1799 5.8819C25.5627 5.23714 26.0815 4.73846 26.7364 4.38585C27.4013 4.02318 28.1417 3.84184 28.9578 3.84184C29.7537 3.84184 30.474 4.0131 31.1187 4.35563C31.7635 4.69816 32.2672 5.19181 32.6299 5.83657C33.0026 6.47126 33.189 7.21172 33.189 8.05797ZM28.9729 5.62501C28.4389 5.62501 27.9906 5.77612 27.628 6.07835C27.2653 6.38059 27.0436 6.79364 26.963 7.31751H30.9676C30.887 6.80371 30.6654 6.3957 30.3027 6.09347C29.94 5.78116 29.4968 5.62501 28.9729 5.62501ZM38.7631 12.2137C37.8967 12.2137 37.1159 12.0374 36.4208 11.6848C35.7357 11.3221 35.1967 10.8234 34.8038 10.1887C34.421 9.55402 34.2296 8.8337 34.2296 8.02775C34.2296 7.2218 34.421 6.50148 34.8038 5.86679C35.1967 5.2321 35.7357 4.73846 36.4208 4.38585C37.1159 4.02318 37.8967 3.84184 38.7631 3.84184C39.6194 3.84184 40.3649 4.02318 40.9996 4.38585C41.6444 4.73846 42.1128 5.24722 42.405 5.91213L40.5765 6.89438C40.1533 6.14888 39.5438 5.77612 38.748 5.77612C38.1334 5.77612 37.6247 5.97761 37.2217 6.38059C36.8187 6.78356 36.6172 7.33262 36.6172 8.02775C36.6172 8.72289 36.8187 9.27194 37.2217 9.67492C37.6247 10.0779 38.1334 10.2794 38.748 10.2794C39.5539 10.2794 40.1634 9.90663 40.5765 9.16112L42.405 10.1585C42.1128 10.8032 41.6444 11.307 40.9996 11.6696C40.3649 12.0323 39.6194 12.2137 38.7631 12.2137ZM49.1996 11.6999C48.9679 11.8711 48.6808 12.0021 48.3383 12.0928C48.0058 12.1734 47.6532 12.2137 47.2805 12.2137C46.3133 12.2137 45.5628 11.9668 45.0288 11.4732C44.505 10.9796 44.243 10.2542 44.243 9.29713V5.95746H42.9888V4.14407H44.243V2.16445H46.6005V4.14407H48.6254V5.95746H46.6005V9.2669C46.6005 9.60943 46.6861 9.8764 46.8573 10.0678C47.0387 10.2492 47.2905 10.3398 47.6129 10.3398C47.9857 10.3398 48.303 10.2391 48.565 10.0376L49.1996 11.6999ZM59.8197 12.2741C58.3085 12.2741 57.1298 11.856 56.2836 11.0198C55.4474 10.1837 55.0293 8.98986 55.0293 7.4384V1.51465H57.4774V7.34773C57.4774 9.24172 58.2632 10.1887 59.8348 10.1887C60.6004 10.1887 61.1848 9.96204 61.5877 9.50869C61.9907 9.04527 62.1922 8.32495 62.1922 7.34773V1.51465H64.6101V7.4384C64.6101 8.98986 64.1869 10.1837 63.3407 11.0198C62.5045 11.856 61.3308 12.2741 59.8197 12.2741ZM71.88 3.84184C72.8875 3.84184 73.6985 4.14407 74.313 4.74853C74.9376 5.353 75.2499 6.24962 75.2499 7.4384V12.0928H72.8925V7.80108C72.8925 7.15632 72.7515 6.67778 72.4694 6.36548C72.1873 6.04309 71.7793 5.8819 71.2454 5.8819C70.651 5.8819 70.1775 6.06828 69.8249 6.44103C69.4723 6.80371 69.296 7.34773 69.296 8.07309V12.0928H66.9385V3.96273H69.1902V4.91476C69.5025 4.57223 69.8903 4.3103 70.3538 4.12896C70.8172 3.93754 71.3259 3.84184 71.88 3.84184ZM77.4624 3.96273H79.8198V12.0928H77.4624V3.96273ZM78.6411 2.82936C78.2079 2.82936 77.8553 2.70343 77.5833 2.45157C77.3112 2.19971 77.1752 1.8874 77.1752 1.51465C77.1752 1.1419 77.3112 0.82959 77.5833 0.57773C77.8553 0.32587 78.2079 0.19994 78.6411 0.19994C79.0743 0.19994 79.4269 0.320833 79.6989 0.562619C79.9709 0.804404 80.1069 1.10664 80.1069 1.46932C80.1069 1.86222 79.9709 2.18963 79.6989 2.45157C79.4269 2.70343 79.0743 2.82936 78.6411 2.82936ZM87.3269 11.6999C87.0952 11.8711 86.8081 12.0021 86.4656 12.0928C86.1331 12.1734 85.7805 12.2137 85.4078 12.2137C84.4406 12.2137 83.6901 11.9668 83.1561 11.4732C82.6323 10.9796 82.3703 10.2542 82.3703 9.29713V5.95746H81.1161V4.14407H82.3703V2.16445H84.7277V4.14407H86.7527V5.95746H84.7277V9.2669C84.7277 9.60943 84.8134 9.8764 84.9846 10.0678C85.166 10.2492 85.4178 10.3398 85.7402 10.3398C86.113 10.3398 86.4303 10.2391 86.6923 10.0376L87.3269 11.6999Z" fill="#1F1F1F"/>
</svg>
