<svg width="245" height="26" viewBox="0 0 245 26" fill="none" xmlns="http://www.w3.org/2000/svg">
<path d="M8.451 20.5647C6.957 20.5647 5.508 20.3667 4.104 19.9707C2.718 19.5567 1.602 19.0257 0.756 18.3777L2.241 15.0837C3.051 15.6777 4.014 16.1547 5.13 16.5147C6.246 16.8747 7.362 17.0547 8.478 17.0547C9.72 17.0547 10.638 16.8747 11.232 16.5147C11.826 16.1367 12.123 15.6417 12.123 15.0297C12.123 14.5797 11.943 14.2107 11.583 13.9227C11.241 13.6167 10.791 13.3737 10.233 13.1937C9.693 13.0137 8.955 12.8157 8.019 12.5997C6.579 12.2577 5.4 11.9157 4.482 11.5737C3.564 11.2317 2.772 10.6827 2.106 9.92672C1.458 9.17072 1.134 8.16272 1.134 6.90272C1.134 5.80472 1.431 4.81472 2.025 3.93272C2.619 3.03272 3.51 2.32172 4.698 1.79972C5.904 1.27772 7.371 1.01672 9.099 1.01672C10.305 1.01672 11.484 1.16072 12.636 1.44872C13.788 1.73672 14.796 2.15072 15.66 2.69072L14.31 6.01172C12.564 5.02172 10.818 4.52672 9.072 4.52672C7.848 4.52672 6.939 4.72472 6.345 5.12072C5.769 5.51672 5.481 6.03872 5.481 6.68672C5.481 7.33472 5.814 7.82072 6.48 8.14472C7.164 8.45072 8.199 8.75672 9.585 9.06272C11.025 9.40472 12.204 9.74672 13.122 10.0887C14.04 10.4307 14.823 10.9707 15.471 11.7087C16.137 12.4467 16.47 13.4457 16.47 14.7057C16.47 15.7857 16.164 16.7757 15.552 17.6757C14.958 18.5577 14.058 19.2597 12.852 19.7817C11.646 20.3037 10.179 20.5647 8.451 20.5647ZM33.5258 13.0317C33.5258 13.0857 33.4988 13.4637 33.4448 14.1657H22.4558C22.6538 15.0657 23.1218 15.7767 23.8598 16.2987C24.5978 16.8207 25.5158 17.0817 26.6138 17.0817C27.3698 17.0817 28.0358 16.9737 28.6118 16.7577C29.2058 16.5237 29.7548 16.1637 30.2588 15.6777L32.4998 18.1077C31.1318 19.6737 29.1338 20.4567 26.5058 20.4567C24.8678 20.4567 23.4188 20.1417 22.1588 19.5117C20.8988 18.8637 19.9268 17.9727 19.2428 16.8387C18.5588 15.7047 18.2168 14.4177 18.2168 12.9777C18.2168 11.5557 18.5498 10.2777 19.2158 9.14372C19.8998 7.99172 20.8268 7.10072 21.9968 6.47072C23.1848 5.82272 24.5078 5.49872 25.9658 5.49872C27.3878 5.49872 28.6748 5.80472 29.8268 6.41672C30.9788 7.02872 31.8788 7.91072 32.5268 9.06272C33.1928 10.1967 33.5258 11.5197 33.5258 13.0317ZM25.9928 8.68472C25.0388 8.68472 24.2378 8.95472 23.5898 9.49472C22.9418 10.0347 22.5458 10.7727 22.4018 11.7087H29.5568C29.4128 10.7907 29.0168 10.0617 28.3688 9.52172C27.7208 8.96372 26.9288 8.68472 25.9928 8.68472ZM36.465 0.206721H40.677V20.2407H36.465V0.206721ZM58.9501 13.0317C58.9501 13.0857 58.9231 13.4637 58.8691 14.1657H47.8801C48.0781 15.0657 48.5461 15.7767 49.2841 16.2987C50.0221 16.8207 50.9401 17.0817 52.0381 17.0817C52.7941 17.0817 53.4601 16.9737 54.0361 16.7577C54.6301 16.5237 55.1791 16.1637 55.6831 15.6777L57.9241 18.1077C56.5561 19.6737 54.5581 20.4567 51.9301 20.4567C50.2921 20.4567 48.8431 20.1417 47.5831 19.5117C46.3231 18.8637 45.3511 17.9727 44.6671 16.8387C43.9831 15.7047 43.6411 14.4177 43.6411 12.9777C43.6411 11.5557 43.9741 10.2777 44.6401 9.14372C45.3241 7.99172 46.2511 7.10072 47.4211 6.47072C48.6091 5.82272 49.9321 5.49872 51.3901 5.49872C52.8121 5.49872 54.0991 5.80472 55.2511 6.41672C56.4031 7.02872 57.3031 7.91072 57.9511 9.06272C58.6171 10.1967 58.9501 11.5197 58.9501 13.0317ZM51.4171 8.68472C50.4631 8.68472 49.6621 8.95472 49.0141 9.49472C48.3661 10.0347 47.9701 10.7727 47.8261 11.7087H54.9811C54.8371 10.7907 54.4411 10.0617 53.7931 9.52172C53.1451 8.96372 52.3531 8.68472 51.4171 8.68472ZM68.9093 20.4567C67.3613 20.4567 65.9663 20.1417 64.7243 19.5117C63.5003 18.8637 62.5373 17.9727 61.8353 16.8387C61.1513 15.7047 60.8093 14.4177 60.8093 12.9777C60.8093 11.5377 61.1513 10.2507 61.8353 9.11672C62.5373 7.98272 63.5003 7.10072 64.7243 6.47072C65.9663 5.82272 67.3613 5.49872 68.9093 5.49872C70.4393 5.49872 71.7713 5.82272 72.9053 6.47072C74.0573 7.10072 74.8943 8.00972 75.4163 9.19772L72.1493 10.9527C71.3933 9.62072 70.3043 8.95472 68.8823 8.95472C67.7843 8.95472 66.8753 9.31472 66.1553 10.0347C65.4353 10.7547 65.0753 11.7357 65.0753 12.9777C65.0753 14.2197 65.4353 15.2007 66.1553 15.9207C66.8753 16.6407 67.7843 17.0007 68.8823 17.0007C70.3223 17.0007 71.4113 16.3347 72.1493 15.0027L75.4163 16.7847C74.8943 17.9367 74.0573 18.8367 72.9053 19.4847C71.7713 20.1327 70.4393 20.4567 68.9093 20.4567ZM87.5564 19.5387C87.1424 19.8447 86.6294 20.0787 86.0174 20.2407C85.4234 20.3847 84.7934 20.4567 84.1274 20.4567C82.3994 20.4567 81.0584 20.0157 80.1044 19.1337C79.1684 18.2517 78.7004 16.9557 78.7004 15.2457V9.27872H76.4594V6.03872H78.7004V2.50172H82.9124V6.03872H86.5304V9.27872H82.9124V15.1917C82.9124 15.8037 83.0654 16.2807 83.3714 16.6227C83.6954 16.9467 84.1454 17.1087 84.7214 17.1087C85.3874 17.1087 85.9544 16.9287 86.4224 16.5687L87.5564 19.5387ZM103.696 5.49872C105.946 5.49872 107.674 6.03872 108.88 7.11872C110.086 8.18072 110.689 9.79172 110.689 11.9517V20.2407H106.747V18.4317C105.955 19.7817 104.479 20.4567 102.319 20.4567C101.203 20.4567 100.231 20.2677 99.4032 19.8897C98.5932 19.5117 97.9722 18.9897 97.5402 18.3237C97.1082 17.6577 96.8922 16.9017 96.8922 16.0557C96.8922 14.7057 97.3962 13.6437 98.4042 12.8697C99.4302 12.0957 101.005 11.7087 103.129 11.7087H106.477C106.477 10.7907 106.198 10.0887 105.64 9.60272C105.082 9.09872 104.245 8.84672 103.129 8.84672C102.355 8.84672 101.59 8.97272 100.834 9.22472C100.096 9.45872 99.4662 9.78272 98.9442 10.1967L97.4322 7.25372C98.2242 6.69572 99.1692 6.26372 100.267 5.95772C101.383 5.65172 102.526 5.49872 103.696 5.49872ZM103.372 17.6217C104.092 17.6217 104.731 17.4597 105.289 17.1357C105.847 16.7937 106.243 16.2987 106.477 15.6507V14.1657H103.588C101.86 14.1657 100.996 14.7327 100.996 15.8667C100.996 16.4067 101.203 16.8387 101.617 17.1627C102.049 17.4687 102.634 17.6217 103.372 17.6217ZM131.004 5.49872C132.354 5.49872 133.578 5.81372 134.676 6.44372C135.792 7.05572 136.665 7.92872 137.295 9.06272C137.925 10.1787 138.24 11.4837 138.24 12.9777C138.24 14.4717 137.925 15.7857 137.295 16.9197C136.665 18.0357 135.792 18.9087 134.676 19.5387C133.578 20.1507 132.354 20.4567 131.004 20.4567C129.15 20.4567 127.692 19.8717 126.63 18.7017V25.4787H122.418V5.71472H126.441V7.38872C127.485 6.12872 129.006 5.49872 131.004 5.49872ZM130.275 17.0007C131.355 17.0007 132.237 16.6407 132.921 15.9207C133.623 15.1827 133.974 14.2017 133.974 12.9777C133.974 11.7537 133.623 10.7817 132.921 10.0617C132.237 9.32372 131.355 8.95472 130.275 8.95472C129.195 8.95472 128.304 9.32372 127.602 10.0617C126.918 10.7817 126.576 11.7537 126.576 12.9777C126.576 14.2017 126.918 15.1827 127.602 15.9207C128.304 16.6407 129.195 17.0007 130.275 17.0007ZM145.217 7.63172C145.721 6.92972 146.396 6.39872 147.242 6.03872C148.106 5.67872 149.096 5.49872 150.212 5.49872V9.38672C149.744 9.35072 149.429 9.33272 149.267 9.33272C148.061 9.33272 147.116 9.67472 146.432 10.3587C145.748 11.0247 145.406 12.0327 145.406 13.3827V20.2407H141.194V5.71472H145.217V7.63172ZM159.632 20.4567C158.102 20.4567 156.725 20.1417 155.501 19.5117C154.295 18.8637 153.35 17.9727 152.666 16.8387C151.982 15.7047 151.64 14.4177 151.64 12.9777C151.64 11.5377 151.982 10.2507 152.666 9.11672C153.35 7.98272 154.295 7.10072 155.501 6.47072C156.725 5.82272 158.102 5.49872 159.632 5.49872C161.162 5.49872 162.53 5.82272 163.736 6.47072C164.942 7.10072 165.887 7.98272 166.571 9.11672C167.255 10.2507 167.597 11.5377 167.597 12.9777C167.597 14.4177 167.255 15.7047 166.571 16.8387C165.887 17.9727 164.942 18.8637 163.736 19.5117C162.53 20.1417 161.162 20.4567 159.632 20.4567ZM159.632 17.0007C160.712 17.0007 161.594 16.6407 162.278 15.9207C162.98 15.1827 163.331 14.2017 163.331 12.9777C163.331 11.7537 162.98 10.7817 162.278 10.0617C161.594 9.32372 160.712 8.95472 159.632 8.95472C158.552 8.95472 157.661 9.32372 156.959 10.0617C156.257 10.7817 155.906 11.7537 155.906 12.9777C155.906 14.2017 156.257 15.1827 156.959 15.9207C157.661 16.6407 158.552 17.0007 159.632 17.0007ZM179.133 5.49872C180.483 5.49872 181.707 5.81372 182.805 6.44372C183.921 7.05572 184.794 7.92872 185.424 9.06272C186.054 10.1787 186.369 11.4837 186.369 12.9777C186.369 14.4717 186.054 15.7857 185.424 16.9197C184.794 18.0357 183.921 18.9087 182.805 19.5387C181.707 20.1507 180.483 20.4567 179.133 20.4567C177.279 20.4567 175.821 19.8717 174.759 18.7017V25.4787H170.547V5.71472H174.57V7.38872C175.614 6.12872 177.135 5.49872 179.133 5.49872ZM178.404 17.0007C179.484 17.0007 180.366 16.6407 181.05 15.9207C181.752 15.1827 182.103 14.2017 182.103 12.9777C182.103 11.7537 181.752 10.7817 181.05 10.0617C180.366 9.32372 179.484 8.95472 178.404 8.95472C177.324 8.95472 176.433 9.32372 175.731 10.0617C175.047 10.7817 174.705 11.7537 174.705 12.9777C174.705 14.2017 175.047 15.1827 175.731 15.9207C176.433 16.6407 177.324 17.0007 178.404 17.0007ZM203.553 13.0317C203.553 13.0857 203.526 13.4637 203.472 14.1657H192.483C192.681 15.0657 193.149 15.7767 193.887 16.2987C194.625 16.8207 195.543 17.0817 196.641 17.0817C197.397 17.0817 198.063 16.9737 198.639 16.7577C199.233 16.5237 199.782 16.1637 200.286 15.6777L202.527 18.1077C201.159 19.6737 199.161 20.4567 196.533 20.4567C194.895 20.4567 193.446 20.1417 192.186 19.5117C190.926 18.8637 189.954 17.9727 189.27 16.8387C188.586 15.7047 188.244 14.4177 188.244 12.9777C188.244 11.5557 188.577 10.2777 189.243 9.14372C189.927 7.99172 190.854 7.10072 192.024 6.47072C193.212 5.82272 194.535 5.49872 195.993 5.49872C197.415 5.49872 198.702 5.80472 199.854 6.41672C201.006 7.02872 201.906 7.91072 202.554 9.06272C203.22 10.1967 203.553 11.5197 203.553 13.0317ZM196.02 8.68472C195.066 8.68472 194.265 8.95472 193.617 9.49472C192.969 10.0347 192.573 10.7727 192.429 11.7087H199.584C199.44 10.7907 199.044 10.0617 198.396 9.52172C197.748 8.96372 196.956 8.68472 196.02 8.68472ZM210.515 7.63172C211.019 6.92972 211.694 6.39872 212.54 6.03872C213.404 5.67872 214.394 5.49872 215.51 5.49872V9.38672C215.042 9.35072 214.727 9.33272 214.565 9.33272C213.359 9.33272 212.414 9.67472 211.73 10.3587C211.046 11.0247 210.704 12.0327 210.704 13.3827V20.2407H206.492V5.71472H210.515V7.63172ZM228.02 19.5387C227.606 19.8447 227.093 20.0787 226.481 20.2407C225.887 20.3847 225.257 20.4567 224.591 20.4567C222.863 20.4567 221.522 20.0157 220.568 19.1337C219.632 18.2517 219.164 16.9557 219.164 15.2457V9.27872H216.923V6.03872H219.164V2.50172H223.376V6.03872H226.994V9.27872H223.376V15.1917C223.376 15.8037 223.529 16.2807 223.835 16.6227C224.159 16.9467 224.609 17.1087 225.185 17.1087C225.851 17.1087 226.418 16.9287 226.886 16.5687L228.02 19.5387ZM244.673 5.71472L238.112 21.1317C237.446 22.8057 236.618 23.9847 235.628 24.6687C234.656 25.3527 233.477 25.6947 232.091 25.6947C231.335 25.6947 230.588 25.5777 229.85 25.3437C229.112 25.1097 228.509 24.7857 228.041 24.3717L229.58 21.3747C229.904 21.6627 230.273 21.8877 230.687 22.0497C231.119 22.2117 231.542 22.2927 231.956 22.2927C232.532 22.2927 233 22.1487 233.36 21.8607C233.72 21.5907 234.044 21.1317 234.332 20.4837L234.386 20.3487L228.095 5.71472H232.442L236.519 15.5697L240.623 5.71472H244.673Z" fill="#1F1F1F"/>
</svg>
