<svg width="105" height="51" viewBox="0 0 105 51" fill="none" xmlns="http://www.w3.org/2000/svg">
<path d="M3.71357 10.461C3.00612 10.461 2.32106 10.3535 1.65839 10.1386C1.00467 9.91472 0.489757 9.62816 0.113646 9.27891L0.61065 8.23117C0.968851 8.55356 1.42556 8.81773 1.98077 9.02369C2.54494 9.2207 3.12253 9.31921 3.71357 9.31921C4.49265 9.31921 5.07473 9.18936 5.4598 8.92967C5.84486 8.66102 6.0374 8.30729 6.0374 7.8685C6.0374 7.54612 5.92993 7.28642 5.71501 7.08941C5.50905 6.88344 5.24935 6.72673 4.93593 6.61927C4.63146 6.51181 4.19714 6.39092 3.63297 6.25659C2.92552 6.08645 2.3524 5.9163 1.91361 5.74616C1.48376 5.57601 1.11213 5.31631 0.798706 4.96707C0.494235 4.60887 0.341999 4.12977 0.341999 3.52979C0.341999 3.02831 0.471847 2.57608 0.731543 2.1731C1.00019 1.77012 1.40317 1.44774 1.94047 1.20596C2.47777 0.964172 3.14492 0.843279 3.94192 0.843279C4.49713 0.843279 5.04339 0.914919 5.58069 1.0582C6.11799 1.20148 6.57917 1.40745 6.96424 1.6761L6.52097 2.7507C6.12695 2.49996 5.70606 2.3119 5.25831 2.18653C4.81056 2.05221 4.37176 1.98504 3.94192 1.98504C3.18074 1.98504 2.60762 2.12385 2.22255 2.40145C1.84644 2.67906 1.65839 3.03726 1.65839 3.47606C1.65839 3.79844 1.76585 4.06261 1.98077 4.26858C2.19569 4.46559 2.45986 4.6223 2.77329 4.73871C3.09567 4.84618 3.52999 4.96259 4.07624 5.08796C4.78369 5.25811 5.35234 5.42825 5.78218 5.5984C6.21202 5.76854 6.57917 6.02824 6.88364 6.37748C7.19707 6.72673 7.35378 7.19687 7.35378 7.7879C7.35378 8.28043 7.21946 8.73266 6.95081 9.14459C6.68216 9.54756 6.2747 9.86994 5.72845 10.1117C5.18219 10.3446 4.51056 10.461 3.71357 10.461ZM15.9653 6.83419C15.9653 6.9327 15.9563 7.06254 15.9384 7.22373H10.1624C10.243 7.85059 10.5162 8.35655 10.9818 8.74161C11.4564 9.11772 12.043 9.30578 12.7415 9.30578C13.5922 9.30578 14.2773 9.01922 14.7967 8.4461L15.5086 9.27891C15.1862 9.65502 14.7832 9.94158 14.2997 10.1386C13.825 10.3356 13.2922 10.4341 12.7012 10.4341C11.949 10.4341 11.2818 10.2819 10.6997 9.9774C10.1177 9.66398 9.66544 9.22966 9.34306 8.67445C9.02963 8.11924 8.87292 7.49239 8.87292 6.79389C8.87292 6.10436 9.02516 5.48198 9.32963 4.92677C9.64305 4.37156 10.0684 3.94172 10.6057 3.63725C11.152 3.32382 11.7654 3.16711 12.446 3.16711C13.1266 3.16711 13.731 3.32382 14.2594 3.63725C14.7967 3.94172 15.2131 4.37156 15.5086 4.92677C15.8131 5.48198 15.9653 6.11779 15.9653 6.83419ZM12.446 4.25514C11.8281 4.25514 11.3087 4.4432 10.8878 4.81931C10.4759 5.19542 10.2341 5.68795 10.1624 6.29689H14.7295C14.6579 5.6969 14.4116 5.20885 13.9907 4.83274C13.5788 4.44768 13.0639 4.25514 12.446 4.25514ZM18.1589 0.386573H19.4484V10.3535H18.1589V0.386573ZM28.7477 6.83419C28.7477 6.9327 28.7388 7.06254 28.7209 7.22373H22.9449C23.0255 7.85059 23.2986 8.35655 23.7643 8.74161C24.2389 9.11772 24.8254 9.30578 25.5239 9.30578C26.3746 9.30578 27.0597 9.01922 27.5791 8.4461L28.291 9.27891C27.9686 9.65502 27.5657 9.94158 27.0821 10.1386C26.6075 10.3356 26.0746 10.4341 25.4836 10.4341C24.7314 10.4341 24.0642 10.2819 23.4822 9.9774C22.9001 9.66398 22.4479 9.22966 22.1255 8.67445C21.8121 8.11924 21.6553 7.49239 21.6553 6.79389C21.6553 6.10436 21.8076 5.48198 22.112 4.92677C22.4255 4.37156 22.8508 3.94172 23.3881 3.63725C23.9344 3.32382 24.5478 3.16711 25.2284 3.16711C25.909 3.16711 26.5134 3.32382 27.0418 3.63725C27.5791 3.94172 27.9955 4.37156 28.291 4.92677C28.5955 5.48198 28.7477 6.11779 28.7477 6.83419ZM25.2284 4.25514C24.6105 4.25514 24.0911 4.4432 23.6702 4.81931C23.2583 5.19542 23.0165 5.68795 22.9449 6.29689H27.5119C27.4403 5.6969 27.194 5.20885 26.7731 4.83274C26.3612 4.44768 25.8463 4.25514 25.2284 4.25514ZM34.0442 10.4341C33.3189 10.4341 32.6696 10.2774 32.0965 9.96397C31.5323 9.65055 31.0891 9.2207 30.7667 8.67445C30.4443 8.11924 30.2831 7.49239 30.2831 6.79389C30.2831 6.0954 30.4443 5.47303 30.7667 4.92677C31.0891 4.37156 31.5323 3.94172 32.0965 3.63725C32.6696 3.32382 33.3189 3.16711 34.0442 3.16711C34.689 3.16711 35.2621 3.29696 35.7636 3.55665C36.274 3.81635 36.6681 4.19246 36.9457 4.68498L35.9651 5.31631C35.7412 4.97602 35.4636 4.7208 35.1323 4.55066C34.8009 4.38051 34.4338 4.29544 34.0308 4.29544C33.5651 4.29544 33.1443 4.39842 32.7681 4.60439C32.401 4.81035 32.1099 5.10587 31.895 5.49094C31.6891 5.86705 31.5861 6.30137 31.5861 6.79389C31.5861 7.29537 31.6891 7.73865 31.895 8.12371C32.1099 8.49983 32.401 8.79086 32.7681 8.99683C33.1443 9.20279 33.5651 9.30578 34.0308 9.30578C34.4338 9.30578 34.8009 9.2207 35.1323 9.05056C35.4636 8.88041 35.7412 8.6252 35.9651 8.2849L36.9457 8.9028C36.6681 9.39533 36.274 9.77592 35.7636 10.0446C35.2621 10.3043 34.689 10.4341 34.0442 10.4341ZM43.1129 9.93711C42.9248 10.0983 42.692 10.2237 42.4144 10.3132C42.1368 10.3938 41.8502 10.4341 41.5547 10.4341C40.8383 10.4341 40.2831 10.2416 39.8891 9.85651C39.495 9.47145 39.298 8.92071 39.298 8.20431V4.29544H38.0891V3.23427H39.298V1.6761H40.5876V3.23427H42.6293V4.29544H40.5876V8.15058C40.5876 8.53565 40.6816 8.83116 40.8696 9.03713C41.0667 9.24309 41.3443 9.34608 41.7025 9.34608C42.0965 9.34608 42.4323 9.23414 42.7099 9.01026L43.1129 9.93711ZM51.6777 3.16711C52.6627 3.16711 53.415 3.40889 53.9344 3.89246C54.4627 4.37604 54.7269 5.09692 54.7269 6.0551V10.3535H53.5045V9.41324C53.2896 9.74457 52.9807 9.99979 52.5777 10.1789C52.1837 10.349 51.7135 10.4341 51.1673 10.4341C50.3703 10.4341 49.73 10.2416 49.2464 9.85651C48.7718 9.47145 48.5345 8.96549 48.5345 8.33863C48.5345 7.71178 48.7628 7.2103 49.2195 6.83419C49.6762 6.44912 50.4016 6.25659 51.3956 6.25659H53.4374V6.00137C53.4374 5.44616 53.2762 5.0208 52.9538 4.72528C52.6314 4.42977 52.1568 4.28201 51.5299 4.28201C51.1091 4.28201 50.6971 4.35365 50.2941 4.49693C49.8912 4.63125 49.5509 4.81483 49.2733 5.04766L48.736 4.08052C49.1031 3.785 49.5419 3.56113 50.0524 3.40889C50.5628 3.2477 51.1046 3.16711 51.6777 3.16711ZM51.3822 9.4401C51.8747 9.4401 52.3001 9.33264 52.6583 9.11772C53.0165 8.89385 53.2762 8.58042 53.4374 8.17744V7.18344H51.4493C50.3568 7.18344 49.8106 7.55059 49.8106 8.2849C49.8106 8.64311 49.9494 8.92519 50.227 9.13115C50.5046 9.33712 50.8897 9.4401 51.3822 9.4401ZM66.422 3.16711C67.3175 3.16711 68.025 3.4268 68.5443 3.9462C69.0727 4.46559 69.3369 5.23572 69.3369 6.25659V10.3535H68.0473V6.40435C68.0473 5.71481 67.8861 5.19542 67.5638 4.84618C67.2503 4.49693 66.7981 4.32231 66.2071 4.32231C65.5534 4.32231 65.034 4.52827 64.6489 4.9402C64.2638 5.34318 64.0713 5.92526 64.0713 6.68643V10.3535H62.7818V6.40435C62.7818 5.71481 62.6206 5.19542 62.2982 4.84618C61.9848 4.49693 61.5326 4.32231 60.9415 4.32231C60.2878 4.32231 59.7684 4.52827 59.3834 4.9402C58.9983 5.34318 58.8058 5.92526 58.8058 6.68643V10.3535H57.5162V3.23427H58.752V4.29544C59.0117 3.92829 59.352 3.65068 59.7729 3.46262C60.1938 3.26561 60.6729 3.16711 61.2102 3.16711C61.7654 3.16711 62.2579 3.27905 62.6878 3.50292C63.1176 3.7268 63.4489 4.05366 63.6818 4.4835C63.9504 4.07157 64.322 3.74918 64.7967 3.51635C65.2802 3.28352 65.822 3.16711 66.422 3.16711ZM75.2011 10.4341C74.4937 10.4341 73.8579 10.2774 73.2937 9.96397C72.7295 9.65055 72.2863 9.2207 71.9639 8.67445C71.6504 8.11924 71.4937 7.49239 71.4937 6.79389C71.4937 6.0954 71.6504 5.47303 71.9639 4.92677C72.2863 4.37156 72.7295 3.94172 73.2937 3.63725C73.8579 3.32382 74.4937 3.16711 75.2011 3.16711C75.9086 3.16711 76.5399 3.32382 77.0951 3.63725C77.6593 3.94172 78.0981 4.37156 78.4115 4.92677C78.7339 5.47303 78.8951 6.0954 78.8951 6.79389C78.8951 7.49239 78.7339 8.11924 78.4115 8.67445C78.0981 9.2207 77.6593 9.65055 77.0951 9.96397C76.5399 10.2774 75.9086 10.4341 75.2011 10.4341ZM75.2011 9.30578C75.6578 9.30578 76.0653 9.20279 76.4235 8.99683C76.7906 8.78191 77.0772 8.48639 77.2832 8.11028C77.4891 7.72522 77.5921 7.28642 77.5921 6.79389C77.5921 6.30137 77.4891 5.86705 77.2832 5.49094C77.0772 5.10587 76.7906 4.81035 76.4235 4.60439C76.0653 4.39842 75.6578 4.29544 75.2011 4.29544C74.7444 4.29544 74.3325 4.39842 73.9653 4.60439C73.6071 4.81035 73.3206 5.10587 73.1056 5.49094C72.8997 5.86705 72.7967 6.30137 72.7967 6.79389C72.7967 7.28642 72.8997 7.72522 73.1056 8.11028C73.3206 8.48639 73.6071 8.78191 73.9653 8.99683C74.3325 9.20279 74.7444 9.30578 75.2011 9.30578ZM87.7171 3.23427V10.3535H86.4947V9.27891C86.235 9.64607 85.8903 9.93263 85.4604 10.1386C85.0395 10.3356 84.5784 10.4341 84.0769 10.4341C83.1276 10.4341 82.3799 10.1744 81.8336 9.65502C81.2874 9.12668 81.0143 8.35207 81.0143 7.33119V3.23427H82.3038V7.18344C82.3038 7.87297 82.4694 8.39684 82.8008 8.75504C83.1321 9.10429 83.6067 9.27891 84.2246 9.27891C84.9052 9.27891 85.4425 9.07295 85.8365 8.66102C86.2306 8.24908 86.4276 7.66701 86.4276 6.91479V3.23427H87.7171ZM94.3764 3.16711C95.2808 3.16711 95.9972 3.43128 96.5256 3.95963C97.0629 4.47902 97.3315 5.24467 97.3315 6.25659V10.3535H96.042V6.40435C96.042 5.71481 95.8763 5.19542 95.545 4.84618C95.2137 4.49693 94.739 4.32231 94.1212 4.32231C93.4227 4.32231 92.8719 4.52827 92.4689 4.9402C92.066 5.34318 91.8645 5.92526 91.8645 6.68643V10.3535H90.575V3.23427H91.8108V4.30887C92.0705 3.94172 92.4197 3.65963 92.8585 3.46262C93.3062 3.26561 93.8122 3.16711 94.3764 3.16711ZM104.124 9.93711C103.936 10.0983 103.703 10.2237 103.425 10.3132C103.148 10.3938 102.861 10.4341 102.566 10.4341C101.849 10.4341 101.294 10.2416 100.9 9.85651C100.506 9.47145 100.309 8.92071 100.309 8.20431V4.29544H99.1001V3.23427H100.309V1.6761H101.599V3.23427H103.64V4.29544H101.599V8.15058C101.599 8.53565 101.693 8.83116 101.881 9.03713C102.078 9.24309 102.355 9.34608 102.713 9.34608C103.107 9.34608 103.443 9.23414 103.721 9.01026L104.124 9.93711ZM10.4279 30.4341C9.7205 30.4341 9.08469 30.2774 8.52053 29.964C7.95636 29.6505 7.51309 29.2207 7.1907 28.6744C6.87728 28.1192 6.72057 27.4924 6.72057 26.7939C6.72057 26.0954 6.87728 25.473 7.1907 24.9268C7.51309 24.3716 7.95636 23.9417 8.52053 23.6372C9.08469 23.3238 9.7205 23.1671 10.4279 23.1671C11.1354 23.1671 11.7667 23.3238 12.3219 23.6372C12.8861 23.9417 13.3249 24.3716 13.6383 24.9268C13.9607 25.473 14.1219 26.0954 14.1219 26.7939C14.1219 27.4924 13.9607 28.1192 13.6383 28.6744C13.3249 29.2207 12.8861 29.6505 12.3219 29.964C11.7667 30.2774 11.1354 30.4341 10.4279 30.4341ZM10.4279 29.3058C10.8847 29.3058 11.2921 29.2028 11.6503 28.9968C12.0175 28.7819 12.304 28.4864 12.51 28.1103C12.716 27.7252 12.8189 27.2864 12.8189 26.7939C12.8189 26.3014 12.716 25.867 12.51 25.4909C12.304 25.1059 12.0175 24.8104 11.6503 24.6044C11.2921 24.3984 10.8847 24.2954 10.4279 24.2954C9.97124 24.2954 9.55931 24.3984 9.19215 24.6044C8.83395 24.8104 8.54739 25.1059 8.33247 25.4909C8.1265 25.867 8.02352 26.3014 8.02352 26.7939C8.02352 27.2864 8.1265 27.7252 8.33247 28.1103C8.54739 28.4864 8.83395 28.7819 9.19215 28.9968C9.55931 29.2028 9.97124 29.3058 10.4279 29.3058ZM18.9142 21.3671C18.144 21.3671 17.759 21.7836 17.759 22.6164V23.2343H19.8276V24.2954H17.7858V30.3535H16.4963V24.2954H15.2874V23.2343H16.4963V22.6029C16.4963 21.8955 16.7023 21.3358 17.1142 20.9239C17.5261 20.5119 18.1037 20.306 18.847 20.306C19.1336 20.306 19.4022 20.3418 19.653 20.4134C19.9037 20.4851 20.1186 20.5881 20.2977 20.7224L19.9082 21.703C19.6127 21.4791 19.2813 21.3671 18.9142 21.3671ZM36.1031 23.2343V30.3535H34.8807V29.2789C34.621 29.6461 34.2763 29.9326 33.8464 30.1386C33.4255 30.3356 32.9644 30.4341 32.4629 30.4341C31.5136 30.4341 30.7659 30.1744 30.2196 29.655C29.6734 29.1267 29.4003 28.3521 29.4003 27.3312V23.2343H30.6898V27.1834C30.6898 27.873 30.8554 28.3968 31.1868 28.755C31.5181 29.1043 31.9927 29.2789 32.6106 29.2789C33.2912 29.2789 33.8285 29.0729 34.2225 28.661C34.6166 28.2491 34.8136 27.667 34.8136 26.9148V23.2343H36.1031ZM42.7624 23.1671C43.6668 23.1671 44.3832 23.4313 44.9116 23.9596C45.4489 24.479 45.7175 25.2447 45.7175 26.2566V30.3535H44.428V26.4043C44.428 25.7148 44.2623 25.1954 43.931 24.8462C43.5997 24.4969 43.125 24.3223 42.5072 24.3223C41.8087 24.3223 41.2579 24.5283 40.855 24.9402C40.452 25.3432 40.2505 25.9253 40.2505 26.6864V30.3535H38.961V23.2343H40.1968V24.3089C40.4565 23.9417 40.8057 23.6596 41.2445 23.4626C41.6922 23.2656 42.1982 23.1671 42.7624 23.1671ZM48.507 23.2343H49.7965V30.3535H48.507V23.2343ZM49.1517 21.8642C48.901 21.8642 48.6906 21.7836 48.5204 21.6224C48.3592 21.4612 48.2786 21.2642 48.2786 21.0313C48.2786 20.7985 48.3592 20.6015 48.5204 20.4403C48.6906 20.2702 48.901 20.1851 49.1517 20.1851C49.4025 20.1851 49.6085 20.2657 49.7696 20.4269C49.9398 20.5791 50.0249 20.7716 50.0249 21.0045C50.0249 21.2463 49.9398 21.4522 49.7696 21.6224C49.6085 21.7836 49.4025 21.8642 49.1517 21.8642ZM56.6645 29.9371C56.4765 30.0983 56.2436 30.2237 55.966 30.3132C55.6884 30.3938 55.4019 30.4341 55.1063 30.4341C54.3899 30.4341 53.8347 30.2416 53.4407 29.8565C53.0467 29.4714 52.8497 28.9207 52.8497 28.2043V24.2954H51.6408V23.2343H52.8497V21.6761H54.1392V23.2343H56.181V24.2954H54.1392V28.1506C54.1392 28.5356 54.2332 28.8312 54.4213 29.0371C54.6183 29.2431 54.8959 29.3461 55.2541 29.3461C55.6481 29.3461 55.9839 29.2341 56.2615 29.0103L56.6645 29.9371ZM66.6398 29.9371C66.4517 30.0983 66.2189 30.2237 65.9413 30.3132C65.6637 30.3938 65.3771 30.4341 65.0816 30.4341C64.3652 30.4341 63.81 30.2416 63.4159 29.8565C63.0219 29.4714 62.8249 28.9207 62.8249 28.2043V24.2954H61.616V23.2343H62.8249V21.6761H64.1144V23.2343H66.1562V24.2954H64.1144V28.1506C64.1144 28.5356 64.2085 28.8312 64.3965 29.0371C64.5935 29.2431 64.8711 29.3461 65.2293 29.3461C65.6234 29.3461 65.9592 29.2341 66.2368 29.0103L66.6398 29.9371ZM71.4148 30.4341C70.7074 30.4341 70.0716 30.2774 69.5074 29.964C68.9432 29.6505 68.5 29.2207 68.1776 28.6744C67.8641 28.1192 67.7074 27.4924 67.7074 26.7939C67.7074 26.0954 67.8641 25.473 68.1776 24.9268C68.5 24.3716 68.9432 23.9417 69.5074 23.6372C70.0716 23.3238 70.7074 23.1671 71.4148 23.1671C72.1223 23.1671 72.7536 23.3238 73.3088 23.6372C73.873 23.9417 74.3118 24.3716 74.6252 24.9268C74.9476 25.473 75.1088 26.0954 75.1088 26.7939C75.1088 27.4924 74.9476 28.1192 74.6252 28.6744C74.3118 29.2207 73.873 29.6505 73.3088 29.964C72.7536 30.2774 72.1223 30.4341 71.4148 30.4341ZM71.4148 29.3058C71.8715 29.3058 72.279 29.2028 72.6372 28.9968C73.0043 28.7819 73.2909 28.4864 73.4969 28.1103C73.7028 27.7252 73.8058 27.2864 73.8058 26.7939C73.8058 26.3014 73.7028 25.867 73.4969 25.4909C73.2909 25.1059 73.0043 24.8104 72.6372 24.6044C72.279 24.3984 71.8715 24.2954 71.4148 24.2954C70.9581 24.2954 70.5462 24.3984 70.179 24.6044C69.8208 24.8104 69.5343 25.1059 69.3193 25.4909C69.1134 25.867 69.0104 26.3014 69.0104 26.7939C69.0104 27.2864 69.1134 27.7252 69.3193 28.1103C69.5343 28.4864 69.8208 28.7819 70.179 28.9968C70.5462 29.2028 70.9581 29.3058 71.4148 29.3058ZM85.08 23.1671C85.7695 23.1671 86.3874 23.3193 86.9337 23.6238C87.48 23.9283 87.9053 24.3536 88.2098 24.8999C88.5232 25.4462 88.6799 26.0775 88.6799 26.7939C88.6799 27.5103 88.5232 28.1461 88.2098 28.7013C87.9053 29.2476 87.48 29.6729 86.9337 29.9774C86.3874 30.2819 85.7695 30.4341 85.08 30.4341C84.5517 30.4341 84.0681 30.3311 83.6293 30.1252C83.1905 29.9192 82.8278 29.6192 82.5413 29.2252V30.3535H81.3055V20.3866H82.595V24.3089C82.8815 23.9328 83.2397 23.6507 83.6696 23.4626C84.0994 23.2656 84.5696 23.1671 85.08 23.1671ZM84.9725 29.3058C85.4292 29.3058 85.8367 29.2028 86.1949 28.9968C86.5621 28.7819 86.8486 28.4864 87.0546 28.1103C87.2695 27.7252 87.377 27.2864 87.377 26.7939C87.377 26.3014 87.2695 25.867 87.0546 25.4909C86.8486 25.1059 86.5621 24.8104 86.1949 24.6044C85.8367 24.3984 85.4292 24.2954 84.9725 24.2954C84.5248 24.2954 84.1173 24.3984 83.7502 24.6044C83.383 24.8104 83.0965 25.1059 82.8905 25.4909C82.6845 25.867 82.5816 26.3014 82.5816 26.7939C82.5816 27.2864 82.6845 27.7252 82.8905 28.1103C83.0965 28.4864 83.383 28.7819 83.7502 28.9968C84.1173 29.2028 84.5248 29.3058 84.9725 29.3058ZM97.2988 26.8342C97.2988 26.9327 97.2898 27.0625 97.2719 27.2237H91.4959C91.5765 27.8506 91.8497 28.3565 92.3153 28.7416C92.7899 29.1177 93.3765 29.3058 94.075 29.3058C94.9257 29.3058 95.6108 29.0192 96.1302 28.4461L96.8421 29.2789C96.5197 29.655 96.1167 29.9416 95.6332 30.1386C95.1585 30.3356 94.6257 30.4341 94.0347 30.4341C93.2825 30.4341 92.6153 30.2819 92.0332 29.9774C91.4512 29.664 90.9989 29.2297 90.6765 28.6744C90.3631 28.1192 90.2064 27.4924 90.2064 26.7939C90.2064 26.1044 90.3586 25.482 90.6631 24.9268C90.9765 24.3716 91.4019 23.9417 91.9392 23.6372C92.4855 23.3238 93.0989 23.1671 93.7795 23.1671C94.46 23.1671 95.0645 23.3238 95.5929 23.6372C96.1302 23.9417 96.5466 24.3716 96.8421 24.9268C97.1466 25.482 97.2988 26.1178 97.2988 26.8342ZM93.7795 24.2551C93.1616 24.2551 92.6422 24.4432 92.2213 24.8193C91.8094 25.1954 91.5676 25.6879 91.4959 26.2969H96.063C95.9914 25.6969 95.7451 25.2089 95.3242 24.8327C94.9123 24.4477 94.3974 24.2551 93.7795 24.2551ZM23.1596 43.2343H24.4492V50.3535H23.1596V43.2343ZM23.8044 41.8642C23.5537 41.8642 23.3432 41.7836 23.1731 41.6224C23.0119 41.4612 22.9313 41.2642 22.9313 41.0313C22.9313 40.7985 23.0119 40.6015 23.1731 40.4403C23.3432 40.2702 23.5537 40.1851 23.8044 40.1851C24.0551 40.1851 24.2611 40.2657 24.4223 40.4269C24.5924 40.5791 24.6775 40.7716 24.6775 41.0045C24.6775 41.2463 24.5924 41.4522 24.4223 41.6224C24.2611 41.7836 24.0551 41.8642 23.8044 41.8642ZM31.1157 43.1671C32.0201 43.1671 32.7365 43.4313 33.2649 43.9596C33.8022 44.479 34.0708 45.2447 34.0708 46.2566V50.3535H32.7813V46.4043C32.7813 45.7148 32.6156 45.1954 32.2843 44.8462C31.953 44.4969 31.4784 44.3223 30.8605 44.3223C30.162 44.3223 29.6112 44.5283 29.2083 44.9402C28.8053 45.3432 28.6038 45.9253 28.6038 46.6864V50.3535H27.3143V43.2343H28.5501V44.3089C28.8098 43.9417 29.159 43.6596 29.5978 43.4626C30.0456 43.2656 30.5515 43.1671 31.1157 43.1671ZM43.029 43.2343L39.9126 50.3535H38.5962L35.4799 43.2343H36.8231L39.2679 48.9431L41.7663 43.2343H43.029ZM50.8728 46.8342C50.8728 46.9327 50.8639 47.0625 50.846 47.2237H45.07C45.1506 47.8506 45.4237 48.3565 45.8894 48.7416C46.364 49.1177 46.9505 49.3058 47.649 49.3058C48.4998 49.3058 49.1848 49.0192 49.7042 48.4461L50.4161 49.2789C50.0938 49.655 49.6908 49.9416 49.2072 50.1386C48.7326 50.3356 48.1998 50.4341 47.6087 50.4341C46.8565 50.4341 46.1894 50.2819 45.6073 49.9774C45.0252 49.664 44.573 49.2297 44.2506 48.6744C43.9372 48.1192 43.7805 47.4924 43.7805 46.7939C43.7805 46.1044 43.9327 45.482 44.2372 44.9268C44.5506 44.3716 44.976 43.9417 45.5133 43.6372C46.0595 43.3238 46.6729 43.1671 47.3535 43.1671C48.0341 43.1671 48.6386 43.3238 49.1669 43.6372C49.7042 43.9417 50.1206 44.3716 50.4161 44.9268C50.7206 45.482 50.8728 46.1178 50.8728 46.8342ZM47.3535 44.2551C46.7356 44.2551 46.2162 44.4432 45.7953 44.8193C45.3834 45.1954 45.1416 45.6879 45.07 46.2969H49.6371C49.5654 45.6969 49.3191 45.2089 48.8983 44.8327C48.4863 44.4477 47.9714 44.2551 47.3535 44.2551ZM55.1082 50.4341C54.5261 50.4341 53.9664 50.358 53.4291 50.2058C52.8918 50.0446 52.4709 49.8431 52.1665 49.6013L52.7038 48.5804C53.0172 48.8043 53.3978 48.9834 53.8455 49.1177C54.2933 49.252 54.7455 49.3192 55.2022 49.3192C56.3305 49.3192 56.8947 48.9968 56.8947 48.3521C56.8947 48.1371 56.8186 47.967 56.6664 47.8416C56.5141 47.7163 56.3216 47.6267 56.0888 47.573C55.8649 47.5103 55.5425 47.4431 55.1216 47.3715C54.5485 47.2819 54.0784 47.179 53.7112 47.0625C53.353 46.9461 53.0441 46.7491 52.7844 46.4715C52.5247 46.1939 52.3948 45.8044 52.3948 45.3029C52.3948 44.6581 52.6635 44.1432 53.2008 43.7581C53.7381 43.3641 54.4589 43.1671 55.3634 43.1671C55.838 43.1671 56.3126 43.2253 56.7873 43.3417C57.2619 43.4581 57.6514 43.6149 57.9559 43.8119L57.4051 44.8327C56.8231 44.4566 56.138 44.2686 55.35 44.2686C54.8037 44.2686 54.3873 44.3581 54.1007 44.5372C53.8142 44.7163 53.6709 44.9536 53.6709 45.2492C53.6709 45.482 53.7515 45.6656 53.9127 45.7999C54.0739 45.9342 54.2709 46.0327 54.5037 46.0954C54.7455 46.1581 55.0813 46.2297 55.5112 46.3103C56.0843 46.4088 56.5455 46.5163 56.8947 46.6327C57.2529 46.7402 57.5574 46.9282 57.8081 47.1969C58.0589 47.4655 58.1842 47.8416 58.1842 48.3252C58.1842 48.97 57.9066 49.4849 57.3514 49.8699C56.8052 50.2461 56.0574 50.4341 55.1082 50.4341ZM64.2017 49.9371C64.0136 50.0983 63.7808 50.2237 63.5032 50.3132C63.2256 50.3938 62.939 50.4341 62.6435 50.4341C61.9271 50.4341 61.3719 50.2416 60.9779 49.8565C60.5839 49.4714 60.3869 48.9207 60.3869 48.2043V44.2954H59.1779V43.2343H60.3869V41.6761H61.6764V43.2343H63.7181V44.2954H61.6764V48.1506C61.6764 48.5356 61.7704 48.8312 61.9585 49.0371C62.1555 49.2431 62.4331 49.3461 62.7913 49.3461C63.1853 49.3461 63.5211 49.2341 63.7987 49.0103L64.2017 49.9371ZM72.3618 46.8342C72.3618 46.9327 72.3528 47.0625 72.3349 47.2237H66.5589C66.6395 47.8506 66.9126 48.3565 67.3783 48.7416C67.8529 49.1177 68.4395 49.3058 69.1379 49.3058C69.9887 49.3058 70.6737 49.0192 71.1931 48.4461L71.905 49.2789C71.5827 49.655 71.1797 49.9416 70.6961 50.1386C70.2215 50.3356 69.6887 50.4341 69.0976 50.4341C68.3454 50.4341 67.6783 50.2819 67.0962 49.9774C66.5141 49.664 66.0619 49.2297 65.7395 48.6744C65.4261 48.1192 65.2694 47.4924 65.2694 46.7939C65.2694 46.1044 65.4216 45.482 65.7261 44.9268C66.0395 44.3716 66.4649 43.9417 67.0022 43.6372C67.5484 43.3238 68.1618 43.1671 68.8424 43.1671C69.523 43.1671 70.1275 43.3238 70.6558 43.6372C71.1931 43.9417 71.6095 44.3716 71.905 44.9268C72.2095 45.482 72.3618 46.1178 72.3618 46.8342ZM68.8424 44.2551C68.2245 44.2551 67.7051 44.4432 67.2843 44.8193C66.8723 45.1954 66.6305 45.6879 66.5589 46.2969H71.126C71.0543 45.6969 70.8081 45.2089 70.3872 44.8327C69.9752 44.4477 69.4603 44.2551 68.8424 44.2551ZM81.2716 40.3866V50.3535H80.0358V49.2252C79.7493 49.6192 79.3866 49.9192 78.9478 50.1252C78.509 50.3311 78.0254 50.4341 77.4971 50.4341C76.8075 50.4341 76.1896 50.2819 75.6434 49.9774C75.0971 49.6729 74.6673 49.2476 74.3539 48.7013C74.0494 48.1461 73.8972 47.5103 73.8972 46.7939C73.8972 46.0775 74.0494 45.4462 74.3539 44.8999C74.6673 44.3536 75.0971 43.9283 75.6434 43.6238C76.1896 43.3193 76.8075 43.1671 77.4971 43.1671C78.0075 43.1671 78.4777 43.2656 78.9075 43.4626C79.3373 43.6507 79.6955 43.9328 79.9821 44.3089V40.3866H81.2716ZM77.6045 49.3058C78.0523 49.3058 78.4597 49.2028 78.8269 48.9968C79.1941 48.7819 79.4806 48.4864 79.6866 48.1103C79.8925 47.7252 79.9955 47.2864 79.9955 46.7939C79.9955 46.3014 79.8925 45.867 79.6866 45.4909C79.4806 45.1059 79.1941 44.8104 78.8269 44.6044C78.4597 44.3984 78.0523 44.2954 77.6045 44.2954C77.1478 44.2954 76.7359 44.3984 76.3687 44.6044C76.0105 44.8104 75.724 45.1059 75.5091 45.4909C75.3031 45.867 75.2001 46.3014 75.2001 46.7939C75.2001 47.2864 75.3031 47.7252 75.5091 48.1103C75.724 48.4864 76.0105 48.7819 76.3687 48.9968C76.7359 49.2028 77.1478 49.3058 77.6045 49.3058Z" fill="black"/>
</svg>
