<svg width="173" height="95" viewBox="0 0 173 95" fill="none" xmlns="http://www.w3.org/2000/svg">
<path d="M6.22172 2.736H0.317718V1.2H13.9017V2.736H7.99772V18H6.22172V2.736ZM20.8118 5.28C22.4598 5.28 23.7238 5.696 24.6038 6.528C25.4838 7.344 25.9238 8.56 25.9238 10.176V18H24.2918V16.032C23.9078 16.688 23.3398 17.2 22.5878 17.568C21.8518 17.936 20.9718 18.12 19.9478 18.12C18.5398 18.12 17.4198 17.784 16.5878 17.112C15.7558 16.44 15.3398 15.552 15.3398 14.448C15.3398 13.376 15.7238 12.512 16.4918 11.856C17.2758 11.2 18.5158 10.872 20.2118 10.872H24.2198V10.104C24.2198 9.016 23.9158 8.192 23.3078 7.632C22.6998 7.056 21.8118 6.768 20.6438 6.768C19.8438 6.768 19.0758 6.904 18.3398 7.176C17.6038 7.432 16.9718 7.792 16.4438 8.256L15.6758 6.984C16.3158 6.44 17.0838 6.024 17.9798 5.736C18.8758 5.432 19.8198 5.28 20.8118 5.28ZM20.2118 16.776C21.1718 16.776 21.9958 16.56 22.6838 16.128C23.3718 15.68 23.8838 15.04 24.2198 14.208V12.144H20.2598C18.0998 12.144 17.0198 12.896 17.0198 14.4C17.0198 15.136 17.2998 15.72 17.8598 16.152C18.4198 16.568 19.2038 16.776 20.2118 16.776ZM35.9521 11.664L32.9761 14.4V18H31.2721V0.191999H32.9761V12.264L40.5121 5.376H42.6241L37.2241 10.536L43.1281 18H41.0401L35.9521 11.664ZM56.8825 12.216H46.3225C46.4185 13.528 46.9225 14.592 47.8345 15.408C48.7465 16.208 49.8985 16.608 51.2905 16.608C52.0745 16.608 52.7945 16.472 53.4505 16.2C54.1065 15.912 54.6745 15.496 55.1545 14.952L56.1145 16.056C55.5545 16.728 54.8505 17.24 54.0025 17.592C53.1705 17.944 52.2505 18.12 51.2425 18.12C49.9465 18.12 48.7945 17.848 47.7865 17.304C46.7945 16.744 46.0185 15.976 45.4585 15C44.8985 14.024 44.6185 12.92 44.6185 11.688C44.6185 10.456 44.8825 9.352 45.4105 8.376C45.9545 7.4 46.6905 6.64 47.6185 6.096C48.5625 5.552 49.6185 5.28 50.7865 5.28C51.9545 5.28 53.0025 5.552 53.9305 6.096C54.8585 6.64 55.5865 7.4 56.1145 8.376C56.6425 9.336 56.9065 10.44 56.9065 11.688L56.8825 12.216ZM50.7865 6.744C49.5705 6.744 48.5465 7.136 47.7145 7.92C46.8985 8.688 46.4345 9.696 46.3225 10.944H55.2745C55.1625 9.696 54.6905 8.688 53.8585 7.92C53.0425 7.136 52.0185 6.744 50.7865 6.744ZM72.5122 5.28C74.1602 5.28 75.4242 5.696 76.3042 6.528C77.1842 7.344 77.6242 8.56 77.6242 10.176V18H75.9922V16.032C75.6082 16.688 75.0402 17.2 74.2882 17.568C73.5522 17.936 72.6722 18.12 71.6482 18.12C70.2402 18.12 69.1202 17.784 68.2882 17.112C67.4562 16.44 67.0402 15.552 67.0402 14.448C67.0402 13.376 67.4242 12.512 68.1922 11.856C68.9762 11.2 70.2162 10.872 71.9122 10.872H75.9202V10.104C75.9202 9.016 75.6162 8.192 75.0082 7.632C74.4002 7.056 73.5122 6.768 72.3442 6.768C71.5442 6.768 70.7762 6.904 70.0402 7.176C69.3042 7.432 68.6722 7.792 68.1442 8.256L67.3762 6.984C68.0162 6.44 68.7842 6.024 69.6802 5.736C70.5762 5.432 71.5202 5.28 72.5122 5.28ZM71.9122 16.776C72.8722 16.776 73.6962 16.56 74.3842 16.128C75.0722 15.68 75.5842 15.04 75.9202 14.208V12.144H71.9602C69.8002 12.144 68.7202 12.896 68.7202 14.4C68.7202 15.136 69.0002 15.72 69.5602 16.152C70.1202 16.568 70.9042 16.776 71.9122 16.776ZM89.9737 0.191999H91.6777V18H89.9737V0.191999ZM102.299 18.12C101.083 18.12 99.987 17.848 99.011 17.304C98.035 16.744 97.267 15.976 96.707 15C96.147 14.024 95.867 12.92 95.867 11.688C95.867 10.456 96.147 9.352 96.707 8.376C97.267 7.4 98.035 6.64 99.011 6.096C99.987 5.552 101.083 5.28 102.299 5.28C103.515 5.28 104.611 5.552 105.587 6.096C106.563 6.64 107.323 7.4 107.867 8.376C108.427 9.352 108.707 10.456 108.707 11.688C108.707 12.92 108.427 14.024 107.867 15C107.323 15.976 106.563 16.744 105.587 17.304C104.611 17.848 103.515 18.12 102.299 18.12ZM102.299 16.608C103.195 16.608 103.995 16.408 104.699 16.008C105.419 15.592 105.979 15.008 106.379 14.256C106.779 13.504 106.979 12.648 106.979 11.688C106.979 10.728 106.779 9.872 106.379 9.12C105.979 8.368 105.419 7.792 104.699 7.392C103.995 6.976 103.195 6.768 102.299 6.768C101.403 6.768 100.595 6.976 99.875 7.392C99.171 7.792 98.611 8.368 98.195 9.12C97.795 9.872 97.595 10.728 97.595 11.688C97.595 12.648 97.795 13.504 98.195 14.256C98.611 15.008 99.171 15.592 99.875 16.008C100.595 16.408 101.403 16.608 102.299 16.608ZM118.066 18.12C116.85 18.12 115.754 17.848 114.778 17.304C113.802 16.744 113.034 15.976 112.474 15C111.914 14.024 111.634 12.92 111.634 11.688C111.634 10.456 111.914 9.352 112.474 8.376C113.034 7.4 113.802 6.64 114.778 6.096C115.754 5.552 116.85 5.28 118.066 5.28C119.282 5.28 120.378 5.552 121.354 6.096C122.33 6.64 123.09 7.4 123.634 8.376C124.194 9.352 124.474 10.456 124.474 11.688C124.474 12.92 124.194 14.024 123.634 15C123.09 15.976 122.33 16.744 121.354 17.304C120.378 17.848 119.282 18.12 118.066 18.12ZM118.066 16.608C118.962 16.608 119.762 16.408 120.466 16.008C121.186 15.592 121.746 15.008 122.146 14.256C122.546 13.504 122.746 12.648 122.746 11.688C122.746 10.728 122.546 9.872 122.146 9.12C121.746 8.368 121.186 7.792 120.466 7.392C119.762 6.976 118.962 6.768 118.066 6.768C117.17 6.768 116.362 6.976 115.642 7.392C114.938 7.792 114.378 8.368 113.962 9.12C113.562 9.872 113.362 10.728 113.362 11.688C113.362 12.648 113.562 13.504 113.962 14.256C114.378 15.008 114.938 15.592 115.642 16.008C116.362 16.408 117.17 16.608 118.066 16.608ZM133.353 11.664L130.377 14.4V18H128.673V0.191999H130.377V12.264L137.913 5.376H140.025L134.625 10.536L140.529 18H138.441L133.353 11.664ZM155.224 5.28C156.872 5.28 158.136 5.696 159.016 6.528C159.896 7.344 160.336 8.56 160.336 10.176V18H158.704V16.032C158.32 16.688 157.752 17.2 157 17.568C156.264 17.936 155.384 18.12 154.36 18.12C152.952 18.12 151.832 17.784 151 17.112C150.168 16.44 149.752 15.552 149.752 14.448C149.752 13.376 150.136 12.512 150.904 11.856C151.688 11.2 152.928 10.872 154.624 10.872H158.632V10.104C158.632 9.016 158.328 8.192 157.72 7.632C157.112 7.056 156.224 6.768 155.056 6.768C154.256 6.768 153.488 6.904 152.752 7.176C152.016 7.432 151.384 7.792 150.856 8.256L150.088 6.984C150.728 6.44 151.496 6.024 152.392 5.736C153.288 5.432 154.232 5.28 155.224 5.28ZM154.624 16.776C155.584 16.776 156.408 16.56 157.096 16.128C157.784 15.68 158.296 15.04 158.632 14.208V12.144H154.672C152.512 12.144 151.432 12.896 151.432 14.4C151.432 15.136 151.712 15.72 152.272 16.152C152.832 16.568 153.616 16.776 154.624 16.776ZM172.332 17.232C172.012 17.52 171.612 17.744 171.132 17.904C170.668 18.048 170.18 18.12 169.668 18.12C168.484 18.12 167.572 17.8 166.932 17.16C166.292 16.52 165.972 15.616 165.972 14.448V6.816H163.716V5.376H165.972V2.616H167.676V5.376H171.516V6.816H167.676V14.352C167.676 15.104 167.86 15.68 168.228 16.08C168.612 16.464 169.156 16.656 169.86 16.656C170.212 16.656 170.548 16.6 170.868 16.488C171.204 16.376 171.492 16.216 171.732 16.008L172.332 17.232ZM24.2127 54.12C22.9967 54.12 21.9007 53.848 20.9247 53.304C19.9487 52.744 19.1807 51.976 18.6207 51C18.0607 50.024 17.7807 48.92 17.7807 47.688C17.7807 46.456 18.0607 45.352 18.6207 44.376C19.1807 43.4 19.9487 42.64 20.9247 42.096C21.9007 41.552 22.9967 41.28 24.2127 41.28C25.4287 41.28 26.5247 41.552 27.5007 42.096C28.4767 42.64 29.2367 43.4 29.7807 44.376C30.3407 45.352 30.6207 46.456 30.6207 47.688C30.6207 48.92 30.3407 50.024 29.7807 51C29.2367 51.976 28.4767 52.744 27.5007 53.304C26.5247 53.848 25.4287 54.12 24.2127 54.12ZM24.2127 52.608C25.1087 52.608 25.9087 52.408 26.6127 52.008C27.3327 51.592 27.8927 51.008 28.2927 50.256C28.6927 49.504 28.8927 48.648 28.8927 47.688C28.8927 46.728 28.6927 45.872 28.2927 45.12C27.8927 44.368 27.3327 43.792 26.6127 43.392C25.9087 42.976 25.1087 42.768 24.2127 42.768C23.3167 42.768 22.5087 42.976 21.7887 43.392C21.0847 43.792 20.5247 44.368 20.1087 45.12C19.7087 45.872 19.5087 46.728 19.5087 47.688C19.5087 48.648 19.7087 49.504 20.1087 50.256C20.5247 51.008 21.0847 51.592 21.7887 52.008C22.5087 52.408 23.3167 52.608 24.2127 52.608ZM46.1956 41.376V54H44.5636V51.696C44.1156 52.464 43.4996 53.064 42.7156 53.496C41.9316 53.912 41.0356 54.12 40.0276 54.12C38.3796 54.12 37.0756 53.664 36.1156 52.752C35.1716 51.824 34.6996 50.472 34.6996 48.696V41.376H36.4036V48.528C36.4036 49.856 36.7316 50.864 37.3876 51.552C38.0436 52.24 38.9796 52.584 40.1956 52.584C41.5236 52.584 42.5716 52.184 43.3396 51.384C44.1076 50.568 44.4916 49.44 44.4916 48V41.376H46.1956ZM53.32 43.848C53.72 43 54.312 42.36 55.096 41.928C55.896 41.496 56.88 41.28 58.048 41.28V42.936L57.64 42.912C56.312 42.912 55.272 43.32 54.52 44.136C53.768 44.952 53.392 46.096 53.392 47.568V54H51.688V41.376H53.32V43.848ZM79.6501 41.376L74.0341 54H72.2821L66.6901 41.376H68.4661L73.1941 52.128L77.9701 41.376H79.6501ZM86.8109 41.28C88.4589 41.28 89.7229 41.696 90.6029 42.528C91.4829 43.344 91.9229 44.56 91.9229 46.176V54H90.2909V52.032C89.9069 52.688 89.3389 53.2 88.5869 53.568C87.8509 53.936 86.9709 54.12 85.9469 54.12C84.5389 54.12 83.4189 53.784 82.5869 53.112C81.7549 52.44 81.3389 51.552 81.3389 50.448C81.3389 49.376 81.7229 48.512 82.4909 47.856C83.2749 47.2 84.5149 46.872 86.2109 46.872H90.2189V46.104C90.2189 45.016 89.9149 44.192 89.3069 43.632C88.6989 43.056 87.8109 42.768 86.6429 42.768C85.8429 42.768 85.0749 42.904 84.3389 43.176C83.6029 43.432 82.9709 43.792 82.4429 44.256L81.6749 42.984C82.3149 42.44 83.0829 42.024 83.9789 41.736C84.8749 41.432 85.8189 41.28 86.8109 41.28ZM86.2109 52.776C87.1709 52.776 87.9949 52.56 88.6829 52.128C89.3709 51.68 89.8829 51.04 90.2189 50.208V48.144H86.2589C84.0989 48.144 83.0189 48.896 83.0189 50.4C83.0189 51.136 83.2989 51.72 83.8589 52.152C84.4189 52.568 85.2029 52.776 86.2109 52.776ZM98.9032 43.848C99.3032 43 99.8952 42.36 100.679 41.928C101.479 41.496 102.463 41.28 103.631 41.28V42.936L103.223 42.912C101.895 42.912 100.855 43.32 100.103 44.136C99.3512 44.952 98.9752 46.096 98.9752 47.568V54H97.2712V41.376H98.9032V43.848ZM107.436 41.376H109.14V54H107.436V41.376ZM108.3 38.616C107.948 38.616 107.652 38.496 107.412 38.256C107.172 38.016 107.052 37.728 107.052 37.392C107.052 37.072 107.172 36.792 107.412 36.552C107.652 36.312 107.948 36.192 108.3 36.192C108.652 36.192 108.948 36.312 109.188 36.552C109.428 36.776 109.548 37.048 109.548 37.368C109.548 37.72 109.428 38.016 109.188 38.256C108.948 38.496 108.652 38.616 108.3 38.616ZM119.762 54.12C118.546 54.12 117.45 53.848 116.474 53.304C115.498 52.744 114.73 51.976 114.17 51C113.61 50.024 113.33 48.92 113.33 47.688C113.33 46.456 113.61 45.352 114.17 44.376C114.73 43.4 115.498 42.64 116.474 42.096C117.45 41.552 118.546 41.28 119.762 41.28C120.978 41.28 122.074 41.552 123.05 42.096C124.026 42.64 124.786 43.4 125.33 44.376C125.89 45.352 126.17 46.456 126.17 47.688C126.17 48.92 125.89 50.024 125.33 51C124.786 51.976 124.026 52.744 123.05 53.304C122.074 53.848 120.978 54.12 119.762 54.12ZM119.762 52.608C120.658 52.608 121.458 52.408 122.162 52.008C122.882 51.592 123.442 51.008 123.842 50.256C124.242 49.504 124.442 48.648 124.442 47.688C124.442 46.728 124.242 45.872 123.842 45.12C123.442 44.368 122.882 43.792 122.162 43.392C121.458 42.976 120.658 42.768 119.762 42.768C118.866 42.768 118.058 42.976 117.338 43.392C116.634 43.792 116.074 44.368 115.658 45.12C115.258 45.872 115.058 46.728 115.058 47.688C115.058 48.648 115.258 49.504 115.658 50.256C116.074 51.008 116.634 51.592 117.338 52.008C118.058 52.408 118.866 52.608 119.762 52.608ZM141.745 41.376V54H140.113V51.696C139.665 52.464 139.049 53.064 138.265 53.496C137.481 53.912 136.585 54.12 135.577 54.12C133.929 54.12 132.625 53.664 131.665 52.752C130.721 51.824 130.249 50.472 130.249 48.696V41.376H131.953V48.528C131.953 49.856 132.281 50.864 132.937 51.552C133.593 52.24 134.529 52.584 135.745 52.584C137.073 52.584 138.121 52.184 138.889 51.384C139.657 50.568 140.041 49.44 140.041 48V41.376H141.745ZM150.621 54.12C149.597 54.12 148.613 53.976 147.669 53.688C146.741 53.384 146.013 53.008 145.485 52.56L146.253 51.216C146.781 51.632 147.445 51.976 148.245 52.248C149.045 52.504 149.877 52.632 150.741 52.632C151.893 52.632 152.741 52.456 153.285 52.104C153.845 51.736 154.125 51.224 154.125 50.568C154.125 50.104 153.973 49.744 153.669 49.488C153.365 49.216 152.981 49.016 152.517 48.888C152.053 48.744 151.437 48.608 150.669 48.48C149.645 48.288 148.821 48.096 148.197 47.904C147.573 47.696 147.037 47.352 146.589 46.872C146.157 46.392 145.941 45.728 145.941 44.88C145.941 43.824 146.381 42.96 147.261 42.288C148.141 41.616 149.365 41.28 150.933 41.28C151.749 41.28 152.565 41.392 153.381 41.616C154.197 41.824 154.869 42.104 155.397 42.456L154.653 43.824C153.613 43.104 152.373 42.744 150.933 42.744C149.845 42.744 149.021 42.936 148.461 43.32C147.917 43.704 147.645 44.208 147.645 44.832C147.645 45.312 147.797 45.696 148.101 45.984C148.421 46.272 148.813 46.488 149.277 46.632C149.741 46.76 150.381 46.896 151.197 47.04C152.205 47.232 153.013 47.424 153.621 47.616C154.229 47.808 154.749 48.136 155.181 48.6C155.613 49.064 155.829 49.704 155.829 50.52C155.829 51.624 155.365 52.504 154.437 53.16C153.525 53.8 152.253 54.12 150.621 54.12ZM42.0234 77.28C43.2074 77.28 44.2794 77.552 45.2394 78.096C46.1994 78.624 46.9514 79.376 47.4954 80.352C48.0394 81.328 48.3114 82.44 48.3114 83.688C48.3114 84.952 48.0394 86.072 47.4954 87.048C46.9514 88.024 46.1994 88.784 45.2394 89.328C44.2954 89.856 43.2234 90.12 42.0234 90.12C40.9994 90.12 40.0714 89.912 39.2394 89.496C38.4234 89.064 37.7514 88.44 37.2234 87.624V94.656H35.5194V77.376H37.1514V79.872C37.6634 79.04 38.3354 78.4 39.1674 77.952C40.0154 77.504 40.9674 77.28 42.0234 77.28ZM41.9034 88.608C42.7834 88.608 43.5834 88.408 44.3034 88.008C45.0234 87.592 45.5834 87.008 45.9834 86.256C46.3994 85.504 46.6074 84.648 46.6074 83.688C46.6074 82.728 46.3994 81.88 45.9834 81.144C45.5834 80.392 45.0234 79.808 44.3034 79.392C43.5834 78.976 42.7834 78.768 41.9034 78.768C41.0074 78.768 40.1994 78.976 39.4794 79.392C38.7754 79.808 38.2154 80.392 37.7994 81.144C37.3994 81.88 37.1994 82.728 37.1994 83.688C37.1994 84.648 37.3994 85.504 37.7994 86.256C38.2154 87.008 38.7754 87.592 39.4794 88.008C40.1994 88.408 41.0074 88.608 41.9034 88.608ZM54.1371 79.848C54.5371 79 55.1291 78.36 55.9131 77.928C56.7131 77.496 57.6971 77.28 58.8651 77.28V78.936L58.4571 78.912C57.1291 78.912 56.0891 79.32 55.3371 80.136C54.5851 80.952 54.2091 82.096 54.2091 83.568V90H52.5051V77.376H54.1371V79.848ZM67.7132 90.12C66.4972 90.12 65.4012 89.848 64.4252 89.304C63.4492 88.744 62.6812 87.976 62.1212 87C61.5612 86.024 61.2812 84.92 61.2812 83.688C61.2812 82.456 61.5612 81.352 62.1212 80.376C62.6812 79.4 63.4492 78.64 64.4252 78.096C65.4012 77.552 66.4972 77.28 67.7132 77.28C68.9292 77.28 70.0252 77.552 71.0012 78.096C71.9772 78.64 72.7372 79.4 73.2812 80.376C73.8412 81.352 74.1212 82.456 74.1212 83.688C74.1212 84.92 73.8412 86.024 73.2812 87C72.7372 87.976 71.9772 88.744 71.0012 89.304C70.0252 89.848 68.9292 90.12 67.7132 90.12ZM67.7132 88.608C68.6092 88.608 69.4092 88.408 70.1132 88.008C70.8332 87.592 71.3932 87.008 71.7932 86.256C72.1932 85.504 72.3932 84.648 72.3932 83.688C72.3932 82.728 72.1932 81.872 71.7932 81.12C71.3932 80.368 70.8332 79.792 70.1132 79.392C69.4092 78.976 68.6092 78.768 67.7132 78.768C66.8172 78.768 66.0092 78.976 65.2892 79.392C64.5852 79.792 64.0252 80.368 63.6092 81.12C63.2092 81.872 63.0092 82.728 63.0092 83.688C63.0092 84.648 63.2092 85.504 63.6092 86.256C64.0252 87.008 64.5852 87.592 65.2892 88.008C66.0092 88.408 66.8172 88.608 67.7132 88.608ZM76.4481 94.776C75.9201 94.776 75.4241 94.704 74.9601 94.56C74.4801 94.432 74.0881 94.232 73.7841 93.96L74.3841 92.664C74.8801 93.096 75.5361 93.312 76.3521 93.312C77.0241 93.312 77.5361 93.112 77.8881 92.712C78.2561 92.312 78.4401 91.72 78.4401 90.936V77.376H80.1441V90.936C80.1441 92.12 79.8241 93.056 79.1841 93.744C78.5441 94.432 77.6321 94.776 76.4481 94.776ZM79.3041 74.592C78.9521 74.592 78.6561 74.472 78.4161 74.232C78.1761 73.992 78.0561 73.704 78.0561 73.368C78.0561 73.048 78.1761 72.768 78.4161 72.528C78.6561 72.288 78.9521 72.168 79.3041 72.168C79.6561 72.168 79.9521 72.288 80.1921 72.528C80.4321 72.752 80.5521 73.024 80.5521 73.344C80.5521 73.696 80.4321 73.992 80.1921 74.232C79.9521 74.472 79.6561 74.592 79.3041 74.592ZM96.618 84.216H86.058C86.154 85.528 86.658 86.592 87.57 87.408C88.482 88.208 89.634 88.608 91.026 88.608C91.81 88.608 92.53 88.472 93.186 88.2C93.842 87.912 94.41 87.496 94.89 86.952L95.85 88.056C95.29 88.728 94.586 89.24 93.738 89.592C92.906 89.944 91.986 90.12 90.978 90.12C89.682 90.12 88.53 89.848 87.522 89.304C86.53 88.744 85.754 87.976 85.194 87C84.634 86.024 84.354 84.92 84.354 83.688C84.354 82.456 84.618 81.352 85.146 80.376C85.69 79.4 86.426 78.64 87.354 78.096C88.298 77.552 89.354 77.28 90.522 77.28C91.69 77.28 92.738 77.552 93.666 78.096C94.594 78.64 95.322 79.4 95.85 80.376C96.378 81.336 96.642 82.44 96.642 83.688L96.618 84.216ZM90.522 78.744C89.306 78.744 88.282 79.136 87.45 79.92C86.634 80.688 86.17 81.696 86.058 82.944H95.01C94.898 81.696 94.426 80.688 93.594 79.92C92.778 79.136 91.754 78.744 90.522 78.744ZM106.062 90.12C104.814 90.12 103.694 89.848 102.702 89.304C101.726 88.76 100.958 88 100.398 87.024C99.8384 86.032 99.5584 84.92 99.5584 83.688C99.5584 82.456 99.8384 81.352 100.398 80.376C100.958 79.4 101.726 78.64 102.702 78.096C103.694 77.552 104.814 77.28 106.062 77.28C107.15 77.28 108.118 77.496 108.966 77.928C109.83 78.344 110.51 78.96 111.006 79.776L109.734 80.64C109.318 80.016 108.79 79.552 108.15 79.248C107.51 78.928 106.814 78.768 106.062 78.768C105.15 78.768 104.326 78.976 103.59 79.392C102.87 79.792 102.302 80.368 101.886 81.12C101.486 81.872 101.286 82.728 101.286 83.688C101.286 84.664 101.486 85.528 101.886 86.28C102.302 87.016 102.87 87.592 103.59 88.008C104.326 88.408 105.15 88.608 106.062 88.608C106.814 88.608 107.51 88.456 108.15 88.152C108.79 87.848 109.318 87.384 109.734 86.76L111.006 87.624C110.51 88.44 109.83 89.064 108.966 89.496C108.102 89.912 107.134 90.12 106.062 90.12ZM121.862 89.232C121.542 89.52 121.142 89.744 120.662 89.904C120.198 90.048 119.71 90.12 119.198 90.12C118.014 90.12 117.102 89.8 116.462 89.16C115.822 88.52 115.502 87.616 115.502 86.448V78.816H113.246V77.376H115.502V74.616H117.206V77.376H121.046V78.816H117.206V86.352C117.206 87.104 117.39 87.68 117.758 88.08C118.142 88.464 118.686 88.656 119.39 88.656C119.742 88.656 120.078 88.6 120.398 88.488C120.734 88.376 121.022 88.216 121.262 88.008L121.862 89.232ZM129.068 90.12C128.044 90.12 127.06 89.976 126.116 89.688C125.188 89.384 124.46 89.008 123.932 88.56L124.7 87.216C125.228 87.632 125.892 87.976 126.692 88.248C127.492 88.504 128.324 88.632 129.188 88.632C130.34 88.632 131.188 88.456 131.732 88.104C132.292 87.736 132.572 87.224 132.572 86.568C132.572 86.104 132.42 85.744 132.116 85.488C131.812 85.216 131.428 85.016 130.964 84.888C130.5 84.744 129.884 84.608 129.116 84.48C128.092 84.288 127.268 84.096 126.644 83.904C126.02 83.696 125.484 83.352 125.036 82.872C124.604 82.392 124.388 81.728 124.388 80.88C124.388 79.824 124.828 78.96 125.708 78.288C126.588 77.616 127.812 77.28 129.38 77.28C130.196 77.28 131.012 77.392 131.828 77.616C132.644 77.824 133.316 78.104 133.844 78.456L133.1 79.824C132.06 79.104 130.82 78.744 129.38 78.744C128.292 78.744 127.468 78.936 126.908 79.32C126.364 79.704 126.092 80.208 126.092 80.832C126.092 81.312 126.244 81.696 126.548 81.984C126.868 82.272 127.26 82.488 127.724 82.632C128.188 82.76 128.828 82.896 129.644 83.04C130.652 83.232 131.46 83.424 132.068 83.616C132.676 83.808 133.196 84.136 133.628 84.6C134.06 85.064 134.276 85.704 134.276 86.52C134.276 87.624 133.812 88.504 132.884 89.16C131.972 89.8 130.7 90.12 129.068 90.12ZM138.315 90.12C137.963 90.12 137.659 89.992 137.403 89.736C137.163 89.48 137.043 89.168 137.043 88.8C137.043 88.432 137.163 88.128 137.403 87.888C137.659 87.632 137.963 87.504 138.315 87.504C138.667 87.504 138.971 87.632 139.227 87.888C139.483 88.128 139.611 88.432 139.611 88.8C139.611 89.168 139.483 89.48 139.227 89.736C138.971 89.992 138.667 90.12 138.315 90.12Z" fill="black"/>
</svg>
