<svg width="116" height="64" viewBox="0 0 116 64" fill="none" xmlns="http://www.w3.org/2000/svg">
<path d="M4.40036 1.7223H0.44278V0.692681H9.54844V1.7223H5.59086V11.9541H4.40036V1.7223ZM14.1805 3.4276C15.2851 3.4276 16.1324 3.70645 16.7223 4.26416C17.3122 4.81114 17.6071 5.62626 17.6071 6.7095V11.9541H16.5132V10.6349C16.2558 11.0746 15.875 11.4178 15.3709 11.6645C14.8776 11.9112 14.2877 12.0345 13.6013 12.0345C12.6575 12.0345 11.9067 11.8093 11.349 11.3589C10.7913 10.9084 10.5125 10.3132 10.5125 9.57312C10.5125 8.85453 10.7699 8.27537 11.2847 7.83564C11.8102 7.39591 12.6414 7.17604 13.7783 7.17604H16.4649V6.66123C16.4649 5.93192 16.2611 5.37958 15.8536 5.0042C15.446 4.61809 14.8508 4.42504 14.0678 4.42504C13.5316 4.42504 13.0168 4.5162 12.5234 4.69853C12.0301 4.87013 11.6064 5.11145 11.2525 5.42248L10.7377 4.56983C11.1667 4.20517 11.6815 3.92632 12.2821 3.73326C12.8827 3.52949 13.5155 3.4276 14.1805 3.4276ZM13.7783 11.1336C14.4218 11.1336 14.9741 10.9888 15.4353 10.6993C15.8965 10.399 16.2397 9.96995 16.4649 9.41224V8.02869H13.8104C12.3625 8.02869 11.6386 8.53277 11.6386 9.54094C11.6386 10.0343 11.8263 10.4258 12.2017 10.7153C12.577 10.9942 13.1026 11.1336 13.7783 11.1336ZM24.3293 7.70694L22.3344 9.54094V11.9541H21.1922V0.0169964H22.3344V8.10913L27.386 3.49195H28.8017L25.182 6.95081L29.1395 11.9541H27.7399L24.3293 7.70694ZM38.3595 8.07696H31.2808C31.3452 8.95642 31.683 9.66964 32.2944 10.2166C32.9057 10.7529 33.6779 11.021 34.611 11.021C35.1365 11.021 35.6192 10.9298 36.0589 10.7475C36.4986 10.5545 36.8794 10.2756 37.2011 9.91096L37.8446 10.651C37.4693 11.1015 36.9974 11.4447 36.4289 11.6806C35.8712 11.9166 35.2545 12.0345 34.5788 12.0345C33.7101 12.0345 32.9379 11.8522 32.2622 11.4876C31.5972 11.1122 31.0771 10.5974 30.7017 9.94313C30.3263 9.2889 30.1386 8.54886 30.1386 7.72303C30.1386 6.89719 30.3156 6.15715 30.6695 5.50292C31.0342 4.84868 31.5275 4.33924 32.1496 3.97458C32.7824 3.60993 33.4902 3.4276 34.2732 3.4276C35.0561 3.4276 35.7586 3.60993 36.3807 3.97458C37.0027 4.33924 37.4907 4.84868 37.8446 5.50292C38.1986 6.14643 38.3755 6.88646 38.3755 7.72303L38.3595 8.07696ZM34.2732 4.40895C33.4581 4.40895 32.7716 4.67172 32.2139 5.19725C31.667 5.71206 31.3559 6.38774 31.2808 7.22431H37.2816C37.2065 6.38774 36.8901 5.71206 36.3324 5.19725C35.7854 4.67172 35.099 4.40895 34.2732 4.40895ZM48.8363 3.4276C49.941 3.4276 50.7883 3.70645 51.3782 4.26416C51.9681 4.81114 52.263 5.62626 52.263 6.7095V11.9541H51.1691V10.6349C50.9117 11.0746 50.5309 11.4178 50.0268 11.6645C49.5335 11.9112 48.9436 12.0345 48.2572 12.0345C47.3134 12.0345 46.5626 11.8093 46.0049 11.3589C45.4472 10.9084 45.1683 10.3132 45.1683 9.57312C45.1683 8.85453 45.4257 8.27537 45.9405 7.83564C46.4661 7.39591 47.2973 7.17604 48.4341 7.17604H51.1208V6.66123C51.1208 5.93192 50.917 5.37958 50.5095 5.0042C50.1019 4.61809 49.5067 4.42504 48.7237 4.42504C48.1875 4.42504 47.6727 4.5162 47.1793 4.69853C46.6859 4.87013 46.2623 5.11145 45.9084 5.42248L45.3936 4.56983C45.8226 4.20517 46.3374 3.92632 46.938 3.73326C47.5386 3.52949 48.1714 3.4276 48.8363 3.4276ZM48.4341 11.1336C49.0777 11.1336 49.63 10.9888 50.0912 10.6993C50.5524 10.399 50.8956 9.96995 51.1208 9.41224V8.02869H48.4663C47.0184 8.02869 46.2945 8.53277 46.2945 9.54094C46.2945 10.0343 46.4822 10.4258 46.8576 10.7153C47.2329 10.9942 47.7585 11.1336 48.4341 11.1336ZM60.5412 0.0169964H61.6834V11.9541H60.5412V0.0169964ZM68.8031 12.0345C67.988 12.0345 67.2533 11.8522 66.5991 11.4876C65.9449 11.1122 65.4301 10.5974 65.0547 9.94313C64.6793 9.2889 64.4916 8.54886 64.4916 7.72303C64.4916 6.89719 64.6793 6.15715 65.0547 5.50292C65.4301 4.84868 65.9449 4.33924 66.5991 3.97458C67.2533 3.60993 67.988 3.4276 68.8031 3.4276C69.6182 3.4276 70.3529 3.60993 71.0071 3.97458C71.6614 4.33924 72.1708 4.84868 72.5355 5.50292C72.9109 6.15715 73.0985 6.89719 73.0985 7.72303C73.0985 8.54886 72.9109 9.2889 72.5355 9.94313C72.1708 10.5974 71.6614 11.1122 71.0071 11.4876C70.3529 11.8522 69.6182 12.0345 68.8031 12.0345ZM68.8031 11.021C69.4037 11.021 69.94 10.8869 70.4119 10.6188C70.8945 10.34 71.2699 9.9485 71.538 9.44441C71.8062 8.94033 71.9402 8.36653 71.9402 7.72303C71.9402 7.07952 71.8062 6.50572 71.538 6.00164C71.2699 5.49755 70.8945 5.11145 70.4119 4.84332C69.94 4.56447 69.4037 4.42504 68.8031 4.42504C68.2025 4.42504 67.6609 4.56447 67.1783 4.84332C66.7063 5.11145 66.331 5.49755 66.0521 6.00164C65.784 6.50572 65.6499 7.07952 65.6499 7.72303C65.6499 8.36653 65.784 8.94033 66.0521 9.44441C66.331 9.9485 66.7063 10.34 67.1783 10.6188C67.6609 10.8869 68.2025 11.021 68.8031 11.021ZM79.372 12.0345C78.5569 12.0345 77.8222 11.8522 77.168 11.4876C76.5137 11.1122 75.9989 10.5974 75.6236 9.94313C75.2482 9.2889 75.0605 8.54886 75.0605 7.72303C75.0605 6.89719 75.2482 6.15715 75.6236 5.50292C75.9989 4.84868 76.5137 4.33924 77.168 3.97458C77.8222 3.60993 78.5569 3.4276 79.372 3.4276C80.1871 3.4276 80.9218 3.60993 81.576 3.97458C82.2303 4.33924 82.7397 4.84868 83.1044 5.50292C83.4797 6.15715 83.6674 6.89719 83.6674 7.72303C83.6674 8.54886 83.4797 9.2889 83.1044 9.94313C82.7397 10.5974 82.2303 11.1122 81.576 11.4876C80.9218 11.8522 80.1871 12.0345 79.372 12.0345ZM79.372 11.021C79.9726 11.021 80.5089 10.8869 80.9808 10.6188C81.4634 10.34 81.8388 9.9485 82.1069 9.44441C82.375 8.94033 82.5091 8.36653 82.5091 7.72303C82.5091 7.07952 82.375 6.50572 82.1069 6.00164C81.8388 5.49755 81.4634 5.11145 80.9808 4.84332C80.5089 4.56447 79.9726 4.42504 79.372 4.42504C78.7714 4.42504 78.2298 4.56447 77.7471 4.84332C77.2752 5.11145 76.8999 5.49755 76.621 6.00164C76.3529 6.50572 76.2188 7.07952 76.2188 7.72303C76.2188 8.36653 76.3529 8.94033 76.621 9.44441C76.8999 9.9485 77.2752 10.34 77.7471 10.6188C78.2298 10.8869 78.7714 11.021 79.372 11.021ZM89.6191 7.70694L87.6243 9.54094V11.9541H86.482V0.0169964H87.6243V8.10913L92.6758 3.49195H94.0915L90.4718 6.95081L94.4294 11.9541H93.0297L89.6191 7.70694ZM104.28 3.4276C105.385 3.4276 106.232 3.70645 106.822 4.26416C107.412 4.81114 107.707 5.62626 107.707 6.7095V11.9541H106.613V10.6349C106.355 11.0746 105.975 11.4178 105.47 11.6645C104.977 11.9112 104.387 12.0345 103.701 12.0345C102.757 12.0345 102.006 11.8093 101.449 11.3589C100.891 10.9084 100.612 10.3132 100.612 9.57312C100.612 8.85453 100.869 8.27537 101.384 7.83564C101.91 7.39591 102.741 7.17604 103.878 7.17604H106.564V6.66123C106.564 5.93192 106.361 5.37958 105.953 5.0042C105.546 4.61809 104.95 4.42504 104.167 4.42504C103.631 4.42504 103.116 4.5162 102.623 4.69853C102.13 4.87013 101.706 5.11145 101.352 5.42248L100.837 4.56983C101.266 4.20517 101.781 3.92632 102.382 3.73326C102.982 3.52949 103.615 3.4276 104.28 3.4276ZM103.878 11.1336C104.521 11.1336 105.074 10.9888 105.535 10.6993C105.996 10.399 106.339 9.96995 106.564 9.41224V8.02869H103.91C102.462 8.02869 101.738 8.53277 101.738 9.54094C101.738 10.0343 101.926 10.4258 102.301 10.7153C102.677 10.9942 103.202 11.1336 103.878 11.1336ZM115.748 11.4393C115.534 11.6323 115.265 11.7825 114.944 11.8898C114.633 11.9863 114.305 12.0345 113.962 12.0345C113.169 12.0345 112.557 11.82 112.128 11.391C111.699 10.962 111.485 10.3561 111.485 9.57312V4.45721H109.973V3.49195H111.485V1.64186H112.627V3.49195H115.201V4.45721H112.627V9.50876C112.627 10.0128 112.75 10.399 112.997 10.6671C113.254 10.9245 113.619 11.0532 114.091 11.0532C114.327 11.0532 114.552 11.0156 114.767 10.9406C114.992 10.8655 115.185 10.7582 115.346 10.6188L115.748 11.4393ZM16.4601 36.0345C15.645 36.0345 14.9104 35.8522 14.2561 35.4876C13.6019 35.1122 13.0871 34.5974 12.7117 33.9431C12.3363 33.2889 12.1486 32.5489 12.1486 31.723C12.1486 30.8972 12.3363 30.1572 12.7117 29.5029C13.0871 28.8487 13.6019 28.3392 14.2561 27.9746C14.9104 27.6099 15.645 27.4276 16.4601 27.4276C17.2753 27.4276 18.0099 27.6099 18.6642 27.9746C19.3184 28.3392 19.8278 28.8487 20.1925 29.5029C20.5679 30.1572 20.7556 30.8972 20.7556 31.723C20.7556 32.5489 20.5679 33.2889 20.1925 33.9431C19.8278 34.5974 19.3184 35.1122 18.6642 35.4876C18.0099 35.8522 17.2753 36.0345 16.4601 36.0345ZM16.4601 35.021C17.0607 35.021 17.597 34.8869 18.0689 34.6188C18.5515 34.34 18.9269 33.9485 19.1951 33.4444C19.4632 32.9403 19.5972 32.3665 19.5972 31.723C19.5972 31.0795 19.4632 30.5057 19.1951 30.0016C18.9269 29.4976 18.5515 29.1114 18.0689 28.8433C17.597 28.5645 17.0607 28.425 16.4601 28.425C15.8595 28.425 15.3179 28.5645 14.8353 28.8433C14.3634 29.1114 13.988 29.4976 13.7091 30.0016C13.441 30.5057 13.3069 31.0795 13.3069 31.723C13.3069 32.3665 13.441 32.9403 13.7091 33.4444C13.988 33.9485 14.3634 34.34 14.8353 34.6188C15.3179 34.8869 15.8595 35.021 16.4601 35.021ZM31.1958 27.4919V35.9541H30.1018V34.4097C29.8015 34.9245 29.3886 35.3267 28.863 35.6163C28.3375 35.8951 27.7369 36.0345 27.0612 36.0345C25.9565 36.0345 25.0824 35.7289 24.4389 35.1175C23.8061 34.4955 23.4897 33.5892 23.4897 32.3987V27.4919H24.632V32.2861C24.632 33.1763 24.8518 33.852 25.2916 34.3132C25.7313 34.7743 26.3587 35.0049 27.1738 35.0049C28.064 35.0049 28.7665 34.7368 29.2813 34.2005C29.7961 33.6536 30.0535 32.8974 30.0535 31.9322V27.4919H31.1958ZM35.9714 29.149C36.2396 28.5806 36.6364 28.1515 37.1619 27.862C37.6982 27.5724 38.3578 27.4276 39.1407 27.4276V28.5377L38.8672 28.5216C37.977 28.5216 37.2799 28.7951 36.7758 29.342C36.2717 29.889 36.0197 30.6559 36.0197 31.6426V35.9541H34.8775V27.4919H35.9714V29.149ZM53.6211 27.4919L49.8565 35.9541H48.6821L44.9337 27.4919H46.1242L49.2935 34.6993L52.4949 27.4919H53.6211ZM58.4211 27.4276C59.5258 27.4276 60.3731 27.7065 60.963 28.2642C61.5529 28.8111 61.8478 29.6263 61.8478 30.7095V35.9541H60.7538V34.6349C60.4964 35.0746 60.1157 35.4178 59.6116 35.6645C59.1183 35.9112 58.5284 36.0345 57.842 36.0345C56.8981 36.0345 56.1474 35.8093 55.5897 35.3589C55.032 34.9084 54.7531 34.3132 54.7531 33.5731C54.7531 32.8545 55.0105 32.2754 55.5253 31.8356C56.0509 31.3959 56.8821 31.176 58.0189 31.176H60.7056V30.6612C60.7056 29.9319 60.5018 29.3796 60.0942 29.0042C59.6867 28.6181 59.0914 28.425 58.3085 28.425C57.7722 28.425 57.2574 28.5162 56.7641 28.6985C56.2707 28.8701 55.8471 29.1114 55.4931 29.4225L54.9783 28.5698C55.4073 28.2052 55.9222 27.9263 56.5228 27.7333C57.1234 27.5295 57.7562 27.4276 58.4211 27.4276ZM58.0189 35.1336C58.6624 35.1336 59.2148 34.9888 59.676 34.6993C60.1371 34.399 60.4803 33.9699 60.7056 33.4122V32.0287H58.0511C56.6032 32.0287 55.8793 32.5328 55.8793 33.5409C55.8793 34.0343 56.0669 34.4258 56.4423 34.7153C56.8177 34.9942 57.3432 35.1336 58.0189 35.1336ZM66.5268 29.149C66.795 28.5806 67.1918 28.1515 67.7173 27.862C68.2536 27.5724 68.9132 27.4276 69.6961 27.4276V28.5377L69.4226 28.5216C68.5324 28.5216 67.8353 28.7951 67.3312 29.342C66.8271 29.889 66.5751 30.6559 66.5751 31.6426V35.9541H65.4329V27.4919H66.5268V29.149ZM72.2469 27.4919H73.3891V35.9541H72.2469V27.4919ZM72.8261 25.6419C72.5901 25.6419 72.3917 25.5614 72.2308 25.4005C72.0699 25.2397 71.9895 25.0466 71.9895 24.8214C71.9895 24.6069 72.0699 24.4192 72.2308 24.2583C72.3917 24.0974 72.5901 24.017 72.8261 24.017C73.062 24.017 73.2604 24.0974 73.4213 24.2583C73.5822 24.4085 73.6626 24.5908 73.6626 24.8053C73.6626 25.0412 73.5822 25.2397 73.4213 25.4005C73.2604 25.5614 73.062 25.6419 72.8261 25.6419ZM80.5088 36.0345C79.6937 36.0345 78.959 35.8522 78.3048 35.4876C77.6506 35.1122 77.1358 34.5974 76.7604 33.9431C76.385 33.2889 76.1973 32.5489 76.1973 31.723C76.1973 30.8972 76.385 30.1572 76.7604 29.5029C77.1358 28.8487 77.6506 28.3392 78.3048 27.9746C78.959 27.6099 79.6937 27.4276 80.5088 27.4276C81.3239 27.4276 82.0586 27.6099 82.7128 27.9746C83.3671 28.3392 83.8765 28.8487 84.2412 29.5029C84.6166 30.1572 84.8043 30.8972 84.8043 31.723C84.8043 32.5489 84.6166 33.2889 84.2412 33.9431C83.8765 34.5974 83.3671 35.1122 82.7128 35.4876C82.0586 35.8522 81.3239 36.0345 80.5088 36.0345ZM80.5088 35.021C81.1094 35.021 81.6457 34.8869 82.1176 34.6188C82.6002 34.34 82.9756 33.9485 83.2437 33.4444C83.5119 32.9403 83.6459 32.3665 83.6459 31.723C83.6459 31.0795 83.5119 30.5057 83.2437 30.0016C82.9756 29.4976 82.6002 29.1114 82.1176 28.8433C81.6457 28.5645 81.1094 28.425 80.5088 28.425C79.9082 28.425 79.3666 28.5645 78.884 28.8433C78.4121 29.1114 78.0367 29.4976 77.7578 30.0016C77.4897 30.5057 77.3556 31.0795 77.3556 31.723C77.3556 32.3665 77.4897 32.9403 77.7578 33.4444C78.0367 33.9485 78.4121 34.34 78.884 34.6188C79.3666 34.8869 79.9082 35.021 80.5088 35.021ZM95.2444 27.4919V35.9541H94.1505V34.4097C93.8502 34.9245 93.4373 35.3267 92.9117 35.6163C92.3862 35.8951 91.7856 36.0345 91.1099 36.0345C90.0052 36.0345 89.1311 35.7289 88.4876 35.1175C87.8548 34.4955 87.5384 33.5892 87.5384 32.3987V27.4919H88.6806V32.2861C88.6806 33.1763 88.9005 33.852 89.3402 34.3132C89.78 34.7743 90.4074 35.0049 91.2225 35.0049C92.1127 35.0049 92.8152 34.7368 93.33 34.2005C93.8448 33.6536 94.1022 32.8974 94.1022 31.9322V27.4919H95.2444ZM101.195 36.0345C100.508 36.0345 99.8485 35.938 99.2157 35.745C98.5937 35.5412 98.1057 35.2891 97.7517 34.9888L98.2666 34.0879C98.6205 34.3668 99.0656 34.5974 99.6018 34.7797C100.138 34.9513 100.696 35.0371 101.275 35.0371C102.047 35.0371 102.616 34.9191 102.98 34.6832C103.356 34.4365 103.543 34.0933 103.543 33.6536C103.543 33.3425 103.441 33.1012 103.238 32.9296C103.034 32.7473 102.776 32.6132 102.465 32.5274C102.154 32.4309 101.742 32.3397 101.227 32.2539C100.54 32.1252 99.9879 31.9965 99.5697 31.8678C99.1514 31.7284 98.7921 31.4978 98.4918 31.176C98.2022 30.8543 98.0574 30.4092 98.0574 29.8408C98.0574 29.1329 98.3524 28.5537 98.9422 28.1033C99.5321 27.6528 100.353 27.4276 101.404 27.4276C101.951 27.4276 102.498 27.5027 103.045 27.6528C103.592 27.7923 104.042 27.9799 104.396 28.2159L103.897 29.1329C103.2 28.6503 102.369 28.409 101.404 28.409C100.674 28.409 100.122 28.5377 99.7466 28.7951C99.382 29.0525 99.1996 29.3903 99.1996 29.8086C99.1996 30.1303 99.3015 30.3877 99.5053 30.5808C99.7198 30.7738 99.9826 30.9186 100.294 31.0152C100.605 31.101 101.034 31.1921 101.581 31.2887C102.256 31.4174 102.798 31.5461 103.205 31.6748C103.613 31.8035 103.962 32.0233 104.251 32.3344C104.541 32.6454 104.686 33.0744 104.686 33.6214C104.686 34.3614 104.375 34.9513 103.752 35.391C103.141 35.82 102.288 36.0345 101.195 36.0345ZM28.3991 51.4276C29.1927 51.4276 29.9113 51.6099 30.5548 51.9746C31.1983 52.3285 31.7024 52.8326 32.0671 53.4868C32.4317 54.1411 32.6141 54.8865 32.6141 55.723C32.6141 56.5703 32.4317 57.3211 32.0671 57.9753C31.7024 58.6295 31.1983 59.139 30.5548 59.5036C29.922 59.8576 29.2035 60.0345 28.3991 60.0345C27.7127 60.0345 27.0906 59.8951 26.5329 59.6163C25.9859 59.3267 25.5354 58.9084 25.1815 58.3614V63.0751H24.0393V51.4919H25.1333V53.1651C25.4765 52.6074 25.9269 52.1784 26.4846 51.8781C27.0531 51.5778 27.6912 51.4276 28.3991 51.4276ZM28.3186 59.021C28.9085 59.021 29.4448 58.8869 29.9274 58.6188C30.41 58.34 30.7854 57.9485 31.0535 57.4444C31.3324 56.9403 31.4718 56.3665 31.4718 55.723C31.4718 55.0795 31.3324 54.5111 31.0535 54.0177C30.7854 53.5136 30.41 53.1222 29.9274 52.8433C29.4448 52.5645 28.9085 52.425 28.3186 52.425C27.718 52.425 27.1764 52.5645 26.6938 52.8433C26.2219 53.1222 25.8465 53.5136 25.5676 54.0177C25.2995 54.5111 25.1654 55.0795 25.1654 55.723C25.1654 56.3665 25.2995 56.9403 25.5676 57.4444C25.8465 57.9485 26.2219 58.34 26.6938 58.6188C27.1764 58.8869 27.718 59.021 28.3186 59.021ZM36.5191 53.149C36.7872 52.5806 37.1841 52.1515 37.7096 51.862C38.2459 51.5724 38.9055 51.4276 39.6884 51.4276V52.5377L39.4149 52.5216C38.5247 52.5216 37.8276 52.7951 37.3235 53.342C36.8194 53.889 36.5674 54.6559 36.5674 55.6426V59.9541H35.4251V51.4919H36.5191V53.149ZM45.6195 60.0345C44.8044 60.0345 44.0697 59.8522 43.4155 59.4876C42.7612 59.1122 42.2464 58.5974 41.871 57.9431C41.4957 57.2889 41.308 56.5489 41.308 55.723C41.308 54.8972 41.4957 54.1572 41.871 53.5029C42.2464 52.8487 42.7612 52.3392 43.4155 51.9746C44.0697 51.6099 44.8044 51.4276 45.6195 51.4276C46.4346 51.4276 47.1693 51.6099 47.8235 51.9746C48.4777 52.3392 48.9872 52.8487 49.3518 53.5029C49.7272 54.1572 49.9149 54.8972 49.9149 55.723C49.9149 56.5489 49.7272 57.2889 49.3518 57.9431C48.9872 58.5974 48.4777 59.1122 47.8235 59.4876C47.1693 59.8522 46.4346 60.0345 45.6195 60.0345ZM45.6195 59.021C46.2201 59.021 46.7564 58.8869 47.2283 58.6188C47.7109 58.34 48.0863 57.9485 48.3544 57.4444C48.6225 56.9403 48.7566 56.3665 48.7566 55.723C48.7566 55.0795 48.6225 54.5057 48.3544 54.0016C48.0863 53.4976 47.7109 53.1114 47.2283 52.8433C46.7564 52.5645 46.2201 52.425 45.6195 52.425C45.0189 52.425 44.4773 52.5645 43.9946 52.8433C43.5227 53.1114 43.1473 53.4976 42.8685 54.0016C42.6004 54.5057 42.4663 55.0795 42.4663 55.723C42.4663 56.3665 42.6004 56.9403 42.8685 57.4444C43.1473 57.9485 43.5227 58.34 43.9946 58.6188C44.4773 58.8869 45.0189 59.021 45.6195 59.021ZM51.4747 63.1556C51.1207 63.1556 50.7883 63.1073 50.4772 63.0108C50.1555 62.925 49.8927 62.7909 49.6889 62.6086L50.0911 61.7398C50.4236 62.0294 50.8633 62.1742 51.4103 62.1742C51.8608 62.1742 52.204 62.0401 52.4399 61.772C52.6866 61.5039 52.81 61.1071 52.81 60.5815V51.4919H53.9522V60.5815C53.9522 61.3752 53.7377 62.0026 53.3087 62.4638C52.8797 62.925 52.2683 63.1556 51.4747 63.1556ZM53.3891 49.6258C53.1532 49.6258 52.9547 49.5453 52.7939 49.3845C52.633 49.2236 52.5525 49.0305 52.5525 48.8053C52.5525 48.5908 52.633 48.4031 52.7939 48.2422C52.9547 48.0813 53.1532 48.0009 53.3891 48.0009C53.6251 48.0009 53.8235 48.0813 53.9844 48.2422C54.1452 48.3924 54.2257 48.5747 54.2257 48.7892C54.2257 49.0252 54.1452 49.2236 53.9844 49.3845C53.8235 49.5453 53.6251 49.6258 53.3891 49.6258ZM64.995 56.077H57.9164C57.9808 56.9564 58.3186 57.6696 58.93 58.2166C59.5413 58.7529 60.3135 59.021 61.2466 59.021C61.7721 59.021 62.2548 58.9298 62.6945 58.7475C63.1342 58.5545 63.515 58.2756 63.8367 57.911L64.4802 58.651C64.1048 59.1015 63.6329 59.4447 63.0645 59.6806C62.5068 59.9166 61.8901 60.0345 61.2144 60.0345C60.3457 60.0345 59.5735 59.8522 58.8978 59.4876C58.2328 59.1122 57.7126 58.5974 57.3373 57.9431C56.9619 57.2889 56.7742 56.5489 56.7742 55.723C56.7742 54.8972 56.9512 54.1572 57.3051 53.5029C57.6697 52.8487 58.1631 52.3392 58.7852 51.9746C59.4179 51.6099 60.1258 51.4276 60.9087 51.4276C61.6917 51.4276 62.3942 51.6099 63.0162 51.9746C63.6383 52.3392 64.1263 52.8487 64.4802 53.5029C64.8342 54.1464 65.0111 54.8865 65.0111 55.723L64.995 56.077ZM60.9087 52.409C60.0936 52.409 59.4072 52.6717 58.8495 53.1972C58.3025 53.7121 57.9915 54.3877 57.9164 55.2243H63.9172C63.8421 54.3877 63.5257 53.7121 62.968 53.1972C62.421 52.6717 61.7346 52.409 60.9087 52.409ZM71.3258 60.0345C70.4892 60.0345 69.7385 59.8522 69.0735 59.4876C68.4193 59.1229 67.9045 58.6135 67.5291 57.9592C67.1537 57.2943 66.966 56.5489 66.966 55.723C66.966 54.8972 67.1537 54.1572 67.5291 53.5029C67.9045 52.8487 68.4193 52.3392 69.0735 51.9746C69.7385 51.6099 70.4892 51.4276 71.3258 51.4276C72.0551 51.4276 72.704 51.5724 73.2724 51.862C73.8516 52.1408 74.3074 52.5537 74.6399 53.1007L73.7872 53.6799C73.5084 53.2616 73.1545 52.9506 72.7254 52.7468C72.2964 52.5323 71.8299 52.425 71.3258 52.425C70.7145 52.425 70.1621 52.5645 69.6688 52.8433C69.1861 53.1114 68.8054 53.4976 68.5265 54.0016C68.2584 54.5057 68.1244 55.0795 68.1244 55.723C68.1244 56.3773 68.2584 56.9564 68.5265 57.4605C68.8054 57.9539 69.1861 58.34 69.6688 58.6188C70.1621 58.8869 70.7145 59.021 71.3258 59.021C71.8299 59.021 72.2964 58.9191 72.7254 58.7153C73.1545 58.5116 73.5084 58.2005 73.7872 57.7823L74.6399 58.3614C74.3074 58.9084 73.8516 59.3267 73.2724 59.6163C72.6933 59.8951 72.0444 60.0345 71.3258 60.0345ZM81.9169 59.4393C81.7024 59.6323 81.4343 59.7825 81.1126 59.8898C80.8015 59.9863 80.4744 60.0345 80.1312 60.0345C79.3375 60.0345 78.7262 59.82 78.2972 59.391C77.8682 58.962 77.6537 58.3561 77.6537 57.5731V52.4572H76.1414V51.4919H77.6537V49.6419H78.7959V51.4919H81.37V52.4572H78.7959V57.5088C78.7959 58.0128 78.9193 58.399 79.1659 58.6671C79.4233 58.9245 79.788 59.0532 80.2599 59.0532C80.4959 59.0532 80.7211 59.0156 80.9356 58.9406C81.1608 58.8655 81.3539 58.7582 81.5148 58.6188L81.9169 59.4393ZM86.7473 60.0345C86.0609 60.0345 85.4013 59.938 84.7685 59.745C84.1464 59.5412 83.6584 59.2891 83.3045 58.9888L83.8193 58.0879C84.1733 58.3668 84.6184 58.5974 85.1546 58.7797C85.6909 58.9513 86.2486 59.0371 86.8277 59.0371C87.5999 59.0371 88.1684 58.9191 88.533 58.6832C88.9084 58.4365 89.0961 58.0933 89.0961 57.6536C89.0961 57.3425 88.9942 57.1012 88.7904 56.9296C88.5867 56.7473 88.3293 56.6132 88.0182 56.5274C87.7072 56.4309 87.2943 56.3397 86.7795 56.2539C86.0931 56.1252 85.5407 55.9965 85.1224 55.8678C84.7042 55.7284 84.3449 55.4978 84.0446 55.176C83.755 54.8543 83.6102 54.4092 83.6102 53.8408C83.6102 53.1329 83.9051 52.5537 84.495 52.1033C85.0849 51.6528 85.9054 51.4276 86.9564 51.4276C87.5034 51.4276 88.0504 51.5027 88.5974 51.6528C89.1444 51.7923 89.5948 51.9799 89.9488 52.2159L89.45 53.1329C88.7529 52.6503 87.9217 52.409 86.9564 52.409C86.2271 52.409 85.6748 52.5377 85.2994 52.7951C84.9347 53.0525 84.7524 53.3903 84.7524 53.8086C84.7524 54.1303 84.8543 54.3877 85.0581 54.5808C85.2726 54.7738 85.5354 54.9186 85.8464 55.0152C86.1574 55.101 86.5864 55.1921 87.1334 55.2887C87.8091 55.4174 88.3507 55.5461 88.7583 55.6748C89.1658 55.8035 89.5144 56.0233 89.804 56.3344C90.0935 56.6454 90.2383 57.0744 90.2383 57.6214C90.2383 58.3614 89.9273 58.9513 89.3052 59.391C88.6939 59.82 87.8413 60.0345 86.7473 60.0345ZM92.9452 60.0345C92.7093 60.0345 92.5055 59.9487 92.3339 59.7771C92.173 59.6055 92.0926 59.3964 92.0926 59.1497C92.0926 58.903 92.173 58.6993 92.3339 58.5384C92.5055 58.3668 92.7093 58.281 92.9452 58.281C93.1812 58.281 93.385 58.3668 93.5566 58.5384C93.7282 58.6993 93.814 58.903 93.814 59.1497C93.814 59.3964 93.7282 59.6055 93.5566 59.7771C93.385 59.9487 93.1812 60.0345 92.9452 60.0345Z" fill="black"/>
</svg>
