<svg width="25" height="22" viewBox="0 0 25 22" fill="none" xmlns="http://www.w3.org/2000/svg">
<path d="M2.67892 17.1508C2.56719 17.1523 2.46045 17.2013 2.38144 17.2871C2.30243 17.3729 2.2574 17.4888 2.25594 17.6101V21.2853C2.25594 21.4072 2.3005 21.524 2.37982 21.6102C2.45915 21.6963 2.56674 21.7447 2.67892 21.7447C2.79111 21.7447 2.8987 21.6963 2.97802 21.6102C3.05735 21.524 3.10191 21.4072 3.10191 21.2853V17.6101C3.10045 17.4888 3.05542 17.3729 2.97641 17.2871C2.89739 17.2013 2.79065 17.1523 2.67892 17.1508ZM10.7157 16.2381V18.2227C10.7172 18.344 10.7622 18.46 10.8412 18.5458C10.9202 18.6316 11.027 18.6805 11.1387 18.6821H15.6506C15.7627 18.6821 15.8703 18.6337 15.9497 18.5475C16.029 18.4614 16.0735 18.3445 16.0735 18.2227C16.0735 18.1008 16.029 17.984 15.9497 17.8978C15.8703 17.8117 15.7627 17.7633 15.6506 17.7633H11.5617V16.2381C11.5617 15.6679 11.3531 15.121 10.9819 14.7178C10.6106 14.3146 10.1071 14.0881 9.58209 14.0881H8.17776V12.2505C8.53402 11.8942 8.81824 11.4614 9.01241 10.9796C9.20658 10.4977 9.30646 9.97727 9.30573 9.45129V5.91701C9.30573 5.31756 9.08647 4.74267 8.69619 4.31879C8.30591 3.89492 7.77657 3.65679 7.22463 3.65679H4.33704C3.78509 3.65679 3.25576 3.89492 2.86548 4.31879C2.4752 4.74267 2.25594 5.31756 2.25594 5.91701V9.45129C2.25521 9.97727 2.35509 10.4977 2.54926 10.9796C2.74343 11.4614 3.02765 11.8942 3.3839 12.2505V14.0881H1.97958C1.45456 14.0881 0.951054 14.3146 0.57981 14.7178C0.208566 15.121 0 15.6679 0 16.2381V21.2853C0 21.4072 0.0445622 21.524 0.123888 21.6102C0.203213 21.6963 0.310804 21.7447 0.422988 21.7447C0.535171 21.7447 0.642762 21.6963 0.722088 21.6102C0.801414 21.524 0.845976 21.4072 0.845976 21.2853V16.2381C0.845976 15.9132 0.964814 15.6016 1.17635 15.3719C1.38788 15.1421 1.67479 15.013 1.97394 15.013H3.20342C3.21895 15.0474 3.23996 15.0785 3.26546 15.1049C3.58559 15.4434 3.96428 15.7098 4.37967 15.8885C4.79506 16.0672 5.23893 16.1549 5.68566 16.1463C6.1324 16.1378 6.57315 16.0332 6.98249 15.8387C7.39183 15.6442 7.76165 15.3636 8.07061 15.013H9.57644C9.72552 15.0114 9.87341 15.0419 10.0116 15.1027C10.1497 15.1636 10.2754 15.2536 10.3813 15.3675C10.4873 15.4814 10.5714 15.617 10.6288 15.7664C10.6862 15.9159 10.7157 16.0762 10.7157 16.2381ZM3.10191 5.93539C3.10191 5.57962 3.23204 5.23842 3.46367 4.98686C3.6953 4.73529 4.00946 4.59395 4.33704 4.59395H7.22463C7.55221 4.59395 7.86637 4.73529 8.098 4.98686C8.32963 5.23842 8.45976 5.57962 8.45976 5.93539V6.76842C8.41488 6.74892 8.36709 6.73855 8.31876 6.7378H4.37087C4.25915 6.73938 4.1524 6.78829 4.07339 6.8741C3.99438 6.95992 3.94935 7.07585 3.94789 7.19719V7.96285H3.10191V5.93539ZM7.33179 14.5108C6.91276 14.9362 6.37147 15.1916 5.79922 15.234C5.22696 15.2764 4.65874 15.1032 4.1904 14.7435C4.21806 14.6871 4.23167 14.6237 4.22988 14.5598V12.9182C4.71244 13.176 5.24305 13.3101 5.78083 13.3101C6.31862 13.3101 6.84923 13.176 7.33179 12.9182V14.5108ZM5.78083 12.3914C5.07034 12.3914 4.38894 12.0849 3.88655 11.5392C3.38415 10.9936 3.10191 10.2536 3.10191 9.48192V8.8694H4.37087C4.4826 8.86781 4.58935 8.8189 4.66836 8.73309C4.74737 8.64728 4.7924 8.53135 4.79386 8.41V7.64434H8.31876C8.36709 7.64359 8.41488 7.6332 8.45976 7.61371V9.45129C8.46199 9.83491 8.39435 10.2152 8.26072 10.5704C8.12709 10.9255 7.93011 11.2484 7.68113 11.5205C7.43215 11.7926 7.13607 12.0086 6.80994 12.156C6.48381 12.3033 6.13406 12.3792 5.78083 12.3792V12.3914ZM24.1103 0H3.24291C3.13118 0.00158642 3.02444 0.0504964 2.94542 0.136308C2.86641 0.22212 2.82138 0.338049 2.81992 0.459395V2.9095C2.81992 3.03134 2.86448 3.14819 2.94381 3.23435C3.02313 3.3205 3.13072 3.3689 3.24291 3.3689C3.35509 3.3689 3.46268 3.3205 3.54201 3.23435C3.62133 3.14819 3.66589 3.03134 3.66589 2.9095V0.91879H23.6873V20.2134H9.30573V17.6101C9.30573 17.4883 9.26117 17.3715 9.18184 17.2853C9.10252 17.1992 8.99493 17.1508 8.88274 17.1508C8.77056 17.1508 8.66297 17.1992 8.58364 17.2853C8.50432 17.3715 8.45976 17.4883 8.45976 17.6101V20.6728C8.46122 20.7941 8.50625 20.9101 8.58526 20.9959C8.66427 21.0817 8.77102 21.1306 8.88274 21.1322H24.1103C24.222 21.1306 24.3288 21.0817 24.4078 20.9959C24.4868 20.9101 24.5318 20.7941 24.5333 20.6728V0.459395C24.5318 0.338049 24.4868 0.22212 24.4078 0.136308C24.3288 0.0504964 24.222 0.00158642 24.1103 0ZM17.241 7.96285C17.1288 7.96296 17.0213 8.01143 16.9421 8.09761L15.2501 9.90457L14.0939 8.83265C14.0164 8.75731 13.916 8.71565 13.812 8.71565C13.7079 8.71565 13.6075 8.75731 13.53 8.83265L11.0428 11.5339C10.9636 11.62 10.9191 11.7368 10.9191 11.8585C10.9191 11.9803 10.9636 12.097 11.0428 12.1832C11.1234 12.2672 11.23 12.3153 11.3417 12.3179C11.4539 12.3178 11.5614 12.2693 11.6406 12.1832L13.8514 9.78206L14.9794 10.8601C15.0575 10.9342 15.1577 10.975 15.2614 10.975C15.3651 10.975 15.4653 10.9342 15.5434 10.8601L17.3651 8.88164H18.916C19.0251 8.87973 19.1296 8.8339 19.2093 8.75302L20.8166 7.0563V8.42225C20.8166 8.54408 20.8612 8.66094 20.9405 8.74709C21.0199 8.83324 21.1274 8.88164 21.2396 8.88164C21.3518 8.88164 21.4594 8.83324 21.5387 8.74709C21.6181 8.66094 21.6626 8.54408 21.6626 8.42225V5.97214C21.6653 5.95387 21.6653 5.93528 21.6626 5.91701C21.6679 5.87843 21.6679 5.83921 21.6626 5.80063C21.6493 5.76462 21.6302 5.73144 21.6062 5.70262C21.6073 5.68631 21.6073 5.66994 21.6062 5.65363C21.5666 5.61273 21.5209 5.57957 21.4709 5.55562C21.4231 5.53183 21.3712 5.51931 21.3186 5.51887H19.0626C18.9505 5.51887 18.8429 5.56727 18.7636 5.65342C18.6842 5.73958 18.6397 5.85643 18.6397 5.97827C18.6397 6.10011 18.6842 6.21696 18.7636 6.30311C18.8429 6.38927 18.9505 6.43766 19.0626 6.43766H20.2752L18.8201 7.96898L17.241 7.96285Z" fill="#FDA100"/>
</svg>
