<svg width="44" height="56" viewBox="0 0 44 56" fill="none" xmlns="http://www.w3.org/2000/svg">
<path d="M7.18284 23.6447C7.17945 23.3654 7.07517 23.0986 6.89221 22.9011C6.70925 22.7035 6.46208 22.5909 6.20336 22.5873H0.979478C0.719704 22.5873 0.470569 22.6987 0.286882 22.897C0.103194 23.0953 0 23.3643 0 23.6447C0 23.9252 0.103194 24.1942 0.286882 24.3925C0.470569 24.5908 0.719704 24.7022 0.979478 24.7022H6.20336C6.46208 24.6986 6.70925 24.586 6.89221 24.3884C7.07517 24.1909 7.17945 23.9241 7.18284 23.6447ZM9.79478 11.9845C9.98191 12.1752 10.2296 12.2812 10.4869 12.2806C10.6176 12.2816 10.7472 12.2547 10.8682 12.2014C10.9892 12.1482 11.0993 12.0697 11.1922 11.9704C11.3756 11.7721 11.4786 11.5034 11.4786 11.2232C11.4786 10.9429 11.3756 10.6742 11.1922 10.4759L8.0709 7.17663C7.88724 6.9786 7.6383 6.86736 7.37873 6.86736C7.11917 6.86736 6.87022 6.9786 6.68657 7.17663C6.50314 7.3749 6.40012 7.64367 6.40012 7.92389C6.40012 8.20412 6.50314 8.47289 6.68657 8.67116L9.79478 11.9845ZM21.8619 7.75469C21.9911 7.75658 22.1192 7.73052 22.2388 7.67805C22.3585 7.62558 22.4671 7.54776 22.5585 7.44919C22.6498 7.35061 22.7218 7.2333 22.7704 7.10414C22.819 6.97499 22.8432 6.83662 22.8414 6.69723V1.05746C22.8414 0.777002 22.7382 0.508049 22.5545 0.309737C22.3708 0.111426 22.1217 0 21.8619 0C21.6022 0 21.353 0.111426 21.1693 0.309737C20.9857 0.508049 20.8825 0.777002 20.8825 1.05746V6.69723C20.8807 6.83913 20.9051 6.97999 20.9542 7.11163C21.0033 7.24327 21.0762 7.36307 21.1685 7.46407C21.2609 7.56508 21.3709 7.64527 21.4921 7.7C21.6134 7.75473 21.7436 7.7829 21.875 7.78289L21.8619 7.75469ZM7.35261 40.1834C7.48443 40.1841 7.615 40.1557 7.73628 40.1C7.85756 40.0442 7.96698 39.9622 8.05783 39.8591L11.1922 36.3906C11.374 36.1887 11.4741 35.9171 11.4704 35.6355C11.4668 35.3539 11.3596 35.0854 11.1726 34.889C10.9855 34.6927 10.7339 34.5847 10.4731 34.5886C10.2123 34.5926 9.96356 34.7082 9.78172 34.9102L6.66045 38.3927C6.47702 38.591 6.374 38.8598 6.374 39.14C6.374 39.4202 6.47702 39.689 6.66045 39.8873C6.74667 39.9971 6.85228 40.0874 6.97111 40.1527C7.08994 40.2181 7.21962 40.2573 7.35261 40.268V40.1834ZM33.1847 12.196C33.3104 12.1974 33.4351 12.172 33.5516 12.1212C33.6682 12.0704 33.7743 11.9952 33.8638 11.8999L37.0112 8.60066C37.1946 8.40239 37.2976 8.13362 37.2976 7.85339C37.2976 7.57316 37.1946 7.3044 37.0112 7.10612C36.8275 6.9081 36.5786 6.79686 36.319 6.79686C36.0595 6.79686 35.8105 6.9081 35.6269 7.10612L32.4795 10.4054C32.3368 10.5496 32.238 10.7371 32.1961 10.9432C32.1542 11.1492 32.1712 11.3642 32.2447 11.5596C32.3183 11.7551 32.445 11.9219 32.6081 12.038C32.7713 12.1541 32.9632 12.2142 33.1586 12.2101L33.1847 12.196ZM29.7108 49.3762C29.4521 49.3799 29.2049 49.4924 29.022 49.69C28.839 49.8875 28.7347 50.1543 28.7313 50.4337V54.6635C28.7313 54.9439 28.8345 55.2129 29.0182 55.4112C29.2019 55.6095 29.451 55.7209 29.7108 55.7209C29.9706 55.7209 30.2197 55.6095 30.4034 55.4112C30.5871 55.2129 30.6903 54.9439 30.6903 54.6635V50.4337C30.6869 50.1543 30.5826 49.8875 30.3997 49.69C30.2167 49.4924 29.9695 49.3799 29.7108 49.3762ZM33.8769 34.9948C33.6932 34.7967 33.4443 34.6855 33.1847 34.6855C32.9251 34.6855 32.6762 34.7967 32.4925 34.9948C32.3091 35.193 32.2061 35.4618 32.2061 35.742C32.2061 36.0223 32.3091 36.291 32.4925 36.4893L35.6399 39.9578C35.7317 40.0596 35.8413 40.1407 35.9624 40.1964C36.0834 40.2521 36.2136 40.2812 36.3452 40.2821C36.4708 40.2835 36.5955 40.258 36.7121 40.2072C36.8286 40.1564 36.9347 40.0812 37.0243 39.986C37.2077 39.7877 37.3107 39.5189 37.3107 39.2387C37.3107 38.9585 37.2077 38.6897 37.0243 38.4914L33.8769 34.9948ZM23.5075 22.5873H22.0709L24.3694 18.2447C24.4993 17.9997 24.5337 17.7091 24.4652 17.4368C24.3966 17.1644 24.2306 16.9327 24.0037 16.7924C23.7769 16.6522 23.5077 16.615 23.2554 16.6891C23.0032 16.7631 22.7885 16.9423 22.6586 17.1872L19.5373 23.1231C19.4538 23.2847 19.41 23.4667 19.41 23.6518C19.41 23.8369 19.4538 24.0189 19.5373 24.1805C19.6251 24.3391 19.7495 24.4705 19.8982 24.5619C20.0469 24.6533 20.215 24.7016 20.3862 24.7022H21.875L19.3806 29.4537C19.2579 29.6935 19.2275 29.9758 19.2959 30.2396C19.3643 30.5034 19.5261 30.7275 19.7463 30.8636C19.8918 30.959 20.0593 31.0079 20.2295 31.0047C20.4019 31.0026 20.5708 30.9522 20.7197 30.8582C20.8685 30.7643 20.9922 30.6301 21.0784 30.4689L24.4216 24.1382C24.5066 23.9766 24.5505 23.7936 24.5491 23.6078C24.5477 23.4219 24.5009 23.2398 24.4135 23.0796C24.3261 22.9195 24.2012 22.7871 24.0513 22.6957C23.9014 22.6043 23.7318 22.5572 23.5597 22.5591L23.5075 22.5873ZM32.6493 43.7364H28.7575C28.5774 43.7364 28.4046 43.6592 28.2773 43.5217C28.1499 43.3842 28.0784 43.1977 28.0784 43.0033V38.0544C28.0797 37.3845 28.2285 36.7246 28.5123 36.1289C28.7961 35.5333 29.2069 35.019 29.7108 34.6282C31.4601 33.2857 32.8865 31.5107 33.8708 29.4516C34.855 27.3924 35.3686 25.1089 35.3686 22.7917C35.3686 20.4746 34.855 18.1911 33.8708 16.1319C32.8865 14.0728 31.4601 12.2978 29.7108 10.9553C27.9093 9.58318 25.8273 8.70127 23.6422 8.38459C21.4571 8.06792 19.2334 8.32587 17.1604 9.13645C15.2811 9.85156 13.58 11.025 12.1892 12.5657C10.7985 14.1063 9.75562 15.9724 9.14179 18.0191C8.20187 20.969 8.16407 24.1667 9.03397 27.1416C9.90386 30.1164 11.6355 32.7111 13.9739 34.5436C14.501 34.9498 14.9319 35.4845 15.2314 36.1043C15.531 36.7242 15.6908 37.4117 15.6978 38.1108V43.0033C15.6978 43.0996 15.6802 43.1949 15.6461 43.2838C15.6119 43.3728 15.5619 43.4536 15.4989 43.5217C15.4358 43.5898 15.3609 43.6438 15.2785 43.6806C15.1961 43.7175 15.1078 43.7364 15.0187 43.7364H11.1399C9.91726 43.7364 8.74467 44.2608 7.88011 45.1942C7.01555 46.1276 6.52985 47.3935 6.52985 48.7135V54.6635C6.52985 54.9439 6.63304 55.2129 6.81673 55.4112C7.00042 55.6095 7.24956 55.7209 7.50933 55.7209C7.7691 55.7209 8.01824 55.6095 8.20192 55.4112C8.38561 55.2129 8.48881 54.9439 8.48881 54.6635V48.7135C8.48881 47.9656 8.76399 47.2484 9.25382 46.7196C9.74366 46.1907 10.408 45.8936 11.1007 45.8936H14.9534C15.4777 45.8902 15.9901 45.7238 16.4291 45.4143C16.9462 46.419 17.7039 47.2553 18.6228 47.8357C19.5418 48.4161 20.5883 48.7193 21.653 48.7135H22.097C23.1617 48.7193 24.2082 48.4161 25.1272 47.8357C26.0461 47.2553 26.8038 46.419 27.3209 45.4143C27.7599 45.7238 28.2723 45.8902 28.7966 45.8936H32.6493C33.342 45.8936 34.0063 46.1907 34.4962 46.7196C34.986 47.2484 35.2612 47.9656 35.2612 48.7135V54.6635C35.2612 54.9439 35.3644 55.2129 35.5481 55.4112C35.7318 55.6095 35.9809 55.7209 36.2407 55.7209C36.5004 55.7209 36.7496 55.6095 36.9333 55.4112C37.117 55.2129 37.2201 54.9439 37.2201 54.6635V48.7135C37.2201 47.3935 36.7344 46.1276 35.8699 45.1942C35.0053 44.2608 33.8327 43.7364 32.6101 43.7364H32.6493ZM22.2015 46.5563H21.7575C20.8277 46.5482 19.9292 46.1926 19.2149 45.5499C18.5006 44.9073 18.0146 44.0173 17.8396 43.0315H26.1716C25.9919 44.0462 25.4829 44.9586 24.7361 45.6047C23.9893 46.2507 23.0535 46.5881 22.097 46.5563H22.2015ZM26.2239 40.9165H17.7351V38.8016H26.2239V40.9165ZM26.3675 36.6867H17.4739C17.139 35.1392 16.3 33.7731 15.1101 32.8376C13.12 31.2692 11.6462 29.0553 10.9038 26.5189C10.1614 23.9825 10.1892 21.2563 10.9832 18.7382C11.4995 17.0021 12.3813 15.4188 13.5596 14.1124C14.7379 12.8061 16.1805 11.8123 17.7743 11.209C19.5521 10.51 21.46 10.2848 23.3358 10.5523C25.2116 10.8199 26.9998 11.5724 28.5485 12.7459C30.0419 13.8947 31.2593 15.4121 32.0993 17.1718C32.9393 18.9316 33.3776 20.8826 33.3776 22.8622C33.3776 24.8419 32.9393 26.7929 32.0993 28.5526C31.2593 30.3123 30.0419 31.8298 28.5485 32.9786C27.3923 33.8713 26.5792 35.1905 26.2631 36.6867H26.3675ZM42.875 22.5873H37.5466C37.2869 22.5873 37.0377 22.6987 36.8541 22.897C36.6704 23.0953 36.5672 23.3643 36.5672 23.6447C36.5672 23.9252 36.6704 24.1942 36.8541 24.3925C37.0377 24.5908 37.2869 24.7022 37.5466 24.7022H42.7705C43.0303 24.7022 43.2794 24.5908 43.4631 24.3925C43.6468 24.1942 43.75 23.9252 43.75 23.6447C43.75 23.3643 43.6468 23.0953 43.4631 22.897C43.2794 22.6987 43.0303 22.5873 42.7705 22.5873H42.875ZM12.8377 49.3762C12.579 49.3799 12.3318 49.4924 12.1488 49.69C11.9659 49.8875 11.8616 50.1543 11.8582 50.4337V54.6635C11.8582 54.9439 11.9614 55.2129 12.1451 55.4112C12.3288 55.6095 12.5779 55.7209 12.8377 55.7209C13.0975 55.7209 13.3466 55.6095 13.5303 55.4112C13.714 55.2129 13.8172 54.9439 13.8172 54.6635V50.4337C13.8159 50.2854 13.7862 50.1391 13.7299 50.0039C13.6737 49.8686 13.592 49.7475 13.4901 49.6481C13.3882 49.5488 13.2684 49.4733 13.1381 49.4265C13.0078 49.3797 12.8699 49.3625 12.7332 49.3762H12.8377Z" fill="#FDA100"/>
</svg>
