<svg width="31" height="31" viewBox="0 0 31 31" fill="none" xmlns="http://www.w3.org/2000/svg">
<path d="M18.6992 30.0542C18.1537 30.0542 17.6218 29.8352 17.2264 29.4246L1.3522 12.9038C0.874885 12.3974 0.670315 11.6857 0.833965 11.0013C0.997616 10.3169 1.4886 9.76942 2.1432 9.53674L28.1228 0.325086C28.8728 0.0513373 29.7184 0.256653 30.2775 0.831525C30.8367 1.4064 31.0003 2.25502 30.7139 3.00783L20.6084 28.7402C20.3493 29.3972 19.7902 29.8626 19.1083 29.9994C18.9583 30.0405 18.822 30.0542 18.6992 30.0542ZM6.49359 12.3427L17.9491 24.2644L25.2452 5.69057L6.49359 12.3427Z" fill="#4D4D4D"/>
</svg>
