<svg width="22" height="25" viewBox="0 0 22 25" fill="none" xmlns="http://www.w3.org/2000/svg">
<path d="M21.0326 2.74893C21.0012 2.66458 20.9475 2.59249 20.8784 2.54194C20.8093 2.49139 20.7279 2.46471 20.6449 2.46533H18.8184V0.46156C18.819 0.370436 18.7947 0.28121 18.7486 0.205389C18.7025 0.129567 18.6368 0.0706225 18.5599 0.0361443C18.4828 0.000591817 18.3979 -0.00900474 18.3158 0.00856098C18.2338 0.0261267 18.1583 0.0700633 18.0991 0.134793L15.2892 3.21751C15.2101 3.30414 15.1656 3.42168 15.1655 3.54428V5.81932L14.789 6.23239C13.8946 5.33975 12.8429 4.65789 11.6988 4.22893C10.5547 3.79997 9.34258 3.63305 8.13733 3.73849C6.93209 3.84393 5.75937 4.21949 4.69169 4.84195C3.62401 5.46441 2.68407 6.32053 1.92999 7.35738C1.17591 8.39424 0.623728 9.58977 0.307573 10.8701C-0.00858132 12.1504 -0.0819875 13.4882 0.0919066 14.8008C0.265801 16.1135 0.683302 17.3731 1.31857 18.5017C1.95385 19.6303 2.79339 20.6039 3.78531 21.3624L2.84117 23.7052C2.79646 23.8181 2.79443 23.9457 2.83553 24.0602C2.87663 24.1747 2.9575 24.2666 3.06034 24.3156C3.16318 24.3647 3.27958 24.3669 3.38392 24.3218C3.48826 24.2767 3.572 24.188 3.61672 24.0751L4.51027 21.8618C5.83281 22.686 7.32777 23.1193 8.8488 23.1193C10.3698 23.1193 11.8648 22.686 13.1873 21.8618L14.0809 24.0751C14.1256 24.188 14.2093 24.2767 14.3137 24.3218C14.418 24.3669 14.5344 24.3647 14.6372 24.3156C14.7401 24.2666 14.821 24.1747 14.8621 24.0602C14.9032 23.9457 14.9011 23.8181 14.8564 23.7052L13.901 21.3624C14.9334 20.575 15.8005 19.5547 16.4441 18.3698C17.0878 17.1849 17.4931 15.8628 17.6331 14.492C17.7731 13.1212 17.6443 11.7334 17.2556 10.4216C16.8669 9.10983 16.2271 7.90436 15.3791 6.88595L15.7556 6.47285H17.8349C17.9467 6.47275 18.0538 6.42396 18.1328 6.33721L20.9427 3.2545C21.0024 3.18997 21.0429 3.10719 21.0589 3.01697C21.075 2.92676 21.0658 2.83333 21.0326 2.74893ZM16.8515 13.409C16.8568 15.4285 16.2295 17.3888 15.0747 18.9615C13.9199 20.5342 12.3076 21.6239 10.5078 22.0482C8.70802 22.4725 6.83002 22.2055 5.18825 21.292C3.54647 20.3785 2.2406 18.874 1.48927 17.0303C0.73795 15.1866 0.586794 13.1157 1.06111 11.1643C1.53543 9.21293 2.60643 7.49957 4.09478 6.3111C5.58314 5.12263 7.39847 4.5312 9.23685 4.63585C11.0752 4.7405 12.825 5.53487 14.1933 6.88595L12.4062 8.84655C11.3293 7.8341 9.93681 7.31863 8.52095 7.40828C7.10509 7.49793 5.77591 8.18575 4.81236 9.32739C3.84881 10.469 3.32579 11.9758 3.35305 13.5314C3.3803 15.087 3.9557 16.5705 4.95853 17.6707C5.96136 18.7709 7.31364 19.4022 8.7316 19.4321C10.1495 19.462 11.5229 18.8882 12.5636 17.8311C13.6042 16.774 14.2311 15.3158 14.3129 13.7625C14.3946 12.2092 13.9247 10.6815 13.0019 9.50008L14.789 7.53948C16.1151 9.1484 16.85 11.2398 16.8515 13.409ZM8.54532 13.7357C8.62435 13.8223 8.73148 13.871 8.84318 13.871C8.95487 13.871 9.062 13.8223 9.14103 13.7357L10.3943 12.3608C10.571 12.6763 10.6662 13.0386 10.6696 13.409C10.6696 13.8053 10.5625 14.1927 10.3618 14.5222C10.1611 14.8517 9.87587 15.1085 9.54213 15.2602C9.20838 15.4119 8.84116 15.4515 8.48686 15.3742C8.13256 15.2969 7.80711 15.1061 7.55168 14.8258C7.29625 14.5456 7.12229 14.1886 7.05181 13.7999C6.98134 13.4112 7.01752 13.0083 7.15576 12.6422C7.294 12.276 7.52809 11.9631 7.82845 11.7429C8.12881 11.5227 8.48194 11.4052 8.84318 11.4052C9.18072 11.4089 9.51098 11.5134 9.79856 11.7073L8.54532 13.0822C8.46639 13.1689 8.42206 13.2864 8.42206 13.409C8.42206 13.5315 8.46639 13.649 8.54532 13.7357ZM10.4055 11.0414C9.85962 10.607 9.18455 10.4142 8.51488 10.5016C7.84521 10.5889 7.23016 10.95 6.79236 11.5127C6.35456 12.0755 6.12619 12.7986 6.15279 13.5379C6.17938 14.2772 6.459 14.9783 6.93586 15.5014C7.41272 16.0246 8.0518 16.3314 8.72566 16.3605C9.39952 16.3897 10.0587 16.1392 10.5716 15.6589C11.0846 15.1786 11.4137 14.5038 11.4933 13.7691C11.5729 13.0344 11.3972 12.2938 11.0012 11.695L12.4062 10.1536C13.1697 11.1595 13.5504 12.4495 13.469 13.7554C13.3877 15.0614 12.8506 16.2826 11.9694 17.1652C11.0882 18.0477 9.93085 18.5236 8.73801 18.4938C7.54517 18.4641 6.40872 17.9309 5.56504 17.0053C4.72136 16.0798 4.2354 14.833 4.20827 13.5243C4.18113 12.2157 4.6149 10.946 5.41935 9.97925C6.22379 9.01254 7.33698 8.42326 8.52735 8.33402C9.71772 8.24477 10.8936 8.66242 11.8105 9.50008L10.4055 11.0414ZM16.0254 3.7354L17.9923 1.5775V2.73661L16.0254 4.89451V3.7354ZM17.6776 5.54804H16.6211L18.588 3.39014H19.6445L17.6776 5.54804Z" fill="#FDA100"/>
</svg>
