<svg width="18" height="18" viewBox="0 0 18 18" fill="none" xmlns="http://www.w3.org/2000/svg">
<path d="M10.6883 17.3849C10.383 17.3849 10.0853 17.2624 9.86399 17.0325L0.979397 7.78607C0.712249 7.50262 0.597753 7.10427 0.689347 6.72123C0.780941 6.3382 1.05574 6.03177 1.42211 5.90154L15.9626 0.745878C16.3824 0.592664 16.8556 0.707577 17.1686 1.02933C17.4815 1.35108 17.5731 1.82604 17.4128 2.24738L11.7569 16.6495C11.6119 17.0172 11.299 17.2777 10.9173 17.3543C10.8334 17.3773 10.757 17.3849 10.6883 17.3849ZM3.85698 7.47198L10.2685 14.1445L14.3521 3.74888L3.85698 7.47198Z" fill="#4D4D4D"/>
</svg>
