<svg width="21" height="21" viewBox="0 0 21 21" fill="none" xmlns="http://www.w3.org/2000/svg">
<path d="M18.92 20.3964C18.7646 20.3964 18.6092 20.3689 18.4629 20.3138L1.04821 14.139C0.609417 13.983 0.2803 13.616 0.170601 13.1572C0.060902 12.6985 0.19803 12.2214 0.517985 11.8819L11.1588 0.807556C11.4787 0.468077 11.9541 0.321282 12.4112 0.413033C12.8683 0.504784 13.2522 0.825897 13.4167 1.25713L20.1907 18.5063C20.3918 19.011 20.2729 19.5798 19.8981 19.9652C19.6422 20.2496 19.2856 20.3964 18.92 20.3964ZM3.96438 12.2673L16.534 16.7264L11.6433 4.27574L3.96438 12.2673Z" fill="#4D4D4D"/>
</svg>
