<svg width="50" height="58" viewBox="0 0 50 58" fill="none" xmlns="http://www.w3.org/2000/svg">
<path d="M49.4203 6.44281C49.3467 6.24511 49.2208 6.07616 49.0588 5.95768C48.8968 5.83921 48.7062 5.77667 48.5115 5.77811H44.2307V1.08178C44.2321 0.868211 44.175 0.659088 44.0671 0.481381C43.9591 0.303674 43.8051 0.165522 43.6249 0.0847134C43.4442 0.00138707 43.2451 -0.0211049 43.0527 0.0200648C42.8604 0.0612345 42.6836 0.164211 42.5448 0.315923L35.959 7.54105C35.7737 7.7441 35.6695 8.01957 35.6692 8.30691V13.6391L34.7867 14.6072C32.6906 12.5151 30.2257 10.9169 27.5442 9.91157C24.8627 8.90619 22.0217 8.51496 19.1969 8.76209C16.3721 9.00922 13.6235 9.88945 11.1212 11.3483C8.61879 12.8072 6.41579 14.8138 4.64842 17.2439C2.88104 19.674 1.58686 22.4761 0.845876 25.4768C0.104888 28.4775 -0.0671585 31.613 0.340406 34.6895C0.747972 37.7661 1.72649 40.7182 3.21541 43.3633C4.70434 46.0085 6.67202 48.2905 8.99682 50.0681L6.78401 55.5592C6.67921 55.8237 6.67445 56.1229 6.77079 56.3912C6.86712 56.6595 7.05664 56.8748 7.29768 56.9898C7.53872 57.1048 7.81152 57.11 8.05607 57.0043C8.30061 56.8986 8.49689 56.6906 8.60169 56.4262L10.696 51.2386C13.7957 53.1703 17.2995 54.1859 20.8644 54.1859C24.4293 54.1859 27.9331 53.1703 31.0329 51.2386L33.1271 56.4262C33.2319 56.6906 33.4282 56.8986 33.6727 57.0043C33.9173 57.11 34.1901 57.1048 34.4311 56.9898C34.6721 56.8748 34.8617 56.6595 34.958 56.3912C35.0543 56.1229 35.0496 55.8237 34.9448 55.5592L32.7056 50.0681C35.1252 48.2228 37.1574 45.8314 38.666 43.0543C40.1745 40.2771 41.1246 37.1784 41.4526 33.9656C41.7807 30.7528 41.479 27.5002 40.5679 24.4257C39.6568 21.3512 38.1572 18.5259 36.1698 16.139L37.0522 15.1708H41.9257C42.1876 15.1705 42.4387 15.0562 42.6238 14.8529L49.2096 7.62774C49.3494 7.47651 49.4444 7.28248 49.482 7.07104C49.5196 6.85961 49.4981 6.64062 49.4203 6.44281ZM39.6207 31.4273C39.6332 36.1606 38.163 40.755 35.4563 44.4411C32.7497 48.1272 28.9709 50.6812 24.7527 51.6755C20.5345 52.6699 16.1329 52.0442 12.285 49.9032C8.43705 47.7622 5.37641 44.236 3.61549 39.9148C1.85457 35.5936 1.5003 30.7399 2.61199 26.1664C3.72367 21.5928 6.23384 17.5771 9.72217 14.7917C13.2105 12.0062 17.4652 10.62 21.7739 10.8653C26.0826 11.1106 30.1837 12.9724 33.3905 16.139L29.202 20.7341C26.678 18.3612 23.4144 17.1531 20.096 17.3632C16.7776 17.5733 13.6623 19.1854 11.404 21.8611C9.14565 24.5369 7.91984 28.0682 7.98371 31.7142C8.04759 35.3602 9.39619 38.8373 11.7466 41.4158C14.097 43.9944 17.2664 45.4739 20.5897 45.544C23.913 45.6141 27.1319 44.2692 29.5709 41.7917C32.0099 39.3141 33.4793 35.8964 33.6708 32.2558C33.8624 28.6153 32.7611 25.0348 30.5982 22.2659L34.7867 17.6707C37.8948 21.4416 39.6172 26.3434 39.6207 31.4273ZM20.1531 32.1932C20.3384 32.3961 20.5894 32.5101 20.8512 32.5101C21.113 32.5101 21.3641 32.3961 21.5493 32.1932L24.4866 28.9707C24.9009 29.7102 25.124 30.5594 25.132 31.4273C25.132 32.3561 24.8809 33.2641 24.4105 34.0364C23.9402 34.8088 23.2716 35.4107 22.4894 35.7661C21.7072 36.1216 20.8465 36.2146 20.0161 36.0334C19.1857 35.8522 18.4229 35.4049 17.8243 34.7481C17.2256 34.0913 16.8179 33.2545 16.6527 32.3435C16.4875 31.4325 16.5723 30.4882 16.8963 29.6301C17.2203 28.772 17.769 28.0385 18.473 27.5225C19.1769 27.0064 20.0046 26.731 20.8512 26.731C21.6423 26.7397 22.4164 26.9845 23.0904 27.439L20.1531 30.6614C19.9681 30.8646 19.8642 31.1401 19.8642 31.4273C19.8642 31.7145 19.9681 31.99 20.1531 32.1932ZM24.5129 25.8784C23.2335 24.8602 21.6513 24.4084 20.0818 24.6131C18.5122 24.8178 17.0707 25.664 16.0446 26.983C15.0185 28.302 14.4833 29.9968 14.5456 31.7295C14.6079 33.4622 15.2633 35.1054 16.3809 36.3316C17.4986 37.5577 18.9964 38.2767 20.5758 38.3451C22.1552 38.4134 23.7 37.8262 24.9023 36.7005C26.1045 35.5748 26.8758 33.9933 27.0625 32.2714C27.2491 30.5495 26.8372 28.8137 25.9091 27.4101L29.202 23.7976C30.9915 26.155 31.8838 29.1786 31.6931 32.2394C31.5025 35.3002 30.2436 38.1625 28.1783 40.2309C26.1131 42.2994 23.4005 43.4147 20.6047 43.345C17.809 43.2752 15.1455 42.0257 13.1681 39.8563C11.1907 37.687 10.0517 34.7648 9.98815 31.6977C9.92455 28.6306 10.9412 25.6547 12.8266 23.3889C14.712 21.1232 17.3211 19.7421 20.111 19.5329C22.9009 19.3237 25.657 20.3026 27.8058 22.2659L24.5129 25.8784ZM37.6845 8.75486L42.2945 3.69727V6.41393L37.6845 11.4715V8.75486ZM41.5569 13.0032H39.0807L43.6907 7.94565H46.167L41.5569 13.0032Z" fill="#FDA100"/>
</svg>
