<svg width="52" height="52" viewBox="0 0 52 52" fill="none" xmlns="http://www.w3.org/2000/svg">
<path d="M51.6696 33.8464C51.363 33.0887 50.8263 32.4731 50.1524 32.1061C49.4785 31.7392 48.7097 31.6438 47.9789 31.8366L38.7912 34.0043C38.5867 32.9609 38.0653 32.026 37.3136 31.3549C36.5619 30.6838 35.6251 30.3168 34.6587 30.3148H26.5366L25.6919 29.6114C23.377 27.7349 20.6615 26.5529 17.8102 26.1806C14.9588 25.8082 12.0688 26.2582 9.42162 27.4867L6.71858 28.8074L6.32872 28.0035C6.26346 27.8717 6.17397 27.7565 6.06601 27.6652C5.95804 27.5739 5.83398 27.5086 5.7018 27.4735C5.56962 27.4383 5.43224 27.4341 5.2985 27.4611C5.16476 27.4881 5.0376 27.5457 4.92522 27.6302L1.0266 30.5014C0.818809 30.6518 0.670819 30.8841 0.612853 31.1509C0.554886 31.4177 0.591319 31.6989 0.714711 31.9371L9.81149 50.6C9.87629 50.7316 9.96523 50.8468 10.0726 50.9383C10.1801 51.0298 10.3036 51.0954 10.4353 51.1312H10.6692C10.8643 51.1333 11.0551 51.0681 11.215 50.9445L15.1136 48.0733C15.2438 47.9742 15.3499 47.8411 15.4224 47.6858C15.495 47.5306 15.5317 47.3579 15.5295 47.1832L16.3482 47.456C18.3133 48.0135 20.3362 48.2838 22.365 48.2599C25.7019 48.2805 29.0169 47.6637 32.1636 46.4367L49.9802 38.1532C50.6944 37.7936 51.2624 37.1542 51.5745 36.3587C51.8866 35.5631 51.9205 34.668 51.6696 33.8464ZM10.9681 48.504L2.81996 31.7504L5.09416 30.0708L13.2163 46.8243L10.9681 48.504ZM49.0965 36.2152L31.4098 44.4412C28.4874 45.5725 25.4096 46.136 22.3131 46.1065C20.4553 46.1285 18.603 45.8824 16.803 45.3744L14.7887 44.714C14.66 44.6858 14.5276 44.6858 14.3989 44.714L7.58927 30.7599L10.1883 29.5109C12.5136 28.4291 15.0532 28.0323 17.5588 28.3595C20.0644 28.6866 22.4503 29.7264 24.4833 31.3772L25.5879 32.296C25.7561 32.4367 25.9616 32.5123 26.1727 32.5113H34.6197C35.2228 32.5113 35.8013 32.776 36.2278 33.2471C36.6543 33.7183 36.8939 34.3573 36.8939 35.0236C36.8939 35.6899 36.6543 36.3289 36.2278 36.8001C35.8013 37.2712 35.2228 37.5359 34.6197 37.5359H22.3131C22.0546 37.5359 21.8066 37.6494 21.6239 37.8513C21.4411 38.0532 21.3384 38.3271 21.3384 38.6126C21.3384 38.8982 21.4411 39.1721 21.6239 39.374C21.8066 39.5759 22.0546 39.6894 22.3131 39.6894H34.6587C35.5798 39.6882 36.4751 39.3533 37.2074 38.7362C37.9398 38.1191 38.4687 37.2536 38.7132 36.2726L48.4078 33.99C48.69 33.9106 48.9881 33.9382 49.2544 34.0683C49.5207 34.1985 49.7397 34.4237 49.8763 34.7078C50.1102 35.3107 49.4734 35.9855 49.0965 36.2152ZM28.109 23.5244C28.1994 23.6294 28.3083 23.7128 28.429 23.7696C28.5497 23.8264 28.6796 23.8553 28.8107 23.8546C28.942 23.8562 29.0722 23.8277 29.193 23.7708C29.3138 23.714 29.4226 23.6301 29.5125 23.5244C29.5775 23.4526 35.2305 16.8919 37.3097 14.3078C38.9601 12.3123 40.5066 9.85736 40.1037 6.5411C39.9317 4.84012 39.2151 3.26304 38.0833 2.09427C36.9514 0.925503 35.4788 0.241986 33.9309 0.166992C32.8708 0.216709 31.8407 0.571326 30.9427 1.19577C30.0447 1.8202 29.3098 2.69283 28.8107 3.72731C28.316 2.698 27.5875 1.82855 26.6966 1.20434C25.8058 0.580137 24.7833 0.222649 23.7295 0.166992C22.1831 0.233848 20.709 0.90828 19.5726 2.06891C18.4363 3.22954 17.7122 4.80014 17.5307 6.49803C17.0369 9.82865 18.6224 12.2405 20.2858 14.2934C21.9492 16.3463 27.8621 23.2373 28.109 23.5244ZM19.4541 6.84258C19.5572 5.66978 20.0302 4.57432 20.7904 3.74771C21.5505 2.92109 22.5495 2.41588 23.6126 2.32041H23.6906C25.9778 2.32041 27.8361 4.86144 27.8361 7.86187C27.8361 8.14743 27.9388 8.42129 28.1216 8.62321C28.3043 8.82514 28.5523 8.93857 28.8107 8.93857C29.0692 8.93857 29.3171 8.82514 29.4999 8.62321C29.6827 8.42129 29.7854 8.14743 29.7854 7.86187C29.7854 4.84708 31.6567 2.36348 33.9569 2.32041C35.0246 2.41919 36.027 2.92886 36.7894 3.76054C37.5517 4.59222 38.0256 5.69313 38.1284 6.87129C38.4403 9.1252 37.4397 10.891 35.8283 12.8721C34.2168 14.8533 30.3962 19.3755 28.8107 21.213C27.1473 19.3037 23.0538 14.5375 21.7542 12.8865C20.2858 11.0059 19.1032 9.25441 19.4541 6.84258Z" fill="#FDA100"/>
</svg>
