<svg width="750" height="786" viewBox="0 0 750 786" fill="none" xmlns="http://www.w3.org/2000/svg">
<path d="M516.343 0L486.143 18.1304L455.942 0H450.839L483.587 19.6544L354.836 96.9581L226.076 19.6544L258.824 0H253.729L224.842 17.3421V0H222.215V17.3421L193.328 0H188.224L220.972 19.6544L91.5386 97.361C91.3457 97.4775 91.1863 97.642 91.0758 97.8385C90.9654 98.0349 90.9076 98.2567 90.9083 98.4821V253.825L0 199.25V202.316L89.6653 256.138L0 309.968V313.034L92.2213 257.67L220.972 334.965L91.5386 412.672L0 467.624V470.689L90.9083 416.114V569.127L0 514.561V517.627L90.9083 572.193V726.783L0 672.217V675.273L89.6653 729.104L0 782.935V786L92.9305 730.234L224.238 651.406L224.343 651.318C224.391 651.286 224.438 651.251 224.483 651.213C224.529 651.165 224.57 651.112 224.605 651.056C224.634 651.026 224.66 650.994 224.684 650.959V650.959V650.889C224.718 650.819 224.748 650.745 224.772 650.67C224.776 650.641 224.776 650.612 224.772 650.583C224.772 650.504 224.772 650.425 224.772 650.355C224.772 650.285 224.772 650.355 224.772 650.294V494.942L354.083 572.578H354.135C354.207 572.622 354.283 572.657 354.363 572.683H354.45C354.555 572.693 354.661 572.693 354.766 572.683C354.87 572.692 354.976 572.692 355.081 572.683H355.16C355.239 572.657 355.316 572.622 355.387 572.578H355.44L486.747 493.751C486.941 493.633 487.102 493.467 487.214 493.27C487.326 493.072 487.385 492.848 487.386 492.621V335.719L617.38 257.679L747.374 335.719V492.629C747.374 492.978 747.512 493.312 747.758 493.558C748.005 493.805 748.339 493.943 748.687 493.943C749.035 493.943 749.369 493.805 749.615 493.558C749.862 493.312 750 492.978 750 492.629V334.974C750 334.747 749.941 334.523 749.829 334.325C749.717 334.127 749.556 333.962 749.361 333.844L618.054 255.016C617.848 254.896 617.614 254.833 617.375 254.833C617.137 254.833 616.903 254.896 616.697 255.016L485.39 333.844C485.328 333.883 485.269 333.927 485.215 333.976V333.976C485.215 334.028 485.127 334.072 485.084 334.133L484.987 334.3C484.986 334.32 484.986 334.341 484.987 334.361C484.987 334.361 484.987 334.466 484.935 334.519V334.606V334.738C484.935 334.738 484.935 334.825 484.935 334.869V491.876L356.254 569.127V413.793C356.253 413.567 356.193 413.345 356.081 413.149C355.969 412.952 355.809 412.788 355.615 412.672L226.076 334.965L355.545 257.267L486.852 178.44C487.046 178.322 487.207 178.157 487.319 177.959C487.431 177.761 487.49 177.537 487.491 177.31V21.9754L616.802 99.612C616.95 99.7012 617.114 99.7604 617.284 99.7862C617.455 99.8121 617.629 99.804 617.796 99.7625C617.964 99.721 618.121 99.6469 618.26 99.5445C618.399 99.442 618.516 99.3131 618.605 99.1653C618.695 99.0175 618.754 98.8536 618.78 98.6829C618.805 98.5122 618.797 98.3381 618.756 98.1706C618.714 98.003 618.64 97.8453 618.538 97.7064C618.435 97.5674 618.307 97.4501 618.159 97.361L488.69 19.6544L521.447 0H516.343ZM93.5344 99.2266L222.215 21.9754V176.574L93.5344 253.825V99.2266ZM93.5344 416.114L220.972 492.621L93.5344 569.127V416.114ZM93.5344 726.783V573.769L220.972 650.276L93.5344 726.783ZM222.215 647.955L94.7687 571.448L222.215 494.942V647.955ZM222.215 490.3L94.7687 413.793L222.215 337.286V490.3ZM353.523 414.537V569.127L224.842 491.876V337.286L353.523 414.537ZM223.529 333.441L94.7687 256.138L223.529 178.843L352.28 256.138L223.529 333.441ZM353.523 253.825L224.842 176.574V21.9754L353.523 99.2266V253.825ZM484.83 176.574L356.149 253.825V99.2266L484.83 21.9754V176.574Z" fill="#535353" fill-opacity="0.2"/>
</svg>
