<svg width="59" height="51" viewBox="0 0 59 51" fill="none" xmlns="http://www.w3.org/2000/svg">
<path d="M7.15374 40.1971C6.89187 40.2009 6.64169 40.3155 6.45651 40.5166C6.27133 40.7177 6.16578 40.9894 6.16236 41.2738V49.8875C6.16236 50.1731 6.2668 50.447 6.45272 50.6489C6.63864 50.8508 6.89081 50.9642 7.15374 50.9642C7.41667 50.9642 7.66883 50.8508 7.85475 50.6489C8.04067 50.447 8.14511 50.1731 8.14511 49.8875V41.2738C8.14169 40.9894 8.03614 40.7177 7.85096 40.5166C7.66578 40.3155 7.4156 40.2009 7.15374 40.1971ZM25.9899 38.0581V42.7095C25.9934 42.9939 26.0989 43.2656 26.2841 43.4667C26.4693 43.6678 26.7195 43.7825 26.9813 43.7862H37.556C37.819 43.7862 38.0711 43.6727 38.2571 43.4708C38.443 43.2689 38.5474 42.995 38.5474 42.7095C38.5474 42.4239 38.443 42.15 38.2571 41.9481C38.0711 41.7462 37.819 41.6328 37.556 41.6328H27.9727V38.0581C27.9727 36.7217 27.4839 35.44 26.6138 34.495C25.7437 33.55 24.5636 33.0191 23.3331 33.0191H20.0417V28.7122C20.8766 27.8771 21.5428 26.8627 21.9979 25.7334C22.4529 24.604 22.687 23.3843 22.6853 22.1515V13.868C22.6853 12.4631 22.1715 11.1156 21.2567 10.1222C20.342 9.12873 19.1014 8.57061 17.8078 8.57061H11.0399C9.74633 8.57061 8.5057 9.12873 7.59097 10.1222C6.67625 11.1156 6.16236 12.4631 6.16236 13.868V22.1515C6.16066 23.3843 6.39476 24.604 6.84984 25.7334C7.30492 26.8627 7.97107 27.8771 8.80603 28.7122V33.0191H5.51465C4.28413 33.0191 3.10404 33.55 2.23393 34.495C1.36383 35.44 0.875 36.7217 0.875 38.0581V49.8875C0.875 50.1731 0.979443 50.447 1.16536 50.6489C1.35128 50.8508 1.60345 50.9642 1.86638 50.9642C2.12931 50.9642 2.38148 50.8508 2.5674 50.6489C2.75332 50.447 2.85776 50.1731 2.85776 49.8875V38.0581C2.85776 37.2966 3.13629 36.5663 3.63207 36.0278C4.12786 35.4894 4.80029 35.1869 5.50144 35.1869H8.38304C8.41944 35.2674 8.46866 35.3403 8.52844 35.4022C9.27874 36.1956 10.1663 36.8198 11.1399 37.2387C12.1134 37.6577 13.1538 37.863 14.2008 37.843C15.2478 37.823 16.2809 37.5779 17.2402 37.1221C18.1996 36.6662 19.0664 36.0085 19.7905 35.1869H23.3198C23.6692 35.1831 24.0158 35.2545 24.3396 35.3971C24.6634 35.5397 24.958 35.7506 25.2063 36.0176C25.4546 36.2846 25.6517 36.6024 25.7862 36.9526C25.9207 37.3029 25.99 37.6786 25.9899 38.0581ZM8.14511 13.9111C8.14511 13.0772 8.4501 12.2776 8.99299 11.688C9.53587 11.0984 10.2722 10.7671 11.0399 10.7671H17.8078C18.5755 10.7671 19.3118 11.0984 19.8547 11.688C20.3976 12.2776 20.7026 13.0772 20.7026 13.9111V15.8635C20.5974 15.8178 20.4854 15.7935 20.3721 15.7917H11.1193C10.8574 15.7955 10.6072 15.9101 10.422 16.1112C10.2368 16.3123 10.1313 16.584 10.1279 16.8684V18.663H8.14511V13.9111ZM18.0589 34.0097C17.0768 35.0067 15.8082 35.6053 14.4669 35.7047C13.1257 35.8041 11.7939 35.3981 10.6963 34.5552C10.7611 34.4228 10.793 34.2743 10.7888 34.1245V30.2771C11.9198 30.8813 13.1634 31.1956 14.4239 31.1956C15.6843 31.1956 16.9279 30.8813 18.0589 30.2771V34.0097ZM14.4239 29.0424C12.7586 29.0424 11.1616 28.324 9.9841 27.0451C8.80661 25.7663 8.14511 24.0318 8.14511 22.2233V20.7877H11.1193C11.3811 20.784 11.6313 20.6693 11.8165 20.4682C12.0017 20.2671 12.1072 19.9954 12.1106 19.711V17.9165H20.3721C20.4854 17.9147 20.5974 17.8903 20.7026 17.8446V22.1515C20.7078 23.0506 20.5493 23.942 20.2361 24.7743C19.9229 25.6066 19.4612 26.3634 18.8777 27.0012C18.2941 27.639 17.6002 28.1452 16.8358 28.4906C16.0715 28.8359 15.2517 29.0137 14.4239 29.0137V29.0424ZM57.3836 0H8.47557C8.21371 0.00371818 7.96353 0.118351 7.77835 0.319473C7.59317 0.520595 7.48762 0.792304 7.4842 1.07671V6.81916C7.4842 7.10472 7.58864 7.37859 7.77456 7.58051C7.96048 7.78243 8.21264 7.89587 8.47557 7.89587C8.7385 7.89587 8.99067 7.78243 9.17659 7.58051C9.36251 7.37859 9.46695 7.10472 9.46695 6.81916V2.15342H56.3922V47.3752H22.6853V41.2738C22.6853 40.9883 22.5809 40.7144 22.395 40.5125C22.2091 40.3106 21.9569 40.1971 21.694 40.1971C21.431 40.1971 21.1789 40.3106 20.9929 40.5125C20.807 40.7144 20.7026 40.9883 20.7026 41.2738V48.4519C20.706 48.7363 20.8116 49.008 20.9967 49.2091C21.1819 49.4103 21.4321 49.5249 21.694 49.5286H57.3836C57.6455 49.5249 57.8957 49.4103 58.0808 49.2091C58.266 49.008 58.3716 48.7363 58.375 48.4519V1.07671C58.3716 0.792304 58.266 0.520595 58.0808 0.319473C57.8957 0.118351 57.6455 0.00371818 57.3836 0ZM41.2836 18.663C41.0208 18.6632 40.7688 18.7768 40.5831 18.9788L36.6175 23.2139L33.9077 20.7015C33.726 20.525 33.4907 20.4273 33.2468 20.4273C33.003 20.4273 32.7677 20.525 32.5859 20.7015L26.7566 27.0326C26.571 27.2344 26.4667 27.5081 26.4667 27.7934C26.4667 28.0788 26.571 28.3525 26.7566 28.5543C26.9454 28.7513 27.1954 28.864 27.4572 28.8701C27.72 28.8699 27.972 28.7563 28.1578 28.5543L33.3394 22.9267L35.983 25.4534C36.1661 25.6271 36.4009 25.7228 36.644 25.7228C36.887 25.7228 37.1218 25.6271 37.3049 25.4534L41.5744 20.8164H45.2095C45.4651 20.8119 45.7101 20.7045 45.8968 20.5149L49.6641 16.5382V19.7397C49.6641 20.0252 49.7685 20.2991 49.9544 20.501C50.1404 20.7029 50.3925 20.8164 50.6555 20.8164C50.9184 20.8164 51.1706 20.7029 51.3565 20.501C51.5424 20.2991 51.6468 20.0252 51.6468 19.7397V13.9972C51.653 13.9544 51.653 13.9108 51.6468 13.868C51.6591 13.7776 51.6591 13.6857 51.6468 13.5952C51.6155 13.5109 51.5708 13.4331 51.5147 13.3655C51.5172 13.3273 51.5172 13.2889 51.5147 13.2507C51.4219 13.1549 51.3146 13.0771 51.1974 13.021C51.0854 12.9652 50.9637 12.9359 50.8405 12.9349H45.5531C45.2902 12.9349 45.0381 13.0483 44.8522 13.2502C44.6662 13.4522 44.5618 13.726 44.5618 14.0116C44.5618 14.2971 44.6662 14.571 44.8522 14.7729C45.0381 14.9749 45.2902 15.0883 45.5531 15.0883H48.3951L44.9848 18.6773L41.2836 18.663Z" fill="#FDA100"/>
</svg>
