<svg width="31" height="30" viewBox="0 0 31 30" fill="none" xmlns="http://www.w3.org/2000/svg">
<path d="M28.1357 29.9561C27.9039 29.9561 27.672 29.915 27.4538 29.8329L1.47426 20.6211C0.819654 20.3884 0.328671 19.8409 0.16502 19.1565C0.00136914 18.4721 0.20594 17.7604 0.683255 17.254L16.5574 0.733034C17.0347 0.226593 17.7439 0.00760145 18.4258 0.144477C19.1076 0.281353 19.6804 0.760396 19.9259 1.40371L30.0314 27.1364C30.3314 27.8892 30.1541 28.7379 29.5949 29.3127C29.2131 29.7371 28.6812 29.9561 28.1357 29.9561ZM5.82465 17.8288L24.5763 24.481L17.2802 5.90694L5.82465 17.8288Z" fill="#4D4D4D"/>
</svg>
