<svg width="19" height="24" viewBox="0 0 19 24" fill="none" xmlns="http://www.w3.org/2000/svg">
<path d="M3.06467 10.0884C3.06323 9.96923 3.01874 9.85538 2.94067 9.7711C2.86261 9.68682 2.75715 9.63879 2.64676 9.63723H0.41791C0.307073 9.63723 0.200776 9.68476 0.122403 9.76937C0.0440293 9.85399 0 9.96875 0 10.0884C0 10.2081 0.0440293 10.3228 0.122403 10.4074C0.200776 10.4921 0.307073 10.5396 0.41791 10.5396H2.64676C2.75715 10.538 2.86261 10.49 2.94067 10.4057C3.01874 10.3214 3.06323 10.2076 3.06467 10.0884ZM4.1791 5.11338C4.25894 5.19474 4.36463 5.23995 4.47442 5.23972C4.53018 5.24013 4.58546 5.22865 4.63709 5.20594C4.68873 5.18323 4.7357 5.14973 4.77532 5.10737C4.85358 5.02278 4.89754 4.9081 4.89754 4.78854C4.89754 4.66897 4.85358 4.5543 4.77532 4.4697L3.44358 3.06202C3.36522 2.97753 3.259 2.93007 3.14825 2.93007C3.03751 2.93007 2.93129 2.97753 2.85293 3.06202C2.77467 3.14662 2.73071 3.26129 2.73071 3.38086C2.73071 3.50042 2.77467 3.61509 2.85293 3.69969L4.1791 5.11338ZM9.32775 3.30866C9.38284 3.30947 9.43751 3.29835 9.48856 3.27596C9.5396 3.25358 9.58597 3.22037 9.62492 3.17831C9.66388 3.13626 9.69464 3.0862 9.71537 3.0311C9.73611 2.97599 9.74641 2.91695 9.74566 2.85748V0.451181C9.74566 0.33152 9.70163 0.216767 9.62325 0.132154C9.54488 0.0475415 9.43858 0 9.32775 0C9.21691 0 9.11061 0.0475415 9.03224 0.132154C8.95387 0.216767 8.90984 0.33152 8.90984 0.451181V2.85748C8.9091 2.91802 8.91951 2.97813 8.94046 3.03429C8.96141 3.09046 8.99249 3.14157 9.03189 3.18467C9.07128 3.22776 9.11822 3.26198 9.16996 3.28533C9.22171 3.30868 9.27723 3.3207 9.33332 3.32069L9.32775 3.30866ZM3.13711 17.1449C3.19335 17.1452 3.24906 17.1331 3.30081 17.1093C3.35255 17.0855 3.39924 17.0505 3.438 17.0065L4.77532 15.5266C4.8529 15.4405 4.89561 15.3246 4.89404 15.2044C4.89247 15.0843 4.84676 14.9697 4.76696 14.886C4.68716 14.8022 4.5798 14.7561 4.46851 14.7578C4.35722 14.7595 4.25111 14.8088 4.17353 14.895L2.84179 16.3809C2.76353 16.4655 2.71957 16.5801 2.71957 16.6997C2.71957 16.8193 2.76353 16.9339 2.84179 17.0185C2.87858 17.0654 2.92363 17.1039 2.97433 17.1318C3.02503 17.1597 3.08037 17.1764 3.13711 17.181V17.1449ZM14.1588 5.20363C14.2124 5.20423 14.2656 5.19337 14.3153 5.17169C14.3651 5.15001 14.4103 5.11793 14.4485 5.07729L15.7914 3.66961C15.8697 3.58501 15.9136 3.47034 15.9136 3.35078C15.9136 3.23121 15.8697 3.11654 15.7914 3.03194C15.7131 2.94745 15.6068 2.89999 15.4961 2.89999C15.3853 2.89999 15.2791 2.94745 15.2008 3.03194L13.8579 4.43962C13.797 4.50115 13.7549 4.58116 13.737 4.66908C13.7191 4.757 13.7263 4.84871 13.7577 4.9321C13.7891 5.0155 13.8432 5.08667 13.9128 5.13621C13.9824 5.18576 14.0643 5.21136 14.1476 5.20964L14.1588 5.20363ZM12.6766 21.0671C12.5662 21.0687 12.4607 21.1167 12.3827 21.201C12.3046 21.2853 12.2601 21.3992 12.2587 21.5183V23.3231C12.2587 23.4427 12.3027 23.5575 12.3811 23.6421C12.4595 23.7267 12.5658 23.7742 12.6766 23.7742C12.7874 23.7742 12.8937 23.7267 12.9721 23.6421C13.0505 23.5575 13.0945 23.4427 13.0945 23.3231V21.5183C13.0931 21.3992 13.0486 21.2853 12.9705 21.201C12.8924 21.1167 12.787 21.0687 12.6766 21.0671ZM14.4541 14.9311C14.3757 14.8466 14.2695 14.7991 14.1588 14.7991C14.048 14.7991 13.9418 14.8466 13.8635 14.9311C13.7852 15.0157 13.7412 15.1303 13.7412 15.2499C13.7412 15.3695 13.7852 15.4841 13.8635 15.5687L15.2063 17.0486C15.2455 17.0921 15.2923 17.1267 15.3439 17.1504C15.3956 17.1742 15.4511 17.1866 15.5072 17.187C15.5609 17.1876 15.6141 17.1767 15.6638 17.1551C15.7135 17.1334 15.7588 17.1013 15.797 17.0607C15.8753 16.9761 15.9192 16.8614 15.9192 16.7418C15.9192 16.6223 15.8753 16.5076 15.797 16.423L14.4541 14.9311ZM10.0298 9.63723H9.4169L10.3976 7.78438C10.453 7.67987 10.4677 7.55589 10.4384 7.43969C10.4092 7.32348 10.3384 7.22459 10.2416 7.16476C10.1448 7.10493 10.0299 7.08906 9.9223 7.12065C9.81467 7.15224 9.72306 7.22869 9.66765 7.3332L8.33591 9.86583C8.30029 9.9348 8.28159 10.0125 8.28159 10.0914C8.28159 10.1704 8.30029 10.248 8.33591 10.317C8.37338 10.3847 8.42642 10.4407 8.48989 10.4797C8.55335 10.5187 8.62507 10.5394 8.6981 10.5396H9.33332L8.26904 12.5669C8.21669 12.6692 8.20371 12.7896 8.2329 12.9022C8.26209 13.0147 8.33111 13.1104 8.42506 13.1685C8.48714 13.2091 8.55863 13.23 8.63123 13.2286C8.70479 13.2278 8.77688 13.2062 8.84039 13.1662C8.9039 13.1261 8.95664 13.0688 8.99342 13L10.4199 10.299C10.4561 10.23 10.4749 10.1519 10.4743 10.0726C10.4737 9.99334 10.4537 9.91561 10.4164 9.8473C10.3791 9.77898 10.3258 9.72247 10.2619 9.68348C10.1979 9.64449 10.1256 9.62439 10.0521 9.62519L10.0298 9.63723ZM13.9303 18.6608H12.2698C12.193 18.6608 12.1193 18.6279 12.0649 18.5692C12.0106 18.5106 11.9801 18.431 11.9801 18.348V16.2365C11.9807 15.9507 12.0441 15.6691 12.1652 15.415C12.2863 15.1608 12.4616 14.9414 12.6766 14.7747C13.423 14.2019 14.0316 13.4445 14.4515 12.566C14.8715 11.6874 15.0906 10.7131 15.0906 9.72446C15.0906 8.73581 14.8715 7.76151 14.4515 6.88294C14.0316 6.00438 13.423 5.24706 12.6766 4.67424C11.9079 4.08882 11.0196 3.71254 10.0873 3.57742C9.155 3.44231 8.20624 3.55236 7.32178 3.89821C6.51995 4.20333 5.79411 4.70401 5.20072 5.36134C4.60734 6.01866 4.16239 6.81489 3.90049 7.68812C3.49946 8.94674 3.48333 10.3111 3.85449 11.5804C4.22564 12.8496 4.96447 13.9567 5.96218 14.7386C6.18709 14.9119 6.37092 15.14 6.49873 15.4045C6.62654 15.669 6.69472 15.9623 6.6977 16.2606V18.348C6.6977 18.3891 6.69021 18.4298 6.67565 18.4677C6.66108 18.5057 6.63974 18.5402 6.61283 18.5692C6.58593 18.5983 6.55399 18.6213 6.51883 18.637C6.48368 18.6528 6.446 18.6608 6.40795 18.6608H4.75303C4.23136 18.6608 3.73105 18.8846 3.36217 19.2828C2.9933 19.6811 2.78607 20.2212 2.78607 20.7844V23.3231C2.78607 23.4427 2.83009 23.5575 2.90847 23.6421C2.98684 23.7267 3.09314 23.7742 3.20398 23.7742C3.31481 23.7742 3.42111 23.7267 3.49948 23.6421C3.57786 23.5575 3.62188 23.4427 3.62188 23.3231V20.7844C3.62188 20.4653 3.7393 20.1593 3.94829 19.9337C4.15729 19.708 4.44075 19.5813 4.73631 19.5813H6.38009C6.60381 19.5798 6.82241 19.5088 7.00974 19.3767C7.23037 19.8054 7.55364 20.1622 7.94573 20.4099C8.33782 20.6575 8.78434 20.7869 9.23859 20.7844H9.42804C9.8823 20.7869 10.3288 20.6575 10.7209 20.4099C11.113 20.1622 11.4363 19.8054 11.6569 19.3767C11.8442 19.5088 12.0628 19.5798 12.2865 19.5813H13.9303C14.2259 19.5813 14.5094 19.708 14.7183 19.9337C14.9273 20.1593 15.0448 20.4653 15.0448 20.7844V23.3231C15.0448 23.4427 15.0888 23.5575 15.1672 23.6421C15.2455 23.7267 15.3518 23.7742 15.4627 23.7742C15.5735 23.7742 15.6798 23.7267 15.7582 23.6421C15.8365 23.5575 15.8806 23.4427 15.8806 23.3231V20.7844C15.8806 20.2212 15.6733 19.6811 15.3045 19.2828C14.9356 18.8846 14.4353 18.6608 13.9136 18.6608H13.9303ZM9.47262 19.864H9.28317C8.88647 19.8605 8.50312 19.7088 8.19836 19.4346C7.89359 19.1604 7.68622 18.7807 7.61153 18.3601H11.1666C11.0899 18.793 10.8727 19.1823 10.554 19.458C10.2354 19.7336 9.83617 19.8776 9.42804 19.864H9.47262ZM11.1888 17.4577H7.56695V16.5553H11.1888V17.4577ZM11.2501 15.653H7.45551C7.31261 14.9927 6.95467 14.4098 6.44696 14.0107C5.59786 13.3415 4.96905 12.3969 4.65229 11.3147C4.33553 10.2325 4.3474 9.06934 4.68616 7.99493C4.90644 7.25421 5.2827 6.57866 5.78542 6.0213C6.28815 5.46394 6.90366 5.03992 7.58367 4.78252C8.34222 4.48428 9.15625 4.38816 9.95659 4.50232C10.7569 4.61648 11.5199 4.93755 12.1807 5.43824C12.8179 5.92838 13.3373 6.57583 13.6957 7.32664C14.0541 8.07746 14.2411 8.90988 14.2411 9.75454C14.2411 10.5992 14.0541 11.4316 13.6957 12.1824C13.3373 12.9332 12.8179 13.5807 12.1807 14.0708C11.6874 14.4517 11.3404 15.0146 11.2056 15.653H11.2501ZM18.2933 9.63723H16.0199C15.909 9.63723 15.8027 9.68476 15.7244 9.76937C15.646 9.85399 15.602 9.96875 15.602 10.0884C15.602 10.2081 15.646 10.3228 15.7244 10.4074C15.8027 10.4921 15.909 10.5396 16.0199 10.5396H18.2487C18.3596 10.5396 18.4659 10.4921 18.5442 10.4074C18.6226 10.3228 18.6666 10.2081 18.6666 10.0884C18.6666 9.96875 18.6226 9.85399 18.5442 9.76937C18.4659 9.68476 18.3596 9.63723 18.2487 9.63723H18.2933ZM5.47741 21.0671C5.36702 21.0687 5.26156 21.1167 5.18349 21.201C5.10543 21.2853 5.06094 21.3992 5.0595 21.5183V23.3231C5.0595 23.4427 5.10353 23.5575 5.1819 23.6421C5.26027 23.7267 5.36657 23.7742 5.47741 23.7742C5.58824 23.7742 5.69454 23.7267 5.77291 23.6421C5.85128 23.5575 5.89532 23.4427 5.89532 23.3231V21.5183C5.89479 21.4551 5.88212 21.3926 5.8581 21.3349C5.83408 21.2773 5.79924 21.2256 5.75577 21.1832C5.7123 21.1408 5.66116 21.1086 5.60557 21.0886C5.54998 21.0686 5.49116 21.0613 5.43283 21.0671H5.47741Z" fill="#FDA100"/>
</svg>
