<svg width="18" height="18" viewBox="0 0 18 18" fill="none" xmlns="http://www.w3.org/2000/svg">
<path d="M16.145 17.4322C16.0153 17.4322 15.8855 17.4092 15.7634 17.3633L1.22289 12.2075C0.85652 12.0773 0.581722 11.7709 0.490128 11.3878C0.398535 11.0048 0.51303 10.6064 0.780179 10.323L9.66477 1.0764C9.93192 0.792948 10.3288 0.670381 10.7105 0.746989C11.0921 0.823597 11.4127 1.09171 11.5501 1.45177L17.206 15.8541C17.3739 16.2754 17.2747 16.7504 16.9617 17.0721C16.748 17.3096 16.4503 17.4322 16.145 17.4322ZM3.65776 10.6447L14.1529 14.3679L10.0693 3.97218L3.65776 10.6447Z" fill="#4D4D4D"/>
</svg>
