<svg width="43" height="29" viewBox="0 0 43 29" fill="none" xmlns="http://www.w3.org/2000/svg">
<path d="M42.0985 15.3583C42.028 15.1896 41.893 15.0552 41.7228 14.9845C41.5526 14.9138 41.361 14.9125 41.1898 14.9809L36.2465 16.9491L30.7944 3.55799L35.3379 1.85939C35.4269 1.83232 35.5094 1.78749 35.5802 1.72765C35.651 1.66782 35.7087 1.59426 35.7497 1.51152C35.7906 1.42878 35.814 1.33861 35.8184 1.24658C35.8227 1.15456 35.8079 1.06262 35.775 0.97646C35.742 0.8903 35.6915 0.811741 35.6266 0.745634C35.5617 0.679527 35.4839 0.627273 35.3978 0.592104C35.3117 0.556935 35.2192 0.539599 35.126 0.541158C35.0329 0.542717 34.9411 0.563144 34.8563 0.601175L29.6949 2.54243C29.5872 2.59072 29.4935 2.66487 29.4223 2.75812C27.9611 2.65932 26.496 2.88343 25.1333 3.4142L19.8447 5.51723L19.6902 5.40938C18.4305 4.5783 16.9938 4.0462 15.4921 3.85458C15.4543 3.80828 15.4116 3.7661 15.3648 3.72875L10.9486 0.673069C10.8746 0.622319 10.7912 0.586482 10.7032 0.567598C10.6153 0.548714 10.5244 0.547154 10.4358 0.563011C10.3472 0.578867 10.2626 0.61183 10.1869 0.660013C10.1112 0.708196 10.0458 0.770655 9.99447 0.84383C9.94316 0.917004 9.90694 0.999459 9.88784 1.08648C9.86875 1.17351 9.86715 1.2634 9.88319 1.35103C9.89922 1.43866 9.93255 1.5223 9.98127 1.59719C10.03 1.67208 10.0931 1.73675 10.1671 1.7875L14.0382 4.48369L5.85994 16.4188L1.85261 13.3182C1.70949 13.2231 1.53523 13.1852 1.36496 13.2121C1.1947 13.239 1.04109 13.3288 0.935075 13.4633C0.829056 13.5977 0.778514 13.767 0.793647 13.9369C0.808779 14.1067 0.888442 14.2646 1.0166 14.3787L5.56006 17.9736C5.67749 18.0695 5.82583 18.1205 5.97807 18.1174H6.03259C6.42834 18.7457 6.89475 19.3276 7.42289 19.852C7.34569 20.2041 7.34904 20.5688 7.4327 20.9195C7.51637 21.2702 7.67823 21.5979 7.90643 21.8788C8.13464 22.1596 8.42345 22.3864 8.7517 22.5427C9.07996 22.6989 9.43936 22.7806 9.80365 22.7818C9.93355 22.7951 10.0645 22.7951 10.1944 22.7818H10.2489V22.8358C10.3361 23.405 10.6273 23.9242 11.0694 24.2987C11.5114 24.6732 12.0749 24.8781 12.6569 24.8759H13.0477H13.1022V24.9298C13.2612 25.5414 13.6558 26.0672 14.2017 26.3947C14.6211 26.6902 15.1225 26.8503 15.6374 26.8531C15.7675 26.862 15.8981 26.862 16.0282 26.8531H16.0827V26.916C16.1305 27.2291 16.2411 27.5295 16.4081 27.7996C16.5751 28.0697 16.795 28.3041 17.055 28.4888C17.3148 28.6774 17.6097 28.8133 17.9228 28.8888C18.2359 28.9642 18.561 28.9777 18.8794 28.9284C19.1978 28.8792 19.5032 28.7681 19.778 28.6016C20.0528 28.4352 20.2917 28.2166 20.4808 27.9585L20.8261 27.4912L21.7348 28.1293C22.1296 28.3922 22.5946 28.533 23.0705 28.5337C23.4882 28.5142 23.894 28.3901 24.25 28.1732C24.606 27.9563 24.9005 27.6536 25.106 27.2935C25.308 26.9971 25.4386 26.6589 25.4877 26.3049L25.8784 26.5655C26.276 26.8296 26.7443 26.9704 27.2232 26.9699C27.3789 26.9728 27.5345 26.9577 27.6867 26.925C28.0092 26.8638 28.3158 26.7381 28.5877 26.5558C28.8595 26.3735 29.0909 26.1382 29.2678 25.8645C29.5463 25.4497 29.6891 24.9602 29.6767 24.4625H29.8039C30.2133 24.4608 30.6159 24.3591 30.9758 24.1662C31.3357 23.9733 31.6417 23.6953 31.8667 23.357C32.0984 23.0124 32.2354 22.614 32.2641 22.2011C32.2928 21.7882 32.2122 21.3751 32.0302 21.0024C32.2311 20.9223 32.4205 20.8165 32.5936 20.6878C33.8178 20.1736 34.9174 19.4077 35.8195 18.441H35.874C35.9617 18.4413 36.0485 18.4229 36.1284 18.3871L41.7078 16.1762C41.8613 16.1089 41.9852 15.9893 42.0569 15.8391C42.1287 15.689 42.1434 15.5183 42.0985 15.3583ZM10.7669 20.9125C10.6829 21.0258 10.577 21.1215 10.4553 21.194C10.3337 21.2665 10.1986 21.3144 10.0581 21.3349C9.91722 21.3566 9.77339 21.3505 9.63491 21.317C9.49643 21.2835 9.36602 21.2233 9.25117 21.1398C9.13631 21.0562 9.03928 20.9511 8.96568 20.8303C8.89207 20.7096 8.84332 20.5756 8.82225 20.4362C8.7786 20.1551 8.84704 19.8684 9.0131 19.6363L11.4211 16.3739C11.5904 16.1431 11.8453 15.988 12.1299 15.9425H12.3026C12.5303 15.9405 12.7529 16.0097 12.9386 16.1402C13.0543 16.2222 13.1519 16.3266 13.2253 16.4471C13.2988 16.5677 13.3465 16.7018 13.3657 16.8412C13.3898 16.9804 13.3854 17.1229 13.3526 17.2604C13.3198 17.3978 13.2594 17.5273 13.1749 17.6411L10.7669 20.9125ZM13.6201 22.9616C13.537 23.0766 13.4315 23.174 13.3098 23.2481C13.1881 23.3222 13.0526 23.3714 12.9114 23.393C12.7705 23.4147 12.6267 23.4086 12.4882 23.3751C12.3497 23.3416 12.2193 23.2814 12.1044 23.1979C11.9896 23.1143 11.8926 23.0092 11.8189 22.8884C11.7453 22.7677 11.6966 22.6337 11.6756 22.4943C11.6532 22.3545 11.6594 22.2117 11.6937 22.0743C11.7281 21.937 11.7899 21.8078 11.8755 21.6944L14.2744 18.423L15.2558 17.0929C15.3386 16.9785 15.4442 16.882 15.5661 16.8093C15.688 16.7367 15.8236 16.6894 15.9646 16.6705C16.0218 16.6617 16.08 16.6617 16.1372 16.6705C16.3659 16.6717 16.5884 16.744 16.7733 16.8772C16.8896 16.9594 16.9881 17.0637 17.063 17.1841C17.1379 17.3045 17.1877 17.4385 17.2095 17.5782C17.2495 17.8603 17.1779 18.1469 17.0096 18.3781L13.6201 22.9616ZM16.4734 25.0197C16.3936 25.1419 16.2894 25.2467 16.1671 25.3277C16.0449 25.4088 15.9072 25.4643 15.7626 25.4908C15.6179 25.5174 15.4693 25.5145 15.3258 25.4822C15.1823 25.45 15.047 25.3892 14.9281 25.3034C14.8092 25.2177 14.7093 25.1089 14.6344 24.9836C14.5595 24.8583 14.5112 24.7193 14.4926 24.5749C14.4739 24.4306 14.4852 24.284 14.5258 24.1441C14.5664 24.0042 14.6355 23.874 14.7287 23.7615L17.1277 20.4901C17.2983 20.261 17.5536 20.108 17.8378 20.0642C18.122 20.0204 18.4123 20.0895 18.6452 20.2564C18.7619 20.3384 18.8607 20.4427 18.936 20.5632C19.0112 20.6836 19.0614 20.8177 19.0834 20.9576C19.1054 21.0975 19.0989 21.2403 19.0642 21.3776C19.0295 21.515 18.9674 21.6441 18.8815 21.7573L17.9183 23.0604L16.4734 25.0197ZM20.7716 25.1185L19.3267 27.0778C19.2434 27.1889 19.1386 27.2827 19.0185 27.3537C18.8984 27.4247 18.7653 27.4716 18.6269 27.4916C18.4884 27.5117 18.3473 27.5045 18.2117 27.4705C18.0761 27.4365 17.9486 27.3763 17.8365 27.2935C17.7198 27.2114 17.621 27.1071 17.5457 26.9867C17.4705 26.8663 17.4203 26.7322 17.3983 26.5923C17.3763 26.4524 17.3828 26.3096 17.4175 26.1723C17.4522 26.0349 17.5143 25.9058 17.6002 25.7926L19.0359 23.8334C19.2089 23.6081 19.4625 23.4569 19.7447 23.411H19.9174C20.1746 23.4116 20.4232 23.5022 20.6194 23.6667C20.8157 23.8311 20.9468 24.0589 20.9896 24.3097C21.0107 24.4521 21.0022 24.5972 20.9647 24.7363C20.9272 24.8754 20.8615 25.0054 20.7716 25.1185ZM23.9429 26.6374C23.8661 26.7503 23.7675 26.8472 23.6528 26.9223C23.5381 26.9975 23.4095 27.0495 23.2744 27.0754C23.1394 27.1013 23.0004 27.1005 22.8656 27.0732C22.7308 27.0458 22.6028 26.9924 22.489 26.916L21.5803 26.3139L21.8802 25.9094C22.2332 25.4228 22.3918 24.8242 22.3254 24.2288L23.7248 25.1275C23.8336 25.2013 23.9265 25.2957 23.9983 25.4052C24.07 25.5148 24.1191 25.6373 24.1428 25.7656C24.1756 25.9166 24.1748 26.0728 24.1402 26.2234C24.1057 26.3739 24.0383 26.5152 23.9429 26.6374ZM32.0666 19.4026C32.0254 19.4625 31.9765 19.5169 31.9212 19.5644C31.8279 19.6031 31.7442 19.6614 31.6758 19.7351C31.5553 19.8007 31.4222 19.8406 31.2851 19.852C31.1847 19.863 31.0883 19.8968 31.0034 19.9508L23.4067 14.882C23.2609 14.791 23.0852 14.7589 22.9161 14.7923C22.747 14.8258 22.5973 14.9222 22.4981 15.0617C22.4082 15.2066 22.377 15.3797 22.4107 15.5464C22.4444 15.713 22.5405 15.8609 22.6798 15.9605L30.4945 21.1731C30.7355 21.3316 30.903 21.5783 30.9601 21.859C31.0172 22.1396 30.9592 22.4311 30.799 22.6695C30.6387 22.9079 30.3892 23.0735 30.1055 23.13C29.8218 23.1864 29.527 23.1291 29.286 22.9706L21.4167 17.722C21.2708 17.631 21.0952 17.5989 20.9261 17.6323C20.7569 17.6658 20.6073 17.7622 20.508 17.9017C20.4182 18.0466 20.387 18.2197 20.4207 18.3864C20.4544 18.553 20.5505 18.7009 20.6898 18.8005L27.9593 23.6446C28.0757 23.7258 28.1743 23.8293 28.2495 23.949C28.3246 24.0686 28.3747 24.202 28.3967 24.3411C28.4188 24.4803 28.4123 24.6224 28.3778 24.759C28.3432 24.8956 28.2812 25.024 28.1955 25.1365C28.1196 25.2504 28.0214 25.3481 27.9067 25.424C27.7921 25.4999 27.6633 25.5523 27.5278 25.5783C27.3924 25.6042 27.2531 25.6032 27.1181 25.5751C26.9831 25.5471 26.8551 25.4927 26.7416 25.4151L24.5971 23.9951L20.5716 21.2989C20.5944 21.0989 20.5944 20.8969 20.5716 20.6968C20.5239 20.3814 20.4124 20.0788 20.2438 19.8071C20.0752 19.5353 19.8529 19.2999 19.5902 19.115C19.2725 18.8831 18.9004 18.7347 18.5089 18.6836C18.704 18.2527 18.7702 17.7755 18.6997 17.3086C18.5968 16.6747 18.2451 16.1067 17.7209 15.7281C17.1968 15.3494 16.5428 15.1907 15.901 15.2864C15.4277 15.3636 14.9865 15.5725 14.6288 15.8886C14.458 15.5335 14.2022 15.225 13.8837 14.9898C13.3588 14.6141 12.7049 14.459 12.0648 14.5583C11.4247 14.6577 10.8503 15.0034 10.467 15.5201L8.31339 18.45C7.9045 17.9982 7.55071 17.5005 7.2593 16.9671L15.3467 5.10381C16.4213 5.23397 17.4608 5.5665 18.409 6.08343L15.1104 7.39558C15.0251 7.42898 14.9476 7.47905 14.8824 7.54279C14.8171 7.60654 14.7656 7.68264 14.7308 7.76655C14.696 7.85046 14.6787 7.94046 14.6799 8.03114C14.6811 8.12182 14.7008 8.21133 14.7378 8.29431C15.1522 9.31504 15.9584 10.132 16.9801 10.5665C18.0018 11.001 19.1558 11.0177 20.19 10.613L22.4799 9.7143L23.7975 11.8173C24.2462 12.5219 24.8538 13.1142 25.5727 13.5477C26.2916 13.9812 27.1023 14.2441 27.9411 14.3158L31.7304 17.8478L31.8212 17.9107C31.9373 17.992 32.0358 18.0954 32.1111 18.2147C32.1864 18.3341 32.2369 18.467 32.2598 18.6059C32.2826 18.7447 32.2773 18.8867 32.2441 19.0234C32.2109 19.1602 32.1506 19.2891 32.0666 19.4026ZM33.6295 18.6297C33.6115 18.2748 33.5121 17.9286 33.3389 17.6172C33.1658 17.3058 32.9233 17.0374 32.63 16.8323L29.7767 14.1361C30.3171 14.002 30.8324 13.7835 31.3033 13.489C31.4418 13.3885 31.5369 13.24 31.5695 13.0732C31.6021 12.9064 31.5698 12.7336 31.479 12.5893C31.3883 12.445 31.2458 12.34 31.0801 12.2952C30.9144 12.2504 30.7377 12.2691 30.5854 12.3476C29.6659 12.9159 28.5559 13.0997 27.4994 12.8587C26.4429 12.6177 25.5264 11.9716 24.9515 11.0624L23.334 8.49203C23.251 8.35715 23.1228 8.25537 22.9717 8.20446C22.8206 8.15354 22.6562 8.15671 22.5072 8.21342L19.6539 9.31886C19.3083 9.46125 18.9377 9.53455 18.5634 9.53455C18.1891 9.53455 17.8185 9.46125 17.473 9.31886C16.9906 9.11919 16.5748 8.78901 16.2735 8.36621L25.6149 4.66343C26.8666 4.17291 28.2186 3.98496 29.5586 4.11521L34.9471 17.4164C34.5539 17.8671 34.1121 18.274 33.6295 18.6297Z" fill="#FDA100"/>
</svg>
