<svg width="58" height="41" viewBox="0 0 58 41" fill="none" xmlns="http://www.w3.org/2000/svg">
<path d="M57.5193 21.4994C57.4216 21.2655 57.2345 21.0793 56.9986 20.9813C56.7627 20.8834 56.4973 20.8816 56.2601 20.9763L49.4099 23.7038L41.8546 5.14703L48.1507 2.79319C48.2741 2.75567 48.3884 2.69355 48.4865 2.61063C48.5847 2.52772 48.6646 2.42579 48.7214 2.31113C48.7781 2.19647 48.8105 2.07151 48.8166 1.94399C48.8226 1.81646 48.8021 1.68906 48.7564 1.56966C48.7107 1.45027 48.6408 1.3414 48.5509 1.2498C48.461 1.15819 48.353 1.08578 48.2337 1.03704C48.1144 0.988305 47.9863 0.964281 47.8572 0.966442C47.7281 0.968604 47.6009 0.99691 47.4833 1.04961L40.3309 3.73971C40.1818 3.80663 40.0519 3.90938 39.9532 4.03861C37.9283 3.90169 35.8981 4.21226 34.0097 4.94777L26.681 7.86204L26.4669 7.7126C24.7214 6.56092 22.7304 5.82356 20.6494 5.55802C20.597 5.49386 20.5379 5.43541 20.473 5.38366L14.3533 1.14924C14.2507 1.07891 14.1352 1.02925 14.0132 1.00308C13.8913 0.976913 13.7654 0.974752 13.6426 0.996725C13.5198 1.0187 13.4026 1.06438 13.2977 1.13115C13.1928 1.19792 13.1022 1.28447 13.0311 1.38587C12.9599 1.48727 12.9098 1.60153 12.8833 1.72213C12.8568 1.84272 12.8546 1.9673 12.8768 2.08873C12.8991 2.21016 12.9452 2.32606 13.0128 2.42984C13.0803 2.53362 13.1678 2.62324 13.2703 2.69356L18.6346 6.42982L7.30162 22.969L1.74845 18.6723C1.55012 18.5405 1.30864 18.4879 1.07269 18.5252C0.836745 18.5625 0.62389 18.6869 0.476974 18.8733C0.330058 19.0596 0.260019 19.2942 0.28099 19.5296C0.30196 19.765 0.412353 19.9838 0.589953 20.1419L6.88605 25.1235C7.04879 25.2564 7.25435 25.3271 7.46532 25.3228H7.54087C8.08928 26.1934 8.7356 26.9997 9.46748 27.7265C9.3605 28.2144 9.36514 28.7198 9.48108 29.2058C9.59702 29.6917 9.82131 30.1459 10.1376 30.5351C10.4538 30.9242 10.854 31.2386 11.3089 31.4551C11.7638 31.6716 12.2618 31.7849 12.7666 31.7865C12.9466 31.8049 13.1281 31.8049 13.3081 31.7865H13.3836V31.8612C13.5045 32.65 13.908 33.3695 14.5206 33.8885C15.1332 34.4075 15.914 34.6914 16.7206 34.6884H17.262H17.3376V34.7631C17.5579 35.6106 18.1048 36.3392 18.8612 36.7931C19.4424 37.2025 20.1373 37.4243 20.8508 37.4283C21.0311 37.4406 21.212 37.4406 21.3923 37.4283H21.4678V37.5155C21.534 37.9493 21.6874 38.3656 21.9188 38.7399C22.1502 39.1142 22.455 39.4389 22.8152 39.6949C23.1752 39.9563 23.5839 40.1447 24.0178 40.2492C24.4516 40.3538 24.9022 40.3725 25.3434 40.3042C25.7846 40.2359 26.2078 40.082 26.5886 39.8513C26.9694 39.6207 27.3004 39.3178 27.5625 38.9601L28.041 38.3125L29.3002 39.1968C29.8473 39.5611 30.4917 39.7562 31.1512 39.7572C31.73 39.7301 32.2923 39.5582 32.7856 39.2576C33.2789 38.957 33.6871 38.5376 33.9719 38.0385C34.2518 37.6279 34.4327 37.1592 34.5008 36.6686L35.0422 37.0297C35.5933 37.3957 36.2421 37.5908 36.9058 37.5902C37.1216 37.5941 37.3372 37.5732 37.5481 37.5279C37.9951 37.443 38.4199 37.269 38.7966 37.0163C39.1733 36.7636 39.494 36.4377 39.7391 36.0583C40.125 35.4835 40.3229 34.8052 40.3058 34.1155H40.4821C41.0493 34.1132 41.6072 33.9721 42.1059 33.7049C42.6047 33.4376 43.0288 33.0524 43.3405 32.5836C43.6617 32.1061 43.8515 31.554 43.8912 30.9818C43.931 30.4096 43.8193 29.8371 43.5671 29.3206C43.8455 29.2096 44.108 29.0631 44.3478 28.8847C46.0443 28.1721 47.5681 27.1108 48.8181 25.7712H48.8936C49.0152 25.7717 49.1355 25.7462 49.2462 25.6964L56.9778 22.6327C57.1905 22.5395 57.3623 22.3737 57.4617 22.1656C57.5611 21.9576 57.5816 21.7211 57.5193 21.4994ZM14.1014 29.1961C13.985 29.3531 13.8383 29.4857 13.6697 29.5862C13.5011 29.6867 13.314 29.753 13.1192 29.7814C12.924 29.8115 12.7247 29.803 12.5328 29.7566C12.3409 29.7102 12.1602 29.6268 12.001 29.511C11.8419 29.3953 11.7074 29.2495 11.6054 29.0822C11.5034 28.9149 11.4358 28.7292 11.4066 28.536C11.3462 28.1466 11.441 27.7492 11.6711 27.4276L15.008 22.9067C15.2426 22.5868 15.5958 22.3719 15.9902 22.3089H16.2295C16.5451 22.3061 16.8536 22.402 17.1109 22.5829C17.2712 22.6964 17.4065 22.8412 17.5082 23.0082C17.61 23.1752 17.6762 23.3611 17.7027 23.5543C17.7362 23.7472 17.73 23.9447 17.6846 24.1351C17.6391 24.3256 17.5554 24.505 17.4383 24.6627L14.1014 29.1961ZM18.0553 32.0356C17.9402 32.195 17.7939 32.3299 17.6253 32.4326C17.4566 32.5353 17.2689 32.6035 17.0731 32.6334C16.8779 32.6635 16.6787 32.6551 16.4868 32.6087C16.2949 32.5623 16.1141 32.4788 15.9549 32.363C15.7958 32.2473 15.6613 32.1015 15.5593 31.9342C15.4573 31.7669 15.3898 31.5812 15.3606 31.388C15.3297 31.1943 15.3382 30.9965 15.3858 30.8061C15.4334 30.6157 15.519 30.4367 15.6376 30.2796L18.962 25.7462L20.3219 23.903C20.4367 23.7445 20.5831 23.6108 20.752 23.5101C20.9208 23.4095 21.1087 23.344 21.3041 23.3177C21.3834 23.3055 21.4641 23.3055 21.5434 23.3177C21.8603 23.3194 22.1686 23.4196 22.4248 23.6041C22.5859 23.718 22.7224 23.8627 22.8262 24.0295C22.93 24.1963 22.9991 24.382 23.0293 24.5756C23.0848 24.9665 22.9855 25.3636 22.7522 25.684L18.0553 32.0356ZM22.0093 34.8876C21.8986 35.057 21.7542 35.2023 21.5848 35.3145C21.4154 35.4268 21.2247 35.5037 21.0242 35.5405C20.8237 35.5773 20.6178 35.5733 20.4189 35.5286C20.2201 35.484 20.0326 35.3997 19.8678 35.2808C19.7031 35.162 19.5646 35.0112 19.4608 34.8376C19.357 34.664 19.2902 34.4713 19.2643 34.2713C19.2385 34.0712 19.2541 33.8681 19.3104 33.6743C19.3667 33.4805 19.4623 33.3 19.5916 33.144L22.9159 28.6107C23.1524 28.2933 23.5061 28.0812 23.9 28.0205C24.2938 27.9599 24.696 28.0556 25.0188 28.2869C25.1805 28.4006 25.3175 28.5451 25.4218 28.712C25.526 28.8789 25.5955 29.0647 25.626 29.2585C25.6565 29.4524 25.6475 29.6503 25.5994 29.8406C25.5514 30.031 25.4653 30.2098 25.3462 30.3667L24.0114 32.1726L22.0093 34.8876ZM27.9654 35.0246L25.9633 37.7396C25.8477 37.8936 25.7026 38.0236 25.5361 38.122C25.3697 38.2204 25.1853 38.2853 24.9934 38.3131C24.8016 38.3409 24.6061 38.3309 24.4181 38.2838C24.2301 38.2367 24.0534 38.1533 23.8981 38.0385C23.7365 37.9249 23.5995 37.7803 23.4952 37.6134C23.3909 37.4466 23.3215 37.2607 23.291 37.0669C23.2604 36.8731 23.2695 36.6751 23.3175 36.4848C23.3656 36.2945 23.4517 36.1156 23.5707 35.9587L25.5603 33.2437C25.7999 32.9314 26.1514 32.722 26.5425 32.6583H26.7817C27.1381 32.6593 27.4827 32.7848 27.7546 33.0127C28.0265 33.2406 28.2082 33.5562 28.2676 33.9037C28.2968 34.1011 28.285 34.3022 28.2331 34.4949C28.1811 34.6876 28.0901 34.8678 27.9654 35.0246ZM32.3601 37.1294C32.2537 37.2859 32.1171 37.4201 31.9581 37.5242C31.7992 37.6284 31.621 37.7005 31.4338 37.7363C31.2466 37.7722 31.0541 37.7712 30.8673 37.7333C30.6805 37.6954 30.5031 37.6213 30.3453 37.5155L29.0861 36.681L29.5017 36.1206C29.9909 35.4462 30.2107 34.6167 30.1187 33.7916L32.0579 35.0371C32.2087 35.1394 32.3374 35.2701 32.4369 35.4219C32.5363 35.5737 32.6043 35.7434 32.6371 35.9213C32.6826 36.1305 32.6814 36.347 32.6336 36.5556C32.5857 36.7643 32.4924 36.9601 32.3601 37.1294ZM43.6175 27.1038C43.5605 27.1868 43.4927 27.2622 43.416 27.3279C43.2867 27.3816 43.1708 27.4623 43.0761 27.5646C42.909 27.6555 42.7245 27.7106 42.5346 27.7265C42.3955 27.7417 42.2619 27.7886 42.1442 27.8635L31.6171 20.8393C31.415 20.7132 31.1716 20.6687 30.9372 20.7151C30.7029 20.7614 30.4955 20.8951 30.3579 21.0884C30.2334 21.2891 30.1902 21.529 30.2369 21.7599C30.2836 21.9909 30.4168 22.1959 30.6097 22.3338L41.439 29.5572C41.773 29.7769 42.0051 30.1188 42.0842 30.5076C42.1633 30.8965 42.083 31.3005 41.8609 31.6308C41.6388 31.9612 41.2932 32.1907 40.9 32.2689C40.5068 32.3472 40.0983 32.2677 39.7643 32.0481L28.8595 24.7748C28.6573 24.6487 28.4139 24.6042 28.1795 24.6506C27.9452 24.6969 27.7378 24.8306 27.6002 25.0239C27.4757 25.2247 27.4325 25.4645 27.4792 25.6955C27.5259 25.9264 27.6591 26.1314 27.8521 26.2693L37.9258 32.9821C38.0871 33.0947 38.2238 33.2381 38.328 33.4039C38.4321 33.5697 38.5015 33.7545 38.532 33.9473C38.5626 34.1401 38.5536 34.337 38.5057 34.5264C38.4578 34.7157 38.372 34.8936 38.2532 35.0495C38.148 35.2074 38.0119 35.3428 37.853 35.4479C37.6941 35.553 37.5156 35.6257 37.3279 35.6617C37.1403 35.6976 36.9473 35.6962 36.7602 35.6573C36.5731 35.6185 36.3957 35.5431 36.2385 35.4356L33.2667 33.4678L27.6884 29.7316C27.7199 29.4543 27.7199 29.1744 27.6884 28.8972C27.6223 28.4602 27.4678 28.0408 27.2341 27.6642C27.0004 27.2876 26.6924 26.9615 26.3284 26.7052C25.8881 26.3839 25.3725 26.1782 24.8299 26.1074C25.1003 25.5103 25.1921 24.849 25.0944 24.2019C24.9518 23.3236 24.4643 22.5365 23.738 22.0117C23.0117 21.487 22.1054 21.267 21.216 21.3997C20.5602 21.5067 19.9487 21.7961 19.4531 22.2342C19.2164 21.7422 18.862 21.3147 18.4205 20.9887C17.6931 20.4681 16.7871 20.2531 15.9 20.3907C15.013 20.5284 14.217 21.0075 13.6859 21.7236L10.7015 25.7836C10.1349 25.1576 9.6446 24.4679 9.24079 23.7287L20.4479 7.28915C21.9371 7.46951 23.3775 7.93032 24.6914 8.64666L20.1205 10.465C20.0023 10.5113 19.8949 10.5806 19.8045 10.669C19.7141 10.7573 19.6426 10.8628 19.5944 10.979C19.5462 11.0953 19.5223 11.22 19.5239 11.3457C19.5256 11.4714 19.5529 11.5954 19.6042 11.7104C20.1784 13.1249 21.2956 14.2569 22.7114 14.859C24.1272 15.4612 25.7265 15.4844 27.1595 14.9236L30.3327 13.6782L32.1586 16.5924C32.7804 17.5689 33.6225 18.3896 34.6187 18.9903C35.6149 19.591 36.7382 19.9553 37.9006 20.0547L43.1516 24.9492L43.2775 25.0364C43.4384 25.149 43.5749 25.2922 43.6792 25.4576C43.7836 25.623 43.8536 25.8072 43.8852 25.9996C43.9169 26.192 43.9095 26.3888 43.8635 26.5783C43.8176 26.7679 43.7339 26.9465 43.6175 27.1038ZM45.7834 26.0327C45.7583 25.5409 45.6206 25.0611 45.3807 24.6296C45.1407 24.1981 44.8048 23.8261 44.3982 23.5419L40.4443 19.8056C41.1931 19.6198 41.9073 19.3171 42.5598 18.9089C42.7518 18.7697 42.8835 18.5639 42.9287 18.3328C42.9738 18.1016 42.9291 17.8621 42.8033 17.6622C42.6776 17.4623 42.4802 17.3167 42.2506 17.2546C42.021 17.1925 41.7761 17.2184 41.565 17.3272C40.2908 18.1147 38.7526 18.3695 37.2886 18.0355C35.8245 17.7015 34.5545 16.8062 33.7578 15.5463L31.5164 11.9844C31.4014 11.7975 31.2237 11.6564 31.0142 11.5859C30.8048 11.5153 30.577 11.5197 30.3705 11.5983L26.4166 13.1302C25.9378 13.3275 25.4242 13.4291 24.9055 13.4291C24.3868 13.4291 23.8732 13.3275 23.3944 13.1302C22.7259 12.8535 22.1498 12.3959 21.7323 11.81L34.677 6.6789C36.4116 5.99915 38.2852 5.7387 40.1421 5.91919L47.6092 24.3514C47.0643 24.9759 46.4521 25.5397 45.7834 26.0327Z" fill="#FDA100"/>
</svg>
