<svg width="26" height="20" viewBox="0 0 26 20" fill="none" xmlns="http://www.w3.org/2000/svg">
<path d="M25.5841 9.9778C25.5405 9.86416 25.4568 9.77368 25.3514 9.72607C25.246 9.67846 25.1274 9.67758 25.0213 9.72362L21.9597 11.049L18.5828 2.03157L21.3969 0.887751C21.452 0.86952 21.5031 0.83933 21.547 0.799039C21.5908 0.758748 21.6266 0.709215 21.6519 0.653498C21.6773 0.59778 21.6918 0.537061 21.6945 0.475091C21.6972 0.41312 21.688 0.351213 21.6676 0.293193C21.6472 0.235173 21.6159 0.182273 21.5757 0.137757C21.5355 0.0932411 21.4873 0.058054 21.434 0.0343714C21.3806 0.0106889 21.3234 -0.000985089 21.2657 6.50528e-05C21.208 0.00111519 21.1511 0.0148702 21.0986 0.0404801L17.9018 1.3477C17.8352 1.38022 17.7771 1.43015 17.733 1.49295C16.828 1.42641 15.9206 1.57733 15.0766 1.93474L11.801 3.3509L11.7054 3.27828C10.9252 2.71863 10.0353 2.36032 9.10521 2.23129C9.08183 2.20011 9.05541 2.17171 9.02641 2.14656L6.29119 0.0888923C6.24537 0.0547178 6.19372 0.0305857 6.13922 0.0178693C6.08472 0.00515285 6.02844 0.00410277 5.97356 0.0147803C5.91869 0.0254579 5.86631 0.047655 5.81941 0.080101C5.77252 0.112547 5.73202 0.154606 5.70023 0.203881C5.66845 0.253156 5.64602 0.30868 5.63419 0.367282C5.62237 0.425884 5.62138 0.486418 5.63131 0.545426C5.64124 0.604433 5.66189 0.660756 5.69206 0.711186C5.72223 0.761616 5.76135 0.805164 5.80717 0.839339L8.20472 2.65493L3.13948 10.6919L0.657508 8.604C0.568864 8.53996 0.460933 8.51442 0.355478 8.53255C0.250023 8.55067 0.154888 8.61111 0.0892243 8.70167C0.0235605 8.79224 -0.00774308 8.9062 0.00162951 9.02059C0.0110021 9.13499 0.0603419 9.24131 0.13972 9.31813L2.95374 11.7389C3.02648 11.8035 3.11835 11.8378 3.21265 11.8357H3.24641C3.49153 12.2588 3.7804 12.6506 4.1075 13.0038C4.05969 13.2409 4.06177 13.4865 4.11358 13.7226C4.1654 13.9588 4.26565 14.1795 4.40699 14.3686C4.54834 14.5577 4.72721 14.7105 4.93052 14.8157C5.13382 14.9209 5.35642 14.9759 5.58205 14.9767C5.6625 14.9857 5.7436 14.9857 5.82405 14.9767H5.85782V15.013C5.91183 15.3963 6.09218 15.746 6.36597 15.9981C6.63976 16.2503 6.98874 16.3883 7.34925 16.3868H7.59127H7.62503V16.4231C7.72351 16.835 7.96793 17.189 8.30602 17.4096C8.56578 17.6085 8.87634 17.7163 9.19525 17.7183C9.27582 17.7243 9.35669 17.7243 9.43727 17.7183H9.47103V17.7606C9.50062 17.9714 9.56915 18.1737 9.67257 18.3556C9.77599 18.5375 9.91223 18.6953 10.0732 18.8197C10.2341 18.9467 10.4168 19.0383 10.6107 19.0891C10.8046 19.1399 11.006 19.1489 11.2032 19.1158C11.4004 19.0826 11.5895 19.0078 11.7597 18.8957C11.93 18.7836 12.0779 18.6364 12.195 18.4626L12.4089 18.1479L12.9717 18.5776C13.2162 18.7547 13.5042 18.8495 13.799 18.85C14.0577 18.8368 14.309 18.7533 14.5295 18.6072C14.75 18.4611 14.9324 18.2573 15.0597 18.0148C15.1848 17.8153 15.2657 17.5875 15.2961 17.3491L15.5381 17.5246C15.7844 17.7024 16.0744 17.7972 16.371 17.7969C16.4675 17.7988 16.5638 17.7887 16.658 17.7667C16.8578 17.7254 17.0477 17.6408 17.2161 17.5181C17.3844 17.3953 17.5278 17.2369 17.6373 17.0525C17.8098 16.7732 17.8982 16.4436 17.8906 16.1084H17.9694C18.2229 16.1073 18.4723 16.0388 18.6952 15.9089C18.9181 15.779 19.1076 15.5918 19.247 15.364C19.3905 15.132 19.4753 14.8637 19.4931 14.5857C19.5109 14.3076 19.4609 14.0294 19.3483 13.7784C19.4727 13.7245 19.59 13.6533 19.6972 13.5666C20.4554 13.2203 21.1365 12.7046 21.6952 12.0536H21.7289C21.7833 12.0539 21.837 12.0415 21.8865 12.0173L25.3421 10.5285C25.4372 10.4832 25.514 10.4027 25.5584 10.3016C25.6028 10.2005 25.612 10.0855 25.5841 9.9778ZM6.17862 13.7179C6.12662 13.7942 6.06103 13.8587 5.98567 13.9075C5.91031 13.9563 5.82668 13.9886 5.73963 14.0023C5.65239 14.017 5.56331 14.0129 5.47754 13.9903C5.39177 13.9678 5.311 13.9272 5.23986 13.871C5.16873 13.8147 5.10863 13.7439 5.06304 13.6626C5.01745 13.5813 4.98726 13.4911 4.97421 13.3972C4.94718 13.2079 4.98957 13.0148 5.09241 12.8585L6.58384 10.6617C6.6887 10.5062 6.84654 10.4018 7.02283 10.3712H7.12976C7.27085 10.3698 7.40872 10.4164 7.52372 10.5043C7.59537 10.5595 7.65581 10.6298 7.70129 10.711C7.74678 10.7922 7.77636 10.8825 7.78824 10.9764C7.80317 11.0701 7.80042 11.1661 7.78011 11.2586C7.75981 11.3512 7.72237 11.4383 7.67005 11.515L6.17862 13.7179ZM7.94582 15.0977C7.89434 15.1752 7.829 15.2408 7.75361 15.2907C7.67822 15.3406 7.59432 15.3737 7.50683 15.3883C7.41959 15.4029 7.33052 15.3988 7.24475 15.3762C7.15898 15.3537 7.0782 15.3131 7.00706 15.2569C6.93593 15.2006 6.87583 15.1298 6.83024 15.0485C6.78465 14.9672 6.75447 14.877 6.74143 14.7831C6.7276 14.6889 6.73143 14.5928 6.75269 14.5003C6.77396 14.4078 6.81223 14.3208 6.86524 14.2444L8.35104 12.0415L8.95888 11.1458C9.01019 11.0688 9.07559 11.0038 9.15107 10.9549C9.22656 10.906 9.31054 10.8742 9.39787 10.8614C9.4333 10.8555 9.46937 10.8555 9.5048 10.8614C9.64645 10.8622 9.78426 10.9109 9.89875 11.0006C9.97077 11.0559 10.0318 11.1262 10.0782 11.2073C10.1246 11.2883 10.1554 11.3786 10.1689 11.4726C10.1937 11.6626 10.1494 11.8556 10.0451 12.0113L7.94582 15.0977ZM9.71304 16.4837C9.66358 16.566 9.59902 16.6365 9.52332 16.6911C9.44761 16.7456 9.36234 16.783 9.27274 16.8009C9.18314 16.8188 9.0911 16.8168 9.00223 16.7951C8.91336 16.7734 8.82955 16.7325 8.75592 16.6747C8.68228 16.617 8.62038 16.5437 8.57399 16.4594C8.52761 16.375 8.49773 16.2814 8.48618 16.1841C8.47462 16.0869 8.48162 15.9882 8.50677 15.894C8.53192 15.7999 8.57469 15.7122 8.63244 15.6364L10.1183 13.4335C10.2239 13.2792 10.382 13.1761 10.5581 13.1467C10.7341 13.1172 10.9139 13.1637 11.0581 13.2761C11.1304 13.3314 11.1916 13.4016 11.2382 13.4827C11.2848 13.5638 11.3159 13.6541 11.3295 13.7483C11.3432 13.8425 11.3391 13.9386 11.3176 14.0311C11.2962 14.1236 11.2577 14.2105 11.2045 14.2868L10.6079 15.1643L9.71304 16.4837ZM12.3751 16.5502L11.4803 17.8695C11.4286 17.9444 11.3637 18.0075 11.2893 18.0554C11.215 18.1032 11.1325 18.1347 11.0468 18.1482C10.961 18.1617 10.8736 18.1569 10.7896 18.134C10.7056 18.1111 10.6267 18.0706 10.5572 18.0148C10.485 17.9596 10.4238 17.8893 10.3772 17.8082C10.3306 17.7271 10.2995 17.6368 10.2859 17.5426C10.2722 17.4485 10.2763 17.3523 10.2977 17.2598C10.3192 17.1673 10.3577 17.0804 10.4109 17.0041L11.3001 15.6848C11.4072 15.5331 11.5644 15.4313 11.7391 15.4003H11.8461C12.0054 15.4008 12.1594 15.4618 12.2809 15.5725C12.4024 15.6833 12.4836 15.8366 12.5102 16.0055C12.5232 16.1014 12.518 16.1992 12.4947 16.2928C12.4715 16.3865 12.4308 16.474 12.3751 16.5502ZM14.3393 17.573C14.2917 17.6491 14.2307 17.7143 14.1596 17.7649C14.0886 17.8155 14.009 17.8505 13.9253 17.868C13.8416 17.8854 13.7556 17.8849 13.6721 17.8665C13.5886 17.848 13.5093 17.8121 13.4388 17.7606L12.876 17.3551L13.0617 17.0828C13.2804 16.7551 13.3786 16.352 13.3375 15.9511L14.2042 16.5563C14.2716 16.606 14.3292 16.6695 14.3736 16.7433C14.418 16.817 14.4485 16.8995 14.4631 16.986C14.4835 17.0876 14.4829 17.1928 14.4615 17.2942C14.4401 17.3956 14.3984 17.4907 14.3393 17.573ZM19.3708 12.7012C19.3453 12.7415 19.315 12.7782 19.2807 12.8101C19.2229 12.8362 19.1711 12.8754 19.1288 12.9251C19.0541 12.9693 18.9717 12.9961 18.8867 13.0038C18.8246 13.0112 18.7649 13.034 18.7123 13.0703L14.0072 9.65704C13.9169 9.59576 13.8081 9.57414 13.7034 9.59667C13.5986 9.6192 13.5059 9.68414 13.4444 9.77808C13.3888 9.87564 13.3695 9.9922 13.3903 10.1044C13.4112 10.2166 13.4707 10.3162 13.557 10.3833L18.3971 13.8934C18.5464 14.0002 18.6501 14.1663 18.6855 14.3553C18.7208 14.5442 18.6849 14.7406 18.5857 14.9011C18.4864 15.0616 18.3319 15.1731 18.1562 15.2111C17.9804 15.2492 17.7979 15.2105 17.6486 15.1038L12.7747 11.5695C12.6843 11.5082 12.5756 11.4866 12.4708 11.5091C12.3661 11.5316 12.2734 11.5966 12.2119 11.6905C12.1562 11.7881 12.1369 11.9046 12.1578 12.0168C12.1787 12.1291 12.2382 12.2287 12.3245 12.2957L16.8269 15.5577C16.899 15.6124 16.9601 15.6821 17.0066 15.7626C17.0532 15.8432 17.0842 15.933 17.0978 16.0267C17.1115 16.1204 17.1075 16.2161 17.0861 16.3081C17.0647 16.4001 17.0263 16.4866 16.9732 16.5623C16.9262 16.639 16.8654 16.7048 16.7943 16.7559C16.7233 16.807 16.6435 16.8423 16.5597 16.8598C16.4758 16.8773 16.3895 16.8766 16.3059 16.8577C16.2223 16.8388 16.143 16.8022 16.0727 16.7499L14.7445 15.7937L12.2513 13.9781C12.2654 13.8434 12.2654 13.7074 12.2513 13.5727C12.2217 13.3603 12.1527 13.1565 12.0482 12.9735C11.9438 12.7905 11.8061 12.632 11.6435 12.5075C11.4466 12.3513 11.2162 12.2514 10.9737 12.217C11.0946 11.9268 11.1356 11.6055 11.0919 11.2911C11.0282 10.8643 10.8103 10.4818 10.4857 10.2268C10.1611 9.97177 9.75597 9.86489 9.35847 9.92938C9.06535 9.98136 8.79206 10.122 8.57054 10.3349C8.46476 10.0958 8.30635 9.88804 8.10904 9.72966C7.78395 9.47664 7.37898 9.37218 6.98252 9.43907C6.58606 9.50597 6.2303 9.7388 5.9929 10.0867L4.65904 12.0597C4.40579 11.7555 4.18667 11.4203 4.00619 11.0611L9.01516 3.07251C9.68075 3.16015 10.3246 3.38408 10.9118 3.73217L8.86883 4.61576C8.81603 4.63825 8.76799 4.67197 8.72759 4.71489C8.6872 4.75782 8.65526 4.80906 8.63371 4.86557C8.61217 4.92207 8.60147 4.98268 8.60221 5.04374C8.60296 5.10481 8.61515 5.16508 8.63808 5.22096C8.89474 5.9083 9.39406 6.45841 10.0268 6.75101C10.6596 7.0436 11.3744 7.05487 12.0149 6.78236L13.4332 6.17717L14.2492 7.59332C14.5272 8.06781 14.9035 8.46663 15.3488 8.75853C15.794 9.05042 16.2961 9.22746 16.8156 9.27577L19.1625 11.6542L19.2188 11.6966C19.2907 11.7513 19.3517 11.8209 19.3984 11.9013C19.445 11.9816 19.4763 12.0712 19.4904 12.1646C19.5046 12.2581 19.5013 12.3537 19.4807 12.4458C19.4602 12.538 19.4228 12.6248 19.3708 12.7012ZM20.3388 12.1807C20.3276 11.9417 20.2661 11.7086 20.1588 11.4989C20.0516 11.2892 19.9014 11.1085 19.7197 10.9703L17.9525 9.15473C18.2872 9.06443 18.6064 8.91733 18.898 8.71899C18.9838 8.65135 19.0427 8.55136 19.0629 8.43903C19.0831 8.3267 19.0631 8.21032 19.0069 8.11317C18.9507 8.01602 18.8624 7.94528 18.7598 7.9151C18.6572 7.88492 18.5477 7.89752 18.4534 7.95039C17.8839 8.33307 17.1964 8.45687 16.5421 8.29458C15.8877 8.13229 15.3201 7.69719 14.964 7.08496L13.9622 5.3541C13.9108 5.26327 13.8314 5.19474 13.7378 5.16045C13.6442 5.12616 13.5424 5.1283 13.4501 5.16649L11.6829 5.91088C11.4689 6.00676 11.2393 6.05613 11.0075 6.05613C10.7756 6.05613 10.5461 6.00676 10.3321 5.91088C10.0333 5.77643 9.77582 5.55408 9.58922 5.26937L15.3749 2.77596C16.1501 2.44565 16.9875 2.31909 17.8174 2.40679L21.1549 11.3637C20.9113 11.6672 20.6377 11.9412 20.3388 12.1807Z" fill="#FDA100"/>
</svg>
