<svg width="21" height="21" viewBox="0 0 21 21" fill="none" xmlns="http://www.w3.org/2000/svg">
<path d="M12.6666 20.8596C12.3009 20.8596 11.9444 20.7128 11.6793 20.4376L1.03849 9.36334C0.718538 9.02387 0.58141 8.54677 0.691109 8.08802C0.800808 7.62927 1.12992 7.26227 1.56872 7.10629L18.9834 0.931518C19.4862 0.748018 20.053 0.885646 20.4278 1.271C20.8026 1.65635 20.9123 2.2252 20.7203 2.72982L13.9464 19.9788C13.7727 20.4192 13.3979 20.7312 12.9408 20.8229C12.8403 20.8504 12.7489 20.8596 12.6666 20.8596ZM4.48489 8.98717L12.1638 16.9786L17.0546 4.52812L4.48489 8.98717Z" fill="#4D4D4D"/>
</svg>
