<svg width="205" height="215" viewBox="0 0 205 215" fill="none" xmlns="http://www.w3.org/2000/svg">
<path d="M140.737 0L132.506 4.94311L124.274 0H122.883L131.809 5.35862L96.716 26.4349L61.6205 5.35862L70.5465 0H69.1579L61.2841 4.72819V0H60.5683V4.72819L52.6945 0H51.3035L60.2295 5.35862L24.9503 26.5447C24.8977 26.5765 24.8542 26.6214 24.8241 26.6749C24.794 26.7285 24.7783 26.7889 24.7785 26.8504V69.2036L0 54.3241V55.1599L24.4397 69.834L0 84.5105V85.3463L25.1364 70.2519L60.2295 91.3258L24.9503 112.512L0 127.494V128.33L24.7785 113.45V155.168L0 140.291V141.127L24.7785 156.004V198.152L0 183.275V184.108L24.4397 198.785L0 213.461V214.297L25.3296 199.093L61.1195 177.601L61.1481 177.577C61.1614 177.568 61.1741 177.559 61.1863 177.548C61.1989 177.535 61.2101 177.521 61.2197 177.505C61.2275 177.497 61.2347 177.488 61.2411 177.479V177.479V177.46C61.2505 177.441 61.2585 177.421 61.265 177.4C61.2661 177.392 61.2661 177.384 61.265 177.377C61.265 177.355 61.265 177.334 61.265 177.314C61.265 177.295 61.265 177.314 61.265 177.298V134.942L96.5108 156.109H96.5251C96.5446 156.121 96.5654 156.131 96.5872 156.138H96.611C96.6396 156.14 96.6683 156.14 96.6969 156.138C96.7255 156.14 96.7542 156.14 96.7828 156.138H96.8043C96.826 156.131 96.8468 156.121 96.8663 156.109H96.8806L132.67 134.617C132.723 134.585 132.767 134.54 132.798 134.486C132.828 134.432 132.845 134.371 132.845 134.309V91.5311L168.277 70.2543L203.708 91.5311V134.312C203.708 134.407 203.746 134.498 203.813 134.565C203.88 134.632 203.971 134.67 204.066 134.67C204.161 134.67 204.252 134.632 204.319 134.565C204.387 134.498 204.424 134.407 204.424 134.312V91.3282C204.424 91.2662 204.408 91.2052 204.378 91.1513C204.347 91.0973 204.303 91.0521 204.25 91.0201L168.46 69.5283C168.404 69.4956 168.34 69.4784 168.275 69.4784C168.21 69.4784 168.147 69.4956 168.09 69.5283L132.301 91.0201C132.284 91.0307 132.268 91.0427 132.253 91.0559V91.0559C132.253 91.0703 132.229 91.0822 132.217 91.0989L132.191 91.1443C132.19 91.1498 132.19 91.1554 132.191 91.161C132.191 91.161 132.191 91.1897 132.177 91.204V91.2279V91.2637C132.177 91.2637 132.177 91.2876 132.177 91.2995V134.106L97.1025 155.168V112.818C97.1022 112.756 97.0861 112.695 97.0555 112.642C97.025 112.588 96.9812 112.544 96.9284 112.512L61.6205 91.3258L96.9093 70.142L132.699 48.6502C132.752 48.6182 132.796 48.573 132.827 48.5191C132.857 48.4651 132.873 48.4042 132.873 48.3422V5.99143L168.119 27.1585C168.159 27.1828 168.204 27.1989 168.25 27.206C168.297 27.213 168.344 27.2108 168.39 27.1995C168.436 27.1882 168.479 27.168 168.517 27.14C168.554 27.1121 168.586 27.077 168.611 27.0367C168.635 26.9964 168.651 26.9517 168.658 26.9052C168.665 26.8586 168.663 26.8112 168.652 26.7655C168.64 26.7198 168.62 26.6768 168.592 26.6389C168.564 26.601 168.529 26.569 168.489 26.5447L133.2 5.35862L142.129 0H140.737ZM25.4943 27.0534L60.5683 5.99143V48.1416L25.4943 69.2036V27.0534ZM25.4943 113.45L60.2295 134.309L25.4943 155.168V113.45ZM25.4943 198.152V156.434L60.2295 177.293L25.4943 198.152ZM60.5683 176.66L25.8307 155.801L60.5683 134.942V176.66ZM60.5683 133.677L25.8307 112.818L60.5683 91.9586V133.677ZM96.3581 113.021V155.168L61.2841 134.106V91.9586L96.3581 113.021ZM60.9262 90.9103L25.8307 69.834L60.9262 48.7601L96.0193 69.834L60.9262 90.9103ZM96.3581 69.2036L61.2841 48.1416V5.99143L96.3581 27.0534V69.2036ZM132.148 48.1416L97.0739 69.2036V27.0534L132.148 5.99143V48.1416Z" fill="#64C302"/>
</svg>
