<svg width="61" height="46" viewBox="0 0 61 46" fill="none" xmlns="http://www.w3.org/2000/svg">
<path d="M60.5489 23.5525C60.4465 23.2861 60.2505 23.0741 60.0034 22.9625C59.7563 22.8509 59.4783 22.8488 59.2298 22.9567L52.054 26.0631L44.1395 4.92849L50.7349 2.24766C50.8642 2.20493 50.9839 2.13417 51.0867 2.03974C51.1895 1.94531 51.2733 1.82922 51.3327 1.69863C51.3922 1.56804 51.4261 1.42573 51.4324 1.28049C51.4387 1.13524 51.4173 0.990148 51.3694 0.854164C51.3216 0.718181 51.2483 0.594195 51.1541 0.48986C51.0599 0.385526 50.9469 0.303056 50.8219 0.24755C50.6969 0.192044 50.5627 0.164683 50.4275 0.167145C50.2923 0.169606 50.159 0.201844 50.0358 0.261868L42.5434 3.32567C42.3872 3.40189 42.2512 3.51891 42.1477 3.66609C40.0266 3.51015 37.8999 3.86386 35.9217 4.70155L28.2447 8.02067L28.0204 7.85047C26.1919 6.5388 24.1063 5.69901 21.9263 5.39658C21.8715 5.32351 21.8096 5.25694 21.7416 5.198L15.3309 0.375334C15.2235 0.295237 15.1025 0.238678 14.9748 0.208873C14.847 0.179069 14.7151 0.176608 14.5865 0.201634C14.4579 0.226659 14.3351 0.278684 14.2252 0.354729C14.1153 0.430774 14.0204 0.529351 13.9459 0.644839C13.8714 0.760327 13.8188 0.890462 13.7911 1.02781C13.7634 1.16516 13.7611 1.30704 13.7843 1.44534C13.8076 1.58363 13.856 1.71564 13.9267 1.83384C13.9974 1.95203 14.0891 2.0541 14.1965 2.13419L19.8158 6.38948L7.9441 25.2262L2.12697 20.3326C1.91922 20.1825 1.66625 20.1227 1.41909 20.1652C1.17193 20.2077 0.948957 20.3493 0.795057 20.5616C0.641158 20.7738 0.56779 21.0409 0.589757 21.309C0.611724 21.5772 0.727364 21.8263 0.913407 22.0064L7.50879 27.6801C7.67926 27.8314 7.89459 27.912 8.11559 27.9071H8.19473C8.76921 28.8986 9.44625 29.817 10.2129 30.6446C10.1009 31.2004 10.1057 31.776 10.2272 32.3295C10.3486 32.8829 10.5836 33.4002 10.9148 33.8434C11.2461 34.2866 11.6654 34.6447 12.1419 34.8913C12.6184 35.1379 13.1401 35.2668 13.6689 35.2687C13.8575 35.2897 14.0475 35.2897 14.2361 35.2687H14.3152V35.3538C14.4418 36.2521 14.8645 37.0716 15.5062 37.6627C16.1479 38.2538 16.9658 38.5771 17.8108 38.5737H18.378H18.4571V38.6588C18.6879 39.624 19.2608 40.4539 20.0532 40.9708C20.662 41.4371 21.3899 41.6897 22.1373 41.6942C22.3262 41.7083 22.5157 41.7083 22.7046 41.6942H22.7837V41.7935C22.8531 42.2876 23.0137 42.7617 23.2561 43.1881C23.4985 43.6144 23.8178 43.9842 24.1951 44.2757C24.5722 44.5734 25.0003 44.788 25.4548 44.907C25.9093 45.0261 26.3813 45.0474 26.8435 44.9696C27.3056 44.8918 27.7489 44.7166 28.1479 44.4539C28.5468 44.1912 28.8935 43.8462 29.168 43.4389L29.6693 42.7013L30.9884 43.7084C31.5615 44.1233 32.2365 44.3455 32.9274 44.3467C33.5337 44.3158 34.1227 44.12 34.6395 43.7777C35.1562 43.4353 35.5838 42.9576 35.8821 42.3892C36.1753 41.9215 36.3649 41.3878 36.4361 40.829L37.0033 41.2403C37.5806 41.6571 38.2603 41.8794 38.9555 41.8786C39.1816 41.8831 39.4074 41.8593 39.6283 41.8077C40.0965 41.711 40.5416 41.5128 40.9362 41.225C41.3308 40.9372 41.6667 40.566 41.9235 40.1339C42.3278 39.4793 42.535 38.7068 42.5171 37.9212H42.7018C43.296 37.9186 43.8804 37.758 44.4028 37.4535C44.9253 37.1491 45.3696 36.7104 45.696 36.1765C46.0325 35.6326 46.2313 35.0039 46.273 34.3522C46.3146 33.7005 46.1976 33.0485 45.9335 32.4602C46.2251 32.3338 46.5 32.1669 46.7513 31.9638C48.5284 31.1522 50.1246 29.9434 51.434 28.4177H51.5132C51.6406 28.4183 51.7665 28.3892 51.8825 28.3326L59.9816 24.8433C60.2045 24.7371 60.3844 24.5483 60.4885 24.3113C60.5926 24.0744 60.6141 23.805 60.5489 23.5525ZM15.0671 32.3184C14.9452 32.4972 14.7915 32.6483 14.6149 32.7627C14.4383 32.8772 14.2422 32.9527 14.0382 32.985C13.8337 33.0193 13.625 33.0097 13.4239 32.9568C13.2229 32.904 13.0336 32.8089 12.8669 32.6771C12.7002 32.5453 12.5593 32.3793 12.4525 32.1887C12.3456 31.9981 12.2748 31.7867 12.2443 31.5666C12.1809 31.1231 12.2803 30.6705 12.5213 30.3042L16.0168 25.1553C16.2626 24.791 16.6325 24.5462 17.0457 24.4745H17.2963C17.627 24.4713 17.9501 24.5805 18.2197 24.7865C18.3876 24.9158 18.5293 25.0807 18.6359 25.2709C18.7425 25.4612 18.8118 25.6728 18.8396 25.8929C18.8747 26.1125 18.8682 26.3375 18.8206 26.5544C18.773 26.7713 18.6853 26.9757 18.5626 27.1553L15.0671 32.3184ZM19.209 35.5524C19.0883 35.7339 18.9352 35.8876 18.7585 36.0045C18.5818 36.1215 18.3851 36.1992 18.1801 36.2333C17.9756 36.2675 17.7669 36.2579 17.5659 36.2051C17.3648 36.1522 17.1755 36.0571 17.0088 35.9253C16.842 35.7935 16.7012 35.6275 16.5943 35.4369C16.4875 35.2463 16.4168 35.0349 16.3862 34.8148C16.3538 34.5942 16.3627 34.3689 16.4126 34.1521C16.4624 33.9353 16.5521 33.7314 16.6764 33.5524L20.1587 28.3893L21.5833 26.2901C21.7036 26.1095 21.8569 25.9572 22.0338 25.8425C22.2107 25.7279 22.4075 25.6533 22.6122 25.6234C22.6953 25.6095 22.7798 25.6095 22.8628 25.6234C23.1948 25.6253 23.5178 25.7395 23.7862 25.9496C23.955 26.0794 24.0979 26.2441 24.2067 26.4341C24.3154 26.6241 24.3877 26.8355 24.4193 27.056C24.4775 27.5013 24.3736 27.9535 24.1291 28.3184L19.209 35.5524ZM23.3509 38.8006C23.235 38.9935 23.0837 39.159 22.9062 39.2868C22.7288 39.4147 22.529 39.5023 22.319 39.5442C22.109 39.5861 21.8932 39.5815 21.6849 39.5306C21.4767 39.4798 21.2802 39.3838 21.1076 39.2485C20.9351 39.1131 20.79 38.9414 20.6813 38.7437C20.5726 38.546 20.5025 38.3265 20.4754 38.0986C20.4484 37.8708 20.4648 37.6395 20.5237 37.4187C20.5827 37.198 20.6829 36.9925 20.8183 36.8148L24.3006 31.6517C24.5483 31.2902 24.9188 31.0486 25.3314 30.9796C25.744 30.9105 26.1653 31.0195 26.5035 31.2829C26.6728 31.4124 26.8163 31.577 26.9256 31.7671C27.0348 31.9571 27.1076 32.1688 27.1395 32.3895C27.1715 32.6103 27.162 32.8357 27.1117 33.0525C27.0613 33.2693 26.9712 33.473 26.8464 33.6517L25.4482 35.7084L23.3509 38.8006ZM29.5901 38.9566L27.4928 42.0488C27.3718 42.2242 27.2197 42.3722 27.0454 42.4843C26.871 42.5964 26.6778 42.6703 26.4769 42.702C26.2759 42.7336 26.0711 42.7223 25.8742 42.6686C25.6773 42.6149 25.4922 42.52 25.3295 42.3892C25.1602 42.2598 25.0167 42.0951 24.9074 41.9051C24.7982 41.715 24.7254 41.5034 24.6935 41.2826C24.6615 41.0619 24.671 40.8364 24.7213 40.6197C24.7716 40.4029 24.8618 40.1992 24.9865 40.0205L27.0707 36.9283C27.3217 36.5727 27.6899 36.3341 28.0996 36.2616H28.3502C28.7235 36.2627 29.0845 36.4056 29.3693 36.6652C29.6542 36.9247 29.8445 37.2842 29.9067 37.68C29.9373 37.9048 29.9249 38.1339 29.8705 38.3533C29.8161 38.5728 29.7207 38.7781 29.5901 38.9566ZM34.1937 41.3538C34.0823 41.532 33.9392 41.6848 33.7726 41.8035C33.6061 41.9221 33.4195 42.0042 33.2234 42.0451C33.0273 42.0859 32.8256 42.0847 32.63 42.0416C32.4343 41.9984 32.2485 41.9141 32.0832 41.7935L30.7641 40.8432L31.1994 40.2049C31.7119 39.4368 31.9421 38.492 31.8458 37.5524L33.8771 38.9708C34.0351 39.0873 34.17 39.2363 34.2741 39.4091C34.3783 39.582 34.4496 39.7753 34.4839 39.9779C34.5316 40.2161 34.5303 40.4627 34.4802 40.7003C34.4301 40.938 34.3323 41.161 34.1937 41.3538ZM45.9862 29.9354C45.9265 30.03 45.8555 30.1158 45.7752 30.1907C45.6397 30.2518 45.5183 30.3438 45.4191 30.4602C45.2441 30.5638 45.0508 30.6266 44.8518 30.6446C44.7061 30.662 44.5662 30.7154 44.4429 30.8007L33.4155 22.8007C33.2037 22.6571 32.9487 22.6064 32.7032 22.6592C32.4577 22.712 32.2405 22.8642 32.0964 23.0844C31.966 23.313 31.9207 23.5862 31.9696 23.8493C32.0185 24.1123 32.158 24.3457 32.3602 24.5028L43.7042 32.7297C44.0541 32.9799 44.2972 33.3693 44.38 33.8122C44.4629 34.2551 44.3788 34.7152 44.1461 35.0914C43.9135 35.4676 43.5514 35.729 43.1395 35.8181C42.7277 35.9072 42.2997 35.8168 41.9499 35.5666L30.5267 27.283C30.3149 27.1393 30.0599 27.0886 29.8144 27.1414C29.5689 27.1942 29.3517 27.3465 29.2076 27.5666C29.0772 27.7953 29.0319 28.0685 29.0808 28.3315C29.1297 28.5945 29.2693 28.828 29.4714 28.9851L40.024 36.6304C40.193 36.7586 40.3362 36.9219 40.4453 37.1107C40.5543 37.2996 40.627 37.51 40.659 37.7296C40.691 37.9493 40.6817 38.1735 40.6315 38.3892C40.5813 38.6048 40.4914 38.8075 40.367 38.985C40.2567 39.1648 40.1142 39.319 39.9478 39.4387C39.7813 39.5584 39.5943 39.6412 39.3977 39.6822C39.2011 39.7231 38.9989 39.7215 38.8029 39.6773C38.607 39.633 38.4211 39.5472 38.2564 39.4247L35.1434 37.1836L29.2999 32.9283C29.3329 32.6125 29.3329 32.2938 29.2999 31.978C29.2307 31.4803 29.0688 31.0027 28.824 30.5738C28.5793 30.1448 28.2566 29.7734 27.8753 29.4815C27.414 29.1155 26.874 28.8813 26.3056 28.8007C26.5888 28.1206 26.685 27.3675 26.5827 26.6305C26.4333 25.6301 25.9226 24.7337 25.1618 24.136C24.401 23.5384 23.4515 23.2879 22.5199 23.439C21.8329 23.5608 21.1924 23.8905 20.6732 24.3894C20.4253 23.829 20.054 23.3421 19.5915 22.9709C18.8296 22.3779 17.8804 22.1331 16.9512 22.2898C16.022 22.4466 15.1882 22.9923 14.6318 23.8078L11.5056 28.4319C10.912 27.7189 10.3985 26.9334 9.97545 26.0915L21.7153 7.36819C23.2752 7.57361 24.7842 8.09844 26.1605 8.91429L21.3723 10.9852C21.2485 11.0379 21.136 11.1169 21.0413 11.2175C20.9466 11.3181 20.8717 11.4383 20.8212 11.5707C20.7707 11.7031 20.7457 11.8452 20.7474 11.9883C20.7492 12.1314 20.7777 12.2727 20.8315 12.4036C21.433 14.0146 22.6033 15.3039 24.0864 15.9897C25.5695 16.6755 27.2448 16.7019 28.7459 16.0632L32.07 14.6447L33.9826 17.9639C34.634 19.0759 35.5161 20.0107 36.5597 20.6948C37.6032 21.379 38.78 21.7939 39.9976 21.9071L45.4982 27.4815L45.6301 27.5808C45.7986 27.7092 45.9416 27.8722 46.0509 28.0606C46.1602 28.2489 46.2336 28.4588 46.2667 28.6779C46.2998 28.8971 46.2921 29.1211 46.244 29.337C46.1958 29.5529 46.1082 29.7563 45.9862 29.9354ZM48.2551 28.7156C48.2288 28.1554 48.0846 27.609 47.8332 27.1175C47.5819 26.6261 47.23 26.2025 46.8041 25.8787L42.6622 21.6234C43.4466 21.4118 44.1947 21.067 44.8782 20.6021C45.0793 20.4436 45.2174 20.2093 45.2647 19.946C45.312 19.6827 45.2651 19.4099 45.1334 19.1823C45.0017 18.9546 44.7949 18.7888 44.5543 18.718C44.3138 18.6473 44.0573 18.6768 43.8361 18.8007C42.5014 19.6976 40.8901 19.9878 39.3564 19.6074C37.8228 19.2271 36.4924 18.2073 35.6579 16.7724L33.3099 12.7157C33.1894 12.5028 33.0033 12.3422 32.7839 12.2618C32.5645 12.1815 32.3259 12.1865 32.1096 12.276L27.9677 14.0206C27.4661 14.2454 26.9281 14.3611 26.3848 14.3611C25.8414 14.3611 25.3034 14.2454 24.8019 14.0206C24.1016 13.7055 23.4981 13.1844 23.0607 12.5171L36.6208 6.67317C38.4378 5.89899 40.4005 5.60236 42.3456 5.80792L50.1677 26.8007C49.5969 27.512 48.9556 28.1541 48.2551 28.7156Z" fill="#FDA100"/>
</svg>
