<svg width="21" height="21" viewBox="0 0 21 21" fill="none" xmlns="http://www.w3.org/2000/svg">
<path d="M12.6251 20.8596C12.2594 20.8596 11.9029 20.7128 11.6378 20.4376L0.996989 9.36334C0.677034 9.02387 0.539906 8.54677 0.649605 8.08802C0.759304 7.62927 1.08842 7.26227 1.52722 7.10629L18.9419 0.931518C19.4447 0.748018 20.0115 0.885646 20.3863 1.271C20.7611 1.65635 20.8708 2.2252 20.6788 2.72982L13.9049 19.9788C13.7312 20.4192 13.3564 20.7312 12.8993 20.8229C12.7988 20.8504 12.7074 20.8596 12.6251 20.8596ZM4.44338 8.98717L12.1223 16.9786L17.013 4.52812L4.44338 8.98717Z" fill="#4D4D4D"/>
</svg>
